<svg xmlns="http://www.w3.org/2000/svg" viewBox="0 0 33.64 52.57"><defs><style>.cls-1{fill:#cecece;}</style></defs><title>Ativo 89</title><g id="Camada_2" data-name="Camada 2"><g id="Camada_20" data-name="Camada 20"><path class="cls-1" d="M33.64,27.15a1.86,1.86,0,1,0-3.71,0,13.11,13.11,0,0,1-26.22,0,1.82,1.82,0,0,0-1.85-1.86A1.83,1.83,0,0,0,0,27.15,16.82,16.82,0,0,0,15,43.91v5H8.23a1.86,1.86,0,1,0,0,3.71H25.42a1.86,1.86,0,0,0,0-3.71H18.68v-5A16.82,16.82,0,0,0,33.64,27.15Z"/><path class="cls-1" d="M16.82,0A10.35,10.35,0,0,0,6.49,10.33V27.09a10.33,10.33,0,1,0,20.66.06V10.33A10.35,10.35,0,0,0,16.82,0Z"/></g></g></svg>