<svg xmlns="http://www.w3.org/2000/svg" xmlns:xlink="http://www.w3.org/1999/xlink" viewBox="0 0 7680 4320"><defs><style>.cls-1,.cls-7{fill:#cecece;}.cls-2{fill:none;}.cls-3{fill:#023047;}.cls-4{opacity:0.03;}.cls-5{clip-path:url(#clip-path);}.cls-6{clip-path:url(#clip-path-2);}.cls-7{opacity:0.1;}.cls-8{clip-path:url(#clip-path-3);}.cls-9{clip-path:url(#clip-path-4);}.cls-10{clip-path:url(#clip-path-6);}.cls-11{clip-path:url(#clip-path-8);}.cls-12{clip-path:url(#clip-path-9);}.cls-13{fill:url(#Novo_padrão_2);}</style><clipPath id="clip-path"><path class="cls-1" d="M82.87,80.67c1.3-10.77,5-20.39,13.31-27.83a26.11,26.11,0,0,1,9.13-5.49c1.79-.61,2-1.53,2-3.19C107.12,32.44,100,22.8,88,18a38.59,38.59,0,0,0-9.31-2.31c-2.72-.34-4.16-2.05-3.87-4.37s2-3.53,4.61-3.23c14,1.65,31,10.34,34.76,29.23a21,21,0,0,1,.71,4.88c-.1,2.27.59,3.16,2.9,2.69a12,12,0,0,1,2.75,0,3.62,3.62,0,0,1,3.84,3.51c.24,2.11-1.25,3.79-3.61,4s-5,.09-7.4.52c-11,2-17.32,9.15-20.85,19.26a46.9,46.9,0,0,0-2.06,9.38C90,85,88.58,86.49,86.23,86.28,83.73,86.06,82.6,84.16,82.87,80.67Z"/></clipPath><clipPath id="clip-path-2"><rect class="cls-1" x="83.07" y="2.43" width="124.73" height="154.19"/></clipPath><clipPath id="clip-path-3"><rect class="cls-1" x="-41.66" y="2.43" width="124.73" height="154.19"/></clipPath><clipPath id="clip-path-4"><path class="cls-1" d="M40.85,50.12a35.86,35.86,0,0,1-22.5-10.24A35,35,0,0,1,7.57,12.61c.11-3.06,1.43-4.7,3.81-4.7s3.86,1.76,3.82,5c-.18,13.8,7.68,25,20.47,28.5,10,2.76,19,.61,26.87-6.27.76-.67,1.44-1.42,2.13-2.15,2.12-2.21,4.24-2.58,6-1s1.76,3.83-.41,6.26c-4.25,4.74-9.33,8.4-15.47,10-3.73,1-5.76,2.75-7.49,6.3-5.11,10.5-13.38,17-25.48,17.75-2.77.16-4.55-1.18-4.76-3.45s1.4-3.77,4.17-4.09q1.23-.14,2.46-.3A22,22,0,0,0,40.85,50.12Z"/></clipPath><clipPath id="clip-path-6"><path class="cls-1" d="M14.66,116.21c2.09.69,2.85-.15,3.08-2.86C19.68,90.8,38.4,81.17,53.44,79.53a3.65,3.65,0,0,1,4.32,3.24c.21,2.39-.93,3.89-3.32,4.22-8.32,1.12-15.78,4.16-21.74,10.17-5.3,5.34-7.35,12.09-7.48,19.5,0,1,.36,1.38,1.28,1.76C42,124.8,48,137.6,49.78,153.19a3.76,3.76,0,0,1-3.44,4.45c-2.24.2-3.8-1.2-4.1-3.81a42.12,42.12,0,0,0-5.49-17.4c-5-8.21-12.44-12.1-21.87-12.57-.82,0-1.65,0-2.48,0-2.54-.1-4.19-1.57-4.22-3.74s1.6-3.71,4.13-3.9C12.94,116.18,13.59,116.21,14.66,116.21Z"/></clipPath><clipPath id="clip-path-8"><rect class="cls-1" x="-41.66" y="156.62" width="124.73" height="154.19"/></clipPath><clipPath id="clip-path-9"><path class="cls-1" d="M83.09,126.76c4.14,8.16,9.88,13.76,19.39,14.34,3,.18,4.7,1.74,4.62,4s-2,3.8-5.15,3.59c-12.11-.82-20.2-7.56-25.29-18-1.59-3.26-3.33-4.94-6.85-5.84A31.85,31.85,0,0,1,54.22,115c-2.48-2.68-2.71-5-.76-6.66s3.84-1.19,6.34,1.42c7.68,8,17,11,27.78,8.34S105,108.47,108.09,98a28.46,28.46,0,0,0,.9-8.72c-.08-3,1.32-4.78,3.62-4.89s3.92,1.73,4,4.84a35.86,35.86,0,0,1-30.7,37C85.05,126.36,84.17,126.56,83.09,126.76Z"/></clipPath><pattern id="Novo_padrão_2" data-name="Novo padrão 2" width="129.27" height="161.52" patternTransform="translate(598.25 -375.04) scale(1.99)" patternUnits="userSpaceOnUse" viewBox="0 0 129.27 161.52"><rect class="cls-2" width="129.27" height="161.52"/><rect class="cls-3" x="127.86" y="160.63" width="132.1" height="163.29"/><rect class="cls-3" x="-1.41" y="160.63" width="132.1" height="163.29"/><rect class="cls-3" x="-130.68" y="160.63" width="132.1" height="163.29"/><rect class="cls-3" x="127.86" y="-0.89" width="132.1" height="163.29"/><rect class="cls-3" x="-1.41" y="-0.89" width="132.1" height="163.29"/><g class="cls-4"><path class="cls-1" d="M82.87,80.67c1.3-10.77,5-20.39,13.31-27.83a26.11,26.11,0,0,1,9.13-5.49c1.79-.61,2-1.53,2-3.19C107.12,32.44,100,22.8,88,18a38.59,38.59,0,0,0-9.31-2.31c-2.72-.34-4.16-2.05-3.87-4.37s2-3.53,4.61-3.23c14,1.65,31,10.34,34.76,29.23a21,21,0,0,1,.71,4.88c-.1,2.27.59,3.16,2.9,2.69a12,12,0,0,1,2.75,0,3.62,3.62,0,0,1,3.84,3.51c.24,2.11-1.25,3.79-3.61,4s-5,.09-7.4.52c-11,2-17.32,9.15-20.85,19.26a46.9,46.9,0,0,0-2.06,9.38C90,85,88.58,86.49,86.23,86.28,83.73,86.06,82.6,84.16,82.87,80.67Z"/><g class="cls-5"><rect class="cls-1" x="83.07" y="2.43" width="124.73" height="154.19"/><g class="cls-6"><rect class="cls-1" x="83.07" y="2.43" width="124.73" height="154.19"/><path class="cls-7" d="M163.67,79.44C165,68.66,168.7,59.05,177,51.6a26.31,26.31,0,0,1,9.12-5.49c1.79-.6,2.06-1.53,2-3.18-.21-11.73-7.31-21.36-19.38-26.13a38.22,38.22,0,0,0-9.31-2.3c-2.73-.34-4.16-2.06-3.87-4.38s2-3.53,4.61-3.22c14,1.65,31,10.33,34.76,29.22a21.15,21.15,0,0,1,.71,4.88c-.1,2.27.59,3.16,2.9,2.7a12,12,0,0,1,2.75,0,3.62,3.62,0,0,1,3.84,3.51c.23,2.11-1.25,3.79-3.61,4s-5,.09-7.4.53c-11,2-17.32,9.15-20.86,19.26a46.19,46.19,0,0,0-2.05,9.38c-.44,3.34-1.85,4.87-4.2,4.67C164.52,84.83,163.4,82.93,163.67,79.44Z"/><path class="cls-7" d="M121.64,48.88a35.75,35.75,0,0,1-22.5-10.24A35.08,35.08,0,0,1,88.36,11.37c.12-3.06,1.44-4.69,3.82-4.69S96,8.44,96,11.63c-.19,13.8,7.68,25,20.47,28.5,10,2.77,19,.62,26.87-6.27.75-.66,1.43-1.42,2.13-2.15,2.12-2.21,4.23-2.58,6-1s1.76,3.84-.42,6.26c-4.24,4.75-9.33,8.41-15.46,10-3.73,1-5.77,2.75-7.49,6.29C123,63.77,114.71,70.3,102.62,71c-2.77.17-4.56-1.18-4.76-3.45s1.39-3.76,4.17-4.08c.82-.09,1.63-.2,2.45-.31A22,22,0,0,0,121.64,48.88Z"/><path class="cls-7" d="M95.46,115c2.09.69,2.85-.15,3.08-2.86,1.94-22.56,20.66-32.19,35.7-33.82a3.64,3.64,0,0,1,4.32,3.24c.2,2.39-.93,3.89-3.33,4.21-8.31,1.13-15.78,4.17-21.73,10.17-5.3,5.35-7.35,12.09-7.48,19.51,0,1,.35,1.38,1.27,1.76,15.52,6.38,21.52,19.17,23.29,34.76a3.77,3.77,0,0,1-3.44,4.46c-2.24.19-3.81-1.2-4.1-3.81a42.12,42.12,0,0,0-5.49-17.41c-5-8.21-12.45-12.1-21.87-12.56-.83,0-1.66,0-2.48,0-2.54-.09-4.19-1.56-4.22-3.74s1.59-3.71,4.12-3.89C93.74,114.94,94.39,115,95.46,115Z"/><path class="cls-7" d="M163.89,125.53c4.14,8.15,9.87,13.75,19.39,14.34,3,.18,4.7,1.74,4.62,4s-2,3.8-5.16,3.58c-12.1-.81-20.2-7.56-25.29-18-1.58-3.25-3.33-4.94-6.85-5.83A32.09,32.09,0,0,1,135,113.77c-2.47-2.69-2.7-5-.76-6.66s3.84-1.19,6.34,1.42c7.68,8,17,11,27.78,8.34s17.42-9.64,20.52-20.16a28.05,28.05,0,0,0,.89-8.71c-.07-3,1.33-4.79,3.63-4.9s3.92,1.74,4,4.84A35.88,35.88,0,0,1,166.73,125C165.84,125.12,165,125.32,163.89,125.53Z"/></g><rect class="cls-1" x="-41.66" y="2.43" width="124.73" height="154.19"/><g class="cls-8"><rect class="cls-1" x="-41.66" y="2.43" width="124.73" height="154.19"/><path class="cls-7" d="M38.94,79.44c1.3-10.78,5-20.39,13.31-27.84a26.31,26.31,0,0,1,9.12-5.49c1.79-.6,2.06-1.53,2-3.18C63.19,31.2,56.09,21.57,44,16.8a38.22,38.22,0,0,0-9.31-2.3c-2.73-.34-4.16-2.06-3.87-4.38s2-3.53,4.61-3.22c14,1.65,31,10.33,34.76,29.22A21.15,21.15,0,0,1,70.92,41c-.1,2.27.59,3.16,2.9,2.7a12,12,0,0,1,2.75,0,3.62,3.62,0,0,1,3.84,3.51c.23,2.11-1.25,3.79-3.61,4s-5,.09-7.4.53c-11,2-17.32,9.15-20.85,19.26a45.55,45.55,0,0,0-2.06,9.38c-.44,3.34-1.85,4.87-4.2,4.67S38.67,82.93,38.94,79.44Z"/><path class="cls-7" d="M-3.09,48.88a35.78,35.78,0,0,1-22.5-10.24A35,35,0,0,1-36.36,11.37c.11-3.06,1.43-4.69,3.81-4.69s3.86,1.76,3.82,5c-.19,13.8,7.68,25,20.47,28.5,10,2.77,19,.62,26.87-6.27.76-.66,1.43-1.42,2.13-2.15,2.12-2.21,4.23-2.58,6-1s1.76,3.84-.41,6.26C22.08,41.68,17,45.34,10.86,47c-3.73,1-5.77,2.75-7.49,6.29C-1.74,63.77-10,70.3-22.11,71c-2.77.17-4.56-1.18-4.76-3.45s1.39-3.76,4.17-4.08c.82-.09,1.64-.2,2.45-.31A22,22,0,0,0-3.09,48.88Z"/><path class="cls-7" d="M-29.27,115c2.09.69,2.85-.15,3.08-2.86C-24.25,89.56-5.53,79.93,9.51,78.3a3.64,3.64,0,0,1,4.32,3.24c.2,2.39-.93,3.89-3.33,4.21C2.19,86.88-5.28,89.92-11.23,95.92c-5.3,5.35-7.35,12.09-7.48,19.51,0,1,.35,1.38,1.28,1.76C-1.92,123.57,4.08,136.36,5.85,152a3.77,3.77,0,0,1-3.44,4.46c-2.24.19-3.81-1.2-4.1-3.81a42.12,42.12,0,0,0-5.49-17.41c-5-8.21-12.44-12.1-21.87-12.56-.83,0-1.66,0-2.48,0-2.54-.09-4.19-1.56-4.22-3.74s1.59-3.71,4.12-3.89C-31,114.94-30.34,115-29.27,115Z"/><path class="cls-7" d="M39.16,125.53c4.14,8.15,9.87,13.75,19.39,14.34,3,.18,4.7,1.74,4.62,4s-2,3.8-5.15,3.58c-12.11-.81-20.21-7.56-25.3-18-1.58-3.25-3.33-4.94-6.85-5.83a32.09,32.09,0,0,1-15.59-9.84c-2.47-2.69-2.7-5-.76-6.66s3.84-1.19,6.34,1.42c7.69,8,17.06,11,27.79,8.34s17.41-9.64,20.51-20.16A28.05,28.05,0,0,0,65.05,88c-.07-3,1.33-4.79,3.63-4.9s3.92,1.74,4,4.84A35.87,35.87,0,0,1,42,125C41.11,125.12,40.24,125.32,39.16,125.53Z"/></g></g></g><g class="cls-4"><path class="cls-1" d="M40.85,50.12a35.86,35.86,0,0,1-22.5-10.24A35,35,0,0,1,7.57,12.61c.11-3.06,1.43-4.7,3.81-4.7s3.86,1.76,3.82,5c-.18,13.8,7.68,25,20.47,28.5,10,2.76,19,.61,26.87-6.27.76-.67,1.44-1.42,2.13-2.15,2.12-2.21,4.24-2.58,6-1s1.76,3.83-.41,6.26c-4.25,4.74-9.33,8.4-15.47,10-3.73,1-5.76,2.75-7.49,6.3-5.11,10.5-13.38,17-25.48,17.75-2.77.16-4.55-1.18-4.76-3.45s1.4-3.77,4.17-4.09q1.23-.14,2.46-.3A22,22,0,0,0,40.85,50.12Z"/><g class="cls-9"><rect class="cls-1" x="-41.66" y="2.43" width="124.73" height="154.19"/><g class="cls-8"><rect class="cls-1" x="-41.66" y="2.43" width="124.73" height="154.19"/><path class="cls-7" d="M38.94,79.44c1.3-10.78,5-20.39,13.31-27.84a26.31,26.31,0,0,1,9.12-5.49c1.79-.6,2.06-1.53,2-3.18C63.19,31.2,56.09,21.57,44,16.8a38.22,38.22,0,0,0-9.31-2.3c-2.73-.34-4.16-2.06-3.87-4.38s2-3.53,4.61-3.22c14,1.65,31,10.33,34.76,29.22A21.15,21.15,0,0,1,70.92,41c-.1,2.27.59,3.16,2.9,2.7a12,12,0,0,1,2.75,0,3.62,3.62,0,0,1,3.84,3.51c.23,2.11-1.25,3.79-3.61,4s-5,.09-7.4.53c-11,2-17.32,9.15-20.85,19.26a45.55,45.55,0,0,0-2.06,9.38c-.44,3.34-1.85,4.87-4.2,4.67S38.67,82.93,38.94,79.44Z"/><path class="cls-7" d="M-3.09,48.88a35.78,35.78,0,0,1-22.5-10.24A35,35,0,0,1-36.36,11.37c.11-3.06,1.43-4.69,3.81-4.69s3.86,1.76,3.82,5c-.19,13.8,7.68,25,20.47,28.5,10,2.77,19,.62,26.87-6.27.76-.66,1.43-1.42,2.13-2.15,2.12-2.21,4.23-2.58,6-1s1.76,3.84-.41,6.26C22.08,41.68,17,45.34,10.86,47c-3.73,1-5.77,2.75-7.49,6.29C-1.74,63.77-10,70.3-22.11,71c-2.77.17-4.56-1.18-4.76-3.45s1.39-3.76,4.17-4.08c.82-.09,1.64-.2,2.45-.31A22,22,0,0,0-3.09,48.88Z"/><path class="cls-7" d="M-29.27,115c2.09.69,2.85-.15,3.08-2.86C-24.25,89.56-5.53,79.93,9.51,78.3a3.64,3.64,0,0,1,4.32,3.24c.2,2.39-.93,3.89-3.33,4.21C2.19,86.88-5.28,89.92-11.23,95.92c-5.3,5.35-7.35,12.09-7.48,19.51,0,1,.35,1.38,1.28,1.76C-1.92,123.57,4.08,136.36,5.85,152a3.77,3.77,0,0,1-3.44,4.46c-2.24.19-3.81-1.2-4.1-3.81a42.12,42.12,0,0,0-5.49-17.41c-5-8.21-12.44-12.1-21.87-12.56-.83,0-1.66,0-2.48,0-2.54-.09-4.19-1.56-4.22-3.74s1.59-3.71,4.12-3.89C-31,114.94-30.34,115-29.27,115Z"/><path class="cls-7" d="M39.16,125.53c4.14,8.15,9.87,13.75,19.39,14.34,3,.18,4.7,1.74,4.62,4s-2,3.8-5.15,3.58c-12.11-.81-20.21-7.56-25.3-18-1.58-3.25-3.33-4.94-6.85-5.83a32.09,32.09,0,0,1-15.59-9.84c-2.47-2.69-2.7-5-.76-6.66s3.84-1.19,6.34,1.42c7.69,8,17.06,11,27.79,8.34s17.41-9.64,20.51-20.16A28.05,28.05,0,0,0,65.05,88c-.07-3,1.33-4.79,3.63-4.9s3.92,1.74,4,4.84A35.87,35.87,0,0,1,42,125C41.11,125.12,40.24,125.32,39.16,125.53Z"/></g></g></g><g class="cls-4"><path class="cls-1" d="M14.66,116.21c2.09.69,2.85-.15,3.08-2.86C19.68,90.8,38.4,81.17,53.44,79.53a3.65,3.65,0,0,1,4.32,3.24c.21,2.39-.93,3.89-3.32,4.22-8.32,1.12-15.78,4.16-21.74,10.17-5.3,5.34-7.35,12.09-7.48,19.5,0,1,.36,1.38,1.28,1.76C42,124.8,48,137.6,49.78,153.19a3.76,3.76,0,0,1-3.44,4.45c-2.24.2-3.8-1.2-4.1-3.81a42.12,42.12,0,0,0-5.49-17.4c-5-8.21-12.44-12.1-21.87-12.57-.82,0-1.65,0-2.48,0-2.54-.1-4.19-1.57-4.22-3.74s1.6-3.71,4.13-3.9C12.94,116.18,13.59,116.21,14.66,116.21Z"/><g class="cls-10"><rect class="cls-1" x="-41.66" y="2.43" width="124.73" height="154.19"/><g class="cls-8"><rect class="cls-1" x="-41.66" y="2.43" width="124.73" height="154.19"/><path class="cls-7" d="M38.94,79.44c1.3-10.78,5-20.39,13.31-27.84a26.31,26.31,0,0,1,9.12-5.49c1.79-.6,2.06-1.53,2-3.18C63.19,31.2,56.09,21.57,44,16.8a38.22,38.22,0,0,0-9.31-2.3c-2.73-.34-4.16-2.06-3.87-4.38s2-3.53,4.61-3.22c14,1.65,31,10.33,34.76,29.22A21.15,21.15,0,0,1,70.92,41c-.1,2.27.59,3.16,2.9,2.7a12,12,0,0,1,2.75,0,3.62,3.62,0,0,1,3.84,3.51c.23,2.11-1.25,3.79-3.61,4s-5,.09-7.4.53c-11,2-17.32,9.15-20.85,19.26a45.55,45.55,0,0,0-2.06,9.38c-.44,3.34-1.85,4.87-4.2,4.67S38.67,82.93,38.94,79.44Z"/><path class="cls-7" d="M-3.09,48.88a35.78,35.78,0,0,1-22.5-10.24A35,35,0,0,1-36.36,11.37c.11-3.06,1.43-4.69,3.81-4.69s3.86,1.76,3.82,5c-.19,13.8,7.68,25,20.47,28.5,10,2.77,19,.62,26.87-6.27.76-.66,1.43-1.42,2.13-2.15,2.12-2.21,4.23-2.58,6-1s1.76,3.84-.41,6.26C22.08,41.68,17,45.34,10.86,47c-3.73,1-5.77,2.75-7.49,6.29C-1.74,63.77-10,70.3-22.11,71c-2.77.17-4.56-1.18-4.76-3.45s1.39-3.76,4.17-4.08c.82-.09,1.64-.2,2.45-.31A22,22,0,0,0-3.09,48.88Z"/><path class="cls-7" d="M-29.27,115c2.09.69,2.85-.15,3.08-2.86C-24.25,89.56-5.53,79.93,9.51,78.3a3.64,3.64,0,0,1,4.32,3.24c.2,2.39-.93,3.89-3.33,4.21C2.19,86.88-5.28,89.92-11.23,95.92c-5.3,5.35-7.35,12.09-7.48,19.51,0,1,.35,1.38,1.28,1.76C-1.92,123.57,4.08,136.36,5.85,152a3.77,3.77,0,0,1-3.44,4.46c-2.24.19-3.81-1.2-4.1-3.81a42.12,42.12,0,0,0-5.49-17.41c-5-8.21-12.44-12.1-21.87-12.56-.83,0-1.66,0-2.48,0-2.54-.09-4.19-1.56-4.22-3.74s1.59-3.71,4.12-3.89C-31,114.94-30.34,115-29.27,115Z"/><path class="cls-7" d="M39.16,125.53c4.14,8.15,9.87,13.75,19.39,14.34,3,.18,4.7,1.74,4.62,4s-2,3.8-5.15,3.58c-12.11-.81-20.21-7.56-25.3-18-1.58-3.25-3.33-4.94-6.85-5.83a32.09,32.09,0,0,1-15.59-9.84c-2.47-2.69-2.7-5-.76-6.66s3.84-1.19,6.34,1.42c7.69,8,17.06,11,27.79,8.34s17.41-9.64,20.51-20.16A28.05,28.05,0,0,0,65.05,88c-.07-3,1.33-4.79,3.63-4.9s3.92,1.74,4,4.84A35.87,35.87,0,0,1,42,125C41.11,125.12,40.24,125.32,39.16,125.53Z"/></g><rect class="cls-1" x="-41.66" y="156.62" width="124.73" height="154.19"/><g class="cls-11"><rect class="cls-1" x="-41.66" y="156.62" width="124.73" height="154.19"/><path class="cls-7" d="M38.94,233.62c1.3-10.77,5-20.39,13.31-27.83a26.31,26.31,0,0,1,9.12-5.49c1.79-.61,2.06-1.53,2-3.19C63.19,185.39,56.09,175.75,44,171a38.7,38.7,0,0,0-9.31-2.31c-2.73-.34-4.16-2.05-3.87-4.37s2-3.53,4.61-3.22c14,1.64,31,10.33,34.76,29.22a21,21,0,0,1,.71,4.88c-.1,2.27.59,3.16,2.9,2.69a12.62,12.62,0,0,1,2.75,0,3.62,3.62,0,0,1,3.84,3.51c.23,2.11-1.25,3.79-3.61,4s-5,.09-7.4.52c-11,2-17.32,9.15-20.85,19.27a45.46,45.46,0,0,0-2.06,9.37c-.44,3.35-1.85,4.88-4.2,4.67S38.67,237.11,38.94,233.62Z"/><path class="cls-7" d="M-3.09,203.07a35.88,35.88,0,0,1-22.5-10.24,35,35,0,0,1-10.77-27.27c.11-3.06,1.43-4.69,3.81-4.7s3.86,1.76,3.82,5c-.19,13.8,7.68,25,20.47,28.5,10,2.76,19,.61,26.87-6.27.76-.67,1.43-1.42,2.13-2.15,2.12-2.21,4.23-2.58,6-1s1.76,3.83-.41,6.26c-4.25,4.74-9.34,8.41-15.47,10a10.45,10.45,0,0,0-7.49,6.3c-5.11,10.5-13.38,17-25.48,17.75-2.77.16-4.56-1.18-4.76-3.45s1.39-3.77,4.17-4.08l2.45-.31A22,22,0,0,0-3.09,203.07Z"/><path class="cls-7" d="M-29.27,269.17c2.09.68,2.85-.16,3.08-2.86,1.94-22.56,20.66-32.19,35.7-33.82a3.64,3.64,0,0,1,4.32,3.23c.2,2.4-.93,3.9-3.33,4.22-8.31,1.12-15.78,4.16-21.73,10.17-5.3,5.34-7.35,12.09-7.48,19.5,0,1,.35,1.38,1.28,1.76,15.51,6.38,21.51,19.18,23.28,34.77a3.76,3.76,0,0,1-3.44,4.45c-2.24.2-3.81-1.2-4.1-3.81a42.12,42.12,0,0,0-5.49-17.4c-5-8.21-12.44-12.1-21.87-12.57-.83,0-1.66,0-2.48,0-2.54-.1-4.19-1.57-4.22-3.74s1.59-3.71,4.12-3.9C-31,269.13-30.34,269.17-29.27,269.17Z"/><path class="cls-7" d="M39.16,279.71c4.14,8.16,9.87,13.76,19.39,14.34,3,.18,4.7,1.74,4.62,4s-2,3.8-5.15,3.59c-12.11-.82-20.21-7.56-25.3-18-1.58-3.26-3.33-4.94-6.85-5.84-6.14-1.56-11.28-5.15-15.59-9.83-2.47-2.69-2.7-5-.76-6.67s3.84-1.19,6.34,1.42c7.69,8,17.06,11,27.79,8.34s17.41-9.63,20.51-20.15a28.15,28.15,0,0,0,.89-8.72c-.07-3,1.33-4.78,3.63-4.89s3.92,1.73,4,4.84a35.86,35.86,0,0,1-30.7,37C41.11,279.31,40.24,279.51,39.16,279.71Z"/></g></g></g><g class="cls-4"><path class="cls-1" d="M83.09,126.76c4.14,8.16,9.88,13.76,19.39,14.34,3,.18,4.7,1.74,4.62,4s-2,3.8-5.15,3.59c-12.11-.82-20.2-7.56-25.29-18-1.59-3.26-3.33-4.94-6.85-5.84A31.85,31.85,0,0,1,54.22,115c-2.48-2.68-2.71-5-.76-6.66s3.84-1.19,6.34,1.42c7.68,8,17,11,27.78,8.34S105,108.47,108.09,98a28.46,28.46,0,0,0,.9-8.72c-.08-3,1.32-4.78,3.62-4.89s3.92,1.73,4,4.84a35.86,35.86,0,0,1-30.7,37C85.05,126.36,84.17,126.56,83.09,126.76Z"/><g class="cls-12"><rect class="cls-1" x="83.07" y="2.43" width="124.73" height="154.19"/><g class="cls-6"><rect class="cls-1" x="83.07" y="2.43" width="124.73" height="154.19"/><path class="cls-7" d="M163.67,79.44C165,68.66,168.7,59.05,177,51.6a26.31,26.31,0,0,1,9.12-5.49c1.79-.6,2.06-1.53,2-3.18-.21-11.73-7.31-21.36-19.38-26.13a38.22,38.22,0,0,0-9.31-2.3c-2.73-.34-4.16-2.06-3.87-4.38s2-3.53,4.61-3.22c14,1.65,31,10.33,34.76,29.22a21.15,21.15,0,0,1,.71,4.88c-.1,2.27.59,3.16,2.9,2.7a12,12,0,0,1,2.75,0,3.62,3.62,0,0,1,3.84,3.51c.23,2.11-1.25,3.79-3.61,4s-5,.09-7.4.53c-11,2-17.32,9.15-20.86,19.26a46.19,46.19,0,0,0-2.05,9.38c-.44,3.34-1.85,4.87-4.2,4.67C164.52,84.83,163.4,82.93,163.67,79.44Z"/><path class="cls-7" d="M121.64,48.88a35.75,35.75,0,0,1-22.5-10.24A35.08,35.08,0,0,1,88.36,11.37c.12-3.06,1.44-4.69,3.82-4.69S96,8.44,96,11.63c-.19,13.8,7.68,25,20.47,28.5,10,2.77,19,.62,26.87-6.27.75-.66,1.43-1.42,2.13-2.15,2.12-2.21,4.23-2.58,6-1s1.76,3.84-.42,6.26c-4.24,4.75-9.33,8.41-15.46,10-3.73,1-5.77,2.75-7.49,6.29C123,63.77,114.71,70.3,102.62,71c-2.77.17-4.56-1.18-4.76-3.45s1.39-3.76,4.17-4.08c.82-.09,1.63-.2,2.45-.31A22,22,0,0,0,121.64,48.88Z"/><path class="cls-7" d="M95.46,115c2.09.69,2.85-.15,3.08-2.86,1.94-22.56,20.66-32.19,35.7-33.82a3.64,3.64,0,0,1,4.32,3.24c.2,2.39-.93,3.89-3.33,4.21-8.31,1.13-15.78,4.17-21.73,10.17-5.3,5.35-7.35,12.09-7.48,19.51,0,1,.35,1.38,1.27,1.76,15.52,6.38,21.52,19.17,23.29,34.76a3.77,3.77,0,0,1-3.44,4.46c-2.24.19-3.81-1.2-4.1-3.81a42.12,42.12,0,0,0-5.49-17.41c-5-8.21-12.45-12.1-21.87-12.56-.83,0-1.66,0-2.48,0-2.54-.09-4.19-1.56-4.22-3.74s1.59-3.71,4.12-3.89C93.74,114.94,94.39,115,95.46,115Z"/><path class="cls-7" d="M163.89,125.53c4.14,8.15,9.87,13.75,19.39,14.34,3,.18,4.7,1.74,4.62,4s-2,3.8-5.16,3.58c-12.1-.81-20.2-7.56-25.29-18-1.58-3.25-3.33-4.94-6.85-5.83A32.09,32.09,0,0,1,135,113.77c-2.47-2.69-2.7-5-.76-6.66s3.84-1.19,6.34,1.42c7.68,8,17,11,27.78,8.34s17.42-9.64,20.52-20.16a28.05,28.05,0,0,0,.89-8.71c-.07-3,1.33-4.79,3.63-4.9s3.92,1.74,4,4.84A35.88,35.88,0,0,1,166.73,125C165.84,125.12,165,125.32,163.89,125.53Z"/></g><rect class="cls-1" x="-41.66" y="2.43" width="124.73" height="154.19"/><g class="cls-8"><rect class="cls-1" x="-41.66" y="2.43" width="124.73" height="154.19"/><path class="cls-7" d="M38.94,79.44c1.3-10.78,5-20.39,13.31-27.84a26.31,26.31,0,0,1,9.12-5.49c1.79-.6,2.06-1.53,2-3.18C63.19,31.2,56.09,21.57,44,16.8a38.22,38.22,0,0,0-9.31-2.3c-2.73-.34-4.16-2.06-3.87-4.38s2-3.53,4.61-3.22c14,1.65,31,10.33,34.76,29.22A21.15,21.15,0,0,1,70.92,41c-.1,2.27.59,3.16,2.9,2.7a12,12,0,0,1,2.75,0,3.62,3.62,0,0,1,3.84,3.51c.23,2.11-1.25,3.79-3.61,4s-5,.09-7.4.53c-11,2-17.32,9.15-20.85,19.26a45.55,45.55,0,0,0-2.06,9.38c-.44,3.34-1.85,4.87-4.2,4.67S38.67,82.93,38.94,79.44Z"/><path class="cls-7" d="M-3.09,48.88a35.78,35.78,0,0,1-22.5-10.24A35,35,0,0,1-36.36,11.37c.11-3.06,1.43-4.69,3.81-4.69s3.86,1.76,3.82,5c-.19,13.8,7.68,25,20.47,28.5,10,2.77,19,.62,26.87-6.27.76-.66,1.43-1.42,2.13-2.15,2.12-2.21,4.23-2.58,6-1s1.76,3.84-.41,6.26C22.08,41.68,17,45.34,10.86,47c-3.73,1-5.77,2.75-7.49,6.29C-1.74,63.77-10,70.3-22.11,71c-2.77.17-4.56-1.18-4.76-3.45s1.39-3.76,4.17-4.08c.82-.09,1.64-.2,2.45-.31A22,22,0,0,0-3.09,48.88Z"/><path class="cls-7" d="M-29.27,115c2.09.69,2.85-.15,3.08-2.86C-24.25,89.56-5.53,79.93,9.51,78.3a3.64,3.64,0,0,1,4.32,3.24c.2,2.39-.93,3.89-3.33,4.21C2.19,86.88-5.28,89.92-11.23,95.92c-5.3,5.35-7.35,12.09-7.48,19.51,0,1,.35,1.38,1.28,1.76C-1.92,123.57,4.08,136.36,5.85,152a3.77,3.77,0,0,1-3.44,4.46c-2.24.19-3.81-1.2-4.1-3.81a42.12,42.12,0,0,0-5.49-17.41c-5-8.21-12.44-12.1-21.87-12.56-.83,0-1.66,0-2.48,0-2.54-.09-4.19-1.56-4.22-3.74s1.59-3.71,4.12-3.89C-31,114.94-30.34,115-29.27,115Z"/><path class="cls-7" d="M39.16,125.53c4.14,8.15,9.87,13.75,19.39,14.34,3,.18,4.7,1.74,4.62,4s-2,3.8-5.15,3.58c-12.11-.81-20.21-7.56-25.3-18-1.58-3.25-3.33-4.94-6.85-5.83a32.09,32.09,0,0,1-15.59-9.84c-2.47-2.69-2.7-5-.76-6.66s3.84-1.19,6.34,1.42c7.69,8,17.06,11,27.79,8.34s17.41-9.64,20.51-20.16A28.05,28.05,0,0,0,65.05,88c-.07-3,1.33-4.79,3.63-4.9s3.92,1.74,4,4.84A35.87,35.87,0,0,1,42,125C41.11,125.12,40.24,125.32,39.16,125.53Z"/></g></g></g><rect class="cls-3" x="-130.68" y="-0.89" width="132.1" height="163.29"/><rect class="cls-3" x="127.86" y="-162.41" width="132.1" height="163.29"/><rect class="cls-3" x="-1.41" y="-162.41" width="132.1" height="163.29"/><rect class="cls-3" x="-130.68" y="-162.41" width="132.1" height="163.29"/></pattern></defs><title>Ativo 130background--</title><g id="Camada_2" data-name="Camada 2"><g id="Camada_20" data-name="Camada 20"><rect class="cls-13" width="7680" height="4320"/><rect class="cls-13" width="7680" height="4320"/></g></g></svg>