<svg xmlns="http://www.w3.org/2000/svg" xmlns:xlink="http://www.w3.org/1999/xlink" viewBox="0 0 129.27 161.52"><defs><style>.cls-1,.cls-6{fill:#cecece;}.cls-2{fill:#023047;}.cls-3{opacity:0.03;}.cls-4{clip-path:url(#clip-path);}.cls-5{clip-path:url(#clip-path-2);}.cls-6{opacity:0.1;}.cls-7{clip-path:url(#clip-path-3);}.cls-8{clip-path:url(#clip-path-4);}.cls-9{clip-path:url(#clip-path-6);}.cls-10{clip-path:url(#clip-path-8);}.cls-11{clip-path:url(#clip-path-9);}</style><clipPath id="clip-path" transform="translate(0)"><path class="cls-1" d="M64.53,42.26c.68-5.58,2.61-10.56,6.9-14.42A13.74,13.74,0,0,1,76.16,25c.93-.31,1.07-.79,1-1.65-.11-6.07-3.79-11.06-10-13.53a19.91,19.91,0,0,0-4.82-1.2,2,2,0,0,1-2-2.27,2,2,0,0,1,2.39-1.67c7.24.86,16.08,5.36,18,15.15a11.63,11.63,0,0,1,.37,2.53c0,1.17.3,1.63,1.5,1.39a6.13,6.13,0,0,1,1.42,0,1.86,1.86,0,0,1,2,1.82,1.9,1.9,0,0,1-1.87,2.09c-1.27.13-2.58,0-3.83.27-5.7,1-9,4.74-10.81,10a24.53,24.53,0,0,0-1.07,4.86c-.22,1.73-1,2.53-2.17,2.42S64.39,44.07,64.53,42.26Z"/></clipPath><clipPath id="clip-path-2" transform="translate(0)"><rect class="cls-1" x="64.64" y="1.72" width="64.64" height="79.9"/></clipPath><clipPath id="clip-path-3" transform="translate(0)"><rect class="cls-1" y="1.72" width="64.64" height="79.9"/></clipPath><clipPath id="clip-path-4" transform="translate(0)"><path class="cls-1" d="M42.76,26.43A18.53,18.53,0,0,1,31.1,21.12,18.14,18.14,0,0,1,25.51,7c.06-1.58.74-2.43,2-2.43s2,.91,2,2.57c-.1,7.15,4,12.93,10.6,14.77A14.3,14.3,0,0,0,54,18.65c.39-.35.74-.74,1.1-1.12,1.1-1.14,2.2-1.33,3.11-.53s.91,2-.21,3.24a16.52,16.52,0,0,1-8,5.2,5.42,5.42,0,0,0-3.88,3.27c-2.65,5.44-6.93,8.82-13.2,9.19-1.44.09-2.36-.61-2.47-1.78s.72-2,2.16-2.12l1.27-.16A11.42,11.42,0,0,0,42.76,26.43Z"/></clipPath><clipPath id="clip-path-6" transform="translate(0)"><path class="cls-1" d="M29.19,60.68c1.08.36,1.47-.08,1.59-1.48,1-11.69,10.71-16.68,18.5-17.53a1.89,1.89,0,0,1,2.24,1.68,1.82,1.82,0,0,1-1.72,2.19,18.9,18.9,0,0,0-11.27,5.27,14.1,14.1,0,0,0-3.87,10.1c0,.51.18.72.66.92,8,3.3,11.15,9.93,12.07,18a2,2,0,0,1-1.79,2.31c-1.16.1-2-.62-2.12-2a21.75,21.75,0,0,0-2.85-9c-2.57-4.26-6.44-6.27-11.33-6.51-.43,0-.86,0-1.28,0a2,2,0,0,1-2.19-1.93,2,2,0,0,1,2.14-2C28.3,60.66,28.63,60.68,29.19,60.68Z"/></clipPath><clipPath id="clip-path-8" transform="translate(0)"><rect class="cls-1" y="81.62" width="64.64" height="79.9"/></clipPath><clipPath id="clip-path-9" transform="translate(0)"><path class="cls-1" d="M64.65,66.15c2.14,4.22,5.11,7.13,10,7.43,1.56.09,2.44.9,2.4,2.08s-1,2-2.67,1.86C68.15,77.09,64,73.6,61.31,68.18a4.88,4.88,0,0,0-3.55-3,16.66,16.66,0,0,1-8.08-5.09c-1.28-1.4-1.4-2.57-.39-3.46s2-.61,3.29.74c4,4.15,8.83,5.7,14.39,4.32s9-5,10.63-10.44a14.65,14.65,0,0,0,.47-4.52c0-1.53.68-2.48,1.88-2.54s2,.9,2.08,2.51a18.6,18.6,0,0,1-15.91,19.2C65.66,65.94,65.21,66,64.65,66.15Z"/></clipPath></defs><title>Ativo 129background-img</title><g id="Camada_2" data-name="Camada 2"><g id="Camada_21" data-name="Camada 21"><rect class="cls-2" x="20.86" width="68.45" height="84.62"/><g class="cls-3"><path class="cls-1" d="M64.53,42.26c.68-5.58,2.61-10.56,6.9-14.42A13.74,13.74,0,0,1,76.16,25c.93-.31,1.07-.79,1-1.65-.11-6.07-3.79-11.06-10-13.53a19.91,19.91,0,0,0-4.82-1.2,2,2,0,0,1-2-2.27,2,2,0,0,1,2.39-1.67c7.24.86,16.08,5.36,18,15.15a11.63,11.63,0,0,1,.37,2.53c0,1.17.3,1.63,1.5,1.39a6.13,6.13,0,0,1,1.42,0,1.86,1.86,0,0,1,2,1.82,1.9,1.9,0,0,1-1.87,2.09c-1.27.13-2.58,0-3.83.27-5.7,1-9,4.74-10.81,10a24.53,24.53,0,0,0-1.07,4.86c-.22,1.73-1,2.53-2.17,2.42S64.39,44.07,64.53,42.26Z" transform="translate(0)"/><g class="cls-4"><rect class="cls-1" x="64.64" y="1.72" width="64.64" height="79.9"/><g class="cls-5"><rect class="cls-1" x="64.64" y="1.72" width="64.64" height="79.9"/><path class="cls-6" d="M106.4,41.62c.67-5.58,2.61-10.56,6.9-14.42A13.74,13.74,0,0,1,118,24.35c.93-.31,1.07-.79,1-1.65-.11-6.07-3.79-11.06-10-13.53A19.91,19.91,0,0,0,104.21,8a2,2,0,0,1-2-2.27A2,2,0,0,1,104.6,4c7.24.86,16.08,5.36,18,15.15a11.63,11.63,0,0,1,.37,2.53c0,1.17.3,1.63,1.5,1.39a6.13,6.13,0,0,1,1.42,0,1.87,1.87,0,0,1,2,1.82A1.9,1.9,0,0,1,126,27c-1.27.13-2.58,0-3.83.27-5.7,1-9,4.74-10.81,10a24.53,24.53,0,0,0-1.07,4.86c-.22,1.74-1,2.53-2.17,2.42S106.26,43.43,106.4,41.62Z" transform="translate(0)"/><path class="cls-6" d="M84.63,25.79A18.53,18.53,0,0,1,73,20.48,18.14,18.14,0,0,1,67.38,6.35c.06-1.58.74-2.43,2-2.43s2,.91,2,2.57c-.1,7.15,4,12.93,10.6,14.77A14.3,14.3,0,0,0,95.87,18c.39-.35.74-.74,1.1-1.12,1.1-1.14,2.2-1.33,3.11-.53s.91,2-.21,3.24a16.52,16.52,0,0,1-8,5.2A5.42,5.42,0,0,0,88,28.07c-2.65,5.44-6.93,8.82-13.2,9.19-1.44.09-2.36-.61-2.47-1.78s.72-2,2.16-2.12l1.27-.16A11.42,11.42,0,0,0,84.63,25.79Z" transform="translate(0)"/><path class="cls-6" d="M71.06,60c1.08.36,1.47-.08,1.59-1.48,1-11.69,10.71-16.68,18.5-17.53a1.89,1.89,0,0,1,2.24,1.68,1.82,1.82,0,0,1-1.72,2.19A18.9,18.9,0,0,0,80.4,50.17a14.1,14.1,0,0,0-3.87,10.1c0,.51.18.72.66.92,8,3.3,11.15,9.93,12.07,18a2,2,0,0,1-1.79,2.31c-1.16.1-2-.62-2.12-2a21.75,21.75,0,0,0-2.85-9c-2.57-4.26-6.44-6.27-11.33-6.51-.43,0-.86,0-1.28,0a2,2,0,0,1-2.19-1.93,2,2,0,0,1,2.14-2C70.17,60,70.5,60,71.06,60Z" transform="translate(0)"/><path class="cls-6" d="M106.52,65.51c2.14,4.22,5.11,7.13,10,7.43,1.56.09,2.44.9,2.4,2.08s-1,2-2.67,1.86c-6.27-.43-10.47-3.92-13.11-9.34a4.88,4.88,0,0,0-3.55-3,16.66,16.66,0,0,1-8.08-5.09c-1.28-1.4-1.4-2.57-.39-3.46s2-.61,3.28.74c4,4.16,8.84,5.7,14.4,4.32s9-5,10.63-10.44a15,15,0,0,0,.47-4.52c0-1.53.68-2.48,1.87-2.54s2,.9,2.09,2.51A18.6,18.6,0,0,1,108,65.23C107.53,65.3,107.08,65.4,106.52,65.51Z" transform="translate(0)"/></g><rect class="cls-1" y="1.72" width="64.64" height="79.9"/><g class="cls-7"><rect class="cls-1" y="1.72" width="64.64" height="79.9"/><path class="cls-6" d="M41.77,41.62c.67-5.58,2.61-10.56,6.9-14.42a13.69,13.69,0,0,1,4.72-2.85c.93-.31,1.07-.79,1-1.65-.11-6.07-3.78-11.06-10-13.53A19.91,19.91,0,0,0,39.58,8a2,2,0,0,1-2-2.27A2,2,0,0,1,40,4C47.2,4.89,56,9.39,58,19.18a10.53,10.53,0,0,1,.37,2.53c-.05,1.17.31,1.63,1.5,1.39a6.21,6.21,0,0,1,1.43,0,1.87,1.87,0,0,1,2,1.82A1.9,1.9,0,0,1,61.39,27c-1.28.13-2.58,0-3.84.27-5.7,1-9,4.74-10.8,10a23.85,23.85,0,0,0-1.07,4.86c-.23,1.74-1,2.53-2.17,2.42S41.63,43.43,41.77,41.62Z" transform="translate(0)"/><path class="cls-6" d="M20,25.79A18.53,18.53,0,0,1,8.33,20.48,18.17,18.17,0,0,1,2.74,6.35c.07-1.58.75-2.43,2-2.43s2,.91,2,2.57c-.09,7.15,4,12.93,10.61,14.77A14.28,14.28,0,0,0,31.23,18c.39-.35.75-.74,1.11-1.12,1.09-1.14,2.19-1.33,3.11-.53s.91,2-.22,3.24a16.49,16.49,0,0,1-8,5.2,5.41,5.41,0,0,0-3.88,3.27c-2.65,5.44-6.94,8.82-13.21,9.19-1.43.09-2.36-.61-2.47-1.78s.73-2,2.16-2.12l1.28-.16A11.4,11.4,0,0,0,20,25.79Z" transform="translate(0)"/><path class="cls-6" d="M6.42,60C7.5,60.4,7.9,60,8,58.56,9,46.87,18.72,41.88,26.52,41a1.9,1.9,0,0,1,2.24,1.68A1.84,1.84,0,0,1,27,44.9a18.87,18.87,0,0,0-11.26,5.27,14.06,14.06,0,0,0-3.88,10.1c0,.51.19.72.66.92,8,3.3,11.16,9.93,12.07,18a2,2,0,0,1-1.78,2.31c-1.16.1-2-.62-2.13-2a21.73,21.73,0,0,0-2.84-9C15.3,66.26,11.42,64.25,6.53,64c-.42,0-.85,0-1.28,0a2,2,0,0,1-2.19-1.93,2,2,0,0,1,2.14-2C5.53,60,5.87,60,6.42,60Z" transform="translate(0)"/><path class="cls-6" d="M41.88,65.51c2.15,4.22,5.12,7.13,10,7.43,1.55.09,2.44.9,2.39,2.08s-1,2-2.67,1.86c-6.27-.43-10.46-3.92-13.1-9.34a4.9,4.9,0,0,0-3.55-3,16.57,16.57,0,0,1-8.08-5.09c-1.28-1.4-1.4-2.57-.4-3.46s2-.61,3.29.74c4,4.16,8.84,5.7,14.4,4.32s9-5,10.63-10.44a14.65,14.65,0,0,0,.46-4.52c0-1.53.69-2.48,1.88-2.54s2,.9,2.08,2.51a18.58,18.58,0,0,1-15.91,19.2C42.89,65.3,42.44,65.4,41.88,65.51Z" transform="translate(0)"/></g></g></g><g class="cls-3"><path class="cls-1" d="M42.76,26.43A18.53,18.53,0,0,1,31.1,21.12,18.14,18.14,0,0,1,25.51,7c.06-1.58.74-2.43,2-2.43s2,.91,2,2.57c-.1,7.15,4,12.93,10.6,14.77A14.3,14.3,0,0,0,54,18.65c.39-.35.74-.74,1.1-1.12,1.1-1.14,2.2-1.33,3.11-.53s.91,2-.21,3.24a16.52,16.52,0,0,1-8,5.2,5.42,5.42,0,0,0-3.88,3.27c-2.65,5.44-6.93,8.82-13.2,9.19-1.44.09-2.36-.61-2.47-1.78s.72-2,2.16-2.12l1.27-.16A11.42,11.42,0,0,0,42.76,26.43Z" transform="translate(0)"/><g class="cls-8"><rect class="cls-1" y="1.72" width="64.64" height="79.9"/><g class="cls-7"><rect class="cls-1" y="1.72" width="64.64" height="79.9"/><path class="cls-6" d="M41.77,41.62c.67-5.58,2.61-10.56,6.9-14.42a13.69,13.69,0,0,1,4.72-2.85c.93-.31,1.07-.79,1-1.65-.11-6.07-3.78-11.06-10-13.53A19.91,19.91,0,0,0,39.58,8a2,2,0,0,1-2-2.27A2,2,0,0,1,40,4C47.2,4.89,56,9.39,58,19.18a10.53,10.53,0,0,1,.37,2.53c-.05,1.17.31,1.63,1.5,1.39a6.21,6.21,0,0,1,1.43,0,1.87,1.87,0,0,1,2,1.82A1.9,1.9,0,0,1,61.39,27c-1.28.13-2.58,0-3.84.27-5.7,1-9,4.74-10.8,10a23.85,23.85,0,0,0-1.07,4.86c-.23,1.74-1,2.53-2.17,2.42S41.63,43.43,41.77,41.62Z" transform="translate(0)"/><path class="cls-6" d="M20,25.79A18.53,18.53,0,0,1,8.33,20.48,18.17,18.17,0,0,1,2.74,6.35c.07-1.58.75-2.43,2-2.43s2,.91,2,2.57c-.09,7.15,4,12.93,10.61,14.77A14.28,14.28,0,0,0,31.23,18c.39-.35.75-.74,1.11-1.12,1.09-1.14,2.19-1.33,3.11-.53s.91,2-.22,3.24a16.49,16.49,0,0,1-8,5.2,5.41,5.41,0,0,0-3.88,3.27c-2.65,5.44-6.94,8.82-13.21,9.19-1.43.09-2.36-.61-2.47-1.78s.73-2,2.16-2.12l1.28-.16A11.4,11.4,0,0,0,20,25.79Z" transform="translate(0)"/><path class="cls-6" d="M6.42,60C7.5,60.4,7.9,60,8,58.56,9,46.87,18.72,41.88,26.52,41a1.9,1.9,0,0,1,2.24,1.68A1.84,1.84,0,0,1,27,44.9a18.87,18.87,0,0,0-11.26,5.27,14.06,14.06,0,0,0-3.88,10.1c0,.51.19.72.66.92,8,3.3,11.16,9.93,12.07,18a2,2,0,0,1-1.78,2.31c-1.16.1-2-.62-2.13-2a21.73,21.73,0,0,0-2.84-9C15.3,66.26,11.42,64.25,6.53,64c-.42,0-.85,0-1.28,0a2,2,0,0,1-2.19-1.93,2,2,0,0,1,2.14-2C5.53,60,5.87,60,6.42,60Z" transform="translate(0)"/><path class="cls-6" d="M41.88,65.51c2.15,4.22,5.12,7.13,10,7.43,1.55.09,2.44.9,2.39,2.08s-1,2-2.67,1.86c-6.27-.43-10.46-3.92-13.1-9.34a4.9,4.9,0,0,0-3.55-3,16.57,16.57,0,0,1-8.08-5.09c-1.28-1.4-1.4-2.57-.4-3.46s2-.61,3.29.74c4,4.16,8.84,5.7,14.4,4.32s9-5,10.63-10.44a14.65,14.65,0,0,0,.46-4.52c0-1.53.69-2.48,1.88-2.54s2,.9,2.08,2.51a18.58,18.58,0,0,1-15.91,19.2C42.89,65.3,42.44,65.4,41.88,65.51Z" transform="translate(0)"/></g></g></g><g class="cls-3"><path class="cls-1" d="M29.19,60.68c1.08.36,1.47-.08,1.59-1.48,1-11.69,10.71-16.68,18.5-17.53a1.89,1.89,0,0,1,2.24,1.68,1.82,1.82,0,0,1-1.72,2.19,18.9,18.9,0,0,0-11.27,5.27,14.1,14.1,0,0,0-3.87,10.1c0,.51.18.72.66.92,8,3.3,11.15,9.93,12.07,18a2,2,0,0,1-1.79,2.31c-1.16.1-2-.62-2.12-2a21.75,21.75,0,0,0-2.85-9c-2.57-4.26-6.44-6.27-11.33-6.51-.43,0-.86,0-1.28,0a2,2,0,0,1-2.19-1.93,2,2,0,0,1,2.14-2C28.3,60.66,28.63,60.68,29.19,60.68Z" transform="translate(0)"/><g class="cls-9"><rect class="cls-1" y="1.72" width="64.64" height="79.9"/><g class="cls-7"><rect class="cls-1" y="1.72" width="64.64" height="79.9"/><path class="cls-6" d="M41.77,41.62c.67-5.58,2.61-10.56,6.9-14.42a13.69,13.69,0,0,1,4.72-2.85c.93-.31,1.07-.79,1-1.65-.11-6.07-3.78-11.06-10-13.53A19.91,19.91,0,0,0,39.58,8a2,2,0,0,1-2-2.27A2,2,0,0,1,40,4C47.2,4.89,56,9.39,58,19.18a10.53,10.53,0,0,1,.37,2.53c-.05,1.17.31,1.63,1.5,1.39a6.21,6.21,0,0,1,1.43,0,1.87,1.87,0,0,1,2,1.82A1.9,1.9,0,0,1,61.39,27c-1.28.13-2.58,0-3.84.27-5.7,1-9,4.74-10.8,10a23.85,23.85,0,0,0-1.07,4.86c-.23,1.74-1,2.53-2.17,2.42S41.63,43.43,41.77,41.62Z" transform="translate(0)"/><path class="cls-6" d="M20,25.79A18.53,18.53,0,0,1,8.33,20.48,18.17,18.17,0,0,1,2.74,6.35c.07-1.58.75-2.43,2-2.43s2,.91,2,2.57c-.09,7.15,4,12.93,10.61,14.77A14.28,14.28,0,0,0,31.23,18c.39-.35.75-.74,1.11-1.12,1.09-1.14,2.19-1.33,3.11-.53s.91,2-.22,3.24a16.49,16.49,0,0,1-8,5.2,5.41,5.41,0,0,0-3.88,3.27c-2.65,5.44-6.94,8.82-13.21,9.19-1.43.09-2.36-.61-2.47-1.78s.73-2,2.16-2.12l1.28-.16A11.4,11.4,0,0,0,20,25.79Z" transform="translate(0)"/><path class="cls-6" d="M6.42,60C7.5,60.4,7.9,60,8,58.56,9,46.87,18.72,41.88,26.52,41a1.9,1.9,0,0,1,2.24,1.68A1.84,1.84,0,0,1,27,44.9a18.87,18.87,0,0,0-11.26,5.27,14.06,14.06,0,0,0-3.88,10.1c0,.51.19.72.66.92,8,3.3,11.16,9.93,12.07,18a2,2,0,0,1-1.78,2.31c-1.16.1-2-.62-2.13-2a21.73,21.73,0,0,0-2.84-9C15.3,66.26,11.42,64.25,6.53,64c-.42,0-.85,0-1.28,0a2,2,0,0,1-2.19-1.93,2,2,0,0,1,2.14-2C5.53,60,5.87,60,6.42,60Z" transform="translate(0)"/><path class="cls-6" d="M41.88,65.51c2.15,4.22,5.12,7.13,10,7.43,1.55.09,2.44.9,2.39,2.08s-1,2-2.67,1.86c-6.27-.43-10.46-3.92-13.1-9.34a4.9,4.9,0,0,0-3.55-3,16.57,16.57,0,0,1-8.08-5.09c-1.28-1.4-1.4-2.57-.4-3.46s2-.61,3.29.74c4,4.16,8.84,5.7,14.4,4.32s9-5,10.63-10.44a14.65,14.65,0,0,0,.46-4.52c0-1.53.69-2.48,1.88-2.54s2,.9,2.08,2.51a18.58,18.58,0,0,1-15.91,19.2C42.89,65.3,42.44,65.4,41.88,65.51Z" transform="translate(0)"/></g><rect class="cls-1" y="81.62" width="64.64" height="79.9"/><g class="cls-10"><rect class="cls-1" y="81.62" width="64.64" height="79.9"/><path class="cls-6" d="M41.77,121.52c.67-5.58,2.61-10.56,6.9-14.42a13.69,13.69,0,0,1,4.72-2.85c.93-.31,1.07-.79,1-1.65-.11-6.07-3.78-11.06-10-13.53a19.91,19.91,0,0,0-4.82-1.2,2,2,0,0,1-2-2.27A2,2,0,0,1,40,83.94c7.24.85,16.08,5.35,18,15.14a10.53,10.53,0,0,1,.37,2.53c-.05,1.17.31,1.63,1.5,1.39a6.21,6.21,0,0,1,1.43,0,1.87,1.87,0,0,1,2,1.82,1.9,1.9,0,0,1-1.87,2.09c-1.28.13-2.58,0-3.84.27-5.7,1-9,4.74-10.8,10A23.85,23.85,0,0,0,45.68,122c-.23,1.74-1,2.53-2.17,2.42S41.63,123.33,41.77,121.52Z" transform="translate(0)"/><path class="cls-6" d="M20,105.69a18.53,18.53,0,0,1-11.66-5.31A18.17,18.17,0,0,1,2.74,86.25c.07-1.58.75-2.43,2-2.43s2,.91,2,2.57c-.09,7.15,4,12.93,10.61,14.77a14.28,14.28,0,0,0,13.92-3.25c.39-.35.75-.74,1.11-1.12,1.09-1.14,2.19-1.33,3.11-.53s.91,2-.22,3.24a16.42,16.42,0,0,1-8,5.2A5.41,5.41,0,0,0,23.34,108c-2.65,5.44-6.94,8.82-13.21,9.19-1.43.09-2.36-.61-2.47-1.78s.73-2,2.16-2.12l1.28-.16A11.4,11.4,0,0,0,20,105.69Z" transform="translate(0)"/><path class="cls-6" d="M6.42,139.94c1.08.36,1.48-.08,1.6-1.48,1-11.69,10.7-16.68,18.5-17.52a1.89,1.89,0,0,1,2.24,1.67A1.84,1.84,0,0,1,27,124.8a18.87,18.87,0,0,0-11.26,5.27,14.06,14.06,0,0,0-3.88,10.1c0,.51.19.72.66.92,8,3.3,11.16,9.93,12.07,18a2,2,0,0,1-1.78,2.31c-1.16.1-2-.62-2.13-2a21.73,21.73,0,0,0-2.84-9c-2.57-4.26-6.45-6.27-11.34-6.51-.42,0-.85,0-1.28,0A2,2,0,0,1,3.06,142a2,2,0,0,1,2.14-2C5.53,139.92,5.87,139.94,6.42,139.94Z" transform="translate(0)"/><path class="cls-6" d="M41.88,145.41c2.15,4.22,5.12,7.13,10,7.43,1.55.09,2.44.9,2.39,2.08s-1,2-2.67,1.86c-6.27-.43-10.46-3.92-13.1-9.34a4.9,4.9,0,0,0-3.55-3,16.57,16.57,0,0,1-8.08-5.09c-1.28-1.4-1.4-2.57-.4-3.46s2-.61,3.29.74c4,4.16,8.84,5.7,14.4,4.32s9-5,10.63-10.44A14.65,14.65,0,0,0,55.3,126c0-1.53.69-2.48,1.88-2.54s2,.9,2.08,2.51a18.58,18.58,0,0,1-15.91,19.2C42.89,145.2,42.44,145.3,41.88,145.41Z" transform="translate(0)"/></g></g></g><g class="cls-3"><path class="cls-1" d="M64.65,66.15c2.14,4.22,5.11,7.13,10,7.43,1.56.09,2.44.9,2.4,2.08s-1,2-2.67,1.86C68.15,77.09,64,73.6,61.31,68.18a4.88,4.88,0,0,0-3.55-3,16.66,16.66,0,0,1-8.08-5.09c-1.28-1.4-1.4-2.57-.39-3.46s2-.61,3.29.74c4,4.15,8.83,5.7,14.39,4.32s9-5,10.63-10.44a14.65,14.65,0,0,0,.47-4.52c0-1.53.68-2.48,1.88-2.54s2,.9,2.08,2.51a18.6,18.6,0,0,1-15.91,19.2C65.66,65.94,65.21,66,64.65,66.15Z" transform="translate(0)"/><g class="cls-11"><rect class="cls-1" x="64.64" y="1.72" width="64.64" height="79.9"/><g class="cls-5"><rect class="cls-1" x="64.64" y="1.72" width="64.64" height="79.9"/><path class="cls-6" d="M106.4,41.62c.67-5.58,2.61-10.56,6.9-14.42A13.74,13.74,0,0,1,118,24.35c.93-.31,1.07-.79,1-1.65-.11-6.07-3.79-11.06-10-13.53A19.91,19.91,0,0,0,104.21,8a2,2,0,0,1-2-2.27A2,2,0,0,1,104.6,4c7.24.86,16.08,5.36,18,15.15a11.63,11.63,0,0,1,.37,2.53c0,1.17.3,1.63,1.5,1.39a6.13,6.13,0,0,1,1.42,0,1.87,1.87,0,0,1,2,1.82A1.9,1.9,0,0,1,126,27c-1.27.13-2.58,0-3.83.27-5.7,1-9,4.74-10.81,10a24.53,24.53,0,0,0-1.07,4.86c-.22,1.74-1,2.53-2.17,2.42S106.26,43.43,106.4,41.62Z" transform="translate(0)"/><path class="cls-6" d="M84.63,25.79A18.53,18.53,0,0,1,73,20.48,18.14,18.14,0,0,1,67.38,6.35c.06-1.58.74-2.43,2-2.43s2,.91,2,2.57c-.1,7.15,4,12.93,10.6,14.77A14.3,14.3,0,0,0,95.87,18c.39-.35.74-.74,1.1-1.12,1.1-1.14,2.2-1.33,3.11-.53s.91,2-.21,3.24a16.52,16.52,0,0,1-8,5.2A5.42,5.42,0,0,0,88,28.07c-2.65,5.44-6.93,8.82-13.2,9.19-1.44.09-2.36-.61-2.47-1.78s.72-2,2.16-2.12l1.27-.16A11.42,11.42,0,0,0,84.63,25.79Z" transform="translate(0)"/><path class="cls-6" d="M71.06,60c1.08.36,1.47-.08,1.59-1.48,1-11.69,10.71-16.68,18.5-17.53a1.89,1.89,0,0,1,2.24,1.68,1.82,1.82,0,0,1-1.72,2.19A18.9,18.9,0,0,0,80.4,50.17a14.1,14.1,0,0,0-3.87,10.1c0,.51.18.72.66.92,8,3.3,11.15,9.93,12.07,18a2,2,0,0,1-1.79,2.31c-1.16.1-2-.62-2.12-2a21.75,21.75,0,0,0-2.85-9c-2.57-4.26-6.44-6.27-11.33-6.51-.43,0-.86,0-1.28,0a2,2,0,0,1-2.19-1.93,2,2,0,0,1,2.14-2C70.17,60,70.5,60,71.06,60Z" transform="translate(0)"/><path class="cls-6" d="M106.52,65.51c2.14,4.22,5.11,7.13,10,7.43,1.56.09,2.44.9,2.4,2.08s-1,2-2.67,1.86c-6.27-.43-10.47-3.92-13.11-9.34a4.88,4.88,0,0,0-3.55-3,16.66,16.66,0,0,1-8.08-5.09c-1.28-1.4-1.4-2.57-.39-3.46s2-.61,3.28.74c4,4.16,8.84,5.7,14.4,4.32s9-5,10.63-10.44a15,15,0,0,0,.47-4.52c0-1.53.68-2.48,1.87-2.54s2,.9,2.09,2.51A18.6,18.6,0,0,1,108,65.23C107.53,65.3,107.08,65.4,106.52,65.51Z" transform="translate(0)"/></g><rect class="cls-1" y="1.72" width="64.64" height="79.9"/><g class="cls-7"><rect class="cls-1" y="1.72" width="64.64" height="79.9"/><path class="cls-6" d="M41.77,41.62c.67-5.58,2.61-10.56,6.9-14.42a13.69,13.69,0,0,1,4.72-2.85c.93-.31,1.07-.79,1-1.65-.11-6.07-3.78-11.06-10-13.53A19.91,19.91,0,0,0,39.58,8a2,2,0,0,1-2-2.27A2,2,0,0,1,40,4C47.2,4.89,56,9.39,58,19.18a10.53,10.53,0,0,1,.37,2.53c-.05,1.17.31,1.63,1.5,1.39a6.21,6.21,0,0,1,1.43,0,1.87,1.87,0,0,1,2,1.82A1.9,1.9,0,0,1,61.39,27c-1.28.13-2.58,0-3.84.27-5.7,1-9,4.74-10.8,10a23.85,23.85,0,0,0-1.07,4.86c-.23,1.74-1,2.53-2.17,2.42S41.63,43.43,41.77,41.62Z" transform="translate(0)"/><path class="cls-6" d="M20,25.79A18.53,18.53,0,0,1,8.33,20.48,18.17,18.17,0,0,1,2.74,6.35c.07-1.58.75-2.43,2-2.43s2,.91,2,2.57c-.09,7.15,4,12.93,10.61,14.77A14.28,14.28,0,0,0,31.23,18c.39-.35.75-.74,1.11-1.12,1.09-1.14,2.19-1.33,3.11-.53s.91,2-.22,3.24a16.49,16.49,0,0,1-8,5.2,5.41,5.41,0,0,0-3.88,3.27c-2.65,5.44-6.94,8.82-13.21,9.19-1.43.09-2.36-.61-2.47-1.78s.73-2,2.16-2.12l1.28-.16A11.4,11.4,0,0,0,20,25.79Z" transform="translate(0)"/><path class="cls-6" d="M6.42,60C7.5,60.4,7.9,60,8,58.56,9,46.87,18.72,41.88,26.52,41a1.9,1.9,0,0,1,2.24,1.68A1.84,1.84,0,0,1,27,44.9a18.87,18.87,0,0,0-11.26,5.27,14.06,14.06,0,0,0-3.88,10.1c0,.51.19.72.66.92,8,3.3,11.16,9.93,12.07,18a2,2,0,0,1-1.78,2.31c-1.16.1-2-.62-2.13-2a21.73,21.73,0,0,0-2.84-9C15.3,66.26,11.42,64.25,6.53,64c-.42,0-.85,0-1.28,0a2,2,0,0,1-2.19-1.93,2,2,0,0,1,2.14-2C5.53,60,5.87,60,6.42,60Z" transform="translate(0)"/><path class="cls-6" d="M41.88,65.51c2.15,4.22,5.12,7.13,10,7.43,1.55.09,2.44.9,2.39,2.08s-1,2-2.67,1.86c-6.27-.43-10.46-3.92-13.1-9.34a4.9,4.9,0,0,0-3.55-3,16.57,16.57,0,0,1-8.08-5.09c-1.28-1.4-1.4-2.57-.4-3.46s2-.61,3.29.74c4,4.16,8.84,5.7,14.4,4.32s9-5,10.63-10.44a14.65,14.65,0,0,0,.46-4.52c0-1.53.69-2.48,1.88-2.54s2,.9,2.08,2.51a18.58,18.58,0,0,1-15.91,19.2C42.89,65.3,42.44,65.4,41.88,65.51Z" transform="translate(0)"/></g></g></g></g></g></svg>