<svg xmlns="http://www.w3.org/2000/svg" viewBox="0 0 64.64 79.9"><defs><style>.cls-1{fill:#8ecae6;}.cls-2{fill:#fff;opacity:0.1;}</style></defs><title>Ativo 214background</title><g id="Camada_2" data-name="Camada 2"><g id="Camada_21" data-name="Camada 21"><rect class="cls-1" width="64.64" height="79.9"/><path class="cls-2" d="M41.77,39.9c.67-5.58,2.61-10.56,6.9-14.42a13.69,13.69,0,0,1,4.72-2.85c.93-.31,1.07-.79,1-1.65-.11-6.07-3.78-11.06-10-13.53a19.91,19.91,0,0,0-4.82-1.2,2,2,0,0,1-2-2.27A2,2,0,0,1,40,2.31C47.2,3.17,56,7.67,58,17.46A10.45,10.45,0,0,1,58.34,20c-.05,1.17.31,1.63,1.5,1.39a6.21,6.21,0,0,1,1.43,0,1.87,1.87,0,0,1,2,1.82,1.9,1.9,0,0,1-1.87,2.09c-1.28.13-2.58,0-3.84.27-5.7,1-9,4.74-10.8,10a23.85,23.85,0,0,0-1.07,4.86c-.23,1.73-1,2.53-2.17,2.42S41.63,41.71,41.77,39.9Z"/><path class="cls-2" d="M20,24.07A18.53,18.53,0,0,1,8.33,18.76,18.17,18.17,0,0,1,2.74,4.63c.07-1.58.75-2.43,2-2.43s2,.91,2,2.57c-.09,7.15,4,12.93,10.61,14.77a14.28,14.28,0,0,0,13.92-3.25c.39-.35.75-.74,1.11-1.12,1.09-1.14,2.19-1.33,3.11-.53s.91,2-.22,3.24a16.49,16.49,0,0,1-8,5.2,5.41,5.41,0,0,0-3.88,3.27c-2.65,5.44-6.94,8.82-13.21,9.19-1.43.09-2.36-.61-2.47-1.78s.73-2,2.16-2.12l1.28-.16A11.4,11.4,0,0,0,20,24.07Z"/><path class="cls-2" d="M6.42,58.32c1.08.36,1.48-.08,1.6-1.48,1-11.69,10.7-16.68,18.5-17.53A1.9,1.9,0,0,1,28.76,41,1.84,1.84,0,0,1,27,43.18a18.87,18.87,0,0,0-11.26,5.27,14.06,14.06,0,0,0-3.88,10.1c0,.51.19.72.66.92,8,3.3,11.16,9.93,12.07,18a2,2,0,0,1-1.78,2.31c-1.16.1-2-.62-2.13-2a21.73,21.73,0,0,0-2.84-9c-2.57-4.26-6.45-6.27-11.34-6.51-.42,0-.85,0-1.28,0a2,2,0,0,1-2.19-1.93,2,2,0,0,1,2.14-2C5.53,58.3,5.87,58.32,6.42,58.32Z"/><path class="cls-2" d="M41.88,63.79C44,68,47,70.92,51.93,71.22c1.55.09,2.44.9,2.39,2.08s-1,2-2.67,1.86c-6.27-.43-10.46-3.92-13.1-9.34a4.9,4.9,0,0,0-3.55-3,16.57,16.57,0,0,1-8.08-5.09c-1.28-1.4-1.4-2.57-.4-3.46s2-.61,3.29.74c4,4.15,8.84,5.7,14.4,4.32s9-5,10.63-10.44a14.65,14.65,0,0,0,.46-4.52c0-1.53.69-2.48,1.88-2.54s2,.9,2.08,2.51a18.58,18.58,0,0,1-15.91,19.2C42.89,63.58,42.44,63.68,41.88,63.79Z"/></g></g></svg>