<svg xmlns="http://www.w3.org/2000/svg" viewBox="0 0 117.32 43.41"><defs><style>.cls-1{fill:#fca311;}.cls-2{fill:none;}</style></defs><title>Ativo 87</title><g id="Camada_2" data-name="Camada 2"><g id="Camada_20" data-name="Camada 20"><polygon class="cls-1" points="36.49 0.01 36.49 13.91 35.47 15.63 35.47 15.63 32.65 20.37 31.94 21.56 23.98 34.93 19.91 34.93 8.48 16.13 8.48 39.05 0 39.05 0 0.01 7.47 0.01 22.09 24.27 36.48 0.01 36.49 0.01"/><polygon class="cls-1" points="79.87 0.01 79.87 39.05 72.45 39.05 53.36 15.81 53.05 15.44 52.98 15.35 51.53 13.58 51.53 0.01 51.53 0.01 70.94 23.72 70.94 0.01 79.87 0.01"/><path class="cls-1" d="M98.43,0H82.87v39H98.43c11.2,0,18.89-7.69,18.89-19.52S109.63,0,98.43,0Zm8.87,20.16a4,4,0,0,1-3.82,2,.75.75,0,0,0-.67.19c-.22.28,0,.62.45.65a5.73,5.73,0,0,0,3.28-.74l.28-.15c1.09,1.54.31,3.59-1.64,4.34-.43.17-.5.29-.37.68.53,1.62-.62,3.33-2.61,3.78a1.64,1.64,0,0,0-1.13.7,5,5,0,0,1-5.15,1.68,3.9,3.9,0,0,1-3.29-3.56V13.47a2,2,0,0,1,2-1.63h.19c.32,0,.53-.18.53-.41s-.19-.41-.51-.43a3.14,3.14,0,0,0-2.15.63.44.44,0,0,1-.05-.31v-4c0-1.25,1.16-2,2.66-1.66A17.69,17.69,0,0,1,99,6.89a1.24,1.24,0,0,1-.45.14A3.41,3.41,0,0,0,96.3,8.78c-.16.33-.06.56.27.65a.55.55,0,0,0,.7-.35,2.78,2.78,0,0,1,3-1.33,2.27,2.27,0,0,1,2.11,2.2,1.28,1.28,0,0,1-.06.33c-.13.53-.14.53-.77.62-2.32.34-3.9,1.72-4.16,3.63a1.93,1.93,0,0,0,0,.34.48.48,0,0,0,.54.44c.31,0,.49-.18.5-.44a2.64,2.64,0,0,1,.18-1,4.07,4.07,0,0,1,4.94-2c2.08.56,3.13,2.41,2.36,4.08a.43.43,0,0,0,.21.61A2.79,2.79,0,0,1,107.3,20.17Zm-3.76-6.29a.48.48,0,0,0-.49.54,2.43,2.43,0,0,1-.13,1,3.44,3.44,0,0,1-2.78,2.23,4.26,4.26,0,0,1-3.78-.92c-.34-.29-.6-.34-.86-.16s-.23.44.1.74a4.67,4.67,0,0,0,2.12,1.09,1.22,1.22,0,0,1,.93.64,4,4,0,0,0,3.44,2c.43,0,.69-.14.7-.4s-.22-.42-.63-.44a3.09,3.09,0,0,1-2.63-1.59l.38-.06c2.5-.31,4.26-2,4.18-4.1A.5.5,0,0,0,103.54,13.88Zm-3.12,11.86a1.61,1.61,0,0,0-.38,0c-.31.05-.4,0-.39-.3a1.71,1.71,0,0,0-.1-.54c-.5-2.09-2.82-3-4.72-3.23-.35,0-.59.12-.63.36s.16.44.53.48a6.55,6.55,0,0,1,1.26.26c1.64.52,2.61,1.59,2.64,2.88,0,.19,0,.29-.28.36a3.86,3.86,0,0,0-1.24.6,4.47,4.47,0,0,0-1.81,3.08c0,.39.12.6.46.62s.51-.14.57-.51a4.22,4.22,0,0,1,.28-1,3.39,3.39,0,0,1,2.83-2.13c.33-.05.67,0,1-.06s.52-.21.49-.44S100.72,25.75,100.42,25.74Z"/><line class="cls-2" x1="85.87" y1="1.74" x2="85.87" y2="1.7"/><path class="cls-1" d="M39.49,0V39h9V0Z"/><line class="cls-2" x1="82.87" y1="43.41" x2="82.87" y2="43.38"/></g></g></svg>