<svg xmlns="http://www.w3.org/2000/svg" viewBox="0 0 257.66 42.85"><defs><style>.cls-1{fill:#e5e5e5;}.cls-2{fill:#fca311;}</style></defs><title>Ativo 86</title><g id="Camada_2" data-name="Camada 2"><g id="Camada_20" data-name="Camada 20"><path class="cls-1" d="M56.07,42.12,56,22.68,46.53,38.5H41.92L32.54,23.21V42.12H23V5.45H31.5L44.38,26.61,57,5.45H65.5l.1,36.67Z"/><path class="cls-1" d="M71.37,5.29c0-3,2.41-5.29,6.07-5.29s6.08,2.15,6.08,5.13c0,3.15-2.41,5.45-6.08,5.45S71.37,8.28,71.37,5.29Zm1.1,8.43h10v28.4h-10Z"/><path class="cls-1" d="M119.09,25.88V42.12h-10V27.5c0-4.08-1.78-5.81-4.67-5.81-3.19,0-5.65,2-5.65,6.7V42.12h-10V13.72h9.49v3.1a12.18,12.18,0,0,1,9-3.57C114,13.25,119.09,17.08,119.09,25.88Z"/><path class="cls-1" d="M155.92,3.25V42.12h-9.48V39.29c-1.89,2.25-4.66,3.3-8.33,3.3-7.75,0-14-5.66-14-14.72s6.24-14.62,14-14.62c3.3,0,6,.95,7.86,2.94V3.25Zm-9.8,24.62c0-4.3-2.56-6.71-5.92-6.71s-6,2.41-6,6.71,2.57,6.81,6,6.81S146.12,32.22,146.12,27.87Z"/><path class="cls-2" d="M160.22,38.82l3.4-7.65a23.11,23.11,0,0,0,12.1,3.61c4.3,0,6-1.2,6-3,0-5.82-20.85-1.57-20.85-15.19,0-6.55,5.34-11.9,16.24-11.9a27.4,27.4,0,0,1,13.3,3.2l-3.19,7.7A21.63,21.63,0,0,0,177,12.78c-4.34,0-5.92,1.47-5.92,3.3,0,5.61,20.8,1.42,20.8,14.93,0,6.39-5.34,11.84-16.24,11.84C169.65,42.85,163.68,41.23,160.22,38.82Z"/><path class="cls-2" d="M225.07,30.44H204.43c.84,2.88,3.3,4.55,7,4.55A9.08,9.08,0,0,0,218,32.53L223.19,38c-2.73,3-6.71,4.61-12.1,4.61-10.11,0-16.66-6.23-16.66-14.72S201.08,13.25,210,13.25c8.38,0,15.19,5.35,15.19,14.72C225.23,28.71,225.13,29.65,225.07,30.44ZM204.28,25.2h11.63a5.91,5.91,0,0,0-11.63,0Z"/><path class="cls-2" d="M228.06,27.87c0-8.54,6.76-14.62,16.29-14.62,6.45,0,11.37,2.89,13.31,7.81L250,25c-1.36-2.67-3.35-3.83-5.66-3.83-3.46,0-6.18,2.41-6.18,6.71s2.72,6.81,6.18,6.81c2.31,0,4.3-1.15,5.66-3.82l7.7,3.92c-1.94,4.93-6.86,7.81-13.31,7.81C234.82,42.59,228.06,36.51,228.06,27.87Z"/><path class="cls-2" d="M1,27.11C-.47,29.21.59,32,3.25,33c.58.23.68.4.51.92C3,36.16,4.6,38.5,7.32,39.11a2.28,2.28,0,0,1,1.54,1c1.38,2,4.28,2.91,7,2.29s4.48-2.59,4.48-4.85V15.32c0-1.1-1.36-2.22-2.71-2.23h-.26c-.44,0-.72-.24-.72-.56s.26-.56.7-.59a4.32,4.32,0,0,1,2.93.86c.11-.15.06-.29.06-.42V7c0-1.71-1.58-2.7-3.62-2.26a24.22,24.22,0,0,0-5,1.61,1.56,1.56,0,0,0,.62.2,4.64,4.64,0,0,1,3,2.39c.22.45.09.76-.36.89a.76.76,0,0,1-1-.48A3.76,3.76,0,0,0,10,7.51a3.1,3.1,0,0,0-2.88,3,2.36,2.36,0,0,0,.08.45c.18.72.2.73,1.05.85,3.17.46,5.32,2.34,5.67,5a2.36,2.36,0,0,1,0,.46.66.66,0,0,1-.73.61c-.43,0-.68-.25-.68-.61a3.71,3.71,0,0,0-.25-1.31c-.93-2.31-3.88-3.54-6.74-2.76s-4.28,3.3-3.22,5.58c.17.36.06.6-.29.83A3.79,3.79,0,0,0,.36,24.45a5.37,5.37,0,0,0,5.21,2.72,1,1,0,0,1,.9.27c.31.38,0,.84-.61.88a7.74,7.74,0,0,1-4.47-1Zm8,5.46c.05-.33.29-.51.71-.53a2.88,2.88,0,0,1,.51,0c.43.07.56-.07.54-.41a2.67,2.67,0,0,1,.13-.73c.69-2.85,3.85-4.17,6.44-4.41.48-.05.81.15.86.48s-.21.61-.72.66a8.2,8.2,0,0,0-1.72.35c-2.24.72-3.56,2.17-3.6,3.94,0,.25.05.39.38.48a5.44,5.44,0,0,1,1.69.83,6,6,0,0,1,2.47,4.2c.05.53-.16.81-.62.85s-.7-.2-.78-.71a6.4,6.4,0,0,0-.38-1.41,4.64,4.64,0,0,0-3.87-2.91c-.45-.06-.91,0-1.37-.08S9,32.89,9,32.57ZM6.5,25c0-.35.3-.58.86-.61A4.19,4.19,0,0,0,11,22.27l-.52-.08C7,21.76,4.63,19.41,4.74,16.6a.69.69,0,0,1,.74-.74.66.66,0,0,1,.67.74,3.69,3.69,0,0,0,.17,1.32,4.7,4.7,0,0,0,3.8,3,5.83,5.83,0,0,0,5.15-1.26c.47-.39.83-.46,1.18-.21s.31.6-.14,1A6.25,6.25,0,0,1,13.42,22a1.66,1.66,0,0,0-1.27.88,5.5,5.5,0,0,1-4.69,2.72C6.87,25.61,6.52,25.39,6.5,25Z"/></g></g></svg>