<svg xmlns="http://www.w3.org/2000/svg" viewBox="0 0 174.68 174.59"><defs><style>.cls-1{fill:#895a59;}.cls-2{fill:#dcc5a1;}.cls-3{fill:#edd9b4;}.cls-4,.cls-9{fill:#bc9f82;}.cls-4{opacity:0.7;}.cls-5{fill:#d8cc95;}.cls-6{fill:#c1667a;}.cls-7{fill:#fff;}.cls-8{fill:#d9bf9f;}.cls-10{fill:#ccad8b;}.cls-11{fill:#b47070;}.cls-12{fill:#c17874;}.cls-13{fill:#442c38;}</style></defs><title>Ativo 123ac</title><g id="Camada_2" data-name="Camada 2"><g id="Avatares"><rect class="cls-1" width="174.68" height="174.59" rx="39.41"/><path class="cls-2" d="M84.27,108.83v65H48.82a6.71,6.71,0,0,0-.9-.38c0-.67,0-1.31,0-1.91.57-25.41,13.05-32.74,18.82-34.8a13.88,13.88,0,0,1,2.86-.74,3.29,3.29,0,0,0,.72-.1A3.33,3.33,0,0,0,72,134.54s0,0,0,0a16.06,16.06,0,0,0,2.07-5.5c.15-.64.27-1.31.37-2,.19-1.22.35-2.46.5-3.78,0-.78.15-1.57.22-2.4.32-4,.42-8.33.42-12.44C75.64,108.35,80.42,108.83,84.27,108.83Z"/><path class="cls-3" d="M120.71,173.43a4.92,4.92,0,0,0-.84.38H84.27v-65h.07c3.86,0,8.66-.48,8.66-.48,0,4.09.07,8.38.41,12.34,0,.79.16,1.59.23,2.36.15,1.36.27,2.65.47,3.86v0c.1.55.19,1,.3,1.54a20.54,20.54,0,0,0,1.15,4c.64,1.66,1.46,2.83,2.45,3.25a2,2,0,0,0,1,.25S120.71,138.56,120.71,173.43Z"/><path class="cls-4" d="M94.13,126.9v0a11.48,11.48,0,0,1-9.82,5.32h0a12.36,12.36,0,0,1-9.77-5.3c.2-1.19.37-2.46.5-3.77.07-.79.15-1.58.21-2.4a38.37,38.37,0,0,0,9,1.16h.1a36.9,36.9,0,0,0,9.15-1.25c.07.79.15,1.58.22,2.34C93.78,124.4,93.93,125.69,94.13,126.9Z"/><path class="cls-5" d="M97,174.59h22.87a6.71,6.71,0,0,1,.9-.38c0-.67,0-1.32,0-1.91,0-5.52,1.69-8.47-.38-14-2.28-6.14-.59-5.94-4.42-12.48-2.71-4.63-9.4-7.11-14-8.32a46.63,46.63,0,0,0-4.82-1S96.26,159,97,174.59Z"/><path class="cls-5" d="M71.62,174.59H48.74a7,7,0,0,0-.89-.38c0-.67,0-1.32,0-1.91,0-5.52-1.69-8.47.37-14,2.29-6.14.6-5.94,4.43-12.48,2.71-4.63,9.4-7.11,14-8.32a46.63,46.63,0,0,1,4.82-1S72.36,159,71.62,174.59Z"/><path class="cls-6" d="M76.88,132.07c-.28.12-4,1.87-4,1.89-.55.42-7.56,3.63-8.11,4.13-2.72,2.3-.31,6.85-2.26,9.39-8.3,10.78-11.73,16.72-11,27.11H83.88v-35.4Z"/><path class="cls-6" d="M90.73,132.07c.28.12,4,1.87,4,1.89.54.42,7.54,3.32,8.09,3.82,2.72,2.31.33,7.16,2.28,9.7,8.31,10.78,11.73,16.72,11,27.11H83.74v-35.4Z"/><path class="cls-7" d="M95.63,131.53c-1.14-5.06-1.66-4.66-1.66-4.66s-.17-.21.13,1.29c.27,1.32-7,3.19-9.26,3.45h0l-.31,0-.27,0h-.07c-2.38-.26-10.12-2.13-9.87-3.45.29-1.5.13-1.29.13-1.29s-.48-.4-1.56,4.66a14.21,14.21,0,0,1-1,3.25,27,27,0,0,0,5,2.44c5.25,1.74,7,9.27,7,9.27s0-.07,0-.17v.17s1.84-7.53,7.43-9.27a29.79,29.79,0,0,0,5.35-2.44A13.72,13.72,0,0,1,95.63,131.53Z"/><path class="cls-8" d="M85,34.29c37.55,0,37.77,31.32,36.09,51.82,2.58-4.85,10.2-3.35,9.58,4.3-.61,7.38-11.37,11.19-11.22,10.33-3.08,16.88-20.75,26.61-34.45,26.61h-.29v-93Z"/><path class="cls-9" d="M128.22,87.17a3.56,3.56,0,0,0-5.42-1,3.05,3.05,0,0,0-.88,3.39c.26,1,1.29,1.06,1,2.56a2.67,2.67,0,0,1-1.51,2.17,3.36,3.36,0,0,0-1.27,1.38,3.68,3.68,0,0,0-.16,2.11c.28,1.2,2,.24,3.24-.29a22,22,0,0,0,3.88-3.15C128.73,92.55,129.46,89.14,128.22,87.17Z"/><path class="cls-10" d="M84.77,34.29c-37.55,0-37.77,31.32-36.1,51.82-2.57-4.85-10.19-3.35-9.57,4.3.61,7.38,11.38,11.19,11.22,10.33,3.08,16.88,20.75,26.61,34.45,26.61h.29v-93Z"/><path class="cls-9" d="M41.51,87.17a3.56,3.56,0,0,1,5.42-1,3.05,3.05,0,0,1,.87,3.39c-.25,1-1.3,1.06-1,2.56a2.66,2.66,0,0,0,1.5,2.17,3.36,3.36,0,0,1,1.27,1.38,3.78,3.78,0,0,1,.17,2.11c-.29,1.2-2.06.24-3.24-.29a22.38,22.38,0,0,1-3.89-3.15C41,92.55,40.26,89.14,41.51,87.17Z"/><path class="cls-2" d="M84.44,43.12c-12.35,0-21.4,3.58-26.87,10.64C49.93,63.61,50.22,78.67,53,89.48c.86,3.3,1.3,12.21,1.9,15.48,2.66,14.61,18.85,22.39,29.5,22.39h.29V43.13Z"/><path class="cls-3" d="M111.27,53.78c-5.45-7-14.38-10.59-26.54-10.65v84.22c12.17-.14,26.72-8.67,29.21-22.39.6-3.27,1-12.18,1.9-15.48C118.65,78.7,118.93,63.66,111.27,53.78Z"/><path class="cls-11" d="M94.11,109.65s-4.17,4.45-9.31,4.45-9.08-4.35-9.08-4.35a59.1,59.1,0,0,1,9.08-.68A75.4,75.4,0,0,1,94.11,109.65Z"/><path class="cls-12" d="M87.44,107.6a2.41,2.41,0,0,0-2.64,2,2.42,2.42,0,0,0-2.63-2c-1.47,0-6.69,2.05-6.69,2.05s5.09.53,6.55.53,2.73.57,2.77-.5c0,1.08,1.07.66,2.51.66s6.8-.69,6.8-.69S88.89,107.6,87.44,107.6Z"/><path class="cls-13" d="M130.77,59.59C126.7,47.45,117.36,37,113.6,32.7c-4.89-5.53-17.84-11-19.19-11.52s-6.5,1.52-11.54.35S67.7,21.8,53.36,31c-6.67,4.32-11.07,12.32-13.94,20.33A82.21,82.21,0,0,0,36.27,63.2,61.73,61.73,0,0,0,35,73.62a22.66,22.66,0,0,0,.9,5.28c.18.67.37,1.37.59,2.08.62,2.07,1.38,4.28,2.2,6.51l2.16,3.8a12.42,12.42,0,0,0-.41,1.51,11.08,11.08,0,0,0-.19,1.52c0,.28,0,.57,0,.86a11.54,11.54,0,0,0,5.25,9.8,10.4,10.4,0,0,0-2.19,6.33c0,6.21,5.66,11.24,12.62,11.24a13.59,13.59,0,0,0,1.93-.14,8.74,8.74,0,0,0-.41,2.61c0,4.6,3.58,8.5,8.56,9.92l1,.25c.52-.11.82-.15.82-.15H68c.17,0,.37-.06.53-.11,1.77-.49,3-2.81,4-6.21.14-.51.26-1,.39-1.59.17-.73.3-1.48.42-2.29h0a.06.06,0,0,1,0,0c.09-.57.18-1.16.26-1.75h0a48.33,48.33,0,0,1-18.45-10.61,25.2,25.2,0,0,1-2.61-4.35c-.26-6.25-.4-17.5-.35-24.16,0-2.74.07-4.71.16-5.22.66-3.69,8-10.41,13.33-14.88,1.47-1.24,2.79-2.31,3.78-3.1a38.79,38.79,0,0,0,6.94-7.62,120.6,120.6,0,0,0,6.51-10.56s-2.57,7.9-3.2,9.41A10.79,10.79,0,0,1,79,53.27a24.89,24.89,0,0,1-5.21,6.87,83.46,83.46,0,0,0,9.52-6.53c.24-.23.49-.41.71-.63l.16-.16.22-.21.22-.21a47.44,47.44,0,0,0,5.44-7.08,12.07,12.07,0,0,0,.25,9,14.68,14.68,0,0,0,1.86,3.27c2,2.72,7.06,5.81,8.29,6.53a10.41,10.41,0,0,1-3.84-7.44c0-.43-.1-1-.17-1.68-.22-1.77-.54-4-.59-4.56.17.45.88,2.39,2,4.74a26.52,26.52,0,0,0,4.43,7c1.69,1.78,3.37,3.81,4.84,5.61,1.82,2.2,3.31,4.1,4.18,4.93,1.08,1,1.77,4.63,2.19,9.37a257.32,257.32,0,0,1,.33,29.41,27.1,27.1,0,0,1-2.19,2.86A49.59,49.59,0,0,1,95.28,123h0c.08.56.15,1.12.25,1.66h0s0,.06,0,.08v0c.08.61.19,1.18.3,1.73s.26,1.19.4,1.76c.82,3.21,2,5.54,3.49,6.4a1.68,1.68,0,0,0,.42.17,2.48,2.48,0,0,0,.9.17,19.88,19.88,0,0,1,5.42,1.76,14.84,14.84,0,0,0,1.51-.23c6.11-1.22,10.64-5.67,10.64-11a9.67,9.67,0,0,0-1.64-5.31,14.92,14.92,0,0,0,6.22-12,14.6,14.6,0,0,0-1-5.26c4.91-1.75,8.33-5.53,8.4-9.94v-.13a9.06,9.06,0,0,0-1.77-5.32l.06-.1a56,56,0,0,0,2.51-7.2q.26-1,.48-2a36.5,36.5,0,0,0,.82-6.39c0-.42,0-.82,0-1.24A34.34,34.34,0,0,0,130.77,59.59Z"/></g></g></svg>