<svg xmlns="http://www.w3.org/2000/svg" viewBox="0 0 175 175.04"><defs><style>.cls-1{fill:#cd6c13;}.cls-2{fill:#fdfbf8;}.cls-3{fill:#dcc5a1;}.cls-4{fill:#edd9b4;}.cls-5,.cls-7{fill:#bc9f82;}.cls-5{opacity:0.7;}.cls-6{fill:#ccad8b;}.cls-8{fill:#d9bf9f;}.cls-9{fill:#16160f;}.cls-10{fill:#0f0f0f;}.cls-11{fill:#e3b142;}</style></defs><title>Ativo 158ac</title><g id="Camada_2" data-name="Camada 2"><g id="Avatares"><rect class="cls-1" width="175" height="174.93" rx="39.36"/><path class="cls-2" d="M67.47,102.1c-.72-.53-13.73-8.53-13.73-8.53.88,5,1.55,7,.25,10.4-1.17,3-3.43,4.22-4.68,5.28a9.86,9.86,0,0,1-4.67,1.87,15,15,0,0,1-1.9-.15s2.07,1.13,7.25.91a8.25,8.25,0,0,0,4.46-1.27c-1,1.65-2,4-.91,6.21,3.92,8-1.31,10.57-1.31,10.57s4.63-.46,7.29-2.79c0,.05,0,.14,0,.19,1.18,4,4.29,4.43,4.29,4.43s-2-.33-1.59-4c.1-1,1.13-1.38,2.41-2,.5,3.58,2.11,7.22-1.23,8.71,0,0,5.65-1.11,6.69-4.47a13.46,13.46,0,0,0,.38-1.75,8.59,8.59,0,0,1,.27.94c.81,4.27-2.45,8.41-2.45,8.41s11.75-1.24,11.84-5.89a23.38,23.38,0,0,1,.52-4.61c.35-1.06,1.07-6.4,1.07-6.4S68.18,102.64,67.47,102.1Z"/><path class="cls-2" d="M108.9,102.1c.71-.53,13.73-8.53,13.73-8.53-.89,5-1.56,7-.26,10.4,1.18,3,3.44,4.22,4.68,5.28a9.89,9.89,0,0,0,4.68,1.87,15.2,15.2,0,0,0,1.9-.15s-2.07,1.13-7.26.91a8.18,8.18,0,0,1-4.45-1.27c1,1.65,2,4,.9,6.21-3.91,8,1.32,10.57,1.32,10.57s-4.64-.46-7.3-2.79a1.23,1.23,0,0,1,0,.19c-1.17,4-4.28,4.43-4.28,4.43s2-.33,1.59-4c-.11-1-1.13-1.38-2.41-2-.5,3.58-2.12,7.22,1.23,8.71,0,0-5.66-1.11-6.69-4.47a12.06,12.06,0,0,1-.39-1.75,8.59,8.59,0,0,0-.27.94c-.8,4.27,2.45,8.41,2.45,8.41s-11.74-1.24-11.83-5.89a25,25,0,0,0-.52-4.61c-.36-1.06-1.07-6.4-1.07-6.4S108.18,102.64,108.9,102.1Z"/><path class="cls-3" d="M87.13,110.12V175H51.71l-.87-.37c0-34.82,21.68-37.42,21.68-37.42A2.82,2.82,0,0,0,74.8,136,15,15,0,0,0,77,130.27a19.83,19.83,0,0,0,.37-2c.2-1.19.38-2.45.5-3.76.08-.8.15-1.58.23-2.4.32-4,.42-8.32.42-12.43C78.51,109.65,83.28,110.12,87.13,110.12Z"/><path class="cls-4" d="M123.54,174.67s-.33.12-.85.37H87.13V110.12h.07c3.85,0,8.65-.47,8.65-.47,0,4.08.1,8.37.41,12.33.08.79.15,1.58.23,2.35.15,1.36.3,2.65.5,3.86v0c.07.55.17,1,.27,1.54.72,3.54,1.79,6.19,3.3,7.12a2.37,2.37,0,0,0,1.29.38S123.54,139.85,123.54,174.67Z"/><path class="cls-5" d="M97,128.2v0a11.44,11.44,0,0,1-9.81,5.32h-.05a12.37,12.37,0,0,1-9.76-5.29c.2-1.2.37-2.45.5-3.76.07-.8.15-1.59.22-2.41A38.72,38.72,0,0,0,87,123.25h.1A36.81,36.81,0,0,0,96.27,122c.08.79.15,1.58.22,2.35C96.64,125.7,96.79,127,97,128.2Z"/><path class="cls-6" d="M87.23,35.67C49.72,35.67,49.5,67,51.17,87.45,48.6,82.6,41,84.1,41.61,91.74c.6,7.37,11.36,11.18,11.21,10.33,3.07,16.85,20.73,26.58,34.41,26.58h.29v-93Z"/><path class="cls-7" d="M44,88.51a3.57,3.57,0,0,1,5.43-1,3.06,3.06,0,0,1,.87,3.39c-.25,1-1.3,1.07-1,2.55a2.67,2.67,0,0,0,1.51,2.18A3.51,3.51,0,0,1,52,97a3.68,3.68,0,0,1,.16,2.11c-.28,1.21-2,.25-3.23-.29a22.35,22.35,0,0,1-3.88-3.14C43.5,93.88,42.77,90.48,44,88.51Z"/><path class="cls-8" d="M87.42,35.67c37.52,0,37.73,31.3,36.06,51.78,2.57-4.85,10.19-3.35,9.56,4.29-.6,7.37-11.36,11.18-11.21,10.33-3.07,16.85-20.72,26.58-34.41,26.58h-.29v-93Z"/><path class="cls-7" d="M130.64,88.51a3.55,3.55,0,0,0-5.41-1,3.09,3.09,0,0,0-.89,3.39c.27,1,1.3,1.07,1,2.55a2.65,2.65,0,0,1-1.5,2.18A3.44,3.44,0,0,0,122.63,97a3.68,3.68,0,0,0-.16,2.11c.28,1.21,2,.25,3.23-.29a23.12,23.12,0,0,0,3.88-3.14C131.16,93.88,131.89,90.48,130.64,88.51Z"/><path class="cls-3" d="M87.58,45.37C75.23,45.37,66.2,48.94,60.73,56c-7.63,9.85-7.35,24.89-4.52,35.69.85,3.3,1.3,12.19,1.9,15.46,2.66,14.61,18.82,22.38,29.47,22.38h.29V45.38Z"/><path class="cls-4" d="M114.37,56C109,49,100,45.44,87.87,45.38v84.13c12.15-.13,26.69-8.65,29.19-22.37.58-3.27,1-12.16,1.89-15.46C121.75,80.91,122,65.89,114.37,56Z"/><path class="cls-2" d="M55.33,93.66c-.71,0,.05-3.76-2.31-6.35s-6-11.31-6-20,3.07-16.45,11.1-24.68S78,30.4,78,30.4l-5.43,4.94s2.92-4,13.43-7.21c8.3-2.53,13.66.28,13.66.28s-5.46-.18-7.12,2.19a8.72,8.72,0,0,1-2,1.51s2.54-5.67,14.34-1,11.58,13.14,19.79,15.72c8.41,2.65,10.84-.75,10.84-.75s-3.64,6-10.12,6a5,5,0,0,1-1.16,0,53.6,53.6,0,0,1,2.89,11.16c.48,4.87-1,8.2-1.46,17.3-.39,7.78-2.52,3.79-5.06,9.53a11.78,11.78,0,0,0-.89,4.09c-1,.23-3.41-4.67-1.64-13.18,1.15-5.52-4.55-26.46-18.3-22.38-8.42,2.5-10.54,7.58-16.83,3.07-5.42-3.9-13-6.13-18.67-3s-8.86,10-7.88,21.05C57.7,93.76,55.33,93.66,55.33,93.66Z"/><path class="cls-9" d="M75.56,131.6s-1.92,5.46-1.6,5.18,3.31,4.42,13.17,4.42c0,0-.7-6.47-1.87-6.8S75.56,131.6,75.56,131.6Z"/><path class="cls-9" d="M98.69,131.6s1.93,5.46,1.6,5.18S97,141.2,87.13,141.2c0,0,.69-6.47,1.85-6.8S98.69,131.6,98.69,131.6Z"/><path class="cls-10" d="M123.53,174.67s-.32.12-.84.37h-71c-.57-.25-.88-.37-.88-.37,0-34.82,21.69-37.42,21.69-37.42A2.83,2.83,0,0,0,74.8,136a48.63,48.63,0,0,1,8.37-.72l3.48,5.94a1.08,1.08,0,0,0,.48-.17c1.8-.84,7.75-4.6,8.39-4.6a34.83,34.83,0,0,1,4.21,0,6.79,6.79,0,0,0,2.12.85S123.53,139.85,123.53,174.67Z"/><path class="cls-11" d="M117.21,174.73l-.71.3H58.64l-.72-.3c0-.85,0-1.69,0-2.49.08-1.85.24-3.6.46-5.21a36.55,36.55,0,0,1,.71-3.84c.1-.54.25-1.06.38-1.59.2-.7.41-1.39.63-2s.38-1.07.59-1.57a27,27,0,0,1,2-4,21.45,21.45,0,0,1,4.24-5.21,19.18,19.18,0,0,1,3.57-2.59l.08,0,0,0A14.49,14.49,0,0,0,73,148.81c1.37,1.35,3.35,3.13,5.87,5.21l.52.42c5.23,4.23,11.2,4.23,16.4,0,.19-.14.37-.3.53-.42,2.54-2.08,4.52-3.86,5.89-5.21a14.94,14.94,0,0,0,2.36-2.65,0,0,0,0,1,0,0,.21.21,0,0,0,.1,0,18.55,18.55,0,0,1,3.57,2.59,21.92,21.92,0,0,1,4.24,5.21,26.07,26.07,0,0,1,1.94,4c.2.5.4,1,.58,1.57s.45,1.35.65,2c.14.53.26,1.05.38,1.59.28,1.2.5,2.47.68,3.84.23,1.61.39,3.36.47,5.21C117.19,173,117.21,173.88,117.21,174.73Z"/></g></g></svg>