<svg xmlns="http://www.w3.org/2000/svg" viewBox="0 0 175 174.92"><defs><style>.cls-1{fill:#7fa5ad;}.cls-2{fill:#dcc5a1;}.cls-3{fill:#edd9b4;}.cls-4,.cls-9{fill:#bc9f82;}.cls-4{opacity:0.7;}.cls-5{fill:#fff;}.cls-6{fill:#5a4f51;}.cls-7{fill:#895a59;}.cls-8{fill:#ccad8b;}.cls-10{fill:#d9bf9f;}.cls-11{fill:#b47070;}.cls-12{fill:#c17874;}.cls-13{fill:#422e14;}</style></defs><title>Ativo 162ac</title><g id="Camada_2" data-name="Camada 2"><g id="Avatares"><rect class="cls-1" width="175" height="174.92" rx="39.36"/><path class="cls-2" d="M87.15,109.48v65.2H51.58l-.88-.37c0-35,21.78-37.59,21.78-37.59h.18a2.6,2.6,0,0,0,.47-.09c1.8-.5,3-3.14,3.84-6.91.16-.66.27-1.32.38-2,.2-1.2.37-2.46.49-3.78.08-.8.16-1.59.23-2.41.32-4,.42-8.36.42-12.48C78.49,109,83.28,109.48,87.15,109.48Z"/><path class="cls-3" d="M123.72,174.31s-.33.12-.84.37H87.15v-65.2h.07c3.87,0,8.68-.47,8.68-.47,0,4.1.1,8.4.43,12.38.07.79.15,1.59.22,2.36.16,1.37.31,2.66.5,3.88v0c.07.55.18,1,.28,1.54.74,3.66,1.84,6.34,3.44,7.24a2.87,2.87,0,0,0,.37.15,2.21,2.21,0,0,0,.8.14S123.72,139.33,123.72,174.31Z"/><path class="cls-4" d="M97,127.64v0A11.47,11.47,0,0,1,87.19,133h0a12.37,12.37,0,0,1-9.8-5.32c.19-1.19.36-2.46.49-3.77.07-.8.15-1.59.23-2.42a39,39,0,0,0,9,1.17h.11a36.52,36.52,0,0,0,9.17-1.27c.08.8.16,1.6.23,2.37C96.7,125.12,96.85,126.41,97,127.64Z"/><path class="cls-5" d="M99,156.65A12.68,12.68,0,1,1,86.34,144,12.66,12.66,0,0,1,99,156.65Z"/><path class="cls-6" d="M108.72,159c-5.44-3.62-5.64-8.31-5.64-11.65l-.56-.1c-.21,0-.42-.05-.55-.07l-.22,0h-.17a.13.13,0,0,1-.08,0,1.83,1.83,0,0,1-.4,0,2.47,2.47,0,0,1-.74-.34s0,0,0,0a3.69,3.69,0,0,1-1.15-1c-.4,2.87-.81,8.17-1.34,9.61-5.68,15.43-15.89,15.74-21.36,0-.5-1.46-1-6.56-1.39-9.41a3.42,3.42,0,0,1-1.88,1.12l-.47.07h-.17l-.23,0a.23.23,0,0,1-.12,0l-1,.15c0,3.34-.19,8-5.63,11.65-10.46,6.92-7.44,13.32-5.71,15.7h54.52C116.14,172.28,119.16,165.88,108.72,159Z"/><path class="cls-7" d="M89.55,144.82c.12,2.19-5.17,10-14.35,14.77-5.18,2.66-24.44,12.92-24.47,14.69,0-35,21.78-37.59,21.78-37.59h.18a2.6,2.6,0,0,0,.47-.09c1.68-.48,2.84-2.76,3.64-6.1,1.72,1,5.37,3,7.91,3.21C88.13,134,89.43,142.66,89.55,144.82Z"/><path class="cls-7" d="M84.87,144.82c-.12,2.19,5.16,10,14.34,14.77,5.19,2.66,24.45,12.92,24.47,14.69,0-35-21.77-37.59-21.77-37.59h-.18a2.77,2.77,0,0,1-.47-.09c-1.67-.48-2.84-2.76-3.64-6.1-1.72,1-5.37,3-7.92,3.21C86.3,134,85,142.66,84.87,144.82Z"/><path class="cls-8" d="M87.11,39.42c-37.12-.07-37.33,29.65-35.68,49-2.54-4.55-10.08-2.85-9.46,4.43.59,7,11.23,10.13,11.08,9.36,3,15.8,20.54,24.58,34.06,25.82h.29V39.42Z"/><path class="cls-9" d="M43.83,89.8a3.69,3.69,0,0,1,5.45-1,2.84,2.84,0,0,1,.88,3.23c-.27.94-1.31,1-1,2.43a2.54,2.54,0,0,0,1.5,2.07,3.39,3.39,0,0,1,1.28,1.32,3.35,3.35,0,0,1,.16,2c-.29,1.15-2.06.23-3.25-.27a22.53,22.53,0,0,1-3.89-3C43.32,94.93,42.59,91.69,43.83,89.8Z"/><path class="cls-10" d="M87.3,39.42c37.12-.07,37.34,29.65,35.69,49,2.55-4.55,10.07-2.85,9.46,4.43-.59,7-11.24,10.13-11.08,9.36-3,15.8-20.54,24.58-34.07,25.82H87V39.42Z"/><path class="cls-9" d="M130.85,89.8a3.68,3.68,0,0,0-5.44-1,2.84,2.84,0,0,0-.89,3.23c.27.94,1.31,1,1,2.43a2.5,2.5,0,0,1-1.51,2.07,2.89,2.89,0,0,0-1.43,3.33c.29,1.15,2.07.23,3.25-.27a23,23,0,0,0,3.9-3C131.36,94.93,132.09,91.69,130.85,89.8Z"/><path class="cls-2" d="M86.92,47.84c-12.4,0-21.47,3.4-27,10.13-7.67,9.39-7.37,23.73-4.54,34,.86,3.15,1.31,11.63,1.91,14.74,2.67,13.93,18.91,21.35,29.6,21.35h.29V47.84Z"/><path class="cls-3" d="M113.83,58C108.38,51.3,99.41,47.9,87.21,47.84v80.24c12.2-.12,26.81-8.25,29.31-21.34.6-3.11,1-11.59,1.91-14.74C121.25,81.73,121.52,67.4,113.83,58Z"/><path class="cls-11" d="M93.45,115.5s-2.8,3-6.26,3-6.09-2.93-6.09-2.93a40.23,40.23,0,0,1,6.09-.45A50.62,50.62,0,0,1,93.45,115.5Z"/><path class="cls-12" d="M89,114.12a1.63,1.63,0,0,0-1.78,1.35,1.62,1.62,0,0,0-1.76-1.35,24.77,24.77,0,0,0-4.49,1.38s3.42.36,4.39.36,1.84.38,1.86-.34c0,.73.72.45,1.7.45s4.56-.47,4.56-.47A24.88,24.88,0,0,0,89,114.12Z"/><path class="cls-13" d="M112.72,52.85c-3.27,5.74-2.35,12.22-13.45,16.48S83.2,74.75,71.1,79.89c-27.42,11.64-13.33,38.6-13.33,38.6s-7.52-6.94-10.24-14.16-13.24-38.68,0-63.54C54.79,27.15,68.24,24,80.05,23.08s20.24.05,28.78,7.46c1.86,1.61,7.19,2,13.06,5.9,13.09,8.78,12,21.72,12.59,30a59.51,59.51,0,0,1-3.4,25.32c-2.55,7.21-18,28.55-18,28.55s12-26.06,5.34-43c-3.91-9.91-10.88-9.35-11.18-13.2S112.72,52.85,112.72,52.85Z"/></g></g></svg>