<svg xmlns="http://www.w3.org/2000/svg" xmlns:xlink="http://www.w3.org/1999/xlink" viewBox="0 0 175 174.38"><defs><style>.cls-1{fill:none;}.cls-2{fill:#bcca33;}.cls-3{fill:#ccad8b;}.cls-4{fill:#d9bf9f;}.cls-5{fill:#ecedef;}.cls-6{fill:#c2c3c8;}.cls-7{fill:#b47070;}.cls-8{fill:#c17874;}.cls-9{fill:#dcc5a1;}.cls-10{fill:#edd9b4;}.cls-11{clip-path:url(#clip-path);}.cls-12{fill:#bc9f82;}.cls-13{fill:#d7d8dc;}.cls-14{fill:#adacb2;}.cls-15{fill:#99989d;}.cls-16{fill:#211915;}</style><clipPath id="clip-path"><rect class="cls-1" x="77.78" y="117.67" width="20.95" height="12.33"/></clipPath></defs><title>Ativo 106ac</title><g id="Camada_2" data-name="Camada 2"><g id="Avatares"><rect class="cls-2" width="175" height="174.29" rx="39.22"/><path class="cls-3" d="M88.18,30.53c-39.47-.08-39.69,31.52-38,52.13-2.7-4.84-10.71-3-10,4.7.63,7.41,11.94,10.78,11.79,10,3.22,16.79,21.83,26.12,36.21,27.44h.3V30.53h-.3"/><path class="cls-4" d="M88.37,30.53c39.47-.08,39.7,31.52,37.94,52.13,2.71-4.84,10.71-3,10.05,4.7-.63,7.41-11.94,10.78-11.78,10-3.23,16.79-21.83,26.12-36.21,27.44h-.3V30.53h.3"/><path class="cls-5" d="M67.47,34.6s21.32,20.89,51.39,7.77c0,0,3.47,4.69,4.64,8.13,0,0-37.1,11.5-62.25-11.82A16,16,0,0,1,67.47,34.6Z"/><path class="cls-6" d="M72.86,32.51s5.38,19.27,42.74,6.43c0,0-4.36-3.67-8-5,0,0-22.47,10.66-25.77-3.17C81.87,30.77,74.42,31.37,72.86,32.51Z"/><path class="cls-5" d="M49.8,69.89s30.38-6,28-38.53a95.91,95.91,0,0,1,10.29-.83S86.72,67.07,50.31,82.2C50.31,82.2,48.38,73.3,49.8,69.89Z"/><path class="cls-7" d="M94.92,110.9s-3,3.18-6.64,3.18S81.79,111,81.79,111a43.5,43.5,0,0,1,6.49-.47,54.37,54.37,0,0,1,6.64.41"/><path class="cls-8" d="M90.15,109.44a1.7,1.7,0,0,0-1.87,1.43,1.73,1.73,0,0,0-1.9-1.43,26.82,26.82,0,0,0-4.76,1.46s3.63.39,4.67.39,2,.39,2-.37c0,.77.76.47,1.8.47s4.85-.49,4.85-.49a26.7,26.7,0,0,0-4.77-1.46"/><path class="cls-9" d="M88.21,105v69.31H50.37l-.92-.41c0-10.39,1.79-18.09,4.41-23.8C60.59,135.39,72.6,134,72.6,134c2.31,0,3.79-3,4.77-7.45.16-.69.29-1.41.4-2.18.21-1.26.4-2.6.52-4q.12-1.26.24-2.55c.35-4.27.46-8.89.46-13.27,0,0,5.09.5,9.22.5"/><path class="cls-10" d="M127.07,173.9s-.36.14-.91.41H88.21V105h.06c4.1,0,9.23-.5,9.23-.5,0,4.35.1,8.93.45,13.16.08.85.16,1.69.24,2.51.15,1.45.31,2.82.53,4.12v0c.1.59.18,1.11.29,1.65,1,4.78,2.52,8,4.9,8,0,0,12.23,1.45,18.91,16.52,2.52,5.67,4.25,13.25,4.25,23.42"/><g class="cls-11"><path class="cls-12" d="M98.73,124.3v0A12.24,12.24,0,0,1,88.25,130h0a13.23,13.23,0,0,1-10.42-5.66c.22-1.27.4-2.62.53-4,.08-.84.16-1.7.24-2.56A41.45,41.45,0,0,0,88.1,119h.1A40.2,40.2,0,0,0,98,117.67c.08.85.16,1.69.24,2.5.15,1.46.31,2.83.53,4.13"/></g><path class="cls-5" d="M95.47,127.75S89.25,157.34,56.09,146c0,0-2.69,5.13-3,6,0,0,27.33,11.48,50.86-18,0,0-4.21.8-5.38-10.93C98.53,123,99,124.8,95.47,127.75Z"/><path class="cls-13" d="M74.51,133.16s24.9,34,51.32,29.41a22.89,22.89,0,0,0-.54-4.79s-22.85,1-48.45-29.15C76.84,128.63,76.22,130,74.51,133.16Z"/><path class="cls-5" d="M78.48,174.09s27.41-18,25.43-40.13c0,0,7.39,2.33,10,4.66,0,0-1.64,24.1-21.26,35.47Z"/><path class="cls-14" d="M64.3,137.55s16.08,30.34,38.24,36.54h8.34S72,147.17,70.4,134.48C70.4,134.48,64.61,135.82,64.3,137.55Z"/><path class="cls-14" d="M51.68,174.38s39-3,69.16-27.74c0,0-2.85-5.33-7-8,0,0,2.7,15.19-64.34,31.16l-.1,4.12.92.41Z"/><path class="cls-5" d="M51.37,157.2S66.05,173.79,86,174.09h5.09s-34.32-14.24-36.92-24.34C54.14,149.75,51.81,155.39,51.37,157.2Z"/><path class="cls-9" d="M87.91,39.47c-13.18,0-22.82,3.65-28.66,10.81-8.14,10-7.81,25.24-4.77,36.19.92,3.34,1.4,12.36,2,15.67,2.86,14.8,20.13,22.65,31.51,22.63h.31l-.12-85.28h-.31"/><path class="cls-10" d="M116.53,50.21c-5.81-7.09-15.36-10.69-28.31-10.73l.12,85.28c13-.15,28.47-8.8,31.12-22.71.63-3.31,1.09-12.33,2-15.68,3-10.91,3.26-26.15-4.93-36.16"/><path class="cls-5" d="M53.05,50.5S89.77,87.21,126.5,63.72l-.67-6.39S93.13,77.18,55.71,45.18Z"/><path class="cls-15" d="M50.23,82.66S103.78,79.45,113.08,37l-5.44-3S99,72.31,49.8,76.05Z"/><path class="cls-13" d="M49.8,69.89s36.66,37.43,76.58,11.9l.41-7S91,96.22,50.31,61.43Z"/><path class="cls-6" d="M41.17,90.53s25.15,33.05,71.06,25.19l6.63-6.28s-45.5,5-78.28-25.68C40.58,83.76,39.49,88,41.17,90.53Z"/><path class="cls-5" d="M61.25,113.22s5.87-8.06,65.25-33l-.67,8.56s-66,22.9-58.38,29C67.45,117.84,61.76,114.9,61.25,113.22Z"/><path class="cls-5" d="M40.58,83.76s2.74-7.54,9.31-1.64c0,0,31.85,35.54,74.69,15.2,0,0-1.87,8.16-5.72,12.12,0,0-46.84,9.17-78.28-25Z"/><path class="cls-13" d="M88.07,30.53s6.34,58.47-33.61,74c0,0,2.84,5.52,6.79,8.72,0,0,46.25-36.45,39-81.58A37.65,37.65,0,0,0,88.07,30.53Z"/><path class="cls-16" d="M52.49,117.76s0,.08,0,.11C52.71,118.08,52.67,118,52.49,117.76Z"/><path class="cls-16" d="M143.42,69.19a17.16,17.16,0,0,0,7.07-2,12,12,0,0,1-9.27-.94c-4.93-2.73-6.45-4.33-8.54-9.34s-.24-5-2.32-9-1.33-7.49-3.73-11c-3.68-5.39-14.84-6.12-15.3-6.76-2.18-3.1-2.74-2.48-3.53-1.76,0-2.57-.77-2.75-1.12-4.32,0,0-.74-3.29-2.71-1.91-.5.34-2.45.3-2.67,1a42.82,42.82,0,0,0-8.08,0c-4.67.34-11.61-1.34-22.66,1.2C61,26.62,58.3,29.66,51.28,36.32c-2.53,2.4-4.5,6.6-5.93,10.61C39.22,52.54,32.68,62.34,31.8,79.42c-.29,6.82,4.35,15.07,4.35,15.07a34.83,34.83,0,0,1,.2-11.07,21.68,21.68,0,0,1,7.13-13,20.88,20.88,0,0,0-5.29,11.48,39.38,39.38,0,0,0,3.94,23.84c2.45,5,9,11.56,10.46,13.35-.54-.78-.89-3.06-1.16-5.91,3.53,4.75,10.63,8.32,10.63,8.32l-3.25-4.58a72.75,72.75,0,0,1-5.1-13.63,23.61,23.61,0,0,1,1.22-13.82,43.32,43.32,0,0,0,.76,6.67c3.26,10,10,12.55,10,12.55S56.5,93.71,64,77.27c2.1-4.64,8.24-12,8.24-12A37.06,37.06,0,0,0,67.36,74c-.51,1.32-.65,7.09,1.27,9.93.41-1.75-.37-4.39,1.8-8,2.3-3.82,6.54-4.12,11.3-5.39a23.13,23.13,0,0,0,8.93,1.9,19.17,19.17,0,0,0,18.81-19.91c.29.48.67,7.7-.56,11a21.21,21.21,0,0,1-8.7,10.39s10.31-1.61,13.73-7.42a24.44,24.44,0,0,0,2.39-6.17c-.55,4,.34,10.89,2,13.51a17.7,17.7,0,0,1,1.48,3.9c1,4,2.32,11.36.13,15.74s-9.7,9.26-9.7,9.26a28.73,28.73,0,0,0,12.38-5.8c-1.31,3.64-2.59,8.2-2.23,11.48.92,8.12-8.55,14.16-8.55,14.16,10.35-2.52,18-12.82,20-23.51,1.31-6.89-1.43-13.13-1.31-13.47a15.23,15.23,0,0,1,2.81,8.18c.24,3.11.36,7.87-1.64,12.23,0,0,9.1-8.27,8.87-13s3-8.69,1.07-16C141,74.52,136,67.8,136,67.8s-4.77-4.07-2.38-2A16.07,16.07,0,0,0,143.42,69.19ZM96.09,64.25c-3.62,5.42-10.11,6-13.32,6a22.51,22.51,0,0,0,5.66-2.47c7.28-4.45,10.76-11.62,10.78-14.1h.06C98.33,59.71,98.57,60.55,96.09,64.25Z"/></g></g></svg>