<svg xmlns="http://www.w3.org/2000/svg" viewBox="0 0 174.37 174.39"><defs><style>.cls-1{fill:#5a4f51;}.cls-2{fill:#ccad8b;}.cls-3{fill:#d9bf9f;}.cls-4{fill:#dcc5a1;}.cls-5{fill:#edd9b4;}.cls-10,.cls-6{fill:#bc9f82;}.cls-6{opacity:0.7;}.cls-7{fill:#381c16;}.cls-8{fill:#cd6c13;}.cls-9{fill:#eff1f0;}.cls-11{fill:#611413;}.cls-12{fill:#81181a;}</style></defs><title>Ativo 105ac</title><g id="Camada_2" data-name="Camada 2"><g id="Avatares"><rect class="cls-1" width="174.37" height="174.39" rx="39.4"/><path class="cls-2" d="M82.49,39.31c-37-.07-37.2,29.55-35.56,48.87-2.54-4.54-10-2.86-9.42,4.4.58,7,11.19,10.11,11,9.34,3,15.74,20.46,24.48,33.94,25.72h.29V39.32Z"/><path class="cls-3" d="M82.67,39.31c37-.07,37.21,29.55,35.56,48.87,2.54-4.54,10-2.86,9.43,4.4-.59,7-11.2,10.11-11,9.34-3,15.74-20.46,24.48-33.94,25.72h-.28V39.32Z"/><path class="cls-4" d="M82.53,109.27v65H47.09c-.57-.26-.87-.38-.87-.38,0-34.84,21.69-37.44,21.69-37.44h.18a3.94,3.94,0,0,0,.47-.1c1.79-.5,3-3.13,3.82-6.89a8.76,8.76,0,0,0,.18-.89c.08-.37.15-.74.2-1.14.2-1.18.38-2.45.5-3.76.08-.79.15-1.58.23-2.4.32-4,.41-8.32.41-12.44C73.9,108.8,78.67,109.27,82.53,109.27Z"/><path class="cls-5" d="M119,173.86s-.32.12-.84.38H82.53v-65h.07c3.85,0,8.65-.47,8.65-.47,0,4.09.1,8.37.43,12.33.07.8.14,1.59.21,2.36.16,1.36.31,2.65.51,3.86v0a6.35,6.35,0,0,0,.12.78c0,.24.1.52.15.76.74,3.64,1.84,6.32,3.43,7.21a2.87,2.87,0,0,0,.37.15,2.13,2.13,0,0,0,.79.15S119,139,119,173.86Z"/><path class="cls-6" d="M92.38,127.35v0a11.45,11.45,0,0,1-9.82,5.33h0a12.38,12.38,0,0,1-9.77-5.3c.2-1.19.37-2.46.49-3.77.07-.79.15-1.58.23-2.4a39.28,39.28,0,0,0,8.94,1.16h.11a37.22,37.22,0,0,0,9.14-1.26c.07.79.15,1.58.23,2.35C92,124.86,92.18,126.14,92.38,127.35Z"/><path class="cls-7" d="M119,173.87a6.13,6.13,0,0,0-.85.37h-71a8.24,8.24,0,0,0-.86-.37,56.35,56.35,0,0,1,3-19.47c8-5.46,24.44-5.38,33.31,3.4,0,0,13.71-11.21,27.66-5.31a20.75,20.75,0,0,1,6.62,4.42A60.6,60.6,0,0,1,119,173.87Z"/><path class="cls-8" d="M119.45,173.86a9,9,0,0,0-.85.38H47.09c-.57-.26-.87-.38-.87-.38,0-35.3,21.84-37.93,21.84-37.93h.17c.15,0,.93.18,1.08.13,1.79-.5-2-.88-2.88,6.14-.78,5.89,3.33,11.17-.52,13.1,1.17,1.35,10.86,9.68,14.2,9.56h5c3.38.12,13.38-8.41,14.53-9.92-3.87-1.91.72-7.28-.55-13.09S96.54,136,96.67,136s.66-.08.94-.08C97.61,135.93,119.45,138.56,119.45,173.86Z"/><path class="cls-7" d="M95.31,139a8.48,8.48,0,0,1-.9-1.14c1.13-.63,2.53-1,3-1.8l-.83-.38a2.21,2.21,0,0,1-.37-.15c-1.59-.89-2.68-3.56-3.43-7.2,0-.15,0-.27-.07-.42l-.18-.13s-.64,1.51-3.48,2.56l0,0a19.25,19.25,0,0,1-6.36.91,39.62,39.62,0,0,1-5.07-.37h-.05c-3.35-.47-4.52-1.73-4.92-2.5,0,.15-.07.3-.09.45s-.14.57-.21.81c-.77,3.17-1.44,4.75-3,6.37a4.79,4.79,0,0,0,2.12,1.68,9.43,9.43,0,0,1-1,1.25c-3.59,3.83-3.59,4.16-3.59,4.16s1.82-1.47,2.74-.75a3.22,3.22,0,0,1,1.1,1.83,14.34,14.34,0,0,0,2.8-5.65,29.26,29.26,0,0,0,9.11,1.12,66.84,66.84,0,0,0,6.84-.42,15.44,15.44,0,0,0,2.84-.54,14.52,14.52,0,0,0,2.78,5.53,3.21,3.21,0,0,1,1.09-1.84c.92-.71,2.74.76,2.74.76S98.9,142.85,95.31,139Z"/><path class="cls-9" d="M74.29,134.59l.68-1.48a7.24,7.24,0,0,1-1.6-.92l-.79,1.43.82.54A4.36,4.36,0,0,0,74.29,134.59Z"/><path class="cls-9" d="M77.22,135.43l.42-1.55s-1.84-.4-1.81-.44l-.61,1.5C75.2,135,77.22,135.43,77.22,135.43Z"/><polygon class="cls-9" points="80.25 135.85 80.45 134.27 78.55 134.04 78.21 135.6 80.25 135.85"/><polygon class="cls-9" points="83.29 135.96 83.32 134.38 81.39 134.31 81.24 135.9 83.29 135.96"/><polygon class="cls-9" points="86.33 135.79 86.21 134.21 84.27 134.31 84.28 135.9 86.33 135.79"/><polygon class="cls-9" points="89.36 135.35 89.07 133.79 87.15 134.08 87.33 135.65 89.36 135.35"/><polygon class="cls-9" points="92.34 134.64 91.88 133.12 90 133.61 90.34 135.15 92.34 134.64"/><path class="cls-10" d="M39.37,89.66a3.66,3.66,0,0,1,5.41-1,2.83,2.83,0,0,1,.89,3.22c-.27.93-1.3,1-1.05,2.43a2.5,2.5,0,0,0,1.5,2c.44.37,1,.64,1.27,1.32a3.39,3.39,0,0,1,.16,2c-.28,1.15-2,.23-3.24-.28a22.16,22.16,0,0,1-3.88-3C38.85,94.78,38.13,91.53,39.37,89.66Z"/><path class="cls-10" d="M126.06,89.66a3.67,3.67,0,0,0-5.42-1,2.83,2.83,0,0,0-.88,3.22c.26.93,1.3,1,1,2.43a2.49,2.49,0,0,1-1.51,2c-.43.37-1,.64-1.26,1.32a3.4,3.4,0,0,0-.17,2c.29,1.15,2.06.23,3.24-.28a21.8,21.8,0,0,0,3.88-3C126.57,94.78,127.3,91.53,126.06,89.66Z"/><path class="cls-4" d="M82.29,47.85c-12.35,0-21.39,3.39-26.87,10.09-7.64,9.35-7.34,23.65-4.52,33.91.86,3.14,1.3,11.59,1.89,14.69,2.67,13.88,18.85,21.27,29.5,21.27h.29V47.85Z"/><path class="cls-5" d="M109.11,58c-5.44-6.65-14.37-10-26.53-10.1V127.8c12.17-.13,26.71-8.22,29.21-21.26.59-3.1,1-11.55,1.9-14.69C116.5,81.61,116.77,67.34,109.11,58Z"/><path class="cls-7" d="M88.8,115.26s-2.79,3-6.24,3-6.07-2.91-6.07-2.91a40.11,40.11,0,0,1,6.07-.45A51.57,51.57,0,0,1,88.8,115.26Z"/><path class="cls-11" d="M84.34,113.89a1.64,1.64,0,0,0-1.78,1.35,1.6,1.6,0,0,0-1.75-1.35,25,25,0,0,0-4.48,1.37s3.41.37,4.39.37,1.83.38,1.84-.34c0,.72.73.44,1.69.44s4.55-.47,4.55-.47A25,25,0,0,0,84.34,113.89Z"/><path class="cls-12" d="M122.29,64.61a33.05,33.05,0,0,0-2.65-5.56,29.26,29.26,0,0,0-1.77-2.43c-.31-.54-.68-1.19-1.13-1.92l.85.27a9.39,9.39,0,0,0,2.53.09,6.9,6.9,0,0,0,2.34-.55,8.17,8.17,0,0,0,1.92-.94c1.11-.79,1.73-1.29,1.73-1.29l-1.44.1c-.47.12-.93-.12-1.52-.14a8.06,8.06,0,0,1-1.83-.49c-.67-.17-1.28-.66-2-.91-.65-.49-1.4-.82-2.08-1.38a24.94,24.94,0,0,1-2.14-1.61A25.09,25.09,0,0,1,113,46.08c-1.43-1.16-2.79-2.4-4.08-3.58C106,39.85,95.06,36.42,91.1,36.42c-.91,0-1.71,0-2.44,0a21.38,21.38,0,0,0-12.33-3.52c-26.25,0-33.45,17.36-36.09,26.32a47.81,47.81,0,0,0-1.49,10.21,160,160,0,0,0,.2,17s6.81.62,6.41,5.28c-.73,8.7,11,14.41,12.23,15.06-1.15-1.07-9.62-9.29-4.43-21.11.87-2,2.11-5.4,3.16-8.39s1.91-5.65,1.91-5.65L58,76.71l-.24,4.61,4.54-1.24.6-4.75.62-5,0,4.88,0,4.31,8.67-2,.65-3.91L74,65.92l.55,7.5.34,5s6.52-.18,6.69-.7c.11-.3.3-2.53.45-4.5.15-1.69.24-3.23.24-3.23l.53,3.25.89,3.11H97.11c5.71-16.69,5.47-8.46,5.08,1.51,0,0,0,0,0,.07-.22,3.44-.29,11.1-.3,16.26,0,.45-.07,1.06-.07,1.91,0,14.74,2.34,11.21,2.49,22.74.1,7.27-1.37,10.46-1.78,11.21.85-1.48,6.54-11.86,9.34-29.56,1.8,8,.87,9.19.68,12.08a50.62,50.62,0,0,1-2.23,8.88s3.74-5.7,6.84-17.81c2.27-.94,5.4-4.17,6.94-14.4a76.69,76.69,0,0,0,.51-9,58.94,58.94,0,0,0-.54-8.49A40.92,40.92,0,0,0,122.29,64.61Zm-1.86,28c-.32,4.74-1.55,7.47-2.82,9a126.47,126.47,0,0,0,2.59-15.26.43.43,0,0,1,0-.11h.17C120.49,87.68,120.51,91.32,120.43,92.65Z"/></g></g></svg>