<svg xmlns="http://www.w3.org/2000/svg" xmlns:xlink="http://www.w3.org/1999/xlink" viewBox="0 0 175 174.94"><defs><style>.cls-1{fill:none;}.cls-2{fill:#b44175;}.cls-3{fill:#3b2f18;}.cls-4{fill:#dcc5a1;}.cls-5{fill:#edd9b4;}.cls-6{clip-path:url(#clip-path);}.cls-7{fill:#bc9f82;}.cls-8{fill:#fff;}.cls-9{fill:#7491c6;}.cls-10{fill:#ccad8b;}.cls-11{fill:#d9bf9f;}</style><clipPath id="clip-path"><rect class="cls-1" x="79.45" y="118.09" width="21.03" height="12.39"/></clipPath></defs><title>Ativo 132ac</title><g id="Camada_2" data-name="Camada 2"><g id="Avatares"><rect class="cls-2" width="175" height="174.93" rx="39.36"/><path class="cls-3" d="M132.29,107.38c-1.39-6.75-.54-4.31,1.22-10.46l-.61.35A52.85,52.85,0,0,0,137,76.92c0-27.52-20.72-49.83-46.28-49.83S44.4,49.4,44.4,76.92a52.89,52.89,0,0,0,4,20.13,1.83,1.83,0,0,1-.21-.13c1.75,6.15,2.6,3.71,1.21,10.46-1.2,5.84-4.73,7.36-4.73,7.36s5.46-2.22,6.79-3.73c.64-.74,2.34-2.77,2.86-3.38l0,.05c-.3.67-1,2.84,0,7,1.32,5.47,6.74,9.15,6.74,9.15s-3.25-4.35-2.35-9.11c0,0-.19,1.91,5.09,7.22s15.16,10,15.16,10,3.8,1.64,3.69-2c3.85,1.12,3.87-3.18,8-3.18s5.88,4.91,9.81,3.73c-.12,3.66,2.22,1.43,2.22,1.43s9.88-4.65,15.14-10,5.1-7.22,5.1-7.22c.9,4.76-2.35,9.11-2.35,9.11s5.43-3.68,6.74-9.15c1.24-5.11-.11-7.25-.13-7.25s2.27,2.69,3,3.56c1.32,1.51,6.78,3.73,6.78,3.73s-3.54-1.52-4.73-7.36"/><path class="cls-4" d="M89.91,105.39v69.55H52l-.93-.38c0-34.51,19.88-39.49,22.86-40l.37-.07c2.31,0,3.8-3,4.79-7.49.16-.69.29-1.4.4-2.17.22-1.26.4-2.63.53-4,.08-.85.16-1.7.25-2.58.34-4.26.44-8.9.44-13.3,0,0,5.12.5,9.24.5"/><path class="cls-5" d="M128.92,174.56l-.9.38H89.91V105.39H90c4.13,0,9.26-.5,9.26-.5,0,4.37.11,9,.46,13.2.07.86.15,1.69.23,2.51.16,1.46.33,2.85.55,4.15v0c.06.59.17,1.12.27,1.65,1,4.81,2.54,8,4.93,8a9.24,9.24,0,0,1,1,.18s0,0,0,0c4.5,1.06,22.22,7.32,22.22,39.92"/><g class="cls-6"><path class="cls-7" d="M100.49,124.75v0A12.27,12.27,0,0,1,90,130.48h-.06a13.23,13.23,0,0,1-10.46-5.68c.22-1.26.41-2.61.53-4,.08-.85.16-1.7.25-2.58a41.79,41.79,0,0,0,9.58,1.25h.1a39.43,39.43,0,0,0,9.8-1.36c.08.86.16,1.71.25,2.53.14,1.45.31,2.83.53,4.13"/></g><path class="cls-8" d="M128.92,174.54l-.9.4H52l-.93-.4c0-35.06,19.89-40.13,22.86-40.67,4.87,5.53,15.52,15.23,15.52,15.23s10.94-9.21,15.49-13.42a8,8,0,0,0,.66-.63c.51-.46.9-.83,1.12-1.08h0a19.32,19.32,0,0,1,3,1l.66.3A24.4,24.4,0,0,1,114.9,138a6.57,6.57,0,0,1,.67.51c6.33,5,13.35,15.2,13.35,36.06"/><path class="cls-9" d="M104.72,128.65c.34.25,4.08,8.27,4.75,9.92s0,6.54,0,6.54-.5-2.63-2-3.31-4.66-1.05-5.92-.44-7.16,5.21-8.25,6a6,6,0,0,0-2.14,2.48v25.09h-2.6L88.73,150l2.82-8.86,10.35-10s-.62-2.56-.71-2.9,3.2.16,3.53.42"/><path class="cls-9" d="M75,129.06c-.34.27-4.09,8.28-4.75,9.93s0,6.53,0,6.53.49-2.62,2-3.3,4.67-1.06,5.91-.43,7.18,5.22,8.26,6,4.76,3.3,4.76,3.3l-3.68-9.94-9.65-9.66s.83-2.64.82-2.84-3.33.16-3.66.41"/><path class="cls-10" d="M89.67,25.6C49.47,25.6,49.25,59.15,51,81.09c-2.75-5.21-10.91-3.58-10.25,4.6.65,7.89,12.17,12,12,11,3.3,18.08,22.21,28.5,36.88,28.5H90V25.61h-.31"/><path class="cls-7" d="M43.36,82.22a3.82,3.82,0,0,1,5.8-1.1,3.3,3.3,0,0,1,.94,3.64c-.28,1-1.39,1.14-1.12,2.73a2.8,2.8,0,0,0,1.61,2.32A3.92,3.92,0,0,1,52,91.29a3.88,3.88,0,0,1,.17,2.27c-.3,1.29-2.2.25-3.47-.31a25,25,0,0,1-4.15-3.37C42.82,88,42,84.33,43.36,82.22"/><path class="cls-11" d="M89.87,25.6c40.2,0,40.44,33.55,38.64,55.49,2.76-5.21,10.92-3.58,10.25,4.6-.65,7.89-12.18,12-12,11-3.3,18.08-22.21,28.5-36.88,28.5h-.3V25.61h.3"/><path class="cls-7" d="M136.19,82.22a3.82,3.82,0,0,0-5.8-1.1,3.32,3.32,0,0,0-.95,3.64c.28,1,1.39,1.14,1.12,2.73A2.82,2.82,0,0,1,129,89.81a3.3,3.3,0,0,0-1.53,3.75c.31,1.29,2.21.25,3.47-.31A24.22,24.22,0,0,0,135,89.88c1.69-1.89,2.48-5.55,1.15-7.66"/><path class="cls-4" d="M89.66,35.13c-13.23,0-22.9,3.83-28.77,11.39C52.71,57.07,53,73.2,56,84.76c.92,3.54,1.39,13.07,2,16.57,2.84,15.65,20.18,24,31.58,24H90V35.15l-.31,0"/><path class="cls-5" d="M118.37,46.54C112.56,39,103,35.21,90,35.15V125.3c13-.14,28.6-9.27,31.28-24,.64-3.5,1.1-13,2-16.57,3-11.53,3.3-27.64-4.91-38.22"/><path class="cls-3" d="M140.89,52c-2.11-18.15-20.36-22.59-24.8-23.4l-.48-.36a16.48,16.48,0,0,1,.65-1.85c1.31-3,7.46-1.65,7.46-1.65-1.34-2.07-5-3.52-8.29-2.27s-1.86.21-1.86.21,1.75-1.48-.17-6.14a9.35,9.35,0,0,0-5.64-5.62s2.82,3.32,2.82,6.21-2.63,7.74-4,7c-2.45-1.28-2.7-4.33-2.91-6s1.71-5.74,1.71-5.74a56.07,56.07,0,0,1-4.81,3.68,4.89,4.89,0,0,0-1.69,1.84,7.66,7.66,0,0,0,.43-4c-.66-2.41-1.23-5.52.83-7.78s9.54-3.75,9.54-3.75-8.4-.07-11.11.51C94.87,3.73,89.27,5.28,86,9.41s.48,10.17-.14,9.77-5-5.17-5.39-8.68,0-4.33,0-4.33S71.15,12.89,73.8,23.3c.89,3.48,1.42,3.78,1.42,3.78L70.7,25.24c-4.54-1.84-6.63-.09-11.18-1.54a7.88,7.88,0,0,1-5.19-6.19s-1.1,1.87-.9,6,4.22,5.78,4.22,5.78a19.44,19.44,0,0,0-4.84-.09c-3.73.21-6.11,4.52-6.11,4.52A9.62,9.62,0,0,1,55.85,32a5.57,5.57,0,0,1,3.53,2.45l-.82.79C51.25,38.75,39,47.31,41.78,64a57.74,57.74,0,0,1,4.9-6.8C44.09,77.54,62.91,93.66,62.91,93.66c-4-11.8-5-21.56-4.33-29.52l-.33-.29.39-.48s3.93-19.43,7.56-8.95a10.61,10.61,0,0,0,.15,1.07,14.46,14.46,0,0,0,5.17,8.26s-3.23-4.45-.54-11a17.69,17.69,0,0,1,7.72-8.3l.15-.08a19.6,19.6,0,0,1,5.3-2.08c-.05.27-4.68,5,0,12.78,0,0-.38-4.83.46-7.3.77-2.3,3.44-5.29,6.46-5.17,5.67,2.89,13.47,10.29,6.36,28.24,0,0,12.47-8.15,17.64-18.51a20,20,0,0,0,2.12-7.07,44.6,44.6,0,0,1,5.07,18.12c.57,7.87-.49,17.45-4.52,29,0,0,27.41-22.8,12.62-48.4C135.94,47.76,140.89,52,140.89,52Z"/></g></g></svg>