<svg xmlns="http://www.w3.org/2000/svg" viewBox="0 0 174.99 175.57"><defs><style>.cls-1{fill:#796452;}.cls-2{fill:#dcc5a1;}.cls-3{fill:#edd9b4;}.cls-4,.cls-6{fill:#bc9f82;}.cls-4{opacity:0.7;}.cls-5{fill:#ccad8b;}.cls-7{fill:#d9bf9f;}.cls-8{fill:#422e14;}.cls-9{fill:#82acc6;}</style></defs><title>Ativo 112ac</title><g id="Camada_2" data-name="Camada 2"><g id="Avatares"><rect class="cls-1" width="174.99" height="175.57" rx="39.31"/><path class="cls-2" d="M86.76,110v65.2H51.19l-.87-.37c0-35,21.77-37.58,21.77-37.58h0c2.15,0,3.52-2.81,4.44-7,.15-.65.28-1.32.38-2,.2-1.19.37-2.46.5-3.78.07-.79.15-1.59.22-2.41.33-4,.42-8.35.42-12.48C78.1,109.54,82.9,110,86.76,110Z"/><path class="cls-3" d="M123.33,174.67v.17l-.48.2h0l-.35.17H86.76V110h.07c3.87,0,8.69-.47,8.69-.47,0,4.11.1,8.4.42,12.38.07.79.15,1.59.22,2.36.15,1.37.3,2.66.5,3.88v0c.08.55.18,1,.28,1.54.92,4.5,2.37,7.54,4.61,7.54a19.08,19.08,0,0,1,7.16,2.83C115.05,144,123.28,153.24,123.33,174.67Z"/><path class="cls-4" d="M96.67,128.16v0a11.5,11.5,0,0,1-9.85,5.34h0A12.46,12.46,0,0,1,77,128.21c.21-1.19.37-2.46.5-3.78.08-.79.15-1.59.23-2.41a38.91,38.91,0,0,0,9,1.17h.11a36.45,36.45,0,0,0,9.17-1.27c.08.8.15,1.59.23,2.37C96.33,125.65,96.47,127,96.67,128.16Z"/><path class="cls-5" d="M86.87,35.24c-37.67,0-37.89,31.43-36.21,52-2.59-4.88-10.23-3.37-9.61,4.31.61,7.4,11.41,11.22,11.26,10.37,3.08,16.92,20.81,26.7,34.56,26.7h.29V35.24Z"/><path class="cls-6" d="M43.46,88.3a3.57,3.57,0,0,1,5.44-1,3.1,3.1,0,0,1,.88,3.41c-.26,1-1.3,1.06-1.05,2.56a2.67,2.67,0,0,0,1.51,2.18,3.49,3.49,0,0,1,1.27,1.38,3.69,3.69,0,0,1,.17,2.11c-.29,1.22-2.06.26-3.26-.28a23.32,23.32,0,0,1-3.89-3.16C43,93.7,42.22,90.28,43.46,88.3Z"/><path class="cls-7" d="M87.05,35.24c37.69,0,37.9,31.43,36.23,52,2.58-4.88,10.22-3.37,9.6,4.31-.61,7.4-11.41,11.22-11.26,10.37-3.09,16.92-20.81,26.7-34.57,26.7h-.28V35.24Z"/><path class="cls-6" d="M130.46,88.3a3.56,3.56,0,0,0-5.43-1,3.1,3.1,0,0,0-.88,3.41c.26,1,1.3,1.06,1,2.56a2.67,2.67,0,0,1-1.51,2.18,3.51,3.51,0,0,0-1.28,1.38,3.77,3.77,0,0,0-.16,2.11c.29,1.22,2.06.26,3.25-.28a23,23,0,0,0,3.9-3.16C131,93.7,131.71,90.28,130.46,88.3Z"/><path class="cls-2" d="M86.54,44.1c-12.4,0-21.47,3.58-27,10.67-7.67,9.89-7.38,25-4.55,35.84.87,3.32,1.31,12.25,1.91,15.53,2.67,14.67,18.91,22.48,29.6,22.48h.29V44.11Z"/><path class="cls-3" d="M113.45,54.78C108,47.74,99,44.17,86.83,44.11v84.5c12.21-.13,26.81-8.69,29.32-22.47.59-3.28,1-12.21,1.9-15.53C120.87,79.8,121.15,64.71,113.45,54.78Z"/><path class="cls-8" d="M122.08,38.68A22.21,22.21,0,0,0,113.61,34S103.16,28.75,95.18,25s-20.91-.74-27.64,1S52.81,37.29,50.32,42.5,41.65,59,39.65,67.22,44.36,83.35,48.53,85c2.72,1.11,2.89,7.47,2.89,7.47l3,1.31a23.19,23.19,0,0,1-1.56-8.94c.18-3-.31-12-.31-12s12.78-2.53,22.2-5.06c-3.19,3.87-5.8,6.51-5.8,6.51a34.48,34.48,0,0,0,13.39-8.48A107,107,0,0,1,72.13,78.16a36,36,0,0,0,16.8-12.37A98.92,98.92,0,0,1,76,82.26c17.75-6,24-25,24.85-27.72a.86.86,0,0,0,.14-.13,29.5,29.5,0,0,1,10.64,5.29c4.71,3.48,10.51,8.31,10.51,18.74,0,3.49-1.57,13.64-1.57,13.64L122.17,91s0-3.93,4.46-6.4c3.57-2,4.47-8.65,4.47-11.41C131.1,54.67,125.82,42.16,122.08,38.68Z"/><path class="cls-8" d="M102.1,119.1a10.48,10.48,0,0,0-1.66-5.23,11.41,11.41,0,0,0-1-.74c-.64-.45-1.58-1.08-2.78-1.78a27.74,27.74,0,0,0-5-2.65,11.93,11.93,0,0,0-1.85-.48,28.48,28.48,0,0,0-3.72-.24H86a28.61,28.61,0,0,0-3.72.24,11.52,11.52,0,0,0-1.84.48,28.19,28.19,0,0,0-5.06,2.65c-1.19.7-2.14,1.33-2.78,1.78s-1,.73-1,.74A10.68,10.68,0,0,0,70,119.1c0,.26-.06.52-.06.79a11.12,11.12,0,0,0,1.37,5.48A4.22,4.22,0,0,0,72.55,127a5.42,5.42,0,0,0,1.93,1.2A28.54,28.54,0,0,0,86,130.45h.08a28.63,28.63,0,0,0,11.52-2.21,5.5,5.5,0,0,0,1.93-1.2,4.09,4.09,0,0,0,1.27-1.67,11,11,0,0,0,1.36-5.48C102.15,119.62,102.12,119.36,102.1,119.1Zm-10.36,3.63H80.32c-5.31.12-6.43-1.87-6.58-3.15,0-.35,0-.71.06-1a16.93,16.93,0,0,1,9.93-4.46,21.49,21.49,0,0,1,2.3-.15,21.86,21.86,0,0,1,2.31.15,16.9,16.9,0,0,1,9.92,4.46,7.31,7.31,0,0,1,.06,1C98.17,120.86,97.06,122.85,91.74,122.73Z"/><path class="cls-9" d="M103.32,136a2.64,2.64,0,0,1-1.43-.85,27.83,27.83,0,0,0-2.67-3.61,1.64,1.64,0,0,1-.26-.27l-.39,2.24-11.63,5.94-11.46-5.53-.58-2.65a.75.75,0,0,1-.15.16c-1.55,1.76-4.2,4.68-4.18,4.57-4.3,1-21.84,7-21.84,39.16l.9.39h74.64l.9-.39C125.17,143,107.62,137,103.32,136Z"/><path class="cls-8" d="M81.24,156a6.31,6.31,0,1,1-6.31-6.28A6.3,6.3,0,0,1,81.24,156Z"/><path class="cls-8" d="M108.89,148.85A3.91,3.91,0,1,1,105,145,3.9,3.9,0,0,1,108.89,148.85Z"/><path class="cls-8" d="M90.86,153.64a2.11,2.11,0,1,1-2.1-2.1A2.1,2.1,0,0,1,90.86,153.64Z"/><path class="cls-8" d="M113.71,165.62a3.31,3.31,0,1,1-3.31-3.29A3.3,3.3,0,0,1,113.71,165.62Z"/><path class="cls-8" d="M60.21,168.32a3.61,3.61,0,1,1-3.61-3.6A3.6,3.6,0,0,1,60.21,168.32Z"/><path class="cls-8" d="M95.07,166.52a5.41,5.41,0,1,1-5.41-5.39A5.4,5.4,0,0,1,95.07,166.52Z"/></g></g></svg>