<svg xmlns="http://www.w3.org/2000/svg" viewBox="0 0 175 174.93"><defs><style>.cls-1{fill:#c58b8e;}.cls-2{fill:#edd9b4;}.cls-3{fill:#dcc5a1;}.cls-4,.cls-7{fill:#bc9f82;}.cls-4{opacity:0.7;}.cls-5{fill:#442c38;}.cls-6{fill:#ccad8b;}.cls-8{fill:#d9bf9f;}.cls-9{fill:#b47070;}.cls-10{fill:#c17874;}.cls-11{fill:#0f1005;}</style></defs><title>Ativo 133ac</title><g id="Camada_2" data-name="Camada 2"><g id="Avatares"><rect class="cls-1" width="175" height="174.93" rx="39.55"/><path class="cls-2" d="M94.21,87.34c1.47,4.16,7,6.82,11.65,6.66,8.58-.31,16.39-7.24,15-13.15-.94-3.84-6.33-4.49-13.71-2.81C94.35,81,92.62,82.88,94.21,87.34Z"/><path class="cls-3" d="M88.67,104.8v70H50.5l-.94-.4c0-16.08,4.28-25.77,9.18-31.6,6.53-7.82,14.19-8.72,14.19-8.72h.19a3,3,0,0,0,.5-.11c1.93-.54,3.24-3.36,4.13-7.42.16-.68.28-1.41.4-2.19.21-1.27.4-2.64.53-4,.08-.85.17-1.7.25-2.59.34-4.29.45-9,.45-13.38C79.38,104.3,84.52,104.8,88.67,104.8Z"/><path class="cls-2" d="M127.91,174.36s-.35.14-.91.4H88.67v-70h.08c4.15,0,9.31-.5,9.31-.5,0,4.4.1,9,.45,13.28.08.85.17,1.7.24,2.53.17,1.47.33,2.86.53,4.16v0c.09.59.2,1.12.32,1.65.78,3.92,2,6.81,3.68,7.76a1.67,1.67,0,0,0,.4.16,2.13,2.13,0,0,0,.86.17s8.38,1,15.1,9.84C124.13,149.8,127.91,159.29,127.91,174.36Z"/><path class="cls-4" d="M99.3,124.29v0a12.33,12.33,0,0,1-10.58,5.74h0c-6.08,0-9.61-4.43-10.52-5.71.21-1.29.39-2.64.53-4.06.08-.85.16-1.71.24-2.59A42.22,42.22,0,0,0,88.56,119h.12a39.89,39.89,0,0,0,9.84-1.36c.08.85.17,1.7.25,2.53C98.93,121.6,99.08,123,99.3,124.29Z"/><path class="cls-5" d="M127.81,174.33s-.35.14-.91.41H50.37l-.95-.41c0-28.57,13.57-37,20-39.39,4.21,4.61,12.53,11,19,11.27h.18s.08,0,.13,0c6.46-.31,14.79-6.68,19-11.29,6.42,2.37,20.08,10.76,20.08,39.41"/><path class="cls-6" d="M88.64,29.63C48.8,29.57,48.58,61.46,50.36,82.26,47.62,77.38,39.54,79.19,40.2,87c.63,7.48,12,10.88,11.9,10,3.25,17,22,26.36,36.54,27.7H89V29.64Z"/><path class="cls-7" d="M42.61,83.52a4,4,0,0,1,5.84-1,3.06,3.06,0,0,1,.95,3.47C49.11,87,48,87,48.27,88.55a2.71,2.71,0,0,0,1.61,2.22,3.52,3.52,0,0,1,1.37,1.41,3.7,3.7,0,0,1,.18,2.16c-.31,1.24-2.21.25-3.48-.29a24.49,24.49,0,0,1-4.19-3.22C42.06,89,41.28,85.53,42.61,83.52Z"/><path class="cls-8" d="M88.84,29.63c39.83-.06,40.06,31.83,38.29,52.63,2.73-4.88,10.82-3.07,10.15,4.75-.63,7.48-12,10.88-11.88,10-3.28,17-22,26.36-36.56,27.7h-.3V29.64Z"/><path class="cls-7" d="M135.31,83.29a4,4,0,0,0-5.84-1.05,3.05,3.05,0,0,0-.94,3.47c.28,1,1.39,1.08,1.12,2.61A2.73,2.73,0,0,1,128,90.54a3.07,3.07,0,0,0-1.55,3.57c.31,1.24,2.21.25,3.49-.29a24.43,24.43,0,0,0,4.18-3.22C135.86,88.79,136.64,85.3,135.31,83.29Z"/><path class="cls-3" d="M88.43,38.66c-13.3,0-23,3.67-28.93,10.88C51.27,59.61,51.58,75,54.62,86.05c.92,3.39,1.4,12.49,2,15.83,2.88,15,20.3,22.91,31.77,22.91l.31,0V38.67Z"/><path class="cls-2" d="M117.3,49.55c-5.84-7.17-15.47-10.82-28.56-10.88v86.1c13.1-.14,28.77-8.85,31.46-22.89.63-3.34,1.11-12.44,2-15.83C125.27,75,125.56,59.66,117.3,49.55Z"/><path class="cls-9" d="M95.44,111.28s-3,3.2-6.72,3.2-6.54-3.14-6.54-3.14a43.57,43.57,0,0,1,6.54-.48A54.25,54.25,0,0,1,95.44,111.28Z"/><path class="cls-10" d="M90.62,109.8a1.74,1.74,0,0,0-1.9,1.45,1.72,1.72,0,0,0-1.89-1.45A26.68,26.68,0,0,0,82,111.28s3.67.38,4.72.38,2,.41,2-.37c0,.79.77.48,1.82.48s4.9-.49,4.9-.49A26.68,26.68,0,0,0,90.62,109.8Z"/><path class="cls-5" d="M124.86,75.15c-4.43-1.17-14.61.62-18.81,1.54a161.27,161.27,0,0,0-15.39,5.1,6.64,6.64,0,0,1-1.7.43,5.82,5.82,0,0,1-1.72-.44c-1.73-.67-11.09-4.14-15.38-5.09S57.47,74,53.05,75.14a2.48,2.48,0,0,0-1.67,1.41c.15,1.2,3.32,19,21,19A15.42,15.42,0,0,0,82,92.45c2-1.45,4.12-4.93,4.74-5.83S88,85.08,88.9,85.14l0,0s0,0,0,0c.92-.07,1.58.58,2.19,1.47S94,91,95.93,92.45a15.44,15.44,0,0,0,9.63,3.09c17.64,0,20.81-17.78,21-19A2.48,2.48,0,0,0,124.86,75.15ZM83.7,87.33C82.22,91.5,76.74,94.16,72,94c-8.57-.31-16.39-7.24-15-13.15C58,77,63.41,76.36,70.78,78,83.55,81,85.28,82.88,83.7,87.33ZM105.86,94c-4.7.16-10.18-2.5-11.65-6.66-1.59-4.46.14-6.38,12.9-9.3,7.38-1.68,12.77-1,13.71,2.81C122.25,86.76,114.44,93.69,105.86,94Z"/><path class="cls-11" d="M130.79,52.07c-.49-1.34-1-2.59-1.52-3.78v-.51a6.41,6.41,0,0,0-2.11-4.5,2.8,2.8,0,0,0-.32-3.89,2.77,2.77,0,0,0,1.52-.72,2.33,2.33,0,0,0-.1-3.47l-.92-.79a3.19,3.19,0,0,0,.9-.63c1-1,1.23-2.32.47-3l-.42-.37a2.4,2.4,0,0,0,.8-.52c.74-.72.9-1.69.35-2.16L122.87,22a1.83,1.83,0,0,0-2.32.43,2.22,2.22,0,0,0-.53.77l-.31-.28c-.76-.66-2.19-.39-3.2.59a3.63,3.63,0,0,0-.64.86l-.41-.36a2.83,2.83,0,0,0-3.77.1,2.29,2.29,0,0,0-.7,1.46,3.46,3.46,0,0,0-4.36.28,3,3,0,0,0-.65,1A13.3,13.3,0,0,0,98.29,25a.55.55,0,0,1,0,.1c-2.76-.56-17.58-3.31-26.4-.26-9.75,3.37-17.73,9.15-23.36,24.68a48.07,48.07,0,0,0-1.43,27.16c.22,1.06.45,2.05.67,3,.34,1.4.65,2.62.84,3.58.06.29.14.58.21.88a25.9,25.9,0,0,0,1,3.23C55.41,103,74,117.35,74,117.35s-9.59-10.71-11.46-15.29c0-.08-.08-.18-.11-.26a47.28,47.28,0,0,1-3.52-18.37,17.2,17.2,0,0,1,.76-5.22,10.31,10.31,0,0,1,4.41-5.94,31.7,31.7,0,0,0-.92,5.7A20.47,20.47,0,0,0,66.9,91.58s-5.81-10,3.46-17.4a60.68,60.68,0,0,0,7.41-7.09h0c-2.33,5.88,3,19.58,3,19.58S80,70.38,84.86,67.82c2.16-1.14,4-2.16,5.52-3.1l.38-.23.42-.25c6.24-3.89,7.7-6.33,9-10.27a10.81,10.81,0,0,0,.44-1.93l10.77,14.53c.51.63,1.32,1.7,2.28,3.08,2.8,4,6.66,10.63,6.66,16.37,0,1.67,0,3.14-.13,4.43-.37,5.65-1.36,7.81-1.36,7.81a6.48,6.48,0,0,0,3.23-1.49A28.07,28.07,0,0,0,128.81,89c.61-1,1.24-2,1.88-3.21a.83.83,0,0,0,.07-.13,26.35,26.35,0,0,0,2.34-7c.17-.81.31-1.68.44-2.59A50.51,50.51,0,0,0,130.79,52.07Z"/></g></g></svg>