<svg xmlns="http://www.w3.org/2000/svg" viewBox="0 0 174.64 174.55"><defs><style>.cls-1{fill:#c58b8e;}.cls-2{fill:#dcc5a1;}.cls-3{fill:#edd9b4;}.cls-4,.cls-8{fill:#bc9f82;}.cls-4{opacity:0.7;}.cls-5{fill:#483a26;}.cls-6{fill:#fff;}.cls-7{fill:#ccad8b;}.cls-9{fill:#d9bf9f;}.cls-10{fill:#b47070;}.cls-11{fill:#c17874;}.cls-12{fill:#001f3a;}</style></defs><title>Ativo 104ac</title><g id="Camada_2" data-name="Camada 2"><g id="Avatares"><rect class="cls-1" width="174.64" height="174.55" rx="39.4"/><path class="cls-2" d="M89.06,101.78v72.7H49.4l-1-.41c0-16.71,4.44-26.78,9.53-32.84,6.78-8.12,14.74-9.07,14.74-9.07h.19a2.59,2.59,0,0,0,.54-.11c2-.55,3.36-3.49,4.28-7.7.16-.72.3-1.47.42-2.28.21-1.33.42-2.74.56-4.21.07-.89.16-1.77.25-2.69.36-4.46.47-9.31.47-13.91C79.41,101.26,84.75,101.78,89.06,101.78Z"/><path class="cls-3" d="M129.84,174.07s-.37.14-.94.41H89.06v-72.7h.08c4.32,0,9.68-.52,9.68-.52,0,4.58.11,9.37.47,13.8.09.89.18,1.77.26,2.63.16,1.53.33,3,.55,4.32v0c.08.62.2,1.17.31,1.72.83,4.07,2.06,7.08,3.84,8.06a1.83,1.83,0,0,0,.41.18,2.46,2.46,0,0,0,.89.16s8.71,1.05,15.69,10.23C125.91,148.55,129.84,158.41,129.84,174.07Z"/><path class="cls-4" d="M100.1,122v0a12.79,12.79,0,0,1-11,6h-.06c-6.3,0-10-4.6-10.92-5.93.22-1.34.41-2.75.55-4.22.08-.88.17-1.77.25-2.69a43.8,43.8,0,0,0,10,1.31h.11a41.43,41.43,0,0,0,10.24-1.42c.08.89.17,1.77.25,2.63C99.72,119.24,99.88,120.68,100.1,122Z"/><path class="cls-5" d="M64.32,141.28c3.12,1.3,14.49,7.14,25.29,6.82,22.51-.68,26.2-8.9,26.2-8.9s.93,16.31-3.43,18.92-15.24,9.2-22.7,8.5-19-5-19.64-7.65S64.32,141.28,64.32,141.28Z"/><path class="cls-6" d="M128.41,156c-.28-1-.56-1.92-.87-2.84-3.57-10.41-9.58-15.71-14.33-18.37a.24.24,0,0,1-.11-.06.09.09,0,0,0-.06,0c-.42,1-4.61,10.87-12.13,17-7.22,5.82-11,7.73-11.35,7.87-.31-.14-4.14-2.05-11.35-7.87-7.53-6.1-11.72-16-12.14-17a.09.09,0,0,0-.06,0,.2.2,0,0,1-.11.06c-4.75,2.66-10.76,8-14.33,18.37-.31.92-.59,1.86-.87,2.84a68.53,68.53,0,0,0-2.19,18.09l1,.42h80.13l1-.42A68.49,68.49,0,0,0,128.41,156Z"/><path class="cls-7" d="M89,23.67C47.63,23.6,47.4,56.75,49.24,78.36,46.4,73.28,38,75.17,38.69,83.29c.66,7.77,12.52,11.31,12.36,10.45,3.39,17.62,22.9,27.4,38,28.78h.32V23.68Z"/><path class="cls-8" d="M41.1,80.12A4.1,4.1,0,0,1,47.17,79a3.16,3.16,0,0,1,1,3.6c-.3,1.05-1.46,1.13-1.18,2.71a2.81,2.81,0,0,0,1.69,2.31c.48.4,1.11.71,1.41,1.46a3.76,3.76,0,0,1,.19,2.25c-.32,1.29-2.3.26-3.62-.3a25,25,0,0,1-4.35-3.35C40.54,85.83,39.72,82.21,41.1,80.12Z"/><path class="cls-9" d="M89.23,23.67c41.4-.07,41.64,33.08,39.8,54.69,2.84-5.08,11.24-3.19,10.55,4.93-.65,7.77-12.53,11.31-12.35,10.45-3.39,17.62-22.9,27.4-38,28.78h-.3V23.68Z"/><path class="cls-8" d="M137.63,79.12A4.1,4.1,0,0,0,131.56,78a3.16,3.16,0,0,0-1,3.6c.29,1.05,1.46,1.13,1.17,2.72a2.82,2.82,0,0,1-1.67,2.3c-.5.4-1.12.71-1.42,1.46a3.76,3.76,0,0,0-.19,2.25c.32,1.29,2.3.27,3.63-.3a26.25,26.25,0,0,0,4.34-3.35C138.2,84.83,139,81.21,137.63,79.12Z"/><path class="cls-2" d="M88.82,33.06c-13.83,0-23.94,3.8-30.08,11.29-8.55,10.48-8.23,26.47-5.06,37.95,1,3.52,1.46,13,2.12,16.45,3,15.53,21.09,23.8,33,23.8l.31,0V33.06Z"/><path class="cls-3" d="M118.82,44.37c-6.08-7.45-16.08-11.24-29.69-11.31v89.47c13.62-.13,29.9-9.19,32.7-23.78.66-3.48,1.16-12.93,2.12-16.45C127.1,70.85,127.4,54.87,118.82,44.37Z"/><path class="cls-10" d="M96.1,108.51s-3.13,3.33-7,3.33-6.79-3.26-6.79-3.26a44.78,44.78,0,0,1,6.79-.5A57.23,57.23,0,0,1,96.1,108.51Z"/><path class="cls-11" d="M91.09,107a1.8,1.8,0,0,0-2,1.51,1.79,1.79,0,0,0-2-1.51,28.15,28.15,0,0,0-5,1.53s3.82.4,4.9.4,2.06.43,2.08-.38c0,.81.8.5,1.88.5s5.1-.52,5.1-.52S92.19,107,91.09,107Z"/><path class="cls-12" d="M139.66,63h0a98.41,98.41,0,0,0-3.21-12.08C142.56,55.05,151.68,71,151.68,71c-2.56-14.12-18.21-30.39-18.21-30.39v0c-6.24-16.09-33.93-18.53-33.93-18.53a27.26,27.26,0,0,0-14.1-3.8c-7.67.09-20.18,1.7-30.69,14.61C13,84.25,59.89,113.15,59.89,113.15l10,5.69s-7.34-14.1-7.47-22.27c-.48-29,20.38-44.89,31.42-51.28,1.74,7.77,5.54,19.48,13.21,24.18,0,0-12.38-18.43-6.52-24.73.23,3.94,1.44,11,6.94,14.68,7.84,5.2,12.41,10.27,14.14,16.5s2.83,9.42,1.3,18.41S115.45,118,115.45,118l8.6-5.89S132.64,105,137.69,85c1.49,8.67,2.46,16.3,2.46,16.3,2-10.59.72-26.8,0-34.25A39.24,39.24,0,0,0,139.66,63Z"/></g></g></svg>