<svg xmlns="http://www.w3.org/2000/svg" xmlns:xlink="http://www.w3.org/1999/xlink" viewBox="0 0 174.48 174.31"><defs><style>.cls-1{fill:none;}.cls-2{fill:#bd2c62;}.cls-3{fill:#211915;}.cls-4{fill:#dcc5a1;}.cls-5{fill:#edd9b4;}.cls-6{clip-path:url(#clip-path);}.cls-7{fill:#bc9f82;}.cls-8{fill:#9a6919;}.cls-9{fill:#fff;}.cls-10{fill:#82acc6;}.cls-11{fill:#483a26;}.cls-12{fill:#ccad8b;}.cls-13{fill:#d9bf9f;}.cls-14{fill:#32221d;}.cls-15{fill:#412620;}.cls-16{fill:#0f1005;}</style><clipPath id="clip-path"><rect class="cls-1" x="76.68" y="113.63" width="22.44" height="13.22"/></clipPath></defs><title>Ativo 90ac</title><g id="Camada_2" data-name="Camada 2"><g id="Avatares"><rect class="cls-2" width="174.48" height="174.31" rx="39.21"/><polygon class="cls-3" points="85 120.55 85.44 120.27 85.11 120.72 85 120.55"/><polygon class="cls-3" points="85.65 120.27 85.56 120.19 85.59 120.16 85.65 120.27"/><path class="cls-4" d="M87.83,100.09v74.22H47.33l-1-.43c0-39.8,24.78-42.78,24.78-42.78h.21a5,5,0,0,0,.53-.12,3,3,0,0,0,.53-.22c1.76-.89,3-3.71,3.85-7.64.17-.74.32-1.51.44-2.32.21-1.37.42-2.8.56-4.3.09-.91.17-1.82.26-2.75.36-4.55.47-9.5.47-14.21,0,0,5.47.55,9.86.55"/><path class="cls-5" d="M129.48,173.88s-.38.15-1,.43H87.83V100.09h.08c4.41,0,9.88-.55,9.88-.55,0,4.66.12,9.56.5,14.09.09.91.17,1.81.26,2.7.16,1.55.33,3,.56,4.41v0c.08.63.21,1.19.32,1.77.84,4.15,2.09,7.21,3.92,8.23a2.31,2.31,0,0,0,.41.16,2.38,2.38,0,0,0,.91.18s24.81,3,24.81,42.78"/><g class="cls-6"><path class="cls-7" d="M99.11,120.74v0a13.1,13.1,0,0,1-11.23,6.08h0c-6.45,0-10.2-4.69-11.15-6,.21-1.35.42-2.8.56-4.3.09-.91.17-1.82.26-2.75a44.92,44.92,0,0,0,10.21,1.34h.12a42.26,42.26,0,0,0,10.46-1.46c.09.91.17,1.81.26,2.7.16,1.55.33,3,.56,4.41"/></g><polygon class="cls-8" points="122.41 160.75 121.85 161.15 111.92 146.47 111.48 145.82 110.71 144.68 110.68 144.63 109.54 142.93 109.09 142.28 107.13 139.36 106.71 138.74 104.75 135.85 104.33 135.19 102.36 132.29 101.94 131.67 99.98 128.75 99.54 128.13 99.95 127.5 100.4 128.13 102.36 131.04 102.79 131.67 104.75 134.58 105.18 135.23 107.13 138.12 107.56 138.77 108.86 140.7 109.51 141.65 109.94 142.31 111.91 145.19 112.33 145.84 122.41 160.75"/><polygon class="cls-8" points="118.53 162.06 117.92 162.46 112.33 154.16 111.71 153.22 111.27 152.6 109.51 150 109.09 149.38 107.13 146.47 106.71 145.86 104.75 142.93 104.3 142.31 104.3 142.28 102.36 139.39 101.94 138.77 101.94 138.74 99.95 135.85 99.54 135.23 97.57 132.32 97.13 131.67 95.17 128.75 94.74 128.13 95.17 127.5 95.6 128.13 97.57 131.04 98.02 131.67 99.98 134.58 100.37 135.19 102.36 138.12 102.79 138.77 104.75 141.65 105.18 142.28 107.13 145.19 107.56 145.86 109.51 148.73 109.94 149.38 111.71 151.95 112.13 152.6 112.74 153.48 118.53 162.06"/><polygon class="cls-8" points="114.62 163.36 114.03 163.73 109.33 156.76 108.89 156.12 108.72 155.86 107.13 153.54 106.71 152.89 104.75 150 104.33 149.35 102.36 146.45 101.94 145.81 99.98 142.93 99.54 142.28 97.57 139.36 97.17 138.74 95.17 135.83 94.74 135.19 92.78 132.29 92.36 131.67 90.39 128.75 89.98 128.13 90.39 127.47 90.84 128.13 92.78 131.04 93.22 131.64 95.17 134.55 95.63 135.19 97.6 138.12 97.99 138.74 99.98 141.65 100.4 142.28 102.36 145.16 102.79 145.81 104.75 148.73 105.18 149.38 107.13 152.27 107.56 152.89 109.33 155.5 109.34 155.55 109.74 156.12 114.62 163.36"/><polygon class="cls-8" points="110.71 164.64 110.11 165.03 106.93 160.34 106.48 159.69 105.14 157.67 104.75 157.08 104.33 156.46 102.36 153.54 101.94 152.92 99.95 150 99.52 149.35 97.57 146.47 97.13 145.84 95.17 142.93 94.74 142.31 92.78 139.39 92.36 138.74 90.37 135.82 89.98 135.23 87.98 132.32 87.98 132.29 87.57 131.67 85.6 128.78 85.19 128.13 85.63 127.5 86.07 128.13 87.98 131.01 88.45 131.67 90.39 134.58 90.84 135.19 92.78 138.12 93.22 138.74 95.17 141.65 95.6 142.28 97.57 145.19 98.02 145.84 99.95 148.73 100.4 149.35 102.36 152.27 102.79 152.92 104.75 155.8 105.18 156.46 105.77 157.32 105.8 157.32 106.93 159.04 107.36 159.69 110.71 164.64"/><polygon class="cls-8" points="106.83 165.93 106.22 166.34 102.36 160.62 101.94 159.98 101.48 159.31 99.98 157.08 99.54 156.46 97.57 153.54 97.13 152.89 95.17 150 94.74 149.35 92.78 146.45 92.36 145.84 90.39 142.93 89.98 142.28 87.98 139.36 87.59 138.74 85.63 135.82 85.19 135.19 83.22 132.32 82.79 131.67 80.83 128.75 80.4 128.13 78.45 125.24 78.02 124.59 78.45 123.94 78.87 124.59 80.83 127.47 81.25 128.13 83.25 131.01 83.67 131.67 85.63 134.55 86.07 135.19 88.02 138.12 88.45 138.74 90.39 141.62 90.84 142.28 92.78 145.19 93.22 145.82 95.17 148.73 95.63 149.35 97.57 152.24 98.02 152.89 99.98 155.8 100.4 156.46 102.16 159.04 102.36 159.34 102.79 159.98 106.83 165.93"/><polygon class="cls-8" points="102.89 167.23 102.33 167.63 102.16 167.37 101.71 166.73 99.98 164.15 99.54 163.5 97.63 160.68 97.6 160.62 97.17 159.98 95.17 157.08 95.17 157.05 94.74 156.43 92.78 153.54 92.36 152.89 90.39 149.97 89.98 149.35 88.02 146.45 87.59 145.82 85.63 142.9 85.2 142.28 83.25 139.36 82.79 138.74 80.83 135.82 80.4 135.19 78.45 132.29 78.02 131.64 76.07 128.75 75.64 128.13 76.07 127.5 76.49 128.13 78.45 131.04 78.87 131.67 80.83 134.58 81.25 135.19 83.22 138.12 83.65 138.74 85.63 141.65 86.03 142.28 87.98 145.19 88.45 145.84 90.39 148.73 90.84 149.35 92.78 152.27 93.22 152.92 95.17 155.8 95.6 156.46 97.57 159.34 97.57 159.37 98.02 159.99 98.3 160.44 99.95 162.88 100.4 163.53 102.14 166.1 102.56 166.75 102.89 167.23"/><polygon class="cls-8" points="99.01 168.54 98.42 168.93 97.57 167.69 97.13 167.04 95.17 164.15 94.74 163.53 93.49 161.66 92.78 160.62 92.36 159.98 90.39 157.08 89.98 156.46 87.98 153.54 87.59 152.92 85.63 150 85.19 149.35 83.22 146.45 82.79 145.84 80.83 142.93 80.4 142.28 78.45 139.39 78.02 138.74 76.07 135.82 75.61 135.19 73.69 132.32 73.22 131.67 73.69 131.04 74.1 131.67 76.07 134.55 76.49 135.19 78.45 138.12 78.87 138.74 80.83 141.62 81.25 142.28 83.25 145.19 83.65 145.82 85.63 148.7 85.63 148.73 86.07 149.35 88.02 152.27 88.45 152.89 90.39 155.8 90.84 156.46 92.78 159.34 93.22 159.98 94.27 161.51 95.17 162.88 95.63 163.53 97.57 166.43 98.02 167.04 99.01 168.54"/><path class="cls-8" d="M95.09,169.84l-.56.4-1.75-2.55-.42-.64-2-2.9L90,163.5l-.82-1.21L88,160.62l-.43-.64-2-2.93-.43-.59-2-2.92v0l-.46-.62-2-2.92-.44-.62-2-2.9-.43-.63-2-2.92-.43-.62-2-2.92-.44-.62-2-2.89-.42-.66-.49-.67-1.5-2.23-.37-.54c.25-.05.48-.14.71-.2l.09.12,1.47,2.18.48.73.43.65,2,2.89.44.62,2,2.91.42.63,2,2.91.42.67,2,2.87.41.62,2,2.92.43.65,2,2.88v0l.4.63,2,2.88v0l.47.62,1.47,2.21.45.69.47.64,1.94,2.91.44.63Z"/><path class="cls-8" d="M91.21,171.14l-.61.4-.21-.28L90,170.6l-2-2.91-.41-.64-1.94-2.9-.45-.62L84.13,162l-.91-1.34-.43-.62-2-2.91-.44-.62-2-2.92-.43-.62-2-2.92-.46-.65-2-2.88-.42-.61-2-2.93-.42-.65-2-2.89-.44-.62-.16-.29-1.79-2.63-.44-.66-1.26-1.85c.23-.11.43-.23.64-.31l1.06,1.52.44.64,1.72,2.59.23.34.43.65,2,2.88.43.63,2,2.91.41.62,2,2.92.42.62,2,2.92.42.62,2,2.91.41.66,2,2.88.4.62,1.45,2.13.53.8.44.64,1.91,2.9.47.62,1.94,2.9.45.65Z"/><path class="cls-8" d="M87.27,172.44l-.55.4-1.09-1.62-.45-.65-1.93-2.88-.46-.64-2-2.9-.44-.62-1.89-2.82-.06-.1L78,160l-2-2.91-.43-.59-2-2.92-.47-.65-2-2.91-.42-.63-2-2.9-.44-.64-2-2.88-.23-.38-.21-.27-2-2.92-.43-.62-2.23-3.31A2.39,2.39,0,0,1,62,135l2.08,3.09.45.65,2,2.88.12.17.32.49,1.95,2.88.43.67,2,2.87.43.65,2,2.89.44.65,2,2.91.39.63,2,2.88.42.65.68,1,1.29,1.9.41.62,2,2.91.43.63L85.6,170l.43.65Z"/><path class="cls-8" d="M83.39,173.74l-.6.4-2-2.88-.44-.66-2-2.91-.43-.62-2-2.92-.46-.62-2-2.92-.42-.62L72,158.21l-.77-1.13-.42-.62-2-2.92-.44-.62-2-2.92-.44-.62-1.67-2.49-.28-.42-.43-.61-2-2.93-.43-.65L58.37,138a6.16,6.16,0,0,0,.51-.52l2.81,4.19.45.63,2,2.91.43.67.17.24,1.79,2.63.44.62,1.95,2.92.43.62,2,2.91.43.66,1.59,2.32.41.56.39.62,2,2.93.42.64,2,2.91.42.61,2,2.9.41.65Z"/><path class="cls-8" d="M79,174.31h-.85l-4.45-6.62-.47-.64-2-2.9-.42-.62-2-2.91-.44-.64-2-2.93-.44-.59L65,154.79l-.86-1.25-.43-.65-.59-.85-1.36-2-.43-.62-2-2.91-.43-.65L55.64,141a4.6,4.6,0,0,1,.45-.56l3.22,4.75.45.63,2,2.91.42.65L63.23,151l.87,1.31.43.62,1.62,2.41.34.5.44.63,1.95,2.91.43.64,2,2.91.4.61,2,2.93.41.62Z"/><path class="cls-8" d="M120.12,140.78l-1.94,2.89-.41.64-2,2.92-.42.62-.84,1.23-.39.61-.14.19-.6.86-.43.65-.11.18-.71,1,0,0-.39.59L111,154.3l-.43.59-.06.12h0l-.74,1.11-.42.64-.71,1.05-.43.65-.82,1.23-.43.65-.71,1-.42.62-.82,1.21-.42.63-.73,1.05-.44.65-.83,1.2-.4.62-3.24,4.78-.76,1.14-.59-.39.5-.75,3.64-5.42.42-.63.82-1.2.44-.64.73-1.06.44-.63.81-1.21.4-.63.71-1,.45-.65.83-1.23.42-.61.71-1.08.35-.52h0l0-.1.83-1.22.42-.62.34-.51.36-.55.44-.65.82-1.21.13-.2v0l.29-.41.71-1.06.17-.24.26-.37.82-1.21.44-.66,1.94-2.9.48-.62,1.89-2.84a5.2,5.2,0,0,1,.46.57"/><polygon class="cls-8" points="78.87 124.59 78.45 125.24 76.49 128.13 76.07 128.75 74.1 131.67 73.69 132.32 71.69 135.23 71.29 135.85 69.31 138.77 68.88 139.39 66.93 142.31 66.49 142.93 65.29 144.68 65.26 144.78 64.53 145.84 64.1 146.47 62.14 149.38 61.72 150 53.32 162.46 52.72 162.06 61.29 149.38 61.72 148.73 63.67 145.84 64.1 145.19 66.05 142.28 66.49 141.65 67.14 140.68 68.44 138.77 68.88 138.12 70.87 135.19 71.26 134.58 73.22 131.67 73.69 131.04 75.64 128.13 76.07 127.5 78.02 124.59 78.45 123.94 78.87 124.59"/><polygon class="cls-8" points="81.25 128.13 80.83 128.75 78.87 131.67 78.45 132.29 76.49 135.19 76.07 135.83 74.08 138.74 73.69 139.36 71.69 142.28 71.26 142.93 69.31 145.84 68.88 146.45 66.93 149.35 66.49 150 64.53 152.89 64.1 153.54 63.67 154.16 57.2 163.73 56.61 163.36 63.25 153.51 64.1 152.26 66.05 149.38 66.49 148.73 68.44 145.81 68.88 145.19 70.84 142.28 71.26 141.65 73.25 138.74 73.64 138.12 75.61 135.19 76.07 134.55 78.02 131.64 78.45 131.04 80.4 128.13 80.83 127.48 81.25 128.13"/><polygon class="cls-8" points="86.07 128.13 85.6 128.78 83.67 131.67 83.22 132.32 81.25 135.19 80.83 135.83 78.87 138.74 78.45 139.39 76.49 142.28 76.05 142.9 74.1 145.81 73.64 146.47 71.69 149.38 71.26 149.98 69.31 152.89 68.88 153.54 67.32 155.83 66.93 156.43 66.49 157.05 61.09 165.03 60.52 164.64 66.05 156.46 66.49 155.8 66.66 155.55 68.44 152.92 68.88 152.26 70.84 149.35 71.26 148.73 73.22 145.84 73.69 145.19 75.64 142.28 76.05 141.65 78.02 138.74 78.45 138.12 80.4 135.19 80.83 134.58 82.79 131.67 83.25 131.01 85.17 128.13 85.63 127.5 86.07 128.13"/><polygon class="cls-8" points="90.84 128.13 90.39 128.75 88.45 131.67 87.98 132.29 87.98 132.32 86.07 135.19 85.63 135.83 83.65 138.74 83.25 139.36 81.25 142.28 80.83 142.93 78.87 145.84 78.45 146.45 76.49 149.35 76.07 150 74.08 152.92 73.69 153.54 71.69 156.46 71.26 157.08 70.87 157.67 69.31 159.96 68.88 160.61 65.02 166.34 64.41 165.93 68.44 159.96 68.88 159.34 70.22 157.32 70.84 156.46 71.26 155.8 73.22 152.89 73.64 152.26 75.61 149.35 76.07 148.73 78.02 145.81 78.45 145.19 80.4 142.28 80.83 141.63 82.79 138.74 83.22 138.12 85.19 135.19 85.63 134.55 87.57 131.67 87.98 131.01 89.98 128.13 90.39 127.48 90.84 128.13"/><polygon class="cls-8" points="97.87 124.76 97.57 125.21 95.6 128.13 95.17 128.75 93.22 131.64 92.78 132.29 90.84 135.19 90.37 135.82 88.45 138.74 87.98 139.36 86.03 142.28 85.63 142.9 83.65 145.81 83.22 146.45 81.25 149.35 80.83 149.97 78.87 152.89 78.45 153.51 78.45 153.54 76.46 156.46 76.07 157.05 74.52 159.31 74.08 159.96 73.64 160.62 71.69 163.5 71.26 164.15 68.9 167.63 68.34 167.23 70.84 163.53 71.29 162.88 73.22 159.99 73.67 159.34 73.87 159.02 75.64 156.46 76.07 155.83 78.02 152.92 78.45 152.27 80.4 149.35 80.83 148.73 82.79 145.84 83.25 145.19 85.2 142.28 85.63 141.65 87.59 138.74 88.02 138.12 89.98 135.23 90.39 134.58 92.36 131.66 92.78 131.04 94.74 128.13 95.17 127.51 97.17 124.59 97.3 124.36 97.87 124.76"/><polygon class="cls-8" points="100.4 128.13 99.98 128.75 98.02 131.67 97.57 132.32 95.63 135.19 95.17 135.83 93.22 138.74 92.78 139.39 90.84 142.28 90.39 142.93 88.45 145.84 88.02 146.45 86.07 149.35 85.63 150 83.65 152.92 83.25 153.51 83.25 153.54 81.25 156.46 80.83 157.08 78.87 159.99 78.45 160.61 78.42 160.68 78.39 160.68 76.49 163.53 76.07 164.15 74.1 167.04 73.69 167.69 72.82 168.93 72.23 168.54 73.22 167.04 73.69 166.41 75.61 163.53 76.07 162.88 77.67 160.44 78.02 159.96 78.45 159.34 80.4 156.46 80.83 155.8 82.79 152.89 83.22 152.26 85.19 149.35 85.63 148.73 85.63 148.7 87.59 145.81 87.98 145.19 89.98 142.28 90.39 141.63 92.36 138.74 92.78 138.12 94.74 135.19 95.17 134.55 97.13 131.67 97.57 131.04 99.54 128.13 99.95 127.5 100.4 128.13"/><polygon class="cls-8" points="102.79 131.67 102.36 132.29 100.37 135.19 99.95 135.85 97.99 138.74 97.57 139.36 95.6 142.28 95.17 142.93 93.22 145.81 92.8 146.45 90.84 149.35 90.39 149.98 88.45 152.89 87.98 153.54 86.03 156.46 85.63 157.05 83.65 159.96 83.22 160.61 82.51 161.66 81.25 163.53 80.83 164.15 78.87 167.04 78.45 167.69 76.72 170.24 76.14 169.84 78.02 167.07 78.45 166.44 80.4 163.53 80.83 162.91 81.74 161.56 81.78 161.56 82.79 159.99 83.25 159.34 85.2 156.46 85.63 155.83 85.63 155.8 87.59 152.92 88.02 152.26 89.98 149.35 90.39 148.73 92.36 145.84 92.8 145.19 94.74 142.31 95.17 141.65 97.17 138.74 97.6 138.12 99.54 135.23 99.98 134.58 101.94 131.67 102.36 131.04 102.79 131.67"/><path class="cls-8" d="M107.51,131.77l-1.89,2.78-.44.68-.43.62-2,2.92-.43.62-2,2.89-.42.65-2,2.93-.45.61-1.94,2.88-.46.65-2,2.92-.44.62-1.94,2.92-.45.62L88.45,160l-.43.62-1.15,1.68-.8,1.24-.44.62-2,2.92-.4.62-2,2.91-.41.66-.21.28-.59-.4.36-.54.44-.65,2-2.9.43-.61,2-2.91.45-.64.46-.69,1.5-2.24.39-.59v0l2-2.88.41-.66,2-2.91.42-.62,2-2.92.43-.62,2-2.87.44-.67,2-2.91.44-.63,2-2.88v0l.42-.62,2-2.93.42-.61.48-.73,1.55-2.31a4.81,4.81,0,0,0,.73.23"/><path class="cls-8" d="M111.19,133.36l-3.47,5.12-.16.29-.43.59-1.95,2.92-.43.65-2,2.88-.43.64-2,2.9L100,150,98,152.89l-.45.65-2,2.92-.43.59v0l-2,2.88-.44.66L91.87,162l-1,1.58-.45.62-1.94,2.9-.47.64-2,2.91-.4.63-1.11,1.6-.59-.39,1.25-1.87.42-.62,2-2.9.41-.62,2-2.93.39-.61.55-.8h0L92.36,160l.42-.62,2-2.91.43-.63,2-2.91.44-.62v0l2-2.89.43-.62,2-2.92.42-.65,1.94-2.85v0l.45-.63,2-2.91.42-.62.23-.34,3.21-4.75.62.33"/><path class="cls-8" d="M114.57,135.46l-4.63,6.85-.17.27-.23.35-2,2.91-.43.63-1.95,2.91-.43.62-2,2.92-.43.62-2,2.92-.42.62L98,160l-.42.63,0,.06h0l-1.9,2.85-.46.62-2,2.92-.44.62-1.94,2.91-.45.66-1.94,2.88-.61-.4L90,170.6l.41-.65,2-2.9.42-.61,2-2.91.43-.64L96.45,161h0l.69-1,.4-.59v0l2-2.88.44-.66,2-2.88.42-.66,2-2.91.42-.62,2-2.89.42-.65,2-2.91.31-.46.11-.17L114,135l.56.43"/><path class="cls-8" d="M117.62,138l-5.29,7.8-.41.63-.29.42-1.69,2.49-.43.62-2,2.89-.43.65-1.95,2.92-.43.62-.77,1.13L102.79,160l-.43.65-2,2.92-.42.62-2,2.9-.45.64-4.47,6.62h-.85l4.88-7.26.44-.64,2-2.91.41-.61,2-2.93.43-.62.35-.53h0l1.61-2.35.42-.66,2-2.91.42-.63,2-2.88.42-.65,1.79-2.63.18-.29.43-.62,5.19-7.68c.17.18.34.36.52.53"/><path class="cls-9" d="M129.88,173.88s-.38.15-1,.43H47.08l-1-.43c0-16.57,4.27-26.82,9.31-33.15a3,3,0,0,1,.46-.56,29.51,29.51,0,0,1,2.28-2.5,4.33,4.33,0,0,0,.53-.51,22.39,22.39,0,0,1,2.57-2,2.6,2.6,0,0,1,.58-.4A22.44,22.44,0,0,1,64.6,133c.23-.12.43-.22.66-.32a27.32,27.32,0,0,1,2.91-1.22.52.52,0,0,0,.19-.06c.25-.05.47-.15.7-.21a1.29,1.29,0,0,1,.21-.05,16.24,16.24,0,0,1,1.8-.39h.2a3.61,3.61,0,0,0,.55-.12,1.88,1.88,0,0,0,.51-.23h.14s-.75,1.23-1.84,3.11a4.33,4.33,0,0,1-.39.69c-.51,1-1.12,2.08-1.74,3.29a5.21,5.21,0,0,0-.38.7c-.4.72-.78,1.46-1.15,2.24-.16.36-.36.73-.54,1.14-.11.22-.23.48-.34.72-.35.72-.7,1.44-1,2.15l0,.09c-.21.46-.4.88-.58,1.33-.11.3-.2.55-.31.81a24.4,24.4,0,0,0-1.18,4.1,10.19,10.19,0,0,0-.14,1.09,4.53,4.53,0,0,0,.17,1.48,1.8,1.8,0,0,0,.43.66,1.47,1.47,0,0,0,.54.34l.75.28c.41.16.77.33,1.2.52l.52.26c.2.08.44.2.67.28.88.5,1.84,1,2.9,1.52l.66.34,1.18.53c.4.2.8.38,1.25.58.21.09.42.17.6.26a6.76,6.76,0,0,0,.67.29c1,.38,2,.79,3.18,1.14.23.08.48.17.71.23h0s.06,0,.1,0c.34.11.71.19,1.06.31.71.17,1.43.36,2.19.53h0c.26,0,.49.09.75.12.53.11,1.08.2,1.63.29.32.05.63.11,1,.14s.67.09,1,.12l.8.08,1,.09H88l1.14-.09.78-.08c.35,0,.66-.06,1-.12h0c.32,0,.64-.09,1-.14.53-.09,1.08-.18,1.62-.29a6.17,6.17,0,0,0,.77-.15c.78-.14,1.49-.33,2.21-.53h0a8,8,0,0,0,1.06-.31h.09c.22-.06.46-.15.68-.23,1.15-.35,2.21-.76,3.22-1.14.21-.09.44-.21.67-.29a5,5,0,0,1,.55-.23h0l1.26-.61c.4-.17.79-.35,1.17-.53s.44-.23.64-.34h0c1-.52,2-1,2.94-1.49.2-.08.35-.2.52-.25h0a.09.09,0,0,1,.08-.06c.39-.21.76-.37,1.14-.55h0c.46-.2.85-.36,1.28-.51a1.51,1.51,0,0,0,.55-.34,1.2,1.2,0,0,0,.4-.69,4.41,4.41,0,0,0,.11-1.93,6.88,6.88,0,0,0-.18-1v0a23.1,23.1,0,0,0-1-3.64c-.12-.26-.2-.51-.32-.81-.19-.45-.4-.93-.6-1.42l0-.06c-.29-.68-.6-1.37-.93-2-.09-.26-.25-.52-.36-.77-.17-.41-.37-.78-.54-1.14-.38-.78-.75-1.52-1.14-2.24a5.21,5.21,0,0,0-.38-.7c-.61-1.18-1.21-2.3-1.75-3.27a7.14,7.14,0,0,1-.4-.71c-1.09-1.88-1.84-3.11-1.84-3.11a2.39,2.39,0,0,0,.44.18,2.53,2.53,0,0,0,.91.17,15.37,15.37,0,0,1,2.06.44c.23.09.46.16.73.24a26.64,26.64,0,0,1,3.08,1.25c.21.12.44.23.62.35a29.63,29.63,0,0,1,2.85,1.68,7.05,7.05,0,0,0,.57.43,24,24,0,0,1,2.54,2.08c.18.17.34.34.53.51.69.67,1.36,1.42,2,2.21a5.28,5.28,0,0,1,.47.57c5.12,6.28,9.5,16.57,9.5,33.37"/><path class="cls-10" d="M88.08,134.78c9.76,0,15.38-4,15.38-4a29.34,29.34,0,0,1-2.44-5.38,5.65,5.65,0,0,0-1.48-2.86s-3.45,2.58-11.5,2.38c-8,.2-11.49-2.38-11.49-2.38a5.51,5.51,0,0,0-1.47,2.86,29.34,29.34,0,0,1-2.44,5.38s5.62,4,15.36,4h.08Z"/><path class="cls-11" d="M42.61,85c0,9.9,4.49,11.49,9.77,27.29C56.74,125.43,48,123.94,48,123.94s13.39,9.09,11.9-38c-.31-9.65,25.4-24.21,28.77-25.81S93.12,59,96,55.3s3.83-19.62,3.83-19.62c-5.27-1.08-24.42-1.75-33.69,3.58S47.1,57.07,44.22,70Z"/><path class="cls-11" d="M50.31,93.14c0,9.9,4.49,11.48,9.75,27.29C64.42,133.54,55.67,132,55.67,132s13.39,9.09,11.89-38C67.26,84.35,93,69.78,96.32,68.2s4.48-1.12,7.36-4.8,3.83-19.62,3.83-19.62C102.25,42.7,83.09,42,73.83,47.37s-19,17.81-21.9,30.73Z"/><path class="cls-11" d="M133.22,85c0,9.9-4.49,11.49-9.75,27.29-4.37,13.11,4.39,11.62,4.39,11.62S114.48,133,116,85.89c.3-9.65-25.41-24.21-28.77-25.81S82.73,59,79.86,55.3,76,35.68,76,35.68c5.27-1.08,24.43-1.75,33.71,3.58s19,17.81,21.88,30.73Z"/><path class="cls-11" d="M125.53,93.14c0,9.9-4.49,11.48-9.74,27.29-4.39,13.11,4.38,11.61,4.38,11.61s-13.39,9.09-11.89-38c.31-9.65-25.42-24.22-28.76-25.8S75,67.08,72.16,63.4s-3.84-19.62-3.84-19.62C73.6,42.7,92.76,42,102,47.37S121,65.18,123.9,78.1Z"/><path class="cls-12" d="M87.8,20.3c-42.27-.07-42.52,33.78-40.63,55.85-2.9-5.18-11.47-3.26-10.77,5C37.07,89.12,49.19,92.73,49,91.85c3.47,18,23.39,28,38.79,29.38a1.77,1.77,0,0,0,.32,0V20.32l-.32,0"/><path class="cls-7" d="M38.52,77.67a4.21,4.21,0,0,1,6.2-1.11,3.27,3.27,0,0,1,1,3.69c-.29,1-1.5,1.13-1.2,2.76a2.87,2.87,0,0,0,1.71,2.35c.51.42,1.15.73,1.47,1.5a4,4,0,0,1,.18,2.3c-.33,1.31-2.35.26-3.69-.31a25.62,25.62,0,0,1-4.45-3.42c-1.79-1.93-2.63-5.62-1.22-7.76"/><path class="cls-13" d="M88,20.3c42.26-.07,42.5,33.78,40.62,55.85,2.9-5.18,11.47-3.26,10.78,5-.68,7.93-12.79,11.54-12.63,10.66-3.45,18-23.37,28-38.77,29.38a2,2,0,0,1-.34,0V20.32l.34,0"/><path class="cls-7" d="M137.6,77.67a4.21,4.21,0,0,0-6.2-1.11,3.26,3.26,0,0,0-1,3.69c.31,1,1.49,1.13,1.2,2.76a2.9,2.9,0,0,1-1.72,2.35c-.49.42-1.13.73-1.45,1.5a3.91,3.91,0,0,0-.19,2.3c.34,1.31,2.35.26,3.7-.31a25.12,25.12,0,0,0,4.43-3.42c1.82-1.93,2.66-5.62,1.24-7.76"/><path class="cls-4" d="M87.58,29.89c-14.12,0-24.44,3.87-30.7,11.53-8.73,10.7-8.4,27-5.19,38.76,1,3.58,1.5,13.22,2.17,16.78,3.06,15.87,21.54,24.3,33.72,24.3h.32V29.89h-.32"/><path class="cls-5" d="M118.21,41.43C112,33.84,101.8,30,87.9,29.89v91.36c13.91-.14,30.53-9.39,33.39-24.29.67-3.54,1.18-13.2,2.16-16.78,3.21-11.71,3.53-28-5.24-38.75"/><path class="cls-14" d="M95,106.92s-3.18,3.41-7.13,3.41S81,107,81,107a45.89,45.89,0,0,1,6.93-.51,59.33,59.33,0,0,1,7.13.43"/><path class="cls-15" d="M89.91,105.37a1.85,1.85,0,0,0-2,1.53,1.82,1.82,0,0,0-2-1.53c-1.13,0-5.12,1.57-5.12,1.57s3.91.4,5,.4,2.09.43,2.1-.39c0,.82.82.51,1.94.51s5.19-.52,5.19-.52-4-1.57-5.1-1.57"/><path class="cls-16" d="M102.73,110.26a1,1,0,0,1-2,0,1,1,0,1,1,2,0"/><path class="cls-11" d="M132.49,63.33h0a119.09,119.09,0,0,0-2.9-12.78c5.51,4.35,13.69,21.22,13.69,21.22-2.29-14.92-16.35-32.1-16.35-32.1v0c-5.6-17-30.47-19.58-30.47-19.58a22,22,0,0,0-12.66-4c-6.89.09-18.13,1.8-27.56,15.43-37.49,54.24,4.62,84.77,4.62,84.77l9,6s-6.58-14.91-6.71-23.54C62.7,68.16,81.43,51.34,91.34,44.58c1.56,8.21,5,20.59,11.86,25.56,0,0-11.11-19.48-5.85-26.15.21,4.17,1.3,11.69,6.23,15.52,7,5.49,11.15,10.85,12.7,17.44s2.55,10,1.16,19.45-6.69,25-6.69,25l7.72-6.21s7.72-7.48,12.25-28.68c1.34,9.18,2.21,17.24,2.21,17.24,1.79-11.19.65-28.33,0-36.2C132.82,66.09,132.68,64.7,132.49,63.33Z"/></g></g></svg>