<svg xmlns="http://www.w3.org/2000/svg" xmlns:xlink="http://www.w3.org/1999/xlink" viewBox="0 0 174.37 174.29"><defs><style>.cls-1{fill:none;}.cls-2{fill:#895a59;}.cls-3{fill:#442c38;}.cls-4{fill:#dcc5a1;}.cls-5{fill:#edd9b4;}.cls-6{clip-path:url(#clip-path);}.cls-7{fill:#bc9f82;}.cls-8{fill:#ccad8b;}.cls-9{fill:#d9bf9f;}.cls-10{fill:#453514;}.cls-11{fill:#fff;}</style><clipPath id="clip-path"><rect class="cls-1" x="73.41" y="117.34" width="21.05" height="12.4"/></clipPath></defs><title>Ativo 93ac</title><g id="Camada_2" data-name="Camada 2"><g id="Avatares"><rect class="cls-2" width="174.37" height="174.29" rx="39.4"/><path class="cls-3" d="M40.61,74.62v55.13h0c.85,2.71,20,21.68,43.57,21.68s42.72-19,43.56-21.68h0V74.62Z"/><path class="cls-4" d="M83.88,104.62v69.65h-38l-.94-.39c0-37.37,23.26-40.15,23.26-40.15,2.33,0,3.81-3,4.8-7.48.17-.71.3-1.42.41-2.19.22-1.27.39-2.62.53-4,.08-.84.16-1.69.24-2.57.34-4.28.45-8.92.45-13.33,0,0,5.12.5,9.25.5"/><path class="cls-5" d="M123,173.88s-.35.14-.91.41H83.88V104.62H84c4.14,0,9.28-.5,9.28-.5,0,4.38.11,9,.46,13.22.08.86.16,1.71.24,2.53.15,1.46.31,2.84.53,4.14v0c.08.59.19,1.12.3,1.65,1,4.81,2.52,8,4.92,8,0,0,23.28,2.78,23.28,40.15"/><g class="cls-6"><path class="cls-7" d="M94.46,124v0a12.28,12.28,0,0,1-10.53,5.71h-.05c-6,0-9.56-4.41-10.47-5.68.22-1.27.39-2.62.53-4,.08-.84.16-1.69.24-2.57a41.88,41.88,0,0,0,9.59,1.25h.11a39.58,39.58,0,0,0,9.81-1.36c.08.86.16,1.71.24,2.53.15,1.46.31,2.84.53,4.14"/></g><path class="cls-8" d="M70.08,168.36a2,2,0,1,1-2-2,2,2,0,0,1,2,2"/><path class="cls-8" d="M101.62,168.36a2,2,0,1,1-2-2,2,2,0,0,1,2,2"/><path class="cls-8" d="M84,24.72c-40.27,0-40.5,33.59-38.71,55.55-2.75-5.2-10.92-3.59-10.26,4.61.65,7.92,12.19,12,12,11.08,3.32,18.09,22.25,28.55,37,28.55l.29,0V24.72H84"/><path class="cls-7" d="M37.6,81.42a3.81,3.81,0,0,1,5.82-1.1A3.28,3.28,0,0,1,44.36,84c-.27,1-1.4,1.13-1.12,2.74A2.89,2.89,0,0,0,44.84,89c.48.42,1.07.71,1.37,1.48a4,4,0,0,1,.18,2.26c-.31,1.29-2.21.27-3.47-.31a23.88,23.88,0,0,1-4.17-3.37c-1.69-1.9-2.47-5.55-1.15-7.66"/><path class="cls-9" d="M84.18,24.72c40.27,0,40.5,33.59,38.71,55.55,2.75-5.2,10.93-3.59,10.25,4.61-.64,7.92-12.19,12-12,11.08-3.29,18.09-22.23,28.55-36.93,28.55-.09,0-.2,0-.3,0V24.72h.3"/><path class="cls-7" d="M130.58,81.42a3.81,3.81,0,0,0-5.82-1.1,3.29,3.29,0,0,0-1,3.63c.28,1,1.4,1.13,1.13,2.74A2.82,2.82,0,0,1,123.32,89c-.46.42-1.06.71-1.35,1.48a4,4,0,0,0-.18,2.26c.31,1.29,2.19.27,3.47-.31a23.46,23.46,0,0,0,4.16-3.37c1.7-1.9,2.48-5.55,1.16-7.66"/><path class="cls-4" d="M83.65,34.19c-13.25,0-23,3.83-28.82,11.41C46.64,56.16,46.94,72.31,50,83.88c.92,3.56,1.39,13.09,2,16.61,2.86,15.67,20.22,24,31.65,24l.29,0V34.19h-.29"/><path class="cls-5" d="M112.38,45.61C106.56,38.08,97,34.26,83.94,34.19v90.29c13-.14,28.65-9.28,31.33-24,.63-3.52,1.12-13,2-16.61,3-11.55,3.31-27.66-4.92-38.27"/><path class="cls-10" d="M127.54,77.1c-.8.77-3.51.8-6.05,5.87-1.56,3.1-2.75,3.4-2.75,3.4s2-12.67,2-16.19-11.27-29.59-17.55-31.7-12,4.94-18.75,4.94h-.52c-6.64-.14-12.53-7-18.74-4.94S47.58,66.66,47.58,70.18s2,16.19,2,16.19-2-.83-3.46-4c-2.56-5.42-4.44-4.58-5.33-5.35-1.68-22,3.57-51.4,43.06-51.4H84c39.7,0,45.23,29.48,43.5,51.44"/><path class="cls-11" d="M129.45,54.72c-1.59-4.56-2.32-6.38-2.51-10.15s-2.62-7.25-5.8-10.68a35.23,35.23,0,0,0-13-9A72.25,72.25,0,0,0,84.29,19.5v0a.78.78,0,0,1-.35,0v0a72.31,72.31,0,0,0-23.88,5.34,35,35,0,0,0-13,9.05c-3.18,3.43-5.6,6.93-5.8,10.68s-.94,5.59-2.52,10.15,2.35,6.18,1.56,9.75,0,12.86,0,12.86c.56-.26,7.85-4.86,9.46-6.43C55.54,65.31,62,57.29,84.12,57c21.54.32,28.9,11.7,34.84,17.43,1.86,1.8,8.32,2.67,8.94,3,0,0,.79-9.29,0-12.86s3.15-5.18,1.55-9.75"/><path class="cls-3" d="M85.93,120.58c-.29-1-.45-2.16-1-2.68a12,12,0,0,1-1.66,1.59,12.42,12.42,0,0,1-1.55-1.61,5.56,5.56,0,0,0-1.46,2.46,8.52,8.52,0,0,1-.3-1.24A9.83,9.83,0,0,0,78.3,122a3.26,3.26,0,0,0,.7,2.36,5.45,5.45,0,0,0,.92-.62c.4,2.87,3.21,5.14,3.21,5.14s2.83-2.12,3.41-4.93a5.17,5.17,0,0,0,.65.39,3,3,0,0,0,.7-2.36,8.94,8.94,0,0,0-1.63-3.22s.08,1.78-.33,1.84"/></g></g></svg>