<svg xmlns="http://www.w3.org/2000/svg" viewBox="0 0 174.67 174.58"><defs><style>.cls-1{fill:#a1556b;}.cls-2{fill:#dcc5a1;}.cls-3{fill:#edd9b4;}.cls-10,.cls-4{fill:#bc9f82;}.cls-4{opacity:0.7;}.cls-5{fill:#d8cc95;}.cls-6{fill:#536d40;}.cls-7{fill:#4b6439;}.cls-8{fill:#3b4e29;}.cls-9{fill:#ccad8b;}.cls-11{fill:#d9bf9f;}.cls-12{fill:#3c1c2b;}.cls-13{fill:#b47070;}.cls-14{fill:#c17874;}</style></defs><title>Ativo 125ac</title><g id="Camada_2" data-name="Camada 2"><g id="Avatares"><rect class="cls-1" width="174.67" height="174.58" rx="39.41"/><path class="cls-2" d="M86.11,109.6v65H50.67a6.71,6.71,0,0,0-.9-.38c0-.67,0-1.31,0-1.9.57-25.42,13-32.75,18.82-34.81a13.88,13.88,0,0,1,2.86-.74,3.29,3.29,0,0,0,.72-.1,3.33,3.33,0,0,0,1.64-1.34s0,0,0-.05a15.67,15.67,0,0,0,2.06-5.5c.15-.64.27-1.31.38-2,.19-1.21.35-2.45.5-3.77,0-.78.15-1.57.22-2.4.32-4,.42-8.33.42-12.44C77.49,109.12,82.26,109.6,86.11,109.6Z"/><path class="cls-3" d="M122.56,174.2a5.66,5.66,0,0,0-.85.38H86.11v-65h.08c3.86,0,8.65-.48,8.65-.48,0,4.09.08,8.38.42,12.34,0,.8.15,1.59.22,2.36.16,1.36.28,2.64.48,3.86v0c.1.54.2,1,.3,1.53a20.2,20.2,0,0,0,1.14,4c.65,1.65,1.47,2.82,2.47,3.24a2,2,0,0,0,1,.25S122.56,139.32,122.56,174.2Z"/><path class="cls-4" d="M96,127.67v0A11.46,11.46,0,0,1,86.15,133H86.1a12.33,12.33,0,0,1-9.76-5.3c.2-1.19.37-2.46.49-3.76.08-.8.15-1.59.23-2.41a38.14,38.14,0,0,0,9,1.16h.09a36.77,36.77,0,0,0,9.15-1.25c.08.79.16,1.58.23,2.34C95.63,125.17,95.77,126.46,96,127.67Z"/><path class="cls-5" d="M98.92,174.58h22.87a6.44,6.44,0,0,1,.91-.38c-.06-.67-.06-1.31-.06-1.9.06-5.53,1.69-8.48-.37-14-2.29-6.14-.6-5.94-4.43-12.49-2.71-4.62-9.39-7.1-14-8.32a45.18,45.18,0,0,0-4.83-1S98.18,159,98.92,174.58Z"/><path class="cls-5" d="M73.53,174.58H50.67a6.71,6.71,0,0,0-.9-.38c0-.67,0-1.31,0-1.9,0-5.53-1.69-8.48.38-14,2.28-6.14.58-5.94,4.42-12.49,2.71-4.62,9.4-7.1,14-8.32a44.63,44.63,0,0,1,4.83-1S74.29,159,73.53,174.58Z"/><path class="cls-6" d="M78.79,132.07c-.27.12-4,1.86-4,1.88-.56.43-7.57,3.63-8.12,4.13-2.72,2.3-.31,6.85-2.26,9.39-8.3,10.79-11.73,16.73-11,27.11H85.79v-35.4Z"/><path class="cls-7" d="M92.66,132.07c.27.12,4,1.86,4,1.88.55.43,7.55,3.33,8.09,3.83,2.73,2.3.33,7.15,2.28,9.69,8.3,10.79,11.73,16.73,11,27.11H85.66v-35.4Z"/><path class="cls-8" d="M97.46,131.52c-1.14-5.06-1.66-4.65-1.66-4.65s-.17-.21.13,1.29c.27,1.32-7,3.18-9.26,3.45h0l-.31,0h-.27l-.07,0h0c-2.38-.26-10.12-2.13-9.86-3.45.29-1.5.11-1.29.11-1.29s-.48-.41-1.55,4.65a13.81,13.81,0,0,1-1,3.26,27.94,27.94,0,0,0,5,2.44c5.25,1.74,7,9.26,7,9.26l0-.16a1.08,1.08,0,0,0,0,.16s1.83-7.52,7.42-9.26a30.18,30.18,0,0,0,5.35-2.44A13.72,13.72,0,0,1,97.46,131.52Z"/><path class="cls-9" d="M86.21,35.07c-37.55,0-37.77,31.32-36.1,51.82-2.57-4.86-10.18-3.36-9.57,4.29.6,7.38,11.38,11.2,11.22,10.33,3.08,16.88,20.75,26.61,34.45,26.61h.28v-93Z"/><path class="cls-10" d="M42.94,87.94a3.58,3.58,0,0,1,5.43-1,3.11,3.11,0,0,1,.88,3.41c-.26,1-1.31,1.05-1,2.55A2.67,2.67,0,0,0,49.71,95,3.44,3.44,0,0,1,51,96.41a3.69,3.69,0,0,1,.16,2.11c-.28,1.22-2.05.25-3.24-.28A22.7,22.7,0,0,1,44,95.09C42.44,93.32,41.71,89.92,42.94,87.94Z"/><path class="cls-11" d="M86.39,35.07c37.55,0,37.77,31.32,36.1,51.82,2.57-4.86,10.19-3.36,9.57,4.29-.61,7.38-11.37,11.2-11.22,10.33-3.08,16.88-20.75,26.61-34.45,26.61H86.1v-93Z"/><path class="cls-10" d="M129.65,87.94a3.57,3.57,0,0,0-5.42-1,3.13,3.13,0,0,0-.88,3.41c.26,1,1.31,1.05,1.06,2.55A2.67,2.67,0,0,1,122.9,95a3.39,3.39,0,0,0-1.27,1.37,3.78,3.78,0,0,0-.16,2.11c.28,1.22,2,.25,3.23-.28a22.38,22.38,0,0,0,3.89-3.15C130.17,93.32,130.89,89.92,129.65,87.94Z"/><path class="cls-2" d="M85.89,43.89c-12.36,0-21.4,3.58-26.88,10.64-7.64,9.85-7.35,24.91-4.53,35.72.86,3.3,1.3,12.2,1.89,15.47,2.67,14.62,18.86,22.4,29.52,22.4h.28V43.9Z"/><path class="cls-3" d="M112.7,54.55c-5.43-7-14.37-10.59-26.53-10.65v84.21c12.17-.13,26.71-8.66,29.21-22.39.59-3.27,1-12.17,1.9-15.47C120.09,79.47,120.37,64.43,112.7,54.55Z"/><path class="cls-12" d="M124.35,61.31a52.17,52.17,0,0,0-3.43-13.45c-2.75-6-7.61-9.46-14.78-12.82,0-.14,0-.27,0-.4a17.22,17.22,0,0,0-.6-4.39h7a1.87,1.87,0,1,0,0-.58h-7.15C103,21.76,95.06,15.94,85.6,15.94S68.17,21.76,65.79,29.67H48.33a1.87,1.87,0,1,0,0,.58H65.64A16.85,16.85,0,0,0,65.12,33C51.2,36.73,45.85,52.6,44.75,59.8c-.07.52-.15,1-.22,1.51C43,72.18,44.45,76.66,45.69,79.1A17.11,17.11,0,0,1,47,81.67c.64,2.58,1.36,3.42,2.66,6.15a8.54,8.54,0,0,1,2.58,3.54c1.19,3.06,1.64,2.55,1.64,2.55S52.21,83.08,52,79.1a4.37,4.37,0,0,1,0-.6c0-1.93.89-11.62,7.35-17.19a10.76,10.76,0,0,1,1-.79c5.45-4,14.72-2.33,15.74-2.33.2,0,2.31,1.61,5.34,3.12s6.71,2.87,10.44,2.7c23.17-1.17,28.05,11.2,28.57,13.78,0,.41-.08.86-.1,1.31-.28,3.2-.62,6.91-.87,9.41-.43,3-.79,5.4-.79,5.4s.47.51,1.64-2.55a8.27,8.27,0,0,1,2.15-3.17,35.53,35.53,0,0,1,1.94-6.52A9.44,9.44,0,0,0,125,79.1a48.16,48.16,0,0,0,.44-5.87A100.41,100.41,0,0,0,124.35,61.31Z"/><path class="cls-13" d="M95.55,110.42s-4.17,4.45-9.32,4.45-9.07-4.35-9.07-4.35a59,59,0,0,1,9.07-.68A75.47,75.47,0,0,1,95.55,110.42Z"/><path class="cls-14" d="M88.88,108.37a2.42,2.42,0,0,0-2.65,2,2.41,2.41,0,0,0-2.63-2c-1.46,0-6.68,2-6.68,2s5.09.53,6.55.53,2.73.57,2.76-.5c0,1.08,1.08.66,2.52.66s6.8-.69,6.8-.69S90.34,108.37,88.88,108.37Z"/></g></g></svg>