<svg xmlns="http://www.w3.org/2000/svg" viewBox="0 0 174.99 174.92"><defs><style>.cls-1{fill:#5f1d6b;}.cls-2{fill:#dcc5a1;}.cls-3{fill:#edd9b4;}.cls-4,.cls-6{fill:#bc9f82;}.cls-4{opacity:0.7;}.cls-5{fill:#ccad8b;}.cls-7{fill:#d9bf9f;}.cls-8{fill:#5a4f51;}.cls-9{fill:#f8f7e0;}.cls-10{fill:#4f4e49;}.cls-11{fill:#bd2c62;}.cls-12{fill:#895a59;}.cls-13{fill:#403836;}</style></defs><title>Ativo 116ac</title><g id="Camada_2" data-name="Camada 2"><g id="Avatares"><rect class="cls-1" width="174.99" height="174.92" rx="39.35"/><path class="cls-2" d="M88.27,105.8v68.48H50.91l-.92-.39c0-36.73,22.87-39.48,22.87-39.48,2.28,0,3.75-2.92,4.72-7.36.15-.68.28-1.38.39-2.13.21-1.26.4-2.59.53-4,.08-.84.15-1.67.22-2.53.3-3.42.4-7.1.43-10.68,0-.81,0-1.62,0-2.42C79.17,105.31,84.2,105.8,88.27,105.8Z"/><path class="cls-3" d="M126.67,173.89s-.34.13-.88.39H88.27V105.8h.07c4.07,0,9.12-.49,9.12-.49,0,.94,0,1.88,0,2.82,0,3.41.16,6.91.41,10.17.08.84.16,1.68.24,2.48.16,1.44.32,2.8.53,4.07v0c.07.57.18,1.09.29,1.61,1,4.73,2.48,7.91,4.84,7.91C103.8,134.41,126.67,137.16,126.67,173.89Z"/><path class="cls-4" d="M98.67,124.86v0a12.08,12.08,0,0,1-10.35,5.61h0c-6,0-9.4-4.33-10.29-5.58.2-1.26.39-2.59.52-4,.08-.83.16-1.66.24-2.52a41.52,41.52,0,0,0,9.42,1.22h.11a38.76,38.76,0,0,0,9.64-1.33c.08.83.16,1.67.23,2.48C98.3,122.23,98.46,123.58,98.67,124.86Z"/><path class="cls-5" d="M88.38,27.27c-39.58,0-39.8,33-38,54.61-2.71-5.12-10.74-3.53-10.08,4.53.63,7.77,12,11.79,11.81,10.88,3.25,17.79,21.87,28.06,36.31,28.06l.3,0V27.27Z"/><path class="cls-6" d="M42.78,83a3.76,3.76,0,0,1,5.72-1.09,3.24,3.24,0,0,1,.92,3.58c-.27,1-1.37,1.12-1.1,2.69a2.8,2.8,0,0,0,1.59,2.29,3.66,3.66,0,0,1,1.33,1.46,4,4,0,0,1,.18,2.22c-.3,1.27-2.17.26-3.42-.31a23.37,23.37,0,0,1-4.09-3.31C42.25,88.66,41.48,85.07,42.78,83Z"/><path class="cls-7" d="M88.57,27.27c39.58,0,39.8,33,38.05,54.61,2.7-5.12,10.74-3.53,10.08,4.53-.64,7.77-12,11.79-11.82,10.88-3.25,17.79-21.86,28.06-36.31,28.06l-.3,0V27.27Z"/><path class="cls-6" d="M134.17,83a3.75,3.75,0,0,0-5.71-1.09,3.23,3.23,0,0,0-.93,3.58c.27,1,1.37,1.12,1.1,2.69A2.78,2.78,0,0,1,127,90.47a3.66,3.66,0,0,0-1.33,1.46,4,4,0,0,0-.18,2.22c.31,1.27,2.17.26,3.42-.31A23,23,0,0,0,133,90.53C134.71,88.66,135.47,85.07,134.17,83Z"/><path class="cls-2" d="M88,36.57c-13,0-22.55,3.77-28.32,11.21C51.66,58.17,52,74,54.94,85.43c.91,3.48,1.37,12.86,2,16.31,2.8,15.41,19.85,23.61,31.09,23.61l.3,0V36.58Z"/><path class="cls-3" d="M116.3,47.8c-5.73-7.39-15.15-11.16-28-11.22v88.75c12.82-.14,28.15-9.13,30.78-23.59.63-3.45,1.09-12.83,2-16.31C124.09,74.06,124.38,58.22,116.3,47.8Z"/><path class="cls-8" d="M111.33,111.51c-.59-2.09-2.92-1.45-7.2-2.93s-11.48-2.28-15.76-2.29h-.06c-4.28,0-11.51.81-15.77,2.29s-6.6.84-7.2,2.93c-.3,1.1.35,6,1,7,1.68,2.68,7.12,5.93,11.17,7.76,3,1.38,5.45,1.43,10.85,1.29,5.39.14,7.81.09,10.85-1.29,4-1.83,9.49-5.08,11.17-7.76C111,117.56,111.64,112.61,111.33,111.51Zm-8.06,1c-.53.71-3.89,3.09-7.88,4.89-.79.36-1.32.55-3.9.55-.87,0-1.82,0-2.92,0h-.49c-1.09,0-2,0-2.92,0-2.58,0-3.11-.19-3.9-.55-4-1.78-7.29-4.14-8-5.07a11,11,0,0,1,2.29-1,50.11,50.11,0,0,1,12.74-1.78h.26a50.19,50.19,0,0,1,12.5,1.78,11.61,11.61,0,0,1,2.27,1Z"/><path class="cls-9" d="M47.39,54.44c.5-6-6-3.35,1.74-12.22S62.07,28.33,68.05,26.41s13.19-6.7,24.14-5.74,16.93-2.87,22.65,5.26,7.72,8.88,10,18,9.7,16.11,1,15S47.39,54.44,47.39,54.44Z"/><path class="cls-10" d="M126.57,52.29c-2.7-1-9.41-3.08-15.26-5.13a13.79,13.79,0,0,0-2.37-.92c-8.84-2.5-9.26-6.54-22-5.58S57.43,49.77,50.79,52.15s-8.35,8.63-7.85,15.58a44,44,0,0,0,2.21,11.5C53.5,73.72,62.09,67,71.68,66.05s14-1.68,23.34,0,14.58.38,23.3,4.48c4.79,2.56,9.38,5.85,13.9,8.83a44.34,44.34,0,0,0,2.21-11.5C134.92,60.92,133.2,54.69,126.57,52.29Z"/><polygon class="cls-11" points="96.93 41.78 96.97 41.73 96.92 41.73 92.68 34.5 88.47 27.17 84.27 34.5 80.03 41.73 79.99 41.73 80.02 41.78 79.99 41.8 80.03 41.8 84.27 49.06 88.47 56.37 92.68 49.06 96.92 41.8 96.97 41.8 96.93 41.78"/><path class="cls-12" d="M126.67,173.89s-.34.13-.88.39H50.91l-.92-.39c0-35.87,21.8-39.32,22.84-39.48h0c1.73,0,3-1.66,3.91-4.39a4,4,0,0,0,1.62,1.42c1.34.73,3.87,1.43,10,1.43s10.12-1.3,11.22-2.32a1.57,1.57,0,0,0,.33-.53c.9,2.62,2.11,4.26,3.7,4.39h.21S126.67,137.16,126.67,173.89Z"/><path class="cls-13" d="M104.06,138.28c-5,3.55-8.33,4.36-15.84,4.36s-10.09-1-13.92-2.95c-2.69-1.34-4.61-2.38-2.65-4.1a10.7,10.7,0,0,0,1.18-1.18h0a18,18,0,0,0,1.52-2.32c1-1.49-1.83-2.35-.08-3.5a4.67,4.67,0,0,1,3.12-.91c-.65,2.34.34,3.42,1,3.76,1.34.73,3.87,1.43,10,1.43s9-1.3,10.33-2c1.11-.62.82-1.84.79-2.36a2.34,2.34,0,0,1-.16-.48s3.35.2,3.06,1.84a6.5,6.5,0,0,0,1.23,4.57c.16.21.29.42.45.61C105.24,136.55,107,136.19,104.06,138.28Z"/><path class="cls-13" d="M114.4,151.26c0,1.67-3.74,3-8.35,3s-8.34-1.35-8.34-3,3.73-3,8.34-3S114.4,149.59,114.4,151.26Z"/></g></g></svg>