<svg xmlns="http://www.w3.org/2000/svg" viewBox="0 0 175 174.92"><defs><style>.cls-1{fill:#751819;}.cls-2{fill:#dcc5a1;}.cls-3{fill:#edd9b4;}.cls-4,.cls-7{fill:#bc9f82;}.cls-4{opacity:0.7;}.cls-5{fill:#fdfbf8;}.cls-6{fill:#ccad8b;}.cls-8{fill:#d9bf9f;}.cls-9{fill:#b47070;}.cls-10{fill:#c17874;}.cls-11{fill:#442c38;}</style></defs><title>Ativo 141ac</title><g id="Camada_2" data-name="Camada 2"><g id="Avatares"><rect class="cls-1" width="175" height="174.92" rx="39.41"/><path class="cls-2" d="M87.48,109.7v65.2H51.91l-.87-.37c0-35,21.77-37.59,21.77-37.59H73a2.6,2.6,0,0,0,.47-.09c1.8-.51,3-3.13,3.84-6.91.15-.65.27-1.32.38-2,.2-1.19.37-2.45.5-3.77.07-.8.15-1.59.22-2.41.33-4,.42-8.36.42-12.48C78.82,109.23,83.62,109.7,87.48,109.7Z"/><path class="cls-3" d="M124.05,174.53s-.33.12-.85.37H87.48V109.7h.07c3.88,0,8.69-.47,8.69-.47,0,4.09.1,8.4.41,12.38.08.79.17,1.58.23,2.36.15,1.36.31,2.66.5,3.88v0c.08.55.18,1,.28,1.54.74,3.66,1.84,6.34,3.44,7.23a1.6,1.6,0,0,0,.37.15,2,2,0,0,0,.8.15S124.05,139.55,124.05,174.53Z"/><path class="cls-4" d="M97.37,127.86v0a11.46,11.46,0,0,1-9.84,5.34h-.06c-5.65,0-8.94-4.13-9.79-5.31.19-1.2.36-2.47.49-3.78.07-.8.15-1.6.23-2.42a38.91,38.91,0,0,0,9,1.17h.1a36.53,36.53,0,0,0,9.18-1.27c.08.8.15,1.59.23,2.37C97,125.34,97.17,126.63,97.37,127.86Z"/><path class="cls-5" d="M109.05,159.17c-5.44-3.6-5.65-8.3-5.65-11.64h-.05s0-.05,0-.07c-.05-.54,2.39-9.52,2.39-9.52a28.74,28.74,0,0,0-3.74-1.09c-2.46,1.37-2.51,9.12-2.51,9.12v0c-.4,2.88-.82,8.14-1.34,9.58-5.67,15.42-15.88,15.73-21.36,0a82.45,82.45,0,0,1-1.3-8.72h0s-.3-10.29-2.06-10a38.81,38.81,0,0,0-5.2,1.54c2.37,2,3.22,8.23,3.33,9.14h0c0,3.34-.21,8-5.64,11.64-10.45,6.93-7.43,13.33-5.72,15.72h54.54C116.48,172.5,119.49,166.1,109.05,159.17Z"/><path class="cls-6" d="M87.45,39.64c-37.13-.07-37.34,29.65-35.69,49-2.55-4.55-10.08-2.85-9.46,4.42.59,7,11.23,10.14,11.09,9.38,3,15.79,20.53,24.56,34.06,25.81h.28V39.64Z"/><path class="cls-7" d="M44.16,90a3.68,3.68,0,0,1,5.44-1,2.83,2.83,0,0,1,.89,3.23c-.27.94-1.31,1-1.05,2.43a2.54,2.54,0,0,0,1.5,2.07,3.46,3.46,0,0,1,1.28,1.32,3.39,3.39,0,0,1,.16,2c-.28,1.16-2.06.24-3.25-.26a23.8,23.8,0,0,1-3.89-3C43.65,95.15,42.92,91.9,44.16,90Z"/><path class="cls-8" d="M87.64,39.64c37.12-.07,37.33,29.65,35.68,49,2.54-4.55,10.08-2.85,9.47,4.42-.6,7-11.25,10.14-11.09,9.38-3,15.79-20.54,24.56-34.06,25.81h-.29V39.64Z"/><path class="cls-7" d="M131.18,90a3.68,3.68,0,0,0-5.44-1,2.86,2.86,0,0,0-.89,3.23c.27.94,1.31,1,1.06,2.43a2.55,2.55,0,0,1-1.51,2.07,3.37,3.37,0,0,0-1.27,1.32,3.32,3.32,0,0,0-.17,2c.29,1.16,2.06.24,3.25-.26a23.45,23.45,0,0,0,3.9-3C131.69,95.15,132.42,91.9,131.18,90Z"/><path class="cls-2" d="M87.26,48.05c-12.4,0-21.47,3.41-27,10.14-7.67,9.39-7.38,23.73-4.55,34,.86,3.16,1.3,11.64,1.9,14.75,2.68,13.93,18.92,21.35,29.62,21.35h.28V48.06Z"/><path class="cls-3" d="M114.16,58.2c-5.45-6.68-14.42-10.09-26.62-10.14V128.3c12.21-.12,26.81-8.25,29.32-21.34.59-3.11,1-11.59,1.9-14.75C121.58,82,121.86,67.62,114.16,58.2Z"/><path class="cls-9" d="M93.78,115.72s-2.8,3-6.25,3-6.1-2.92-6.1-2.92a39.43,39.43,0,0,1,6.1-.46A50.55,50.55,0,0,1,93.78,115.72Z"/><path class="cls-10" d="M89.29,114.34a1.61,1.61,0,0,0-1.76,1.36,1.63,1.63,0,0,0-1.77-1.36,25,25,0,0,0-4.49,1.38s3.42.36,4.4.36,1.84.38,1.86-.34c0,.73.72.44,1.68.44s4.57-.46,4.57-.46A24.77,24.77,0,0,0,89.29,114.34Z"/><path class="cls-11" d="M113.06,53.07c-3.28,5.74-2.37,12.22-13.46,16.48S83.54,75,71.44,80.11C44,91.75,58.09,118.71,58.09,118.71s-7.51-6.94-10.24-14.16S34.62,65.87,47.85,41C55.12,27.37,68.57,24.23,80.39,23.3s20.23.05,28.77,7.46c1.86,1.61,7.2,2,13.06,5.9,13.09,8.78,12,21.72,12.59,30A59.48,59.48,0,0,1,131.42,92c-2.56,7.23-18,28.56-18,28.56s12-26.06,5.33-43c-3.91-9.91-10.89-9.36-11.19-13.2S113.06,53.07,113.06,53.07Z"/></g></g></svg>