<svg xmlns="http://www.w3.org/2000/svg" xmlns:xlink="http://www.w3.org/1999/xlink" viewBox="0 0 175 174.92"><defs><style>.cls-1{isolation:isolate;}.cls-2{fill:#3f3859;}.cls-3{fill:#dcc5a1;}.cls-4{fill:#edd9b4;}.cls-5,.cls-7{fill:#bc9f82;}.cls-13,.cls-5{opacity:0.7;}.cls-6{fill:#ccad8b;}.cls-8{fill:#d9bf9f;}.cls-9{fill:#442c38;}.cls-10{fill:#fff;}.cls-11{fill:#82acc6;}.cls-12{fill:#a1556b;}.cls-13{mix-blend-mode:multiply;fill:url(#linear-gradient);}.cls-14{fill:none;}.cls-15{fill:#303135;}.cls-16{fill:#f7f7f8;}</style><linearGradient id="linear-gradient" x1="107.01" y1="173.43" x2="74.8" y2="146.34" gradientUnits="userSpaceOnUse"><stop offset="0" stop-color="#fff"/><stop offset="0.09" stop-color="#f8f8f8"/><stop offset="0.22" stop-color="#e4e4e4"/><stop offset="0.37" stop-color="#c4c4c4"/><stop offset="0.54" stop-color="#979797"/><stop offset="0.73" stop-color="#5d5d5d"/><stop offset="0.94" stop-color="#181818"/><stop offset="1"/></linearGradient></defs><title>Ativo 156ac</title><g class="cls-1"><g id="Camada_2" data-name="Camada 2"><g id="Avatares"><rect class="cls-2" width="175" height="174.92" rx="39.41"/><path class="cls-3" d="M87.72,106.63V174.9H50.48l-.92-.39c0-36.62,22.8-39.35,22.8-39.35,2.27,0,3.74-2.91,4.7-7.34.17-.68.29-1.38.4-2.13.2-1.26.39-2.58.51-4,.09-.83.17-1.67.25-2.53.33-4.19.43-8.75.43-13.06C78.65,106.14,83.67,106.63,87.72,106.63Z"/><path class="cls-4" d="M126,174.51s-.33.13-.88.39H87.72V106.63h.08c4,0,9.09-.49,9.09-.49,0,4.29.1,8.79.43,13,.08.84.17,1.66.25,2.47.15,1.43.31,2.79.51,4.06v0c.09.57.19,1.09.29,1.61,1,4.71,2.48,7.89,4.83,7.89C103.2,135.16,126,137.89,126,174.51Z"/><path class="cls-5" d="M98.08,125.63v0a12,12,0,0,1-10.31,5.59h0a13,13,0,0,1-10.26-5.56c.2-1.26.39-2.58.51-4,.09-.83.17-1.67.25-2.53a40.23,40.23,0,0,0,9.39,1.22h.11a38.37,38.37,0,0,0,9.6-1.32c.08.84.17,1.66.25,2.47C97.72,123,97.88,124.36,98.08,125.63Z"/><path class="cls-6" d="M87.82,28.34c-39.45,0-39.67,32.91-37.92,54.44-2.7-5.1-10.7-3.52-10,4.52C40.48,95,51.79,99.05,51.63,98.15c3.24,17.72,21.8,28,36.19,28h.31V28.34Z"/><path class="cls-7" d="M42.37,83.9a3.73,3.73,0,0,1,5.7-1.08A3.2,3.2,0,0,1,49,86.38c-.27,1-1.37,1.12-1.09,2.69a2.76,2.76,0,0,0,1.57,2.27,3.69,3.69,0,0,1,1.33,1.45A3.9,3.9,0,0,1,51,95c-.3,1.28-2.16.26-3.4-.3A23.77,23.77,0,0,1,43.5,91.4C41.83,89.54,41.07,86,42.37,83.9Z"/><path class="cls-8" d="M88,28.34c39.45,0,39.68,32.91,37.92,54.44,2.71-5.1,10.72-3.52,10.06,4.52-.64,7.74-12,11.75-11.79,10.85-3.23,17.72-21.79,28-36.19,28h-.3V28.34Z"/><path class="cls-7" d="M133.47,83.9a3.72,3.72,0,0,0-5.69-1.08,3.2,3.2,0,0,0-.92,3.56c.27,1,1.36,1.12,1.1,2.69a2.77,2.77,0,0,1-1.59,2.27,3.67,3.67,0,0,0-1.32,1.45,3.81,3.81,0,0,0-.17,2.22c.29,1.28,2.15.26,3.39-.3a23.77,23.77,0,0,0,4.08-3.31C134,89.54,134.78,86,133.47,83.9Z"/><path class="cls-3" d="M87.49,37.61c-13,0-22.48,3.76-28.24,11.18-8,10.35-7.72,26.17-4.76,37.52.9,3.48,1.37,12.83,2,16.27,2.81,15.35,19.81,23.53,31,23.53h.3V37.62Z"/><path class="cls-4" d="M115.65,48.8c-5.7-7.37-15.09-11.12-27.86-11.18V126.1c12.78-.14,28.06-9.1,30.69-23.52.62-3.44,1.09-12.79,2-16.27C123.42,75,123.72,59.19,115.65,48.8Z"/><path class="cls-9" d="M124.78,88.78c2.41-8.41,4.68-22.5,4.68-29s-1.23-15.4-3.85-19.41c-3.45-5.29-3.69-3.8-3.69-3.8S125.38,22.16,103.83,19a50.58,50.58,0,0,0-8.45-.25l2.93,3A60.65,60.65,0,0,0,72,20.14c-10.89,1.67-18.33,7-24.49,15.72-4.12,5.82-5.38,14.41-5.38,14.41l8-10.57a36.42,36.42,0,0,0-8,28.35c3.33,25.15,15,29.81,15,29.81S49.11,82.79,54.43,73c8.94-16.39,24.84-16.88,24.84-16.88A22.61,22.61,0,0,0,60.32,73.4c-.28,1.09.75-4.39,7.51-7,4.67-1.79,11.26-1.14,18.77-4.55,6.87-3.13,19-11.83,19-11.83S89.46,56,84.92,59.9a27.91,27.91,0,0,0-9.26,16.86s4.69-7.53,16.15-11.83c6.28-2.36,17.6-6.49,17.6-6.49s-8.38-.52-14.32,4.47c-4.78,4-3.43,12.72-2.23,14.31,0,0-.4-6.58,14-10.7,8.28-2.37,9.61-7,9.61-7a25.7,25.7,0,0,0,1.07,7.59c1.29,3.44,5,5.68,5.22,8.78.48,5.78-2.64,16.58-2.64,16.58Z"/><path class="cls-10" d="M67.67,33.71a38.08,38.08,0,0,0-3.73,2.74,34,34,0,0,0-3.29,3.17,22.1,22.1,0,0,0-4.79,7.44L54,46.19a3.82,3.82,0,0,1,1.31-1.34,8.22,8.22,0,0,1,1.36-.68,20.73,20.73,0,0,1,2.67-.87c1.76-.46,3.6-.78,5.18-1.17l2.17-.53-.7,2.1a43.23,43.23,0,0,1-2.63,5.95c-1,1.92-2,3.76-3.11,5.6l-1.92-1.62a42.39,42.39,0,0,1,6.55-4.29,38.4,38.4,0,0,1,7.17-3,29.33,29.33,0,0,1,7.66-1.4,20.12,20.12,0,0,1,7.6,1.18,23,23,0,0,0-7.5,0,32.08,32.08,0,0,0-7.14,2A54.32,54.32,0,0,0,66,51.38c-1.06.63-2.09,1.3-3.11,2s-2,1.44-2.94,2.19L54.63,60,58,54a90.85,90.85,0,0,0,5.61-11l1.47,1.58c-1.87.39-3.55.62-5.24,1a19.16,19.16,0,0,0-2.4.69,8.48,8.48,0,0,0-1,.47,2.31,2.31,0,0,0-.6.47l-4.28,4.31,2.37-5.18a23.76,23.76,0,0,1,5.82-7.62A28.74,28.74,0,0,1,67.67,33.71Z"/><path class="cls-9" d="M103.81,108.91a5.23,5.23,0,0,0-3.48-2.62s3.5,3.3-.69,4.42c0,0-1.79.5-2.4-2.12a5.07,5.07,0,0,0-5.33-3.74,6.19,6.19,0,0,0-4.1,1.75l-.18.05-.19-.05a6.19,6.19,0,0,0-4.1-1.75A5.08,5.08,0,0,0,78,108.59c-.61,2.62-2.4,2.12-2.4,2.12-4.19-1.12-.69-4.42-.69-4.42a5.2,5.2,0,0,0-3.48,2.62c-2.61,5.44,5.88,7.53,5.88,7.53a13,13,0,0,0,10.31-2.12,12.93,12.93,0,0,0,10.31,2.12S106.42,114.35,103.81,108.91Z"/><path class="cls-11" d="M104.16,135.35a2.64,2.64,0,0,1-1.43-.85,27.83,27.83,0,0,0-2.67-3.61,2.05,2.05,0,0,1-.25-.27l-.4,2.24-11.63,5.95-11.46-5.54-.57-2.65a.77.77,0,0,1-.16.15c-1.54,1.77-4.2,4.69-4.18,4.58-4.3,1-21.84,7-21.84,39.16l.91.39h74.63l.89-.39C126,142.37,108.47,136.34,104.16,135.35Z"/><path class="cls-12" d="M88,142.94a14.64,14.64,0,0,0-1.65,29.2l.5,0c.28,0,.58,0,.88,0H88l.56,0H89a12,12,0,0,0,1.22-.12,14.69,14.69,0,0,0,11.87-10.17,1.46,1.46,0,0,0,.07-.19l0-.13c.13-.43.23-.87.32-1.32s.13-.82.18-1.24h0a1.94,1.94,0,0,1,0-.24c0-.39,0-.79,0-1.19A14.66,14.66,0,0,0,88,142.94Z"/><path class="cls-13" d="M102.05,161.9a1.46,1.46,0,0,0,.07-.19l0-.13c.13-.43.23-.87.32-1.32s.13-.82.18-1.24h0a1.94,1.94,0,0,1,0-.24l-8.53-9-3.2,3.68-5.44-5.43,0,.71v1l1.27.87-1.36,4.46-4,2.26-.34,5.6,9.1,9.07A14.69,14.69,0,0,0,102.05,161.9Z"/><path class="cls-14" d="M94.2,156.54c0,.1-.07.19-.14.19h0l-.81-.11h-.18a1.13,1.13,0,0,1,.06.36,1.12,1.12,0,0,1-2.24,0h0a.92.92,0,0,1-.37-.36H87.08l-.1-.22h-.25a3.2,3.2,0,0,1,.06.46h-.67a1.12,1.12,0,0,1-2.24,0s0-.05,0-.07h-.34v-.43l-2,1.34v4.84h2.89a5,5,0,0,0,.3.45,4.76,4.76,0,0,0,7.53,0,3.52,3.52,0,0,0,.3-.45h2.9V157.7l-1.33-1.34A.19.19,0,0,1,94.2,156.54Z"/><path class="cls-14" d="M92,156.39a.67.67,0,0,0,0,1.33.67.67,0,1,0,0-1.33Z"/><polygon class="cls-14" points="93.89 156.36 93.88 156.36 93.88 156.36 93.89 156.36"/><circle class="cls-14" cx="85.07" cy="156.93" r="0.67"/><path d="M83.57,156.13h0Z"/><path class="cls-15" d="M94.06,156.35h0Z"/><path class="cls-16" d="M95.76,157.18h0l-.05,0-2-1.24a5.9,5.9,0,0,0-.37-1.81h.24a1.61,1.61,0,0,0-.33-.93h-.75a.47.47,0,0,0,.46-.46l-.07-.13h1.27v-2.78H90.9v2.31l-1.1.09H88.66a.47.47,0,0,0-.47.46v.05a.48.48,0,0,0,.36.45l0,0a1.46,1.46,0,0,1,.27.2,1.6,1.6,0,0,1,.5.76,2.18,2.18,0,0,1-.32,1.6l-.3.22H87.51l-.07,0-.3-1.36.26-.2-.06-.22-.17-.68-.2-.75-.22-.11,0,0,0,0s.15-1,.25-1.86l.34.07a.12.12,0,0,0,.14-.09.13.13,0,0,0-.09-.14l-.36-.06v-.07h0s0-.08,0-.12l-.84-.57-.55-.08h-.08v-.49a.48.48,0,0,0,.29,0,1.06,1.06,0,0,0-.3-1.19.58.58,0,0,0-.33.72.71.71,0,0,0,.23.37v.55h-.07c-.12,0-.21.26-.21.57s.09.57.21.57h.18a1.29,1.29,0,0,0,.52-.11v0a.19.19,0,0,0,.2.19.15.15,0,0,0,.11,0l0,.3-.83,2.06.52-.17-1.18.38v.87a2.83,2.83,0,0,0-.93.55,2.46,2.46,0,0,0-.3,1h0l0,0-2.46,1.32V163h2.78a5.45,5.45,0,0,0,9.23,0h2.78v-5.74Zm-1.88-.81h0Zm-1.84,0a.66.66,0,0,1,.68.66.67.67,0,0,1-.68.67.66.66,0,0,1-.66-.67A.65.65,0,0,1,92,156.4Zm-7-.13a.67.67,0,1,1-.67.67A.67.67,0,0,1,85.07,156.27Zm10.37,6.28h-2.9a3.52,3.52,0,0,1-.3.45,4.76,4.76,0,0,1-7.53,0,5,5,0,0,1-.3-.45H81.52V157.7l.07,0,2-1.07v.21h.34s0,0,0,.07a1.12,1.12,0,0,0,2.24,0v0h.67a3.25,3.25,0,0,0-.06-.45H87l.1.22H90.5a.92.92,0,0,0,.37.36h0a1.12,1.12,0,0,0,2.24,0,1.09,1.09,0,0,0-.06-.36h.18l.81.11h0l1.35,1,0,0Z"/><path class="cls-10" d="M82.78,158.65a5.36,5.36,0,0,1,.93-.06,1.49,1.49,0,0,1,.94.24.89.89,0,0,1,.33.71.91.91,0,0,1-.28.72,1.45,1.45,0,0,1-1,.33l-.23,0v1.09h-.69Zm.69,1.39.23,0c.37,0,.59-.19.59-.5s-.19-.45-.54-.45l-.28,0Z"/><path class="cls-10" d="M86.12,158.61v3h-.69v-3Z"/><path class="cls-10" d="M86.53,161.29,88,159.2v0H86.66v-.57h2.22v.4l-1.43,2.07H88.9v.57H86.53Z"/><path class="cls-10" d="M89.15,161.29l1.46-2.09v0H89.29v-.57h2.22v.4l-1.43,2.07h1.45v.57H89.15Z"/><path class="cls-10" d="M92.72,160.88l-.22.78h-.72l.94-3h.91l1,3h-.75l-.23-.78Zm.78-.52-.2-.64c0-.19-.1-.42-.15-.59h0l-.13.59-.19.64Z"/><polygon class="cls-16" points="89.38 163.38 89.31 163.37 88.83 163.31 88.58 162.81 88.34 163.31 87.86 163.37 87.79 163.38 88.19 163.77 88.09 164.32 88.58 164.06 89.08 164.32 88.98 163.77 89.38 163.38"/><polygon class="cls-16" points="90.59 163.46 90.55 163.45 90.26 163.41 90.11 163.11 89.96 163.41 89.68 163.45 89.64 163.46 89.88 163.69 89.83 164.02 90.11 163.86 90.41 164.02 90.36 163.69 90.59 163.46"/><polygon class="cls-16" points="87.53 163.46 87.49 163.45 87.2 163.41 87.05 163.11 86.91 163.41 86.62 163.45 86.58 163.46 86.82 163.69 86.76 164.02 87.05 163.86 87.35 164.02 87.29 163.69 87.53 163.46"/></g></g></g></svg>