<svg xmlns="http://www.w3.org/2000/svg" viewBox="0 0 174.37 174.35"><defs><style>.cls-1{fill:#97c7eb;}.cls-2{fill:#dcc5a1;}.cls-3{fill:#edd9b4;}.cls-4{fill:#bc9f82;}.cls-5{fill:#060800;}.cls-6{fill:#fff;}.cls-7{fill:#d9bf9f;}.cls-8{fill:#422e14;}</style></defs><title>Ativo 102ac</title><g id="Camada_2" data-name="Camada 2"><g id="Avatares"><rect class="cls-1" width="174.37" height="174.29" rx="39.21"/><path class="cls-2" d="M88.3,105v69.31H50.48l-.93-.4c0-37.18,23.16-39.95,23.16-39.95,2.3,0,3.79-3,4.77-7.45.16-.7.29-1.41.39-2.18.22-1.26.4-2.6.53-4,.08-.84.16-1.68.24-2.56.35-4.26.46-8.88.46-13.26,0,0,5.08.5,9.2.5"/><path class="cls-3" d="M127.17,173.94s-.35.13-.9.4h-38V105h.07c4.11,0,9.23-.5,9.23-.5,0,4.35.11,8.92.45,13.16.08.84.16,1.69.24,2.51.17,1.45.32,2.82.53,4.11v0c.08.58.19,1.11.3,1.63,1,4.79,2.51,8,4.9,8,0,0,23.15,2.77,23.15,39.95"/><path class="cls-4" d="M98.82,124.31v0A12.25,12.25,0,0,1,88.35,130h0c-6,0-9.52-4.38-10.43-5.66.22-1.26.4-2.6.53-4,.08-.84.16-1.68.24-2.56A42.09,42.09,0,0,0,88.19,119h.11a40.13,40.13,0,0,0,9.75-1.34c.08.84.16,1.69.24,2.51.17,1.45.32,2.82.53,4.11"/><path class="cls-5" d="M127.23,174s-.36.13-.91.4H50.45l-.94-.4c0-28.32,13.46-36.67,19.86-39,4.17,4.57,12.43,10.86,18.81,11.17h.17s.08,0,.13,0c6.41-.31,14.66-6.63,18.84-11.19,6.36,2.35,19.91,10.67,19.91,39.07"/><path class="cls-6" d="M65.81,136.55c4.94,5.43,14.74,12.9,22.3,13.28h.23a.32.32,0,0,0,.14,0c7.59-.38,17.37-7.85,22.33-13.28a24.76,24.76,0,0,0-3.57-1.67c-4.17,4.56-12.43,10.88-18.82,11.19a.21.21,0,0,1-.14,0h-.19c-6.36-.31-14.62-6.6-18.78-11.17a25.28,25.28,0,0,0-3.5,1.65"/><path class="cls-7" d="M88.27,25.53c-40,0-40.28,33.42-38.5,55.29C47,75.63,38.9,77.23,39.56,85.4c.65,7.86,12.13,11.92,12,11,3.28,18,22.14,28.38,36.74,28.38h.31V25.53h-.31"/><path class="cls-4" d="M42.12,81.94a3.8,3.8,0,0,1,5.79-1.1,3.29,3.29,0,0,1,.93,3.63c-.27,1-1.38,1.12-1.11,2.72a2.81,2.81,0,0,0,1.61,2.31A3.74,3.74,0,0,1,50.68,91a4,4,0,0,1,.18,2.24c-.31,1.29-2.19.27-3.46-.29a26,26,0,0,1-4.15-3.36c-1.67-1.9-2.45-5.53-1.13-7.63"/><path class="cls-7" d="M88.47,25.53c40.05,0,40.28,33.42,38.5,55.29,2.75-5.19,10.88-3.59,10.2,4.58-.63,7.86-12.12,11.92-11.95,11-3.29,18-22.13,28.38-36.75,28.38h-.3V25.53h.3"/><path class="cls-4" d="M134.63,81.94a3.81,3.81,0,0,0-5.8-1.1,3.31,3.31,0,0,0-.93,3.63c.28,1,1.39,1.12,1.11,2.72a2.82,2.82,0,0,1-1.6,2.31A3.69,3.69,0,0,0,126.06,91a4,4,0,0,0-.17,2.24c.29,1.29,2.18.27,3.45-.29a25.5,25.5,0,0,0,4.14-3.36c1.69-1.9,2.45-5.53,1.15-7.63"/><path class="cls-2" d="M88.6,35c-13.2,0-22.83,3.8-28.68,11.34-8.15,10.51-7.84,26.57-4.83,38.09.91,3.53,1.38,13,2,16.52C60,116.5,77.22,124.79,88.6,124.79h.29V35H88.6"/><path class="cls-3" d="M117.19,46.31C111.39,38.83,101.86,35,88.89,35v89.82c13-.13,28.5-9.24,31.17-23.87.62-3.49,1.1-13,2-16.52,3-11.49,3.3-27.53-4.89-38.08"/><path class="cls-8" d="M104.36,107.83c-.09-.18-.18-.36-.28-.53a13.87,13.87,0,0,0-1.5-2.24v.07c-2.91-4.1-8.26-6.87-14.42-6.87h0c-6.17,0-11.52,2.77-14.43,6.87v-.07a13.87,13.87,0,0,0-1.5,2.24l-.28.53a17.2,17.2,0,0,0,.13,15.86c2.06,4.51,8.47,10.53,16.08,10.53h0c7.6,0,14-6,16.07-10.53A17.2,17.2,0,0,0,104.36,107.83Zm-3.78,13.39a22.66,22.66,0,0,1-5.91,1.92c-1.08-1.89-3.58-3.22-6.52-3.27s-5.45,1.38-6.53,3.27a22.79,22.79,0,0,1-5.91-1.92A17.19,17.19,0,0,1,74.59,115a20,20,0,0,1,.14-2.22,17.59,17.59,0,0,1,10.45-5.35,20.51,20.51,0,0,1,3-.22h0a20.38,20.38,0,0,1,3,.22,17.59,17.59,0,0,1,10.45,5.35,20,20,0,0,1,.14,2.22A17.19,17.19,0,0,1,100.58,121.22Z"/><path class="cls-8" d="M117.87,31.58C109.13,25,96,18,88,18.87,68.44,16.78,62.68,26.68,58.17,30.1,43.91,40.93,48.7,79.72,48.7,79.72s2.3-.56,3.64.8a13,13,0,0,1,3.38,6.36,5.15,5.15,0,0,0,2.54,3.3s-3.41-15.43.1-22.29c1.63-3.22,3.11-6.65,6.55-10.08a18.89,18.89,0,0,0,1.34,6.86c2.2,5.76,11.23,9.26,11.23,9.26s-6.65-4-4-8.78c1.59-2.92,10.81-5.57,16.24-6,7.88-.66,11.55-3.62,13.07-6.61a16.4,16.4,0,0,1,4.34,2c6.53,4.48,8.41,9.12,10.58,13.38,3.51,6.86.09,22.29.09,22.29a5.18,5.18,0,0,0,2.55-3.3,12.9,12.9,0,0,1,3.38-6.36c1.33-1.36,3.63-.8,3.63-.8S132.14,42.41,117.87,31.58Z"/></g></g></svg>