<svg xmlns="http://www.w3.org/2000/svg" xmlns:xlink="http://www.w3.org/1999/xlink" viewBox="0 0 174.99 175.15"><defs><style>.cls-1{fill:none;}.cls-2{fill:#796452;}.cls-3{fill:#dcc5a1;}.cls-4{fill:#edd9b4;}.cls-5{clip-path:url(#clip-path);}.cls-6{fill:#bc9f82;}.cls-7{fill:#fdfdfd;}.cls-8{fill:#cc6b51;}.cls-9{fill:#ccad8b;}.cls-10{fill:#d9bf9f;}.cls-11{fill:#0f1005;}.cls-12{fill:#211915;}</style><clipPath id="clip-path"><rect class="cls-1" x="77.01" y="119.58" width="21.98" height="12.01"/></clipPath></defs><title>Ativo 115ac</title><g id="Camada_2" data-name="Camada 2"><g id="Avatares"><rect class="cls-2" width="174.99" height="175.15" rx="39.36"/><path class="cls-3" d="M88,107.26v67.49H48.29c-.65-.27-1-.38-1-.38,0-27.84,14.36-35.87,21-38.1a17.67,17.67,0,0,1,3.31-.83c2.42,0,4-2.86,5-7.23.16-.67.3-1.37.41-2.11.23-1.23.39-2.55.56-3.92,0-.82.16-1.64.25-2.49.37-4.17.47-8.67.47-12.92,0,0,5.34.49,9.66.49"/><path class="cls-4" d="M128.73,174.37a8.09,8.09,0,0,0-.94.38H88V107.26H88c4.31,0,9.68-.49,9.68-.49,0,4.25.08,8.7.47,12.82.06.83.17,1.64.25,2.41.18,1.44.3,2.79.53,4v0c.11.56.2,1.08.34,1.6,1,4.63,2.63,7.77,5.15,7.77a20.59,20.59,0,0,1,5,1.44c7.13,3,19.28,11.86,19.28,37.49"/><g class="cls-5"><path class="cls-6" d="M99,126v0a13,13,0,0,1-11,5.53h0A14,14,0,0,1,77,126.08c.22-1.23.41-2.55.56-3.91.07-.82.15-1.64.25-2.48a48.07,48.07,0,0,0,10,1.2H88a44.1,44.1,0,0,0,10.23-1.31c.08.81.17,1.63.25,2.44.17,1.42.33,2.76.55,4"/></g><path class="cls-7" d="M128.73,174.37a8.09,8.09,0,0,0-.94.38H48.29c-.65-.27-1-.38-1-.38,0-27.84,14.36-35.86,21-38.1,3.84,1.77,10,4.64,12.27,5.58,1.71.69,4.21,2.37,7.44,2.35,3,0,6.63-1.74,11-3a60.27,60.27,0,0,0,10.48-4.32c7.13,3,19.28,11.86,19.28,37.49"/><path class="cls-8" d="M119.87,174.75H56.16c.2-2.88.38-8.1.3-15.14v-1.33c0-.48,0-1-.08-1.54,0-.35-.06-.75-.09-1.12-.24-2.83-.75-6.19-1.36-9.68a28.26,28.26,0,0,1,5.85-6,3.11,3.11,0,0,1,.52-.41,26.06,26.06,0,0,1,7-3.64,8.29,8.29,0,0,1,1-.32,16,16,0,0,1,2.33-.51,3.08,3.08,0,0,0,2-.77,0,0,0,0,1,0,0,6.25,6.25,0,0,0,.6-.64,1.41,1.41,0,0,1,.35.67c.76,1.83,8.27,18.63,13.44,23.34,5.17-4.71,12.69-21.51,13.43-23.34a1.56,1.56,0,0,1,.37-.67,6.17,6.17,0,0,0,.58.64,0,0,0,0,1,0,0,3.1,3.1,0,0,0,2,.77,14.59,14.59,0,0,1,2.2.45c.31.11.64.21,1,.35a25.71,25.71,0,0,1,7,3.62,4.15,4.15,0,0,1,.52.42,27.76,27.76,0,0,1,5.91,6c-.64,3.6-1.15,7-1.36,9.87-.06.39-.09.77-.12,1.14s0,.77-.06,1.1v1.32c-.11,7.14.12,12.47.32,15.38"/><path class="cls-9" d="M87.46,29.84c-42,0-42.26,32.53-40.39,53.83-2.88-5-11.4-3.48-10.71,4.46C37,95.79,49.08,99.75,48.91,98.86c3.46,17.52,23.22,27.64,38.55,27.64h.32V29.84h-.32"/><path class="cls-6" d="M39.05,84.77a4.16,4.16,0,0,1,6.07-1.06,3,3,0,0,1,1,3.52c-.28,1-1.45,1.09-1.15,2.65a2.72,2.72,0,0,0,1.67,2.25c.49.4,1.11.7,1.42,1.45a3.6,3.6,0,0,1,.19,2.18c-.33,1.25-2.31.26-3.63-.3a25.85,25.85,0,0,1-4.35-3.26c-1.76-1.85-2.58-5.38-1.19-7.43"/><path class="cls-3" d="M87.94,39c-13.83,0-23.95,3.72-30.07,11-8.57,10.24-8.24,25.88-5.08,37.11,1,3.43,1.46,12.68,2.13,16.07,3,15.2,21.09,23.27,33,23.27h.31V39h-.31"/><path class="cls-10" d="M87.67,29.84c42,0,42.25,32.53,40.39,53.83,2.88-5,11.41-3.48,10.7,4.46-.66,7.66-12.72,11.62-12.55,10.73C122.77,116.38,103,126.5,87.67,126.5h-.32V29.84h.32"/><path class="cls-4" d="M117.94,50.07c-6.07-7.28-16.08-11-29.69-11v87.47c13.62-.13,29.89-9,32.7-23.26.66-3.39,1.15-12.64,2.12-16.07,3.15-11.19,3.46-26.82-5.13-37.09"/><path class="cls-11" d="M135.42,89.18c-4.3,0-7.78,3.22-7.78,7.19s3.48,7.18,7.78,7.18,7.77-3.21,7.77-7.18S139.71,89.18,135.42,89.18Zm0,11.84a4.67,4.67,0,1,1,5-4.65A4.85,4.85,0,0,1,135.42,101Z"/><path class="cls-6" d="M136.09,84.77A4.17,4.17,0,0,0,130,83.71a3.06,3.06,0,0,0-1,3.52c.3,1,1.45,1.09,1.17,2.65a2.74,2.74,0,0,1-1.68,2.25,3.67,3.67,0,0,0-1.42,1.45,3.52,3.52,0,0,0-.18,2.18c.32,1.25,2.29.26,3.62-.3a25.46,25.46,0,0,0,4.35-3.26c1.77-1.85,2.58-5.38,1.2-7.43"/><path class="cls-12" d="M104.49,119.09a12.14,12.14,0,0,0-2.68-8c-2.67-3.92-8.07-6.61-14.31-6.61-5.75,0-10.77,2.29-13.62,5.71-2.19,1.51-3.72,4.94-3.72,8.93a13.6,13.6,0,0,0,1.43,6.25,4.69,4.69,0,0,0,1.33,1.89,5.62,5.62,0,0,0,2,1.37c3,1.54,7.47,2.53,12.54,2.53,8.88,0,16.09-3,16.09-6.75a1.1,1.1,0,0,0,0-.18A13.89,13.89,0,0,0,104.49,119.09Zm-5.09,5.47a21.31,21.31,0,0,1-4.07,1.36.78.78,0,0,0,0-.16c0-1.5-3.59-2.72-8-2.72s-8,1.22-8,2.72c0,0,0,0,0,.07a19.75,19.75,0,0,1-4.14-1.48,14,14,0,0,1-1-5.26c0-.52,0-1,.08-1.54a17.17,17.17,0,0,1,10.42-5.08,21.25,21.25,0,0,1,5.67,0,17.28,17.28,0,0,1,10,4.69,15.11,15.11,0,0,1,.14,1.93A13.75,13.75,0,0,1,99.4,124.56Z"/><path class="cls-12" d="M44.1,46.66c-.1-7.36,3.39-9.74,5.61-13.34s7.14-7.86,9.35-9.63,4.6-4,4.6-4a26.2,26.2,0,0,1,8.84-3.63c5.1-1,6.63.17,11.39,1.85.6.22,1.13.43,1.59.65,3-2.5,2.91-2.72,6.17-3.9,6.12-2.21,9.69,1.07,9.69,1.07l-3.57.48a18.3,18.3,0,0,1,10.54,2.2c4.76,2.91,6.41,5.29,6.41,5.29s-6.86-1.42-2.43,0a36.2,36.2,0,0,1,11.9,6.56c3.56,2.9,7.31,7,9,11.28s-.85-2.23-4.26-4.61a24.13,24.13,0,0,0-6.12-3.25s4.65,4.21,8.67,12.82c2.46,5.26,5,12.21,4.18,23.55C134.41,88.15,125,94.76,125,94.76a13.25,13.25,0,0,0,3-4.92,12.94,12.94,0,0,0,.37-5.9c-.17.86-9.42,13.34-9.42,13.34s7.42-9.72,4.64-22.29a18.92,18.92,0,0,0-4.91-8.66c-.37-.44-.67-.86-1-1.29-4.49,5.23-13,7.45-13,7.45s5.47-5.38,6.15-9.32.38-12.09-4.38-16.71c-.65-.62-1.41-1.27-2.22-1.92a14,14,0,0,1,0,13.07,13.51,13.51,0,0,1-4.75,5c-4.82,3.79-12.16,6.2-20.38,6.2a38.79,38.79,0,0,1-11.09-1.57h0c-.57-.17-1.12-.36-1.67-.55C60.55,65,42.13,61.37,50.9,87.53l.08.38h0c1.26,5.83,6.88,9.54,6.88,9.54s-6.59-3.93-10.33-10.09-4.2-11.89-3.86-19.7a43,43,0,0,1,.39-4.32,8.19,8.19,0,0,1-1.29,1.33A9.6,9.6,0,0,1,37.3,67S44.3,63.33,44.1,46.66Z"/></g></g></svg>