<svg xmlns="http://www.w3.org/2000/svg" viewBox="0 0 174.37 175.24"><defs><style>.cls-1{fill:#856da5;}.cls-2{fill:#dcc5a1;}.cls-3{fill:#edd9b4;}.cls-4,.cls-8{fill:#bc9f82;}.cls-4{opacity:0.7;}.cls-5{fill:#483a26;}.cls-6{fill:#84572f;}.cls-7{fill:#ccad8b;}.cls-9{fill:#d9bf9f;}.cls-10{fill:#666664;}.cls-11{fill:#3b2f18;}</style></defs><title>Ativo 91ac</title><g id="Camada_2" data-name="Camada 2"><g id="Avatares"><rect class="cls-1" width="174.37" height="174.29" rx="39.21"/><path class="cls-2" d="M85.57,108v67.23H48.9l-.9-.38a63.74,63.74,0,0,1,2-16.73c.25-.91.52-1.78.79-2.63,3.27-9.63,8.77-14.53,13.12-17a.17.17,0,0,0,.11-.06.08.08,0,0,1,0,0,19.25,19.25,0,0,1,6.38-2.33c2.23,0,3.67-2.87,4.62-7.22.15-.67.29-1.37.39-2.11.21-1.23.39-2.53.51-3.89.08-.82.16-1.64.24-2.48.33-4.13.44-8.63.44-12.88C76.66,107.52,81.59,108,85.57,108Z"/><path class="cls-3" d="M123.28,174.86s-.33.13-.87.38H85.57V108h.08c4,0,8.95-.49,8.95-.49,0,4.23.11,8.67.44,12.77.08.82.16,1.63.23,2.44.16,1.4.31,2.74.52,4v0c.08.56.18,1.08.28,1.59,1,4.63,2.45,7.76,4.75,7.76a20.57,20.57,0,0,1,8.08,3.36C115.34,143.77,123.28,153.41,123.28,174.86Z"/><path class="cls-4" d="M95.79,126.73v0a11.87,11.87,0,0,1-10.16,5.51h-.06a12.8,12.8,0,0,1-10.1-5.49c.21-1.23.39-2.53.51-3.89.08-.82.16-1.64.23-2.48a41.41,41.41,0,0,0,9.27,1.2h.09A38.8,38.8,0,0,0,95,120.29c.08.82.16,1.64.23,2.44C95.43,124.13,95.58,125.47,95.79,126.73Z"/><path class="cls-5" d="M62.19,144.48c2.89,1.2,13.4,6.61,23.38,6.3,20.82-.63,24.23-8.22,24.23-8.22s.86,15.08-3.16,17.48-14.1,8.52-21,7.87-17.52-4.66-18.16-7.07S62.19,144.48,62.19,144.48Z"/><path class="cls-6" d="M121.46,158.13c-.26-.91-.52-1.78-.81-2.63-3.3-9.63-8.85-14.53-13.25-17a.14.14,0,0,1-.1-.06l-.06,0c-.38.9-4.26,10-11.22,15.69-6.68,5.39-10.21,7.15-10.49,7.28-.29-.13-3.82-1.89-10.5-7.28-7-5.64-10.84-14.79-11.22-15.69a.08.08,0,0,0-.05,0,.15.15,0,0,1-.11.06c-4.39,2.46-9.95,7.36-13.25,17-.28.85-.55,1.72-.8,2.63a62.79,62.79,0,0,0-2,16.73l.92.38h74.09l.91-.38A63.7,63.7,0,0,0,121.46,158.13Z"/><path class="cls-7" d="M85.68,30.9c-38.85,0-39.07,32.41-37.35,53.62-2.66-5-10.54-3.47-9.89,4.45.62,7.63,11.75,11.57,11.6,10.68,3.18,17.47,21.46,27.54,35.64,27.54H86V30.91Z"/><path class="cls-8" d="M40.92,85.61a3.68,3.68,0,0,1,5.61-1,3.18,3.18,0,0,1,.91,3.51c-.28,1-1.34,1.09-1.08,2.64A2.73,2.73,0,0,0,47.91,93a3.58,3.58,0,0,1,1.31,1.43,3.87,3.87,0,0,1,.17,2.19c-.29,1.25-2.12.25-3.35-.3A23,23,0,0,1,42,93C40.39,91.18,39.63,87.65,40.92,85.61Z"/><path class="cls-9" d="M85.87,30.9c38.86,0,39.08,32.41,37.35,53.62,2.67-5,10.55-3.47,9.9,4.45-.62,7.63-11.76,11.57-11.6,10.68-3.19,17.47-21.47,27.54-35.65,27.54h-.3V30.91Z"/><path class="cls-8" d="M130.64,85.61a3.68,3.68,0,0,0-5.61-1,3.16,3.16,0,0,0-.91,3.51c.28,1,1.34,1.09,1.08,2.64A2.69,2.69,0,0,1,123.64,93a3.64,3.64,0,0,0-1.3,1.43,3.87,3.87,0,0,0-.17,2.19c.29,1.25,2.12.25,3.34-.3a23.07,23.07,0,0,0,4-3.26C131.17,91.18,131.92,87.65,130.64,85.61Z"/><path class="cls-2" d="M85.34,40c-12.78,0-22.13,3.71-27.8,11-7.9,10.2-7.61,25.77-4.69,37,.89,3.41,1.35,12.63,2,16,2.75,15.12,19.5,23.17,30.52,23.17h.3V40.05Z"/><path class="cls-3" d="M113.09,51.06c-5.62-7.26-14.87-11-27.45-11v87.13c12.59-.14,27.64-9,30.23-23.16.61-3.39,1.07-12.61,2-16C120.74,76.85,121,61.28,113.09,51.06Z"/><path class="cls-10" d="M123.28,98.35a.8.8,0,1,1-.8-.8A.8.8,0,0,1,123.28,98.35Z"/><path class="cls-10" d="M125.09,97.61a.46.46,0,0,1-.44.45.45.45,0,0,1-.45-.45.45.45,0,0,1,.45-.44A.45.45,0,0,1,125.09,97.61Z"/><path class="cls-10" d="M126.68,96.73a.44.44,0,0,1-.44.44.45.45,0,0,1-.45-.44.46.46,0,0,1,.45-.46A.45.45,0,0,1,126.68,96.73Z"/><path class="cls-11" d="M48,92.81c-2.33-8.29-4.53-22.18-4.53-28.57s1.19-15.18,3.73-19.14c3.34-5.21,3.58-3.74,3.58-3.74S47.38,27.14,68.26,24a48.17,48.17,0,0,1,8.19-.24L73.6,26.66a58,58,0,0,1,25.49-1.52c10.55,1.66,17.76,6.92,23.73,15.5,4,5.73,5.21,14.21,5.21,14.21l-7.71-10.42A36.3,36.3,0,0,1,128,72.38c-3.22,24.78-14.56,29.38-14.56,29.38s7.81-14.86,2.65-24.48c-8.66-16.16-24.07-16.64-24.07-16.64a22,22,0,0,1,18.37,17c.26,1.08-.72-4.33-7.28-6.89C98.61,69,92.23,69.64,85,66.27c-6.66-3.08-18.36-11.66-18.36-11.66s15.59,5.9,20,9.73a27.7,27.7,0,0,1,9,16.62S91,73.54,79.91,69.3C73.82,67,62.85,62.9,62.85,62.9s8.12-.52,13.88,4.41c4.62,4,3.32,12.54,2.16,14.11,0,0,.38-6.49-13.57-10.55-8-2.34-9.31-7-9.31-7a25.83,25.83,0,0,1-1,7.48c-1.26,3.39-4.81,5.6-5.06,8.66-.47,5.69,2.55,16.35,2.55,16.35Z"/></g></g></svg>