<svg xmlns="http://www.w3.org/2000/svg" viewBox="0 0 175 175.32"><defs><style>.cls-1{fill:#a4bfb6;}.cls-2{fill:#dcc5a1;}.cls-3{fill:#edd9b4;}.cls-4,.cls-7{fill:#bc9f82;}.cls-4{opacity:0.7;}.cls-5{fill:#3c4c82;}.cls-6{fill:#ccad8b;}.cls-8{fill:#d9bf9f;}.cls-9{fill:#b47070;}.cls-10{fill:#c17874;}.cls-11{fill:#372814;}</style></defs><title>Ativo 147ac</title><g id="Camada_2" data-name="Camada 2"><g id="Avatares"><rect class="cls-1" width="175" height="175.32" rx="39.44"/><path class="cls-2" d="M85.66,110.28v65H50.17l-.86-.37c0-23.76,10.07-32.53,16.5-35.73A17.88,17.88,0,0,1,71,137.46h.18a2.73,2.73,0,0,0,.48-.1c1.79-.5,3-3.12,3.83-6.89.14-.64.27-1.31.37-2,.2-1.19.37-2.45.5-3.77.07-.79.15-1.58.22-2.4.32-4,.42-8.33.42-12.45C77,109.81,81.8,110.28,85.66,110.28Z"/><path class="cls-3" d="M122.13,175s-.32.12-.85.37H85.66v-65h.07c3.86,0,8.66-.47,8.66-.47,0,4.1.1,8.39.43,12.35.07.8.15,1.59.22,2.36.15,1.36.29,2.65.49,3.86v0c.08.55.18,1,.28,1.53.74,3.65,1.84,6.33,3.43,7.22a2,2,0,0,0,.38.15,2.06,2.06,0,0,0,.79.15,16.15,16.15,0,0,1,4.27,1.31C111,141.58,122.13,150,122.13,175Z"/><path class="cls-4" d="M95.53,128.39v0a11.46,11.46,0,0,1-9.82,5.34h-.06a12.38,12.38,0,0,1-9.77-5.31c.2-1.19.37-2.46.49-3.77.08-.79.15-1.59.23-2.41a38.74,38.74,0,0,0,9,1.17h.1a36.5,36.5,0,0,0,9.16-1.27c.08.8.16,1.6.22,2.36C95.18,125.88,95.33,127.18,95.53,128.39Z"/><path class="cls-5" d="M118.47,153.67a31.05,31.05,0,0,0-5.47-8.8,24.26,24.26,0,0,0-8.32-6.1c-3.9,6.47-13.2,14.93-19,19.91-.87.75-1.64,1.41-2.32,2-6-10.61-11.51-21.91-11.66-23.28a17.08,17.08,0,0,0-5.87,1.86c-.53.31-1.16.59-1.75.94a25.82,25.82,0,0,0-7.71,7.36c-3.91,5.56-7,14.16-7,27.43l.86.37h71.11c.53-.25.85-.37.85-.37C122.13,165.82,120.66,158.91,118.47,153.67Z"/><path class="cls-6" d="M85.63,40.41C48.6,40.33,48.38,70,50,89.32,47.49,84.78,40,86.47,40.6,93.73c.59,7,11.2,10.11,11,9.35,3,15.75,20.49,24.5,34,25.75h.28V40.41Z"/><path class="cls-7" d="M42.45,90.66a3.68,3.68,0,0,1,5.43-1,2.83,2.83,0,0,1,.88,3.23c-.26.93-1.3,1-1,2.43a2.56,2.56,0,0,0,1.51,2.06,2.87,2.87,0,0,1,1.43,3.32c-.28,1.15-2,.23-3.24-.28a22.29,22.29,0,0,1-3.89-3C41.94,95.77,41.21,92.53,42.45,90.66Z"/><path class="cls-8" d="M85.81,40.41c37-.08,37.24,29.58,35.59,48.91,2.55-4.54,10-2.85,9.44,4.41-.59,7-11.2,10.11-11,9.35-3,15.75-20.49,24.5-34,25.75h-.29V40.41Z"/><path class="cls-7" d="M128.69,90.66a3.68,3.68,0,0,0-5.43-1,2.86,2.86,0,0,0-.88,3.23c.26.93,1.3,1,1.05,2.43a2.56,2.56,0,0,1-1.5,2.06c-.44.36-1,.64-1.27,1.31a3.43,3.43,0,0,0-.17,2c.29,1.15,2.06.23,3.24-.28a22.29,22.29,0,0,0,3.89-3C129.2,95.77,129.93,92.53,128.69,90.66Z"/><path class="cls-2" d="M85.43,48.79c-12.36,0-21.41,3.4-26.89,10.11C50.89,68.27,51.18,82.57,54,92.84c.86,3.15,1.3,11.61,1.9,14.72,2.66,13.88,18.86,21.28,29.53,21.28h.29v-80Z"/><path class="cls-3" d="M112.27,58.92c-5.44-6.67-14.39-10.06-26.55-10.12v80c12.17-.12,26.73-8.23,29.23-21.27.6-3.11,1-11.57,1.91-14.72C119.67,82.61,120,68.31,112.27,58.92Z"/><path class="cls-9" d="M91.94,116.29s-2.79,3-6.23,3-6.09-2.92-6.09-2.92a40.23,40.23,0,0,1,6.09-.45A50.21,50.21,0,0,1,91.94,116.29Z"/><path class="cls-10" d="M87.48,114.91a1.61,1.61,0,0,0-1.77,1.35,1.63,1.63,0,0,0-1.77-1.35,24.72,24.72,0,0,0-4.47,1.38s3.4.36,4.37.36,1.84.38,1.87-.34c0,.73.71.44,1.67.44s4.56-.46,4.56-.46A24.83,24.83,0,0,0,87.48,114.91Z"/><path class="cls-11" d="M127.68,52.38c4.44,4.14,7.19,7.1,7.19,7.1-6.93-39.15-44.76-31.94-44.76-31.94l.39.12c-7.32.44-16.57,2.48-19.38,9.66-6.16-3.52-15.73-.06-21.27,3.1a93.7,93.7,0,0,0-9.77,6.43,31.92,31.92,0,0,1,12.23-4,12,12,0,0,0-1.8.95c-5.16,3.35-9.61,6.68-11.9,13.73a68.15,68.15,0,0,0-2.75,14.93s1.51-2.95,3.79-6.65c-.37,1-.71,2.06-1,3.19-8.15,28.74,11.9,40.25,11.9,40.25a76.83,76.83,0,0,1-4-14.42c2.16,10.74,9.94,21.5,9.94,21.5C42.53,80.5,69.4,71.34,81,69.1a16.92,16.92,0,0,1,5-.7s4.56,8.52,7.5,15,3.21,14.73,3.21,14.73,2.26-12.62-.14-20.75c3.41,4.73,6.45,9.32,7.48,12a39.35,39.35,0,0,1,2.62,13.54s2.9-11.88-.77-22.66a44.38,44.38,0,0,1,3.83,8.37c5.8,19.41-4.08,44-4.08,44a181.49,181.49,0,0,0,8.57-18.75c-2.77,14-9,35.43-9,35.43s8.78-18.12,14.57-32.93l-.86,12.15s12.68-23.84,11.76-44.14c0,0,0-.1,0-.14,1,4.38,1.65,7.65,1.65,7.65s7.12-22.91-5.39-40C127.18,52.07,127.44,52.22,127.68,52.38Z"/></g></g></svg>