<svg xmlns="http://www.w3.org/2000/svg" viewBox="0 0 175 174.82"><defs><style>.cls-1{fill:#f4f1c5;}.cls-2{fill:#211915;}.cls-3{fill:#dcc5a1;}.cls-4{fill:#edd9b4;}.cls-5,.cls-8{fill:#bc9f82;}.cls-5{opacity:0.7;}.cls-6{fill:#856da5;}.cls-7{fill:#ccad8b;}.cls-9{fill:#d9bf9f;}.cls-10{fill:#b47070;}.cls-11{fill:#c17874;}</style></defs><title>Ativo 138ac</title><g id="Camada_2" data-name="Camada 2"><g id="Avatares"><rect class="cls-1" width="175" height="174.69" rx="39.4"/><path class="cls-2" d="M123.71,127.56c0,11.37-15.47,20.59-34.57,20.59s-34.56-9.22-34.56-20.59S70.06,107,89.14,107,123.71,116.19,123.71,127.56Z"/><path class="cls-3" d="M88.7,109.05v65.77H52.82l-.89-.38a62.34,62.34,0,0,1,1.64-15c5-21.07,20.34-22.9,20.34-22.9h.17a4.57,4.57,0,0,0,.48-.1c1.81-.5,3-3.16,3.87-7,.15-.64.28-1.32.38-2,.2-1.2.37-2.48.5-3.81.08-.8.15-1.61.23-2.43.32-4,.43-8.43.43-12.59C80,108.57,84.8,109.05,88.7,109.05Z"/><path class="cls-4" d="M125.59,174.44s-.33.13-.85.38h-36V109.05h.08c3.89,0,8.75-.48,8.75-.48,0,4.14.1,8.48.43,12.49.08.8.15,1.6.23,2.38.15,1.38.3,2.68.49,3.92v0c.08.55.19,1.05.28,1.55.76,3.69,1.86,6.39,3.48,7.3a1.77,1.77,0,0,0,.38.15,2.18,2.18,0,0,0,.8.15s.26,0,.71.13c2.33.5,10,2.8,15.42,12.08C123.1,154.36,125.59,162.56,125.59,174.44Z"/><path class="cls-5" d="M98.68,127.36v0a11.6,11.6,0,0,1-9.94,5.39h0a12.55,12.55,0,0,1-9.9-5.36c.2-1.21.37-2.49.5-3.81.08-.81.15-1.61.23-2.44a39.62,39.62,0,0,0,9.06,1.18h.11a37.55,37.55,0,0,0,9.24-1.27c.08.79.15,1.59.23,2.37C98.32,124.83,98.47,126.13,98.68,127.36Z"/><path class="cls-6" d="M128.51,157.87s-10.42-20.49-24.93-21.34c-.38,0,10.79,16.28-4.09,20.06a37.89,37.89,0,0,1-10.71,1.13H88.7A37.92,37.92,0,0,1,78,156.59c-14.88-3.78-3.7-20.09-4.07-20.06C59.38,137.38,49,157.87,49,157.87l4.61,1.56,6.49,2.18a42.74,42.74,0,0,0-2.39,13.21H119.8a42.74,42.74,0,0,0-2.39-13.21l6.5-2.18Z"/><path class="cls-7" d="M88.66,38.37C51.21,38.3,51,68.28,52.66,87.84,50.09,83.25,42.5,85,43.11,92.31c.6,7,11.34,10.22,11.19,9.44,3.07,15.94,20.71,24.79,34.36,26h.28V38.37Z"/><path class="cls-8" d="M45,89.2a3.72,3.72,0,0,1,5.49-1,2.91,2.91,0,0,1,.89,3.27c-.27.94-1.32,1-1.06,2.46A2.58,2.58,0,0,0,51.84,96a3.33,3.33,0,0,1,1.28,1.32,3.42,3.42,0,0,1,.17,2c-.29,1.16-2.08.23-3.28-.28a22.37,22.37,0,0,1-3.93-3C44.48,94.37,43.75,91.08,45,89.2Z"/><path class="cls-9" d="M88.85,38.37c37.45-.07,37.66,29.91,36,49.47,2.57-4.59,10.17-2.89,9.54,4.47-.6,7-11.33,10.22-11.19,9.44-3.06,15.94-20.71,24.79-34.35,26h-.29V38.37Z"/><path class="cls-8" d="M132.77,89.2a3.71,3.71,0,0,0-5.48-1,2.89,2.89,0,0,0-.9,3.27c.27.94,1.32,1,1.06,2.46A2.59,2.59,0,0,1,125.93,96a2.88,2.88,0,0,0-1.45,3.35c.3,1.16,2.09.23,3.28-.28a22.37,22.37,0,0,0,3.93-3C133.29,94.37,134,91.08,132.77,89.2Z"/><path class="cls-3" d="M88.46,46.85c-12.5,0-21.65,3.44-27.2,10.23C53.52,66.55,53.82,81,56.68,91.41c.87,3.17,1.31,11.73,1.92,14.88,2.69,14,19.08,21.53,29.86,21.53l.29,0V46.86Z"/><path class="cls-4" d="M115.61,57.09c-5.5-6.74-14.55-10.17-26.86-10.23V127.8c12.32-.13,27.05-8.32,29.58-21.51.6-3.15,1-11.71,1.92-14.88C123.09,81.05,123.38,66.59,115.61,57.09Z"/><path class="cls-10" d="M95.05,115.11s-2.83,3-6.31,3-6.15-2.94-6.15-2.94a39.22,39.22,0,0,1,6.15-.47A51.58,51.58,0,0,1,95.05,115.11Z"/><path class="cls-11" d="M90.52,113.73a1.64,1.64,0,0,0-1.78,1.36A1.63,1.63,0,0,0,87,113.73a25.38,25.38,0,0,0-4.53,1.38s3.45.37,4.43.37,1.86.39,1.88-.34c0,.73.73.45,1.71.45s4.6-.48,4.6-.48A25.12,25.12,0,0,0,90.52,113.73Z"/><path class="cls-2" d="M121.63,107.81c-.15,2.71-.3,3,1,5.12s2.85,2.93,1.38,5.35-3.86,2.71-3.72,4.83,2.78,3.14,2.34,6c-.4,2.58-4.58,5.29-5.37,5.76.64-.45,3.33-2.54,3-5.17-.45-3-.79-3.13-4-4.83s-3.69-2.45-2.79-4.87,3.8-2.64,1.59-5.2-3.47-4.31-2.89-5.88-.38-2.73,2.21-5.75c1.61-1.83,1.38-6,1.38-7.83s2.61-10.81-1.61-14.74c-.77-.7-2.07-2.31-3.63-4.17-1.28-1.53-2.74-3.24-4.21-4.75a22.73,22.73,0,0,1-3.84-5.9c-1-2-1.57-3.64-1.72-4,0,.44.32,2.35.52,3.86.06.56.12,1,.14,1.42a8.77,8.77,0,0,0,3.34,6.31c-1.07-.61-5.44-3.22-7.2-5.54a12,12,0,0,1-1.61-2.76,10,10,0,0,1-.22-7.58A38.18,38.18,0,0,1,90.45,64c-.19.18-.4.35-.61.54A74.07,74.07,0,0,1,81.58,70,21.73,21.73,0,0,0,86.1,64.2a10.63,10.63,0,0,0,.56-1.12c.55-1.28,2.77-8,2.77-8a99,99,0,0,1-5.64,9,33.29,33.29,0,0,1-6,6.45c-.85.67-2,1.58-3.27,2.63-4.6,3.78-11,9.48-11.57,12.6-.72,4,1.32,12.68,2.64,16.23s1.46,4.71,0,6.13-5.12,4-4.53,5.26,2.79,3.41,2.34,5.13-5.24,5.8-5.85,8.11c-1.07,4.07,5.27,7.54,6,7.93-.77-.25-9.34-3.47-8.36-7.78.64-2.81.15-3.26-1.47-5.41s-4-5.7-1.76-7.82,5.27-4.57,4.54-7-8.57-19.17-8.57-25.09A51.44,51.44,0,0,1,49,72.6a69.55,69.55,0,0,1,2.74-10c2.48-6.8,6.31-13.57,12.1-17.23,12.43-7.82,21.2-9,25.59-8s8.85-.75,10-.3,12.4,5.08,16.64,9.76c3.27,3.64,11.37,12.49,14.9,22.78a28.46,28.46,0,0,1,1.7,9.37c0,.35,0,.7,0,1C132.14,93.48,121.77,105.17,121.63,107.81Z"/></g></g></svg>