<svg xmlns="http://www.w3.org/2000/svg" viewBox="0 0 175 174.92"><defs><style>.cls-1{fill:#7491c6;}.cls-2{fill:#dcc5a1;}.cls-3{fill:#edd9b4;}.cls-4,.cls-8{fill:#bc9f82;}.cls-4{opacity:0.7;}.cls-5{fill:#272b41;}.cls-6{fill:#202331;}.cls-7{fill:#ccad8b;}.cls-9{fill:#d9bf9f;}.cls-10{fill:#fff;}</style></defs><title>Ativo 150ac</title><g id="Camada_2" data-name="Camada 2"><g id="Avatares"><rect class="cls-1" width="175" height="174.92" rx="39.41"/><path class="cls-2" d="M85.13,105.56v69.23H47.36l-.92-.4c0-37.13,23.12-39.9,23.12-39.9,2.31,0,3.79-3,4.77-7.44.16-.69.29-1.4.4-2.16.21-1.28.39-2.62.52-4,.09-.84.16-1.68.24-2.56.29-3.45.39-7.18.43-10.79,0-.82,0-1.64,0-2.45C75.94,105.07,81,105.56,85.13,105.56Z"/><path class="cls-3" d="M124,174.39s-.35.13-.9.4H85.13V105.56h.08c4.11,0,9.22-.49,9.22-.49,0,1,0,1.9,0,2.85,0,3.45.16,7,.43,10.29.08.85.16,1.68.24,2.5.16,1.46.32,2.83.53,4.12v0c.07.58.18,1.11.28,1.64,1,4.78,2.52,8,4.91,8C100.84,134.49,124,137.26,124,174.39Z"/><path class="cls-4" d="M95.65,124.83v0a12.23,12.23,0,0,1-10.46,5.67h0c-6,0-9.51-4.39-10.41-5.65.21-1.26.39-2.61.52-4,.09-.83.17-1.68.25-2.55A41.43,41.43,0,0,0,85,119.56h.11a39.23,39.23,0,0,0,9.75-1.35c.07.85.16,1.69.23,2.51C95.28,122.17,95.44,123.55,95.65,124.83Z"/><path class="cls-5" d="M124,174.39s-.35.13-.9.4H47.36l-.92-.4c0-36.26,22-39.74,23.1-39.9h0c1.75,0,3-1.69,3.94-4.43a4.25,4.25,0,0,0,1.65,1.43c1.35.73,3.91,1.44,10.06,1.44s10.23-1.32,11.34-2.34a1.7,1.7,0,0,0,.34-.53c.9,2.64,2.12,4.3,3.73,4.43h.22S124,137.26,124,174.39Z"/><path class="cls-6" d="M101.11,138.4c-5.09,3.59-8.44,4.41-16,4.41s-10.19-1.06-14.06-3c-2.73-1.35-4.66-2.4-2.68-4.14a12.21,12.21,0,0,0,1.2-1.19h0a18.47,18.47,0,0,0,1.53-2.35c1-1.5-1.84-2.37-.07-3.53a4.7,4.7,0,0,1,3.15-.93c-.67,2.38.34,3.46,1,3.81,1.35.73,3.91,1.44,10.06,1.44s9.11-1.32,10.44-2.05c1.13-.62.83-1.86.8-2.38a2.87,2.87,0,0,1-.17-.49s3.39.2,3.1,1.86a6.57,6.57,0,0,0,1.24,4.62c.16.21.3.42.45.61C102.29,136.65,104.1,136.29,101.11,138.4Z"/><path class="cls-7" d="M85.25,26.19c-40,0-40.23,33.36-38.46,55.2C44.05,76.21,35.94,77.81,36.6,86c.64,7.85,12.11,11.91,11.95,11,3.28,18,22.1,28.35,36.7,28.35h.3V26.19Z"/><path class="cls-8" d="M39.15,82.52a3.79,3.79,0,0,1,5.78-1.1A3.29,3.29,0,0,1,45.87,85c-.28,1-1.38,1.13-1.11,2.72a2.81,2.81,0,0,0,1.6,2.31,3.78,3.78,0,0,1,1.34,1.47,3.91,3.91,0,0,1,.18,2.25c-.3,1.29-2.19.26-3.45-.31a23.94,23.94,0,0,1-4.14-3.35C38.61,88.25,37.83,84.61,39.15,82.52Z"/><path class="cls-9" d="M85.44,26.19c40,0,40.23,33.36,38.45,55.2,2.74-5.18,10.87-3.58,10.2,4.58-.64,7.85-12.11,11.91-12,11-3.28,18-22.1,28.35-36.7,28.35h-.3V26.19Z"/><path class="cls-8" d="M131.54,82.52a3.81,3.81,0,0,0-5.79-1.1,3.3,3.3,0,0,0-.93,3.62c.28,1,1.38,1.13,1.12,2.72a2.81,2.81,0,0,1-1.61,2.31,3.25,3.25,0,0,0-1.52,3.72c.31,1.29,2.18.26,3.44-.31a23.63,23.63,0,0,0,4.15-3.35C132.08,88.25,132.85,84.61,131.54,82.52Z"/><path class="cls-2" d="M84.9,35.59c-13.16,0-22.79,3.81-28.63,11.32C48.13,57.41,48.44,73.46,51.45,85c.91,3.52,1.38,13,2,16.49C56.3,117,73.54,125.32,84.9,125.32h.3V35.6Z"/><path class="cls-3" d="M113.46,46.94c-5.78-7.48-15.3-11.28-28.26-11.34v89.71c13-.14,28.46-9.23,31.13-23.85.63-3.48,1.1-13,2-16.49C121.34,73.49,121.64,57.47,113.46,46.94Z"/><path class="cls-10" d="M102.19,109.34a11.69,11.69,0,0,0-1.81-5.71s-.39-.31-1.06-.79-1.73-1.19-3-2A30.31,30.31,0,0,0,90.77,98a12.47,12.47,0,0,0-2-.53,31.65,31.65,0,0,0-4.06-.26h-.09a31.65,31.65,0,0,0-4.06.26,12.88,12.88,0,0,0-2,.53,30.75,30.75,0,0,0-5.5,2.88c-1.31.76-2.34,1.45-3,2s-1,.79-1.05.79a11.49,11.49,0,0,0-1.81,5.71c0,.28-.06.57-.06.87a12.11,12.11,0,0,0,1.49,6A4.55,4.55,0,0,0,70,118a5.65,5.65,0,0,0,2.1,1.31,31.24,31.24,0,0,0,12.55,2.41h.09a31.21,31.21,0,0,0,12.55-2.41A5.77,5.77,0,0,0,99.37,118a4.55,4.55,0,0,0,1.39-1.81,12.21,12.21,0,0,0,1.48-6C102.24,109.91,102.2,109.62,102.19,109.34Zm-5.14,5.89a20.81,20.81,0,0,1-3.73,1.28,2.6,2.6,0,0,0,.1-.68,2.54,2.54,0,0,0-2.54-2.54H78.46a2.55,2.55,0,0,0-2.55,2.54,2.25,2.25,0,0,0,.11.68,20.93,20.93,0,0,1-3.74-1.28,12.45,12.45,0,0,1-1-5,14.56,14.56,0,0,1,.08-1.49,18.49,18.49,0,0,1,10.82-4.86c.82-.1,1.66-.15,2.52-.17s1.69.07,2.51.17A18.46,18.46,0,0,1,98,108.72a14.54,14.54,0,0,1,.09,1.49A12.29,12.29,0,0,1,97.05,115.23Z"/><path class="cls-10" d="M120.76,32.42A23.06,23.06,0,0,0,112,27.54s-10.81-5.38-19-9.23-21.61-.77-28.56,1S49.2,31,46.62,36.36s-9,17.08-11,25.54,4.85,16.66,9.17,18.41c2.81,1.14,3,7.71,3,7.71l3.06,1.36S50.45,79,55.19,70.83C88.37,84.54,98.43,50.37,98.88,48.77a.63.63,0,0,0,.12-.11,30.55,30.55,0,0,1,11,5.46c4.87,3.6,10.85,8.59,10.85,19.37,0,3.6-1.62,14.09-1.62,14.09l1.62-1.14s0-4.07,4.62-6.61c3.68-2,4.61-9,4.61-11.8C130.07,48.94,124.62,36,120.76,32.42Z"/></g></g></svg>