<svg xmlns="http://www.w3.org/2000/svg" xmlns:xlink="http://www.w3.org/1999/xlink" viewBox="0 0 174.99 174.97"><defs><style>.cls-1{fill:none;}.cls-2{fill:#dca88d;}.cls-3{fill:#dcc5a1;}.cls-4{fill:#edd9b4;}.cls-5{clip-path:url(#clip-path);}.cls-6{fill:#bc9f82;}.cls-7{fill:#9a6919;}.cls-8{fill:#ccad8b;}.cls-9{fill:#d9bf9f;}.cls-10{fill:#b47070;}.cls-11{fill:#c17874;}.cls-12{fill:#434142;}.cls-13{fill:#fff;}.cls-14{fill:#bd2c62;}</style><clipPath id="clip-path"><rect class="cls-1" x="79.25" y="118.68" width="20.83" height="12.27"/></clipPath></defs><title>Ativo 142ac</title><g id="Camada_2" data-name="Camada 2"><g id="Avatares"><rect class="cls-2" width="174.99" height="174.92" rx="39.31"/><path class="cls-3" d="M89.61,106.08V175H52c-.6-.27-.93-.4-.93-.4,0-36.95,23-39.7,23-39.7h.17a4.64,4.64,0,0,0,.51-.11c1.89-.52,3.19-3.31,4-7.29.17-.7.3-1.41.41-2.17.21-1.25.39-2.6.52-4,.08-.85.16-1.68.24-2.54.34-4.23.44-8.83.44-13.19,0,0,5.07.5,9.15.5"/><path class="cls-4" d="M128.24,174.57s-.33.13-.88.4H89.61V106.08h.09c4.08,0,9.17-.5,9.17-.5,0,4.33.09,8.87.45,13.08.08.84.16,1.69.23,2.5.15,1.44.32,2.81.53,4.09v0c.08.58.19,1.1.3,1.63.78,3.86,1.94,6.69,3.62,7.63a2.37,2.37,0,0,0,.41.17,2.31,2.31,0,0,0,.83.16s23,2.75,23,39.7"/><g class="cls-5"><path class="cls-6" d="M100.08,125.26v0a12.19,12.19,0,0,1-10.42,5.65h0a13.19,13.19,0,0,1-10.36-5.62c.21-1.27.4-2.62.53-4q.12-1.26.24-2.55A42.17,42.17,0,0,0,89.5,120h.11a40.22,40.22,0,0,0,9.71-1.34c.08.82.14,1.67.22,2.48.16,1.44.33,2.82.54,4.1"/></g><path class="cls-7" d="M111.73,152.05c-2.37-2.33-3.21-9.3-3.21-16.25a14.57,14.57,0,0,0-2.32-.72c-.43-.09-1.78-.48-1.78-.32,1.85,13-11.06,23-14.43,23.08h-.06l-.19,0-.13,0-.12,0-.19,0h0c-3.38-.11-16.29-10.13-14.44-23.08,0-.16-1.34.23-1.8.32a15.18,15.18,0,0,0-2.3.72c0,6.95-.83,13.92-3.21,16.25-4.56,4.48-8,10.63-6.84,22.92h57.9c1.15-12.29-2.27-18.44-6.83-22.92"/><path class="cls-8" d="M89.58,32.06C50.35,32,50.12,63.4,51.89,83.88c-2.7-4.81-10.66-3-10,4.67.63,7.36,11.87,10.72,11.71,9.9,3.21,16.69,21.7,26,36,27.26a1.51,1.51,0,0,0,.3,0V32.07h-.3"/><path class="cls-6" d="M43.85,85.29a3.91,3.91,0,0,1,5.76-1,3,3,0,0,1,.92,3.42c-.27,1-1.38,1.06-1.11,2.57A2.71,2.71,0,0,0,51,92.44a3.5,3.5,0,0,1,1.36,1.39A3.72,3.72,0,0,1,52.54,96c-.31,1.22-2.19.24-3.43-.29A24.55,24.55,0,0,1,45,92.49c-1.66-1.78-2.44-5.21-1.13-7.2"/><path class="cls-9" d="M89.78,32.06C129,32,129.23,63.4,127.48,83.88c2.69-4.81,10.64-3,10,4.67-.63,7.36-11.86,10.72-11.72,9.9-3.2,16.69-21.69,26-36,27.26a1.62,1.62,0,0,1-.31,0V32.07h.31"/><path class="cls-6" d="M135.79,85.29a3.9,3.9,0,0,0-5.75-1,3,3,0,0,0-.94,3.42c.28,1,1.38,1.06,1.12,2.57a2.74,2.74,0,0,1-1.6,2.19,3.4,3.4,0,0,0-1.34,1.39,3.55,3.55,0,0,0-.17,2.12c.3,1.22,2.16.24,3.43-.29a24,24,0,0,0,4.11-3.17c1.67-1.78,2.46-5.21,1.14-7.2"/><path class="cls-3" d="M89.38,41c-13.1,0-22.68,3.6-28.5,10.7-8.1,9.93-7.78,25.08-4.8,36,.91,3.33,1.38,12.29,2,15.58,2.83,14.71,20,22.55,31.29,22.55h.3V41h-.3"/><path class="cls-4" d="M117.8,51.67C112.05,44.61,102.58,41,89.68,41v84.78c12.91-.14,28.32-8.71,31-22.54.63-3.29,1.09-12.25,2-15.58,3-10.86,3.27-26-4.86-35.94"/><path class="cls-10" d="M96.28,112.43s-3,3.17-6.62,3.17-6.43-3.09-6.43-3.09a42.8,42.8,0,0,1,6.43-.47,57,57,0,0,1,6.62.39"/><path class="cls-11" d="M91.54,111a1.73,1.73,0,0,0-1.88,1.44A1.7,1.7,0,0,0,87.8,111a26,26,0,0,0-4.75,1.47s3.62.37,4.66.37,1.94.41,2-.36c0,.77.76.47,1.78.47s4.84-.48,4.84-.48A26.37,26.37,0,0,0,91.54,111"/><path class="cls-12" d="M128.67,59.81a53.48,53.48,0,0,0-3.53-13.87c-3.88-8.46-11.85-12.06-24.45-17.16-10.16-4.14-14.47-2.62-23.82-.26a7,7,0,0,0-1.76-3c-4.21-4.19-13.19-2.05-20,4.79-6.22,6.2-8.56,14.11-5.82,18.67a43.09,43.09,0,0,0-2.64,9.31c-.08.53-.15,1-.23,1.56C44.85,71,46.3,75.63,47.59,78.14a19,19,0,0,1,1.33,2.66c.66,2.65,1.41,3.52,2.75,6.33a8.93,8.93,0,0,1,2.66,3.65C55.55,94,56,93.42,56,93.42s-1.72-11.17-1.9-15.28c0-.23,0-.43,0-.61,0-2,.92-12,7.58-17.72a8.91,8.91,0,0,1,1-.82c5.61-4.17,15.17-2.4,16.23-2.4.2,0,2.38,1.66,5.5,3.22s6.92,3,10.77,2.78c23.88-1.2,28.91,11.54,29.44,14.2,0,.44-.08.89-.1,1.35-.29,3.3-.64,7.12-.9,9.7-.43,3.07-.82,5.58-.82,5.58s.49.53,1.7-2.64a8.64,8.64,0,0,1,2.22-3.27,35.6,35.6,0,0,1,2-6.71,9.94,9.94,0,0,0,.57-2.66,49.37,49.37,0,0,0,.46-6A103.11,103.11,0,0,0,128.67,59.81Z"/><path class="cls-13" d="M68.72,42.25a2,2,0,0,1-4-.45A2,2,0,0,1,67,40a2,2,0,0,1,1.76,2.23"/><path class="cls-14" d="M58.7,34.1c-1,1-.32,3.14,1.38,4.74s4.86,1,4.86,1,.36-3.14-1.41-4.74-3.86-2.07-4.83-1"/><path class="cls-14" d="M76.32,36.07c.7,1.23-.36,3.14-2.41,4.33s-5-.08-5-.08.39-3.13,2.44-4.31,4.24-1.15,4.95.06"/><path class="cls-14" d="M55.93,42.71c-.08-1.41,1.78-2.65,4.12-2.75s4.4,2.31,4.4,2.31-1.77,2.6-4.13,2.76S56,44.1,55.93,42.71"/><path class="cls-14" d="M77.46,44.82c.37-1.33-1.15-2.94-3.42-3.57s-4.78,1.24-4.78,1.24,1.1,3,3.38,3.64,4.41,0,4.82-1.31"/><path class="cls-14" d="M68.06,30.89c-1.38-.19-2.74,1.54-3.07,3.88s2,4.56,2,4.56,2.78-1.56,3.11-3.91-.57-4.34-2-4.53"/><path class="cls-14" d="M61.16,51.11c-1.16-.76-1.14-3,.14-5s4.41-2.26,4.41-2.26,1.14,3-.12,5-3.22,3-4.43,2.26"/><path class="cls-14" d="M70.61,52.17c1.34-.47,1.8-2.64,1-4.85s-3.8-3.19-3.8-3.19S66,46.78,66.8,49s2.5,3.63,3.81,3.18"/></g></g></svg>