<svg xmlns="http://www.w3.org/2000/svg" viewBox="0 0 174.67 174.58"><defs><style>.cls-1{fill:#442c38;}.cls-2{fill:#dcc5a1;}.cls-3{fill:#edd9b4;}.cls-4,.cls-9{fill:#bc9f82;}.cls-4{opacity:0.7;}.cls-5{fill:#3c1c2b;}.cls-6{fill:#ddca80;}.cls-7{fill:#9d7758;}.cls-8{fill:#ccad8b;}.cls-10{fill:#d9bf9f;}.cls-11{fill:#fcfcfc;}.cls-12{fill:#fff;}.cls-13{fill:#eadb99;}</style></defs><title>Ativo 124ac</title><g id="Camada_2" data-name="Camada 2"><g id="Avatares"><rect class="cls-1" width="174.67" height="174.58" rx="39.41"/><path class="cls-2" d="M83.4,115.1v59.48H47.31l-.88-.34c0-31.9,22.09-34.28,22.09-34.28h0c2.18-.05,3.57-2.57,4.51-6.4.15-.58.27-1.2.38-1.86.2-1.09.38-2.24.5-3.44.08-.73.15-1.45.23-2.2.34-3.65.43-7.62.43-11.38C74.62,114.68,79.48,115.1,83.4,115.1Z"/><path class="cls-3" d="M120.51,174.08v.16l-.48.18h0c-.1.05-.23.09-.35.16H83.4V115.1h.08c3.92,0,8.81-.42,8.81-.42,0,3.74.1,7.65.43,11.29.08.72.15,1.45.23,2.15.15,1.25.3,2.43.5,3.54v0c.08.5.18.95.28,1.4.94,4.11,2.41,6.88,4.68,6.88a20.86,20.86,0,0,1,7.27,2.58C112.11,146.12,120.46,154.53,120.51,174.08Z"/><path class="cls-4" d="M92.3,131.66v0a10.52,10.52,0,0,1-9,4.87h0a11.37,11.37,0,0,1-8.94-4.85c.18-1.09.33-2.25.45-3.45.07-.72.14-1.45.2-2.2a35.8,35.8,0,0,0,8.19,1.07h.1A33.63,33.63,0,0,0,91.64,126c.07.73.14,1.45.21,2.15C92,129.37,92.12,130.55,92.3,131.66Z"/><path class="cls-5" d="M108.69,140.27A112.22,112.22,0,0,1,96,153.22a39.62,39.62,0,0,0-12.07,20.2c0-.07,0-.16-.08-.22-.25-1-.58-2.07-.94-3.11v0a38.24,38.24,0,0,0-11-16.85A113.26,113.26,0,0,1,58.6,139.57a37.22,37.22,0,0,1,5.16-4.6c1.6-1.11,2.77-2,3.67-2.77h0c1.88.48,3.74.91,5.62,1.23a58.74,58.74,0,0,0,11.28,1,55.4,55.4,0,0,0,9.14-.91c1.93-.31,3.83-.75,5.73-1.24h0c.91.73,2,1.58,3.57,2.65A46.78,46.78,0,0,1,108.69,140.27Z"/><path class="cls-6" d="M120.51,174.08a4.9,4.9,0,0,0-.48.34h0c-.1.05-.23.09-.35.16H47.31l-.88-.34c0-14.17,4.35-22.52,9.21-27.42A23.33,23.33,0,0,1,68.52,140h0c1.5,3.53.35,2.85,1.44,5.87a7.83,7.83,0,0,0,2.77,3.33,43.67,43.67,0,0,0,7,10.56,15.64,15.64,0,0,1,3.49,7.35,15.54,15.54,0,0,1,3.49-7.35,44.41,44.41,0,0,0,6.94-10.4c1.51-.89,2.78-1.77,3.64-2.4.56-.39,1.14,3.62,1.75,3a87.17,87.17,0,0,0,6.58-7.41,24,24,0,0,1,5.67,4.33,27.63,27.63,0,0,1,4.7,6.51C118.66,158.27,120.48,165,120.51,174.08Z"/><path class="cls-7" d="M83.83,174c0,.33,0,.54,0,.54l-.53-.28-.56-.26-24-12,8.61-10s-3.7-3.45-5.85-5c-1-.73-3.47-.57-5.82-.21-2.61.39-5.09,1.05-5.29,1.09.33-.43,4.2-5.28,8.25-9.38a37.22,37.22,0,0,1,5.16-4.6c1.6-1.11,2.77-2,3.67-2.77h0c.83-.68,1.49-1.23,2.1-1.7,1.21.45,2.45.84,3.67,1.18,0,.56-.1,1.15-.15,1.75-.1,1-.21,1.88-.33,2.65-.41,2.67-2.61,5.51-2.2,7.77a25.61,25.61,0,0,0,2.23,6.35,43.67,43.67,0,0,0,7,10.56,15.64,15.64,0,0,1,3.49,7.35,27.41,27.41,0,0,1,.58,5.08A17.77,17.77,0,0,1,83.83,174Z"/><path class="cls-7" d="M99.25,152.07l8.61,10-24,12-.55.26-.54.28s0-.21,0-.54a30,30,0,0,1,.2-5v0c.1-.61.2-1.27.36-2a15.54,15.54,0,0,1,3.49-7.35,44.41,44.41,0,0,0,6.94-10.4,28.43,28.43,0,0,0,2.3-6.51c.4-2.26-1.8-5.1-2.2-7.77-.1-.75-.21-1.61-.31-2.52-.07-.59-.12-1.16-.17-1.72,1.28-.35,2.58-.73,3.87-1.19.58.46,1.21,1,2,1.66h0c.91.73,2,1.59,3.57,2.66a46.78,46.78,0,0,1,5.87,5.3c3.77,4,7.24,8.28,7.55,8.68-.21,0-2.44-.64-4.89-1s-5.19-.61-6.25.16C103,148.62,99.25,152.07,99.25,152.07Z"/><path class="cls-8" d="M83.67,46.9c-34.38,0-34.57,28.67-33,47.44-2.36-4.45-9.33-3.08-8.76,3.93.56,6.74,10.4,10.23,10.27,9.45,2.81,15.44,19,24.37,31.53,24.37.08,0,.17,0,.26,0V46.9Z"/><path class="cls-9" d="M44.07,95.3a3.26,3.26,0,0,1,5-.94,2.82,2.82,0,0,1,.8,3.11c-.24.9-1.18,1-.95,2.34a2.42,2.42,0,0,0,1.37,2,3.2,3.2,0,0,1,1.16,1.27,3.4,3.4,0,0,1,.15,1.93c-.26,1.11-1.88.23-3-.27A20.72,20.72,0,0,1,45,101.84C43.6,100.22,42.93,97.1,44.07,95.3Z"/><path class="cls-10" d="M83.83,46.9c34.37,0,34.57,28.67,33,47.44,2.36-4.45,9.33-3.08,8.76,3.93-.55,6.74-10.4,10.23-10.27,9.45-2.81,15.44-19,24.37-31.53,24.37-.08,0-.17,0-.26,0V46.9Z"/><path class="cls-9" d="M123.43,95.3a3.26,3.26,0,0,0-5-.94,2.83,2.83,0,0,0-.8,3.11c.24.9,1.19,1,1,2.34a2.42,2.42,0,0,1-1.37,2,3.2,3.2,0,0,0-1.16,1.27,3.49,3.49,0,0,0-.16,1.93c.27,1.11,1.88.23,3-.27a19.92,19.92,0,0,0,3.55-2.88C123.9,100.22,124.56,97.1,123.43,95.3Z"/><path class="cls-2" d="M83.37,55c-11.31,0-19.58,3.27-24.6,9.73-7,9-6.73,22.81-4.14,32.7.78,3,1.19,11.17,1.73,14.17,2.44,13.37,17.25,20.51,27,20.51l.26,0V55Z"/><path class="cls-3" d="M107.91,64.73c-5-6.42-13.16-9.68-24.28-9.74v77.07c11.14-.11,24.45-7.92,26.73-20.48.55-3,1-11.15,1.75-14.17C114.68,87.54,114.93,73.78,107.91,64.73Z"/><path class="cls-11" d="M98,119.91a9.53,9.53,0,0,0-.87-1.94c-1.48-6-7.12-10.47-14-10.81v0h-.7v0C75.61,107.5,70,112,68.49,118a9,9,0,0,0-.86,1.94c-1.09,3.75-1.6,6.64,1.24,15.58h0s12.87,21.58,27.87,0h0C99.59,126.55,99.08,123.66,98,119.91Zm-17.38-3.58a12.72,12.72,0,0,1,4.38,0c4,.66,5.9,2.76,8.16,5.69-.7.27.13.45-.64.52-2.33.23-7.58-.63-9.36-.94v-.11h-.08l-.27.05-.26-.05h-.09v.11c-1.78.31-7,1.17-9.35.94-.78-.07,0-.25-.65-.52C74.73,119.09,76.61,117,80.62,116.33Z"/><path class="cls-12" d="M116.78,48.82a21,21,0,0,0-8-4.43S99,39.49,91.49,36s-19.66-.7-26,.94S51.66,47.51,49.32,52.41,41.16,68,39.29,75.65s4.42,15.16,8.35,16.75c2.54,1,2.7,7,2.7,7l2.8,1.23a21.7,21.7,0,0,1-1.46-8.4c.16-2.8-.3-11.24-.3-11.24s12-2.38,20.87-4.76c-3,3.64-5.45,6.12-5.45,6.12a32.21,32.21,0,0,0,12.58-8,100.7,100.7,0,0,1-9.57,11.54,33.84,33.84,0,0,0,15.8-11.63A93.58,93.58,0,0,1,73.49,89.79c16.68-5.66,22.58-23.5,23.35-26.06l.14-.12a27.5,27.5,0,0,1,10,5c4.43,3.28,9.88,7.82,9.88,17.63,0,3.28-1.47,12.82-1.47,12.82l1.47-1s0-3.7,4.2-6c3.35-1.85,4.2-8.14,4.2-10.73C125.25,63.85,120.29,52.09,116.78,48.82Z"/><path class="cls-6" d="M84.24,69.6c-37.38,0-67.68-7.6-67.68-17a4.13,4.13,0,0,1,.14-1.09c-2.14,4.4-1.1,10.82,10.84,19.25,0,0,18.12,14.62,80.63,12.27,0,0,45.19-2.22,43.72-29.87C150.71,62.3,120.88,69.6,84.24,69.6Z"/><path class="cls-7" d="M84.24,69.6c36.64,0,66.47-7.3,67.65-16.41,0-.62-.09-1.25-.17-1.89,0-.09-.06-.17-.08-.25C151,60,121.76,67.18,85.78,67.18c-36.37,0-65.86-7.36-65.86-16.43,0-2.24,1.79-4.37,5-6.31-.59.26-1.15.54-1.68.81-2,1.08-5.07,3.17-6.58,6.29a4.13,4.13,0,0,0-.14,1.09C16.56,62,46.86,69.6,84.24,69.6Z"/><path class="cls-13" d="M151.65,50.75c0-7.37-19.45-13.6-46.23-15.69a189.21,189.21,0,0,1,5.17,30.72l-.49.24c24-2.38,41.05-8.17,41.54-15l-.13-.31Z"/><path class="cls-13" d="M67.86,34.93C48.45,36.3,32.68,39.83,25,44.41h0l-.05,0c-3.25,1.94-5,4.07-5,6.31C19.92,57.3,35.29,63,57.53,65.6l-.39-.54A215.1,215.1,0,0,1,67.86,34.93Z"/><path class="cls-6" d="M105.42,35.06C97.53,6.05,86,11.26,86,11.26c-7,2.89-13.22,13-18.09,23.67A215.1,215.1,0,0,0,57.14,65.06l.39.54a243.53,243.53,0,0,0,28.25,1.58c8.6,0,16.8-.41,24.32-1.16l.49-.24A189.21,189.21,0,0,0,105.42,35.06Z"/></g></g></svg>