<svg xmlns="http://www.w3.org/2000/svg" viewBox="0 0 175 174.9"><defs><style>.cls-1{fill:#b9c98e;}.cls-2{fill:none;}.cls-3{fill:#dcc5a1;}.cls-4{fill:#edd9b4;}.cls-5,.cls-8{fill:#bc9f82;}.cls-5{opacity:0.7;}.cls-6{fill:#463e43;}.cls-7{fill:#ccad8b;}.cls-9{fill:#d9bf9f;}.cls-10{fill:#010300;}</style></defs><title>Ativo 154ac</title><g id="Camada_2" data-name="Camada 2"><g id="Avatares"><rect class="cls-1" width="175" height="174.9" rx="39.48"/><path class="cls-2" d="M71.48,82.86a51.68,51.68,0,0,0-9.32,0c-4.61.42-7.86.72-7.4,5.67.64,7.11,4.66,8.24,6,8.54,3.14.69,16.1,1.71,18.77-7a7,7,0,0,0-.07-4.8C79,83.86,73.73,83.06,71.48,82.86Z"/><path class="cls-2" d="M100.13,82.86a51.82,51.82,0,0,1,9.33,0c4.6.42,7.86.72,7.4,5.67-.64,7.11-4.67,8.24-6,8.54-3.14.69-16.1,1.71-18.78-7a7.09,7.09,0,0,1,.08-4.8C92.63,83.86,97.88,83.06,100.13,82.86Z"/><path class="cls-3" d="M85.83,109.8v65.1H50.32l-.87-.37c0-34.92,21.74-37.53,21.74-37.53h0c2.15,0,3.52-2.8,4.44-7,.15-.64.28-1.31.38-2,.2-1.2.37-2.47.5-3.78.07-.79.15-1.59.21-2.41.33-4,.43-8.34.43-12.46C77.19,109.33,82,109.8,85.83,109.8Z"/><path class="cls-4" d="M122.34,174.35v.18l-.47.2h0l-.34.17H85.83V109.8h.08c3.86,0,8.67-.47,8.67-.47,0,4.1.09,8.39.42,12.36.07.79.15,1.59.22,2.36.15,1.37.3,2.66.5,3.87v0c.08.55.18,1,.27,1.53.93,4.5,2.37,7.52,4.61,7.52a19.23,19.23,0,0,1,7.15,2.83C114.08,143.75,122.29,153,122.34,174.35Z"/><path class="cls-5" d="M95.73,127.92v0a11.51,11.51,0,0,1-9.84,5.33h0a12.43,12.43,0,0,1-9.79-5.3c.2-1.19.37-2.46.5-3.78.08-.79.15-1.58.23-2.4a39.37,39.37,0,0,0,9,1.16h.11A36.44,36.44,0,0,0,95,121.69c.08.8.15,1.59.23,2.36C95.38,125.42,95.52,126.71,95.73,127.92Z"/><path class="cls-6" d="M118,151.7a31.05,31.05,0,0,0-4.63-7.13,24.72,24.72,0,0,0-5.58-4.74,91.1,91.1,0,0,1-6.47,8.12c-.6.65-1.18-3.75-1.72-3.32A42.79,42.79,0,0,1,96,147.26a49.77,49.77,0,0,1-6.82,11.39,17.67,17.67,0,0,0-3.44,8c-.11-.58-.24-1.16-.4-1.75.21-4.4.3-8.71.3-8.71a4.14,4.14,0,0,0-1.42,2c.15-3.67.22-6.83.22-6.83a4.42,4.42,0,0,0-1.56,2.4c.11-1.62.16-2.7.16-2.7a6.83,6.83,0,0,0-3.08,2.05c.32-3.67.47-6.83.47-6.83a7.05,7.05,0,0,0-3.9,3.16c-.4-.83-.79-1.65-1.13-2.44a8.37,8.37,0,0,1-2.71-3.65c-1.07-3.3,0-2.56-1.43-6.43h0s-6.72.8-12.67,7.52c-4.79,5.37-9.07,14.5-9.07,30l.87.37H121.5l.34-.17h0a4.62,4.62,0,0,1,.47-.38C122.32,164.38,120.52,157.06,118,151.7ZM67.51,163l-2.8,2-2.4,7s-1.7-4.59-1.4-4.89-5.71.69-5.71.69l3-3.88-2.39-.3-.1-.4c.1-1.69,5.9-8.47,5.9-8.47l.4,2.49,11.2-1-11,4.58Zm29.09,5.79-.1.17c-.61.53-4.83.87-4.83.87l.71-1-4.09-3.41,5.23,2.14-1-2.51,1.61.27,3.15-1.54a10.59,10.59,0,0,1-1.17,2.11,21.18,21.18,0,0,0,2.15,1.67l-2.32.3Zm14.61-9.67-.11.17c-.6.54-4.83.87-4.83.87l.71-1-4.09-3.4,5.23,2.13-1-2.51,1.61.27,3.15-1.54a11.12,11.12,0,0,1-1.17,2.11,20.12,20.12,0,0,0,2.15,1.67l-2.32.3Z"/><path class="cls-7" d="M85.94,35.15c-37.61,0-37.83,31.38-36.15,51.92-2.59-4.88-10.21-3.37-9.59,4.3.6,7.39,11.38,11.2,11.23,10.35,3.08,16.9,20.78,26.66,34.51,26.66h.29V35.15Z"/><path class="cls-8" d="M42.6,88.13a3.57,3.57,0,0,1,5.43-1,3.1,3.1,0,0,1,.88,3.4c-.26,1-1.3,1.07-1,2.57a2.61,2.61,0,0,0,1.5,2.17,3.56,3.56,0,0,1,1.27,1.38,3.9,3.9,0,0,1,.17,2.12c-.29,1.21-2.06.25-3.25-.29a23.76,23.76,0,0,1-3.89-3.15C42.09,93.51,41.36,90.1,42.6,88.13Z"/><path class="cls-9" d="M86.13,35.15c37.62,0,37.83,31.38,36.16,51.92,2.58-4.88,10.21-3.37,9.59,4.3-.61,7.39-11.39,11.2-11.24,10.35-3.09,16.9-20.78,26.66-34.51,26.66h-.29V35.15Z"/><path class="cls-8" d="M129.47,88.13a3.57,3.57,0,0,0-5.43-1,3.1,3.1,0,0,0-.88,3.4c.26,1,1.3,1.07,1,2.57a2.61,2.61,0,0,1-1.51,2.17,3.49,3.49,0,0,0-1.27,1.38,3.8,3.8,0,0,0-.16,2.12c.29,1.21,2.06.25,3.24-.29a23,23,0,0,0,3.89-3.15C130,93.51,130.71,90.1,129.47,88.13Z"/><path class="cls-3" d="M85.61,44C73.23,44,64.18,47.57,58.7,54.65c-7.66,9.87-7.37,25-4.54,35.78.86,3.31,1.3,12.23,1.89,15.51,2.67,14.64,18.89,22.44,29.56,22.44h.3V44Z"/><path class="cls-4" d="M112.48,54.66c-5.44-7-14.4-10.6-26.57-10.66v84.37c12.19-.13,26.76-8.67,29.26-22.43.6-3.28,1-12.2,1.91-15.51C119.89,79.64,120.16,64.57,112.48,54.66Z"/><path class="cls-10" d="M135.61,61.79c-2-17.33-19.44-21.56-23.68-22.34l-.46-.35a13.43,13.43,0,0,1,.63-1.76c1.24-2.86,7.12-1.57,7.12-1.57-1.28-2-4.75-3.37-7.92-2.18s-1.77.21-1.77.21,1.66-1.42-.17-5.86A8.9,8.9,0,0,0,104,22.57s2.67,3.16,2.67,5.92-2.49,7.4-3.85,6.69C100.47,34,100.23,31,100,29.45S101.66,24,101.66,24a52.14,52.14,0,0,1-4.59,3.51,4.78,4.78,0,0,0-1.62,1.75,7.25,7.25,0,0,0,.42-3.76c-.64-2.29-1.18-5.27.79-7.44s9.11-3.56,9.11-3.56-8-.08-10.61.47c-3.48.75-8.83,2.23-12,6.17s.47,9.71-.13,9.33-4.75-4.93-5.14-8.29,0-4.13,0-4.13S69,24.45,71.56,34.39c.85,3.32,1.36,3.6,1.36,3.6L68.6,36.24c-4.33-1.76-6.34-.09-10.68-1.46a7.55,7.55,0,0,1-5-5.91s-1,1.77-.85,5.71,4,5.52,4,5.52A18.24,18.24,0,0,0,51.52,40c-3.56.19-5.84,4.3-5.84,4.3a9.2,9.2,0,0,1,8.74-1.66A5.34,5.34,0,0,1,57.8,45l-.79.76c-7,3.39-18.7,11.56-16,27.48a54.79,54.79,0,0,1,4.68-6.49c-2.47,19.43,15.49,34.82,15.49,34.82C57.34,90.29,56.41,81,57,73.38l-.31-.28.37-.46S60.84,54.1,64.3,64.1q.06.54.15,1A13.73,13.73,0,0,0,69.39,73s-3.09-4.25-.53-10.48a17,17,0,0,1,7.38-7.92l.15-.08a18.35,18.35,0,0,1,5.06-2c-.06.26-4.48,4.76,0,12.2,0,0-.35-4.61.45-7,.73-2.19,3.27-5,6.16-4.93,5.41,2.76,12.87,9.82,6.07,27,0,0,11.91-7.78,16.83-17.66a19,19,0,0,0,2-6.76,42.61,42.61,0,0,1,4.83,17.3c.55,7.51-.47,16.66-4.31,27.66,0,0,26.17-21.76,12.06-46.2C130.88,57.73,135.61,61.79,135.61,61.79Z"/><path class="cls-10" d="M86.83,113.2c-.38,5-9.81,4.5-14.73,4.5,2.46-2.23,8.87-7.26,13.77-7.26A9.2,9.2,0,0,1,86.83,113.2Z"/><path class="cls-10" d="M86.14,113.2c.38,5,9.82,4.5,14.73,4.5-2.45-2.23-8.86-7.26-13.78-7.26A9.53,9.53,0,0,0,86.14,113.2Z"/><path class="cls-10" d="M120.78,102.06c-1.39,2.37-5,2.81-7.7,6.14s-15.3,9-15.3,9-.26,4.92-7.77,4.94c-1.38,0-2.36-2.09-3.46-2h-.06c-1.1,0-2.07,2-3.45,2-7.52,0-7.78-4.94-7.78-4.94s-12.56-5.64-15.3-9-6.31-3.77-7.7-6.14c-1.06-1.79,1.79,8.55,2.77,10.78s3.11,9.6,5.61,13.48a16.78,16.78,0,0,0,4.54,5c.92.91,0-4.44,0-4.44s3.43,5.35,4.79,6.65,9.57,6.28,15,7.94c.42.13.8.22,1.18.31v.1l.19-.05.12,0v0h.08v0l.12,0,.19.05v-.1c.39-.09.76-.18,1.18-.31a59.26,59.26,0,0,0,15-7.94,64,64,0,0,0,4.77-6.65s-.91,5.35,0,4.44a16.75,16.75,0,0,0,4.55-5c2.51-3.88,4.62-11.27,5.61-13.48S121.84,100.27,120.78,102.06Z"/></g></g></svg>