<svg xmlns="http://www.w3.org/2000/svg" xmlns:xlink="http://www.w3.org/1999/xlink" viewBox="0 0 174.99 174.92"><defs><style>.cls-1{fill:none;}.cls-2{fill:#528d6e;}.cls-3{fill:#dcc5a1;}.cls-4{fill:#edd9b4;}.cls-5{clip-path:url(#clip-path);}.cls-6{fill:#bc9f82;}.cls-7{fill:#ccad8b;}.cls-8{fill:#d9bf9f;}.cls-9{fill:#42413c;}.cls-10{fill:#402b26;}.cls-11{fill:#563d38;}.cls-12{fill:#f8f7e0;}.cls-13{fill:#fdfdff;}.cls-14{fill:#211915;}</style><clipPath id="clip-path"><rect class="cls-1" x="78.5" y="118.03" width="21.03" height="12.38"/></clipPath></defs><title>Ativo 88ac</title><g id="Camada_2" data-name="Camada 2"><g id="Avatares"><rect class="cls-2" width="174.99" height="174.92" rx="39.36"/><path class="cls-3" d="M89,105.32v69.55H51c-.61-.27-.94-.39-.94-.39,0-23.26,9-33.1,15.84-37.24a20.83,20.83,0,0,1,7.4-2.86c2.32,0,3.8-3,4.79-7.48a20.13,20.13,0,0,0,.39-2.18c.22-1.27.4-2.62.54-4,.08-.85.16-1.7.24-2.58.34-4.27.45-8.91.45-13.31,0,0,5.11.51,9.23.51"/><path class="cls-4" d="M128,174.48s-.34.12-.91.39H89V105.32H89c4.13,0,9.26-.51,9.26-.51,0,4.37.11,9,.45,13.2.08.86.16,1.71.24,2.53.16,1.46.31,2.83.53,4.14v0c.08.58.19,1.1.3,1.64,1,4.79,2.53,8,4.93,8a21.56,21.56,0,0,1,9.18,4.06c6.49,4.72,14,14.77,14,36"/><g class="cls-5"><path class="cls-6" d="M99.53,124.68v0A12.29,12.29,0,0,1,89,130.41H89a13.23,13.23,0,0,1-10.45-5.68c.21-1.27.4-2.63.53-4,.08-.84.15-1.7.23-2.58a41.46,41.46,0,0,0,9.58,1.26H89A39.83,39.83,0,0,0,98.75,118c.08.85.16,1.7.25,2.51.16,1.47.32,2.84.53,4.14"/></g><path class="cls-7" d="M88.94,30.57c-39.6-.08-39.83,31.64-38.08,52.32-2.72-4.86-10.74-3-10.09,4.72.63,7.45,12,10.82,11.84,10,3.23,16.84,21.89,26.21,36.33,27.54h.29V30.57h-.29"/><path class="cls-6" d="M42.76,84.33a3.92,3.92,0,0,1,5.81-1,3,3,0,0,1,.94,3.45c-.28,1-1.39,1.08-1.12,2.59A2.69,2.69,0,0,0,50,91.53a3.41,3.41,0,0,1,1.35,1.41,3.54,3.54,0,0,1,.18,2.14c-.3,1.23-2.19.24-3.46-.3a22.59,22.59,0,0,1-4.16-3.19c-1.7-1.8-2.47-5.27-1.15-7.26"/><path class="cls-8" d="M89.13,30.57c39.61-.08,39.84,31.64,38.08,52.32,2.72-4.86,10.74-3,10.08,4.72-.63,7.45-12,10.82-11.82,10-3.24,16.84-21.91,26.21-36.34,27.54h-.3V30.57h.3"/><path class="cls-6" d="M135.59,84.33a3.92,3.92,0,0,0-5.81-1,3,3,0,0,0-.94,3.45c.29,1,1.4,1.08,1.11,2.59a2.66,2.66,0,0,1-1.59,2.21A3.48,3.48,0,0,0,127,92.94a3.54,3.54,0,0,0-.18,2.14c.3,1.23,2.19.24,3.45-.3a22.65,22.65,0,0,0,4.17-3.19c1.68-1.8,2.45-5.27,1.14-7.26"/><path class="cls-3" d="M88.73,39.54C75.5,39.54,65.82,43.18,60,50.35c-8.18,10-7.87,25.34-4.84,36.32.91,3.35,1.38,12.4,2,15.72,2.85,14.87,20.17,22.77,31.58,22.77H89V39.56l-.3,0"/><path class="cls-4" d="M117.43,50.36C111.61,43.24,102,39.61,89,39.56v85.59c13-.13,28.61-8.8,31.27-22.76.64-3.32,1.11-12.37,2-15.72,3-11,3.31-26.24-4.91-36.31"/><path class="cls-9" d="M132.06,98.33a2.92,2.92,0,1,1-2.92-2.91,2.91,2.91,0,0,1,2.92,2.91"/><path class="cls-10" d="M99.58,109.89s-4.47,4.78-10,4.78S79.88,110,79.88,110a65,65,0,0,1,9.72-.71,82.35,82.35,0,0,1,10,.61"/><path class="cls-11" d="M92.7,107.79A2.6,2.6,0,0,0,89.87,110c0-1.19-1.28-2.16-2.81-2.16s-7.18,2.2-7.18,2.2,5.45.59,7,.59,2.92.6,3-.55c0,1.15,1.15.71,2.69.71s7.29-.75,7.29-.75-5.59-2.2-7.15-2.2"/><polygon class="cls-12" points="81.9 110.21 83.01 114.82 84.51 110.47 81.9 110.21"/><polygon class="cls-12" points="96.8 110.4 95.68 115.01 94.19 110.66 96.8 110.4"/><path class="cls-13" d="M130.23,42.26c-3.62-5.65-3.89-4-3.89-4s3.64-15.44-19-18.85a51,51,0,0,0-8.89-.27l3.08,3.16A62.92,62.92,0,0,0,73.86,20.6C62.42,22.4,54.6,28.11,48.12,37.42c-4.33,6.23-5.66,15.42-5.66,15.42l5.92-8a40.34,40.34,0,0,0-5.92,27c3.5,26.89,15.8,31.88,15.8,31.88S49.8,87.63,55.38,77.18c9.4-17.53,26.13-18.06,26.13-18.06A23.87,23.87,0,0,0,61.58,77.59a.51.51,0,0,0,0,.09c.16-.55,1.81-5.19,7.92-7.58,3.71-1.44,8.58-1.4,14.16-2.88a30,30,0,0,0-5.93,14s4.92-8,17-12.65l2.26-.86c-3.55,4.64-2.29,12.46-1.15,14,0,0-.42-7,14.73-11.44,8.71-2.54,10.1-7.55,10.1-7.55a27.79,27.79,0,0,0,1.12,8.12c1.36,3.68,5.21,6.08,5.48,9.4.52,6.17-2.77,17.73-2.77,17.73l4.91-3.9c2.53-9,4.91-24.06,4.91-31S133,46.56,130.23,42.26Z"/><path class="cls-14" d="M111.9,137.24a2.56,2.56,0,0,1-.11.24l-23.44,7-23.6-7,0,.06a2,2,0,0,0-.11-.26c-7,4.14-16.2,14-16.2,37.24,0,0,.33.12,1,.39H127.3c.62-.27,1-.39,1-.39C128.26,151.22,118.94,141.38,111.9,137.24Zm-42,4-2,2.47a45.28,45.28,0,0,1-2.92-5.48l22.13,6.58-7.11,2.11Zm19.64,11-8.68-4.86,7.47-2.23,10.52,3.13ZM107.67,145v-.44l-7.84,3.34-10.31-3.06,21.92-6.53A44.63,44.63,0,0,1,107.67,145Z"/><path class="cls-14" d="M90.52,164.16,83.3,166l-1.14-.72c-18.81-11.72-24-22.56-24-22.56l5.42-4.26L59.14,137s1-2,3-5.11a24,24,0,0,1,2.44-2.95,18.55,18.55,0,0,1,4.3-3.27c-.12.23-1.28,2.12,1.54,11.4.21.61.4,1.21.67,1.82a3.7,3.7,0,0,0,.17.4c.14.3.26.57.42.87a.64.64,0,0,0,.08.2c.14.3.27.58.44.88a81.67,81.67,0,0,0,10.1,14c.65.73,1.29,1.42,1.92,2.13.77.88,1.58,1.76,2.35,2.62.47.46.89.95,1.32,1.42l1.47,1.56c.38.41.75.81,1.11,1.22"/><path class="cls-14" d="M90,164.16,97.22,166l1.13-.72c18.81-11.72,24.05-22.56,24.05-22.56L117,138.47l4.39-1.48s-1-2-3.06-5.11a24.76,24.76,0,0,0-2.43-2.95,18.31,18.31,0,0,0-4.31-3.27c.12.23,1.29,2.12-1.54,11.4-.21.61-.4,1.21-.66,1.82-.06.15-.12.27-.17.4-.14.3-.27.57-.42.87a.69.69,0,0,1-.09.2c-.13.3-.27.58-.43.88a81.67,81.67,0,0,1-10.1,14c-.66.73-1.29,1.42-1.92,2.13-.77.88-1.59,1.76-2.36,2.62-.46.46-.88.95-1.32,1.42s-1,1-1.47,1.56L90,164.16"/><path class="cls-12" d="M117.61,166.78c-.58-1.59-2.92-1.28-4.36-1.79-2-.75-3.68-2.68-5.39-3.42,2.1-.73,3.8-1.92,6.29-2.31,1,.41,1.93,1.53,3.41.9.57-1.26-.45-2.1-.91-2.87a3.16,3.16,0,0,0-.17-2.7c-2.22.06-3.23,2.13-4.83,3-1.89,1.08-4.05,1.56-6.12,2.7a26.65,26.65,0,0,0-6.47-2.88c-1-1.26-2.46-3.62-4.49-2.66-.08,2-.11,3.3-1.08,4.64.82,1.69,2.63.3,3.77-.18a21.19,21.19,0,0,1,6.12,2.5c-1.43.18-3.17,2.47-5.39,3.23-1.95.65-5,.27-4.5,2.51.2.8,1.21,1.07,2.5,1.07a2.87,2.87,0,0,0,2,1.6,3.12,3.12,0,0,0,1.44-2.86c2-1.51,3.8-3.25,6.27-4.3,1.94,1.48,4.58,2.31,6,4.3.67,1,.56,2.44,1.95,2.86,0,0,3.11-.06,4.12-2.51C118,167.19,117.86,166.92,117.61,166.78Z"/></g></g></svg>