<svg xmlns="http://www.w3.org/2000/svg" xmlns:xlink="http://www.w3.org/1999/xlink" viewBox="0 0 174.99 174.96"><defs><style>.cls-1{fill:none;}.cls-2{fill:#bcca33;}.cls-3{clip-path:url(#clip-path);}.cls-4{fill:#bc9f82;}.cls-5{fill:#dcc5a1;}.cls-6{fill:#edd9b4;}.cls-7{fill:#f8f7e0;}.cls-8{fill:#211915;}.cls-9{fill:#837395;}.cls-10{fill:#ccad8b;}.cls-11{fill:#d9bf9f;}.cls-12{fill:#895a59;}</style><clipPath id="clip-path"><rect class="cls-1" x="79.55" y="113.88" width="22.58" height="13.3"/></clipPath></defs><title>Ativo 118ac</title><g id="Camada_2" data-name="Camada 2"><g id="Avatares"><rect class="cls-2" width="174.99" height="174.92" rx="39.35"/><g class="cls-3"><path class="cls-4" d="M102.13,121v0a13.16,13.16,0,0,1-11.3,6.13h0c-6.49,0-10.27-4.72-11.23-6.09.22-1.37.42-2.82.57-4.32.09-.92.18-1.83.24-2.77a46,46,0,0,0,10.3,1.33h.12a42.14,42.14,0,0,0,10.51-1.45c.09.91.18,1.83.27,2.71.16,1.57.34,3,.57,4.44"/></g><path class="cls-5" d="M90.78,100.23V175H50l-1-.43C49,134.44,74,131.46,74,131.46c2.49,0,4.09-3.19,5.15-8,.17-.75.32-1.53.43-2.34.22-1.37.42-2.82.57-4.32.09-.92.18-1.83.24-2.77.39-4.59.5-9.58.5-14.3,0,0,5.48.53,9.92.53"/><path class="cls-6" d="M132.68,174.52s-.38.14-1,.43H90.78V100.23h.08c4.44,0,10-.53,10-.53,0,4.69.11,9.62.48,14.18.09.91.18,1.83.27,2.71.16,1.57.34,3,.57,4.44v0c.08.64.19,1.21.31,1.77,1.06,5.16,2.72,8.64,5.29,8.64,0,0,25,3,25,43.06"/><path class="cls-7" d="M110.16,155.12c.17,2.35-7.2,13-12.59,19.84H84.14c-5.4-6.81-12.76-17.49-12.61-19.87.15-2.06,0-21.42,1.31-23.05h0l18,19.5,16.88-20.08s1.25,1,2,1.76c.28.3-2,16.12-1.77,16.41a9,9,0,0,1,2.15,5.49"/><path class="cls-8" d="M84,174.94H50c-.63-.25-1-.42-1-.42,0-2.19.08-4.27.23-6.28a64.52,64.52,0,0,1,.91-7.46A59,59,0,0,1,52,153.29c.17-.48.35-.94.52-1.39a42.93,42.93,0,0,1,2.78-6.07A33.06,33.06,0,0,1,60,139.42c.34-.37.69-.73,1-1.08a26.58,26.58,0,0,1,11.87-6.69c0,.14-.06.26-.09.37a36.53,36.53,0,0,0,0,12.64c0,.17,0,.35.06.52.06.38.1.71.19,1.1a.63.63,0,0,0,0,.23c.06.35.15.74.23,1.12a55.92,55.92,0,0,0,2.49,9.14c.88,2.39,2.37,5.78,4.08,9.52.29.68.6,1.3.89,2,.17.35.32.7.5,1,.42.89.88,1.8,1.28,2.74.14.29.28.57.4.86l.1.2c.32.62.61,1.22.86,1.79,0,0,.06,0,.06.08"/><path class="cls-8" d="M97.73,174.94h34c.62-.25,1-.42,1-.42,0-2.19-.08-4.27-.23-6.28a60.35,60.35,0,0,0-.92-7.46,57.37,57.37,0,0,0-1.85-7.49c-.17-.48-.34-.94-.51-1.39a41.83,41.83,0,0,0-2.79-6.07,32.25,32.25,0,0,0-4.71-6.41c-.33-.37-.68-.73-1-1.08a26.51,26.51,0,0,0-11.86-6.69c0,.14.06.26.09.37a36.8,36.8,0,0,1,0,12.64c0,.17,0,.35,0,.52-.06.38-.11.71-.19,1.1a.63.63,0,0,1,0,.23c-.06.35-.15.74-.23,1.12a55.92,55.92,0,0,1-2.49,9.14c-.89,2.39-2.37,5.78-4.09,9.52-.29.68-.59,1.3-.89,2-.17.35-.31.7-.47,1-.44.89-.89,1.8-1.3,2.74-.13.29-.28.57-.39.86a1.16,1.16,0,0,0-.12.2c-.32.62-.6,1.22-.85,1.79,0,0-.06,0-.06.08"/><path class="cls-9" d="M89.27,175h-8c-.35-.37-.68-.71-1-1-16.43-17.19-19-29.87-19-29.87l6.77-3-4.16-2.71s1.62-1.81,4.54-4.5a26.57,26.57,0,0,1,3.33-2.42,20,20,0,0,1,5.36-2.26c-.19.21-1.91,1.87-1.45,12.27,0,.7.08,1.36.19,2.07A4.34,4.34,0,0,0,76,144c.06.36.12.68.2,1a.66.66,0,0,0,0,.23c.06.35.13.68.22,1,1.24,5.22,3.87,11.37,6.76,17.22.48.95,1,1.83,1.43,2.74.57,1.11,1.18,2.25,1.74,3.35.36.61.67,1.23,1,1.83s.73,1.33,1.11,2c.28.52.55,1,.83,1.56"/><path class="cls-9" d="M92.71,175h7.94c.37-.37.67-.71,1-1,16.28-17.19,18.79-29.87,18.79-29.87l-6.71-3,4.15-2.71s-1.62-1.81-4.52-4.5a26.6,26.6,0,0,0-3.29-2.42,15.19,15.19,0,0,0-5.24-1.89c.19.22,1.82,1.5,1.37,11.9-.06.7-.09,1.36-.19,2.07,0,.18-.06.32-.09.46-.06.36-.12.68-.19,1a.66.66,0,0,1,0,.23c-.06.35-.14.68-.22,1-1.23,5.22-3.83,11.37-6.7,17.22-.46.95-1,1.83-1.41,2.74-.55,1.11-1.18,2.25-1.73,3.35-.35.61-.65,1.23-1,1.83l-1.09,2c-.28.52-.55,1-.83,1.56"/><path class="cls-10" d="M90.89,14.54c-43.17,0-43.41,36-41.49,59.6-3-5.6-11.72-3.85-11,4.94.7,8.48,13.08,12.87,12.9,11.86,3.53,19.43,23.86,30.62,39.6,30.62h.34v-107h-.34"/><path class="cls-4" d="M41.16,75.36a4.1,4.1,0,0,1,6.23-1.19,3.57,3.57,0,0,1,1,3.91c-.31,1.13-1.5,1.22-1.19,2.93a3,3,0,0,0,1.71,2.49,4,4,0,0,1,1.45,1.59,4.18,4.18,0,0,1,.19,2.43c-.32,1.4-2.35.28-3.71-.32a25.61,25.61,0,0,1-4.46-3.63c-1.83-2-2.66-6-1.23-8.21"/><path class="cls-11" d="M91.11,14.54c43.17,0,43.42,36,41.5,59.6,3-5.6,11.72-3.85,11,4.94-.69,8.48-13.06,12.87-12.89,11.86-3.54,19.43-23.86,30.62-39.61,30.62h-.33v-107h.33"/><path class="cls-4" d="M140.86,75.36a4.12,4.12,0,0,0-6.25-1.19,3.59,3.59,0,0,0-1,3.91c.31,1.13,1.5,1.22,1.21,2.93a3,3,0,0,1-1.73,2.49,4.21,4.21,0,0,0-1.47,1.59,4.34,4.34,0,0,0-.17,2.43c.32,1.4,2.35.28,3.72-.32a26.78,26.78,0,0,0,4.46-3.63c1.82-2,2.64-6,1.23-8.21"/><path class="cls-5" d="M90.79,20.84c-14.2,0-24.6,4.12-30.89,12.23-8.8,11.34-8.47,28.65-5.22,41.08,1,3.8,1.5,14,2.19,17.79,3.06,16.8,21.66,25.76,33.92,25.76h.34V20.86l-.34,0"/><path class="cls-6" d="M121.63,33.09C115.38,25,105.1,20.92,91.13,20.86v96.83c14-.16,30.7-10,33.58-25.75.69-3.77,1.2-14,2.19-17.79,3.22-12.4,3.54-29.69-5.27-41.06"/><path class="cls-12" d="M109.6,104.42h0s0-.05,0-.08c0-.33-.07-.66-.13-1l-.21-.47a7.67,7.67,0,0,0-1.22-2.36,7.39,7.39,0,0,0-.67-.76h0a7,7,0,0,0-1.78-1.27h-.07l-5.66-4L99.21,94,99,93.86h0a14,14,0,0,0-7.62-2.21l-.48,0-.49,0a14,14,0,0,0-7.61,2.21h0l-.21.15-.64.44-5.66,4h-.06a6.5,6.5,0,0,0-1.78,1.27h0a7.4,7.4,0,0,0-.67.77,7.9,7.9,0,0,0-1.22,2.36c-.06.15-.14.31-.21.47,0,.35-.09.68-.13,1,0,0,0,.05,0,.08h0a18.85,18.85,0,0,0,0,3.67c.57,5.63,1.2,11.26,7.34,19.77,1.89,2.62,10.27,7.86,10.27,7.86l.73.57H92s8.37-5.71,10.26-8.43c6-8.61,6.78-14.14,7.35-19.77A18.09,18.09,0,0,0,109.6,104.42Zm-8.72,1.3v4.41a3.12,3.12,0,0,1-6.23,0v-4.41a3.25,3.25,0,0,1,.16-.94c-1.79-.25-3.24-.52-3.24-.52h0l-.65,0-.66,0h0s-1.45.27-3.24.52a2.94,2.94,0,0,1,.16.94v4.41a3.11,3.11,0,0,1-6.22,0v-4.41a3.16,3.16,0,0,1,.15-.92l-.15-.08.41-.52a3,3,0,0,1,.66-.81,9.39,9.39,0,0,1,6.08-3.65,14.87,14.87,0,0,1,2.34-.2h.23v0h.51v0h.23a15.31,15.31,0,0,1,2.35.2,9.39,9.39,0,0,1,6.07,3.65,3,3,0,0,1,.66.81l.42.52-.16.08A3.17,3.17,0,0,1,100.88,105.72Z"/><path class="cls-12" d="M134.74,58.58a54.57,54.57,0,0,1-.49,6.46,11.76,11.76,0,0,1-.6,2.84,37.32,37.32,0,0,0-2.14,7.18,9.14,9.14,0,0,0-2.38,3.5c-1.29,3.38-1.81,2.81-1.81,2.81s.41-2.68.88-6c.27-2.76.65-6.85,1-10.38,0-.48.08-1,.11-1.44-.57-2.84-5.95-16.46-31.47-15.18-4.11.19-8.27-1.34-11.51-3S80.62,42,80.4,42c-1.12,0-11.34-1.89-17.34,2.56a9.28,9.28,0,0,0-1.07.88c-7.12,6.14-8.1,16.81-8.1,18.94,0,.19,0,.41,0,.65.19,4.4,2,16.33,2,16.33s-.49.57-1.81-2.81a9.38,9.38,0,0,0-2.85-3.91c-1.43-3-2.21-3.93-2.93-6.77A18.62,18.62,0,0,0,46.92,65c-1.36-2.68-2.93-7.61-1.28-19.59.08-.56.16-1.1.25-1.67,1.26-8.19,7.5-26.58,24-29.86s20.32-7.13,33.8-1.64,22,9.31,26.13,18.35c1.87,4.12,3.07,9.68,3.78,14.82A109.29,109.29,0,0,1,134.74,58.58Z"/></g></g></svg>