<svg xmlns="http://www.w3.org/2000/svg" viewBox="0 0 174.37 174.29"><defs><style>.cls-1{fill:#894a24;}.cls-2{fill:#28210d;}.cls-3{fill:#453514;}.cls-4{fill:#3b2812;}.cls-5{fill:#dcc5a1;}.cls-6{fill:#edd9b4;}.cls-7,.cls-9{fill:#bc9f82;}.cls-7{opacity:0.7;}.cls-8{fill:#ccad8b;}.cls-10{fill:#d9bf9f;}.cls-11{fill:#b47070;}.cls-12{fill:#c17874;}.cls-13{fill:#4b3018;}.cls-14{fill:#4b3118;}.cls-15{fill:#326535;}.cls-16{fill:#4f8e3a;}</style></defs><title>Ativo 96ac</title><g id="Camada_2" data-name="Camada 2"><g id="Avatares"><rect class="cls-1" width="174.37" height="174.29" rx="39.27"/><path class="cls-2" d="M70.15,89c-2.11,4.65-5.06,9.34-4.29,13.53,2.69,14.64,1.31,42.61,8.94,43.9,1.46.24-5.39-29.31-5.21-44.41-.77-4.19,1.71-6.74,3.82-11.39C73,88.49,73,88.49,70.15,89Z"/><path class="cls-3" d="M69.6,85.41c-2.07,4.63-4.86,9.16-4.46,13.71,1.45,15.94-1.37,45.39,5.07,47.89,1.24.47-2.88-31.87-1.85-47.87-.42-4.56,1.86-6.89,3.93-11.51-.2-2.28-.2-2.28-2.69-2.22Z"/><path class="cls-3" d="M74.81,85.41c-2.06,4.63-4.87,9.16-4.46,13.71C71.8,115.06,69,144.51,75.42,147c1.24.47-2.89-31.87-1.85-47.87-.42-4.56,1.86-6.89,3.93-11.51-.21-2.28-.21-2.28-2.69-2.22Z"/><path class="cls-3" d="M77,85.25C75,89.86,72.15,94.4,72.56,99c1.45,15.94-1.37,45.39,5.07,47.89,1.24.48-2.89-31.88-1.85-47.87-.42-4.56,1.86-6.9,3.93-11.51-.2-2.29-.2-2.29-2.69-2.21Z"/><path class="cls-2" d="M71.42,92.21c-2.48,4.42-5.7,8.76-5.7,13.19,0,15.5-5.48,44,.73,46.61,1.19.5,0-31,2.49-46.52,0-4.43,2.48-6.64,5-11.07,0-2.21,0-2.21-2.49-2.21Z"/><path class="cls-2" d="M84.05,92.21c-2.48,4.42-5.69,8.76-5.69,13.19,0,15.5-5.49,44,.72,46.61,1.19.5,0-31,2.49-46.52,0-4.43,2.48-6.64,5-11.07,0-2.21,0-2.21-2.49-2.21Z"/><path class="cls-4" d="M68.83,87.29c-2.48,4.28-5.69,8.48-5.69,12.76,0,15-5.49,42.57.72,45.07,1.19.48,0-30,2.49-45,0-4.29,2.48-6.43,5-10.71,0-2.14,0-2.14-2.48-2.14Z"/><path class="cls-2" d="M107.4,89.5c2.1,4.64,5.06,9.34,4.29,13.52-2.69,14.65-1.3,42.61-8.93,43.9-1.47.25,5.38-29.3,5.21-44.4.76-4.19-1.73-6.75-3.84-11.4.39-2.08.39-2.08,3.27-1.62Z"/><path class="cls-3" d="M110.53,87c2.48,4.57,5.69,9,5.69,13.58,0,16,5.49,45.3-.73,48-1.19.51,0-31.91-2.48-47.86,0-4.56-2.48-6.84-5-11.4,0-2.28,0-2.28,2.5-2.28Z"/><path class="cls-3" d="M108,86c2.07,4.62,4.87,9.16,4.46,13.71-1.45,15.94,1.37,45.39-5.08,47.89-1.23.47,2.9-31.87,1.86-47.88.42-4.55-1.86-6.89-3.93-11.51.2-2.27.2-2.27,2.69-2.21Z"/><path class="cls-3" d="M102.74,86c2.07,4.62,4.87,9.16,4.46,13.71-1.45,15.94,1.37,45.39-5.08,47.89-1.23.47,2.9-31.87,1.86-47.88.42-4.55-1.86-6.89-3.93-11.51.2-2.27.2-2.27,2.69-2.21Z"/><path class="cls-3" d="M100.53,85.79C102.6,90.4,105.4,95,105,99.5c-1.44,15.94,1.38,45.39-5.06,47.89-1.24.47,2.88-31.88,1.85-47.87.41-4.56-1.86-6.9-3.93-11.52.21-2.28.21-2.28,2.69-2.21Z"/><path class="cls-2" d="M106.13,92.75c2.48,4.43,5.69,8.77,5.69,13.2,0,15.5,5.5,44-.72,46.6-1.19.5,0-31-2.49-46.52,0-4.42-2.48-6.63-5-11.07,0-2.21,0-2.21,2.49-2.21Z"/><path class="cls-2" d="M93.5,92.75c2.49,4.43,5.69,8.77,5.69,13.2,0,15.5,5.49,44-.72,46.6-1.19.5,0-31-2.48-46.52,0-4.42-2.49-6.63-5-11.07,0-2.21,0-2.21,2.48-2.21Z"/><path class="cls-4" d="M108.71,87.83c2.49,4.29,5.71,8.48,5.71,12.77,0,15,5.48,42.57-.73,45.07-1.19.47,0-30-2.49-45,0-4.28-2.49-6.42-5-10.71,0-2.14,0-2.14,2.48-2.14Z"/><path class="cls-5" d="M88,109.28v65H52.55c-.58-.28-.87-.4-.87-.4,0-1.86,0-3.61.17-5.28,1.47-21.19,11.7-28.5,17.52-31a16.72,16.72,0,0,1,4-1.19h.18a2.63,2.63,0,0,0,.47-.1c1.79-.49,3-3.12,3.83-6.86.15-.66.27-1.33.37-2,.19-1.22.37-2.47.49-3.78.08-.77.16-1.59.23-2.41.32-4,.42-8.32.42-12.4C79.36,108.84,84.13,109.28,88,109.28Z"/><path class="cls-6" d="M124.42,173.87a7.65,7.65,0,0,0-.84.4H88v-65h.07c3.85,0,8.65-.44,8.65-.44,0,4.06.1,8.34.42,12.3.08.8.16,1.58.23,2.36.15,1.36.29,2.67.5,3.86v0c.07.52.17,1,.27,1.5.75,3.67,1.84,6.35,3.43,7.21a2.1,2.1,0,0,0,.37.18,3,3,0,0,0,.8.12,16.72,16.72,0,0,1,4,1.19c5.91,2.53,16.41,10,17.59,32.1C124.4,171.05,124.42,172.43,124.42,173.87Z"/><path class="cls-7" d="M97.84,127.38v0A11.44,11.44,0,0,1,88,132.73h0a12.39,12.39,0,0,1-9.76-5.3c.19-1.19.37-2.45.49-3.77.08-.79.15-1.59.22-2.4a38.35,38.35,0,0,0,9,1.16H88a36.3,36.3,0,0,0,9.15-1.26c.07.8.15,1.59.22,2.35C97.49,124.88,97.64,126.16,97.84,127.38Z"/><path class="cls-8" d="M88,39.49C51,39.42,50.74,69,52.39,88.35c-2.54-4.53-10-2.85-9.42,4.41.58,6.95,11.18,10.1,11,9.33,3,15.74,20.46,24.48,33.94,25.72a2.64,2.64,0,0,1,.28,0V39.49Z"/><path class="cls-9" d="M44.82,89.69a3.65,3.65,0,0,1,5.42-1,2.81,2.81,0,0,1,.88,3.21c-.26.94-1.3,1-1,2.43a2.54,2.54,0,0,0,1.49,2.06A2.83,2.83,0,0,1,53,99.74c-.29,1.14-2.06.23-3.24-.28a22.72,22.72,0,0,1-3.88-3C44.31,94.8,43.58,91.56,44.82,89.69Z"/><path class="cls-10" d="M88.12,39.49c37-.07,37.21,29.55,35.57,48.86,2.53-4.53,10-2.85,9.43,4.41-.6,6.95-11.2,10.1-11.05,9.33-3,15.74-20.46,24.48-33.95,25.72a2.45,2.45,0,0,0-.27,0V39.49Z"/><path class="cls-9" d="M131.51,89.69a3.65,3.65,0,0,0-5.42-1,2.84,2.84,0,0,0-.88,3.21c.27.94,1.31,1,1.05,2.43a2.52,2.52,0,0,1-1.5,2.06,2.84,2.84,0,0,0-1.43,3.32c.29,1.14,2,.23,3.23-.28a22,22,0,0,0,3.89-3C132,94.8,132.75,91.56,131.51,89.69Z"/><path class="cls-5" d="M87.75,47.87c-12.35,0-21.4,3.39-26.87,10.09-7.64,9.36-7.34,23.65-4.52,33.91.86,3.14,1.29,11.59,1.89,14.69,2.67,13.88,18.85,21.27,29.5,21.27H88v-80Z"/><path class="cls-6" d="M114.56,58c-5.43-6.66-14.37-10-26.52-10.11v80c12.16-.13,26.71-8.23,29.2-21.27.6-3.1,1-11.55,1.9-14.69C122,81.64,122.23,67.36,114.56,58Z"/><path class="cls-11" d="M94.26,115.29s-2.8,3-6.24,3S82,115.35,82,115.35A40,40,0,0,1,88,114.9,50.48,50.48,0,0,1,94.26,115.29Z"/><path class="cls-12" d="M89.79,113.92A1.62,1.62,0,0,0,88,115.26a1.61,1.61,0,0,0-1.76-1.34,24.85,24.85,0,0,0-4.47,1.37s3.41.36,4.38.36S88,116,88,115.3c0,.74.72.45,1.69.45s4.55-.46,4.55-.46A25.12,25.12,0,0,0,89.79,113.92Z"/><path class="cls-2" d="M107.6,50.18c2.81,6.73,6.39,13.42,6.56,19.8.64,22.31,7.61,64.13,1.13,67-1.24.55-1.25-44.63-4.51-67.31-.19-6.37-2.91-9.91-5.73-16.63-.08-3.18-.08-3.18,2.55-2.84Z"/><path class="cls-3" d="M119,54.17c2.65,5.95,6.08,11.77,6.08,17.71,0,20.81,5.87,59.09-.77,62.55-1.28.66,0-41.62-2.66-62.42,0-6-2.65-8.92-5.31-14.87,0-3,0-3,2.66-3Z"/><path class="cls-2" d="M117.41,74.92c0,23.5,4.89,66.72-.65,70.62-1.05.76.62-36.57-2-67.73C112.2,47.32,89.28,52.87,87.07,46.16c0-3.36,11.15.89,13.17,1.71C116.64,54.5,117.41,68.2,117.41,74.92Z"/><path class="cls-2" d="M121,74.4c-.78,23.49,2.67,66.83-3,70.59-1.08.72,1.83-36.55.25-67.76-1.54-30.55-24.64-25.62-26.63-32.4.12-3.36,11.12,1.21,13.12,2.07C120.91,54,121.21,67.7,121,74.4Z"/><path class="cls-3" d="M118.59,69.28c0,23.5,4.89,66.72-.64,70.64-1.06.74.61-36.59-2-67.75-2.57-30.49-26.1-25.07-28.31-31.79,0-3.35,11.76,1,13.78,1.85C117.82,48.86,118.59,62.57,118.59,69.28Z"/><path class="cls-4" d="M116.48,71.88c0,24,5,68.24-.66,72.24-1.09.77.63-37.42-2-69.29-2.63-31.18-26.06-25.51-28.32-32.39,0-3.43,11.4.93,13.46,1.76C115.69,51,116.48,65,116.48,71.88Z"/><path class="cls-13" d="M122.67,69.46c0,24,5,68.25-.67,72.25-1.08.76.63-37.42-2-69.29-2.63-31.19-29.47-25.64-31.73-32.51,0-3.44,14.81,1,16.87,1.89C121.87,48.58,122.67,62.59,122.67,69.46Z"/><path class="cls-4" d="M124.63,59.89c7.13,22.6,5,63,.87,68.09-.79,1,3.83-24-2-60.79C118.78,36.91,89.22,42,86.74,39.73c-2.64-2.37,11-1.89,13.19-1.61C117.7,40.44,122.6,53.43,124.63,59.89Z"/><path class="cls-4" d="M116.34,78.07c0,24,5,68.24-.65,72.24-1.09.77.63-37.42-2-69.29C111,49.84,87.58,55.51,85.31,48.64c0-3.43,11.41.92,13.47,1.76C115.56,57.18,116.34,71.2,116.34,78.07Z"/><path class="cls-13" d="M115,81.42c0,24,3.9,68.25-.52,72.25-.85.76.49-37.42-1.61-69.29-2-31.19-23-25.64-24.8-32.51,0-3.43,11.58,1.05,13.2,1.89C114.35,60.54,115,74.55,115,81.42Z"/><path class="cls-2" d="M66.81,49.57c-2.56,6.83-5.89,13.64-5.84,20,.17,22.33-5.27,64.37,1.31,67,1.25.51-.37-44.65,2.08-67.42-.06-6.38,2.53-10,5.1-16.83,0-3.19,0-3.19-2.65-2.75Z"/><path class="cls-3" d="M57,53.73c-2.66,6-6.09,11.77-6.09,17.71,0,20.82-5.87,59.08.78,62.55,1.26.66,0-41.62,2.65-62.43,0-5.94,2.66-8.91,5.32-14.85,0-3,0-3-2.66-3Z"/><path class="cls-2" d="M58.55,74.48c0,23.5-4.88,66.72.65,70.63,1.06.75-.63-36.59,2-67.75,2.56-30.49,25.48-24.94,27.69-31.64,0-3.36-11.15.89-13.17,1.71C59.32,54.06,58.55,67.76,58.55,74.48Z"/><path class="cls-2" d="M55,74c.79,23.5-2.65,66.83,3,70.59,1.07.71-1.84-36.55-.26-67.76,1.54-30.56,24.63-25.63,26.62-32.4-.11-3.36-11.11,1.2-13.11,2.08C55.06,53.54,54.74,67.25,55,74Z"/><path class="cls-3" d="M57.37,68.84c0,23.5-4.89,66.72.64,70.63,1.06.75-.61-36.59,2-67.74,2.56-30.49,26.32-24.3,28.54-31,0-3.35-12,.27-14,1.1C58.14,48.42,57.37,62.13,57.37,68.84Z"/><path class="cls-4" d="M59.49,71.43c0,24-5,68.25.66,72.26,1.07.76-.64-37.43,2-69.3C64.81,43.2,88.25,48.88,90.52,42c0-3.44-11.41.92-13.48,1.75C60.27,50.55,59.49,64.57,59.49,71.43Z"/><path class="cls-4" d="M59.35,77.62c0,24-5,68.25.67,72.26,1.08.76-.64-37.43,2-69.3C64.68,49.39,88.12,55.07,90.38,48.2c0-3.44-11.4.92-13.47,1.76C60.15,56.73,59.35,70.76,59.35,77.62Z"/><path class="cls-14" d="M53.3,69c0,24-5,68.26.66,72.25C55,142,53.32,103.85,56,72c2.62-31.2,30.63-25.14,32.89-32,0-3.44-16,.55-18,1.38C54.09,48.14,53.3,62.15,53.3,69Z"/><path class="cls-14" d="M60.74,81c0,24-3.92,68.25.51,72.25.85.77-.5-37.42,1.6-69.29,2.05-31.19,23.94-25.14,25.71-32,0-3.44-12.48.55-14.09,1.38C61.35,60.1,60.74,74.11,60.74,81Z"/><path class="cls-4" d="M51.33,59.45c-7.12,22.6-5,63-.87,68.09.79,1-3.82-24,2-60.8,4.76-30.27,34.32-25.22,36.81-27.45S78.23,37.4,76,37.68C58.26,40,53.36,53,51.33,59.45Z"/><path class="cls-15" d="M106.73,137.61C105,141.87,100.14,150,88,150.34H88a17.92,17.92,0,0,1-13.2-5.56c-.15-4.87-.33-8.63-.33-8.63a14.25,14.25,0,0,0-3.83.65,9.75,9.75,0,0,0-3.06,1.68h0c-6.43,3.44-15.89,12.38-15.89,35.39,0,0,.29.12.87.4h71a7.65,7.65,0,0,1,.84-.4C124.42,148.59,113,140.29,106.73,137.61Z"/><path class="cls-16" d="M107.91,63.5A10.46,10.46,0,0,1,97.43,74H59.1A10.46,10.46,0,0,1,48.62,63.5h0A10.46,10.46,0,0,1,59.1,53.06H97.43A10.47,10.47,0,0,1,107.91,63.5Z"/><path class="cls-15" d="M133.08,78.85c-2.51-9.5-9-23.28-13.59-29.68a19.8,19.8,0,0,0-3-3.3,3.22,3.22,0,0,0,1-1.78c.21-1.89,1.14-5.77-1.58-4.4-2.56,1.28.56,2-.93,4.09-1.56-2.14-6.54-6.55-22.45-12.44-22.91-8.49-28.84-1.26-36.41,2.52s-7.89,7.54-7,10S51,54,52.59,56s8.53-.78,22.1,11.14S116,84.81,124.23,95.92s12,7.44,12,7.44,1-2.2,1.89-4.72S136.54,92,133.08,78.85Z"/></g></g></svg>