<svg xmlns="http://www.w3.org/2000/svg" xmlns:xlink="http://www.w3.org/1999/xlink" viewBox="0 0 175 174.92"><defs><style>.cls-1{fill:none;}.cls-2{fill:#895a59;}.cls-3{fill:#dcc5a1;}.cls-4{fill:#edd9b4;}.cls-5{clip-path:url(#clip-path);}.cls-6{fill:#bc9f82;}.cls-7{fill:#f8f7e0;}.cls-8{fill:#7491c6;}.cls-9{fill:#ccad8b;}.cls-10{fill:#d9bf9f;}.cls-11{fill:#b47070;}.cls-12{fill:#c17874;}.cls-13{fill:#010300;}</style><clipPath id="clip-path"><rect class="cls-1" x="78.4" y="118.72" width="20.41" height="12.02"/></clipPath></defs><title>Ativo 109ac</title><g id="Camada_2" data-name="Camada 2"><g id="Avatares"><rect class="cls-2" width="175" height="174.92" rx="39.35"/><path class="cls-3" d="M88.54,106.39v67.49H51.72l-.91-.38c0-22.88,9-32.37,15.62-36.26a19.83,19.83,0,0,1,6.93-2.66c2.25,0,3.69-2.88,4.64-7.25.16-.67.29-1.38.39-2.12.21-1.23.39-2.53.52-3.9.08-.83.15-1.65.22-2.51.35-4.14.45-8.65.45-12.91,0,0,5,.5,9,.5"/><path class="cls-4" d="M126.4,173.5s-.33.12-.87.38h-37V106.39h.08c4,0,9-.5,9-.5,0,4.24.1,8.71.43,12.81.08.83.16,1.66.24,2.45.16,1.41.31,2.75.51,4v0c.08.57.19,1.08.29,1.61,1,4.64,2.45,7.78,4.78,7.78a19.82,19.82,0,0,1,6.87,2.63c6.64,3.85,15.67,13.36,15.67,36.29"/><g class="cls-5"><path class="cls-6" d="M98.8,125.17v0a11.9,11.9,0,0,1-10.2,5.55h-.06a12.84,12.84,0,0,1-10.14-5.51c.2-1.24.38-2.55.51-3.92.08-.81.15-1.65.24-2.51A39.43,39.43,0,0,0,88.44,120h.1a38.33,38.33,0,0,0,9.52-1.31c.07.82.15,1.64.22,2.43.16,1.43.31,2.77.52,4"/></g><path class="cls-7" d="M126.61,173.91s-.34.13-.89.39H50.82l-.9-.39c0-23.21,9.25-32.17,16-36.11-1.41,7.53,10.38,10.44,22.3,10.29,11.68-.13,23.08-3.31,22.25-10.46,6.74,3.91,16.16,13,16.16,36.28"/><path class="cls-8" d="M114.12,153.83c-1.32-1.16-3.49-1.61-6.08-1.42V134.57l-4.74-1.21V153.3a32.71,32.71,0,0,0-6,2.43c-6.1,3.21-8.25,2.69-9.19,2.89a.2.2,0,0,1-.11,0c-.86-.08-3,.43-9.3-2.91a33,33,0,0,0-5.06-2.16V134.36L69,135.57v16.92c-2.73-.33-5.06,0-6.56,1-2,4.91-3.31,11.54-3.31,20.49l.7.35h56.84l.68-.35C117.3,165.23,116,158.71,114.12,153.83Z"/><path class="cls-9" d="M88.52,33.85c-38.44-.08-38.65,30.7-37,50.76-2.63-4.7-10.43-3-9.78,4.58.61,7.24,11.62,10.5,11.47,9.71,3.15,16.35,21.26,25.44,35.27,26.73h.29V33.85h-.29"/><path class="cls-6" d="M43.7,86a3.83,3.83,0,0,1,5.65-1,3,3,0,0,1,.9,3.35c-.27,1-1.35,1-1.09,2.51A2.65,2.65,0,0,0,50.72,93a3.48,3.48,0,0,1,1.33,1.36,3.58,3.58,0,0,1,.17,2.08c-.3,1.19-2.14.24-3.37-.29a22.46,22.46,0,0,1-4-3.1c-1.65-1.74-2.41-5.11-1.12-7"/><path class="cls-10" d="M88.7,33.85c38.44-.08,38.67,30.7,37,50.76,2.65-4.7,10.44-3,9.8,4.58-.61,7.24-11.63,10.5-11.48,9.71-3.14,16.35-21.25,25.44-35.27,26.73h-.28V33.85h.28"/><path class="cls-6" d="M133.8,86a3.82,3.82,0,0,0-5.64-1,3,3,0,0,0-.92,3.35c.28,1,1.36,1,1.1,2.51A2.66,2.66,0,0,1,126.77,93a3.38,3.38,0,0,0-1.31,1.36,3.5,3.5,0,0,0-.18,2.08c.29,1.19,2.13.24,3.37-.29a22.12,22.12,0,0,0,4-3.1c1.65-1.74,2.4-5.11,1.12-7"/><path class="cls-3" d="M88.31,41.44C75.47,41.44,66.1,45,60.39,51.93c-7.93,9.73-7.63,24.59-4.71,35.24.9,3.26,1.36,12,2,15.26,2.77,14.43,19.58,22.1,30.65,22.1l.3,0V41.46l-.3,0"/><path class="cls-4" d="M116.17,51.82c-5.64-6.92-14.92-10.44-27.56-10.49v83.06c12.65-.13,27.76-8.54,30.35-22.08.61-3.23,1.08-12,2-15.27,2.92-10.62,3.2-25.46-4.77-35.22"/><path class="cls-11" d="M95,113.21s-2.91,3.08-6.48,3.08-6.3-3-6.3-3a42.09,42.09,0,0,1,6.3-.46,53.11,53.11,0,0,1,6.48.4"/><path class="cls-12" d="M90.39,111.77a1.7,1.7,0,0,0-1.85,1.42,1.68,1.68,0,0,0-1.83-1.42,25.76,25.76,0,0,0-4.64,1.44s3.54.36,4.55.36,1.9.41,1.92-.35c0,.76.75.47,1.75.47s4.73-.48,4.73-.48a25.87,25.87,0,0,0-4.63-1.44"/><path class="cls-13" d="M133.5,57.48a10.25,10.25,0,0,0-.87-1.64c-.76-5.76-4.86-17.3-8.87-23.09-4.17-6-14.39-11.36-27.54-12.95s-24.58,7.68-24.58,7.68-2-3-3.77-3.91-6.74.17-6.74.17,3.39,1,4.06,1.83a3.62,3.62,0,0,1,.66,3.26s-3.95-1.71-5.69-1.75C57,27,53.4,31,53.4,31s3-2.09,5.84-2a15.53,15.53,0,0,1,3.51,1.25s-4.71.5-13.53,10.12c-6.66,7.26-6.66,16.86-6.66,16.86L48.14,54A14.94,14.94,0,0,0,46,57.48c-4.11,10.2,1.52,20.42,1.52,20.42S49.35,78.09,51,82a76.38,76.38,0,0,1,3.68,11.9h2S52.45,77.5,55.29,68.56c.79-2.45,2.92-7.5,5.87-7.67A10.67,10.67,0,0,0,64,55.81c.86-3.38,5.4-9,7.83-10.09a3.27,3.27,0,0,1,3.83.53A26,26,0,0,1,86.43,42c7-1.24,10.79,6.2,12.31,10.1s.73,5.84.73,5.84,3-4.78,2.62-9.56a12,12,0,0,0-.8-3.65c.91.46,4.86,1.56,5.68,11.79.38,4.85-4,8.15-4,8.15s9.78-4,7.75-16.48c2.09,2.23,4.23,5.4,4.8,7.62.86,3.37,8.18,11.21,8.68,12.75,2.84,8.94-1.37,25.35-1.37,25.35h2A77,77,0,0,1,128.47,82c1.67-3.92,3.52-4.11,3.52-4.11S137.61,67.68,133.5,57.48ZM100.3,42.9a1,1,0,0,0-.15-.21l.17.17Z"/></g></g></svg>