<svg xmlns="http://www.w3.org/2000/svg" viewBox="0 0 175 175.02"><defs><style>.cls-1{fill:#895a59;}.cls-2{fill:#dcc5a1;}.cls-3{fill:#edd9b4;}.cls-4,.cls-7{fill:#bc9f82;}.cls-4{opacity:0.7;}.cls-5{fill:#4d1913;}.cls-6{fill:#ccad8b;}.cls-8{fill:#d9bf9f;}.cls-9{fill:#fdfbf8;}.cls-10{fill:#a1556b;}.cls-11{fill:#fff;}</style></defs><title>Ativo 161ac</title><g id="Camada_2" data-name="Camada 2"><g id="Avatares"><rect class="cls-1" width="175" height="174.93" rx="39.39"/><path class="cls-2" d="M91.53,110.68V175H56.44l-.87-.36c0-34.51,21.49-37.09,21.49-37.09,2.14,0,3.52-2.75,4.43-6.91.15-.64.27-1.3.37-2,.2-1.18.37-2.43.49-3.72.08-.79.14-1.58.22-2.38.32-4,.42-8.24.42-12.31C83,110.22,87.71,110.68,91.53,110.68Z"/><path class="cls-3" d="M127.61,174.65s-.32.12-.83.36H91.53V110.68h.08c3.81,0,8.56-.46,8.56-.46,0,4,.1,8.29.42,12.21.07.79.15,1.57.22,2.33.15,1.35.3,2.62.49,3.83v0c.07.54.17,1,.27,1.52.91,4.44,2.34,7.43,4.55,7.43C106.12,137.56,127.61,140.14,127.61,174.65Z"/><path class="cls-4" d="M101.3,128.59v0a11.33,11.33,0,0,1-9.72,5.27h0a12.23,12.23,0,0,1-9.67-5.25c.2-1.18.37-2.43.49-3.72.08-.79.14-1.58.22-2.38a38.51,38.51,0,0,0,8.86,1.15h.1a36.64,36.64,0,0,0,9.06-1.25c.07.79.15,1.57.22,2.33C101,126.11,101.11,127.38,101.3,128.59Z"/><path class="cls-5" d="M68.62,104.41c-.67-.51-12.94-8-12.94-8,.84,4.7,1.47,6.62.24,9.8-1.11,2.87-3.23,4-4.41,5a9.3,9.3,0,0,1-4.4,1.77,12.7,12.7,0,0,1-1.8-.16s2,1.08,6.84.87a7.71,7.71,0,0,0,4.2-1.2c-1,1.56-1.87,3.79-.85,5.85,3.69,7.51-1.24,10-1.24,10s4.37-.44,6.87-2.63a1,1,0,0,0,0,.17c1.11,3.76,4,4.19,4,4.19s-1.84-.32-1.49-3.81c.1-.93,1.07-1.29,2.27-1.92.47,3.37,2,6.81-1.16,8.21,0,0,5.34-1,6.31-4.21a12,12,0,0,0,.36-1.65c.08.29.2.57.26.88.76,4-2.31,7.93-2.31,7.93s11.07-1.17,11.15-5.55a22.78,22.78,0,0,1,.48-4.35c.34-1,1-6,1-6S69.3,104.91,68.62,104.41Z"/><path class="cls-5" d="M114.46,104.41c.68-.51,12.94-8,12.94-8-.84,4.7-1.47,6.62-.24,9.8,1.11,2.87,3.23,4,4.41,5a9.34,9.34,0,0,0,4.4,1.77,12.7,12.7,0,0,0,1.8-.16s-2,1.08-6.84.87a7.77,7.77,0,0,1-4.2-1.2c1,1.56,1.87,3.79.85,5.85-3.69,7.51,1.24,10,1.24,10s-4.37-.44-6.87-2.63c0,0,0,.12,0,.17-1.11,3.76-4,4.19-4,4.19s1.84-.32,1.49-3.81c-.1-.93-1.06-1.29-2.27-1.92-.47,3.37-2,6.81,1.16,8.21,0,0-5.33-1-6.31-4.21a13.66,13.66,0,0,1-.36-1.65c-.09.29-.19.57-.26.88-.75,4,2.31,7.93,2.31,7.93s-11.07-1.17-11.15-5.55a22.78,22.78,0,0,0-.48-4.35c-.34-1-1-6-1-6S113.79,104.91,114.46,104.41Z"/><path class="cls-6" d="M91.63,36.89c-37.18,0-37.39,31-35.73,51.31-2.55-4.8-10.1-3.32-9.48,4.26.6,7.3,11.25,11.07,11.1,10.22C60.58,119.39,78.07,129,91.63,129l.29,0V36.9Z"/><path class="cls-7" d="M48.8,89.25a3.51,3.51,0,0,1,5.36-1A3,3,0,0,1,55,91.6c-.26,1-1.29,1-1,2.53a2.65,2.65,0,0,0,1.49,2.15,3.46,3.46,0,0,1,1.25,1.36,3.62,3.62,0,0,1,.16,2.09c-.27,1.2-2,.24-3.2-.28a22.41,22.41,0,0,1-3.85-3.12C48.29,94.58,47.57,91.2,48.8,89.25Z"/><path class="cls-8" d="M91.81,36.89c37.18,0,37.39,31,35.74,51.31,2.55-4.8,10.09-3.32,9.48,4.26-.6,7.3-11.26,11.07-11.11,10.22-3,16.71-20.54,26.36-34.11,26.36l-.28,0V36.9Z"/><path class="cls-7" d="M134.65,89.25a3.52,3.52,0,0,0-5.37-1,3.06,3.06,0,0,0-.87,3.36c.26,1,1.29,1,1,2.53A2.61,2.61,0,0,1,128,96.28a3.32,3.32,0,0,0-1.25,1.36,3.63,3.63,0,0,0-.17,2.09c.29,1.2,2,.24,3.21-.28a22.34,22.34,0,0,0,3.84-3.12C135.15,94.58,135.88,91.2,134.65,89.25Z"/><path class="cls-2" d="M91.31,45.64c-12.24,0-21.19,3.54-26.61,10.53-7.57,9.75-7.28,24.67-4.48,35.36.85,3.27,1.29,12.09,1.88,15.33C64.73,121.33,80.76,129,91.31,129l.28,0V45.64Z"/><path class="cls-3" d="M117.86,56.18c-5.38-6.94-14.23-10.48-26.27-10.54V129c12-.12,26.45-8.57,28.93-22.16.58-3.24,1-12.06,1.88-15.33C125.18,80.86,125.46,66,117.86,56.18Z"/><path class="cls-5" d="M132.25,67.06a9.35,9.35,0,0,0-.78-1.51c-.72-5.29-4.47-15.88-8.15-21.19-3.83-5.53-13.22-10.42-25.27-11.88s-22.56,7-22.56,7S73.63,36.75,72,35.94s-6.19.15-6.19.15S69,37,69.56,37.78a3.3,3.3,0,0,1,.62,3S66.55,39.2,65,39.16c-2.92-.08-6.2,3.61-6.2,3.61a10.62,10.62,0,0,1,5.36-1.85,14.31,14.31,0,0,1,3.23,1.15s-4.32.45-12.42,9.29C48.8,58,48.8,66.83,48.8,66.83l5.12-2.93a13.28,13.28,0,0,0-2,3.16c-3.77,9.35,1.39,18.73,1.39,18.73S55,86,56.57,89.56A70.59,70.59,0,0,1,60,100.48h1.8s-3.87-15.06-1.27-23.25c.73-2.26,2.68-6.89,5.39-7a9.73,9.73,0,0,0,2.59-4.66c.79-3.1,5-8.28,7.18-9.26a3,3,0,0,1,3.51.49,24,24,0,0,1,9.91-3.9c6.39-1.14,9.9,5.69,11.3,9.27s.67,5.36.67,5.36,2.72-4.39,2.4-8.78a11,11,0,0,0-.73-3.35c.83.42,4.47,1.44,5.2,10.83.36,4.45-3.67,7.48-3.67,7.48s9-3.7,7.12-15.13c1.91,2,3.88,4.95,4.4,7,.79,3.1,7.51,10.29,8,11.71,2.61,8.19-1.26,23.25-1.26,23.25h1.79a70,70,0,0,1,3.39-10.92c1.54-3.6,3.22-3.77,3.22-3.77S136,76.41,132.25,67.06ZM101.79,53.67a1.18,1.18,0,0,0-.13-.18l.15.14Z"/><path class="cls-9" d="M127.76,174.66s-.29.11-.86.36H56.31l-.88-.36c0-1,0-2.07,0-3,.11-2.26.3-4.4.57-6.36a41.69,41.69,0,0,1,.86-4.69c.13-.66.3-1.29.47-1.93.25-.86.49-1.69.76-2.51.22-.65.47-1.29.72-1.91a32.43,32.43,0,0,1,2.38-4.83A26.51,26.51,0,0,1,66.4,143a23.25,23.25,0,0,1,4.36-3.16.24.24,0,0,0,.1,0,.06.06,0,0,1,0,0A17.56,17.56,0,0,0,73.79,143c1.67,1.64,4.08,3.8,7.16,6.35.2.15.42.35.63.52,6.39,5.15,13.67,5.15,20,0,.22-.17.44-.37.64-.52,3.09-2.55,5.51-4.71,7.18-6.35a18.46,18.46,0,0,0,2.88-3.24,0,0,0,0,1,0,0l.12,0a23.25,23.25,0,0,1,4.36,3.16,27,27,0,0,1,5.17,6.35,30.58,30.58,0,0,1,2.36,4.83c.25.62.49,1.26.71,1.91.3.82.55,1.65.79,2.51.18.64.32,1.27.47,1.93a46.93,46.93,0,0,1,.83,4.69c.27,2,.47,4.1.57,6.36C127.74,172.59,127.76,173.62,127.76,174.66Z"/><path class="cls-10" d="M73.79,143c1.67,1.64,4.08,3.8,7.16,6.35H61.23A26.51,26.51,0,0,1,66.4,143Z"/><path class="cls-10" d="M122,149.39H102.24c3.09-2.55,5.51-4.71,7.18-6.35h7.39A27,27,0,0,1,122,149.39Z"/><path class="cls-10" d="M91,157.57a7.56,7.56,0,1,0,0,15.11,7.83,7.83,0,0,0,1.75-.2h0A7.61,7.61,0,0,0,98,168a6.24,6.24,0,0,0,.3-.86,7.8,7.8,0,0,0,.27-2A7.56,7.56,0,0,0,91,157.57Z"/><path class="cls-11" d="M94.33,165.13a3.73,3.73,0,0,0-3.08-2.87h-.31a.82.82,0,0,0-.88.69V163a4.09,4.09,0,0,1,1.34.4h0l.24.1a4.06,4.06,0,0,1,1.73,1.73,5,5,0,0,0-2.14-1.6,4.1,4.1,0,0,0-.7-.23l-.28-.06h0c-.34-.12-.34.19-.36.43s-.05.31-.21.26-.23.06-.34.22l-1,1.39a1.81,1.81,0,0,0-.19.3c-.78.44-.36.7-.32.72h0s.16,0,.16,0a1.76,1.76,0,0,1,.13.25.62.62,0,0,1,0,.13l0,0a1,1,0,0,0,0,.76h0l0,0v0l0,0,.08.05.12,0a.43.43,0,0,0,.25-.13h0c.15-.18.08-.5,0-.78,0,0,0,0,0,0a.38.38,0,0,1,.21-.46.11.11,0,0,1,.14,0,.2.2,0,0,1,0,.19h0a.47.47,0,0,0,0,.35h0l0,0,0,0h.06a.24.24,0,0,0,.11-.06h0a.49.49,0,0,0,0-.36h0a.19.19,0,0,1,0-.19h0l0,0h0a.1.1,0,0,0,.08,0h0a.2.2,0,0,0,0-.19.13.13,0,0,1,.05.15h0a.31.31,0,0,0,0,.25h0v0h.06a.1.1,0,0,0,.08-.05h0c.06-.06,0-.16,0-.26h0a.17.17,0,0,1,0-.12.11.11,0,0,1,.18,0,.2.2,0,0,1,0,.11h0c0,.12-.07.26,0,.33h0l0,0H90a.14.14,0,0,0,.1-.06h0c.07-.07,0-.22,0-.34h0a.18.18,0,0,1,.09-.21h0l.47,0c1.16-.09,2-.18,2.6-.27C94.43,165.83,94.34,165.19,94.33,165.13Zm-5.2,1c-.17.06-.35,0-.38-.07s.08-.22.26-.28.34,0,.38.06S89.31,166.06,89.13,166.13Zm1.37-2.29c.25,0,.44.19.41.32s-.25.21-.49.17S90,164.14,90,164,90.25,163.8,90.5,163.84Zm.1,1.78c-.4.14-.79.09-.87-.13s.18-.52.59-.66.79-.08.86.14S91,165.48,90.6,165.62Zm1.64.29c-.24.08-.47.05-.52-.08s.12-.31.35-.4.47,0,.53.09S92.48,165.82,92.24,165.91Z"/></g></g></svg>