<svg xmlns="http://www.w3.org/2000/svg" viewBox="0 0 174.99 175.87"><defs><style>.cls-1{fill:#f4f1c5;}.cls-13,.cls-2{fill:none;}.cls-3{fill:#4f1719;}.cls-4{fill:#dcc5a1;}.cls-5{fill:#edd9b4;}.cls-6,.cls-9{fill:#bc9f82;}.cls-6{opacity:0.7;}.cls-7{fill:#5a4f51;}.cls-8{fill:#ccad8b;}.cls-10{fill:#d9bf9f;}.cls-11{fill:#b47070;}.cls-12{fill:#c17874;}.cls-13{stroke:#ecd000;stroke-miterlimit:10;stroke-width:0.75px;}.cls-14{fill:#81181a;}</style></defs><title>Ativo 146ac</title><g id="Camada_2" data-name="Camada 2"><g id="Avatares"><rect class="cls-1" y="0.1" width="174.99" height="175.77" rx="39.46"/><polyline class="cls-2" points="131.91 0 128.99 0 126.06 0 103.66 0"/><path class="cls-3" d="M130,79.56s2.58,23.16-2,33.44-12,22.31-19.5,25.94-28.29,4.38-41,10.6-20.43,9-19.9,14.32a10,10,0,0,0,4.73,7.62S37,166.31,37,155.54s5.83-15.48,9.36-20.71C57.12,118.89,49,97.24,49,97.24S60.26,56.6,61.42,56.67s38.16-13.56,42.74-10.58S130,79.56,130,79.56Z"/><path class="cls-4" d="M91.46,110.68v65.19H55.9L55,175.5a61.89,61.89,0,0,1,1.63-14.89c5-20.88,20.15-22.69,20.15-22.69H77a2.89,2.89,0,0,0,.47-.11c1.79-.49,3-3.13,3.84-6.9.14-.65.27-1.32.37-2,.2-1.19.37-2.47.5-3.78.08-.79.15-1.59.23-2.41.32-4,.42-8.35.42-12.48C82.81,110.2,87.6,110.68,91.46,110.68Z"/><path class="cls-5" d="M128,175.5s-.32.13-.84.37H91.46V110.68h.08c3.86,0,8.68-.48,8.68-.48,0,4.11.1,8.4.42,12.38.08.8.15,1.59.23,2.36.15,1.37.3,2.66.5,3.88v0c.07.55.17,1,.28,1.55.74,3.65,1.84,6.33,3.43,7.23a3,3,0,0,0,.38.15,2.15,2.15,0,0,0,.8.15,5.71,5.71,0,0,1,.7.12c2.31.5,9.9,2.79,15.29,12C125.57,155.58,128,163.72,128,175.5Z"/><path class="cls-6" d="M101.36,128.83v0a11.53,11.53,0,0,1-9.85,5.34h-.05a12.39,12.39,0,0,1-9.81-5.32c.2-1.19.38-2.46.5-3.78.08-.79.15-1.58.23-2.41a38.93,38.93,0,0,0,9,1.17h.1a37.46,37.46,0,0,0,9.17-1.26c.08.79.15,1.58.23,2.36C101,126.31,101.16,127.61,101.36,128.83Z"/><path class="cls-7" d="M130.92,159.07s-10.32-20.31-24.71-21.15c-.37,0,10.7,16.13-4,19.88a37.58,37.58,0,0,1-10.62,1.12h-.08a37.62,37.62,0,0,1-10.62-1.12c-14.75-3.75-3.67-19.91-4-19.88-14.39.84-24.72,21.15-24.72,21.15l4.57,1.54,6.43,2.17a42.3,42.3,0,0,0-2.37,13.09H122.3a42.65,42.65,0,0,0-2.37-13.09l6.43-2.17Z"/><path class="cls-8" d="M91.43,40.62c-37.12-.08-37.34,29.65-35.69,49-2.55-4.56-10.07-2.87-9.46,4.42.59,7,11.24,10.14,11.08,9.36,3,15.8,20.54,24.57,34.07,25.82h.28V40.62Z"/><path class="cls-9" d="M48.15,91a3.69,3.69,0,0,1,5.44-1,2.87,2.87,0,0,1,.88,3.24c-.26.93-1.31,1-1,2.44a2.57,2.57,0,0,0,1.51,2.07,2.84,2.84,0,0,1,1.43,3.32c-.28,1.15-2,.23-3.24-.28a22,22,0,0,1-3.9-3C47.63,96.12,46.9,92.87,48.15,91Z"/><path class="cls-10" d="M91.61,40.62c37.13-.08,37.34,29.65,35.69,49,2.55-4.56,10.07-2.87,9.45,4.42-.59,7-11.22,10.14-11.08,9.36-3,15.8-20.53,24.57-34.06,25.82h-.28V40.62Z"/><path class="cls-9" d="M135.16,91a3.7,3.7,0,0,0-5.45-1,2.87,2.87,0,0,0-.87,3.24c.26.93,1.3,1,1,2.44a2.58,2.58,0,0,1-1.5,2.07c-.45.36-1,.63-1.27,1.31a3.35,3.35,0,0,0-.17,2c.29,1.15,2.06.23,3.25-.28a22.36,22.36,0,0,0,3.9-3C135.67,96.12,136.4,92.87,135.16,91Z"/><path class="cls-4" d="M91.23,49c-12.39,0-21.47,3.41-27,10.14-7.67,9.38-7.38,23.73-4.55,34,.87,3.15,1.3,11.63,1.91,14.75,2.67,13.92,18.91,21.34,29.6,21.34h.29V49Z"/><path class="cls-5" d="M118.14,59.17C112.69,52.49,103.72,49.08,91.52,49v80.24c12.21-.13,26.81-8.25,29.31-21.33.6-3.12,1-11.6,1.91-14.75C125.56,82.92,125.84,68.59,118.14,59.17Z"/><path class="cls-11" d="M97.76,116.69s-2.8,3-6.25,3-6.1-2.92-6.1-2.92a39.6,39.6,0,0,1,6.1-.46A50.55,50.55,0,0,1,97.76,116.69Z"/><path class="cls-12" d="M93.27,115.31a1.61,1.61,0,0,0-1.76,1.35,1.62,1.62,0,0,0-1.77-1.35,25.19,25.19,0,0,0-4.5,1.38s3.43.37,4.41.37,1.84.38,1.86-.35c0,.73.71.45,1.69.45s4.56-.47,4.56-.47A24.77,24.77,0,0,0,93.27,115.31Z"/><path class="cls-13" d="M58.51,105.41a2.61,2.61,0,1,1-2.61-2.6A2.61,2.61,0,0,1,58.51,105.41Z"/><path class="cls-13" d="M128,105.41a2.61,2.61,0,1,1-2.6-2.6A2.6,2.6,0,0,1,128,105.41Z"/><path class="cls-14" d="M52.9,86.35s.3.91.75,2.55a53.53,53.53,0,0,1,1.43,6.84,44.5,44.5,0,0,1,.51,4.67,44.11,44.11,0,0,1,.07,5.3,39.42,39.42,0,0,1-.63,5.7,21.2,21.2,0,0,1-.64,2.9L54,115.77l-.09.36,0,.09-.08.23-.06.16-.26.67-1,2.64A24.35,24.35,0,0,1,51,122.63a32.1,32.1,0,0,1-3.34,4.85,33.59,33.59,0,0,1-3.78,3.84,30.46,30.46,0,0,1-3.76,2.94,32.84,32.84,0,0,1-3.36,2.12c-1,.61-1.94,1.09-2.7,1.45-1.53.74-2.42,1.11-2.42,1.11s.65-.71,1.83-1.91,2.88-2.87,4.77-4.93c1-1,1.94-2.17,3-3.35s1.92-2.58,3-3.9a42.15,42.15,0,0,0,2.53-4.41c.36-.77.78-1.42,1.12-2.31l1-2.66.26-.66.07-.16v-.05c-.09.27,0,.05,0,.1l0-.07.09-.33.37-1.29a24.86,24.86,0,0,0,.67-2.57c.2-.86.4-1.73.58-2.57s.28-1.72.42-2.57c.22-1.69.44-3.34.59-4.93s.28-3.1.35-4.51c.17-2.85.32-5.21.43-6.87S52.9,86.35,52.9,86.35Z"/><path class="cls-14" d="M54.5,105.41s.37,1,.87,2.67a12.85,12.85,0,0,1,.67,3.16,23.64,23.64,0,0,1,.18,4.4,25.17,25.17,0,0,1-.78,5.13c-.27.9-.53,1.81-.8,2.75s-.77,1.78-1.16,2.7a41.11,41.11,0,0,1-2.95,5.34c-1.13,1.66-2.34,3.38-3.6,4.94s-2.56,3.13-3.83,4.53-2.44,2.8-3.51,4.13c-2.13,2.65-3.65,5.11-4.07,7.46a11.16,11.16,0,0,0-.08,3.45c.12.53.24,1,.33,1.53s.29.91.42,1.32c.26.81.58,1.43.74,1.87l.28.7-.61-.42A12.76,12.76,0,0,1,35,159.73l-1.09-1.11c-.36-.44-.7-1-1.09-1.53s-.67-1.24-1-2a11.36,11.36,0,0,1-.57-2.46,13.21,13.21,0,0,1,.44-5.68,24.36,24.36,0,0,1,2.42-5.51,50.2,50.2,0,0,1,3.38-5c1.2-1.58,2.42-3.09,3.61-4.6s2.34-3,3.53-4.46c1-1.49,2.22-2.89,3.07-4.35L49.05,121c.39-.72.76-1.42,1.12-2.11a11.79,11.79,0,0,0,1-2c.29-.69.57-1.34.85-2,.53-1.29.76-2.49,1.17-3.6a22.63,22.63,0,0,0,.69-3.06C54.22,106.41,54.5,105.41,54.5,105.41Z"/><path class="cls-14" d="M128.79,90.13l.34.61a7.72,7.72,0,0,1,.87,1.8,10.23,10.23,0,0,1,.69,3.14,13.9,13.9,0,0,1-.25,4.19,29.35,29.35,0,0,1-4,9.5c-1,1.58-2,3.16-3,4.71s-2.06,3.12-3.09,4.7-2,3.14-3,4.68-2,3.05-2.67,4.6c-.41.76-.8,1.5-1.18,2.23l-1,2.2c-.71,1.42-1,2.85-1.57,4.14s-.63,2.56-1,3.67a18.66,18.66,0,0,0-.53,2.92c-.25,1.65-.43,2.63-.43,2.63s-.24-.93-.57-2.62a14.36,14.36,0,0,1-.38-3.08,24.43,24.43,0,0,1,.06-4.07,28.37,28.37,0,0,1,.84-4.77c.23-.83.48-1.68.72-2.56s.67-1.68,1-2.56a59.63,59.63,0,0,1,5.5-10.15c1-1.55,2.14-3.21,3.29-4.73s2.24-2.94,3.31-4.36a41.39,41.39,0,0,0,4.89-7.89,16.21,16.21,0,0,0,1.08-3.46,13.42,13.42,0,0,0,.26-2.85,11.16,11.16,0,0,0-.17-1.93C128.82,90.37,128.79,90.13,128.79,90.13Z"/><path class="cls-3" d="M52,64.52C52,57.28,55.1,54.93,57.11,51.4s6.46-7.72,8.46-9.46S69.72,38,69.72,38a22.7,22.7,0,0,1,8-3.57c4.62-1,6,.17,10.31,1.82q.81.31,1.44.63c2.66-2.45,2.63-2.67,5.59-3.82,5.53-2.18,8.76,1,8.76,1l-3.23.48a15.39,15.39,0,0,1,9.53,2.16c4.31,2.86,5.81,5.2,5.81,5.2s-6.21-1.4-2.2,0a32.21,32.21,0,0,1,10.76,6.44c3.23,2.86,6.62,6.89,8.16,11.09s-.78-2.19-3.85-4.54a21.68,21.68,0,0,0-5.54-3.19s4.21,4.14,7.85,12.6c2.21,5.17,4.51,12,3.78,23.15-1.16,17.79-9.64,24.28-9.64,24.28A13.2,13.2,0,0,0,128,107a14,14,0,0,0,.34-5.8c-.16.84-8.53,13.11-8.53,13.11A30.54,30.54,0,0,0,124,92.34a19.07,19.07,0,0,0-4.44-8.5c-.33-.43-.6-.85-.89-1.27C114.62,87.71,107,89.89,107,89.89s4.94-5.28,5.56-9.15.34-11.88-4-16.43c-.59-.61-1.28-1.25-2-1.88a14.85,14.85,0,0,1,0,12.84,13,13,0,0,1-4.3,4.94c-4.37,3.72-11,6.09-18.44,6.09a32.84,32.84,0,0,1-10-1.54h0c-.52-.17-1-.35-1.51-.54-5.29-1.68-22-5.24-14,20.46l.07.38h0a71.13,71.13,0,0,0,4.42,12.84s-4.15-7.33-7.54-13.38-3.8-11.69-3.49-19.37c.06-1.58.18-2.94.35-4.24a7.47,7.47,0,0,1-1.16,1.3c-2.77,2.35-5,2.31-5,2.31S52.21,80.88,52,64.52Z"/></g></g></svg>