<svg xmlns="http://www.w3.org/2000/svg" xmlns:xlink="http://www.w3.org/1999/xlink" viewBox="0 0 175 174.93"><defs><style>.cls-1{fill:none;}.cls-2{fill:#82acc6;}.cls-3{fill:#dcc5a1;}.cls-4{fill:#edd9b4;}.cls-5{clip-path:url(#clip-path);}.cls-6{fill:#bc9f82;}.cls-7{fill:#f8f7e0;}.cls-8{fill:#211915;}.cls-9{fill:#ccad8b;}.cls-10{fill:#d9bf9f;}</style><clipPath id="clip-path"><rect class="cls-1" x="74.19" y="113.07" width="22.69" height="13.36"/></clipPath></defs><title>Ativo 98ac</title><g id="Camada_2" data-name="Camada 2"><g id="Avatares"><rect class="cls-2" width="175" height="174.93" rx="39.36"/><path class="cls-3" d="M85.47,99.37v75H44.53l-1-.43c0-25.43,10-36,17.36-40.3a21.71,21.71,0,0,1,7.7-3c2.5,0,4.1-3.2,5.17-8.06.17-.74.31-1.53.42-2.35.24-1.38.44-2.83.58-4.35.08-.91.18-1.83.26-2.78.38-4.61.49-9.61.49-14.36,0,0,5.51.56,10,.56"/><path class="cls-4" d="M127.56,174s-.37.14-1,.43H85.47v-75h.08c4.45,0,10-.56,10-.56,0,4.72.11,9.68.49,14.25.08.92.16,1.83.25,2.72.17,1.58.35,3,.57,4.47v0c.09.62.21,1.19.32,1.77,1.07,5.17,2.73,8.66,5.32,8.66a21.62,21.62,0,0,1,7.63,2.93c7.38,4.27,17.43,14.84,17.43,40.33"/><g class="cls-5"><path class="cls-6" d="M96.88,120.25v0a13.28,13.28,0,0,1-11.35,6.16h-.06c-6.51,0-10.31-4.75-11.28-6.13.23-1.37.43-2.84.57-4.36.09-.9.18-1.83.27-2.78a44.17,44.17,0,0,0,10.33,1.36h.11A42.68,42.68,0,0,0,96,113.07c.09.92.17,1.83.25,2.71.17,1.59.35,3.07.59,4.47"/></g><path class="cls-7" d="M128.1,174s-.38.14-1,.43H43.85l-1-.43c0-25.81,10.28-35.77,17.77-40.14-1.57,8.37,11.53,11.6,24.78,11.44,13-.15,25.67-3.69,24.74-11.63,7.49,4.35,18,14.46,18,40.33"/><path class="cls-8" d="M114,151.49c-1.48-1.29-3.89-1.79-6.77-1.59v-20l-5.27-1.36v22.33a36,36,0,0,0-6.61,2.71c-6.78,3.61-9.17,3-10.21,3.24a.21.21,0,0,1-.13,0c-1-.1-3.28.48-10.33-3.27A37.62,37.62,0,0,0,69,151.21V129.7l-5.27,1.35V150c-3-.37-5.61,0-7.29,1.13-2.17,5.5-3.67,12.92-3.67,23l.78.39h63.18c.48-.26.76-.39.76-.39C117.49,164.26,116.05,157,114,151.49Z"/><path class="cls-9" d="M85.44,18.73c-42.73-.09-43,34.12-41.08,56.43-2.93-5.23-11.6-3.28-10.88,5.1.69,8,12.93,11.67,12.76,10.78,3.49,18.18,23.63,28.28,39.2,29.72h.33v-102h-.33"/><path class="cls-6" d="M35.62,76.72a4.25,4.25,0,0,1,6.27-1.14,3.3,3.3,0,0,1,1,3.73c-.3,1.08-1.5,1.16-1.21,2.8a2.93,2.93,0,0,0,1.73,2.38,3.25,3.25,0,0,1,1.66,3.83c-.33,1.32-2.37.26-3.73-.32a24.32,24.32,0,0,1-4.49-3.45c-1.82-1.93-2.66-5.67-1.24-7.83"/><path class="cls-10" d="M85.65,18.73c42.73-.09,43,34.12,41.08,56.43,2.93-5.23,11.6-3.28,10.89,5.1-.68,8-12.93,11.67-12.77,10.78-3.49,18.18-23.62,28.28-39.2,29.72h-.33v-102h.33"/><path class="cls-6" d="M135.77,76.72a4.23,4.23,0,0,0-6.26-1.14,3.32,3.32,0,0,0-1,3.73c.31,1.08,1.51,1.16,1.21,2.8A2.91,2.91,0,0,1,128,84.49,3.92,3.92,0,0,0,126.51,86a3.82,3.82,0,0,0-.19,2.32c.32,1.32,2.36.26,3.73-.32a25,25,0,0,0,4.49-3.45c1.82-1.93,2.66-5.67,1.23-7.83"/><path class="cls-3" d="M85.21,27.21c-14.27,0-24.7,3.93-31,11.66C45.35,49.68,45.69,66.2,48.94,78c1,3.63,1.51,13.39,2.2,17,3.07,16,21.77,24.56,34.07,24.56h.33V27.22h-.33"/><path class="cls-4" d="M116.18,38.7C109.91,31,99.59,27.1,85.54,27v92.34c14.07-.15,30.86-9.49,33.75-24.55.68-3.58,1.19-13.34,2.19-17,3.25-11.81,3.56-28.3-5.3-39.16"/></g></g></svg>