<svg xmlns="http://www.w3.org/2000/svg" xmlns:xlink="http://www.w3.org/1999/xlink" viewBox="0 0 175 175.03"><defs><style>.cls-1{fill:none;}.cls-2{fill:#82acc6;}.cls-3{fill:#dcc5a1;}.cls-4{fill:#edd9b4;}.cls-5{clip-path:url(#clip-path);}.cls-6{fill:#bc9f82;}.cls-7{fill:#ebeceb;}.cls-8{fill:#422e14;}.cls-9{fill:#9a6919;}.cls-10{fill:#ccad8b;}.cls-11{fill:#d9bf9f;}.cls-12{fill:#211915;}</style><clipPath id="clip-path"><rect class="cls-1" x="74.79" y="117.87" width="21.14" height="12.45"/></clipPath></defs><title>Ativo 140ac</title><g id="Camada_2" data-name="Camada 2"><g id="Avatares"><rect class="cls-2" width="175" height="174.92" rx="39.31"/><path class="cls-3" d="M85.3,105.09V175H47.16c-.61-.28-.94-.41-.94-.41,0-37.5,23.35-40.3,23.35-40.3,2.33,0,3.82-3,4.82-7.5.16-.71.3-1.43.4-2.2.21-1.28.4-2.63.53-4,.08-.85.17-1.7.24-2.58.35-4.3.46-9,.46-13.39,0,0,5.13.5,9.28.5"/><path class="cls-4" d="M124.51,174.61s-.35.13-.91.41H85.3V105.09h.08c4.15,0,9.3-.5,9.3-.5,0,4.4.11,9,.45,13.28.08.85.17,1.7.25,2.53.16,1.46.33,2.85.55,4.15v0a15.3,15.3,0,0,0,.28,1.65c1,4.83,2.54,8.08,5,8.08,0,0,23.35,2.8,23.35,40.3"/><g class="cls-5"><path class="cls-6" d="M95.93,124.55v0a12.36,12.36,0,0,1-10.57,5.74H85.3a13.3,13.3,0,0,1-10.51-5.71c.21-1.28.4-2.63.53-4,.08-.85.17-1.7.24-2.58a42.39,42.39,0,0,0,9.63,1.24h.11a39.62,39.62,0,0,0,9.83-1.35c.08.85.17,1.7.25,2.53.16,1.46.33,2.85.55,4.15"/></g><path class="cls-7" d="M103.44,156.46c.16,2.19-6.74,12.18-11.78,18.57H79.09c-5.06-6.37-11.94-16.38-11.81-18.6.14-1.92,0-20,1.23-21.57h0l16.86,18.25,15.79-18.8s1.17.92,1.92,1.66c.26.27-1.9,15.07-1.66,15.35a8.46,8.46,0,0,1,2,5.14"/><path class="cls-8" d="M78.94,175H47.15c-.59-.23-.92-.39-.92-.39,0-2.05.08-4,.22-5.87a56.9,56.9,0,0,1,.86-7,54.62,54.62,0,0,1,1.73-7c.16-.44.32-.87.49-1.3a40.09,40.09,0,0,1,2.6-5.68,29.52,29.52,0,0,1,4.41-6c.31-.36.64-.69,1-1a24.85,24.85,0,0,1,11.1-6.26c0,.14,0,.24-.08.35a34.6,34.6,0,0,0,0,11.83c0,.15,0,.32.06.48,0,.35.09.67.17,1a.45.45,0,0,0,0,.22c0,.33.13.69.21,1A51.14,51.14,0,0,0,71.3,158c.83,2.24,2.21,5.41,3.82,8.9.27.65.56,1.23.83,1.84.17.33.3.65.47,1,.39.83.83,1.68,1.2,2.56.12.28.26.53.37.81l.1.18c.3.58.57,1.14.8,1.68a.09.09,0,0,1,0,.07"/><path class="cls-8" d="M91.81,175H123.6c.58-.23.91-.39.91-.39,0-2.05-.08-4-.21-5.87a61.36,61.36,0,0,0-2.59-14c-.17-.44-.33-.87-.49-1.3a40.09,40.09,0,0,0-2.6-5.68,30.29,30.29,0,0,0-4.41-6c-.31-.36-.64-.69-1-1a24.85,24.85,0,0,0-11.1-6.26c0,.14,0,.24.08.35a34.6,34.6,0,0,1,0,11.83c0,.15,0,.32-.06.48,0,.35-.09.67-.17,1a.58.58,0,0,1,0,.22c0,.33-.13.69-.22,1A52.1,52.1,0,0,1,99.45,158c-.83,2.24-2.22,5.41-3.83,8.9-.27.65-.56,1.23-.83,1.84-.16.33-.3.65-.45,1-.4.83-.82,1.68-1.2,2.56-.13.28-.26.53-.37.81a1,1,0,0,0-.11.18c-.3.58-.56,1.14-.8,1.68a.09.09,0,0,0,0,.07"/><path class="cls-9" d="M83.88,175h-7.5l-.92-1c-15.38-16.09-17.75-28-17.75-28l6.34-2.8-3.91-2.53s1.52-1.7,4.26-4.22a24.5,24.5,0,0,1,3.11-2.27,19.2,19.2,0,0,1,5-2.11c-.17.2-1.78,1.75-1.36,11.48.06.66.09,1.28.19,1.95,0,.16.05.29.07.42.06.34.11.63.19,1a.56.56,0,0,0,0,.21c0,.33.12.64.2,1a81.59,81.59,0,0,0,6.33,16.13c.45.88.9,1.71,1.33,2.56.53,1,1.11,2.1,1.64,3.13.33.57.62,1.15.93,1.71s.68,1.25,1,1.88.51,1,.77,1.47"/><path class="cls-9" d="M87.11,175h7.42c.35-.35.63-.67.91-1,15.24-16.09,17.6-28,17.6-28l-6.28-2.8,3.87-2.53s-1.51-1.7-4.21-4.22a25.07,25.07,0,0,0-3.1-2.27,14.11,14.11,0,0,0-4.89-1.76c.18.21,1.7,1.4,1.28,11.13-.06.66-.08,1.28-.18,1.95,0,.16,0,.29-.08.42,0,.34-.11.63-.18,1a.82.82,0,0,1,0,.21c-.06.33-.14.64-.21,1a83.67,83.67,0,0,1-6.27,16.13c-.44.88-.88,1.71-1.32,2.56-.52,1-1.11,2.1-1.63,3.13-.32.57-.61,1.15-.92,1.71l-1,1.88L87.11,175"/><path class="cls-10" d="M85.41,24.9C45,24.9,44.78,58.62,46.57,80.67c-2.77-5.23-11-3.6-10.29,4.62.65,7.94,12.23,12,12.07,11.11,3.3,18.17,22.32,28.65,37.06,28.65h.31V24.91h-.31"/><path class="cls-6" d="M38.86,81.81A3.85,3.85,0,0,1,44.7,80.7a3.37,3.37,0,0,1,.94,3.66c-.29,1.06-1.4,1.14-1.12,2.74a2.78,2.78,0,0,0,1.6,2.33,3.82,3.82,0,0,1,1.37,1.49,4,4,0,0,1,.17,2.28c-.3,1.3-2.2.26-3.47-.31A24.07,24.07,0,0,1,40,89.5c-1.71-1.9-2.48-5.57-1.15-7.69"/><path class="cls-11" d="M85.61,24.9c40.4,0,40.63,33.72,38.83,55.77,2.78-5.23,11-3.6,10.3,4.62-.65,7.94-12.23,12-12.07,11.11-3.3,18.17-22.32,28.65-37.06,28.65H85.3V24.91h.31"/><path class="cls-6" d="M132.16,81.81a3.85,3.85,0,0,0-5.84-1.11,3.35,3.35,0,0,0-.94,3.66c.29,1.06,1.4,1.14,1.13,2.74a2.79,2.79,0,0,1-1.62,2.33,4.08,4.08,0,0,0-1.38,1.49,4.18,4.18,0,0,0-.16,2.28c.3,1.3,2.21.26,3.49-.31A24.78,24.78,0,0,0,131,89.5c1.71-1.9,2.48-5.57,1.15-7.69"/><path class="cls-3" d="M85.31,34.41c-13.29,0-23,3.86-28.91,11.45-8.24,10.6-7.92,26.8-4.88,38.43.92,3.56,1.4,13.13,2,16.66,2.86,15.72,20.27,24.1,31.74,24.1h.31V34.43l-.31,0"/><path class="cls-4" d="M114.17,45.87c-5.85-7.54-15.47-11.39-28.55-11.44V125c13.1-.15,28.74-9.33,31.43-24.09.65-3.53,1.12-13.1,2-16.66,3-11.6,3.31-27.78-4.93-38.42"/><path class="cls-12" d="M125.52,121c1.3,1.48,6.69,3.65,6.69,3.65s-3.49-1.49-4.66-7.2a28.16,28.16,0,0,1-.68-4.09h-.78a22.13,22.13,0,0,0,4.25-12.79c0-5.94-2.58-11.47-7-16.12a36.64,36.64,0,0,1,.24,4.08,35.25,35.25,0,0,1-18.43,30.82,10.48,10.48,0,0,0-2.63-10.53c-3-3-10-5.62-16.48-3.88-6.47-1.74-13.5.86-16.49,3.88a10.45,10.45,0,0,0-2.63,10.49A34.83,34.83,0,0,1,48.8,84c-4.67,4.74-7.39,10.43-7.39,16.55a22.12,22.12,0,0,0,4.24,12.79h-.42a29.68,29.68,0,0,1-.68,4.09c-1.18,5.71-4.67,7.2-4.67,7.2s5.39-2.17,6.7-3.65c.63-.72,2.3-2.68,2.81-3.29l0,0c-.3.66-1,2.78,0,6.86,1.3,5.34,6.65,8.94,6.65,8.94s-3.21-4.25-2.31-8.9c0,0-.19,1.87,5,7s14.95,9.73,14.95,9.73-.2-3.22-.31-6.76a42.6,42.6,0,0,0,11.88,1.72l.74,0,.73,0a42.55,42.55,0,0,0,11.88-1.72c-.11,3.54-.3,6.76-.3,6.76s9.73-4.55,15-9.73,5-7,5-7c.89,4.65-2.31,8.9-2.31,8.9s5.34-3.6,6.64-8.94c1-4.09.29-6.21,0-6.86l0,0C123.2,118.28,124.88,120.27,125.52,121Zm-46.2.43a24.16,24.16,0,0,1-4-.93,6.24,6.24,0,0,1-.68-1.64,5.76,5.76,0,0,1-.22-1.56,6,6,0,0,1,.08-1,19,19,0,0,1,9.34-3.09c.7-.06,1.43-.1,2.17-.1s1.46,0,2.16.1a19,19,0,0,1,9.34,3.09,6,6,0,0,1,.08,1,5.76,5.76,0,0,1-.22,1.56,6.24,6.24,0,0,1-.68,1.64,24,24,0,0,1-4,.93c-.25,1.14-1.49,2.11-3.26,2.68-1.12.09-2.27.15-3.43.15s-2.38-.06-3.55-.16C80.79,123.52,79.56,122.55,79.32,121.42Z"/></g></g></svg>