<svg xmlns="http://www.w3.org/2000/svg" viewBox="0 0 174.99 174.92"><defs><style>.cls-1{fill:#94432a;}.cls-2{fill:#dcc5a1;}.cls-3{fill:#edd9b4;}.cls-4,.cls-7{fill:#bc9f82;}.cls-4{opacity:0.7;}.cls-5{fill:#fcfcfc;}.cls-6{fill:#ccad8b;}.cls-8{fill:#d9bf9f;}.cls-9{fill:#751819;}.cls-10{fill:#fff;}</style></defs><title>Ativo 148ac</title><g id="Camada_2" data-name="Camada 2"><g id="Avatares"><rect class="cls-1" width="174.99" height="174.92" rx="39.41"/><path class="cls-2" d="M83.16,115.58v59.08H50.92c-.52-.23-.79-.33-.79-.33,0-31.7,19.74-34.07,19.74-34.07H70a3.58,3.58,0,0,0,.43-.08l.17-.07c1.43-.54,2.42-2.57,3.13-5.46a7.33,7.33,0,0,0,.17-.74c0-.14.07-.27.1-.4.09-.46.17-.93.24-1.42.18-1.08.34-2.24.46-3.43.06-.72.13-1.44.2-2.18v0c.29-3.63.39-7.57.39-11.31C75.32,115.15,79.66,115.58,83.16,115.58Z"/><path class="cls-3" d="M116.3,174.33a8.11,8.11,0,0,0-.77.33H83.16V115.58h.07c3.5,0,7.87-.43,7.87-.43,0,3.72.09,7.61.37,11.21v0c.07.72.14,1.44.21,2.14.14,1.23.27,2.41.45,3.51v0c.05.33.12.67.19,1l.06.39c.68,3.31,1.67,5.74,3.13,6.56a1.19,1.19,0,0,0,.26.11l.07,0a.78.78,0,0,1,.14.05,1.85,1.85,0,0,0,.58.08S116.3,142.63,116.3,174.33Z"/><path class="cls-4" d="M92.13,132v0a10.41,10.41,0,0,1-8.92,4.84h0a11.24,11.24,0,0,1-8.88-4.82c.17-1.08.33-2.23.45-3.43.06-.71.14-1.44.2-2.18a35.29,35.29,0,0,0,8.14,1.06h.09a33.3,33.3,0,0,0,8.32-1.15c.06.72.14,1.44.2,2.14C91.82,129.76,92,130.93,92.13,132Z"/><path class="cls-5" d="M116.3,174.33a8.11,8.11,0,0,0-.77.33H50.92c-.52-.23-.79-.33-.79-.33,0-31.7,19.74-34.07,19.74-34.07H70a3.58,3.58,0,0,0,.43-.08l.17-.07c-1.94,3.64-14.49,17.09,0,20a71.88,71.88,0,0,0,12.53,1.46c7.84.2,13.47-1.12,16.57-2.3,6.22-2.32-.87-15-4-19.21l.07,0a.78.78,0,0,1,.14.05,1.85,1.85,0,0,0,.58.08S116.3,142.63,116.3,174.33Z"/><path class="cls-6" d="M83.14,52.09C49.49,52,49.3,79,50.79,96.54c-2.31-4.13-9.13-2.59-8.56,4,.53,6.32,10.17,9.18,10,8.49C55,123.35,70.88,131.3,83.14,132.43h.26V52.09Z"/><path class="cls-7" d="M44,97.7A3.34,3.34,0,0,1,49,96.81a2.56,2.56,0,0,1,.8,2.93c-.24.85-1.18.91-.95,2.21a2.29,2.29,0,0,0,1.36,1.86,2.6,2.6,0,0,1,1.31,3c-.26,1-1.87.22-2.95-.25A20.43,20.43,0,0,1,45,103.86C43.56,102.34,42.91,99.4,44,97.7Z"/><path class="cls-8" d="M83.3,52.09C117,52,117.14,79,115.64,96.54c2.31-4.13,9.13-2.59,8.58,4-.54,6.32-10.18,9.18-10,8.49-2.76,14.31-18.62,22.26-30.88,23.39H83V52.09Z"/><path class="cls-7" d="M122.39,97.7a3.34,3.34,0,0,0-4.93-.89,2.59,2.59,0,0,0-.8,2.93c.24.85,1.18.91,1,2.21a2.28,2.28,0,0,1-1.37,1.86,2.6,2.6,0,0,0-1.31,3c.26,1,1.87.22,3-.25a20.06,20.06,0,0,0,3.53-2.72C122.85,102.34,123.52,99.4,122.39,97.7Z"/><path class="cls-2" d="M83,59.71c-11.24,0-19.46,3.09-24.44,9.19-7,8.51-6.69,21.51-4.12,30.84.78,2.85,1.19,10.54,1.73,13.36,2.42,12.63,17.14,19.35,26.83,19.35h.26V59.72Z"/><path class="cls-3" d="M107.35,68.91c-4.94-6-13.08-9.14-24.13-9.19v72.72c11.07-.11,24.29-7.48,26.57-19.34.53-2.82.94-10.51,1.72-13.36C114.07,90.44,114.32,77.45,107.35,68.91Z"/><path class="cls-9" d="M88.87,121s-2.53,2.71-5.66,2.71-5.53-2.65-5.53-2.65a36.29,36.29,0,0,1,5.53-.41A46.07,46.07,0,0,1,88.87,121Z"/><path class="cls-1" d="M84.81,119.79a1.46,1.46,0,0,0-1.6,1.23,1.48,1.48,0,0,0-1.61-1.23A22.92,22.92,0,0,0,77.53,121s3.11.32,4,.32,1.67.35,1.69-.3c0,.66.65.4,1.53.4s4.13-.42,4.13-.42A22.5,22.5,0,0,0,84.81,119.79Z"/><path class="cls-10" d="M116.83,89.82V69.56s29.51,1.5,29.51-25.67c0,0-3.92-34.71-41.83-18.11,0,0-3.43-18.11-25.08-17.1,0,0-12.8-2-22.14,13.08,0,0-28,1.51-31,27.16,0,0-2.95,17.61,24.11,24.15l-.48,16.26a62.36,62.36,0,0,1,66.91.49Z"/></g></g></svg>