<svg xmlns="http://www.w3.org/2000/svg" viewBox="0 0 174.99 175.01"><defs><style>.cls-1{fill:#8ec2ea;}.cls-2{fill:#dcc5a1;}.cls-3{fill:#edd9b4;}.cls-4,.cls-9{fill:#bc9f82;}.cls-4{opacity:0.7;}.cls-5{fill:#5a4f51;}.cls-6{fill:#14150c;}.cls-7{fill:#010400;}.cls-8{fill:#ccad8b;}.cls-10{fill:#d9bf9f;}.cls-11{fill:#f8f7e0;}</style></defs><title>Ativo 111ac</title><g id="Camada_2" data-name="Camada 2"><g id="Avatares"><rect class="cls-1" width="174.99" height="174.92" rx="39.39"/><path class="cls-2" d="M87.39,110.68V175H52.29l-.87-.36c0-34.51,21.49-37.09,21.49-37.09,1.6,0,2.76-1.52,3.64-4a22.62,22.62,0,0,0,.79-2.92c.15-.64.27-1.3.37-2,.2-1.18.37-2.43.5-3.73.07-.78.14-1.57.22-2.38.31-4,.42-8.24.42-12.31C78.85,110.22,83.57,110.68,87.39,110.68Z"/><path class="cls-3" d="M123.46,174.65s-.32.12-.84.36H87.39V110.68h.07c3.81,0,8.56-.46,8.56-.46,0,4,.1,8.29.42,12.21.07.78.15,1.57.22,2.33.15,1.35.3,2.63.49,3.83v0c.08.54.18,1,.27,1.52a17.66,17.66,0,0,0,1.73,5.23c.74,1.4,1.67,2.2,2.83,2.2C102,137.56,123.46,140.14,123.46,174.65Z"/><path class="cls-4" d="M97.16,128.59v0a11.37,11.37,0,0,1-9.72,5.27h0a12.25,12.25,0,0,1-9.67-5.25c.19-1.18.37-2.43.49-3.73.07-.78.15-1.57.22-2.38a38.57,38.57,0,0,0,8.86,1.16h.1a36.08,36.08,0,0,0,9-1.26c.07.79.15,1.58.22,2.34C96.81,126.11,97,127.39,97.16,128.59Z"/><path class="cls-5" d="M123.52,174.64s-.32.13-.84.37H52.34l-.86-.37c0-34.71,21.49-37.3,21.49-37.3,1.6,0,2.75-1.53,3.64-4l10.83.86,11.76.94c.74,1.41,1.68,2.22,2.83,2.22C102,137.34,123.52,139.93,123.52,174.64Z"/><path class="cls-6" d="M100.11,136s-1.38-5.9-2.39-5.9-10.78,4.52-10.78,4.52l3.1,6.5Z"/><path class="cls-6" d="M74,136s1.38-5.9,2.39-5.9,10.79,4.52,10.79,4.52l-3.1,6.5Z"/><path class="cls-7" d="M119.94,148a26.88,26.88,0,0,0-12.32-9.5l-20.09,30.4-.21.34-.23-.34L67,138.54A26.91,26.91,0,0,0,54.69,148a14,14,0,0,1,3.2,5.82c2.55,8.15,1.08,18.08.57,21h57.71c-.52-2.94-2-12.87.56-21A13.93,13.93,0,0,1,119.94,148Z"/><path class="cls-8" d="M87.5,36.9c-37.18,0-37.4,31-35.74,51.31-2.55-4.81-10.09-3.32-9.48,4.26.6,7.3,11.25,11.07,11.11,10.22,3,16.71,20.54,26.36,34.11,26.36l.27,0V36.91Z"/><path class="cls-9" d="M44.66,89.26a3.52,3.52,0,0,1,5.37-1,3.06,3.06,0,0,1,.86,3.37c-.25,1-1.28,1-1,2.52a2.64,2.64,0,0,0,1.49,2.15,3.49,3.49,0,0,1,1.25,1.37,3.53,3.53,0,0,1,.16,2.09c-.28,1.19-2,.24-3.2-.29a22.82,22.82,0,0,1-3.85-3.11C44.15,94.58,43.43,91.21,44.66,89.26Z"/><path class="cls-10" d="M87.67,36.9c37.18,0,37.4,31,35.74,51.31,2.55-4.81,10.1-3.32,9.47,4.26-.59,7.3-11.25,11.07-11.1,10.22-3,16.71-20.54,26.36-34.11,26.36l-.28,0V36.91Z"/><path class="cls-9" d="M130.51,89.26a3.52,3.52,0,0,0-5.37-1,3.07,3.07,0,0,0-.87,3.37c.25,1,1.29,1,1,2.52a2.62,2.62,0,0,1-1.49,2.15,3.35,3.35,0,0,0-1.25,1.37,3.62,3.62,0,0,0-.17,2.09c.28,1.19,2,.24,3.21-.29a22.76,22.76,0,0,0,3.84-3.11C131,94.58,131.73,91.21,130.51,89.26Z"/><path class="cls-2" d="M87.17,45.65c-12.23,0-21.18,3.54-26.61,10.53C53,65.93,53.29,80.84,56.08,91.54c.85,3.27,1.29,12.09,1.87,15.33,2.65,14.47,18.67,22.18,29.22,22.18l.28,0V45.66Z"/><path class="cls-3" d="M113.72,56.19c-5.38-6.94-14.23-10.48-26.27-10.53V129c12-.13,26.45-8.57,28.93-22.16.58-3.24,1-12.06,1.87-15.33C121,80.87,121.31,66,113.72,56.19Z"/><path class="cls-11" d="M95.79,113.53a3.15,3.15,0,0,0-1.61.46c2,1.15,3.39,4.36,3.39,8.14a13.23,13.23,0,0,1-.84,4.75l-.34.17c-1-2.2-5-3.85-9.82-3.85s-8.82,1.67-9.82,3.88l-.31-.15a13.25,13.25,0,0,1-.87-4.8c0-3.78,1.43-7,3.4-8.14a3.12,3.12,0,0,0-1.61-.46c-2.76,0-5,3.85-5,8.6A12.09,12.09,0,0,0,74,128.47c1.05,2,4.27,3.57,8.44,4.21a18.56,18.56,0,0,0,4.14.45,19.57,19.57,0,0,0,4.41-.5,15.67,15.67,0,0,0,6.48-2.4c1.94-1.18,3.33-4.36,3.33-8.1C100.79,117.38,98.55,113.53,95.79,113.53Z"/><path class="cls-11" d="M117.31,39.4c-8.77-6.15-22-12.59-29.95-11.8C67.7,25.66,61.93,34.85,57.4,38c-14.32,10-9.5,46.07-9.5,46.07s2.3-.52,3.64.75a11.75,11.75,0,0,1,3.4,5.9,4.94,4.94,0,0,0,2.55,3.07s-3.42-14.33.09-20.71c1.65-3,3.13-6.17,6.58-9.34a16.26,16.26,0,0,0,1.35,6.36c2.2,5.34,11.26,8.6,11.26,8.6s-6.67-3.68-4-8.15C74.34,67.87,83.6,65.4,89,65c7.91-.62,11.59-3.37,13.12-6.15a17.22,17.22,0,0,1,4.35,1.87c6.55,4.15,8.45,8.46,10.62,12.41,3.52,6.38.1,20.71.1,20.71a5,5,0,0,0,2.55-3.07,11.68,11.68,0,0,1,3.4-5.9c1.33-1.27,3.64-.75,3.64-.75S131.64,49.46,117.31,39.4Z"/></g></g></svg>