<svg xmlns="http://www.w3.org/2000/svg" viewBox="0 0 175 174.33"><defs><style>.cls-1{fill:#a4bfb6;}.cls-2{fill:#7491c6;}.cls-3{fill:#dcc5a1;}.cls-4{fill:#edd9b4;}.cls-5,.cls-7{fill:#bc9f82;}.cls-5{opacity:0.7;}.cls-6{fill:#ccad8b;}.cls-8{fill:#d9bf9f;}.cls-9{fill:#b47070;}.cls-10{fill:#c17874;}.cls-11{fill:#3c4c82;}.cls-12{fill:#010300;}</style></defs><title>Ativo 130ac</title><g id="Camada_2" data-name="Camada 2"><g id="Avatares"><rect class="cls-1" width="175" height="174.33" rx="39.41"/><path class="cls-2" d="M98.51,106.68a22.54,22.54,0,0,0-9.36,2A22.72,22.72,0,0,0,53.76,127.5c0,3.12-5.6,9.08-4.45,11.79a17.12,17.12,0,0,0,3,4.85c4.17,5,17.09,6,24.15,6a22.73,22.73,0,0,0,9.36-2A22.61,22.61,0,0,0,98.51,152c8.2,0,20.86-.68,24.86-7.17a23.43,23.43,0,0,0,1.72-3.61c1-2.58-3.86-8.9-3.86-11.86A22.69,22.69,0,0,0,98.51,106.68Z"/><path class="cls-3" d="M88.66,109.31v65H53.21c-.57-.27-.87-.38-.87-.38a56.44,56.44,0,0,1,3-19.52C59.52,142.88,67,138.66,71.16,137.2a15.6,15.6,0,0,1,2.88-.77h.18a2.6,2.6,0,0,0,.47-.09c1.19-.33,2.14-1.62,2.88-3.57a23.15,23.15,0,0,0,1-3.3c.14-.66.27-1.33.37-2,.2-1.21.37-2.45.5-3.78.08-.77.15-1.57.22-2.39.33-4,.42-8.34.42-12.43C80,108.84,84.8,109.31,88.66,109.31Z"/><path class="cls-4" d="M125.1,173.91a7.39,7.39,0,0,0-.85.38H88.66v-65h.08c3.85,0,8.64-.47,8.64-.47,0,4.06.11,8.34.43,12.31.07.79.15,1.58.22,2.38.15,1.34.3,2.65.5,3.84v0c.08.52.17,1,.28,1.51a24.09,24.09,0,0,0,1.26,4.39h0a5.51,5.51,0,0,0,2.14,2.81,1.46,1.46,0,0,0,.38.18,2.56,2.56,0,0,0,.79.12,14.83,14.83,0,0,1,1.74.37c3.93,1.17,13.5,5.39,17.79,20.13A53.59,53.59,0,0,1,125,170.12C125.08,171.34,125.1,172.61,125.1,173.91Z"/><path class="cls-5" d="M98.51,127.39v0a11.44,11.44,0,0,1-9.81,5.33h0a12.36,12.36,0,0,1-9.77-5.3c.2-1.19.37-2.45.49-3.77.07-.79.15-1.59.22-2.4a38.83,38.83,0,0,0,9,1.16h.1a36.74,36.74,0,0,0,9.14-1.26c.08.8.16,1.59.23,2.35C98.17,124.89,98.31,126.17,98.51,127.39Z"/><path class="cls-6" d="M88.62,39.48c-37-.07-37.21,29.55-35.56,48.88-2.55-4.54-10.05-2.86-9.43,4.4.59,6.95,11.19,10.1,11,9.34,3,15.74,20.47,24.48,34,25.72h.28V39.48Z"/><path class="cls-7" d="M45.49,89.7a3.66,3.66,0,0,1,5.42-1,2.81,2.81,0,0,1,.87,3.22c-.26.93-1.3,1-1,2.42a2.52,2.52,0,0,0,1.5,2.06,2.85,2.85,0,0,1,1.44,3.31c-.29,1.16-2.06.24-3.24-.26a22.79,22.79,0,0,1-3.89-3C45,94.79,44.25,91.56,45.49,89.7Z"/><path class="cls-8" d="M88.8,39.48c37-.07,37.21,29.55,35.57,48.88,2.54-4.54,10-2.86,9.42,4.4-.59,6.95-11.19,10.1-11,9.34-3,15.74-20.46,24.48-33.95,25.72h-.28V39.48Z"/><path class="cls-7" d="M132.2,89.7a3.67,3.67,0,0,0-5.43-1,2.84,2.84,0,0,0-.87,3.22c.26.93,1.29,1,1,2.42a2.49,2.49,0,0,1-1.5,2.06,3.41,3.41,0,0,0-1.27,1.31,3.32,3.32,0,0,0-.16,2c.29,1.16,2,.24,3.23-.26a22,22,0,0,0,3.89-3C132.71,94.79,133.44,91.56,132.2,89.7Z"/><path class="cls-3" d="M88.42,47.86c-12.35,0-21.4,3.4-26.87,10.1C53.9,67.32,54.2,81.61,57,91.88c.86,3.13,1.3,11.59,1.9,14.69,2.66,13.88,18.85,21.27,29.5,21.27h.29v-80Z"/><path class="cls-4" d="M115.24,58c-5.44-6.65-14.37-10-26.53-10.1v80c12.16-.12,26.71-8.22,29.21-21.26.6-3.1,1-11.56,1.9-14.69C122.63,81.64,122.91,67.37,115.24,58Z"/><path class="cls-9" d="M94.93,115.29s-2.79,3-6.23,3-6.08-2.91-6.08-2.91a40.89,40.89,0,0,1,6.08-.44A52.87,52.87,0,0,1,94.93,115.29Z"/><path class="cls-10" d="M90.46,113.93a1.6,1.6,0,0,0-1.76,1.34,1.63,1.63,0,0,0-1.77-1.34,25.26,25.26,0,0,0-4.47,1.36s3.41.37,4.39.37,1.82.38,1.85-.35c0,.73.71.45,1.68.45s4.55-.47,4.55-.47A25,25,0,0,0,90.46,113.93Z"/><path class="cls-11" d="M125.57,115.28c-.17,3.24-.34,3.6,1.2,6.14s3.33,3.52,1.62,6.42-4.53,3.24-4.35,5.8,3.24,3.76,2.73,7.18c-.47,3.1-5.37,6.34-6.29,6.91.74-.55,3.9-3,3.45-6.2-.51-3.58-.91-3.76-4.67-5.79s-4.33-3-3.28-5.85,4.45-3.16,1.86-6.23-4-5.18-3.38-7.06-.44-3.27,2.59-6.9c1.89-2.2,1.62-7.18,1.62-9.4s3-13-1.9-17.67c-.89-.84-2.41-2.77-4.25-5-1.49-1.83-3.2-3.89-4.92-5.7a27.14,27.14,0,0,1-4.5-7.09c-1.11-2.38-1.84-4.36-2-4.8,0,.52.37,2.82.6,4.63.07.67.15,1.26.17,1.7a10.58,10.58,0,0,0,3.9,7.57c-1.24-.73-6.36-3.87-8.42-6.64A15.26,15.26,0,0,1,95.44,64a12.26,12.26,0,0,1-.25-9.09,45,45,0,0,1-6.13,7.77c-.23.22-.47.42-.72.65A86,86,0,0,1,78.66,70,25.62,25.62,0,0,0,84,63a9.27,9.27,0,0,0,.66-1.34c.64-1.53,3.25-9.56,3.25-9.56a116.7,116.7,0,0,1-6.61,10.73,39.49,39.49,0,0,1-7.06,7.75c-1,.79-2.33,1.88-3.83,3.15C65,78.22,57.49,85.06,56.81,88.8,56,93.58,58.36,104,59.9,108.27s1.72,5.65,0,7.35-6,4.79-5.29,6.32,3.25,4.09,2.73,6.14-6.14,7-6.87,9.74c-1.24,4.89,6.19,9.05,7.06,9.51-.89-.29-10.93-4.16-9.79-9.33.75-3.37.17-3.92-1.71-6.49s-4.62-6.84-2.07-9.39,6.17-5.48,5.32-8.37-10-23-10-30.11a62,62,0,0,1,1.27-10.59,83.43,83.43,0,0,1,3.2-12c2.92-8.15,7.39-16.28,14.18-20.66,14.56-9.39,24.83-10.85,30-9.66s10.37-.9,11.74-.36,14.52,6.08,19.49,11.7c3.82,4.37,13.32,15,17.45,27.33a35,35,0,0,1,2,11.24c0,.42,0,.84,0,1.27C137.88,98.09,125.75,112.11,125.57,115.28Z"/><path class="cls-12" d="M116.35,157.29c-5.07-8.62-8.62-14.72-10.19-20.09a15.57,15.57,0,0,0-2.89-.77h-.17a2.6,2.6,0,0,1-.47-.09c-1.19-.33-2.13-1.62-2.89-3.57a12.26,12.26,0,0,1-2.46.91c-3.16.9-8.47,2.23-8.47,2.23A127.5,127.5,0,0,1,94,148.67c2.09,6.07-1.24,10.63-5.29,10.8-4-.17-7.38-4.73-5.3-10.8a128.8,128.8,0,0,1,5.15-12.76s-5.31-1.33-8.48-2.23a12.26,12.26,0,0,1-2.46-.91c-.74,1.95-1.69,3.24-2.88,3.57a2.6,2.6,0,0,1-.47.09H74a15.6,15.6,0,0,0-2.88.77C69.6,142.57,66,148.67,61,157.29c-2.81,4.78-.86,13.37.77,17h53.84C117.21,171,119.16,162.07,116.35,157.29Z"/></g></g></svg>