<svg xmlns="http://www.w3.org/2000/svg" xmlns:xlink="http://www.w3.org/1999/xlink" viewBox="0 0 175 174.93"><defs><style>.cls-1{fill:none;}.cls-2{fill:#4f4e49;}.cls-3{fill:#dcc5a1;}.cls-4{fill:#edd9b4;}.cls-5{clip-path:url(#clip-path);}.cls-6{fill:#bc9f82;}.cls-7{fill:#895a59;}.cls-8{fill:#f8f7e0;}.cls-9{fill:#ccad8b;}.cls-10{fill:#d9bf9f;}.cls-11{fill:#b47070;}.cls-12{fill:#c17874;}.cls-13{fill:#0f1005;}</style><clipPath id="clip-path"><rect class="cls-1" x="74.64" y="118.06" width="21.02" height="12.39"/></clipPath></defs><title>Ativo 131ac</title><g id="Camada_2" data-name="Camada 2"><g id="Avatares"><rect class="cls-2" width="175" height="174.93" rx="39.36"/><path class="cls-3" d="M85.1,105.34v69.57H47.15l-.93-.4c0-37.32,23.23-40.1,23.23-40.1h.19a2.46,2.46,0,0,0,.51-.11c1.75-.47,3-2.91,3.88-6.47.08-.28.16-.58.22-.9.16-.69.28-1.41.39-2.18.22-1.27.4-2.61.54-4,.07-.84.16-1.69.23-2.56.35-4.28.46-8.92.46-13.31,0,0,5.1.49,9.23.49"/><path class="cls-4" d="M124.12,174.51s-.35.13-.91.4H85.1V105.34h.09c4.12,0,9.25-.49,9.25-.49,0,4.36.11,9,.46,13.2.07.85.16,1.7.23,2.52.16,1.46.33,2.84.54,4.13v0c.08.58.18,1.12.29,1.64s.22,1,.34,1.46c.79,3.16,1.84,5.44,3.33,6.25a2.66,2.66,0,0,0,.4.17,2.27,2.27,0,0,0,.86.16s23.23,2.78,23.23,40.1"/><g class="cls-5"><path class="cls-6" d="M95.66,124.71v0a12.3,12.3,0,0,1-10.5,5.7H85.1c-6,0-9.56-4.41-10.46-5.67.22-1.27.39-2.62.53-4,.08-.85.16-1.68.24-2.56A42.29,42.29,0,0,0,85,119.41h.11a39.43,39.43,0,0,0,9.79-1.35c.08.85.16,1.7.24,2.52.15,1.46.31,2.84.53,4.13"/></g><path class="cls-7" d="M124.17,174.51s-.35.13-.9.4H47.1l-.94-.4a72.08,72.08,0,0,1,1-12.22c4.39-25.79,22.3-27.93,22.3-27.93h.18a4.19,4.19,0,0,0,.51-.11c1.76-.49,2.94-4.53,3.83-8.08,0,0,8.28,2.65,11,2.65s11.26-2.65,11.26-2.65c.77,3.16,1.9,7,3.39,7.86a3.56,3.56,0,0,0,.41.17,2.38,2.38,0,0,0,.85.16s23.26,2.78,23.26,40.15"/><path class="cls-3" d="M56.73,162.31v12.6H47.15l-.93-.4a72.77,72.77,0,0,1,1-12.2Z"/><path class="cls-3" d="M113.6,162.31v12.6h9.59l.93-.4a71.66,71.66,0,0,0-1-12.2Z"/><path class="cls-8" d="M82.39,158.46a4.4,4.4,0,0,1-1.76.34c-2.66,0-4.86-2.26-7-2.75l3.22-15.31c-.27,0-.54,0-.84,0-3.49,0-7.35,2.71-7.35,5.55,0,1.53.8,2.07,2.24,2.07a3.15,3.15,0,0,1-.29-1.46,4.73,4.73,0,0,1,2.93-4.65L70.39,157a3.7,3.7,0,0,1,.47,0c3.71,0,6.35,4.84,9.35,4.84C81.34,161.81,82.18,160.51,82.39,158.46Z"/><path class="cls-8" d="M79.49,156.56c2.58,0,4.68-2.47,5-6.41a8.76,8.76,0,0,0,1.76-.5l-.72,3.42a5.47,5.47,0,0,0-.1,1A2.3,2.3,0,0,0,88,156.61c4.28,0,6-6,6-9.37,0-.93-.31-1.85-1.32-1.85s-1.3.49-1.3,1.16c0,.46.26,1.08.75,1.08.17,0,.61-.06.68-.21,0,2.34-1.58,7.12-3.63,7.12a.63.63,0,0,1-.71-.7,4.27,4.27,0,0,1,.1-.77l1.51-7.25h-3l-.58,2.85a4.73,4.73,0,0,1-1.67.41.4.4,0,0,1-.23-.05c0-2.23-.89-3.4-2.69-3.4-4.32,0-5.74,5.11-5.74,7.56S77.54,156.56,79.49,156.56Zm2.56-9.63c.55,0,.75.34.8,1.23a1.18,1.18,0,0,0-.66,1.15c0,.43.13.79.57.9-.34,2.51-1.4,4.43-2.43,4.43-.8,0-1.07-.31-1.07-1.72C79.26,150.83,80.56,146.93,82.05,146.93Z"/><path class="cls-8" d="M97.11,152.81c0-.19,0-.42,0-.63,2.52-.16,4.82-2,4.82-4.51,0-1.07-.44-2-2.3-2-4.3,0-5.66,5.14-5.66,7.58s1.3,3.4,3.25,3.4a3.39,3.39,0,0,0,3.62-3.16,4.25,4.25,0,0,1-2.48,1.14C97.67,154.59,97.11,154.16,97.11,152.81Zm2.72-6.05c.4,0,.53.34.53.87a3.53,3.53,0,0,1-3.06,3.52C97.74,149.13,98.78,146.76,99.83,146.76Z"/><path class="cls-8" d="M80.32,165.34c0-.43-.18-.83-.93-.83-1.73,0-2.28,2.07-2.28,3.06v0c-.14.31-.3.5-.59.5s-.34-.14-.34-.36c0-.48.41-1.52.41-2.21a.86.86,0,0,0-.94-1,1.23,1.23,0,0,0-1,.48l.46-2.16-1.25.16-.9,4.31h0c-.13.43-.44.75-.76.75s-.35-.08-.35-.31a1.1,1.1,0,0,1,0-.28l.53-2.58h.51l.07-.34H72.5l.29-1.36-1.25.18-.25,1.18H71l-.07.34h.28l-.51,2.42a3.05,3.05,0,0,0-.07.56c0,.72.4,1,.91,1a1.53,1.53,0,0,0,1.2-.57l-.11.53h1.23l.57-2.8c0-.23.31-.75.65-.75s.31.15.31.44c0,.54-.38,1.6-.38,2.19a.89.89,0,0,0,1,1,1.33,1.33,0,0,0,1.2-.74,1.14,1.14,0,0,0,1.21.74,1.36,1.36,0,0,0,1.46-1.26,1.72,1.72,0,0,1-1,.45c-.3,0-.53-.17-.53-.71a2.46,2.46,0,0,1,0-.26A2,2,0,0,0,80.32,165.34Zm-.86-.37c.16,0,.21.14.21.35a1.42,1.42,0,0,1-1.23,1.42C78.62,165.92,79,165,79.46,165Z"/><path class="cls-8" d="M95.15,165.23a.6.6,0,0,0-.59-.64,1.64,1.64,0,0,0-1,.53l.1-.53H92.44l-.57,2.76h0a1.94,1.94,0,0,1-1.5.87c-.4,0-.61-.14-.61-.73,0-1,.55-2.52,1.08-2.52.16,0,.24.14.24.35a1.82,1.82,0,0,1-.1.51.59.59,0,0,0,.29.1c.25,0,.45-.2.45-.63s-.19-.79-.93-.79c-1.66,0-2.24,1.92-2.27,3a1.81,1.81,0,0,1-1.39.75c-.41,0-.61-.14-.61-.73,0-.1,0-.22,0-.34a2,2,0,0,0,1.94-1.81c0-.43-.18-.83-.93-.83-1.65,0-2.22,1.89-2.28,2.92a3.37,3.37,0,0,1-.5.35,1.19,1.19,0,0,0,0-.33c0-.56-.09-.9-.19-3.13l-1.25.17a13,13,0,0,1-1,2.55.89.89,0,0,0-.45.8,1.11,1.11,0,0,0,1.23,1.09,1.82,1.82,0,0,0,1.33-.51,5,5,0,0,0,.85-.62,1.15,1.15,0,0,0,1.3,1.13,2.45,2.45,0,0,0,1.94-1.05,1.15,1.15,0,0,0,1.3,1.05,2.45,2.45,0,0,0,1.92-1l-.2,1h1.21l.67-3.27a.86.86,0,0,1,.63-.32c.25,0,0,.56.48.56A.6.6,0,0,0,95.15,165.23ZM87.62,165c.16,0,.2.14.2.35a1.43,1.43,0,0,1-1.22,1.42C86.78,165.89,87.19,165,87.62,165Zm-4.77,3.29c-.37,0-.52-.2-.52-.61a.26.26,0,0,0,.23.12.4.4,0,0,0,.37-.42.31.31,0,0,0-.2-.3,9.15,9.15,0,0,0,.69-1.63c.09,1.32.16,1.59.16,2A.7.7,0,0,1,82.85,168.26Z"/><path class="cls-8" d="M100.39,163.23l-1.24.18-.26,1.18h-.28l-.06.34h.27l-.5,2.42h0a1.93,1.93,0,0,1-1.49.87c-.41,0-.61-.14-.61-.73,0-.1,0-.22,0-.34a2,2,0,0,0,1.94-1.81c0-.43-.18-.83-.93-.83-1.73,0-2.28,2.07-2.28,3.06a1.19,1.19,0,0,0,1.31,1.36,2.5,2.5,0,0,0,2-1.12c0,.05,0,.11,0,.16,0,.55.25,1,.85,1,.29,0,.65-.09.89-.83a.75.75,0,0,1-.21,0c-.23,0-.3-.13-.3-.31a1.08,1.08,0,0,1,0-.3l.54-2.58h.5l.07-.34h-.51C100.26,163.82,100.39,163.23,100.39,163.23ZM97.28,165c.16,0,.21.14.21.35a1.44,1.44,0,0,1-1.22,1.42C96.43,165.89,96.85,165,97.28,165Z"/><path class="cls-8" d="M83.32,161.07a3.22,3.22,0,0,0-.06.5c0,.64.36.93.81.93a1.45,1.45,0,0,0,1.13-.57,1,1,0,0,0,1,.57,1.38,1.38,0,0,0,1.51-1.34c0-.5-.07-.81-.16-2.8l-1.12.16a12.35,12.35,0,0,1-.93,2.27.79.79,0,0,0-.4.72h0a.61.61,0,0,1-.44.24c-.21,0-.31-.07-.31-.29a1.2,1.2,0,0,1,0-.24l.54-2.62H83.84Zm2.55-.27a9.21,9.21,0,0,0,.61-1.46c.07,1.19.14,1.43.14,1.83a.63.63,0,0,1-.66.72c-.3,0-.43-.16-.45-.46,0,0,0,0,0-.05a.29.29,0,0,0,.18.07.37.37,0,0,0,.33-.38A.3.3,0,0,0,85.87,160.8Z"/><path class="cls-8" d="M85.19,157.58a.61.61,0,0,0-.6-.62.61.61,0,0,0-.6.62.6.6,0,0,0,.6.6A.6.6,0,0,0,85.19,157.58Z"/><path class="cls-9" d="M85.07,30.59C45.46,30.52,45.23,62.24,47,82.92c-2.72-4.86-10.75-3-10.1,4.72.64,7.45,12,10.82,11.84,10,3.23,16.86,21.9,26.21,36.34,27.55h.3V30.6h-.3"/><path class="cls-6" d="M38.89,84.36a3.92,3.92,0,0,1,5.8-1,3,3,0,0,1,1,3.45c-.29,1-1.4,1.07-1.12,2.59a2.69,2.69,0,0,0,1.61,2.22c.47.39,1,.67,1.35,1.4a3.57,3.57,0,0,1,.18,2.15c-.31,1.22-2.2.25-3.47-.31A22.63,22.63,0,0,1,40,91.62c-1.7-1.8-2.48-5.26-1.15-7.26"/><path class="cls-10" d="M85.26,30.59c39.61-.07,39.84,31.65,38.08,52.33,2.72-4.86,10.75-3,10.09,4.72-.63,7.45-12,10.82-11.83,10-3.24,16.86-21.91,26.21-36.34,27.55H85V30.6h.3"/><path class="cls-6" d="M131.73,84.36a3.93,3.93,0,0,0-5.81-1,3,3,0,0,0-1,3.45c.28,1,1.39,1.07,1.12,2.59a2.69,2.69,0,0,1-1.61,2.22c-.46.39-1,.67-1.35,1.4a3.65,3.65,0,0,0-.18,2.15c.32,1.22,2.2.25,3.47-.31a22.3,22.3,0,0,0,4.15-3.19c1.69-1.8,2.48-5.26,1.16-7.26"/><path class="cls-3" d="M84.85,39.57C71.63,39.57,62,43.21,56.09,50.4c-8.19,10-7.88,25.32-4.85,36.3.91,3.35,1.4,12.41,2,15.73,2.85,14.87,20.16,22.77,31.57,22.77h.32V39.59l-.32,0"/><path class="cls-4" d="M113.57,50.41c-5.82-7.14-15.39-10.77-28.4-10.82v85.6c13-.14,28.59-8.8,31.27-22.76.64-3.32,1.11-12.38,2-15.73,3-11,3.31-26.25-4.9-36.29"/><path class="cls-11" d="M91.83,111.78s-3,3.18-6.67,3.18-6.51-3.12-6.51-3.12a42,42,0,0,1,6.51-.49,52.28,52.28,0,0,1,6.67.43"/><path class="cls-12" d="M87,110.3a1.71,1.71,0,0,0-1.88,1.45,1.75,1.75,0,0,0-1.9-1.45,26.59,26.59,0,0,0-4.78,1.48s3.64.37,4.68.37,2,.42,2-.36c0,.78.76.47,1.8.47s4.87-.48,4.87-.48A26.48,26.48,0,0,0,87,110.3"/><path class="cls-13" d="M60.41,75.25Z"/><path class="cls-13" d="M124.48,42.77c-3.4-5.18-3.64-3.72-3.64-3.72s3.4-14.15-17.73-17.28a49.86,49.86,0,0,0-8.29-.25l2.88,2.91a59.57,59.57,0,0,0-25.81-1.52c-10.68,1.65-18,6.89-24,15.42-4,5.71-5.28,14.14-5.28,14.14l5.52-7.34A36.42,36.42,0,0,0,42.6,69.91c3.27,24.66,14.74,29.23,14.74,29.23s-7.9-14.78-2.68-24.36C63.42,58.71,79,58.23,79,58.23A22.17,22.17,0,0,0,60.43,75.16a.51.51,0,0,0,0,.09c.14-.48,1.67-4.76,7.39-7C71.26,67,75.8,67,81,65.66a27.29,27.29,0,0,0-5.51,12.78s4.59-7.38,15.83-11.59l2.1-.79c-3.3,4.25-2.13,11.42-1.07,12.84,0,0-.38-6.45,13.74-10.49,8.12-2.33,9.42-6.92,9.42-6.92a25.58,25.58,0,0,0,1,7.45c1.27,3.37,4.86,5.57,5.11,8.61.49,5.66-2.58,16.27-2.58,16.27l4.58-3.58c2.36-8.25,4.58-22.07,4.58-28.43S127,46.71,124.48,42.77Z"/></g></g></svg>