<svg xmlns="http://www.w3.org/2000/svg" viewBox="0 0 174.64 174.54"><defs><style>.cls-1{fill:#b0c061;}.cls-2{fill:#dcc5a1;}.cls-3{fill:#edd9b4;}.cls-4,.cls-9{fill:#bc9f82;}.cls-4{opacity:0.7;}.cls-5{fill:#ecedef;}.cls-6{fill:#895a59;}.cls-7{fill:#fff;}.cls-8{fill:#ccad8b;}.cls-10{fill:#d9bf9f;}.cls-11{fill:#3b2f18;}.cls-12{fill:#40331b;}</style></defs><title>Ativo 99ac</title><g id="Camada_2" data-name="Camada 2"><g id="Avatares"><rect class="cls-1" width="174.64" height="174.54" rx="39.21"/><path class="cls-2" d="M88.05,102.33v72H48.76l-1-.38c0-26.76,11.54-36.37,18.62-39.75a19.77,19.77,0,0,1,5.4-1.76c2.42,0,4-3.07,5-7.74.16-.71.3-1.45.41-2.25.22-1.31.41-2.72.56-4.17.07-.88.16-1.75.24-2.66.35-4.43.47-9.23.47-13.78C78.49,101.81,83.75,102.33,88.05,102.33Z"/><path class="cls-3" d="M128.43,173.92l-.94.38H88.05v-72h.08c4.27,0,9.59-.52,9.59-.52,0,4.52.11,9.27.46,13.66.09.89.17,1.77.25,2.61.17,1.51.33,2.93.55,4.28v0a17.33,17.33,0,0,0,.31,1.71c1,5,2.61,8.31,5.09,8.31a21.13,21.13,0,0,1,6.7,2.42C118.18,138.73,128.43,148.69,128.43,173.92Z"/><path class="cls-4" d="M99,126.61v0a12.71,12.71,0,0,1-10.88,5.9h0c-6.26,0-9.9-4.56-10.84-5.87.22-1.32.42-2.72.56-4.17.09-.88.17-1.76.25-2.67a42.8,42.8,0,0,0,9.91,1.29H88a40.69,40.69,0,0,0,10.13-1.4c.09.88.16,1.76.25,2.61C98.59,123.84,98.75,125.26,99,126.61Z"/><path class="cls-5" d="M73.5,136.74s14.58,10.85,29.35,0l-15.27,22Z"/><path class="cls-6" d="M128.49,173.89s-.36.14-.94.41H48.81l-1-.41c0-36.31,20.58-41.56,23.67-42.11,1.62,1.81,3.83,4.09,6.09,6.34,4.84,4.75,10,9.42,10,9.42s5.76-4.86,10.77-9.2c0,0,0-.05,0-.05,2-1.73,3.91-3.38,5.23-4.64.25-.22.49-.42.69-.63.53-.49.94-.88,1.16-1.13h0a17.59,17.59,0,0,1,3.05,1c.22.08.44.19.69.3A26.31,26.31,0,0,1,114,136l.69.55C121.21,141.7,128.49,152.29,128.49,173.89Z"/><path class="cls-7" d="M100,154.67h1.41l.27-.07.12-.1V143.41H100Z"/><path class="cls-7" d="M103.06,144.72v9.05a9.28,9.28,0,0,1,2-.5v-9.22h-2Z"/><path class="cls-7" d="M106.34,145.36v7.78c.23,0,.46,0,.7,0s.75,0,1.11,0V145h-1.81Z"/><path class="cls-7" d="M109.46,146.31v7a8.32,8.32,0,0,1,2,.6V143h-2Z"/><polygon class="cls-7" points="113.46 145 112.95 145 112.95 154.67 112.95 154.67 114.75 154.67 114.75 145 113.46 145"/><path class="cls-7" d="M114.76,155.65H113l-.59-.15a4.35,4.35,0,0,0-.93-.58,8.32,8.32,0,0,0-2-.6c-.42-.08-.86-.14-1.31-.18s-.74,0-1.11,0h-.7c-.45,0-.89.07-1.31.13a9.9,9.9,0,0,0-2,.51,4.49,4.49,0,0,0-1.31.73l-.12.1-.27.07H97.73v2.54h.56l4,11.19v0h0a.05.05,0,0,0,0,0l.21.19a13.24,13.24,0,0,0,4.62.55c2.66,0,4.81-.33,4.81-.74,0,0,0,0,0,0h0l3.84-11a1.18,1.18,0,0,0,.11-.19h.39v-2.54Zm-3.33,1.5s0,0,0,0c-.45.6-2.2,1-4.29,1-2.44,0-4.41-.6-4.41-1.35a.72.72,0,0,1,.36-.54,5.07,5.07,0,0,1,2-.65,10.32,10.32,0,0,1,1.31-.14l.77,0c.36,0,.7,0,1,0a12,12,0,0,1,1.31.16,3.34,3.34,0,0,1,2,.88.53.53,0,0,1,.08.27A.56.56,0,0,1,111.43,157.15Z"/><path class="cls-8" d="M87.78,19.73c-41.61,0-41.85,34.71-40,57.43-2.86-5.38-11.3-3.72-10.61,4.75.67,8.18,12.6,12.41,12.44,11.45,3.4,18.7,23,29.5,38.16,29.5h.32V19.73Z"/><path class="cls-9" d="M40,78.34a4,4,0,0,1,6-1.14A3.4,3.4,0,0,1,47,81c-.29,1.09-1.44,1.17-1.15,2.83a2.94,2.94,0,0,0,1.66,2.41,3.85,3.85,0,0,1,1.4,1.52,4.14,4.14,0,0,1,.19,2.34c-.32,1.35-2.28.28-3.59-.32a24.57,24.57,0,0,1-4.3-3.48C39.44,84.29,38.63,80.52,40,78.34Z"/><path class="cls-10" d="M88.42,19.73c41.61,0,41.85,34.71,40,57.43,2.85-5.38,11.3-3.72,10.6,4.75-.66,8.18-12.6,12.41-12.43,11.45-3.41,18.7-23,29.5-38.17,29.5H88.1V19.73Z"/><path class="cls-9" d="M136.36,78.33a3.94,3.94,0,0,0-6-1.14,3.43,3.43,0,0,0-1,3.77c.28,1.09,1.44,1.17,1.15,2.82a2.94,2.94,0,0,1-1.66,2.41,3.83,3.83,0,0,0-1.41,1.53,4,4,0,0,0-.17,2.33c.31,1.35,2.27.28,3.58-.31a25,25,0,0,0,4.31-3.49C136.94,84.29,137.74,80.51,136.36,78.33Z"/><path class="cls-2" d="M87.85,29.51c-13.69,0-23.72,4-29.78,11.79-8.47,10.91-8.14,27.6-5,39.59,1,3.65,1.44,13.52,2.11,17.15,3,16.19,20.87,24.82,32.69,24.82h.31V29.52Z"/><path class="cls-3" d="M117.5,41.32c-6-7.77-15.92-11.74-29.4-11.8v93.33c13.49-.15,29.61-9.6,32.38-24.81.65-3.63,1.15-13.5,2.1-17.15C125.69,68.94,126,52.27,117.5,41.32Z"/><path class="cls-11" d="M119.09,24c-9.22-7.63-21.5-12.72-29.89-11.74-8.4-1-20.68,4.11-29.9,11.74-15,12.48-11.54,49.49-11.54,49.49s2.41-.64,3.82.93a15.27,15.27,0,0,1,3.57,7.33,5.82,5.82,0,0,0,2.67,3.8s-3.59-17.77.1-25.69C60.21,55,62.19,49.63,69.07,44.47c4.52-3.38,12.49-4.32,20.13-4.21,7.63-.11,15.6.83,20.11,4.21,6.89,5.16,8.87,10.5,11.15,15.41,3.7,7.92.1,25.69.1,25.69a5.85,5.85,0,0,0,2.68-3.8,15.36,15.36,0,0,1,3.57-7.33c1.4-1.57,3.82-.93,3.82-.93s3.5-37-11.54-49.49"/><path class="cls-12" d="M66.31,41.06A21.93,21.93,0,0,1,81.85,27.73c3-.8,12.68-1.77,16.56,0a12.19,12.19,0,0,1,6.92,7.41C106.49,38.35,106,48.4,91,49.79c-5.72.52-15.44,3.58-17.11,6.94-2.78,5.56,4.23,10.12,4.23,10.12s-9.52-4-11.83-10.67a20.57,20.57,0,0,1,.06-15.12"/><path class="cls-12" d="M106.08,114.86a12.75,12.75,0,0,0-2.84-8.49c-2.81-4.14-8.51-7-15.1-7-6.07,0-11.38,2.41-14.38,6-2.32,1.59-3.94,5.21-3.94,9.44a14.3,14.3,0,0,0,1.52,6.58,4.82,4.82,0,0,0,1.41,2,5.82,5.82,0,0,0,2.14,1.45c3.12,1.62,7.89,2.67,13.24,2.67,9.39,0,17-3.2,17-7.13,0-.06,0-.13,0-.18A15,15,0,0,0,106.08,114.86Zm-5.37,5.76a22.8,22.8,0,0,1-4.3,1.43s0-.1,0-.16c0-1.58-3.79-2.87-8.47-2.87s-8.49,1.29-8.49,2.87c0,0,0,0,0,.07a21.28,21.28,0,0,1-4.38-1.56,14.82,14.82,0,0,1-1-5.54,14.62,14.62,0,0,1,.09-1.64,18.15,18.15,0,0,1,11-5.37,22.53,22.53,0,0,1,6,0,18.41,18.41,0,0,1,10.58,5,17.23,17.23,0,0,1,.14,2.06A14.64,14.64,0,0,1,100.71,120.62Z"/></g></g></svg>