<svg xmlns="http://www.w3.org/2000/svg" xmlns:xlink="http://www.w3.org/1999/xlink" viewBox="0 0 174.37 174.54"><defs><style>.cls-1{fill:none;}.cls-2{fill:#edca3a;}.cls-3{fill:#4a3c29;}.cls-4{fill:#dcc5a1;}.cls-5{fill:#edd9b4;}.cls-6{clip-path:url(#clip-path);}.cls-7{fill:#bc9f82;}.cls-8{fill:#97c7eb;}.cls-9{fill:#895a59;}.cls-10{fill:#fdfdfd;}.cls-11{fill:#ccad8b;}.cls-12{fill:#d9bf9f;}.cls-13{fill:#292321;}.cls-14{fill:#40331b;}</style><clipPath id="clip-path"><rect class="cls-1" x="78.91" y="117.89" width="20.93" height="12.34"/></clipPath></defs><title>Ativo 101ac</title><g id="Camada_2" data-name="Camada 2"><g id="Avatares"><rect class="cls-2" width="174.37" height="174.29" rx="39.21"/><path class="cls-3" d="M135.13,104.26s-3.43-3.22-1.39-23.84A65.62,65.62,0,0,0,131.55,58c.21.6-19.76,30.08-19.76,30.08-.69,8.22-1.24,16.26-1.38,21.85l-3.36-4.28s-2.84,7-3.25,9.83c0,.15,0,.32,0,.48l-10.78-8a83.5,83.5,0,0,0,.58,8.93L87,112s0,11.81,2.22,15.5c2.46,4.15.24,15.66.24,15.66a32.77,32.77,0,0,0,6.61-8.53c-.27,2.53-.63,4.45-.63,4.45A33.47,33.47,0,0,0,104,126.16c.15,1.75.29,3.54.32,5.29a27,27,0,0,1-2.64,11,44.12,44.12,0,0,0,9-15.76c.58,7.22,2,12.45,4.9,15.28-.39-.52-1.86-2.87-1.51-9,.16-2.76.51-5.76,1-8.75,2.29,7.77,9,12.11,9,12.11a31.66,31.66,0,0,1-3.47-19.26c.33-2.17.58-4,.8-5.76a44.41,44.41,0,0,0,1.54,9.8,33.27,33.27,0,0,0,7.47,13.81s-4.83-8-.41-29.63a29.1,29.1,0,0,0,.23-6.64c2.76,4.88,4.95,5.6,4.95,5.6"/><path class="cls-3" d="M83.08,93.38l-8.76,6.5a115.54,115.54,0,0,0,.76-12L60.65,98.65c0-.21,0-.43-.06-.64-.54-3.73-4.37-13.16-4.37-13.16l-7.57,9.69C48,118.43,63.4,134.16,63.4,134.16s-3.7-7.36-3.55-14.73c0-2.35.22-4.74.42-7.09a44.73,44.73,0,0,0,11.49,17.3s-.49-2.57-.85-6a44.68,44.68,0,0,0,8.83,11.42s-3-15.4.33-21c2.92-5,3-20.76,3-20.76"/><path class="cls-4" d="M89.32,105.23v69.31H51.52c-.61-.26-.93-.38-.93-.38,0-37.2,23.14-40,23.14-40,2.31,0,3.79-2.95,4.77-7.44.17-.69.29-1.41.4-2.16.22-1.28.4-2.63.53-4,.09-.86.17-1.7.24-2.57.34-4.26.46-8.88.46-13.27,0,0,5.08.5,9.19.5"/><path class="cls-5" d="M128.2,174.16a9.73,9.73,0,0,0-.9.38h-38V105.23h.08c4.12,0,9.23-.5,9.23-.5,0,4.36.11,8.94.45,13.16.08.85.16,1.69.24,2.51.16,1.46.31,2.82.52,4.13v0c.08.58.19,1.1.3,1.62,1,4.79,2.51,8,4.9,8,0,0,23.16,2.77,23.16,40"/><g class="cls-6"><path class="cls-7" d="M99.84,124.53v0a12.19,12.19,0,0,1-10.46,5.67h-.06a13.2,13.2,0,0,1-10.41-5.64c.21-1.28.39-2.63.52-4,.09-.85.17-1.7.24-2.57a41.62,41.62,0,0,0,9.55,1.23h.1a39.12,39.12,0,0,0,9.76-1.34c.08.85.16,1.69.24,2.51.16,1.46.32,2.82.52,4.13"/></g><path class="cls-8" d="M128.13,174.16a9.73,9.73,0,0,0-.9.38H51.45c-.61-.26-.93-.38-.93-.38A72.47,72.47,0,0,1,51.47,162c4.38-25.66,22.2-27.8,22.2-27.8h.18a3.18,3.18,0,0,0,.52-.1c1.74-.47,2.91.78,3.79-2.76l11,19.6,11.18-19.6c.75,3.15,1.88,1.72,3.37,2.54a1.59,1.59,0,0,0,.41.16,2.12,2.12,0,0,0,.83.16s23.16,2.77,23.16,40"/><path class="cls-9" d="M74.22,133.7a2.39,2.39,0,0,1-.52.1h-.18s-18,2.17-22.41,28.07a72.59,72.59,0,0,0-1,12.27l.94.4H78.42l-.37-43.62c-.88,3.57-2.06,2.31-3.83,2.78"/><path class="cls-9" d="M128.91,174.14c0-37.52-23.37-40.34-23.37-40.34a2.66,2.66,0,0,1-.85-.14,2.78,2.78,0,0,1-.4-.16c-1.51-.84-2.64.59-3.42-2.58l-.54,43.62H128c.55-.26.9-.4.9-.4"/><path class="cls-10" d="M81.83,136.12s-3-8.23-3.23-10.07c0,0-.81,1.71-1.68,3.65-.53,1.16-2,2.53-2.6,4-1.61,3.92-3.42,19.21-3.42,19.21l5.81-5.62s8.76-.66,12.6,4c1,1.18-7.48-15.18-7.48-15.18"/><path class="cls-10" d="M96.9,136.12s3.08-8.23,3.28-10.07c0,0,.82,1.71,1.73,3.65.54,1.16,2,2.53,2.65,4,1.64,3.92,3.44,19.21,3.44,19.21l-5.88-5.62s-8.94-.66-12.88,4c-1,1.18,7.66-15.18,7.66-15.18"/><path class="cls-3" d="M132.7,81.53a10.33,10.33,0,0,0-2.54,3.8c-1.37,3.67-1.89,3-1.89,3S130.43,74,130.43,70s-12.32-24.17-19.19-26.54-13.08,5.6-20.47,5.6h-.58c-7.25-.15-13.68-7.92-20.47-5.6S50.53,66.05,50.53,70,52.7,88.37,52.7,88.37s-.54.63-1.9-3a10,10,0,0,0-3-4.22c-1.83-24.86-.79-61.5,42.38-61.5h.23c43.39,0,44.21,37.05,42.33,61.92"/><path class="cls-11" d="M89.44,25.74C49.38,25.74,49.15,59.15,50.93,81c-2.74-5.17-10.86-3.57-10.2,4.59.64,7.86,12.12,11.93,12,11C56,114.63,74.82,125,89.44,125l.31,0V25.75h-.31"/><path class="cls-7" d="M43.29,82.15a3.81,3.81,0,0,1,5.78-1.1A3.28,3.28,0,0,1,50,84.68c-.28,1-1.38,1.13-1.12,2.71a2.87,2.87,0,0,0,1.6,2.33,3.64,3.64,0,0,1,1.36,1.46A3.94,3.94,0,0,1,52,93.44c-.3,1.29-2.19.26-3.44-.31a23.66,23.66,0,0,1-4.14-3.35c-1.69-1.89-2.47-5.53-1.15-7.63"/><path class="cls-12" d="M89.64,25.74c40,0,40.27,33.41,38.49,55.28,2.75-5.17,10.86-3.57,10.21,4.59-.66,7.86-12.12,11.93-12,11-3.3,18-22.14,28.41-36.74,28.41l-.32,0V25.75h.32"/><path class="cls-7" d="M135.79,82.15a3.83,3.83,0,0,0-5.8-1.1,3.3,3.3,0,0,0-.93,3.63c.28,1,1.37,1.13,1.1,2.71a2.79,2.79,0,0,1-1.6,2.33,3.59,3.59,0,0,0-1.33,1.46,3.86,3.86,0,0,0-.18,2.26c.3,1.29,2.18.26,3.44-.31a24,24,0,0,0,4.14-3.35c1.7-1.89,2.47-5.53,1.16-7.63"/><path class="cls-4" d="M89.09,35.16c-13.18,0-22.82,3.82-28.67,11.35C52.28,57,52.59,73.08,55.59,84.61c.92,3.52,1.39,13,2,16.51C60.46,116.71,77.72,125,89.09,125l.3,0V35.16h-.3"/><path class="cls-5" d="M117.69,46.52c-5.8-7.47-15.34-11.29-28.3-11.36V125c13-.15,28.48-9.24,31.16-23.88.63-3.48,1.1-13,2-16.51,3-11.51,3.29-27.54-4.88-38.09"/><path class="cls-13" d="M128.59,74.53c-.2-.43-4.45-1-10-1.55a88.36,88.36,0,0,0-15.12.25,56.49,56.49,0,0,0-5.58,1.15c-2.44.65-4.84,1.48-5.85,1.69a10.47,10.47,0,0,1-2.5.25H89.2a10.48,10.48,0,0,1-2.52-.25c-1-.21-3.4-1-5.85-1.69a56.49,56.49,0,0,0-5.58-1.15A88.34,88.34,0,0,0,60.13,73c-5.54.5-9.76,1.12-10,1.55s-.49,4.31,0,4.74,2,1.29,2.38,2.71,1.92,11.6,5.34,14.39c5.62,4.58,24.57,4.78,27.83-11.93.45-2.28,1-3.62,2-4a5.19,5.19,0,0,1,1.66-.27,5.12,5.12,0,0,1,1.65.27c1,.37,1.62,1.71,2.07,4,3.25,16.71,22.19,16.51,27.83,11.93,3.42-2.79,5-13,5.33-14.39s1.94-2.27,2.39-2.71S128.75,74.84,128.59,74.53ZM82.69,85.94C79.74,99.05,65.47,97.52,62,96.49c-1.51-.45-6-2.15-6.65-12.81-.5-7.42,3.07-7.87,8.14-8.48a41.75,41.75,0,0,1,10.26,0c2.47.31,8.26,1.5,8.83,3.53A14.19,14.19,0,0,1,82.69,85.94Zm40.68-2.26c-.71,10.66-5.14,12.36-6.66,12.81-3.45,1-17.71,2.56-20.66-10.55a14.29,14.29,0,0,1,.09-7.2c.57-2,6.34-3.22,8.82-3.53a41.74,41.74,0,0,1,10.26,0C120.28,75.81,123.86,76.26,123.37,83.68Z"/><path class="cls-14" d="M69.55,37A22,22,0,0,1,85.09,23.66c3-.8,12.69-1.76,16.57,0a12.22,12.22,0,0,1,6.92,7.41c1.16,3.21.65,13.26-14.38,14.65-5.72.52-15.44,3.58-17.11,6.94-2.77,5.55,4.23,10.12,4.23,10.12s-9.51-4-11.83-10.67A20.62,20.62,0,0,1,69.55,37"/></g></g></svg>