<svg xmlns="http://www.w3.org/2000/svg" viewBox="0 0 174.4 174.32"><defs><style>.cls-1{fill:#3c1c2b;}.cls-2{fill:#dcc5a1;}.cls-3{fill:#edd9b4;}.cls-4,.cls-9{fill:#bc9f82;}.cls-4{opacity:0.7;}.cls-5{fill:#ecedef;}.cls-6{fill:#841720;}.cls-7{fill:#362c1d;}.cls-8{fill:#ccad8b;}.cls-10{fill:#d9bf9f;}.cls-11{fill:#cd6c13;}</style></defs><title>Ativo 126ac</title><g id="Camada_2" data-name="Camada 2"><g id="Avatares"><rect class="cls-1" width="174.4" height="174.32" rx="39.28"/><path class="cls-2" d="M82.78,106.27v68H45.66l-.91-.39c0-36.5,22.71-39.22,22.71-39.22,1.7,0,2.92-1.6,3.86-4.22a26.69,26.69,0,0,0,.84-3.09c.15-.67.28-1.38.38-2.12.22-1.26.39-2.57.53-3.94.07-.84.15-1.67.23-2.52.34-4.18.44-8.72.44-13C73.74,105.78,78.74,106.27,82.78,106.27Z"/><path class="cls-3" d="M120.93,173.91s-.34.13-.88.39H82.78v-68h.07c4,0,9.06-.49,9.06-.49,0,4.28.1,8.76.44,12.91.08.83.16,1.66.23,2.46.16,1.43.32,2.78.53,4v0c.08.57.18,1.09.28,1.6a18.82,18.82,0,0,0,1.82,5.53c.79,1.48,1.78,2.33,3,2.33C98.21,134.69,120.93,137.41,120.93,173.91Z"/><path class="cls-4" d="M93.11,125.2v0a12,12,0,0,1-10.28,5.56h0c-5.9,0-9.35-4.3-10.23-5.54.21-1.25.39-2.57.52-3.94q.12-1.25.24-2.52A40,40,0,0,0,82.67,120h.11a37.82,37.82,0,0,0,9.58-1.32c.07.84.15,1.66.23,2.47C92.75,122.59,92.9,123.94,93.11,125.2Z"/><polygon class="cls-5" points="56.98 141.08 55.51 142.14 54.32 138.96 53.14 135.78 55.8 137.91 58.45 140.02 56.98 141.08"/><polygon class="cls-5" points="60.13 138.36 58.41 138.91 58.26 135.53 58.12 132.14 59.99 134.97 61.86 137.8 60.13 138.36"/><polygon class="cls-5" points="64.38 136.37 62.57 136.43 63.34 133.13 64.12 129.83 65.16 133.06 66.19 136.28 64.38 136.37"/><polygon class="cls-5" points="108.16 140.62 109.64 141.68 110.82 138.5 112 135.32 109.34 137.45 106.69 139.56 108.16 140.62"/><polygon class="cls-5" points="105.01 137.91 106.73 138.46 106.88 135.07 107.02 131.69 105.15 134.52 103.28 137.35 105.01 137.91"/><polygon class="cls-5" points="100.76 135.91 102.57 135.98 101.8 132.68 101.03 129.38 99.98 132.6 98.95 135.83 100.76 135.91"/><path class="cls-6" d="M120.93,173.9s-.34.13-.88.4H45.66l-.91-.4c0-36.7,22.71-39.44,22.71-39.44,1.7,0,2.92-1.62,3.86-4.26l11.46,20,12.43-18.11c.79,1.49,1.78,2.35,3,2.35C98.21,134.46,120.93,137.2,120.93,173.9Z"/><path class="cls-7" d="M82.87,157.92a3.27,3.27,0,0,1-3.27-3.25s1.47-8.7,3.27-8.7,3.26,8.7,3.26,8.7A3.26,3.26,0,0,1,82.87,157.92Z"/><path class="cls-8" d="M82.89,28.25C43.57,28.25,43.35,61,45.09,82.5,42.4,77.42,34.43,79,35.07,87,35.7,94.72,47,98.71,46.81,97.81c3.23,17.67,21.73,27.88,36.08,27.88l.3,0V28.25Z"/><path class="cls-9" d="M37.59,83.61a3.73,3.73,0,0,1,5.68-1.08,3.25,3.25,0,0,1,.92,3.56c-.28,1-1.37,1.11-1.09,2.68A2.76,2.76,0,0,0,44.66,91,3.59,3.59,0,0,1,46,92.48a3.86,3.86,0,0,1,.17,2.21c-.3,1.27-2.15.26-3.39-.31a23,23,0,0,1-4.06-3.29C37.05,89.24,36.29,85.68,37.59,83.61Z"/><path class="cls-10" d="M83.08,28.25c39.32,0,39.54,32.79,37.79,54.25,2.69-5.08,10.68-3.51,10,4.5-.63,7.72-11.9,11.71-11.74,10.81-3.23,17.67-21.73,27.88-36.07,27.88l-.3,0V28.25Z"/><path class="cls-9" d="M128.38,83.61a3.73,3.73,0,0,0-5.68-1.08,3.25,3.25,0,0,0-.92,3.56c.27,1,1.37,1.11,1.1,2.68A2.77,2.77,0,0,1,121.3,91,3.51,3.51,0,0,0,120,92.48a3.86,3.86,0,0,0-.18,2.21c.3,1.27,2.15.26,3.39-.31a22.67,22.67,0,0,0,4.07-3.29C128.91,89.24,129.68,85.68,128.38,83.61Z"/><path class="cls-2" d="M82.55,37.49c-12.94,0-22.41,3.74-28.14,11.13-8,10.32-7.7,26.09-4.75,37.4.91,3.46,1.37,12.79,2,16.21,2.79,15.3,19.74,23.46,30.9,23.46l.29,0V37.5Z"/><path class="cls-3" d="M110.62,48.63c-5.69-7.34-15.05-11.07-27.78-11.13v88.17c12.75-.13,28-9.07,30.59-23.44.62-3.42,1.08-12.75,2-16.21C118.36,74.74,118.66,59,110.62,48.63Z"/><path class="cls-11" d="M41.63,46.71c-1.24,9.1-1.58,16.61-1.58,16.61l-.17,20.62a45.19,45.19,0,0,1,2.9-11.09c.72-1.73.81-6.22.81-6.22s-1.68,4.79-1.33,17.31c.2,7.46,6.31,14,6.31,14S42.78,86.69,48,77.84a15.61,15.61,0,0,1,3.41-3.92l-.31,10.6S56.63,75.11,58,64.76c.9-7,0-9.17,0-9.17a23.43,23.43,0,0,0,5.18,14.9c7.44,9.42,18.44,12.28,22.53,13.18,3.23.71,13.12.68,13.12.68s-5.32-.41-11.6-5.28a35.6,35.6,0,0,1-6.41-6.44s4.53,4.74,7.64,6.52a22.51,22.51,0,0,0,12.88,3.09S95,79.09,92.63,76.52a45.67,45.67,0,0,1-5.13-7.75s5.76,7.51,9.33,9.42c9.14,4.9,16.75,1.74,16.75,1.74s-6.89-.47-9.53-5.82L101,67.75s1.66,7.86,15.61,11.69a25.82,25.82,0,0,0,11.58.09s-6.61-.75-10.17-5.27c-2.13-2.72-8.39-13.94-8.39-13.94a39.57,39.57,0,0,0,3.26,6.57,51.28,51.28,0,0,1,6.29,15C120.4,87.62,118,96.31,118,96.31s9.55-15.27,8-30.16c-.29-2.81-.68-13.89-2-20C116.9,12.31,76.19,18.35,76.19,18.35S45.47,18.39,41.63,46.71Z"/></g></g></svg>