<svg xmlns="http://www.w3.org/2000/svg" xmlns:xlink="http://www.w3.org/1999/xlink" viewBox="0 0 174.99 175.57"><defs><style>.cls-1{fill:none;}.cls-2{fill:#523570;}.cls-3{fill:#dcc5a1;}.cls-4{fill:#edd9b4;}.cls-5{clip-path:url(#clip-path);}.cls-6{fill:#bc9f82;}.cls-7{fill:#464c66;}.cls-8{fill:#4f4e49;}.cls-9{fill:#ccad8b;}.cls-10{fill:#d9bf9f;}.cls-11{fill:#211915;}.cls-12{fill:#010300;}.cls-13{fill:#0c0e03;}</style><clipPath id="clip-path"><rect class="cls-1" x="79.17" y="114.73" width="22.31" height="13.14"/></clipPath></defs><title>Ativo 97ac</title><g id="Camada_2" data-name="Camada 2"><g id="Avatares"><rect class="cls-2" width="174.99" height="175.57" rx="39.36"/><path class="cls-3" d="M90.28,101.24v73.82H50l-1-.42c0-25.33,10.09-35.67,17.37-39.83a21.32,21.32,0,0,1,7.18-2.69l.1,0c2.47,0,4-3.16,5.09-7.94.17-.74.31-1.5.42-2.31.22-1.34.42-2.79.57-4.28.08-.9.17-1.8.25-2.74.36-4.51.48-9.44.48-14.11,0,0,5.43.53,9.8.53"/><path class="cls-4" d="M131.69,174.64s-.37.14-1,.42H90.28V101.24h.08c4.38,0,9.83-.53,9.83-.53,0,4.64.11,9.51.49,14,.08.9.17,1.78.25,2.66.16,1.56.33,3,.56,4.39v0c.1.62.19,1.19.32,1.75,1,5,2.64,8.45,5.13,8.53H107a21.1,21.1,0,0,1,7.07,2.59c7.28,4,17.6,14.34,17.6,40"/><g class="cls-5"><path class="cls-6" d="M101.48,121.78v0a13,13,0,0,1-11.15,6.06h0c-6.41,0-10.14-4.69-11.11-6,.23-1.34.43-2.78.56-4.28.09-.88.18-1.79.26-2.72a44.45,44.45,0,0,0,10.18,1.32h.11a42.16,42.16,0,0,0,10.38-1.43c.08.9.17,1.8.26,2.67.17,1.55.34,3,.56,4.38"/></g><path class="cls-7" d="M102.1,152.87c-.55-1.44-2.82-1.16-4.21-1.62-2-.67-3.56-2.41-5.22-3.07,2-.66,3.67-1.73,6.08-2.07,1,.37,1.88,1.37,3.3.81.55-1.13-.43-1.89-.87-2.58a2.65,2.65,0,0,0-.17-2.43c-2.14.05-3.12,1.92-4.68,2.74-1.82,1-3.91,1.4-5.92,2.42a26.68,26.68,0,0,0-6.25-2.58c-1-1.14-2.38-3.25-4.35-2.4-.08,1.77-.1,3-1,4.18.8,1.52,2.54.26,3.65-.16a21.19,21.19,0,0,1,5.92,2.24c-1.38.17-3.06,2.22-5.21,2.9-1.89.58-4.87.24-4.36,2.26.2.72,1.18,1,2.43,1a2.72,2.72,0,0,0,1.93,1.43,2.74,2.74,0,0,0,1.38-2.56c2-1.36,3.68-2.92,6.09-3.86,1.87,1.32,4.41,2.07,5.74,3.86.66.89.56,2.19,1.9,2.56,0,0,3,0,4-2.25C102.44,153.22,102.35,153,102.1,152.87Z"/><path class="cls-8" d="M122.51,175.06H58.06c.17-2.53.43-6.22.69-8.21,1.14-9.61,4.79-24.61,7.64-32,.11-.3.23-.59.34-.86l6.84-2.17v.34c.07,2.75.53,20.68,1,25.61.31,3.51,8.55,5.14,15.7,5.4,7.15-.26,15.37-1.89,15.69-5.4.46-5,.91-23,1-25.64,0-.2,0-.31,0-.31l6.85,2.17c.08.22.2.47.28.73,2.88,7.37,6.53,22.5,7.73,32.17.26,2,.52,5.68.69,8.21"/><path class="cls-9" d="M89.9,16.58c-42.66,0-42.89,35.59-41,58.88C46,69.93,37.31,71.64,38,80.34c.67,8.37,12.9,12.7,12.73,11.72,3.5,19.17,23.57,30.25,39.14,30.25h.32V16.58H89.9"/><path class="cls-6" d="M40.75,76.66a4,4,0,0,1,6.15-1.17,3.5,3.5,0,0,1,1,3.86c-.31,1.11-1.49,1.2-1.2,2.89a3,3,0,0,0,1.71,2.47,4,4,0,0,1,1.43,1.57,4.16,4.16,0,0,1,.19,2.4c-.31,1.38-2.33.28-3.68-.34A25.69,25.69,0,0,1,42,84.78c-1.79-2-2.62-5.89-1.21-8.12"/><path class="cls-10" d="M90.1,16.58c42.67,0,42.91,35.59,41,58.88,2.94-5.53,11.58-3.82,10.88,4.88-.69,8.37-12.92,12.7-12.75,11.72-3.5,19.17-23.57,30.25-39.14,30.25h-.32V16.58h.32"/><path class="cls-6" d="M139.26,76.66a4.06,4.06,0,0,0-6.17-1.17,3.53,3.53,0,0,0-1,3.86c.31,1.11,1.48,1.2,1.19,2.89a3,3,0,0,1-1.71,2.47c-.48.44-1.12.77-1.42,1.57a3.93,3.93,0,0,0-.19,2.4c.32,1.38,2.33.28,3.66-.34A25,25,0,0,0,138,84.78c1.8-2,2.63-5.89,1.22-8.12"/><path class="cls-3" d="M89.52,26.62c-14,0-24.3,4.05-30.52,12.08C50.31,49.9,50.64,67,53.86,79.28c1,3.76,1.46,13.86,2.15,17.58,3,16.6,21.4,25.45,33.51,25.45.1,0,.22,0,.33,0V26.63h-.33"/><path class="cls-4" d="M120,38.71c-6.17-8-16.33-12-30.14-12.08v95.65c13.82-.14,30.35-9.83,33.19-25.42.67-3.72,1.18-13.82,2.15-17.58C128.38,67,128.7,50,120,38.71"/><path class="cls-11" d="M132.36,73.79A12.49,12.49,0,0,0,129.8,78c-1.38,3.51-1.89,2.92-1.89,2.92s2.14-13.75,2.14-17.59S117.77,42.78,110.9,40.5,97.67,43,90.29,43h-.58c-7.24-.14-13.48-4.7-20.26-2.48s-19.14,19-19.14,22.83,2.14,17.59,2.14,17.59-.52.59-1.88-2.92a12.22,12.22,0,0,0-3.32-4.54c-1.84-23.8-.49-58.39,42.58-58.39h.23c43.31,0,44.2,34.91,42.3,58.72"/><path class="cls-12" d="M89.61,99.25C84,99.22,78.3,98,75.39,101.09c-2.38,3.13-2.76,11,0,14.22,1.31-3.92,1-8.29,4.64-9.78,3.24-1.31,7.71.15,9.65-3.25,2.19,4.86,8.73,1.29,12,5.76,1.53,2.13,1.51,3.93,2.61,7.82,3.06-2.73,2.88-10.4.91-13.34C102.22,98.17,96.07,99.3,89.61,99.25Z"/><path class="cls-13" d="M128.94,93.05c-1.59,2.29-5.65,2.72-8.76,5.92s-17.39,8.66-17.39,8.66-.3,4.73-8.84,4.75c-1.56,0-2.67-2-3.92-2H90c-1.25,0-2.36,2-3.92,2-8.53,0-8.83-4.75-8.83-4.75S62.91,102.19,59.8,99s-7.17-3.63-8.74-5.92c-1.21-1.73,2,8.26,3.15,10.39s3.51,9.26,6.37,13,4.14,3.91,5.16,4.81,0-4.28,0-4.28,3.89,5.17,5.44,6.41,10.86,6,17.08,7.65c.46.13.89.21,1.33.31v.1l.22,0,.14,0v0H90v0l.15,0,.22,0v-.1c.43-.1.85-.18,1.34-.31,6.2-1.6,15.51-6.4,17.07-7.65s5.43-6.41,5.43-6.41-1,5.17,0,4.28,2.32-1.07,5.16-4.81,5.26-10.87,6.39-13,4.35-12.12,3.15-10.39"/></g></g></svg>