<svg xmlns="http://www.w3.org/2000/svg" viewBox="0 0 175 175.3"><defs><style>.cls-1{fill:#658f83;}.cls-2{fill:none;}.cls-3{fill:#0c0e03;}.cls-4{fill:#dcc5a1;}.cls-5{fill:#edd9b4;}.cls-6,.cls-8{fill:#bc9f82;}.cls-6{opacity:0.7;}.cls-7{fill:#ccad8b;}.cls-9{fill:#d9bf9f;}.cls-10{fill:#cd6c13;}.cls-11{fill:#fdfbf8;}.cls-12{fill:#b3b628;}.cls-13{fill:#425f6a;}.cls-14{fill:#856da5;}</style></defs><title>Ativo 157ac</title><g id="Camada_2" data-name="Camada 2"><g id="Avatares"><rect class="cls-1" y="1.17" width="175" height="174.13" rx="39.36"/><polyline class="cls-2" points="126.59 1.26 123.57 0 120.56 0 97.52 1.26"/><path class="cls-3" d="M68.91,105.44c-.66-.5-12.79-8-12.79-8,.83,4.64,1.46,6.54.25,9.69-1.1,2.83-3.21,3.93-4.36,4.92a9.31,9.31,0,0,1-4.35,1.74,13,13,0,0,1-1.77-.15s1.92,1.06,6.74.85a7.63,7.63,0,0,0,4.16-1.18c-.95,1.54-1.85,3.74-.84,5.78,3.64,7.42-1.22,9.85-1.22,9.85s4.31-.43,6.78-2.61c0,.06,0,.13,0,.18,1.1,3.72,4,4.13,4,4.13s-1.82-.3-1.48-3.75c.1-.92,1-1.29,2.24-1.9.46,3.33,2,6.72-1.14,8.11,0,0,5.27-1.05,6.23-4.16a12.18,12.18,0,0,0,.36-1.64,8.79,8.79,0,0,1,.24.88c.76,4-2.27,7.83-2.27,7.83s10.94-1.15,11-5.48a22.13,22.13,0,0,1,.48-4.29c.33-1,1-6,1-6S69.58,105.93,68.91,105.44Z"/><path class="cls-3" d="M114.2,105.44c.67-.5,12.79-8,12.79-8-.83,4.64-1.45,6.54-.24,9.69,1.1,2.83,3.19,3.93,4.36,4.92a9.23,9.23,0,0,0,4.35,1.74,13.19,13.19,0,0,0,1.77-.15s-1.93,1.06-6.76.85a7.58,7.58,0,0,1-4.14-1.18c1,1.54,1.85,3.74.84,5.78-3.65,7.42,1.22,9.85,1.22,9.85s-4.31-.43-6.79-2.61a1,1,0,0,1,0,.18c-1.09,3.72-4,4.13-4,4.13s1.82-.3,1.47-3.75c-.09-.92-1-1.29-2.24-1.9-.47,3.33-2,6.72,1.15,8.11,0,0-5.27-1.05-6.23-4.16a12.18,12.18,0,0,1-.36-1.64,8.89,8.89,0,0,0-.26.88c-.74,4,2.29,7.83,2.29,7.83s-10.94-1.15-11-5.48a21.3,21.3,0,0,0-.47-4.29c-.33-1-1-6-1-6S113.54,105.93,114.2,105.44Z"/><path class="cls-4" d="M91.55,111.64V175.2H56.87l-.85-.36c0-34.1,21.23-36.64,21.23-36.64,2.12,0,3.48-2.72,4.38-6.84q.21-.93.36-2c.2-1.17.36-2.41.49-3.68.07-.78.14-1.56.22-2.36.31-3.89.41-8.14.41-12.16C83.11,111.18,87.78,111.64,91.55,111.64Z"/><path class="cls-5" d="M127.2,174.84s-.32.12-.83.36H91.55V111.64h.07c3.77,0,8.46-.46,8.46-.46,0,4,.1,8.19.41,12.07.08.78.15,1.55.23,2.3.14,1.34.28,2.59.48,3.78v0c.08.53.17,1,.27,1.51.9,4.38,2.31,7.34,4.49,7.34C106,138.2,127.2,140.74,127.2,174.84Z"/><path class="cls-6" d="M101.2,129.33v0a11.2,11.2,0,0,1-9.6,5.22h0A12.14,12.14,0,0,1,82,129.38c.2-1.17.36-2.41.49-3.68.07-.78.14-1.56.22-2.36a37.56,37.56,0,0,0,8.75,1.14h.1a36.07,36.07,0,0,0,8.94-1.23c.08.78.15,1.55.23,2.3C100.86,126.89,101,128.14,101.2,129.33Z"/><path class="cls-7" d="M91.65,38.74c-36.73,0-36.94,30.64-35.31,50.69-2.52-4.75-10-3.28-9.36,4.21.59,7.21,11.11,10.94,11,10.1,3,16.5,20.3,26,33.71,26l.28,0v-91Z"/><path class="cls-8" d="M49.33,90.47a3.48,3.48,0,0,1,5.3-1,3,3,0,0,1,.86,3.33c-.26.95-1.28,1-1,2.49a2.56,2.56,0,0,0,1.46,2.12,3.4,3.4,0,0,1,1.24,1.35,3.55,3.55,0,0,1,.16,2.07c-.27,1.18-2,.24-3.16-.28a22.3,22.3,0,0,1-3.8-3.08C48.82,95.73,48.11,92.4,49.33,90.47Z"/><path class="cls-9" d="M91.83,38.74c36.73,0,36.94,30.64,35.31,50.69,2.52-4.75,10-3.28,9.36,4.21-.59,7.21-11.12,10.94-11,10.1-3,16.5-20.3,26-33.7,26l-.28,0v-91Z"/><path class="cls-8" d="M134.15,90.47a3.48,3.48,0,0,0-5.3-1,3,3,0,0,0-.86,3.33c.25.95,1.27,1,1,2.49a2.54,2.54,0,0,1-1.47,2.12,3.47,3.47,0,0,0-1.24,1.35,3.63,3.63,0,0,0-.16,2.07c.28,1.18,2,.24,3.17-.28a22.24,22.24,0,0,0,3.79-3.08C134.65,95.73,135.37,92.4,134.15,90.47Z"/><path class="cls-4" d="M91.33,47.37c-12.09,0-20.93,3.5-26.29,10.41-7.48,9.64-7.19,24.37-4.43,34.94.84,3.23,1.27,11.94,1.85,15.14,2.61,14.3,18.44,21.92,28.87,21.92l.28,0V47.38Z"/><path class="cls-5" d="M117.56,57.79c-5.31-6.86-14.06-10.35-25.95-10.41v82.38c11.9-.13,26.14-8.47,28.58-21.9.58-3.2,1-11.91,1.85-15.14C124.79,82.18,125.07,67.47,117.56,57.79Z"/><path class="cls-3" d="M131.78,68.54a8.75,8.75,0,0,0-.78-1.49c-.7-5.23-4.41-15.69-8-20.94-3.79-5.46-13.06-10.3-25-11.74s-22.3,7-22.3,7-1.84-2.72-3.42-3.53-6.1.16-6.1.16,3.07.85,3.67,1.66a3.27,3.27,0,0,1,.61,3S66.86,41,65.28,41c-2.88-.08-6.12,3.57-6.12,3.57a10.37,10.37,0,0,1,5.29-1.82,14.19,14.19,0,0,1,3.19,1.13s-4.27.44-12.26,9.17c-6,6.59-6,15.29-6,15.29l5-2.89a13.33,13.33,0,0,0-2,3.12c-3.73,9.24,1.38,18.51,1.38,18.51s1.66.17,3.18,3.73a68.81,68.81,0,0,1,3.34,10.78h1.79s-3.84-14.88-1.25-23c.71-2.22,2.63-6.8,5.31-7A9.6,9.6,0,0,0,68.75,67c.79-3.06,4.89-8.19,7.1-9.15a3,3,0,0,1,3.47.48,23.63,23.63,0,0,1,9.79-3.85c6.31-1.12,9.78,5.62,11.16,9.16s.67,5.3.67,5.3,2.68-4.34,2.37-8.68a10.8,10.8,0,0,0-.73-3.31c.83.42,4.41,1.41,5.15,10.7.35,4.4-3.63,7.39-3.63,7.39s8.86-3.66,7-15c1.9,2,3.84,4.9,4.36,6.91.78,3.06,7.42,10.17,7.86,11.56,2.58,8.1-1.24,23-1.24,23h1.78a68.2,68.2,0,0,1,3.35-10.78c1.52-3.56,3.18-3.73,3.18-3.73S135.51,77.78,131.78,68.54ZM101.69,55.31c0-.06-.09-.13-.14-.18l.15.15Z"/><path class="cls-10" d="M136.68,76.09c-2.52-9.6-9.09-23.52-13.72-30a19.11,19.11,0,0,0-3.08-3.34,3.16,3.16,0,0,0,1-1.8c.21-1.91,1.15-5.83-1.6-4.45-2.59,1.3.57,2-.94,4.14-1.57-2.17-6.6-6.62-22.67-12.57-23.15-8.58-29.15-1.27-36.8,2.54s-8,7.62-7,10.1S53.78,51,55.38,53,64,52.24,77.7,64.27s41.77,17.84,50.05,29.07,12.12,7.51,12.12,7.51,1-2.21,1.91-4.76S140.19,89.41,136.68,76.09Z"/><path class="cls-11" d="M127.48,174.85l-.85.36H56.88l-.87-.36c0-1,0-2,.05-3a61.6,61.6,0,0,1,.56-6.28,40.23,40.23,0,0,1,.85-4.63c.12-.66.29-1.29.46-1.92.25-.85.49-1.67.76-2.47s.45-1.28.7-1.89a32.61,32.61,0,0,1,2.36-4.77,26.08,26.08,0,0,1,5.11-6.28,23.66,23.66,0,0,1,4.3-3.13.21.21,0,0,0,.1,0,.06.06,0,0,1,0,0,17.55,17.55,0,0,0,2.84,3.2c1.66,1.62,4,3.75,7.07,6.28.2.14.42.34.64.51,6.3,5.09,13.5,5.09,19.77,0,.22-.17.44-.37.64-.51,3.06-2.53,5.44-4.66,7.09-6.28a18.27,18.27,0,0,0,2.85-3.2s0,0,0,0a.33.33,0,0,0,.13,0,24,24,0,0,1,4.3,3.13,26.56,26.56,0,0,1,5.11,6.28,29.83,29.83,0,0,1,2.33,4.77c.25.61.49,1.24.71,1.89s.53,1.62.77,2.47c.18.63.32,1.26.47,1.92.33,1.45.61,3,.82,4.63.27,1.94.46,4.05.56,6.28C127.46,172.81,127.48,173.83,127.48,174.85Z"/><path class="cls-10" d="M81,162.85a3.61,3.61,0,1,1-3.6-3.59A3.59,3.59,0,0,1,81,162.85Z"/><path class="cls-12" d="M91.24,168.34a1.91,1.91,0,1,1-1.9-1.9A1.9,1.9,0,0,1,91.24,168.34Z"/><path class="cls-13" d="M107.71,164.05a4.51,4.51,0,1,1-4.51-4.5A4.49,4.49,0,0,1,107.71,164.05Z"/><path class="cls-12" d="M119.05,168.34a1.3,1.3,0,1,1-1.3-1.3A1.3,1.3,0,0,1,119.05,168.34Z"/><path class="cls-14" d="M113.84,153.67a1.4,1.4,0,1,1-1.4-1.41A1.39,1.39,0,0,1,113.84,153.67Z"/><path class="cls-12" d="M72.57,151.47a1.81,1.81,0,1,1-1.81-1.79A1.81,1.81,0,0,1,72.57,151.47Z"/><path class="cls-12" d="M67,166.44a2.41,2.41,0,1,1-2.4-2.39A2.4,2.4,0,0,1,67,166.44Z"/></g></g></svg>