<svg xmlns="http://www.w3.org/2000/svg" viewBox="0 0 174.64 174.54"><defs><style>.cls-1{fill:#895a59;}.cls-2{fill:#dcc5a1;}.cls-3{fill:#edd9b4;}.cls-4,.cls-8{fill:#bc9f82;}.cls-4{opacity:0.7;}.cls-5{fill:#304f3c;}.cls-6{fill:#223727;}.cls-7{fill:#ccad8b;}.cls-9{fill:#d9bf9f;}.cls-10{fill:#010300;}</style></defs><title>Ativo 92ac</title><g id="Camada_2" data-name="Camada 2"><g id="Avatares"><rect class="cls-1" width="174.64" height="174.54" rx="39.21"/><path class="cls-2" d="M87.57,106.89V174.3H50.79l-.91-.38c0-36.17,22.52-38.87,22.52-38.87h0c2.22-.05,3.64-2.9,4.6-7.24.15-.67.28-1.37.38-2.11.21-1.24.39-2.55.51-3.9.08-.83.16-1.65.24-2.5.34-4.14.44-8.64.44-12.9C78.62,106.4,83.57,106.89,87.57,106.89Z"/><path class="cls-3" d="M125.38,173.73v.19l-.49.2h0c-.11.06-.24.11-.36.18H87.57V106.89h.08c4,0,9-.49,9-.49,0,4.24.1,8.68.44,12.8.08.82.16,1.64.23,2.44.16,1.42.31,2.75.52,4v0c.08.56.18,1.08.28,1.59,1,4.65,2.45,7.78,4.77,7.78a20.06,20.06,0,0,1,7.4,2.93C116.81,142,125.33,151.58,125.38,173.73Z"/><path class="cls-4" d="M97.81,125.65v0a11.9,11.9,0,0,1-10.18,5.52h-.06c-5.85,0-9.25-4.27-10.13-5.49.2-1.24.38-2.55.51-3.91.08-.83.16-1.65.23-2.49a41.17,41.17,0,0,0,9.29,1.2h.1a38.17,38.17,0,0,0,9.5-1.31c.07.82.15,1.65.23,2.44C97.45,123.06,97.61,124.4,97.81,125.65Z"/><path class="cls-5" d="M126.78,174.13s-.33.14-.89.41H50.78l-.92-.41c0-28.12,13.32-36.41,19.65-38.76,4.14,4.53,12.31,10.77,18.61,11.09h.19s.08,0,.13,0c6.34-.32,14.51-6.59,18.64-11.12,6.3,2.33,19.7,10.59,19.7,38.79"/><polygon class="cls-6" points="80.27 153.02 79.89 152.47 75.69 155.35 71.5 152.47 71.13 153.02 75.12 155.75 71.13 158.48 71.5 159.01 75.69 156.14 79.89 159.01 80.27 158.48 76.27 155.75 80.27 153.02"/><polygon class="cls-6" points="106.2 153.02 105.83 152.47 101.63 155.35 97.45 152.47 97.07 153.02 101.06 155.75 97.07 158.48 97.45 159.01 101.63 156.14 105.83 159.01 106.2 158.48 102.21 155.75 106.2 153.02"/><polygon class="cls-6" points="97.14 163.53 92.92 167.53 88.6 163.53 84.39 167.53 80.08 163.53 75.46 167.89 75.92 168.37 80.08 164.44 84.34 168.37 84.39 168.31 84.45 168.37 88.6 164.44 92.87 168.37 92.93 168.31 92.99 168.37 97.15 164.44 101.41 168.37 101.86 167.89 97.14 163.53"/><path class="cls-6" d="M66,137c4.9,5.39,14.61,12.8,22.1,13.17h.2a.43.43,0,0,0,.16,0c7.51-.37,17.18-7.79,22.09-13.17a22.56,22.56,0,0,0-3.52-1.67c-4.12,4.53-12.31,10.8-18.64,11.12-.05,0-.1,0-.12,0h-.19c-6.31-.32-14.48-6.56-18.61-11.09A24.31,24.31,0,0,0,66,137"/><path class="cls-7" d="M87.53,29.57c-39,0-39.19,32.5-37.45,53.77-2.67-5-10.57-3.49-9.93,4.45C40.77,95.44,52,99.4,51.79,98.51,55,116,73.31,126.13,87.53,126.13l.3,0V29.57Z"/><path class="cls-8" d="M42.64,84.43a3.69,3.69,0,0,1,5.62-1.06,3.18,3.18,0,0,1,.92,3.52c-.27,1-1.35,1.1-1.09,2.65a2.75,2.75,0,0,0,1.56,2.25A3.75,3.75,0,0,1,51,93.22a3.87,3.87,0,0,1,.17,2.19c-.3,1.26-2.13.26-3.36-.3a23.6,23.6,0,0,1-4-3.26C42.11,90,41.35,86.48,42.64,84.43Z"/><path class="cls-9" d="M87.72,29.57c39,0,39.18,32.5,37.46,53.77,2.66-5,10.56-3.49,9.92,4.45-.62,7.65-11.8,11.61-11.63,10.72-3.2,17.51-21.53,27.62-35.75,27.62l-.3,0V29.57Z"/><path class="cls-8" d="M132.61,84.43A3.69,3.69,0,0,0,127,83.37a3.2,3.2,0,0,0-.92,3.52c.28,1,1.35,1.1,1.09,2.65a2.75,2.75,0,0,1-1.56,2.25,3.75,3.75,0,0,0-1.32,1.43,4,4,0,0,0-.17,2.19c.3,1.26,2.13.26,3.36-.3a22.85,22.85,0,0,0,4-3.26C133.14,90,133.9,86.48,132.61,84.43Z"/><path class="cls-2" d="M87.19,38.73c-12.82,0-22.2,3.71-27.88,11C51.38,60,51.68,75.61,54.61,86.83c.89,3.42,1.35,12.66,2,16,2.76,15.17,19.56,23.25,30.61,23.25l.3,0V38.74Z"/><path class="cls-3" d="M115,49.77c-5.63-7.27-14.91-11-27.52-11v87.37c12.62-.13,27.71-9,30.31-23.23.62-3.39,1.07-12.63,2-16C122.68,75.64,123,60,115,49.77Z"/><path class="cls-10" d="M120.68,29.52C110.84,22.48,96,15.12,87.07,16,65,13.81,58.53,24.31,53.45,27.94,37.38,39.44,42.79,80.6,42.79,80.6s2.58-.59,4.08.86a13.35,13.35,0,0,1,3.81,6.75,5.69,5.69,0,0,0,2.87,3.51s-3.84-16.38.11-23.67C55.5,64.64,57.16,61,61,57.36a18.67,18.67,0,0,0,1.51,7.28c2.47,6.11,12.64,9.83,12.64,9.83s-7.49-4.21-4.52-9.33C72.45,62,82.85,59.24,89,58.75c8.87-.71,13-3.85,14.71-7a19.28,19.28,0,0,1,4.89,2.13c7.35,4.75,9.48,9.68,11.92,14.2,4,7.29.1,23.67.1,23.67a5.66,5.66,0,0,0,2.87-3.51,13.42,13.42,0,0,1,3.81-6.75c1.5-1.45,4.08-.86,4.08-.86S136.75,41,120.68,29.52Z"/><path class="cls-10" d="M88.12,110c-.4,5.15-10.28,4.68-15.43,4.68,2.57-2.31,9.29-7.53,14.43-7.53A9.86,9.86,0,0,1,88.12,110Z"/><path class="cls-10" d="M87.39,110c.41,5.15,10.29,4.68,15.43,4.68-2.57-2.31-9.28-7.53-14.43-7.53A10.17,10.17,0,0,0,87.39,110Z"/><path class="cls-10" d="M123.68,98.46c-1.46,2.46-5.2,2.93-8.07,6.37s-16,9.3-16,9.3-.27,5.09-8.15,5.12c-1.44,0-2.46-2.18-3.61-2.11h-.07c-1.15-.07-2.16,2.11-3.61,2.11-7.87,0-8.14-5.12-8.14-5.12s-13.18-5.85-16-9.3-6.6-3.91-8.06-6.37c-1.11-1.85,1.87,8.88,2.9,11.18s3.26,10,5.88,14,3.81,4.21,4.76,5.17,0-4.6,0-4.6,3.58,5.56,5,6.9,10,6.51,15.73,8.23c.44.14.83.23,1.23.33v.11l.21-.06.12,0v0l0,0,0,0v0l.11,0,.22.06v-.11c.4-.1.78-.19,1.23-.33,5.72-1.72,14.31-6.89,15.74-8.23s5-6.9,5-6.9-.95,5.56,0,4.6,2.15-1.15,4.77-5.17,4.85-11.68,5.88-14S124.79,96.61,123.68,98.46Z"/></g></g></svg>