<svg xmlns="http://www.w3.org/2000/svg" viewBox="0 0 174.4 175.1"><defs><style>.cls-1{fill:#d2887e;}.cls-2{fill:#5a4f51;}.cls-3{fill:#dcc5a1;}.cls-4{fill:#edd9b4;}.cls-5,.cls-9{fill:#bc9f82;}.cls-5{opacity:0.7;}.cls-6{fill:#b9c98e;}.cls-7{fill:#fdfdfd;}.cls-8{fill:#ccad8b;}.cls-10{fill:#d9bf9f;}</style></defs><title>Ativo 120ac</title><g id="Camada_2" data-name="Camada 2"><g id="Avatares"><rect class="cls-1" width="174.4" height="175.1" rx="39.26"/><path class="cls-2" d="M112.55,140.61c0,5.55-11.39,10-25.46,10s-25.45-4.5-25.45-10S73,130.56,87.09,130.56,112.55,135.06,112.55,140.61Z"/><path class="cls-3" d="M86.78,109.72v64.7h-36l-.88-.38c0-35.38,22-36.76,22-36.76,1.66,0,2.9-1.64,3.78-4.31a27.61,27.61,0,0,0,.76-2.79c.15-.65.28-1.33.38-2.05.2-1.21.38-2.49.5-3.83.08-.81.15-1.61.23-2.44.33-4,.43-8.45.43-12.62C78,109.24,82.88,109.72,86.78,109.72Z"/><path class="cls-4" d="M123.78,174s-.33,1.39-.86.38l-36.14-1.26V109.72h.09c3.9,0,8.77-.48,8.77-.48,0,4.15.11,8.51.43,12.52.08.81.16,1.61.23,2.39.15,1.39.3,2.69.51,3.92v0c.06.55.17,1.06.27,1.56A24.77,24.77,0,0,0,98,133c.92,2.67,2.15,4.28,3.79,4.28C101.75,137.28,123.78,138.66,123.78,174Z"/><path class="cls-5" d="M96.8,128.09v0a11.62,11.62,0,0,1-10,5.41h0a12.57,12.57,0,0,1-9.91-5.39c.2-1.2.38-2.48.5-3.82.08-.81.15-1.6.22-2.43a39.42,39.42,0,0,0,9.09,1.17h.1a37,37,0,0,0,9.29-1.28c.08.81.15,1.61.23,2.39C96.45,125.55,96.6,126.85,96.8,128.09Z"/><path class="cls-6" d="M97.56,141.55l-.38,32.87H76.06l-.25-33.37a41.81,41.81,0,0,0,11.68,2A36.72,36.72,0,0,0,97.56,141.55Z"/><path class="cls-2" d="M124,174.67a69.1,69.1,0,0,0-.61-9.53c-2.24-16.8-10.34-23.77-15.92-26.6a17.88,17.88,0,0,0-5.5-1.89c-1.64,0-2.9-1.31-3.81-4-.18-.33-.33,0-.48-.67l-.13,10.18-2.8,8.8H78.69l-2.88-9.31-.08-9.33c-.88,2.67-2.12,4.31-3.78,4.31a17.51,17.51,0,0,0-5.22,1.76c-6,3-14.89,10.12-16.59,28.48-.22,2.42-.22,5-.22,7.78l.88.38h5.39v0H117v0h6.13C123.68,174.8,124,174.67,124,174.67Z"/><polygon class="cls-6" points="87.69 161.98 86.19 161.98 79.89 154.08 93.98 154.08 87.69 161.98"/><path class="cls-7" d="M124,101.81s-2.15-2.7-.87-20A73.18,73.18,0,0,0,121.78,63c.13.5-12.39,25.2-12.39,25.2-.43,6.9-.79,13.64-.87,18.32l-2.1-3.57a73.93,73.93,0,0,0-2,8.23c0,.12,0,.26,0,.39l-6.76-6.7s0,3.84.35,7.48l-4.09-4.06s0,9.89,1.41,13c1.54,3.48.15,13.13.15,13.13a28.33,28.33,0,0,0,4.13-7.16c-.16,2.14-.39,3.74-.39,3.74a30.25,30.25,0,0,0,5.38-10.84c.08,1.48.17,3,.19,4.44a29,29,0,0,1-1.66,9.23,40.62,40.62,0,0,0,5.62-13.22c.36,6,1.23,10.44,3.07,12.8-.24-.42-1.17-2.4-.94-7.53.1-2.31.31-4.82.59-7.32a20,20,0,0,0,5.64,10.14,34.18,34.18,0,0,1-2.18-16.15c.22-1.8.38-3.38.51-4.81a49.05,49.05,0,0,0,1,8.2A31.13,31.13,0,0,0,121,127.52s-3-6.69-.26-24.83a33.11,33.11,0,0,0,.15-5.58C122.64,101.21,124,101.81,124,101.81Z"/><path class="cls-7" d="M49.92,100.8s2.14-2.7.87-20A73.77,73.77,0,0,1,52.15,62c-.12.5,12.4,25.2,12.4,25.2.43,6.9.78,13.63.86,18.31l2.1-3.57a74.19,74.19,0,0,1,2,8.22c0,.13,0,.28,0,.41l6.76-6.71s0,3.84-.36,7.48l4.09-4.06s0,9.89-1.4,13c-1.54,3.49-.15,13.12-.15,13.12a28.11,28.11,0,0,1-4.14-7.14c.17,2.13.4,3.74.4,3.74a30.32,30.32,0,0,1-5.39-10.85c-.08,1.49-.17,3-.19,4.45a29.3,29.3,0,0,0,1.66,9.22,40.5,40.5,0,0,1-5.61-13.21c-.37,6.05-1.24,10.44-3.08,12.8.25-.42,1.16-2.4.95-7.54-.1-2.31-.32-4.81-.59-7.31a19.94,19.94,0,0,1-5.65,10.13,34,34,0,0,0,2.18-16.15c-.21-1.8-.37-3.38-.51-4.8a48.14,48.14,0,0,1-1,8.2,31.23,31.23,0,0,1-4.69,11.58s3-6.7.26-24.84A33.1,33.1,0,0,1,53,96.1C51.29,100.2,49.92,100.8,49.92,100.8Z"/><path class="cls-8" d="M86.89,34.08c-38.12,0-38.34,31.79-36.64,52.6-2.62-4.93-10.35-3.4-9.72,4.36.62,7.49,11.54,11.36,11.38,10.49,3.13,17.13,21.07,27,35,27l.29,0V34.08Z"/><path class="cls-9" d="M43,87.75a3.61,3.61,0,0,1,5.5-1,3.15,3.15,0,0,1,.9,3.45c-.27,1-1.32,1.07-1.07,2.59A2.67,2.67,0,0,0,49.83,95a3.61,3.61,0,0,1,1.28,1.41,3.69,3.69,0,0,1,.17,2.14c-.28,1.23-2.09.25-3.28-.3a23,23,0,0,1-4-3.19C42.45,93.22,41.71,89.76,43,87.75Z"/><path class="cls-10" d="M87.07,34.08c38.12,0,38.34,31.79,36.65,52.6,2.61-4.93,10.34-3.4,9.71,4.36-.61,7.49-11.54,11.36-11.38,10.49-3.13,17.13-21.07,27-35,27l-.29,0V34.08Z"/><path class="cls-9" d="M131,87.75a3.61,3.61,0,0,0-5.5-1,3.17,3.17,0,0,0-.9,3.45c.27,1,1.32,1.07,1.07,2.59a2.67,2.67,0,0,1-1.52,2.2,3.48,3.48,0,0,0-1.29,1.41,3.78,3.78,0,0,0-.17,2.14c.29,1.23,2.09.25,3.29-.3A23,23,0,0,0,129.91,95C131.52,93.22,132.25,89.76,131,87.75Z"/><path class="cls-3" d="M86.56,43C74,43,64.84,46.67,59.27,53.83c-7.75,10-7.45,25.3-4.59,36.27.87,3.35,1.32,12.38,1.93,15.7,2.7,14.84,19.13,22.75,30,22.75l.29,0V43.05Z"/><path class="cls-4" d="M113.78,53.85c-5.52-7.12-14.59-10.74-26.93-10.8v85.48c12.35-.13,27.12-8.79,29.65-22.73.6-3.31,1-12.35,1.93-15.7C121.28,79.15,121.56,63.89,113.78,53.85Z"/><path class="cls-7" d="M128.5,67.29a49.67,49.67,0,0,1-.47,6.18,10.14,10.14,0,0,1-.58,2.71,37.08,37.08,0,0,0-2,6.88,8.73,8.73,0,0,0-2.28,3.33c-1.23,3.24-1.73,2.7-1.73,2.7s.39-2.57.84-5.7c.26-2.64.63-6.55.92-9.92,0-.47.08-.94.1-1.38-.55-2.72-5.68-15.75-30.1-14.52-3.94.18-7.91-1.28-11-2.84s-5.42-3.3-5.63-3.3c-1.08,0-10.84-1.8-16.58,2.46a7.69,7.69,0,0,0-1,.84c-6.81,5.86-7.75,16.08-7.75,18.12,0,.18,0,.39,0,.62.19,4.2,1.94,15.62,1.94,15.62s-.47.54-1.73-2.7a9,9,0,0,0-2.72-3.73c-1.37-2.88-2.13-3.76-2.81-6.48a17.74,17.74,0,0,0-1.36-2.71c-1.31-2.56-2.8-7.29-1.23-18.74l.24-1.6c1.2-7.84,7.18-25.43,22.95-28.56S85.9,17.75,98.79,23s21,8.91,25,17.55a54.65,54.65,0,0,1,3.61,14.18A102.43,102.43,0,0,1,128.5,67.29Z"/></g></g></svg>