<svg xmlns="http://www.w3.org/2000/svg" viewBox="0 0 174.53 175.67"><defs><style>.cls-1{fill:#d2887e;}.cls-2{fill:#dcc5a1;}.cls-3{fill:#edd9b4;}.cls-4,.cls-7{fill:#bc9f82;}.cls-4{opacity:0.7;}.cls-5{fill:#841720;}.cls-6{fill:#ccad8b;}.cls-8{fill:#d9bf9f;}.cls-9{fill:#b47070;}.cls-10{fill:#c17874;}.cls-11{fill:#fff;}</style></defs><title>Ativo 155ac</title><g id="Camada_2" data-name="Camada 2"><g id="Avatares"><rect class="cls-1" width="174.53" height="175.67" rx="39.55"/><path class="cls-2" d="M91.15,110.17v65.2H55.58L54.7,175c0-14.59,3.79-23.56,8.23-29.06,6.17-7.63,13.55-8.53,13.55-8.53h.18a2.08,2.08,0,0,0,.47-.1c1.8-.49,3-3.13,3.84-6.91.15-.64.27-1.31.38-2,.19-1.2.37-2.47.49-3.78.08-.8.15-1.6.23-2.41.32-4,.43-8.35.43-12.48C82.5,109.7,87.28,110.17,91.15,110.17Z"/><path class="cls-3" d="M127.72,175s-.32.12-.85.37H91.15v-65.2h.08c3.86,0,8.68-.47,8.68-.47,0,4.1.09,8.4.42,12.38.07.79.15,1.59.22,2.36.15,1.37.3,2.66.5,3.88v0c.07.55.18,1,.28,1.54.74,3.65,1.84,6.34,3.43,7.23a1.66,1.66,0,0,0,.38.15,2,2,0,0,0,.8.15s7.78.92,14,9.15C124.2,152.11,127.72,160.93,127.72,175Z"/><path class="cls-4" d="M101.05,128.33v0a11.48,11.48,0,0,1-9.85,5.35h0a12.42,12.42,0,0,1-9.8-5.32c.2-1.2.37-2.46.49-3.78.08-.79.15-1.59.23-2.41a39.55,39.55,0,0,0,9,1.17h.1a37.13,37.13,0,0,0,9.18-1.27c.07.79.15,1.59.23,2.36C100.7,125.82,100.85,127.11,101.05,128.33Z"/><path class="cls-5" d="M83.62,117.24c-.06-.85-1.31-1.73-2.7-2.47,0-.07,0-.11,0-.11l-1.17-1.25a13.28,13.28,0,0,0,1.3-5.33l-2.82-5.66-1.94,5.66-.49,1.17-.42-.44c-.11.8-.16,1.43-.2,2-.22.55-.44,1.06-.66,1.55a34.44,34.44,0,0,0-1.09-3.69l-.38.31a27.57,27.57,0,0,0-1.4-5.38c-1,.83-1.8,1.5-2.44,2.06a32.25,32.25,0,0,0,.24-3.28l-1.15.38a25.19,25.19,0,0,0,.78-5.87C62.6,98.94,64,99.52,54.18,99.3c-6.77-.15-8.59-2-8.59-2a26.23,26.23,0,0,0,10.94,7.5l-2,0c-6.76-.15-8.59-2-8.59-2s5.65,6.91,13.57,8.11l-.89.33c-6.34,2.3-8.7,1.26-8.7,1.26a26.49,26.49,0,0,0,12.53,3c-.62.24-1.29.49-2,.76-6.35,2.31-8.72,1.27-8.72,1.27s7.83,4.42,15.66,2.63a102.92,102.92,0,0,1-11.45,6.69A94.51,94.51,0,0,0,70.69,122a2.1,2.1,0,0,1-.14.24c-5.4,9.39-7.9,12.22-7.9,12.22s9.23-6.29,13.46-10.8c-.35,1.14-.81,2.53-1.43,4.32-2.21,6.37-4.51,7.54-4.51,7.54S84.58,129.94,83.62,117.24Z"/><path class="cls-5" d="M100.52,116.17c.07-.84,1.31-1.72,2.71-2.45l0-.13,1.17-1.24a13.28,13.28,0,0,1-1.3-5.33l2.82-5.66,1.94,5.66c.18.42.33.79.49,1.18l.42-.45c.11.79.16,1.43.2,2,.22.55.45,1.06.66,1.55a33.61,33.61,0,0,1,1.09-3.69l.38.31a26.81,26.81,0,0,1,1.4-5.38c1,.83,1.79,1.5,2.44,2.06-.22-1.71-.25-3.27-.25-3.27.42.12.8.25,1.16.37a25.79,25.79,0,0,1-.78-5.87c6.49,2.06,5.14,2.64,14.92,2.42,6.76-.15,8.58-2,8.58-2a26.19,26.19,0,0,1-10.93,7.49l2,0c6.76-.15,8.59-2,8.59-2s-5.65,6.91-13.56,8.11l.87.32c6.35,2.31,8.71,1.27,8.71,1.27a26.58,26.58,0,0,1-12.54,3l2.06.75c6.35,2.31,8.72,1.26,8.72,1.26s-7.83,4.43-15.67,2.64a106.88,106.88,0,0,0,11.45,6.69,95.77,95.77,0,0,1-14.77-4.9,2.1,2.1,0,0,0,.14.24c5.4,9.39,7.9,12.22,7.9,12.22s-9.24-6.29-13.46-10.8c.35,1.14.81,2.54,1.43,4.32,2.21,6.37,4.51,7.54,4.51,7.54S99.56,128.89,100.52,116.17Z"/><path class="cls-6" d="M91.13,40.12c-37.13-.07-37.35,29.66-35.69,49C52.89,84.61,45.36,86.3,46,93.58c.6,7,11.23,10.14,11.09,9.37,3,15.8,20.54,24.57,34.07,25.82h.28V40.12Z"/><path class="cls-7" d="M47.84,90.5a3.67,3.67,0,0,1,5.44-1,2.84,2.84,0,0,1,.88,3.23c-.26.94-1.3,1-1,2.43a2.54,2.54,0,0,0,1.5,2.07c.44.36,1,.64,1.27,1.31a3.36,3.36,0,0,1,.17,2c-.29,1.16-2.06.24-3.25-.27a22.42,22.42,0,0,1-3.9-3C47.32,95.62,46.6,92.38,47.84,90.5Z"/><path class="cls-8" d="M91.31,40.12c37.12-.07,37.34,29.66,35.68,49,2.55-4.55,10.08-2.86,9.46,4.42-.59,7-11.23,10.14-11.08,9.37-3,15.8-20.54,24.57-34.06,25.82H91V40.12Z"/><path class="cls-7" d="M134.85,90.5a3.67,3.67,0,0,0-5.44-1,2.85,2.85,0,0,0-.89,3.23c.27.94,1.32,1,1.06,2.43a2.57,2.57,0,0,1-1.51,2.07c-.44.36-1,.64-1.27,1.31a3.35,3.35,0,0,0-.16,2c.28,1.16,2.06.24,3.24-.27a22.05,22.05,0,0,0,3.9-3C135.37,95.62,136.09,92.38,134.85,90.5Z"/><path class="cls-2" d="M90.92,48.53c-12.39,0-21.46,3.41-27,10.13-7.67,9.39-7.38,23.74-4.54,34,.86,3.14,1.3,11.62,1.9,14.74,2.67,13.93,18.91,21.35,29.6,21.35h.3V48.54Z"/><path class="cls-3" d="M117.84,58.68C112.39,52,103.42,48.59,91.22,48.54v80.24c12.21-.13,26.8-8.26,29.31-21.34.59-3.12,1-11.6,1.9-14.74C125.25,82.43,125.53,68.1,117.84,58.68Z"/><path class="cls-9" d="M97.45,116.2s-2.8,3-6.25,3-6.1-2.93-6.1-2.93a40.46,40.46,0,0,1,6.1-.45A50.55,50.55,0,0,1,97.45,116.2Z"/><path class="cls-10" d="M93,114.82a1.63,1.63,0,0,0-1.77,1.36,1.63,1.63,0,0,0-1.77-1.36A24.88,24.88,0,0,0,85,116.2s3.42.36,4.4.36,1.83.38,1.85-.35c0,.74.72.45,1.69.45s4.56-.46,4.56-.46A24.88,24.88,0,0,0,93,114.82Z"/><path class="cls-5" d="M131.33,77.44a48.32,48.32,0,0,1-.44,5.88,10.06,10.06,0,0,1-.55,2.59,33.35,33.35,0,0,0-1.94,6.54,8.34,8.34,0,0,0-2.18,3.18c-1.17,3.08-1.64,2.57-1.64,2.57s.37-2.45.8-5.42c.24-2.51.59-6.24.86-9.46,0-.44.08-.89.11-1.31-.53-2.58-5.42-15-28.66-13.82a21.94,21.94,0,0,1-10.48-2.71c-3-1.52-5.16-3.13-5.36-3.13-1,0-10.33-1.72-15.79,2.33a11.33,11.33,0,0,0-1,.8C58.6,71.07,57.7,80.79,57.7,82.73c0,.18,0,.37,0,.59.18,4,1.86,14.88,1.86,14.88s-.46.51-1.66-2.57a8.57,8.57,0,0,0-2.59-3.55c-1.3-2.74-2-3.58-2.67-6.17a17.85,17.85,0,0,0-1.29-2.59c-1.25-2.43-2.68-6.93-1.18-17.84.08-.5.15-1,.23-1.52,1.14-7.46,6.83-24.21,21.85-27.19s18.51-6.49,30.78-1.49,20,8.47,23.8,16.7a52.15,52.15,0,0,1,3.44,13.5A96.81,96.81,0,0,1,131.33,77.44Z"/><path class="cls-11" d="M127.72,175s-.32.12-.85.37H55.58L54.7,175c0-14.59,3.79-23.56,8.23-29.06A19.41,19.41,0,0,0,76.8,156a124.09,124.09,0,0,0,14.35,1.81c7.43.56,14.44-.66,18.29-2.75A39.82,39.82,0,0,0,120,146.56C124.2,152.11,127.72,160.93,127.72,175Z"/><path class="cls-2" d="M113.64,160a9.17,9.17,0,1,1-9.17-9.14A9.16,9.16,0,0,1,113.64,160Z"/><path class="cls-5" d="M110.18,160a5.71,5.71,0,1,1-5.71-5.69A5.7,5.7,0,0,1,110.18,160Z"/></g></g></svg>