<svg xmlns="http://www.w3.org/2000/svg" xmlns:xlink="http://www.w3.org/1999/xlink" viewBox="0 0 174.4 174.97"><defs><style>.cls-1{fill:none;}.cls-2{fill:#895a59;}.cls-3{fill:#211915;}.cls-4{fill:#dcc5a1;}.cls-5{fill:#edd9b4;}.cls-6{clip-path:url(#clip-path);}.cls-7{fill:#bc9f82;}.cls-8{fill:#ccad8b;}.cls-9{fill:#d9bf9f;}.cls-10{fill:#b47070;}.cls-11{fill:#c17874;}.cls-12{fill:#4f4e49;}.cls-13{fill:#f8f7e0;}</style><clipPath id="clip-path"><rect class="cls-1" x="78.51" y="118.08" width="21.04" height="12.37"/></clipPath></defs><title>Ativo 122ac</title><g id="Camada_2" data-name="Camada 2"><g id="Avatares"><rect class="cls-2" width="174.4" height="174.97" rx="39.17"/><path class="cls-3" d="M128.19,103.17c-5.35,21.41-17.3,25.91-38.68,25.91s-38.68-11.6-38.68-25.91S68.15,77.26,89.51,77.26s42.15,12.06,38.68,25.91"/><path class="cls-4" d="M89,105.37v69.49H51l-.94-.41c0-30.66,15.77-38,21.34-39.59a11.88,11.88,0,0,1,1.92-.45h.19a3.49,3.49,0,0,0,.5-.11c1.91-.52,3.23-3.34,4.1-7.37.15-.68.29-1.4.39-2.17.23-1.26.4-2.63.55-4q.1-1.26.24-2.55c.34-4.27.45-8.92.45-13.3,0,0,5.11.49,9.24.49"/><path class="cls-5" d="M128,174.45s-.35.14-.91.41H89V105.37h.08c4.12,0,9.27-.49,9.27-.49,0,4.36.1,9,.45,13.19.08.85.16,1.68.24,2.52.16,1.45.31,2.83.52,4.12v0c.08.58.2,1.12.3,1.64.8,3.9,2,6.75,3.68,7.71a1.76,1.76,0,0,0,.4.16,2.18,2.18,0,0,0,.85.16,12.06,12.06,0,0,1,1.8.4C112,136.37,128,143.58,128,174.45"/><g class="cls-6"><path class="cls-7" d="M99.55,124.73v0A12.28,12.28,0,0,1,89,130.45h0c-6,0-9.57-4.4-10.47-5.67.21-1.27.4-2.63.53-4,.09-.84.17-1.69.26-2.55a41.64,41.64,0,0,0,9.57,1.24H89a39.59,39.59,0,0,0,9.81-1.35c.08.85.16,1.7.24,2.51.15,1.46.31,2.84.52,4.14"/></g><path class="cls-8" d="M89,30.71C49.31,30.64,49.08,62.32,50.86,83c-2.72-4.86-10.75-3-10.1,4.71.63,7.44,12,10.81,11.82,10C55.83,114.52,74.51,123.86,89,125.2h.3V30.72H89"/><path class="cls-7" d="M42.75,84.42a3.93,3.93,0,0,1,5.81-1,3,3,0,0,1,.93,3.45c-.27,1-1.39,1.06-1.12,2.58A2.75,2.75,0,0,0,50,91.62,3.52,3.52,0,0,1,51.35,93a3.92,3.92,0,0,1,.18,2.15c-.32,1.23-2.22.25-3.47-.29a24.18,24.18,0,0,1-4.18-3.2c-1.67-1.79-2.46-5.26-1.13-7.25"/><path class="cls-9" d="M89.15,30.71C128.78,30.64,129,62.32,127.24,83c2.72-4.86,10.76-3,10.11,4.71-.64,7.44-12,10.81-11.84,10-3.24,16.84-21.92,26.18-36.36,27.52h-.3V30.72h.3"/><path class="cls-7" d="M135.64,84.42a3.93,3.93,0,0,0-5.81-1,3,3,0,0,0-1,3.45c.29,1,1.4,1.06,1.13,2.58a2.74,2.74,0,0,1-1.62,2.22A3.55,3.55,0,0,0,127,93a3.66,3.66,0,0,0-.18,2.15c.31,1.23,2.19.25,3.47-.29a24,24,0,0,0,4.16-3.2c1.69-1.79,2.48-5.26,1.15-7.25"/><path class="cls-4" d="M88.75,39.68c-13.24,0-22.92,3.63-28.78,10.8-8.2,10-7.89,25.31-4.87,36.27.92,3.35,1.4,12.4,2,15.71,2.86,14.85,20.2,22.75,31.62,22.75h.3V39.7l-.3,0"/><path class="cls-5" d="M117.46,50.49c-5.81-7.12-15.39-10.73-28.41-10.79v85.5c13-.14,28.62-8.79,31.3-22.74.63-3.31,1.1-12.36,2-15.71,3-10.94,3.3-26.21-4.92-36.26"/><path class="cls-10" d="M95.71,111.8S92.72,115,89,115s-6.5-3.11-6.5-3.11a42,42,0,0,1,6.5-.49,53.57,53.57,0,0,1,6.68.42"/><path class="cls-11" d="M90.93,110.34a1.73,1.73,0,0,0-1.9,1.43,1.71,1.71,0,0,0-1.88-1.43,26.64,26.64,0,0,0-4.8,1.46s3.66.38,4.7.38,2,.4,2-.37c0,.77.77.48,1.82.48s4.86-.49,4.86-.49a26.86,26.86,0,0,0-4.78-1.46"/><path class="cls-12" d="M128.42,174.45s-.35.14-.92.41H50.62l-.94-.41c0-14.75,3.61-24.13,8-30.12v0a29.19,29.19,0,0,1,5.91-6c.3-.24.66-.46,1-.7.06-.05.08-.08.11-.08.32-.22.63-.43,1-.62a101.93,101.93,0,0,1,10.87-5.08l-2.4,6.45c-.14,2.63,7.15,15.43,14.7,15.31,7.83-.14,15.93-13.3,15.7-16,.81-1.18-3.76-4.89-3.11-5.79,2.94.87,14.26,6,19.18,12.82,4.31,6,7.8,15.37,7.8,29.89"/><polygon class="cls-13" points="88.94 174.5 86.02 164.08 83.09 153.65 88.94 153.65 94.79 153.65 91.86 164.08 88.94 174.5"/><path class="cls-3" d="M106,138.75c-.68-1.59-2.3-3.09-2.89-4.35-1-2.09-1.89-4-1.89-4-.21,2-3.59,10.92-3.59,10.92s-10.28,12.66-8.62,13,9.21,1.42,11.46,3.82,1.87,4.65,2.46,1.4S107.84,143,106,138.75"/><path class="cls-3" d="M80.39,141.37S77,132.46,76.8,130.45l-1.88,4c-.59,1.26-2.23,2.76-2.9,4.35-1.8,4.26,2.49,17.56,3.07,20.82s.22,1,2.47-1.4,9.83-3.48,11.49-3.82-8.66-13-8.66-13"/><path class="cls-3" d="M64.33,48.94c3,5.24,2.16,11.17,12.29,15.06s14.69,5,25.75,9.65c25.06,10.64,12.19,35.28,12.19,35.28s6.87-6.34,9.36-12.94,12.1-35.35,0-58.07C117.28,25.45,105,22.58,94.19,21.73s-18.5,0-26.3,6.81C66.19,30,61.31,30.35,56,33.94c-12,8-11,19.85-11.5,27.41a54.15,54.15,0,0,0,3.1,23.13C49.89,91.09,64,110.58,64,110.58S53,86.77,59.1,71.28c3.57-9.06,10-8.55,10.23-12.07S64.33,48.94,64.33,48.94Z"/></g></g></svg>