<svg xmlns="http://www.w3.org/2000/svg" viewBox="0 0 175 174.92"><defs><style>.cls-1{fill:#c58b8e;}.cls-2{fill:#dcc5a1;}.cls-3{fill:#edd9b4;}.cls-4,.cls-7{fill:#bc9f82;}.cls-4{opacity:0.7;}.cls-5{fill:#37293f;}.cls-6{fill:#ccad8b;}.cls-8{fill:#d9bf9f;}.cls-9{fill:#b47070;}.cls-10{fill:#c17874;}.cls-11{fill:#fdfcf3;}.cls-12{fill:#444e53;}</style></defs><title>Ativo 145ac</title><g id="Camada_2" data-name="Camada 2"><g id="Avatares"><rect class="cls-1" width="175" height="174.92" rx="39.55"/><path class="cls-2" d="M90,106.26v68.66H52.57l-.92-.39c0-22.4,8.49-32.2,15.14-36.44A20.9,20.9,0,0,1,74.58,135h.19a2.22,2.22,0,0,0,.5-.1c1.89-.53,3.17-3.3,4-7.25.16-.71.3-1.42.4-2.17.21-1.26.39-2.6.52-4,.08-.84.16-1.68.24-2.54.34-4.21.45-8.79.45-13.14C80.92,105.77,86,106.26,90,106.26Z"/><path class="cls-3" d="M128.54,174.53s-.34.13-.89.39H90V106.26h.08c4.06,0,9.14-.49,9.14-.49,0,4.32.11,8.85.45,13,.07.84.15,1.68.23,2.49.16,1.44.31,2.8.53,4.08v0c.07.58.19,1.1.29,1.62.78,3.85,1.94,6.68,3.62,7.62a1.31,1.31,0,0,0,.4.15,2,2,0,0,0,.84.16,18.85,18.85,0,0,1,5.56,1.9C118,140.24,128.54,149.54,128.54,174.53Z"/><path class="cls-4" d="M100.44,125.4v0a12.07,12.07,0,0,1-10.37,5.63h0c-6,0-9.43-4.35-10.32-5.6.2-1.26.39-2.6.52-4,.08-.84.16-1.68.24-2.54a40.74,40.74,0,0,0,9.45,1.23H90a38.92,38.92,0,0,0,9.66-1.33c.08.84.17,1.68.24,2.48C100.08,122.75,100.23,124.11,100.44,125.4Z"/><path class="cls-5" d="M128.54,174.53s-.34.13-.89.39H52.39l-.92-.39c0-22.4,9.28-34.18,17.4-37.68C75,143,82.18,152.59,84.12,154.4c3.28,3.08,5.3,8.32,7.37,7s13.64-17.55,19.64-24.55C117.92,140.24,128.54,149.54,128.54,174.53Z"/><path class="cls-6" d="M90,32.5c-39.1-.08-39.32,31.23-37.58,51.64-2.68-4.78-10.61-3-10,4.66.62,7.35,11.83,10.68,11.68,9.87C57.32,115.3,75.75,124.54,90,125.86h.3V32.51Z"/><path class="cls-7" d="M44.41,85.57a3.88,3.88,0,0,1,5.73-1,3,3,0,0,1,.93,3.41c-.28,1-1.38,1.06-1.1,2.56a2.67,2.67,0,0,0,1.58,2.17,3,3,0,0,1,1.52,3.5c-.3,1.23-2.18.26-3.43-.28a23.89,23.89,0,0,1-4.1-3.16C43.87,91,43.11,87.54,44.41,85.57Z"/><path class="cls-8" d="M90.18,32.5c39.09-.08,39.32,31.23,37.58,51.64,2.68-4.78,10.61-3,10,4.66-.62,7.35-11.83,10.68-11.66,9.87-3.21,16.63-21.63,25.87-35.88,27.19h-.3V32.51Z"/><path class="cls-7" d="M136,85.57a3.88,3.88,0,0,0-5.73-1,3,3,0,0,0-.93,3.41c.28,1,1.37,1.06,1.11,2.56a2.64,2.64,0,0,1-1.6,2.17,3.57,3.57,0,0,0-1.33,1.39,3.53,3.53,0,0,0-.18,2.11c.31,1.23,2.17.26,3.43-.28a23.89,23.89,0,0,0,4.1-3.16C136.58,91,137.34,87.54,136,85.57Z"/><path class="cls-2" d="M89.79,41.36C76.73,41.36,67.18,45,61.38,52c-8.07,9.89-7.76,25-4.78,35.84.9,3.32,1.37,12.25,2,15.53,2.81,14.66,19.91,22.48,31.18,22.48h.3V41.37Z"/><path class="cls-3" d="M118.12,52c-5.75-7-15.19-10.61-28-10.67v84.5c12.85-.14,28.23-8.7,30.86-22.47.63-3.28,1.1-12.21,2-15.53C125.93,77.05,126.22,62,118.12,52Z"/><path class="cls-9" d="M96.66,112.62s-3,3.14-6.59,3.14-6.42-3.08-6.42-3.08a42.91,42.91,0,0,1,6.42-.47A53.61,53.61,0,0,1,96.66,112.62Z"/><path class="cls-10" d="M91.94,111.17a1.7,1.7,0,0,0-1.87,1.42,1.7,1.7,0,0,0-1.86-1.42,26.33,26.33,0,0,0-4.72,1.45s3.6.38,4.63.38,1.93.41,1.95-.37c0,.78.76.49,1.78.49s4.81-.5,4.81-.5A26.33,26.33,0,0,0,91.94,111.17Z"/><polygon class="cls-11" points="130.42 103.24 130.35 103.12 128.9 100.6 127.29 97.84 125.7 100.6 124.23 103.12 124.17 103.24 124.23 103.36 125.7 105.88 127.29 108.64 128.9 105.88 130.35 103.36 130.42 103.24"/><path class="cls-12" d="M130.78,60.72c-2.67-3.78-1.34-9.1-1.78-13.75S118.1,29.89,112.09,24.8,93,20.36,86.29,20.36,75.84,23.47,73,25.68s-3.56,1.56-7.13,2.22S60,30.12,53.59,41.65,50.91,59.16,51.5,68.91s-1.63,18.47-1.63,22.7c0,15.62,10.44,28.54,8.84,44.26a55.57,55.57,0,0,1-5.34,18.39s4.89-7.09,6.89-13.74,1.33-18.62-2-28.15c-2.79-8-2.31-17.18-.91-24.91.07-.41.15-.82.23-1.23.21-1.07.44-2.12.68-3.12.07-.3.15-.62.23-.93.19-.76.39-1.54.61-2.37a1.38,1.38,0,0,0,.26-.48,4,4,0,0,0,.14-.9c.1-.35.2-.7.31-1.05a36.55,36.55,0,0,0-.19,6.11c0,.11,0,.22,0,.33.08.69.08,1.31.23,2.06l.22,1.37.08.51c.08.34.15.69.23,1,.22,1,.45,2,.73,2.87.68,2.5,1.63,4.83,2.46,7s1.64,4.29,2.27,6.3a44.86,44.86,0,0,1,1.36,5.7c.16.91.23,1.79.3,2.61a22.48,22.48,0,0,1,.12,2.39c.05,1.51-.08,2.83-.11,3.94-.24,2.2-.37,3.46-.37,3.46l.35-.84c.21-.56.6-1.36.94-2.44a29.09,29.09,0,0,0,1-4,24.89,24.89,0,0,0,.47-5.35,35.27,35.27,0,0,0-1.2-8.94c-.28-1.12-.59-2.24-.93-3.37l-.24-.82c-.58-1.83-1.1-3.66-1.62-5.5-.12-.47-.26-.94-.38-1.4-.34-1.19-.54-2.28-.77-3.41l-.27-1.87c-.09-.5-.09-1.16-.14-1.71a29.5,29.5,0,0,1-.07-4.41c0-.89.12-1.77.24-2.65a51.72,51.72,0,0,1,1.28-6.87c1.12-4.46,2.54-8.61,3.73-12.21.55-1.62,1-3.12,1.47-4.48a8.38,8.38,0,0,0,2.13,5C81.4,66.41,88.47,67.48,94.39,68l.18,0h.18a34.13,34.13,0,0,1,7.08,1.09c12,3.85,14.07,17.26,21.32,18.15a6.44,6.44,0,0,0,1.7,0,7,7,0,0,0,3.34-1.52c2.95-2.29,5.14-6.65,6-10.13a16.08,16.08,0,0,0,.32-1.73c0-.37.06-.71.06-1A20.26,20.26,0,0,0,130.78,60.72Z"/><path class="cls-12" d="M128.13,89h0Z"/></g></g></svg>