<svg xmlns="http://www.w3.org/2000/svg" viewBox="0 0 174.99 174.92"><defs><style>.cls-1{fill:#b3b628;}.cls-2{fill:#444e53;}.cls-3{fill:#dcc5a1;}.cls-4{fill:#edd9b4;}.cls-10,.cls-5{fill:#bc9f82;}.cls-5{opacity:0.7;}.cls-6{fill:#7fa5ad;}.cls-7{fill:#2b2a23;}.cls-8{fill:#fdfbf8;}.cls-9{fill:#ccad8b;}.cls-11{fill:#d9bf9f;}.cls-12{fill:#381c16;}.cls-13{fill:#611413;}</style></defs><title>Ativo 151ac</title><g id="Camada_2" data-name="Camada 2"><g id="Avatares"><rect class="cls-1" width="174.99" height="174.92" rx="39.36"/><path class="cls-2" d="M100.94,53.42c-6.16,0-11.78,3.42-16.12,9-4.53-7.23-10.92-11.77-18-11.77C53.08,50.69,42,67.53,42,88.29S53.08,125.9,66.79,125.9c6.16,0,11.79-3.42,16.14-9,4.53,7.24,10.91,11.77,18,11.77,13.72,0,24.85-16.83,24.85-37.6S114.66,53.42,100.94,53.42Z"/><path class="cls-3" d="M83.32,102.43v72.12H44l-1-.41c0-38.69,24.08-41.57,24.08-41.57h.2a3.46,3.46,0,0,0,.52-.11c2-.55,3.34-3.47,4.25-7.65.08-.33.14-.66.19-1a12.24,12.24,0,0,0,.22-1.26c.23-1.32.42-2.72.55-4.18.09-.88.17-1.76.25-2.66.36-4.44.47-9.25.47-13.81C73.74,101.91,79,102.43,83.32,102.43Z"/><path class="cls-4" d="M123.77,174.14s-.36.14-.94.41H83.32V102.43h.08c4.28,0,9.6-.52,9.6-.52,0,4.53.11,9.29.47,13.69.08.88.17,1.77.25,2.61.16,1.51.33,2.94.55,4.29v0a7.18,7.18,0,0,0,.14.85c.06.28.11.58.16.86.83,4,2.05,7,3.82,8a2.9,2.9,0,0,0,.41.16,2.22,2.22,0,0,0,.88.17S123.77,135.45,123.77,174.14Z"/><path class="cls-5" d="M94.26,122.51v0a12.72,12.72,0,0,1-10.9,5.91h0c-6.27,0-9.91-4.56-10.84-5.87.21-1.33.4-2.73.54-4.19.08-.88.17-1.76.26-2.66A43.44,43.44,0,0,0,83.19,117h.12a40.85,40.85,0,0,0,10.15-1.4c.08.88.17,1.77.25,2.62C93.88,119.73,94,121.15,94.26,122.51Z"/><path class="cls-6" d="M123.85,174.2a7.35,7.35,0,0,0-.94.42H44.05c-.64-.3-1-.42-1-.42,0-9,1.3-16.11,3.34-21.66,8.86-6.08,23.09,4.46,37,5.12,7.8.37,15.23-8.51,30.71-1.94,3,1.24,5.35-2.36,7.33-.38A66.57,66.57,0,0,1,123.85,174.2Z"/><path class="cls-7" d="M124.3,174.14s-.36.14-.94.41H44l-1-.41C43,135,67.25,132,67.25,132h.2a11.72,11.72,0,0,0,1.19.15c2-.56-2.19-1-3.19,6.82-.87,6.54,3.69,12.4-.59,14.54,1.3,1.51,12.06,10.75,15.78,10.61h5.55c3.75.14,14.86-9.33,16.15-11-4.31-2.12.78-8.09-.61-14.54s-2.85-6.5-2.71-6.48.72-.1,1-.1C100.06,132,124.3,135,124.3,174.14Z"/><path class="cls-8" d="M99.05,131.84c-1,1.68-3.22,3.38-8,3.91a74,74,0,0,1-7.59.46c-9.63.06-13.69-2.33-15.29-4.46,1.74-.65,3-3.13,3.81-6.65a7.58,7.58,0,0,0,.22-.91c0-.16.09-.32.11-.49.45.85,1.74,2.26,5.47,2.78h0a45.55,45.55,0,0,0,5.63.41,21.19,21.19,0,0,0,7.06-1l.06,0c3.15-1.16,3.87-2.84,3.87-2.84a1.45,1.45,0,0,1,.18.14c0,.17.06.31.09.47.82,4,2,7,3.81,8a3.56,3.56,0,0,0,.41.17A1,1,0,0,1,99.05,131.84Z"/><path class="cls-9" d="M83.27,24.92C42.2,24.85,42,57.73,43.8,79.18,41,74.14,32.65,76,33.33,84.07,34,91.78,45.76,95.28,45.6,94.43,49,111.91,68.31,121.61,83.27,123c.11,0,.22,0,.32,0V24.93Z"/><path class="cls-10" d="M35.4,80.66a4.07,4.07,0,0,1,6-1.08,3.13,3.13,0,0,1,1,3.58c-.29,1-1.44,1.12-1.15,2.69a2.8,2.8,0,0,0,1.65,2.28c.49.41,1.11.71,1.41,1.46a3.58,3.58,0,0,1,.18,2.22c-.31,1.28-2.28.26-3.59-.31a23.92,23.92,0,0,1-4.31-3.31C34.83,86.33,34,82.73,35.4,80.66Z"/><path class="cls-11" d="M83.48,24.92c41.06-.07,41.3,32.81,39.47,54.26,2.82-5,11.15-3.17,10.47,4.89-.65,7.71-12.43,11.21-12.26,10.36C117.8,111.91,98.44,121.61,83.48,123c-.1,0-.22,0-.31,0V24.93Z"/><path class="cls-10" d="M131.65,80.66a4.07,4.07,0,0,0-6-1.08,3.15,3.15,0,0,0-1,3.58c.3,1,1.45,1.12,1.17,2.69a2.78,2.78,0,0,1-1.68,2.28c-.47.41-1.09.71-1.4,1.46a3.73,3.73,0,0,0-.18,2.22c.31,1.28,2.28.26,3.59-.31a23.57,23.57,0,0,0,4.31-3.31C132.21,86.33,133,82.73,131.65,80.66Z"/><path class="cls-3" d="M83.06,34.23c-13.72,0-23.75,3.77-29.84,11.21-8.47,10.38-8.15,26.26-5,37.65.95,3.48,1.44,12.86,2.11,16.31,3,15.41,20.92,23.61,32.75,23.61h.32V34.24Z"/><path class="cls-4" d="M112.82,45.45c-6-7.39-15.94-11.15-29.44-11.21V123c13.5-.14,29.65-9.13,32.42-23.6.66-3.45,1.15-12.83,2.11-16.31C121,71.72,121.34,55.87,112.82,45.45Z"/><path class="cls-12" d="M90.28,109.08s-3.1,3.31-6.92,3.31-6.74-3.23-6.74-3.23a44.32,44.32,0,0,1,6.74-.5A57.51,57.51,0,0,1,90.28,109.08Z"/><path class="cls-13" d="M85.32,107.56a1.8,1.8,0,0,0-2,1.5,1.79,1.79,0,0,0-2-1.5,27.67,27.67,0,0,0-5,1.52s3.78.4,4.86.4,2,.43,2.06-.37c0,.8.8.5,1.87.5s5-.53,5-.53A27.51,27.51,0,0,0,85.32,107.56Z"/><path class="cls-2" d="M124.73,53c-.5-1.43-1-2.77-1.55-4v-.55c0-5.4-4.87-12.42-12.63-19.23S97.91,23.77,91.5,24l-.06.12c-2.82-.59-18-3.54-27-.28-10,3.61-18.14,9.8-23.9,26.43s-1,30.25.08,36.06c3.54,18.4,20.52,30.05,20.52,30.05a40.33,40.33,0,0,1-6.2-9.81,52.81,52.81,0,0,1-3.71-19.94c0-9.63,9.69-21.53,9.69-21.53a44.07,44.07,0,0,0-5.35,15.68,22.66,22.66,0,0,0,3.8,14.57s-5.94-10.67,3.55-18.63a63.72,63.72,0,0,0,7.58-7.6v0c-2.38,6.3,2.4,11.58,2.4,11.58s-.09-8.07,4.86-10.81c12-6.68,14-9.45,15.67-14.82A12.94,12.94,0,0,0,93.87,53l11,15.55c.52.68,1.36,1.83,2.34,3.31,2.86,4.31,6.81,11.37,6.81,17.52a52.68,52.68,0,0,1-3.71,20,40.22,40.22,0,0,1-6.21,9.81s17-11.65,20.53-30.05C125.76,83.26,130.49,69.63,124.73,53Z"/></g></g></svg>