<svg xmlns="http://www.w3.org/2000/svg" viewBox="0 0 175 174.93"><defs><style>.cls-1{fill:#82acc6;}.cls-2{fill:#74572d;}.cls-3{fill:#8c6739;}.cls-4{fill:#544122;}.cls-5{fill:#442c38;}.cls-6{fill:#342916;}.cls-7{fill:#0f1005;}</style></defs><title>Ativo 134ac</title><g id="Camada_2" data-name="Camada 2"><g id="Avatares"><rect class="cls-1" width="175" height="174.93" rx="39.55"/><path class="cls-2" d="M83.51,104.8v69.93H45.36c-.61-.28-.94-.41-.94-.41,0-37.51,23.36-40.3,23.36-40.3,2.32,0,3.83-3,4.82-7.51.15-.7.29-1.42.4-2.19.22-1.28.39-2.64.53-4.06.08-.84.16-1.69.24-2.58.36-4.29.45-9,.45-13.38,0,0,5.15.5,9.29.5"/><path class="cls-3" d="M122.72,174.32s-.35.13-.91.41H83.51V104.8h.08c4.15,0,9.31-.5,9.31-.5,0,4.39.1,9,.45,13.27.08.86.16,1.71.24,2.54.16,1.46.32,2.85.54,4.15v0c.08.58.19,1.12.3,1.65,1,4.82,2.53,8.08,4.94,8.08,0,0,23.35,2.79,23.35,40.3"/><path class="cls-4" d="M94.13,124.26v0A12.36,12.36,0,0,1,83.56,130h0c-6.07,0-9.6-4.42-10.51-5.7.22-1.28.39-2.64.53-4.06.08-.84.16-1.69.24-2.58a41.61,41.61,0,0,0,9.63,1.25h.11a39.36,39.36,0,0,0,9.84-1.36c.08.86.16,1.71.24,2.54.16,1.46.32,2.85.54,4.15"/><path class="cls-5" d="M122.78,174.33s-.36.14-.91.41H45.33l-.94-.41c0-28.57,13.57-37,20-39.39,4.21,4.61,12.53,11,19,11.27h.17s.08,0,.14,0c6.46-.31,14.79-6.68,19-11.29,6.42,2.37,20.08,10.76,20.08,39.41"/><path class="cls-4" d="M83,24.62c-40.4,0-40.63,33.7-38.83,55.77-2.78-5.24-11-3.62-10.3,4.62.65,7.93,12.24,12,12.07,11.1,3.32,18.16,22.33,28.64,37.06,28.64h.31V24.62H83"/><path class="cls-6" d="M36.4,81.53a3.83,3.83,0,0,1,5.84-1.12,3.34,3.34,0,0,1,.95,3.66c-.29,1.06-1.41,1.13-1.13,2.74a2.81,2.81,0,0,0,1.62,2.33A3.84,3.84,0,0,1,45,90.64a3.94,3.94,0,0,1,.17,2.26c-.29,1.3-2.21.27-3.49-.3a25.71,25.71,0,0,1-4.17-3.39c-1.69-1.91-2.48-5.57-1.15-7.68"/><path class="cls-4" d="M83.15,24.62c40.4,0,40.63,33.7,38.84,55.77,2.77-5.24,11-3.62,10.3,4.62-.64,7.93-12.23,12-12.07,11.1-3.31,18.16-22.32,28.64-37.07,28.64h-.3V24.62h.3"/><path class="cls-6" d="M129.71,81.53a3.83,3.83,0,0,0-5.84-1.12,3.34,3.34,0,0,0-.94,3.66c.27,1.06,1.4,1.13,1.13,2.74a2.81,2.81,0,0,1-1.62,2.33,3.79,3.79,0,0,0-1.37,1.5,4,4,0,0,0-.17,2.26c.3,1.3,2.2.27,3.48-.3a24.94,24.94,0,0,0,4.18-3.39c1.7-1.91,2.48-5.57,1.15-7.68"/><path class="cls-2" d="M83.28,34.12c-13.31,0-23,3.84-28.92,11.45-8.22,10.6-7.91,26.8-4.88,38.43.93,3.56,1.4,13.13,2,16.66,2.87,15.72,20.29,24.09,31.76,24.09h.3V34.12h-.3"/><path class="cls-3" d="M112.12,45.58C106.28,38,96.67,34.19,83.58,34.12v90.62c13.1-.14,28.75-9.32,31.45-24.08.62-3.53,1.1-13.1,2-16.66,3-11.6,3.32-27.78-4.94-38.42"/><path class="cls-7" d="M122.27,80a9,9,0,0,0-2.37,3.48c-1.29,3.36-1.78,2.78-1.78,2.78s2-13.15,2-16.81-11.53-16.15-18-18.32S90,56.28,83,56.28H82.5c-6.79-.13-12.8-7.25-19.16-5.13s-18,14.69-18,18.32,2,16.81,2,16.81-.49.58-1.77-2.78a9,9,0,0,0-2.84-3.86c-1.71-22.78-.73-56.33,39.65-56.33h.21c40.59,0,41.38,33.93,39.61,56.71"/></g></g></svg>