<svg xmlns="http://www.w3.org/2000/svg" viewBox="0 0 175 175.08"><defs><style>.cls-1{fill:#b9c98e;}.cls-2{fill:#dcc5a1;}.cls-3{fill:#edd9b4;}.cls-4{fill:#fdfdfd;}.cls-5,.cls-7{fill:#bc9f82;}.cls-5{opacity:0.7;}.cls-6{fill:#ccad8b;}.cls-8{fill:#d9bf9f;}.cls-9{fill:#b47070;}.cls-10{fill:#c17874;}.cls-11{fill:#362c1d;}</style></defs><title>Ativo 139ac</title><g id="Camada_2" data-name="Camada 2"><g id="Avatares"><rect class="cls-1" width="175" height="174.69" rx="39.39"/><path class="cls-2" d="M84,112.93v62H47.91l-.89-.35c0-22.66,10.24-31,16.77-34.08a19,19,0,0,1,5.31-1.67h.18a3.94,3.94,0,0,0,.47-.1c1.82-.47,3.06-3,3.9-6.57.15-.62.27-1.25.38-1.94.2-1.14.38-2.35.5-3.6.08-.76.16-1.51.24-2.29.32-3.81.42-8,.42-11.88C75.19,112.48,80.05,112.93,84,112.93Z"/><path class="cls-3" d="M121,174.61s-.32.12-.85.35H84v-62H84c3.92,0,8.8-.45,8.8-.45,0,3.91.1,8,.43,11.78q.11,1.14.24,2.25c.14,1.3.29,2.53.5,3.69v0c.07.52.17,1,.27,1.46.76,3.48,1.87,6,3.49,6.89a2.57,2.57,0,0,0,.38.14,2.24,2.24,0,0,0,.81.15,17,17,0,0,1,4.35,1.24C109.76,142.78,121,150.81,121,174.61Z"/><path class="cls-4" d="M81.88,175.06c-.35-1.67-.67-3.11-1-4.88L79.35,163c.05-.07,1.1-.89,2.71-2.26.68-.55,1.45-1.22,2.33-2,5.83-5,15.16-13.47,19.08-20a24.45,24.45,0,0,1,8.32,6.12,30.84,30.84,0,0,1,5.5,8.82c2.19,5.25,3.66,12.18,3.66,21.33"/><path class="cls-4" d="M47,174.69s.32.12.84.37H86c.35-1.67.75-3.51,1.12-5.27l1.51-7.19c-.06-.07-1.11-.89-2.73-2.26-.67-.55-1.44-1.22-2.32-2-5.83-5-15.17-13.48-19.08-20a24.47,24.47,0,0,0-8.33,6.12,31,31,0,0,0-5.49,8.82C48.46,158.6,47,165.53,47,174.69Z"/><path class="cls-5" d="M93.55,126.92l.18,1.42a10.82,10.82,0,0,1-9.58,4.94h-.06a12.41,12.41,0,0,1-9.8-5.32c.2-1.19.37-2.46.5-3.78.08-.79.15-1.59.23-2.41a38.91,38.91,0,0,0,9,1.17h.1a37,37,0,0,0,9.18-1.27c.07.8.15,1.6.23,2.37C93.65,125.4,93.35,125.7,93.55,126.92Z"/><path class="cls-6" d="M84.43,39.7c-37.12-.07-37.33,29.66-35.68,49-2.55-4.55-10.08-2.86-9.46,4.43.59,7,11.23,10.13,11.09,9.36,3,15.8,20.53,24.58,34.05,25.82h.29V39.7Z"/><path class="cls-7" d="M41.16,90.09a3.66,3.66,0,0,1,5.43-1,2.84,2.84,0,0,1,.89,3.23c-.27.93-1.31,1-1,2.43a2.6,2.6,0,0,0,1.5,2.08,3.23,3.23,0,0,1,1.28,1.31,3.42,3.42,0,0,1,.16,2c-.28,1.15-2.06.23-3.25-.28a21.92,21.92,0,0,1-3.89-3C40.64,95.21,39.91,92,41.16,90.09Z"/><path class="cls-8" d="M84.62,39.7c37.13-.07,37.34,29.66,35.69,49,2.54-4.55,10.08-2.86,9.46,4.43-.59,7-11.24,10.13-11.08,9.36-3,15.8-20.54,24.58-34.07,25.82h-.28V39.7Z"/><path class="cls-7" d="M128.17,90.09a3.67,3.67,0,0,0-5.44-1,2.83,2.83,0,0,0-.88,3.23c.25.93,1.3,1,1.05,2.43a2.59,2.59,0,0,1-1.52,2.08,2.84,2.84,0,0,0-1.43,3.32c.29,1.15,2.06.23,3.25-.28a22.36,22.36,0,0,0,3.9-3C128.68,95.21,129.41,92,128.17,90.09Z"/><path class="cls-2" d="M84.24,48.1c-12.4,0-21.47,3.42-27,10.14-7.67,9.39-7.37,23.74-4.54,34,.87,3.15,1.3,11.63,1.9,14.75C57.3,121,73.54,128.37,84.24,128.37h.29V48.12Z"/><path class="cls-3" d="M111.15,58.26c-5.45-6.68-14.42-10.09-26.62-10.14v80.24c12.21-.13,26.8-8.26,29.32-21.33.59-3.12,1-11.6,1.9-14.75C118.57,82,118.84,67.68,111.15,58.26Z"/><path class="cls-9" d="M90.77,115.78s-2.81,3-6.25,3-6.1-2.93-6.1-2.93a40.29,40.29,0,0,1,6.1-.45A50.75,50.75,0,0,1,90.77,115.78Z"/><path class="cls-10" d="M86.28,114.4a1.61,1.61,0,0,0-1.76,1.36,1.63,1.63,0,0,0-1.77-1.36,25,25,0,0,0-4.49,1.38s3.42.36,4.39.36,1.85.38,1.87-.34c0,.73.71.45,1.68.45s4.57-.47,4.57-.47A25,25,0,0,0,86.28,114.4Z"/><path class="cls-11" d="M58.39,79.73Z"/><path class="cls-11" d="M121.46,47.76c-3.33-5.1-3.57-3.66-3.57-3.66s3.35-13.94-17.46-17a49.1,49.1,0,0,0-8.17-.24l2.83,2.86a58.53,58.53,0,0,0-25.4-1.49C59.18,29.83,52,35,46.05,43.39c-4,5.62-5.21,13.92-5.21,13.92l5.45-7.23a36,36,0,0,0-5.45,24.41c3.22,24.27,14.52,28.77,14.52,28.77s-7.78-14.55-2.64-24c8.63-15.82,24-16.3,24-16.3a21.84,21.84,0,0,0-18.3,16.67.45.45,0,0,0,0,.08c.14-.47,1.66-4.68,7.27-6.84,3.42-1.3,7.88-1.26,13-2.6a27,27,0,0,0-5.44,12.6s4.53-7.27,15.6-11.43l2.07-.77c-3.27,4.19-2.11,11.25-1.06,12.65,0,0-.38-6.36,13.52-10.34,8-2.29,9.29-6.8,9.29-6.8a24.71,24.71,0,0,0,1,7.33c1.25,3.32,4.79,5.48,5,8.47.46,5.57-2.55,16-2.55,16l4.5-3.52c2.33-8.12,4.51-21.73,4.51-28S124,51.64,121.46,47.76Z"/></g></g></svg>