<svg xmlns="http://www.w3.org/2000/svg" viewBox="0 0 175 174.93"><defs><style>.cls-1{fill:#856ea6;}.cls-2{fill:#dcc5a1;}.cls-3{fill:#edd9b4;}.cls-4,.cls-7{fill:#bc9f82;}.cls-4{opacity:0.7;}.cls-5{fill:#841720;}.cls-6{fill:#ccad8b;}.cls-8{fill:#d9bf9f;}.cls-9{fill:#b47070;}.cls-10{fill:#c17874;}.cls-11{fill:#895a59;}.cls-12{fill:#fdfdfd;}</style></defs><title>Ativo 137ac</title><g id="Camada_2" data-name="Camada 2"><g id="Avatares"><rect class="cls-1" width="175" height="174.93" rx="39.36"/><path class="cls-2" d="M87.91,109.53v65.21H52.34a7.92,7.92,0,0,0-.87-.38c0-8.17,1.17-14.57,3-19.59,4.19-11.56,11.72-15.79,15.86-17.25a15.79,15.79,0,0,1,2.89-.77h.18a2.63,2.63,0,0,0,.47-.1c1.2-.32,2.15-1.62,2.9-3.57a25.32,25.32,0,0,0,.95-3.32c.14-.66.27-1.34.37-2,.2-1.21.37-2.46.5-3.79.08-.78.15-1.57.23-2.4.32-4,.42-8.37.42-12.48C79.26,109.05,84,109.53,87.91,109.53Z"/><path class="cls-3" d="M124.48,174.36a5.66,5.66,0,0,0-.85.38H87.91V109.53H88c3.86,0,8.68-.48,8.68-.48,0,4.09.1,8.38.42,12.36.08.8.15,1.59.22,2.39.16,1.34.31,2.66.51,3.85v0c.08.53.17,1,.27,1.51a24.62,24.62,0,0,0,1.27,4.41h0a5.58,5.58,0,0,0,2.15,2.83,3.26,3.26,0,0,0,.38.18,2.9,2.9,0,0,0,.79.12,12.5,12.5,0,0,1,1.75.37c3.94,1.17,13.55,5.4,17.86,20.19a54.5,54.5,0,0,1,2.07,13.24C124.46,171.78,124.48,173,124.48,174.36Z"/><path class="cls-4" d="M97.79,127.68v0A11.46,11.46,0,0,1,88,133h0a12.37,12.37,0,0,1-9.8-5.32c.19-1.2.37-2.46.49-3.78.07-.79.15-1.59.22-2.41a39.09,39.09,0,0,0,9,1.17h.1a36.6,36.6,0,0,0,9.18-1.27c.07.8.15,1.6.22,2.36C97.45,125.16,97.6,126.45,97.79,127.68Z"/><path class="cls-5" d="M115.62,157.5c-5.09-8.75-8.67-14.93-10.24-20.38a15.4,15.4,0,0,0-2.9-.78h-.17a2.73,2.73,0,0,1-.48-.1c-1.19-.33-2.14-1.63-2.89-3.61a12.21,12.21,0,0,1-2.48.92c-3.16.91-8.51,2.26-8.51,2.26a128,128,0,0,1,5.17,12.94c2.1,6.16-1.25,10.78-5.32,11-4.07-.18-7.41-4.8-5.31-11a129.63,129.63,0,0,1,5.16-12.94s-5.34-1.35-8.51-2.26a12.69,12.69,0,0,1-2.48-.92c-.75,2-1.69,3.28-2.89,3.61a2.56,2.56,0,0,1-.48.1h-.17a15.4,15.4,0,0,0-2.9.78c-1.57,5.45-5.14,11.63-10.23,20.38-2.82,4.85-.87,13.56.77,17.24h54.09C116.48,171.37,118.44,162.35,115.62,157.5Z"/><path class="cls-6" d="M87.87,39.46c-37.13-.08-37.34,29.65-35.69,49-2.55-4.55-10.07-2.86-9.45,4.42.58,7,11.23,10.14,11.08,9.37,3,15.8,20.53,24.57,34.06,25.82h.28V39.46Z"/><path class="cls-7" d="M44.59,89.84a3.69,3.69,0,0,1,5.44-1,2.84,2.84,0,0,1,.88,3.24c-.26.94-1.31,1-1,2.43a2.53,2.53,0,0,0,1.5,2.07,2.84,2.84,0,0,1,1.43,3.32c-.28,1.16-2.06.24-3.24-.27a21.59,21.59,0,0,1-3.9-3C44.07,95,43.35,91.72,44.59,89.84Z"/><path class="cls-8" d="M88.06,39.46c37.12-.08,37.33,29.65,35.68,49,2.55-4.55,10.08-2.86,9.46,4.42-.59,7-11.23,10.14-11.08,9.37-3,15.8-20.54,24.57-34.06,25.82h-.29V39.46Z"/><path class="cls-7" d="M131.6,89.84a3.69,3.69,0,0,0-5.44-1,2.86,2.86,0,0,0-.88,3.24c.26.94,1.3,1,1,2.43a2.55,2.55,0,0,1-1.51,2.07,2.86,2.86,0,0,0-1.44,3.32c.3,1.16,2.06.24,3.25-.27a21.59,21.59,0,0,0,3.9-3C132.11,95,132.84,91.72,131.6,89.84Z"/><path class="cls-2" d="M87.68,47.87c-12.4,0-21.48,3.4-27,10.13C53,67.39,53.34,81.73,56.16,92c.86,3.16,1.31,11.64,1.91,14.76,2.67,13.92,18.91,21.34,29.61,21.34H88V47.88Z"/><path class="cls-3" d="M114.58,58C109.13,51.34,100.16,47.93,88,47.88v80.24c12.21-.13,26.81-8.25,29.32-21.33.59-3.12,1-11.6,1.9-14.76C122,81.77,122.28,67.44,114.58,58Z"/><path class="cls-9" d="M94.2,115.54s-2.8,3-6.25,3-6.1-2.92-6.1-2.92a40.46,40.46,0,0,1,6.1-.45A50.55,50.55,0,0,1,94.2,115.54Z"/><path class="cls-10" d="M89.72,114.16A1.63,1.63,0,0,0,88,115.51a1.63,1.63,0,0,0-1.77-1.35,25,25,0,0,0-4.49,1.38s3.42.36,4.4.36,1.84.38,1.86-.34c0,.73.72.45,1.69.45s4.56-.47,4.56-.47A24.88,24.88,0,0,0,89.72,114.16Z"/><path class="cls-11" d="M136.81,67s-4.23-1-6.83-7-1.66-8.23-2.64-11.82a15.33,15.33,0,0,0-4.6-7.36L123,41c7,3.66,7.32,6.89,7.34,7.29a14.37,14.37,0,0,0-6.48-11.35,34.14,34.14,0,0,0-5.55-2.77,25.65,25.65,0,0,0,15.17-4.36s-10.16,4-20.46,0c-6-2.36-13-6.55-16.78-6.55a28.31,28.31,0,0,0-12.43,3.08c-3.13,1.65-6.19,4.22-7.48,4.22s-1,.46-6.83,1.52-8.53.77-16,8.21-7.42,26.88-7.42,26.88a13.52,13.52,0,0,1,2.7-7.33,33.27,33.27,0,0,0,2-2.83c-.74,1.46-3.68,7.62-3.54,14.26.29,13.39-2.95,15.22-2.95,15.22s2-.31,4.74-3.25a14.41,14.41,0,0,0-.27,4.28c2.31,14.2-2.52,19-2.52,19a21.75,21.75,0,0,0,9.64-14.54c.06,1.1.15,2.33.29,3.73.69,6.94-4.46,12.14-4.46,12.14s6.21-2.31,8.8-7.13a49.68,49.68,0,0,1,.18,5.65c-.15,4.55-2.07,5.75-2.07,5.75,2.73-1.54,4.35-4.62,5.39-9a60.93,60.93,0,0,0,1.24-7.65c.07-.74.15-1.5.22-2.28l.12-.14-.09-.18c0-.27,0-.53.07-.81.31-3.6.4-8.94.4-14.43,0-2,0-4,0-6,.55,1.37,1.14,2.71,1.71,4a25.05,25.05,0,0,1,1.45,5.77S72.48,76,70.73,67.76c-.35-1.61-.61-3.09-.82-4.45a11.48,11.48,0,0,0,8.21,6.38s-2.59-2.13-2.75-7.45A14,14,0,0,1,77,55.19a36.17,36.17,0,0,0,1.45,5.22c2,5.52,6.64,9.26,9.75,11.24l0,0,.27.17a24.14,24.14,0,0,0,2.7,1.48,16.7,16.7,0,0,1-2.7-2.92L88.28,70l0-.07A17.57,17.57,0,0,1,85,59.15c0-.2,0-.39,0-.57a13.64,13.64,0,0,0,1.42,3.17c.72,1.09,1.3,2,1.83,2.65l0,.07c.09.12.18.24.27.34a13.14,13.14,0,0,0,4.93,3.75,27.75,27.75,0,0,0,11.21,3s-5-1.48-7.75-7.8c-.53-1.21-1.09-2.45-1.65-3.65a21.38,21.38,0,0,0,5.79,4.73c5.68,3.17,9.12,8.6,11.51,14.9l.29.8a80.21,80.21,0,0,1,2.41,8.15.85.85,0,0,1,0,.17c2,8.53-2.16,16.32-3.29,18.22,0,0,0,.06,0,.1.55,3.77,1.59,6.56,3.49,8.17-.3-.34-1.42-1.92-1.15-6,.12-1.85.39-3.86.72-5.87,1.75,5.22,6.87,8.13,6.87,8.13a19.32,19.32,0,0,1-2.65-12.94c.26-1.46.45-2.72.61-3.87a27.35,27.35,0,0,0,1.18,6.59,22,22,0,0,0,5.7,9.28s-3.69-5.38-.31-19.92a17.65,17.65,0,0,0,.17-4.46A14.82,14.82,0,0,0,128,88a13.68,13.68,0,0,1-1.06,3.87,19.59,19.59,0,0,0,2-2.89,4.47,4.47,0,0,0,1.53,1,4.27,4.27,0,0,1-1-2.08,22,22,0,0,0,1.85-14.83,50,50,0,0,0-2.06-6.83l-.06-.42A24.14,24.14,0,0,0,136.81,67Z"/><path class="cls-12" d="M72.09,29.52c-1.57-.31-7.55,5.92-10.08,9.83a3.06,3.06,0,0,0-2-.06,3,3,0,0,0-1.59,1.28c-4.38-1.61-12.93-3-14-1.82-1.39,1.58,2.69,8,2.69,8s.61,7.55,2.67,8c1.57.32,7.56-5.92,10.08-9.83a3,3,0,0,0,2,.07,2.94,2.94,0,0,0,1.6-1.29c4.38,1.61,12.92,3,14,1.81,1.4-1.57-2.67-8-2.67-8S74.16,29.94,72.09,29.52Z"/></g></g></svg>