<svg xmlns="http://www.w3.org/2000/svg" xmlns:xlink="http://www.w3.org/1999/xlink" viewBox="0 0 174.47 174.35"><defs><style>.cls-1{fill:none;}.cls-2{fill:#d2887e;}.cls-3{fill:#dcc5a1;}.cls-4{fill:#edd9b4;}.cls-5,.cls-9{fill:#bc9f82;}.cls-5{opacity:0.7;}.cls-6{fill:#2b1910;}.cls-7{fill:#f8f7e0;}.cls-8{fill:#ccad8b;}.cls-10{fill:#d9bf9f;}.cls-11{fill:#b47070;}.cls-12{fill:#c17874;}.cls-13{fill:#895a59;}.cls-14{fill:#4f4e49;}.cls-15{clip-path:url(#clip-path);}.cls-16{fill:#fdfdfd;}.cls-17{fill:#434142;}.cls-18{fill:#bd2c62;}.cls-19{fill:#dca88d;}.cls-20{fill:#4a72b0;}.cls-21{fill:#840e5b;}.cls-22{fill:#82acc6;}.cls-23{fill:#da9500;}.cls-24{fill:#f7eb45;}.cls-25{fill:#008f45;}.cls-26{fill:#1d1e17;}</style><clipPath id="clip-path"><rect class="cls-1" x="76.06" y="114.44" width="22.15" height="13.04"/></clipPath></defs><title>Ativo 129ac</title><g id="Camada_2" data-name="Camada 2"><g id="Avatares"><rect class="cls-2" y="0.05" width="174.47" height="174.09" rx="39.26"/><path class="cls-3" d="M88.1,109.31v65H52.66l-.87-.37c0-14.54,3.77-23.48,8.2-29,6.15-7.61,13.5-8.5,13.5-8.5h.18a2.08,2.08,0,0,0,.47-.1c1.79-.49,3-3.12,3.82-6.88.15-.65.28-1.31.38-2,.19-1.2.38-2.45.5-3.77.07-.79.14-1.59.22-2.4.32-4,.42-8.32.42-12.44C79.48,108.84,84.26,109.31,88.1,109.31Z"/><path class="cls-4" d="M124.55,173.92s-.32.12-.85.37H88.1v-65h.09c3.85,0,8.64-.47,8.64-.47,0,4.09.1,8.38.42,12.34.08.8.15,1.58.23,2.35.15,1.37.3,2.66.5,3.87v0c.07.55.17,1,.27,1.54.75,3.63,1.84,6.31,3.43,7.2a1.31,1.31,0,0,0,.37.15,2,2,0,0,0,.8.15s7.75.92,14,9.12C121.05,151.1,124.55,159.89,124.55,173.92Z"/><path class="cls-5" d="M98,127.41v0a11.46,11.46,0,0,1-9.82,5.32h0a12.37,12.37,0,0,1-9.77-5.3c.2-1.19.38-2.45.5-3.77.07-.79.15-1.58.22-2.4a38.66,38.66,0,0,0,9,1.17h.1a36.42,36.42,0,0,0,9.15-1.27c.07.8.14,1.59.22,2.36C97.63,124.91,97.78,126.2,98,127.41Z"/><path class="cls-6" d="M124.55,173.92s-.32.12-.85.37h-71l-.87-.37c0-14.54,3.77-23.48,8.2-29a19.33,19.33,0,0,0,13.82,10,125.58,125.58,0,0,0,14.29,1.8c7.41.55,14.4-.66,18.23-2.74a39.41,39.41,0,0,0,10.51-8.45C121.05,151.1,124.55,159.89,124.55,173.92Z"/><path class="cls-7" d="M102.23,137.2a6.67,6.67,0,0,1-1.53-5c.28-1.76-2.6-1.68-2.6-1.68s1,1.4.07,2.37-4.64,2.24-10.12,2.24-7.77-.69-9-1.38-2.38-2.23-.7-3.71a4.78,4.78,0,0,0-3,1c-1.57,1.11,1,1.93.07,3.37s-.7,1.68-2.46,3.34,0,2.65,2.39,3.93a23.8,23.8,0,0,0,4.56,1.95c.17,3.76,3.71,6.76,8.06,6.76s7.86-3,8.06-6.73a19.2,19.2,0,0,0,6.21-3.32C104.92,138.33,103.31,138.68,102.23,137.2ZM88,148.37a4.93,4.93,0,1,1,4.94-4.93A4.94,4.94,0,0,1,88,148.37Z"/><path class="cls-8" d="M88.08,39.5c-37-.07-37.21,29.56-35.56,48.87-2.54-4.53-10-2.85-9.43,4.42.59,6.95,11.19,10.09,11,9.33,3,15.74,20.46,24.48,33.94,25.73h.29V39.5Z"/><path class="cls-9" d="M45,89.72a3.66,3.66,0,0,1,5.42-1A2.83,2.83,0,0,1,51.25,92c-.27.93-1.3,1-1,2.43a2.55,2.55,0,0,0,1.51,2.06A3.46,3.46,0,0,1,53,97.76a3.32,3.32,0,0,1,.17,2c-.28,1.15-2,.24-3.24-.27a22.79,22.79,0,0,1-3.89-3C44.44,94.82,43.71,91.59,45,89.72Z"/><path class="cls-10" d="M88.27,39.5c37-.07,37.2,29.56,35.55,48.87,2.55-4.53,10.05-2.85,9.44,4.42-.6,6.95-11.2,10.09-11,9.33-3,15.74-20.46,24.48-33.94,25.73H88V39.5Z"/><path class="cls-9" d="M131.66,89.72a3.66,3.66,0,0,0-5.42-1,2.83,2.83,0,0,0-.88,3.22c.26.93,1.3,1,1,2.43a2.55,2.55,0,0,1-1.51,2.06,2.86,2.86,0,0,0-1.43,3.31c.29,1.15,2,.24,3.24-.27a22.34,22.34,0,0,0,3.88-3C132.17,94.82,132.9,91.59,131.66,89.72Z"/><path class="cls-3" d="M87.89,47.89C75.53,47.89,66.49,51.28,61,58c-7.65,9.36-7.35,23.65-4.54,33.92.86,3.14,1.3,11.59,1.9,14.7,2.67,13.87,18.85,21.26,29.51,21.26h.28v-80Z"/><path class="cls-4" d="M114.7,58c-5.43-6.66-14.37-10-26.53-10.11v80c12.17-.13,26.71-8.23,29.22-21.26.59-3.11,1-11.56,1.9-14.7C122.09,81.66,122.38,67.39,114.7,58Z"/><path class="cls-11" d="M94.39,115.32s-2.78,3-6.23,3-6.08-2.91-6.08-2.91a39.32,39.32,0,0,1,6.08-.46A50,50,0,0,1,94.39,115.32Z"/><path class="cls-12" d="M89.93,114a1.61,1.61,0,0,0-1.77,1.35A1.61,1.61,0,0,0,86.4,114a24.85,24.85,0,0,0-4.47,1.37s3.4.35,4.38.35,1.83.39,1.85-.33c0,.72.71.44,1.68.44s4.55-.46,4.55-.46A24.7,24.7,0,0,0,89.93,114Z"/><path class="cls-13" d="M121.67,99.42c.71,0,0-4.14,2.32-7s6-12.47,6-22.06-3.09-18.13-11.14-27.2-19.9-13.48-19.9-13.48l5.45,5.44s-2.94-4.42-13.47-8c-8.33-2.79-13.72.32-13.72.32s5.49-.21,7.15,2.4a8.9,8.9,0,0,0,2,1.67s-2.55-6.26-14.39-1.07S60.28,45,52.05,47.83C43.61,50.76,41.17,47,41.17,47s3.66,6.57,10.16,6.59a5,5,0,0,0,1.16,0,64,64,0,0,0-2.91,12.3c-.47,5.36,1,9,1.47,19.07.4,8.58,2.54,4.18,5.09,10.5A14.51,14.51,0,0,1,57,100c.94.25,3.42-5.15,1.64-14.53C57.51,79.33,63.24,56.25,77,60.75c8.45,2.76,10.58,8.36,16.89,3.38,5.45-4.29,13.06-6.75,18.74-3.36s8.88,11,7.89,23.21C119.3,99.53,121.67,99.42,121.67,99.42Z"/><rect class="cls-14" x="0.05" width="174.37" height="174.35" rx="39.22"/><path class="cls-3" d="M87.1,101.06v73.29h-40a10.36,10.36,0,0,0-1-.42c0-30.22,14.47-39,21.17-41.37a15.92,15.92,0,0,1,3.33-.89c2.45,0,4-3.12,5.06-7.87.15-.72.3-1.47.42-2.28.22-1.34.39-2.77.56-4.25,0-.9.16-1.79.25-2.71.37-4.52.47-9.41.47-14,0,0,5.39.54,9.74.54"/><path class="cls-4" d="M128.2,173.93a7,7,0,0,0-.95.42H87.1V101.06h.08c4.35,0,9.76-.54,9.76-.54,0,4.63.08,9.46.47,13.94.06.89.18,1.77.26,2.61.17,1.56.3,3,.53,4.39v0c.11.61.2,1.17.34,1.73,1,5,2.66,8.45,5.19,8.45a19.36,19.36,0,0,1,5,1.56c7.18,3.27,19.43,12.88,19.43,40.7"/><g class="cls-15"><path class="cls-9" d="M98.21,121.44v0a12.91,12.91,0,0,1-11.07,6h0c-6.36,0-10.07-4.64-11-6,.22-1.34.41-2.78.56-4.26.07-.89.16-1.79.24-2.69a45,45,0,0,0,10.1,1.3h.12a41.14,41.14,0,0,0,10.31-1.42c.08.88.17,1.77.26,2.64.17,1.55.33,3,.55,4.36"/></g><path class="cls-8" d="M86.35,17C44,17,43.75,52.32,45.64,75.44,42.73,70,34.15,71.66,34.85,80.29c.67,8.31,12.81,12.62,12.65,11.65,3.47,19,23.4,30,38.85,30h.32V17h-.32"/><path class="cls-9" d="M37.56,76.64a4,4,0,0,1,6.11-1.16,3.45,3.45,0,0,1,1,3.82c-.28,1.11-1.46,1.2-1.16,2.89a3,3,0,0,0,1.68,2.45,3.78,3.78,0,0,1,1.44,1.56,4.25,4.25,0,0,1,.19,2.37c-.33,1.37-2.33.29-3.65-.33a24.69,24.69,0,0,1-4.39-3.54c-1.78-2-2.6-5.84-1.2-8.06"/><path class="cls-10" d="M86.56,17c42.35,0,42.59,35.32,40.71,58.44,2.9-5.47,11.5-3.78,10.79,4.85-.67,8.31-12.82,12.62-12.65,11.65-3.47,19-23.39,30-38.85,30h-.32V17h.32"/><path class="cls-9" d="M135.36,76.64a4,4,0,0,0-6.12-1.16,3.47,3.47,0,0,0-1,3.82c.29,1.11,1.47,1.2,1.18,2.89a3,3,0,0,1-1.7,2.45,3.81,3.81,0,0,0-1.42,1.56,4.16,4.16,0,0,0-.19,2.37c.32,1.37,2.31.29,3.65-.33a24.63,24.63,0,0,0,4.38-3.54c1.79-2,2.6-5.84,1.21-8.06"/><path class="cls-3" d="M86.83,27c-13.94,0-24.14,4-30.31,12-8.63,11.12-8.3,28.1-5.12,40.3,1,3.72,1.48,13.77,2.15,17.45,3,16.5,21.25,25.27,33.28,25.27h.32V27h-.32"/><path class="cls-4" d="M117.07,39C111,31.06,100.86,27,87.15,27v95c13.73-.15,30.13-9.77,32.95-25.26.67-3.68,1.17-13.73,2.14-17.45,3.17-12.16,3.48-29.13-5.17-40.28"/><path class="cls-16" d="M128.15,173.93a7,7,0,0,0-1,.42H47.07a9.79,9.79,0,0,0-1-.42c0-30.22,14.48-38.94,21.18-41.37,3.87,1.92,10.11,5.05,12.36,6.05,1.74.76,4.25,2.59,7.51,2.57,3-.06,6.68-1.89,11-3.26a59,59,0,0,0,10.58-4.69c7.18,3.27,19.43,12.88,19.43,40.7"/><path class="cls-17" d="M119.21,174.35H55c.19-3.13.39-8.8.3-16.45v-1.43c0-.53,0-1.08-.08-1.68,0-.38-.06-.81-.09-1.22-.25-3.07-.76-6.71-1.37-10.5a29.38,29.38,0,0,1,5.89-6.5,2.61,2.61,0,0,1,.54-.44,25.86,25.86,0,0,1,7-4c.36-.14.7-.25,1-.34a15.85,15.85,0,0,1,2.34-.55,3,3,0,0,0,2-.84,0,0,0,0,1,0,0,7.25,7.25,0,0,0,.6-.7,1.74,1.74,0,0,1,.36.73c.76,2,8.32,7.84,13.54,13,5.21-5.13,12.78-11,13.54-13a1.59,1.59,0,0,1,.37-.73,5.18,5.18,0,0,0,.59.7s0,0,0,0a3,3,0,0,0,2,.84,13.62,13.62,0,0,1,2.22.5c.31.11.64.22,1,.37a25.12,25.12,0,0,1,7.09,3.93,5.62,5.62,0,0,1,.53.46,28.86,28.86,0,0,1,6,6.54c-.64,3.9-1.16,7.61-1.37,10.71-.06.42-.09.84-.12,1.24s0,.83,0,1.19v1.43c-.12,7.76.11,13.55.31,16.71"/><polygon class="cls-18" points="70.72 148.28 70.75 148.24 70.7 148.24 66.63 141.27 62.57 134.22 58.52 141.27 54.44 148.24 54.4 148.24 54.43 148.28 54.4 148.31 54.44 148.31 58.52 155.29 62.57 162.32 66.63 155.29 70.7 148.31 70.75 148.31 70.72 148.28"/><polygon class="cls-19" points="87.06 148.28 87.08 148.24 87.03 148.24 82.97 141.27 78.92 134.22 74.87 141.27 70.79 148.24 70.75 148.24 70.77 148.28 70.75 148.31 70.79 148.31 74.87 155.29 78.91 162.32 82.97 155.29 87.03 148.31 87.08 148.31 87.06 148.28"/><polygon class="cls-20" points="103.41 148.28 103.42 148.24 103.38 148.24 99.3 141.27 95.26 134.22 91.21 141.27 87.14 148.24 87.09 148.24 87.1 148.28 87.09 148.31 87.14 148.31 91.21 155.29 95.25 162.32 99.3 155.29 103.38 148.31 103.42 148.31 103.41 148.28"/><polygon class="cls-21" points="119.75 148.28 119.77 148.24 119.72 148.24 115.65 141.27 111.6 134.22 107.55 141.27 103.47 148.24 103.42 148.24 103.45 148.28 103.42 148.31 103.47 148.31 107.55 155.29 111.6 162.32 115.65 155.29 119.72 148.31 119.77 148.31 119.75 148.28"/><polygon class="cls-22" points="69.55 174.35 55.58 174.35 58.52 169.36 62.57 162.3 66.64 169.36 69.55 174.35"/><polygon class="cls-23" points="85.9 174.35 71.93 174.35 74.88 169.36 78.91 162.3 82.95 169.36 85.9 174.35"/><polygon class="cls-24" points="102.24 174.35 88.27 174.35 91.22 169.36 95.26 162.3 99.3 169.36 102.24 174.35"/><polygon class="cls-25" points="118.56 174.35 104.62 174.35 107.55 169.36 111.61 162.3 115.65 169.36 118.56 174.35"/><path class="cls-26" d="M71.06,155.57l.17-.38h-.36l-4-6.8-4.34-7.57-4.37,7.57-3,5.18c0,.41.06.84.09,1.22l3.57-6,3.75-6.54,3.73,6.54,4,6.82-4,6.85-3.76,6.51-3.72-6.51-3.49-5.95v1.43l2.87,4.85,4.34,7.57,4.37-7.57,4-6.78.39,0Z"/><path class="cls-26" d="M78.86,170.32l-4.35-7.56-4-6.79h-.42l.2-.38-.22-.36.43,0,4-6.81,4.36-7.56,4.35,7.56,4,6.8h.38l-.17.38.2.35-.41,0-4,6.81Zm-7.75-14.75,4,6.84,3.74,6.51,3.75-6.51,4-6.84-4-6.82-3.74-6.51-3.75,6.51Z"/><path class="cls-26" d="M95.21,170.32l-4.35-7.56-4-6.79h-.41l.2-.38-.21-.36.42,0,4-6.81,4.35-7.56,4.35,7.56,4,6.8h.39l-.17.38.19.35-.41,0-4,6.81Zm-7.75-14.75,4,6.84,3.74,6.51L99,162.41l4-6.84-4-6.82-3.75-6.51-3.74,6.51Z"/><path class="cls-26" d="M111.55,142.21l3.76,6.54L119,155c0-.4.06-.82.12-1.24l-3.17-5.39-4.35-7.57-4.35,7.57-4,6.8-.45.05.22.33-.19.4h.42l4,6.78,4.35,7.57,4.35-7.57,3-5.11v-1.43l-3.59,6.21-3.76,6.51-3.73-6.51-4-6.85,4-6.82Z"/><polygon class="cls-26" points="62.51 168.9 59.4 174.35 60.21 174.35 62.51 170.3 64.87 174.35 65.68 174.35 62.51 168.9"/><polygon class="cls-26" points="78.86 168.9 75.75 174.35 76.55 174.35 78.86 170.3 81.19 174.35 82 174.35 78.86 168.9"/><polygon class="cls-26" points="95.21 168.9 92.09 174.35 92.9 174.35 95.21 170.3 97.54 174.35 98.34 174.35 95.21 168.9"/><polygon class="cls-26" points="111.55 168.9 108.41 174.35 109.2 174.35 111.55 170.3 113.85 174.35 114.69 174.35 111.55 168.9"/><path class="cls-26" d="M67.19,132.16l-4.65,8-2.35-4.07a2.37,2.37,0,0,0-.54.44l2.89,5,5.66-9.78c-.31.09-.65.2-1,.34"/><path class="cls-26" d="M114,136.07l-2.39,4.13-4.7-8.06c-.37-.15-.7-.26-1-.37l5.71,9.83,2.92-5.07a5.62,5.62,0,0,0-.53-.46"/><path class="cls-16" d="M102.41,129.05c-.62-1.55-2.07-3-2.61-4.23-.88-2-1.68-3.85-1.68-3.85-.2,1.94-3.24,10.64-3.24,10.64s-9.51,10.13-8,10.46,8.55,3.6,10.57,5.94,1.69,4.53,2.22,1.36,4.39-16.16,2.77-20.32"/><path class="cls-16" d="M79.33,131.61s-3-8.7-3.23-10.64c0,0-.82,1.8-1.7,3.85-.53,1.23-2,2.68-2.61,4.23-1.62,4.16,2.25,17.15,2.78,20.32s.18,1,2.21-1.36,8.83-5.56,10.32-5.88-7.77-10.52-7.77-10.52"/></g></g></svg>