<svg xmlns="http://www.w3.org/2000/svg" viewBox="0 0 175 174.92"><defs><style>.cls-1{fill:#a1556b;}.cls-2{fill:#dcc5a1;}.cls-3{fill:#edd9b4;}.cls-4,.cls-8{fill:#bc9f82;}.cls-4{opacity:0.7;}.cls-5{fill:#e6e6e6;}.cls-6{fill:#5a4f51;}.cls-7{fill:#ccad8b;}.cls-9{fill:#d9bf9f;}.cls-10{fill:#fdfbf8;}</style></defs><title>Ativo 152ac</title><g id="Camada_2" data-name="Camada 2"><g id="Avatares"><rect class="cls-1" width="175" height="174.92" rx="39.36"/><path class="cls-2" d="M85.42,110.26v64.33H50.32l-.86-.37c0-34.51,21.49-37.09,21.49-37.09,2.15,0,3.52-2.74,4.43-6.91.15-.64.27-1.3.38-2,.19-1.17.35-2.43.48-3.72.07-.79.15-1.57.22-2.38.33-3.95.42-8.24.42-12.32C76.88,109.78,81.61,110.26,85.42,110.26Z"/><path class="cls-3" d="M121.5,174.22s-.32.12-.84.37H85.42V110.26h.07c3.82,0,8.57-.48,8.57-.48,0,4,.1,8.3.42,12.22.07.79.15,1.57.22,2.33.15,1.35.29,2.62.49,3.82v0c.08.54.17,1,.27,1.52.91,4.44,2.34,7.43,4.55,7.43C100,137.13,121.5,139.71,121.5,174.22Z"/><path class="cls-4" d="M95.19,128.15v0a11.33,11.33,0,0,1-9.72,5.27h0a12.14,12.14,0,0,1-9.66-5.25c.19-1.17.35-2.43.48-3.72.07-.79.15-1.57.22-2.38a38.58,38.58,0,0,0,8.86,1.15h.1A36.17,36.17,0,0,0,94.48,122c.07.79.15,1.57.22,2.33C94.85,125.68,95,127,95.19,128.15Z"/><path class="cls-5" d="M121.51,174.22s-.32.13-.84.39H50.33l-.86-.39c0-25.61,11.47-33.92,17.65-36.49a15.49,15.49,0,0,1,3.49-1.11c5.15.49,14.69,4.42,14.69,4.42a16.32,16.32,0,0,0,9.9-3.93c.22-.21,4.53.79,4.7.59a11.81,11.81,0,0,0,1-1h0a19.78,19.78,0,0,1,2.68.85s0,0,0,0c.2.08.39.18.62.27a24.09,24.09,0,0,1,4.23,2.53,5.86,5.86,0,0,1,.62.46C115,145.46,121.51,154.94,121.51,174.22Z"/><path class="cls-6" d="M115.16,147.36A25,25,0,0,0,104,137.73L85.75,168.58l-.19.34-.2-.34L67.12,137.73A24.86,24.86,0,0,0,56,147.36a15,15,0,0,1,2.9,5.91c2.31,8.27,1,18.35.52,21.34h52.38c-.47-3-1.8-13.07.51-21.34A15.1,15.1,0,0,1,115.16,147.36Z"/><path class="cls-7" d="M84.85,36.47c-37.18,0-37.38,31-35.74,51.31C46.57,83,39,84.46,39.65,92c.59,7.32,11.25,11.09,11.1,10.23,3,16.71,20.53,26.36,34.1,26.36h.28V36.48Z"/><path class="cls-8" d="M42,88.83a3.52,3.52,0,0,1,5.37-1,3.05,3.05,0,0,1,.87,3.36c-.26,1-1.29,1-1,2.53a2.64,2.64,0,0,0,1.49,2.15A3.41,3.41,0,0,1,50,97.21a3.7,3.7,0,0,1,.16,2.09c-.29,1.2-2,.25-3.21-.28a22.34,22.34,0,0,1-3.84-3.12C41.51,94.15,40.79,90.77,42,88.83Z"/><path class="cls-9" d="M85,36.47c37.18,0,37.38,31,35.73,51.31,2.55-4.81,10.1-3.32,9.47,4.24-.6,7.32-11.25,11.09-11.1,10.23-3,16.71-20.54,26.36-34.1,26.36h-.29V36.48Z"/><path class="cls-8" d="M127.87,88.83a3.52,3.52,0,0,0-5.37-1,3.05,3.05,0,0,0-.87,3.36c.26,1,1.29,1,1,2.53a2.62,2.62,0,0,1-1.49,2.15,3.41,3.41,0,0,0-1.26,1.36,3.7,3.7,0,0,0-.16,2.09c.28,1.2,2,.25,3.2-.28a22,22,0,0,0,3.85-3.12C128.38,94.15,129.1,90.77,127.87,88.83Z"/><path class="cls-2" d="M84.53,45.21c-12.23,0-21.19,3.54-26.61,10.53-7.56,9.76-7.28,24.67-4.48,35.36.85,3.27,1.28,12.09,1.88,15.33C58,120.9,74,128.61,84.53,128.61h.29V45.22Z"/><path class="cls-3" d="M111.08,55.76c-5.38-6.95-14.23-10.49-26.26-10.54V128.6c12.05-.14,26.44-8.58,28.92-22.17.59-3.24,1-12.06,1.88-15.33C118.4,80.43,118.68,65.55,111.08,55.76Z"/><path class="cls-10" d="M51,93.65c-.74,0,0-4-2.43-6.67s-6.26-11.89-6.26-21S45.58,48.66,54,40,74.85,27.15,74.85,27.15l-5.71,5.19s3.08-4.21,14.12-7.58c8.72-2.66,14.36.31,14.36.31s-5.74-.2-7.49,2.29a9.44,9.44,0,0,1-2,1.59s2.67-6,15.08-1S115.33,41.74,124,44.45c8.82,2.79,11.39-.78,11.39-.78s-3.84,6.26-10.65,6.28a5.36,5.36,0,0,1-1.21,0,56.77,56.77,0,0,1,3,11.74c.5,5.11-1.06,8.61-1.54,18.18-.41,8.18-2.65,4-5.32,10a12.61,12.61,0,0,0-.94,4.3c-1,.24-3.58-4.91-1.72-13.85,1.21-5.81-4.78-27.81-19.24-23.52-8.85,2.62-11.08,8-17.69,3.22-5.7-4.1-13.68-6.45-19.63-3.21s-9.31,10.52-8.27,22.13C53.51,93.75,51,93.65,51,93.65Z"/><path class="cls-10" d="M98.52,116c-.23,7.74-8.56,8.84-13,9.06H84c-4.42-.22-12.75-1.32-13-9.06,0-1.07-2.15,2.38-1.41,8.59.71,5.9,11.45,9.47,15.13,10.24v0h0v0c3.68-.77,14.41-4.34,15.13-10.24C100.68,118.42,98.55,115,98.52,116Z"/></g></g></svg>