<svg xmlns="http://www.w3.org/2000/svg" viewBox="0 0 174.82 174.48"><defs><style>.cls-1{fill:#856da5;}.cls-2{fill:#dcc5a1;}.cls-3{fill:#edd9b4;}.cls-4,.cls-8{fill:#bc9f82;}.cls-4{opacity:0.7;}.cls-5{fill:#3b2f18;}.cls-6{fill:#5a4f51;}.cls-7{fill:#ccad8b;}.cls-9{fill:#d9bf9f;}.cls-10{fill:#12130a;}.cls-11{fill:#1a1a13;}.cls-12{fill:#504f4b;}.cls-13{fill:#44433e;}</style></defs><title>Ativo 103ac</title><g id="Camada_2" data-name="Camada 2"><g id="Avatares"><rect class="cls-1" width="174.82" height="174.29" rx="39.21"/><path class="cls-2" d="M85.44,109.52v65H50l-.88-.37c0-34.85,21.7-37.45,21.7-37.45H71a3.94,3.94,0,0,0,.47-.1.76.76,0,0,0,.2-.08c1.56-.59,2.65-2.82,3.42-6a8.15,8.15,0,0,0,.21-.82c0-.15.07-.29.09-.44.11-.5.2-1,.28-1.56.2-1.19.37-2.45.5-3.77.07-.79.14-1.58.22-2.4v0c.32-4,.42-8.32.42-12.43C76.82,109.05,81.59,109.52,85.44,109.52Z"/><path class="cls-3" d="M121.88,174.11s-.32.12-.84.37H85.44v-65h.08c3.85,0,8.65-.47,8.65-.47,0,4.08.1,8.37.42,12.33v0c.08.8.15,1.59.23,2.36.15,1.35.29,2.64.49,3.86v0c0,.36.13.74.2,1.08,0,.15.06.28.08.43.74,3.64,1.83,6.31,3.43,7.21a1.54,1.54,0,0,0,.3.11s0,0,.07,0a.88.88,0,0,0,.15.05,2,2,0,0,0,.64.1S121.88,139.26,121.88,174.11Z"/><path class="cls-4" d="M95.31,127.62v0A11.45,11.45,0,0,1,85.5,133h0a12.37,12.37,0,0,1-9.77-5.3c.2-1.19.37-2.45.5-3.76.07-.79.15-1.59.22-2.4a39.22,39.22,0,0,0,8.95,1.16h.1a36.89,36.89,0,0,0,9.15-1.26c.07.79.14,1.58.22,2.35C95,125.11,95.11,126.39,95.31,127.62Z"/><path class="cls-5" d="M99.54,136.56c-.9,1.51-2.91,3.05-7.26,3.52a66.84,66.84,0,0,1-6.84.42c-8.67.05-12.32-2.1-13.76-4,1.56-.59,2.65-2.82,3.42-6a8.15,8.15,0,0,0,.21-.82c0-.15.07-.29.09-.44.4.77,1.57,2,4.93,2.5h0a39.48,39.48,0,0,0,5.06.37,19.05,19.05,0,0,0,6.37-.91s0,0,0,0c2.83-1,3.48-2.55,3.48-2.55l.17.12c0,.15.06.28.08.43.74,3.64,1.83,6.31,3.43,7.21.12,0,.24.11.37.14A.88.88,0,0,0,99.54,136.56Z"/><path class="cls-6" d="M121.88,174.11s-.32.12-.84.37H50l-.88-.37c0-34.85,21.7-37.45,21.7-37.45H71a3.94,3.94,0,0,0,.47-.1.76.76,0,0,0,.2-.08c-2.14,4-15.94,18.8,0,22.05a77.41,77.41,0,0,0,13.76,1.61c8.63.23,14.82-1.24,18.23-2.53,6.83-2.55-1-16.46-4.35-21.13,0,0,0,0,.07,0a.88.88,0,0,0,.15.05,2,2,0,0,0,.64.1S121.88,139.26,121.88,174.11Z"/><path class="cls-7" d="M85.42,39.72c-37-.07-37.2,29.55-35.56,48.86-2.54-4.52-10-2.84-9.41,4.41.58,7,11.18,10.1,11,9.34,3,15.74,20.46,24.48,33.93,25.72h.29V39.72Z"/><path class="cls-8" d="M42.43,89a3.67,3.67,0,0,1,5.42-1,2.85,2.85,0,0,1,.88,3.23c-.26.93-1.3,1-1,2.42a2.52,2.52,0,0,0,1.5,2.06A3.41,3.41,0,0,1,50.45,97a3.35,3.35,0,0,1,.16,2c-.28,1.14-2,.23-3.23-.27a22.79,22.79,0,0,1-3.89-3C41.91,94.08,41.19,90.84,42.43,89Z"/><path class="cls-9" d="M85.6,39.72c37-.07,37.21,29.55,35.56,48.86,2.54-4.52,10-2.84,9.43,4.41-.59,7-11.19,10.1-11,9.34-3,15.74-20.45,24.48-33.94,25.72h-.28V39.72Z"/><path class="cls-8" d="M128.58,89a3.68,3.68,0,0,0-5.43-1,2.85,2.85,0,0,0-.87,3.23c.26.93,1.3,1,1,2.42a2.53,2.53,0,0,1-1.51,2.06c-.43.36-1,.64-1.27,1.31a3.43,3.43,0,0,0-.16,2c.28,1.14,2,.23,3.23-.27a22.79,22.79,0,0,0,3.89-3C129.09,94.08,129.82,90.84,128.58,89Z"/><path class="cls-2" d="M85.23,48.11c-12.35,0-21.4,3.39-26.88,10.09C50.72,67.56,51,81.85,53.83,92.11c.86,3.14,1.29,11.59,1.9,14.69,2.66,13.88,18.85,21.27,29.5,21.27h.28V48.12Z"/><path class="cls-3" d="M112,58.21c-5.42-6.66-14.36-10-26.52-10.09v79.94c12.17-.13,26.71-8.22,29.21-21.26.6-3.1,1-11.55,1.89-14.69C119.43,81.87,119.71,67.6,112,58.21Z"/><path class="cls-10" d="M91.73,115.52s-2.79,3-6.23,3-6.08-2.91-6.08-2.91a40.17,40.17,0,0,1,6.08-.45A51.5,51.5,0,0,1,91.73,115.52Z"/><path class="cls-11" d="M87.26,114.15a1.61,1.61,0,0,0-1.76,1.35,1.62,1.62,0,0,0-1.77-1.35,25.12,25.12,0,0,0-4.47,1.37s3.41.36,4.39.36,1.83.38,1.85-.34c0,.73.71.45,1.68.45s4.55-.47,4.55-.47A24.85,24.85,0,0,0,87.26,114.15Z"/><path class="cls-5" d="M74.07,43.82c-2-1-10.73-4.15-10.73-4.15s3,1.66,3.32,3.12S47,51.12,44.23,69.85,48.54,96,48.54,96,47.22,82.94,47.22,83s-5.37,5.87-4.81,10.47,1.8,4.1,5.61,9.26c3.48,4.69-.09-2.46-.09-2.46s2.76,8.49,4.06,4.87c2.22-6.24,1.32-8.84,2.07-12.33s1.32-12.89,1.32-12.89-3.31,7.59.55,15a18.7,18.7,0,0,0,2.69,3.86,20.67,20.67,0,0,1-1.89-9.72c.3-3.13,2.39-3.62,7-15.09,2.2-5.45.33-15.91,0-13.36s-.63,8.9,1.68,12.09a18.56,18.56,0,0,0,8.55,6.41S68.4,75.3,68.33,68.5a15.68,15.68,0,0,1,1.48-6.61s-1.41,7.66,11.4,12.24a11.2,11.2,0,0,0,6.56.43s-5.32-2.82-5.36-7.71a43.93,43.93,0,0,0,22.77,12.48,36.59,36.59,0,0,0,9.54.87s.6-1.11.42,4.06-1.18,7.39-2.54,9.18a19.38,19.38,0,0,1-2.23,2,13.67,13.67,0,0,0,6.91-6.29c1.83-3.35,1.24-7.85,1.24-7.85a83.88,83.88,0,0,1,0,13.05c-.8,10.89-5,15.64-5,15.64s4.11-2.06,6.75-8.43c.08-.2-.29,3.86.1,1.1,0,0,3.72.47,6.42-6.24,0,0,1.73,7.16.43-1.34-1.67-10.81,1.19-19.23-1-27.67s-2.82-9.27-6.53-13.86-7.26-8.29-17.27-11.32-12.1-2-15.93-2a19.75,19.75,0,0,0-10,2.66,7.79,7.79,0,0,1,.37-4.48,22.84,22.84,0,0,1,1.67-3.79s-2.44,3.38-3,4.23c-2.17,3.48-1.49,4.88-1.49,4.88"/><path class="cls-12" d="M49.9,108.35c-5-8.52-6.74-12.81-5.48-19.19.42-2.09,2.66-7.78,2.3-10.66C46.15,74,57.87,52.4,67,48.31s17.8-5,23.48-4.41,14.78,3.92,19.77,12.42,7.15,9.19,7.49,11.77,1.61,5.52,2.2,8.86c.63,3.65,4.81,11.26,4.81,17.75,0,6.28-6.19,15.55-6.19,15.55s6.3-8.21,7.72-9.63c1.77-1.77,3.65-3.43,4.34-7.84s-2.45-12.51-2.11-16.47a46.18,46.18,0,0,0-3.12-21.2c-3.62-8.5-7.92-18.08-16.86-23.25s-18.59-9.11-26.5-7-14.82-.36-25,6.93S45.21,37.43,38.84,53.29c-3.59,9-.53,16.26-1.21,21.11a54.58,54.58,0,0,0-.12,12.14c.73,10.55,12.39,21.81,12.39,21.81"/><path class="cls-13" d="M46.88,66.56C50.46,56,57.25,44.77,63.44,41.74s14.45-5.93,23.23-5,19.44,4.41,23.23,8.52,8.77,12,9.28,15.95.4,6.18.74,8.45,3.23,16,3.23,16-5.55-13.73-6.1-16.34c-1.18-5.74-5.62-10.54-8.6-13.64-2-2.13-7.89-5.93-7.89-5.93s-2.77-6.19-13.89-5.9c-16.42.43-22.42,8.76-22.42,8.76s-3.07,2.6-4.51,4.15c-3.8,4.12-10,11.67-11.43,18.36a67.64,67.64,0,0,1-2.75,10.08,39.05,39.05,0,0,1,.19-7.09c.23-2.8-.53-6.57,1.13-11.49"/></g></g></svg>