<svg xmlns="http://www.w3.org/2000/svg" viewBox="0 0 174.64 174.54"><defs><style>.cls-1{fill:#856da5;}.cls-2{fill:#666664;}.cls-3{fill:#dcc5a1;}.cls-4{fill:#edd9b4;}.cls-5,.cls-9{fill:#bc9f82;}.cls-5{opacity:0.7;}.cls-6{fill:#483a26;}.cls-7{fill:#84572f;}.cls-8{fill:#ccad8b;}.cls-10{fill:#d9bf9f;}.cls-11{fill:#3b2b16;}.cls-12{fill:#74572d;}.cls-13{fill:#543f26;}</style></defs><title>Ativo 108ac</title><g id="Camada_2" data-name="Camada 2"><g id="Avatares"><rect class="cls-1" width="174.64" height="174.54" rx="39.21"/><path class="cls-2" d="M125.87,95.24a.82.82,0,1,1-.82-.82A.82.82,0,0,1,125.87,95.24Z"/><path class="cls-2" d="M127.72,94.48a.46.46,0,0,1-.45.46.46.46,0,1,1,0-.92A.46.46,0,0,1,127.72,94.48Z"/><path class="cls-2" d="M129.36,93.57a.46.46,0,1,1-.46-.46A.45.45,0,0,1,129.36,93.57Z"/><path class="cls-3" d="M86.92,105.35v69.13H49.2c-.61-.27-.92-.39-.92-.39a65.78,65.78,0,0,1,2.06-17.21c.26-.93.53-1.83.82-2.7,3.36-9.91,9-14.94,13.49-17.47l.11-.05a.06.06,0,0,1,0,0,20,20,0,0,1,6.56-2.4c2.3,0,3.78-2.95,4.75-7.43.16-.69.3-1.4.4-2.16.22-1.27.41-2.61.53-4,.08-.84.16-1.68.24-2.56.34-4.24.45-8.85.45-13.22C77.74,104.85,82.82,105.35,86.92,105.35Z"/><path class="cls-4" d="M125.69,174.09s-.34.12-.9.39H86.92V105.35H87c4.1,0,9.21-.5,9.21-.5,0,4.34.1,8.9.44,13.12l.24,2.51c.16,1.44.31,2.81.53,4.1v0c.08.58.19,1.11.29,1.63,1,4.77,2.51,8,4.89,8a21.23,21.23,0,0,1,8.31,3.45C117.52,142.11,125.69,152,125.69,174.09Z"/><path class="cls-5" d="M97.42,124.59v0A12.2,12.2,0,0,1,87,130.28h0a13.18,13.18,0,0,1-10.4-5.64c.22-1.27.41-2.61.53-4,.08-.84.16-1.68.24-2.56a41.35,41.35,0,0,0,9.53,1.25h.1A40,40,0,0,0,96.65,118c.08.85.16,1.69.24,2.51C97.05,121.92,97.2,123.29,97.42,124.59Z"/><path class="cls-6" d="M62.87,142.85c3,1.23,13.78,6.79,24.05,6.47,21.4-.64,24.9-8.45,24.9-8.45s.89,15.51-3.24,18S94.08,167.6,87,166.94s-18-4.79-18.68-7.27S62.87,142.85,62.87,142.85Z"/><path class="cls-7" d="M123.82,156.88c-.27-.93-.54-1.83-.84-2.7-3.39-9.91-9.1-14.94-13.62-17.47a.27.27,0,0,1-.11-.05s0,0,0,0c-.41.92-4.39,10.33-11.54,16.13-6.87,5.53-10.5,7.36-10.8,7.48-.28-.12-3.92-2-10.78-7.48-7.17-5.8-11.15-15.21-11.55-16.13l-.06,0a.19.19,0,0,1-.1.05c-4.51,2.53-10.22,7.56-13.62,17.47-.3.87-.56,1.77-.83,2.7a65.24,65.24,0,0,0-2.09,17.21s.33.12.94.39H125c.62-.27.94-.39.94-.39A65.28,65.28,0,0,0,123.82,156.88Z"/><path class="cls-8" d="M87,26.05c-39.94,0-40.17,33.33-38.39,55.14C45.88,76,37.78,77.62,38.44,85.76c.64,7.85,12.09,11.91,11.94,11,3.27,18,22.07,28.32,36.64,28.32h.31v-99Z"/><path class="cls-9" d="M41,82.32a3.79,3.79,0,0,1,5.77-1.1,3.29,3.29,0,0,1,.93,3.62c-.28,1-1.38,1.12-1.11,2.71a2.78,2.78,0,0,0,1.59,2.31,3.72,3.72,0,0,1,1.35,1.47,3.82,3.82,0,0,1,.17,2.25c-.29,1.28-2.18.26-3.43-.31a23.12,23.12,0,0,1-4.14-3.35C40.45,88.05,39.67,84.41,41,82.32Z"/><path class="cls-10" d="M87.22,26.05c40,0,40.18,33.33,38.4,55.14,2.75-5.16,10.85-3.57,10.19,4.57-.64,7.85-12.1,11.91-11.94,11-3.27,18-22.07,28.32-36.65,28.32h-.3v-99Z"/><path class="cls-9" d="M133.26,82.32a3.79,3.79,0,0,0-5.77-1.1,3.3,3.3,0,0,0-.94,3.62c.28,1,1.39,1.12,1.12,2.71a2.81,2.81,0,0,1-1.6,2.31,3.72,3.72,0,0,0-1.35,1.47,3.91,3.91,0,0,0-.17,2.25c.3,1.28,2.18.26,3.43-.31a22.72,22.72,0,0,0,4.13-3.35C133.8,88.05,134.58,84.41,133.26,82.32Z"/><path class="cls-3" d="M86.68,35.45c-13.15,0-22.77,3.8-28.59,11.31-8.13,10.49-7.82,26.51-4.83,38,.92,3.51,1.39,13,2,16.46,2.83,15.56,20.05,23.84,31.39,23.84H87V35.46Z"/><path class="cls-4" d="M115.21,46.78C109.43,39.32,99.92,35.52,87,35.46v89.6c12.94-.15,28.41-9.22,31.08-23.83.63-3.47,1.1-13,2-16.46C123.08,73.3,123.37,57.3,115.21,46.78Z"/><path class="cls-11" d="M131.25,43.3c-1.76-2.18-7.53-9.08-9.11-8.73a2.18,2.18,0,0,0-.34.09c-1.74-6.14-3.62,2.11-7.38-4.06-3.88-6.37-6.85-6-19.45-6.37s-15.55-.08-23.64,1.89-12.18,4-16,8.57c0,0-5.11,8.73-5.86,9.57s-10.51,38.33-2,38.53c3.28.08,2.39-4,4.41-3.74,3.73.52,6.65-3.33,12-5S69.31,63.62,70,60.27s11.41-12.1,11.41-12.1,13-4.37,16.35-4.37,13.32,4.37,13.32,4.37.62-.28,1.54-.78a7.66,7.66,0,0,0,1.77,2C118,52,124,63.69,124,65.49c-.09,10-1.41,14-1.79,15.19-2,6.31.85,7.38.85,7.38s-1.27-4.28,6.07-11.84c7.16-7.38,1.27-6.23,2.1-14.11.26-2.35,1.78-16.63,0-18.81"/><path class="cls-12" d="M106.07,46.16c-.71-1-12.69-9.39-21.71-3.13-12.65,8.78-4.13,19.43-19,23.71-8.22,2.38-18.48.32-20.91,3.61s-2.19,4.48-2.64,7,.95,6.09.95,6.09S36.59,76.54,38.47,69c1.54-6.31,4-7.94,6.48-9.45a33.58,33.58,0,0,1,9.36-4c4.3-1,8.18-2.42,8.83-3.12,4.07-4.31,0-8.65,3.8-14.31,3.28-4.83,23.63-14.2,35.82.73a15.07,15.07,0,0,1,3.31,7.32"/><path class="cls-13" d="M106.07,46.16c-.91-.77-14.29-4.17-21.55,4-10.19,11.55.63,19.86-12.75,27.55C64.36,82,53.9,82.46,52.32,86.21s-1,4.89-.89,7.4,2.39,5.7,2.39,5.7-7.67-5.19-7.67-13c0-6.5,2-8.67,4-10.71a33.92,33.92,0,0,1,8.13-6.11c4-2,7.36-4.3,7.83-5.13,2.93-5.15-2.13-8.39.26-14.8,2-5.47,20.2-18,36.53-7.71a9.57,9.57,0,0,1,3.13,4.29"/><path class="cls-11" d="M67.75,25s40.72-19.41,60.78,13.85l1.59,9.6-13-7.32-6-9.51L98.94,24.83l-15.33.54Z"/><path class="cls-11" d="M111.11,48.17s13.64,9.33,11.8,29.89l4.57-7.46-4.07-16.09-2.74-8.69S116.08,40.21,111.11,48.17Z"/></g></g></svg>