<svg xmlns="http://www.w3.org/2000/svg" viewBox="0 0 175 174.93"><defs><style>.cls-1{fill:#3c4c82;}.cls-2{fill:#dcc5a1;}.cls-3{fill:#edd9b4;}.cls-4,.cls-8{fill:#bc9f82;}.cls-4{opacity:0.7;}.cls-5{fill:none;}.cls-6{fill:#444e53;}.cls-7{fill:#ccad8b;}.cls-9{fill:#d9bf9f;}</style></defs><title>Ativo 160ac</title><g id="Camada_2" data-name="Camada 2"><g id="Avatares"><rect class="cls-1" width="175" height="174.93" rx="39.41"/><path class="cls-2" d="M87.48,102.57v72.15H48.12l-1-.42c0-38.7,24.09-41.58,24.09-41.58,1.82,0,3.18-1.79,4.14-4.7a27.32,27.32,0,0,0,.83-3.06c.16-.71.3-1.45.41-2.25.23-1.32.42-2.73.56-4.19.08-.88.16-1.75.25-2.66.36-4.43.46-9.24.46-13.81C77.9,102.05,83.21,102.57,87.48,102.57Z"/><path class="cls-3" d="M127.94,174.3l-.93.42H87.48V102.57h.08c4.28,0,9.61-.52,9.61-.52,0,4.54.11,9.3.47,13.7.08.88.16,1.76.25,2.61.17,1.51.33,3,.55,4.29v0c.08.61.19,1.15.31,1.71a25.68,25.68,0,0,0,1,3.65c1,2.92,2.34,4.68,4.14,4.68C103.85,132.72,127.94,135.6,127.94,174.3Z"/><path class="cls-4" d="M98.44,122.66v0a12.75,12.75,0,0,1-10.91,5.92h0c-6.26,0-9.91-4.57-10.85-5.89.22-1.32.42-2.72.56-4.18.08-.89.16-1.76.24-2.67a43.13,43.13,0,0,0,9.94,1.29h.11a40.78,40.78,0,0,0,10.15-1.4c.09.88.17,1.76.25,2.61C98.05,119.89,98.22,121.32,98.44,122.66Z"/><path class="cls-5" d="M72.21,76.76a39.55,39.55,0,0,0-4.7-.33,40.77,40.77,0,0,1,4.49.33c2.5.32,8.31,1.55,8.89,3.65A15.23,15.23,0,0,1,81,87.87c-2,9.31-9.42,11.49-15,11.6,5.58-.06,13.14-2.17,15.2-11.6a15.1,15.1,0,0,0-.08-7.46C80.53,78.31,74.71,77.08,72.21,76.76Z"/><path class="cls-5" d="M94.78,87.87a15.46,15.46,0,0,1,.08-7.46c.58-2.1,6.4-3.33,8.9-3.65a40.59,40.59,0,0,1,4.5-.33,38.47,38.47,0,0,0-4.65.33c-2.5.32-8.31,1.55-8.88,3.65a15,15,0,0,0-.09,7.46c2,9.41,9.57,11.53,15.15,11.6C104.23,99.37,96.82,97.19,94.78,87.87Z"/><path class="cls-6" d="M127.88,93.93s-2.34-3-.95-21.85a79.86,79.86,0,0,0-1.5-20.58c.14.55-13.55,27.56-13.55,27.56-.47,7.56-.86,14.92-.95,20l-2.29-3.91a77.67,77.67,0,0,0-2.23,9c0,.14,0,.29,0,.44L99,97.29s0,4.2.38,8.18L94.9,101s0,10.82,1.53,14.2c1.68,3.81.17,14.36.17,14.36a31,31,0,0,0,4.52-7.82c-.18,2.34-.43,4.09-.43,4.09A32.79,32.79,0,0,0,106.57,114c.1,1.63.19,3.26.22,4.87A31.52,31.52,0,0,1,105,129a44.5,44.5,0,0,0,6.15-14.46c.39,6.62,1.35,11.42,3.36,14-.27-.46-1.28-2.62-1-8.24.1-2.52.34-5.26.64-8a21.86,21.86,0,0,0,6.17,11.09,37.27,37.27,0,0,1-2.38-17.67c.23-2,.41-3.7.56-5.26a53.42,53.42,0,0,0,1,9,34.35,34.35,0,0,0,5.14,12.67s-3.32-7.32-.29-27.16a34.93,34.93,0,0,0,.16-6.1C126.38,93.27,127.88,93.93,127.88,93.93Z"/><path class="cls-6" d="M46.83,92.82s2.35-3,1-21.85a79.6,79.6,0,0,1,1.49-20.58C49.14,50.93,62.83,78,62.83,78c.48,7.55.86,14.92,1,20l2.29-3.91a78.47,78.47,0,0,1,2.23,9c0,.15,0,.3,0,.45l7.39-7.34s0,4.2-.39,8.18l4.48-4.44s0,10.82-1.54,14.2c-1.68,3.81-.16,14.36-.16,14.36a30.91,30.91,0,0,1-4.53-7.82c.18,2.32.44,4.08.44,4.08a32.83,32.83,0,0,1-5.9-11.86c-.09,1.63-.18,3.26-.2,4.87a31.64,31.64,0,0,0,1.81,10.08,44.24,44.24,0,0,1-6.14-14.45c-.4,6.62-1.35,11.42-3.37,14,.27-.46,1.28-2.63,1-8.25-.11-2.52-.34-5.26-.65-8a21.72,21.72,0,0,1-6.17,11.09,37.21,37.21,0,0,0,2.38-17.66c-.23-2-.41-3.7-.55-5.26a54.56,54.56,0,0,1-1.05,9,34.25,34.25,0,0,1-5.13,12.67s3.32-7.33.28-27.16a37,37,0,0,1-.16-6.1C48.33,92.16,46.83,92.82,46.83,92.82Z"/><path class="cls-7" d="M87.27,19.84c-41.7,0-41.93,34.78-40.08,57.54-2.85-5.4-11.31-3.73-10.62,4.77C37.23,90.34,49.18,94.57,49,93.62c3.41,18.73,23,29.55,38.25,29.55h.32V19.84Z"/><path class="cls-8" d="M39.23,78.56a4,4,0,0,1,6-1.15,3.39,3.39,0,0,1,1,3.77c-.28,1.09-1.44,1.18-1.15,2.84a2.92,2.92,0,0,0,1.66,2.41A3.76,3.76,0,0,1,48.14,88a4,4,0,0,1,.18,2.34C48,91.65,46,90.58,44.73,90a24.61,24.61,0,0,1-4.31-3.49C38.66,84.53,37.85,80.74,39.23,78.56Z"/><path class="cls-9" d="M87.47,19.84c41.7,0,41.94,34.78,40.08,57.54,2.86-5.4,11.32-3.73,10.62,4.77-.67,8.19-12.62,12.42-12.45,11.47-3.42,18.73-23,29.55-38.25,29.55h-.32V19.84Z"/><path class="cls-8" d="M135.51,78.56a4,4,0,0,0-6-1.15,3.43,3.43,0,0,0-1,3.77c.3,1.09,1.45,1.18,1.17,2.84A2.93,2.93,0,0,1,128,86.43,3.88,3.88,0,0,0,126.6,88a4.13,4.13,0,0,0-.18,2.34c.31,1.35,2.28.28,3.59-.32a24.67,24.67,0,0,0,4.32-3.49C136.08,84.53,136.89,80.74,135.51,78.56Z"/><path class="cls-2" d="M86.91,29.64c-13.72,0-23.77,4-29.84,11.81-8.48,10.94-8.16,27.66-5,39.66,1,3.67,1.44,13.56,2.11,17.19,3,16.23,20.93,24.87,32.76,24.87h.32V29.65Z"/><path class="cls-3" d="M116.68,41.47c-6-7.79-16-11.76-29.45-11.82v93.51c13.51-.15,29.66-9.62,32.43-24.86.66-3.63,1.15-13.52,2.11-17.19C124.89,69.15,125.2,52.45,116.68,41.47Z"/><path class="cls-6" d="M102,111.07h0a1.17,1.17,0,0,1,0-.11,13.6,13.6,0,0,0-.67-2.1,10.4,10.4,0,0,0-.63-1.15,17.43,17.43,0,0,0-6.9-8A7.38,7.38,0,0,0,92.37,99c-.4-.16-.67-.25-.75-.27h-.06a16.21,16.21,0,0,0-4.18-.41,16.2,16.2,0,0,0-4.19.41h-.06c-.08,0-.35.11-.75.27A7.46,7.46,0,0,0,81,99.7a17.54,17.54,0,0,0-6.9,8,10.37,10.37,0,0,0-.62,1.15,11.74,11.74,0,0,0-.67,2.1,1.17,1.17,0,0,1,0,.11h0a14.75,14.75,0,0,0-.39,3.4,14.14,14.14,0,0,0,1.16,5.76c.69,4,6.6,13.1,13.81,13.23,7.2-.13,13.11-9.2,13.8-13.23a14.14,14.14,0,0,0,1.15-5.76A15.33,15.33,0,0,0,102,111.07Zm-4,8.42a20.34,20.34,0,0,1-7.38,2.13,8.56,8.56,0,0,0,.26-2.07v-2.49a8.49,8.49,0,0,0-.43-2.64,18,18,0,0,0-6.09,0,8.49,8.49,0,0,0-.43,2.64v2.49a9.1,9.1,0,0,0,.25,2.07,20.46,20.46,0,0,1-7.38-2.13,14.73,14.73,0,0,1-.7-7.22,15.09,15.09,0,0,1,3.84-2.11,20.91,20.91,0,0,1,14.69,0,31.67,31.67,0,0,1,4,1.75,15.64,15.64,0,0,1,.21,2.51A14.22,14.22,0,0,1,98,119.49Z"/></g></g></svg>