<svg xmlns="http://www.w3.org/2000/svg" viewBox="0 0 174.99 175.43"><defs><style>.cls-1{fill:#895a59;}.cls-2{fill:#dcc5a1;}.cls-3{fill:#edd9b4;}.cls-4,.cls-7{fill:#bc9f82;}.cls-4{opacity:0.7;}.cls-5{fill:#fff;}.cls-6{fill:#ccad8b;}.cls-8{fill:#d9bf9f;}.cls-9{fill:#b47070;}.cls-10{fill:#c17874;}.cls-11{fill:#010400;}</style></defs><title>Ativo 143ac</title><g id="Camada_2" data-name="Camada 2"><g id="Avatares"><rect class="cls-1" width="174.99" height="174.92" rx="39.35"/><path class="cls-2" d="M93.8,107.16v68.27H56.56l-.89-.39a72.09,72.09,0,0,1,.4-7.91,52.87,52.87,0,0,1,.91-6c.23-1.18.49-2.26.8-3.33a39,39,0,0,1,3.74-9.14.37.37,0,0,1,.11-.18,28.86,28.86,0,0,1,4.72-6.16v0a25.11,25.11,0,0,1,3.58-3,23.34,23.34,0,0,1,5.75-3h0a15.81,15.81,0,0,1,2.75-.68h.18c.15,0,.33-.05.5-.1,1-.29,1.9-1.28,2.6-2.79a14.52,14.52,0,0,0,1-2.79c.15-.52.28-1.09.42-1.67s.28-1.37.39-2.13c0-.36.12-.7.15-1.09.37.16.84.34,1.36.52v-5h-.83c0-.31,0-.65.07-1,.27-3.34.4-6.88.42-10.37,0-.9,0-1.82,0-2.7C84.73,106.67,89.75,107.16,93.8,107.16Z"/><path class="cls-3" d="M132.08,175a2.05,2.05,0,0,0-.25.1c-.16.08-.37.16-.63.29H93.8V107.16h.08c4,0,9.09-.49,9.09-.49,0,4.29.13,8.8.45,13,0,.37.07.73.09,1.06.06.48.08,1,.14,1.41s.08.71.12,1c.14,1,.27,2.06.42,3v0c.06.57.16,1.09.26,1.61.16.79.34,1.51.53,2.21.76,2.68,1.75,4.61,3.08,5.36a2.3,2.3,0,0,0,.39.16,2.17,2.17,0,0,0,.84.16,17,17,0,0,1,3.84,1.09,23.85,23.85,0,0,1,4.67,2.55,26.75,26.75,0,0,1,4.68,4.11,29.85,29.85,0,0,1,3.68,5.08,39.07,39.07,0,0,1,3.84,9.29,55.53,55.53,0,0,1,1.67,9.32,13.41,13.41,0,0,1,.16,1.42Q132.08,171.61,132.08,175Z"/><path class="cls-4" d="M104.18,126.17v0a12.08,12.08,0,0,1-10.32,5.6H93.8a12.92,12.92,0,0,1-10.25-5.58c.21-1.24.38-2.57.52-3.95.07-.84.15-1.67.23-2.52A40.79,40.79,0,0,0,93.7,121h.1a38.2,38.2,0,0,0,9.62-1.33c.08.84.16,1.67.23,2.47C103.81,123.53,104,124.89,104.18,126.17Z"/><path class="cls-5" d="M117.8,139.33a23.85,23.85,0,0,0-4.67-2.55c-23.21,40.68-46.78,5.55-46.78,5.55-3.79,3.74-7.5,9.63-9.37,18.81v14.29h65.5v-32A26.75,26.75,0,0,0,117.8,139.33Z"/><path class="cls-6" d="M93.78,33.8c-38.87-.07-39.09,31.05-37.37,51.35-2.67-4.76-10.55-3-9.9,4.63.62,7.31,11.76,10.62,11.61,9.81,3.18,16.53,21.5,25.72,35.66,27h.3V33.81Z"/><path class="cls-7" d="M48.46,86.56a3.87,3.87,0,0,1,5.7-1,3,3,0,0,1,.92,3.39c-.27,1-1.36,1.06-1.1,2.55a2.68,2.68,0,0,0,1.58,2.16A3.63,3.63,0,0,1,56.9,95a3.57,3.57,0,0,1,.17,2.1c-.31,1.21-2.16.25-3.41-.28a24.54,24.54,0,0,1-4.08-3.14C47.92,91.92,47.16,88.52,48.46,86.56Z"/><path class="cls-8" d="M94,33.8c38.87-.07,39.09,31.05,37.36,51.35,2.67-4.76,10.56-3,9.91,4.63-.62,7.31-11.76,10.62-11.6,9.81-3.19,16.53-21.5,25.72-35.67,27h-.3V33.81Z"/><path class="cls-7" d="M139.56,86.56a3.85,3.85,0,0,0-5.69-1,3,3,0,0,0-.93,3.39c.28,1,1.37,1.06,1.1,2.55a2.65,2.65,0,0,1-1.58,2.16A3.54,3.54,0,0,0,131.13,95a3.66,3.66,0,0,0-.18,2.1c.3,1.21,2.16.25,3.41-.28a24.14,24.14,0,0,0,4.08-3.14C140.1,91.92,140.86,88.52,139.56,86.56Z"/><path class="cls-2" d="M93.57,42.61c-13,0-22.48,3.57-28.23,10.61-8,9.83-7.72,24.85-4.76,35.63.9,3.3,1.37,12.18,2,15.45,2.8,14.58,19.8,22.34,31,22.34h.3v-84Z"/><path class="cls-3" d="M121.75,53.23c-5.71-7-15.1-10.55-27.88-10.61v84c12.79-.13,28.07-8.64,30.69-22.33.62-3.27,1.09-12.15,2-15.45C129.51,78.1,129.8,63.1,121.75,53.23Z"/><path class="cls-9" d="M100.41,113.46s-2.94,3.13-6.55,3.13-6.38-3.06-6.38-3.06a41.32,41.32,0,0,1,6.38-.48A52.93,52.93,0,0,1,100.41,113.46Z"/><path class="cls-10" d="M95.71,112a1.69,1.69,0,0,0-1.85,1.42A1.7,1.7,0,0,0,92,112a26.42,26.42,0,0,0-4.7,1.44s3.59.38,4.61.38,1.93.39,2-.36c0,.77.75.47,1.77.47s4.78-.49,4.78-.49A26.15,26.15,0,0,0,95.71,112Z"/><path class="cls-11" d="M132.51,56.54a53.93,53.93,0,0,0-3.44-13.77c-3.77-8.4-11.54-12-23.81-17.05-10.92-4.54-14.9-2.22-26.23.5A8,8,0,0,0,78,24c-3.42-4.95-11.74-5.17-18.58-.48S49.78,36,53.21,40.94a8.46,8.46,0,0,0,2.93,2.58A44.28,44.28,0,0,0,52.6,55c-.07.53-.14,1-.22,1.55-1.5,11.13-.08,15.72,1.17,18.2a18.72,18.72,0,0,1,1.3,2.64c.65,2.64.26,3.5,1.57,6.29.85.76,3,1.8,3.7,3.63,1.19,3.14,1.64,2.61,1.64,2.61s-1.67-11.09-1.84-15.17a4.51,4.51,0,0,1,0-.61c0-2,.9-11.89,7.38-17.59a9.67,9.67,0,0,1,1-.82c5.46-4.13,14.77-2.38,15.8-2.38.2,0,2.32,1.65,5.36,3.2s6.74,2.94,10.49,2.76c23.26-1.19,28.15,11.46,28.67,14.1,0,.43-.07.89-.1,1.34-.28,3.27-.63,7.08-.87,9.64-.43,3-.8,5.53-.8,5.53s.47.53,1.65-2.61c.57-1.55,2.52-2.51,3.27-3.25a60.59,60.59,0,0,1,.84-6.67,10.38,10.38,0,0,0,.55-2.64,48.47,48.47,0,0,0,.45-6A103.72,103.72,0,0,0,132.51,56.54Z"/></g></g></svg>