<svg xmlns="http://www.w3.org/2000/svg" xmlns:xlink="http://www.w3.org/1999/xlink" viewBox="0 0 174.37 172.32"><defs><style>.cls-1{fill:none;}.cls-2{fill:#f8f7e0;}.cls-3{fill:#dcc5a1;}.cls-4{fill:#edd9b4;}.cls-5{clip-path:url(#clip-path);}.cls-6{fill:#bc9f82;}.cls-7{fill:#b44175;}.cls-8{fill:#ccad8b;}.cls-9{fill:#d9bf9f;}.cls-10{fill:#b47070;}.cls-11{fill:#c17874;}.cls-12{fill:#444e53;}</style><clipPath id="clip-path"><rect class="cls-1" x="75.48" y="112.71" width="22.29" height="12.98"/></clipPath></defs><title>Ativo 89ac</title><g id="Camada_2" data-name="Camada 2"><g id="Avatares"><path class="cls-2" d="M135.2,172.31h-96A39,39,0,0,1,0,133.59V38.72A39,39,0,0,1,39.17,0h96a39,39,0,0,1,39.17,38.72v94.87A39,39,0,0,1,135.2,172.31Z"/><path class="cls-3" d="M86.58,99.37v72.95H46.32l-1-.43a72.12,72.12,0,0,1,.53-9.16C49.34,132.3,70,129.85,70,129.85h.2a5.17,5.17,0,0,0,.54-.11c2-.55,3.42-3.51,4.35-7.74a2.39,2.39,0,0,0,.07-.35l.16-.72c.06-.4.13-.78.19-1.21.22-1.33.43-2.76.57-4.23.07-.88.15-1.78.25-2.69.36-4.48.47-9.34.47-14,0,0,5.42.53,9.81.53"/><path class="cls-4" d="M127.94,171.91a8.51,8.51,0,0,0-1,.41H86.58V99.37h.08c4.36,0,9.82-.53,9.82-.53,0,4.59.11,9.4.47,13.85.09.89.17,1.79.26,2.65.16,1.52.33,3,.56,4.34h0c.09.63.2,1.18.31,1.73.86,4.09,2.09,7.1,3.9,8.09a2.85,2.85,0,0,0,.42.17,2.52,2.52,0,0,0,.9.17s24.64,2.91,24.64,42.06"/><g class="cls-5"><path class="cls-6" d="M97.77,119.68v0a13.07,13.07,0,0,1-11.15,6h-.06a14,14,0,0,1-11.08-6c.22-1.33.41-2.76.55-4.23.09-.89.17-1.79.27-2.69a44.84,44.84,0,0,0,10.15,1.3h.11A42.54,42.54,0,0,0,97,112.71c.09.89.16,1.77.25,2.63.17,1.54.34,3,.57,4.34"/></g><path class="cls-7" d="M89.4,145.4v.47c-.07,7.73-.13,22.07-.14,26.45H53.67l-.77-9.18s-4.57-.3-7-.41c-.11,0-.34-.46-.56-1.21a4,4,0,0,1-.2-.72c-1.19-4.39-2.59-15.52,2.68-23.64,1.74-2.67,7.4-4.08,7.4-4.08s3.39-2.37,9.62-2.87c3.59-.27,5.12-.3,6-.81a1.76,1.76,0,0,0,.56-.44,5.88,5.88,0,0,0,.85-1.34A34.43,34.43,0,0,0,74,122.89c.12-.35.2-.69.32-1v0c.19-.58.36-.93.53-.93h.43l-.16.72a10.39,10.39,0,0,0,4.41,4c3.2,1.66,4.26,1.47,5.66,4.17.9,1.79,1.26,5.5,1.38,8.18,0,.61.06,1.16.06,1.64,0,.29,0,.55,0,.78s0,.32,0,.43c0,.26,2.47,1.79,2.73,4.09a2.12,2.12,0,0,1,0,.43"/><path class="cls-7" d="M127.24,162.73c-2.46.1-7,.41-7,.41l-.76,9.18H83.86c0-3.71-.06-14.56-.12-22.48V149c0-1.31,0-2.54,0-3.58,0-2.53,2.77-4.23,2.77-4.52s0-1.5,0-2.85c.12-2.68.48-6.39,1.39-8.18,1.38-2.7,2.46-2.51,5.65-4.17a10.15,10.15,0,0,0,4.39-4l-.15-.72h.44c.5,0,1.14,3.72,2.59,6.69a6.66,6.66,0,0,0,.85,1.34,1.87,1.87,0,0,0,.54.44c.93.51,2.45.54,6.07.81,6.23.5,9.59,2.87,9.59,2.87s5.69,1.41,7.42,4.08c6.69,10.32,2.63,25.49,1.93,25.57"/><polygon class="cls-2" points="78.64 143.67 78.23 143.09 73.72 146.14 69.23 143.09 68.83 143.67 73.11 146.56 68.83 149.46 69.23 150.03 73.72 146.97 78.23 150.03 78.64 149.46 74.35 146.56 78.64 143.67"/><polygon class="cls-2" points="106.49 143.67 106.09 143.09 101.59 146.14 97.09 143.09 96.68 143.67 100.96 146.56 96.68 149.46 97.09 150.03 101.59 146.97 106.09 150.03 106.49 149.46 102.21 146.56 106.49 143.67"/><polygon class="cls-2" points="96.76 154.82 92.24 159.07 87.59 154.82 83.07 159.07 78.44 154.82 73.48 159.45 73.97 159.96 78.44 155.79 83.02 159.96 83.07 159.91 83.13 159.96 87.59 155.79 92.18 159.96 92.24 159.91 92.31 159.96 96.77 155.79 101.35 159.96 101.82 159.45 96.76 154.82"/><path class="cls-8" d="M86.53,21c-42-.07-42.24,33.19-40.37,54.87-2.89-5.1-11.41-3.2-10.72,5C36.13,88.62,48.16,92.15,48,91.29c3.43,17.67,23.22,27.49,38.53,28.89h.31V21h-.31"/><path class="cls-6" d="M37.56,77.37a4.21,4.21,0,0,1,6.17-1.1,3.17,3.17,0,0,1,1,3.62c-.29,1-1.47,1.12-1.19,2.71a2.87,2.87,0,0,0,1.72,2.33,3.64,3.64,0,0,1,1.44,1.47,3.79,3.79,0,0,1,.18,2.24c-.32,1.29-2.34.28-3.68-.31A25.17,25.17,0,0,1,38.77,85c-1.79-1.88-2.62-5.52-1.21-7.61"/><path class="cls-9" d="M86.75,21c42-.07,42.24,33.19,40.37,54.87,2.89-5.1,11.4-3.2,10.69,5-.66,7.81-12.7,11.34-12.52,10.48-3.44,17.67-23.24,27.49-38.54,28.89h-.33V21h.33"/><path class="cls-6" d="M136,77.37a4.2,4.2,0,0,0-6.16-1.1,3.17,3.17,0,0,0-1,3.62c.3,1,1.48,1.12,1.19,2.71a2.89,2.89,0,0,1-1.71,2.33,3.64,3.64,0,0,0-1.44,1.47,3.79,3.79,0,0,0-.18,2.24c.32,1.29,2.33.28,3.67-.31A24.87,24.87,0,0,0,134.81,85c1.78-1.88,2.6-5.52,1.21-7.61"/><path class="cls-3" d="M86.31,30.41c-14,0-24.29,3.8-30.51,11.33-8.68,10.51-8.34,26.56-5.14,38.08,1,3.52,1.48,13,2.16,16.49,3,15.59,21.39,23.88,33.49,23.88h.33V30.42h-.33"/><path class="cls-4" d="M116.75,41.75c-6.17-7.47-16.31-11.27-30.1-11.33v89.76C100.46,120,117,111,119.81,96.31c.68-3.48,1.17-13,2.16-16.49,3.19-11.49,3.5-27.52-5.22-38.07"/><path class="cls-10" d="M93.69,106.12s-3.15,3.33-7.07,3.33-6.89-3.26-6.89-3.26a45.33,45.33,0,0,1,6.89-.51,57,57,0,0,1,7.07.44"/><path class="cls-11" d="M88.63,104.58a1.82,1.82,0,0,0-2,1.51,1.81,1.81,0,0,0-2-1.51c-1.11,0-5.08,1.54-5.08,1.54s3.87.39,5,.39,2.08.43,2.1-.38c0,.81.81.49,1.92.49s5.15-.5,5.15-.5-4-1.54-5.06-1.54"/><path class="cls-12" d="M129.05,48.64c-.5-1.49-1-2.88-1.58-4.22v-.58c0-5.64-5-13-12.9-20.09S101.66,18.1,95.1,18.3l0,.12c-2.88-.62-18.38-3.7-27.59-.29C57.28,21.9,48.94,28.37,43.05,45.74S42,77.35,43.14,83.42c3.61,19.23,21,31.4,21,31.4a42,42,0,0,1-6.34-10.26A56.05,56.05,0,0,1,54,83.72c0-10,9.9-22.48,9.9-22.48A46.78,46.78,0,0,0,58.4,77.62a24.11,24.11,0,0,0,3.88,15.22S56.22,81.7,65.91,73.37a64.72,64.72,0,0,0,7.74-7.93v0C71.21,72,76.1,77.56,76.1,77.56s-.1-8.43,5-11.3c12.32-7,14.27-9.87,16-15.48a12.91,12.91,0,0,0,.46-2.16l11.25,16.25c.53.7,1.39,1.9,2.39,3.44,2.92,4.51,7,11.89,7,18.31a56.05,56.05,0,0,1-3.79,20.84A42.28,42.28,0,0,1,108,117.72s17.35-12.18,21-31.4C130.1,80.25,134.94,66,129.05,48.64Z"/></g></g></svg>