<svg xmlns="http://www.w3.org/2000/svg" viewBox="0 0 175 176.24"><defs><style>.cls-1{fill:#442c38;}.cls-2{fill:#fff;}.cls-3{fill:#dcc5a1;}.cls-4{fill:#edd9b4;}.cls-5,.cls-8{fill:#bc9f82;}.cls-5{opacity:0.7;}.cls-6{fill:#751819;}.cls-7{fill:#ccad8b;}.cls-9{fill:#d9bf9f;}.cls-10{fill:#b47070;}.cls-11{fill:#c17874;}</style></defs><title>Ativo 135ac</title><g id="Camada_2" data-name="Camada 2"><g id="Avatares"><rect class="cls-1" width="175" height="175.27" rx="39.55"/><path class="cls-2" d="M121.26,119.69c4.49-14.88,8.3-16.37,8.32-25.7l-1.37-14.16c-2.46-12.17-10.78-23.91-18.69-28.94a25.25,25.25,0,0,0-8.46-3.06c0-.2,0-.32,0-.32a49.52,49.52,0,0,0-10.16-.69,49.59,49.59,0,0,0-10.16.69s0,.12,0,.32a25.27,25.27,0,0,0-8.45,3.06c-7.91,5-16.24,16.77-18.69,28.94L52.26,94c0,9.33,3.83,10.82,8.34,25.7,3.72,12.36-3.77,10.95-3.77,10.95S68.27,139.2,67,94.8a10.67,10.67,0,0,1,2.29-6,4.6,4.6,0,0,0,.35.59A10.81,10.81,0,0,0,72,92a46.08,46.08,0,0,0-3.91,11.25L66.7,117.37c0,9.32,3.83,10.82,8.32,25.7C78.74,155.43,71.27,154,71.27,154s11.42,8.56,10.14-35.83c-.12-4.12,4.34-9.19,9.51-13.65,5.17,4.46,9.64,9.53,9.52,13.65C99.16,162.57,110.59,154,110.59,154s-7.48,1.42-3.75-10.94a94.41,94.41,0,0,1,3.85-10.55c3,9.28,7.76,5.75,7.76,5.75s-7.48,1.41-3.74-10.94c.6-2,1.19-3.75,1.76-5.33,2.91,12.85,8.54,8.64,8.54,8.64S117.54,132.05,121.26,119.69Z"/><path class="cls-3" d="M90.19,108v68.26H52.94c-.6-.28-.91-.39-.91-.39,0-8.56,1.22-15.25,3.16-20.5,4.38-12.11,12.27-16.53,16.6-18.07a16.17,16.17,0,0,1,3-.8H75a4.48,4.48,0,0,0,.5-.11c1.25-.33,2.25-1.69,3-3.75a22.19,22.19,0,0,0,1-3.46q.23-1,.39-2.13c.21-1.27.39-2.58.52-4,.08-.81.16-1.65.24-2.51.34-4.21.44-8.77.44-13.06C81.12,107.48,86.13,108,90.19,108Z"/><path class="cls-4" d="M128.47,175.85a6.83,6.83,0,0,0-.89.39H90.19V108h.08c4,0,9.08-.5,9.08-.5,0,4.27.11,8.77.45,12.94.07.83.15,1.66.23,2.49.16,1.41.31,2.8.52,4v0c.08.55.19,1.09.29,1.58a25.05,25.05,0,0,0,1.34,4.62h0a5.79,5.79,0,0,0,2.24,3,2.76,2.76,0,0,0,.4.18,2.83,2.83,0,0,0,.83.14,12.92,12.92,0,0,1,1.83.38c4.13,1.23,14.18,5.66,18.7,21.14a57.76,57.76,0,0,1,2.17,13.87C128.45,173.15,128.47,174.47,128.47,175.85Z"/><path class="cls-5" d="M100.53,127v0a12,12,0,0,1-10.31,5.59h0A13,13,0,0,1,79.91,127c.21-1.25.38-2.58.52-4,.07-.83.16-1.67.23-2.53a41.48,41.48,0,0,0,9.4,1.23h.11a39,39,0,0,0,9.61-1.33c.08.83.16,1.66.24,2.47C100.17,124.34,100.33,125.7,100.53,127Z"/><path class="cls-6" d="M119.28,158.39c-5.33-9.06-9.06-15.47-10.71-21.11a16,16,0,0,0-3-.8h-.19c-.14,0-.33-.06-.49-.11-1.25-.33-2.25-1.69-3-3.75a12.27,12.27,0,0,1-2.59,1c-3.31.95-8.9,2.34-8.9,2.34a134.07,134.07,0,0,1,5.41,13.41c2.19,6.37-1.31,11.17-5.56,11.35-4.27-.18-7.76-5-5.57-11.35A135.72,135.72,0,0,1,90,135.92s-5.58-1.39-8.9-2.34a12.71,12.71,0,0,1-2.59-1c-.77,2.06-1.77,3.42-3,3.75a4.48,4.48,0,0,1-.5.11h-.18a16.17,16.17,0,0,0-3,.8c-1.63,5.64-5.37,12.05-10.7,21.11-3,5-.9,14,.81,17.85h56.57C120.18,172.76,122.23,163.41,119.28,158.39Z"/><path class="cls-7" d="M90.14,34.61C51.27,34.53,51.05,65.66,52.78,86c-2.68-4.76-10.56-3-9.91,4.63.62,7.3,11.76,10.61,11.61,9.81,3.18,16.54,21.5,25.72,35.66,27h.3V34.62Z"/><path class="cls-8" d="M44.82,87.37a3.86,3.86,0,0,1,5.7-1,3,3,0,0,1,.92,3.38c-.27,1-1.36,1.06-1.1,2.55a2.67,2.67,0,0,0,1.58,2.17,3.54,3.54,0,0,1,1.33,1.38,3.42,3.42,0,0,1,.18,2.1c-.3,1.21-2.16.25-3.41-.28A23.63,23.63,0,0,1,46,94.49C44.29,92.73,43.52,89.33,44.82,87.37Z"/><path class="cls-9" d="M90.34,34.61C129.2,34.53,129.43,65.66,127.7,86c2.67-4.76,10.55-3,9.9,4.63-.62,7.3-11.75,10.61-11.6,9.81-3.18,16.54-21.5,25.72-35.66,27H90V34.62Z"/><path class="cls-8" d="M135.92,87.37a3.85,3.85,0,0,0-5.69-1,3,3,0,0,0-.93,3.38c.28,1,1.37,1.06,1.11,2.55a2.65,2.65,0,0,1-1.58,2.17,3.63,3.63,0,0,0-1.34,1.38,3.57,3.57,0,0,0-.17,2.1c.3,1.21,2.16.25,3.4-.28a23.38,23.38,0,0,0,4.09-3.15C136.46,92.73,137.23,89.33,135.92,87.37Z"/><path class="cls-3" d="M89.94,43.42C77,43.42,67.45,47,61.7,54c-8,9.83-7.72,24.85-4.76,35.63.9,3.3,1.37,12.18,2,15.44,2.8,14.58,19.8,22.35,31,22.35h.3v-84Z"/><path class="cls-4" d="M118.11,54c-5.71-7-15.1-10.56-27.87-10.61v84c12.78-.14,28.06-8.64,30.69-22.34.62-3.26,1.09-12.14,2-15.44C125.88,78.91,126.17,63.91,118.11,54Z"/><path class="cls-10" d="M96.77,114.27s-2.93,3.12-6.55,3.12-6.38-3.06-6.38-3.06a43.07,43.07,0,0,1,6.38-.46A54,54,0,0,1,96.77,114.27Z"/><path class="cls-11" d="M92.07,112.82a1.7,1.7,0,0,0-1.85,1.42,1.7,1.7,0,0,0-1.85-1.42,25.87,25.87,0,0,0-4.69,1.45s3.57.38,4.6.38,1.92.39,1.94-.36c0,.76.76.47,1.77.47s4.78-.49,4.78-.49A25.76,25.76,0,0,0,92.07,112.82Z"/><path class="cls-2" d="M113.86,52c-2.9,4.74-2.09,10.09-11.91,13.6S87.73,70.1,77,74.33c-24.27,9.6-11.8,31.85-11.8,31.85s-6.65-5.73-9.07-11.69-11.71-31.9,0-52.41C62.59,30.82,74.5,28.23,84.94,27.47s17.92,0,25.47,6.15c1.65,1.33,6.37,1.63,11.55,4.87,11.59,7.24,10.64,17.92,11.14,24.74a45.81,45.81,0,0,1-3,20.88c-2.26,6-15.91,23.55-15.91,23.55s10.62-21.49,4.72-35.46c-3.45-8.19-9.63-7.72-9.89-10.9S113.86,52,113.86,52Z"/></g></g></svg>