<svg xmlns="http://www.w3.org/2000/svg" viewBox="0 0 174.4 174.42"><defs><style>.cls-1{fill:#7fa5ad;}.cls-2{fill:#dcc5a1;}.cls-3{fill:#edd9b4;}.cls-4,.cls-8{fill:#bc9f82;}.cls-4{opacity:0.7;}.cls-5{fill:#771819;}.cls-6{fill:#fdfdfd;}.cls-7{fill:#ccad8b;}.cls-9{fill:#d9bf9f;}.cls-10{fill:#422e14;}</style></defs><title>Ativo 121ac</title><g id="Camada_2" data-name="Camada 2"><g id="Avatares"><rect class="cls-1" width="174.4" height="174.32" rx="39.26"/><path class="cls-2" d="M85.84,110.3v64.12h-35l-.86-.37c0-34.39,21.41-37,21.41-37,2.14,0,3.51-2.74,4.42-6.89.15-.63.26-1.3.37-2,.2-1.17.36-2.42.48-3.71.08-.78.15-1.56.23-2.37.32-3.93.41-8.21.41-12.27C77.32,109.84,82,110.3,85.84,110.3Z"/><path class="cls-3" d="M121.79,174.05s-.31.12-.83.37H85.84V110.3h.07c3.8,0,8.54-.46,8.54-.46,0,4,.1,8.26.41,12.17.08.79.15,1.56.22,2.33.15,1.34.3,2.61.49,3.81v0c.08.54.17,1,.28,1.51.9,4.43,2.33,7.41,4.53,7.41C100.38,137.09,121.79,139.66,121.79,174.05Z"/><path class="cls-4" d="M95.57,128.15v0a11.3,11.3,0,0,1-9.69,5.25h0a12.17,12.17,0,0,1-9.64-5.23c.2-1.17.36-2.42.48-3.71.08-.78.15-1.56.23-2.37a37.79,37.79,0,0,0,8.83,1.14h.1a35.79,35.79,0,0,0,9-1.24c.08.79.15,1.56.22,2.33C95.23,125.68,95.38,127,95.57,128.15Z"/><path class="cls-5" d="M101.21,137.27a2.51,2.51,0,0,1-1.34-.8,26.08,26.08,0,0,0-2.51-3.39,1.07,1.07,0,0,1-.23-.25l-.37,2.1-10.93,5.59-10.77-5.2-.53-2.49s-.09.1-.15.14c-1.45,1.66-3.94,4.4-3.92,4.3-4,.93-20.51,6.6-20.51,36.78l.85.37h70.09l.84-.37C121.73,143.87,105.26,138.2,101.21,137.27Z"/><path class="cls-6" d="M99.24,134.37c-.53-1.35-1.82-2.62-2.28-3.7-.78-1.79-1.49-3.38-1.49-3.38-.16,1.71-2.82,9.32-2.82,9.32s-8.32,4-7,4.25,7.47,8,9.24,10.11,1.48,3.95,1.94,1.18S100.65,138,99.24,134.37Z"/><path class="cls-6" d="M79.05,136.61s-2.65-7.61-2.83-9.32c0,0-.71,1.59-1.48,3.38-.47,1.08-1.75,2.35-2.29,3.7-1.41,3.64,2,15,2.43,17.78s.17.86,1.93-1.18,7.51-9.82,8.83-10.11S79.05,136.61,79.05,136.61Z"/><path class="cls-7" d="M85.94,36.78c-37,0-37.26,30.9-35.61,51.13-2.54-4.8-10.06-3.31-9.45,4.23.6,7.28,11.22,11,11.06,10.2C55,119,72.42,128.6,85.94,128.6l.28,0V36.78Z"/><path class="cls-8" d="M43.25,89a3.52,3.52,0,0,1,5.35-1,3,3,0,0,1,.86,3.36c-.25,1-1.27,1-1,2.52A2.61,2.61,0,0,0,49.92,96a3.3,3.3,0,0,1,1.24,1.36,3.67,3.67,0,0,1,.18,2.08c-.29,1.19-2,.25-3.2-.29A21.34,21.34,0,0,1,44.31,96C42.75,94.25,42,90.89,43.25,89Z"/><path class="cls-9" d="M86.12,36.78c37.05,0,37.26,30.9,35.61,51.13,2.54-4.8,10.07-3.31,9.45,4.23-.6,7.28-11.22,11-11.08,10.2-3,16.64-20.46,26.26-34,26.26l-.28,0V36.78Z"/><path class="cls-8" d="M128.81,89a3.53,3.53,0,0,0-5.36-1,3.07,3.07,0,0,0-.86,3.36c.27,1,1.29,1,1,2.52A2.63,2.63,0,0,1,122.14,96a3.39,3.39,0,0,0-1.25,1.36,3.66,3.66,0,0,0-.16,2.08c.28,1.19,2,.25,3.19-.29a21.75,21.75,0,0,0,3.84-3.1C129.32,94.25,130,90.89,128.81,89Z"/><path class="cls-2" d="M85.62,45.48C73.43,45.48,64.51,49,59.1,56c-7.54,9.72-7.25,24.58-4.47,35.24.85,3.26,1.29,12,1.88,15.28,2.62,14.41,18.59,22.1,29.11,22.1l.28,0V45.49Z"/><path class="cls-3" d="M112.07,56c-5.35-6.92-14.17-10.44-26.17-10.5v83.09c12-.12,26.36-8.54,28.82-22.08.6-3.23,1-12,1.88-15.28C119.37,80.59,119.64,65.75,112.07,56Z"/><path class="cls-10" d="M55.21,125a.49.49,0,0,1,0,.11h0s0,0,0,0a23.14,23.14,0,0,0,5,7.88,28.66,28.66,0,0,0,7.44,5.65,37.38,37.38,0,0,1-3.45-3.05,34.11,34.11,0,0,1-3-3.42,25.44,25.44,0,0,1-2.8-4.49c.62.28,1.23.55,1.85.78,1.71.63,3.52,1.14,5.08,1.68l2.11.75L67,128.79a43.27,43.27,0,0,0-2-6c-.1-.27-.22-.54-.33-.81.6.44,1.19.86,1.81,1.28a40.58,40.58,0,0,0,6.87,3.71,30.88,30.88,0,0,0,7.54,2.18,23.53,23.53,0,0,0,5,.11,23.54,23.54,0,0,0,5-.11,31,31,0,0,0,7.54-2.18,40.58,40.58,0,0,0,6.87-3.71c.61-.42,1.21-.84,1.8-1.28-.1.27-.22.54-.32.81a43.24,43.24,0,0,0-2,6l-.47,2.11,2.11-.75c1.56-.54,3.36-1.05,5.08-1.68.61-.23,1.23-.5,1.85-.78a25.44,25.44,0,0,1-2.8,4.49,34.11,34.11,0,0,1-3,3.42,38.6,38.6,0,0,1-3.44,3.05A29.17,29.17,0,0,0,111.6,133a23.42,23.42,0,0,0,4.94-7.88s0,0,0,0h0s0-.07,0-.11l1.81-5.27-3.82,4.64a2.34,2.34,0,0,1-.55.51,7.6,7.6,0,0,1-1,.57,21.51,21.51,0,0,1-2.34.93c-.94.32-1.88.59-2.85.87,1-3.09,2.42-6.19,3.76-9.23l2.73-6.2-4.85,4.83c-.81.82-1.76,1.65-2.7,2.43s-1.91,1.57-2.91,2.29a53.11,53.11,0,0,1-6.29,4,33,33,0,0,1-7,2.69,22.65,22.65,0,0,1-4.72.74,22.55,22.55,0,0,1-4.72-.74,32.78,32.78,0,0,1-7-2.69,53.11,53.11,0,0,1-6.29-4c-1-.72-2-1.5-2.91-2.29s-1.88-1.61-2.71-2.43l-4.85-4.83L60.2,118c1.33,3,2.72,6.14,3.76,9.23-1-.28-1.92-.55-2.86-.87a21.34,21.34,0,0,1-2.33-.93,7.6,7.6,0,0,1-1-.57,2.06,2.06,0,0,1-.54-.51l-3.83-4.64Z"/><path class="cls-10" d="M57.46,111.81s24.53,30.07,56.87,0l-9.18,10.82s-23.37,17.61-44.74-5.17Z"/><path class="cls-10" d="M52.62,89.26c-.73,0,.06-3.93-2.42-6.64S44,70.77,44,61.66s3.22-17.23,11.62-25.85S76.36,23,76.36,23l-5.68,5.17s3.06-4.2,14.07-7.56c8.68-2.64,14.3.3,14.3.3s-5.72-.19-7.46,2.29a9.45,9.45,0,0,1-2,1.59s2.66-5.95,15-1,12.13,13.76,20.74,16.47c8.8,2.78,11.35-.79,11.35-.79s-3.82,6.25-10.6,6.27a5.65,5.65,0,0,1-1.22,0,56.6,56.6,0,0,1,3,11.68c.51,5.11-1.05,8.6-1.53,18.13-.41,8.16-2.65,4-5.3,10a12.53,12.53,0,0,0-.94,4.29c-1,.24-3.57-4.9-1.71-13.81,1.21-5.79-4.77-27.72-19.18-23.44-8.81,2.61-11,7.94-17.63,3.21C75.9,51.65,68,49.31,62,52.53S52.75,63,53.78,74.59C55.1,89.37,52.62,89.26,52.62,89.26Z"/></g></g></svg>