<svg xmlns="http://www.w3.org/2000/svg" viewBox="0 0 174.98 175.03"><defs><style>.cls-1{fill:#b9c98e;}.cls-2{fill:#362c1d;}.cls-3{fill:#dcc5a1;}.cls-4{fill:#edd9b4;}.cls-5,.cls-9{fill:#bc9f82;}.cls-5{opacity:0.7;}.cls-6{fill:#5a4f51;}.cls-7{fill:#895a59;}.cls-8{fill:#ccad8b;}.cls-10{fill:#d9bf9f;}.cls-11{fill:#b47070;}.cls-12{fill:#c17874;}</style></defs><title>Ativo 153ac</title><g id="Camada_2" data-name="Camada 2"><g id="Avatares"><rect class="cls-1" width="174.98" height="174.93" rx="39.39"/><path class="cls-2" d="M51.91,120.72s0,.08.05.11C52.12,121,52.08,121,51.91,120.72Z"/><path class="cls-3" d="M86.64,112.81V175H52.69l-.82-.35c0-33.38,20.77-35.87,20.77-35.87h.18a3.48,3.48,0,0,0,.44-.1c1.72-.47,2.89-3,3.67-6.59.15-.62.26-1.26.36-2,.19-1.14.35-2.34.47-3.6.08-.76.15-1.53.22-2.3.31-3.83.4-8,.4-11.91C78.38,112.36,83,112.81,86.64,112.81Z"/><path class="cls-4" d="M121.54,174.68s-.31.11-.81.35H86.64V112.81h.07c3.7,0,8.29-.45,8.29-.45,0,3.91.1,8,.4,11.81.07.76.15,1.52.22,2.25.14,1.31.29,2.54.47,3.7v0c.07.52.17,1,.26,1.47.72,3.49,1.77,6,3.29,6.9a2.75,2.75,0,0,0,.36.15,2.1,2.1,0,0,0,.76.14S121.54,141.3,121.54,174.68Z"/><path class="cls-5" d="M96.09,130.13v0a11,11,0,0,1-9.41,5.11h0a11.81,11.81,0,0,1-9.35-5.09c.18-1.13.35-2.34.47-3.6.07-.76.14-1.52.21-2.3a37.23,37.23,0,0,0,8.57,1.12h.1a35.7,35.7,0,0,0,8.76-1.21q.1,1.14.21,2.25C95.76,127.73,95.9,129,96.09,130.13Z"/><path class="cls-6" d="M121.63,174.68a5.46,5.46,0,0,0-.81.35h-68a7.27,7.27,0,0,0-.84-.35,53.76,53.76,0,0,1,2.88-18.6c7.64-5.21,23.41-5.15,31.91,3.26,0,0,13.13-10.71,26.49-5.08a19.62,19.62,0,0,1,6.33,4.23A57.45,57.45,0,0,1,121.63,174.68Z"/><path class="cls-7" d="M75.29,132.43c0,.84,4.55.12,3,12.33S63,155,59.06,161.51A20.89,20.89,0,0,0,56.52,175h-5.8L52,170.86a15.82,15.82,0,0,1,1-10.5c2.55-5.27-.06-8.39.25-10.6s3.78-7.21,7-8.37,3-.39,7-1.34,8.56-3.21,8.56-5.74S75.29,132.43,75.29,132.43Z"/><path class="cls-7" d="M98,132.09c0,.84-4.56.12-3,12.33s15.27,10.22,19.18,16.75A21.16,21.16,0,0,1,116.63,175h5.69l-.69-4.42A17.22,17.22,0,0,0,120.4,160c-2.54-5.27.06-8.38-.25-10.6s-3.78-7.2-7-8.36-3.11-.12-7.14-1.08-8.46-3.48-8.46-6S98,132.09,98,132.09Z"/><path class="cls-8" d="M86.62,46C51.18,45.88,51,74.24,52.56,92.75c-2.44-4.34-9.62-2.73-9,4.22.56,6.66,10.72,9.67,10.58,9C57,121,73.7,129.36,86.62,130.55h.27V46Z"/><path class="cls-9" d="M45.31,94a3.51,3.51,0,0,1,5.19-.94,2.7,2.7,0,0,1,.84,3.08c-.25.9-1.25,1-1,2.33a2.44,2.44,0,0,0,1.43,2A3.22,3.22,0,0,1,53,101.74a3.1,3.1,0,0,1,.15,1.91c-.27,1.11-2,.23-3.09-.26a21,21,0,0,1-3.72-2.86C44.82,98.92,44.12,95.82,45.31,94Z"/><path class="cls-10" d="M86.79,46c35.43-.07,35.63,28.29,34.06,46.8,2.43-4.34,9.61-2.73,9,4.22-.56,6.66-10.72,9.67-10.57,9-2.9,15.07-19.6,23.44-32.51,24.63h-.27V46Z"/><path class="cls-9" d="M128.35,94a3.52,3.52,0,0,0-5.2-.94,2.71,2.71,0,0,0-.84,3.08c.25.9,1.24,1,1,2.33a2.41,2.41,0,0,1-1.44,2c-.41.35-1,.61-1.21,1.26a3.25,3.25,0,0,0-.16,1.91c.28,1.11,2,.23,3.1-.26a21.33,21.33,0,0,0,3.72-2.86C128.83,98.92,129.53,95.82,128.35,94Z"/><path class="cls-3" d="M86.43,54c-11.84,0-20.5,3.25-25.74,9.66-7.32,9-7,22.66-4.34,32.48.83,3,1.25,11.1,1.82,14.08,2.55,13.29,18,20.36,28.26,20.36h.27V54Z"/><path class="cls-4" d="M112.1,63.66C106.9,57.28,98.34,54,86.7,54v76.57c11.65-.12,25.58-7.88,28-20.36.57-3,1-11.07,1.82-14.08C119.19,86.32,119.45,72.65,112.1,63.66Z"/><path class="cls-11" d="M92.65,118.55s-2.67,2.85-6,2.85-5.81-2.78-5.81-2.78a38.34,38.34,0,0,1,5.81-.43A49.84,49.84,0,0,1,92.65,118.55Z"/><path class="cls-12" d="M88.38,117.24a1.55,1.55,0,0,0-1.7,1.29A1.54,1.54,0,0,0,85,117.24a23.78,23.78,0,0,0-4.28,1.31s3.26.35,4.2.35,1.75.37,1.76-.33c0,.7.7.43,1.62.43s4.35-.45,4.35-.45A23.89,23.89,0,0,0,88.38,117.24Z"/><path class="cls-6" d="M132.45,32.3c-.58-1.6,2.33,11.18-5.41,13.28a24.29,24.29,0,0,0-3.75,1.33c-.34-3-.58-4.11.38-7.27a12.3,12.3,0,0,0-.93-10.13c-1.74-3.22-5.89-4.29-5.89-4.29a6.21,6.21,0,0,1,2.8,7.39c-1.11,3.31-3.19,4.76-4.34,7.56a18.32,18.32,0,0,0-1.06,3.5,5.31,5.31,0,0,0-.73-3.21c-1.34-2-5.56-5.38-4.63-9.49,2.62-11.5-2.81-14.66-3.59-16.06s2.14,3.69.22,8A8.28,8.28,0,0,1,101,27.09a6.88,6.88,0,0,1-1.38-5.39C102.25,10.19,96.82,7,96.05,5.63s2.13,3.69.19,8-5.4,3.76-8.33,6.83a15.84,15.84,0,0,0-1.73,2.17,16.54,16.54,0,0,0-1.74-2.17c-2.93-3.07-6.41-2.56-8.33-6.83s1-9.37.21-8S70.1,10.19,72.73,21.7a6.81,6.81,0,0,1-1.39,5.39,8.22,8.22,0,0,1-4.49-4.22c-1.93-4.26,1-9.37.2-8S60.84,19.47,63.46,31c.94,4.11-3.28,7.46-4.63,9.49a5.37,5.37,0,0,0-.72,3.21,19.07,19.07,0,0,0-1.06-3.5c-1.15-2.8-3.24-4.24-4.34-7.56a6.22,6.22,0,0,1,2.8-7.39s-4.15,1.07-5.89,4.29a12.3,12.3,0,0,0-.93,10.13c1,3.16.71,4.3.38,7.27a22.88,22.88,0,0,0-3.75-1.34C37.58,43.48,40.5,30.7,39.91,32.3s-3.81,9.44-1.53,15.89c1.2,3.4,2.12,4.62,7.12,9.36s2.89,2.3,5.58,7.12.08,7.77,0,13.65c0,0,0,.05,0,.08s0,0,0,0,0,.08,0,.11h0C51.35,84.7,67,89.66,86.29,89.66c19.45,0,35.21-5,35.21-11.26a3.92,3.92,0,0,0-.3-1.45c-.39-5-2.37-7.89.07-12.28,2.7-4.82.58-2.38,5.58-7.12s5.93-6,7.13-9.36C136.26,41.74,133,33.91,132.45,32.3Z"/><path class="cls-6" d="M82.89,86.59c0,4.38-5.51,9.7-10.48,9.7S62.7,92.42,62.7,88s0-8.1,4.75-9.36C75.72,76.49,82.89,82.19,82.89,86.59Z"/><path class="cls-6" d="M90.53,86.82c0,4.39,5.51,9.71,10.47,9.71s9.71-3.87,9.71-8.25,0-8.11-4.75-9.37C97.7,76.74,90.53,82.43,90.53,86.82Z"/><path class="cls-1" d="M79.35,87.37c0,2.93-3.66,6.47-7,6.47s-6.46-2.57-6.46-5.5,0-5.4,3.16-6.23C74.58,80.66,79.35,84.45,79.35,87.37Z"/><path class="cls-1" d="M93.81,87.8c0,2.93,3.67,6.47,7,6.47s6.47-2.58,6.47-5.5,0-5.4-3.17-6.24C98.59,81.08,93.81,84.88,93.81,87.8Z"/></g></g></svg>