<svg xmlns="http://www.w3.org/2000/svg" xmlns:xlink="http://www.w3.org/1999/xlink" viewBox="0 0 174.99 174.92"><defs><style>.cls-1{fill:none;}.cls-2{fill:#cc6b51;}.cls-3{fill:#dcc5a1;}.cls-4{fill:#edd9b4;}.cls-5{clip-path:url(#clip-path);}.cls-6{fill:#bc9f82;}.cls-7{fill:#f8f7e0;}.cls-8{fill:#223727;}.cls-9{fill:#ccad8b;}.cls-10{fill:#d9bf9f;}.cls-11{fill:#422e14;}.cls-12{fill:#3b2f18;}</style><clipPath id="clip-path"><rect class="cls-1" x="76.29" y="114.87" width="22.21" height="13.08"/></clipPath></defs><title>Ativo 117ac</title><g id="Camada_2" data-name="Camada 2"><g id="Avatares"><rect class="cls-2" width="174.99" height="174.92" rx="39.35"/><path class="cls-3" d="M87.34,101.45v73.47H47.26l-1-.43c0-30,14.25-38.86,21-41.39a18,18,0,0,1,3.52-.95c2.44,0,4-3.14,5.06-7.89q.25-1.1.42-2.31c.22-1.35.42-2.77.57-4.25.08-.9.17-1.8.25-2.72.36-4.52.48-9.42.48-14.06,0,0,5.38.53,9.75.53"/><path class="cls-4" d="M128.54,174.49s-.36.15-1,.43H87.34V101.45h.08c4.36,0,9.78-.53,9.78-.53,0,4.61.11,9.47.49,14,.08.89.16,1.79.24,2.66.17,1.54.35,3,.57,4.37v0c.08.62.18,1.18.3,1.73,1,5.08,2.68,8.5,5.21,8.5a17.72,17.72,0,0,1,3.46.92c6.73,2.49,21.07,11.31,21.07,41.42"/><g class="cls-5"><path class="cls-6" d="M98.49,121.89v0a13,13,0,0,1-11.11,6h0c-6.38,0-10.09-4.64-11-6,.22-1.35.42-2.77.56-4.26.08-.89.17-1.79.25-2.71a44.71,44.71,0,0,0,10.12,1.31h.11a42.4,42.4,0,0,0,10.35-1.42c.08.89.16,1.79.24,2.66.17,1.54.34,3,.57,4.36"/></g><path class="cls-7" d="M128.54,174.49s-.36.15-1,.43H47.26l-1-.43c0-30.07,14.25-38.94,21-41.46,4.42,4.84,13.16,11.52,19.9,11.87h.21s.08,0,.13,0c6.78-.35,15.52-7.05,19.94-11.9,6.73,2.49,21.07,11.33,21.07,41.49"/><path class="cls-8" d="M63.52,134.78c5.23,5.77,15.61,13.69,23.62,14.09h.23s.1,0,.16,0c8-.4,18.38-8.33,23.63-14.09a25.14,25.14,0,0,0-3.77-1.78c-4.41,4.85-13.16,11.55-19.93,11.9a.18.18,0,0,1-.13,0h-.2c-6.76-.35-15.49-7-19.91-11.87a27.6,27.6,0,0,0-3.7,1.75"/><path class="cls-9" d="M86.75,17.18c-42.46,0-42.69,35.42-40.82,58.6C43,70.28,34.41,72,35.12,80.64,35.8,89,48,93.28,47.8,92.31c3.48,19.08,23.45,30.09,39,30.09h.32V17.18h-.32"/><path class="cls-6" d="M37.84,77A4,4,0,0,1,44,75.81a3.48,3.48,0,0,1,1,3.85c-.29,1.11-1.46,1.18-1.18,2.87A3,3,0,0,0,45.48,85a3.93,3.93,0,0,1,1.43,1.57,4.26,4.26,0,0,1,.18,2.38c-.32,1.36-2.32.28-3.66-.32A26.45,26.45,0,0,1,39,85.06c-1.78-2-2.62-5.86-1.2-8.08"/><path class="cls-10" d="M87,17.18c42.46,0,42.7,35.42,40.82,58.6,2.92-5.5,11.52-3.8,10.82,4.86-.68,8.34-12.85,12.64-12.69,11.67C122.42,111.39,102.45,122.4,87,122.4h-.31V17.18H87"/><path class="cls-6" d="M135.88,77a4,4,0,0,0-6.13-1.17,3.53,3.53,0,0,0-1,3.85c.31,1.11,1.48,1.18,1.2,2.87a3,3,0,0,1-1.7,2.46,3.88,3.88,0,0,0-1.44,1.57,4.09,4.09,0,0,0-.18,2.38c.32,1.36,2.32.28,3.66-.32a26,26,0,0,0,4.39-3.56c1.78-2,2.61-5.86,1.21-8.08"/><path class="cls-3" d="M87.08,27.16c-14,0-24.19,4-30.38,12-8.64,11.14-8.31,28.16-5.12,40.38,1,3.73,1.47,13.8,2.14,17.51,3,16.51,21.31,25.31,33.36,25.31h.33V27.17h-.33"/><path class="cls-4" d="M117.4,39.21c-6.14-7.94-16.25-12-30-12v95.22c13.75-.15,30.2-9.79,33-25.3.67-3.71,1.17-13.78,2.14-17.51,3.19-12.19,3.49-29.2-5.18-40.37"/><path class="cls-11" d="M63.54,85a.26.26,0,1,1-.26-.26.26.26,0,0,1,.26.26"/><path class="cls-11" d="M65.9,89.78a.27.27,0,0,1-.25.27.27.27,0,0,1-.26-.27.26.26,0,0,1,.26-.26.25.25,0,0,1,.25.26"/><path class="cls-11" d="M58.65,88.38a.27.27,0,0,1-.53,0,.27.27,0,0,1,.53,0"/><path class="cls-11" d="M65.37,94.65a.27.27,0,0,1-.25.27.27.27,0,0,1-.26-.27.26.26,0,0,1,.26-.26.26.26,0,0,1,.25.26"/><path class="cls-11" d="M69,81.53a.26.26,0,0,1-.26.25.26.26,0,0,1-.27-.25.27.27,0,1,1,.53,0"/><path class="cls-11" d="M69.3,87.25a.26.26,0,1,1-.52,0,.26.26,0,1,1,.52,0"/><path class="cls-11" d="M73.93,84.9a.26.26,0,0,1-.27.27.25.25,0,0,1-.26-.27.25.25,0,0,1,.26-.25.26.26,0,0,1,.27.25"/><path class="cls-11" d="M77.86,89.52a.27.27,0,0,1-.27.26.27.27,0,0,1,0-.53.27.27,0,0,1,.27.27"/><path class="cls-11" d="M71.88,92.85a.28.28,0,0,1-.26.28.29.29,0,0,1-.27-.28.27.27,0,0,1,.27-.25.25.25,0,0,1,.26.25"/><path class="cls-11" d="M82.54,81.53a.26.26,0,0,1-.26.25.26.26,0,0,1-.27-.25.27.27,0,1,1,.53,0"/><path class="cls-11" d="M83.71,89.52a.27.27,0,0,1-.27.26.27.27,0,0,1,0-.53.27.27,0,0,1,.27.27"/><path class="cls-11" d="M81.43,93.13a.27.27,0,0,1-.27.25.25.25,0,0,1-.26-.25.27.27,0,0,1,.26-.28.28.28,0,0,1,.27.28"/><path class="cls-11" d="M110.6,85a.27.27,0,1,0,.53,0,.27.27,0,0,0-.53,0"/><path class="cls-11" d="M108.23,89.81a.27.27,0,0,0,.27.26.25.25,0,0,0,.26-.26.26.26,0,0,0-.26-.27.28.28,0,0,0-.27.27"/><path class="cls-11" d="M115.5,88.41a.27.27,0,0,0,.26.27.27.27,0,0,0,.26-.27.26.26,0,0,0-.26-.26.25.25,0,0,0-.26.26"/><path class="cls-11" d="M108.76,94.68A.27.27,0,0,0,109,95a.26.26,0,0,0,.25-.27.25.25,0,0,0-.25-.26.26.26,0,0,0-.27.26"/><path class="cls-11" d="M105.11,81.55a.26.26,0,0,0,.26.26.26.26,0,0,0,0-.52.26.26,0,0,0-.26.26"/><path class="cls-11" d="M104.83,87.28a.28.28,0,0,0,.28.26.26.26,0,0,0,.26-.26.27.27,0,0,0-.26-.27.28.28,0,0,0-.28.27"/><path class="cls-11" d="M100.22,84.93a.26.26,0,0,0,.27.27.25.25,0,0,0,.25-.27.25.25,0,0,0-.25-.25.26.26,0,0,0-.27.25"/><path class="cls-11" d="M96.29,89.54a.26.26,0,0,0,.26.27.28.28,0,0,0,.27-.27.27.27,0,0,0-.27-.25.26.26,0,0,0-.26.25"/><path class="cls-11" d="M102.26,92.88a.26.26,0,0,0,.27.27.26.26,0,0,0,.25-.27.26.26,0,0,0-.25-.26.27.27,0,0,0-.27.26"/><path class="cls-11" d="M91.61,81.55a.26.26,0,1,0,.26-.26.26.26,0,0,0-.26.26"/><path class="cls-11" d="M90.44,89.54a.27.27,0,0,0,.26.27.26.26,0,0,0,.25-.27.25.25,0,0,0-.25-.25.26.26,0,0,0-.26.25"/><path class="cls-11" d="M92.72,93.15a.26.26,0,0,0,.26.26.27.27,0,0,0,.27-.26.28.28,0,0,0-.27-.27.27.27,0,0,0-.26.27"/><path class="cls-12" d="M85,109.71a1.92,1.92,0,0,0-.27,1v.91a2.25,2.25,0,0,0,4.48,0v-.91a1.92,1.92,0,0,0-.27-1c-.64-.06-1.29-.09-2-.09S85.62,109.65,85,109.71Z"/><path class="cls-12" d="M103,105.41s-.38-.34-1.06-.85-1.72-1.27-3-2.09c-1.94-1.2-4.37-3.09-7.5-3.64a35,35,0,0,0-9,0c-3.13.55-5.55,2.44-7.5,3.64-1.3.82-2.32,1.55-3,2.09s-1,.84-1.06.85a13.17,13.17,0,0,0-1.86,7,13.67,13.67,0,0,0,1.48,6.39,4.82,4.82,0,0,0,1.39,1.94,5.7,5.7,0,0,0,2.09,1.4c3.06,1.58,7.73,2.59,13,2.59s9.94-1,13-2.59a5.7,5.7,0,0,0,2.09-1.4,5,5,0,0,0,1.39-1.94,13.79,13.79,0,0,0,1.48-6.39A13.26,13.26,0,0,0,103,105.41Zm-3.31,12.41A30,30,0,0,1,87,120.3a30,30,0,0,1-12.78-2.48,14.21,14.21,0,0,1-1-5.38c0-.54,0-1.07.08-1.59A18,18,0,0,1,84,105.65a21.64,21.64,0,0,1,5.87,0,18,18,0,0,1,10.8,5.2c0,.52.08,1.05.08,1.59A14.4,14.4,0,0,1,99.73,117.82Z"/><path class="cls-12" d="M125.45,85c.81,0-.06-4.42,2.64-7.47s6.8-13.3,6.8-23.54-3.51-19.35-12.68-29S99.53,10.6,99.53,10.6l6.21,5.81S102.4,11.7,90.39,7.92c-9.48-3-15.62.34-15.62.34S81,8,82.92,10.83a10,10,0,0,0,2.22,1.78s-2.9-6.68-16.4-1.14S55.5,26.93,46.12,30c-9.61,3.11-12.4-.9-12.4-.9s4.17,7,11.57,7.05c1.43,0,1.33,0,1.33,0s-2.78,7.52-3.31,13.13S44.46,58.87,45,69.59c.45,9.15,2.88,4.46,5.78,11.21a14.34,14.34,0,0,1,1,4.81c1.08.27,3.9-5.5,1.87-15.51C52.35,63.6,58.87,39,74.6,43.76c9.62,2.94,12.05,8.93,19.24,3.61,6.2-4.58,14.87-7.21,21.35-3.59s10.13,11.77,9,24.78C122.74,85.16,125.45,85,125.45,85Z"/></g></g></svg>