<svg xmlns="http://www.w3.org/2000/svg" xmlns:xlink="http://www.w3.org/1999/xlink" viewBox="0 0 174.99 175.15"><defs><style>.cls-1{fill:none;}.cls-2{fill:#895a59;}.cls-3{fill:#dcc5a1;}.cls-4{fill:#edd9b4;}.cls-5{clip-path:url(#clip-path);}.cls-6{fill:#bc9f82;}.cls-7{fill:#bcca33;}.cls-8{fill:#4f4e49;}.cls-9{fill:#ccad8b;}.cls-10{fill:#d9bf9f;}</style><clipPath id="clip-path"><rect class="cls-1" x="79.7" y="117.88" width="21.02" height="12.38"/></clipPath></defs><title>Ativo 87ac</title><g id="Camada_2" data-name="Camada 2"><g id="Avatares"><rect class="cls-2" width="174.99" height="175.15" rx="39.36"/><path class="cls-3" d="M87.34,101.42a2.27,2.27,0,1,1-2.26-2.27A2.26,2.26,0,0,1,87.34,101.42Z"/><path class="cls-3" d="M87.34,108.36a2.27,2.27,0,1,1-2.26-2.26A2.26,2.26,0,0,1,87.34,108.36Z"/><path class="cls-3" d="M90.17,105.18v69.56h-38c-.6-.29-.91-.4-.91-.4,0-37.31,23.22-40.13,23.22-40.13a2,2,0,0,0,.72-.09c1.92-.57,3.2-3.32,4.08-7.35.16-.7.29-1.41.4-2.18.22-1.27.4-2.63.54-4,.07-.85.15-1.7.23-2.58.34-4.26.45-8.9.45-13.31,0,0,5.11.51,9.25.51"/><path class="cls-4" d="M129.18,174.33s-.35.14-.91.39H90.17V105.17h.06c4.13,0,9.28-.5,9.28-.5,0,4.37.09,9,.44,13.21l.24,2.51c.17,1.47.31,2.84.53,4.14v0c.08.58.19,1.12.3,1.65,1,4.81,2.52,8,4.91,8,0,0,23.25,2.79,23.25,40.11"/><g class="cls-5"><path class="cls-6" d="M100.72,124.53v0a12.28,12.28,0,0,1-10.52,5.71h0c-6,0-9.56-4.41-10.47-5.68.22-1.29.39-2.63.53-4,.08-.85.16-1.7.24-2.58A42.33,42.33,0,0,0,90,119.23h.13a39.88,39.88,0,0,0,9.78-1.35l.24,2.51c.17,1.47.31,2.84.53,4.14"/></g><path class="cls-7" d="M90.17,167v7.72h-38c-.6-.29-.91-.4-.91-.4,0-37.31,23.22-40.13,23.22-40.13a2,2,0,0,0,.72-.09c.62,1.4,2.32,1.4,5.19,3.84,3.77,3.24,9.16,10.95,9.48,16.65.16,2.92.23,8,.28,12.41"/><path class="cls-7" d="M90.05,167v7.72h38.29a10.1,10.1,0,0,1,.93-.4c0-37.31-23.43-40.13-23.43-40.13a2,2,0,0,1-.72-.09c-.62,1.4-2.34,1.4-5.24,3.84-3.79,3.24-9.23,10.95-9.55,16.65-.16,2.92-.24,8-.28,12.41"/><path class="cls-8" d="M120.45,174.75H59.71c.17-2.39.41-5.87.65-7.74,1.08-9,4.52-23.19,7.2-30.19q.16-.44.33-.81l6.44-2v.32c.07,2.59.5,19.49,1,24.14.29,3.3,8.07,4.84,14.79,5.08,6.74-.24,14.49-1.78,14.8-5.08.43-4.67.85-21.73.91-24.17,0-.18,0-.29,0-.29l6.45,2c.08.2.19.44.27.68,2.71,6.95,6.15,21.21,7.28,30.32.24,1.87.49,5.35.65,7.74"/><path class="cls-9" d="M89.59,25.39c-40.2,0-40.43,33.52-38.64,55.47C48.19,75.67,40,77.27,40.7,85.46c.64,7.89,12.17,12,12,11.06C56,114.58,74.92,125,89.59,125l.31,0V25.39h-.31"/><path class="cls-6" d="M43.28,82a3.81,3.81,0,0,1,5.8-1.09A3.28,3.28,0,0,1,50,84.53c-.28,1-1.39,1.13-1.12,2.73a2.86,2.86,0,0,0,1.61,2.33,3.56,3.56,0,0,1,1.35,1.48A4,4,0,0,1,52,93.33c-.3,1.29-2.2.26-3.46-.32a24.68,24.68,0,0,1-4.16-3.37C42.73,87.75,42,84.11,43.28,82"/><path class="cls-10" d="M89.8,25.39c40.19,0,40.42,33.52,38.63,55.47,2.76-5.19,10.91-3.59,10.24,4.6-.65,7.89-12.16,12-12,11.06C123.38,114.58,104.46,125,89.8,125l-.31,0V25.39h.31"/><path class="cls-6" d="M136.11,82a3.82,3.82,0,0,0-5.81-1.09,3.29,3.29,0,0,0-.93,3.63c.28,1,1.39,1.13,1.12,2.73a2.86,2.86,0,0,1-1.61,2.33,3.6,3.6,0,0,0-1.37,1.48,4,4,0,0,0-.16,2.26c.29,1.29,2.19.26,3.46-.32A24.68,24.68,0,0,0,135,89.64c1.69-1.89,2.45-5.53,1.14-7.65"/><path class="cls-3" d="M89.92,34.91C76.68,34.91,67,38.74,61.14,46.3,53,56.85,53.26,73,56.28,84.53c.92,3.55,1.41,13.07,2,16.58,2.86,15.64,20.18,24,31.6,24l.29,0V34.91h-.29"/><path class="cls-4" d="M118.62,46.31c-5.81-7.5-15.38-11.33-28.41-11.4v90.17c13-.15,28.61-9.28,31.29-24,.62-3.5,1.1-13,2-16.58,3-11.53,3.3-27.65-4.91-38.22"/><path class="cls-8" d="M119.1,33.77C110,26.86,97.83,8.13,89.53,9c-8.31-.88-20.47,17.85-29.59,24.76-14.88,11.3-11.42,44.8-11.42,44.8s2.39-.58,3.78.84A13.46,13.46,0,0,1,55.83,86a5.46,5.46,0,0,0,2.65,3.45s-3.56-16.09.09-23.26c2.27-4.44,4.23-9.28,11-14C74.08,49.22,82,64.52,89.53,64.62c7.54-.1,15.44-15.4,19.89-12.34,6.82,4.67,8.78,9.51,11,14,3.66,7.17.1,23.26.1,23.26A5.46,5.46,0,0,0,123.21,86a13.48,13.48,0,0,1,3.54-6.63c1.38-1.42,3.77-.84,3.77-.84s3.47-33.5-11.42-44.8"/></g></g></svg>