<svg xmlns="http://www.w3.org/2000/svg" viewBox="0 0 174.4 174.63"><defs><style>.cls-1{fill:#7a94a4;}.cls-2{fill:#dcc5a1;}.cls-3{fill:#edd9b4;}.cls-4,.cls-8{fill:#bc9f82;}.cls-4{opacity:0.7;}.cls-5{fill:#895a59;}.cls-6{fill:#4b3118;}.cls-7{fill:#ccad8b;}.cls-9{fill:#d9bf9f;}.cls-10{fill:#b47070;}.cls-11{fill:#c17874;}.cls-12{fill:#fdfdfd;}</style></defs><title>Ativo 127ac</title><g id="Camada_2" data-name="Camada 2"><g id="Avatares"><rect class="cls-1" width="174.4" height="174.33" rx="39.23"/><path class="cls-2" d="M89.39,109.39v65H54l-.87-.37c0-21.2,8-30.47,14.32-34.48a19.44,19.44,0,0,1,7.38-3H75a2,2,0,0,0,.47-.1c1.79-.49,3-3.12,3.83-6.86a18.79,18.79,0,0,0,.37-2.06c.2-1.18.38-2.45.5-3.76.08-.8.15-1.59.23-2.41.32-4,.42-8.32.42-12.43C80.77,108.92,85.55,109.39,89.39,109.39Z"/><path class="cls-3" d="M125.84,174s-.33.13-.85.37H89.39v-65h.08c3.85,0,8.65-.47,8.65-.47,0,4.09.1,8.37.43,12.33.07.8.14,1.59.22,2.36.15,1.36.3,2.65.49,3.86v0c.08.54.18,1,.28,1.53.75,3.64,1.84,6.32,3.43,7.21.13,0,.25.15.37.15a2,2,0,0,0,.8.15,18,18,0,0,1,5.27,1.78C115.83,141.54,125.84,150.34,125.84,174Z"/><path class="cls-4" d="M99.25,127.49v0a11.44,11.44,0,0,1-9.82,5.32h-.05a12.37,12.37,0,0,1-9.77-5.3c.21-1.19.38-2.45.5-3.77.08-.79.15-1.58.23-2.4a38.65,38.65,0,0,0,8.94,1.17h.1a36.42,36.42,0,0,0,9.15-1.27c.08.8.15,1.59.22,2.36C98.91,125,99.05,126.27,99.25,127.49Z"/><path class="cls-5" d="M125.84,174s-.33.13-.85.37H53.78L52.9,174c0-21.2,8.78-32.35,16.47-35.67,5.78,5.83,12.6,14.91,14.43,16.62,3.11,2.91,5,7.88,7,6.63s12.91-16.61,18.58-23.25C115.79,141.54,125.84,150.34,125.84,174Z"/><path class="cls-6" d="M73.62,138.1c.7,1.45,8.52,10.05,10.65,12.58s3.22,2.16,4.63,7,.46,16.59.46,16.59-.69-10-3.53-12.5-18.37-10.29-18.37-10.29l5.82-1.93-15.77-6.27A61.84,61.84,0,0,1,67,137.91c4.54-2,8.33-3.14,8.33-3.14Z"/><path class="cls-6" d="M105.32,138.42c-.71,1.46-8.52,10.05-10.65,12.59s-3.21,2.16-4.64,7-.45,16.58-.45,16.58.68-10,3.52-12.49,18.38-10.29,18.38-10.29l-5.82-1.93,15.77-6.27a63,63,0,0,0-9.48-5.42c-4.55-1.95-8.34-3.14-8.34-3.14Z"/><path class="cls-7" d="M89.36,39.58c-37-.07-37.21,29.56-35.57,48.87-2.54-4.53-10-2.84-9.43,4.41.59,7,11.2,10.11,11.06,9.34,3,15.74,20.46,24.48,33.94,25.73h.28V39.58Z"/><path class="cls-8" d="M46.22,89.8a3.67,3.67,0,0,1,5.43-1A2.84,2.84,0,0,1,52.52,92c-.26.93-1.29,1-1,2.43A2.56,2.56,0,0,0,53,96.53a2.83,2.83,0,0,1,1.43,3.31c-.28,1.15-2,.24-3.23-.27a22.41,22.41,0,0,1-3.89-3C45.71,94.9,45,91.66,46.22,89.8Z"/><path class="cls-9" d="M89.54,39.58c37-.07,37.21,29.56,35.57,48.87,2.53-4.53,10-2.84,9.43,4.41-.6,7-11.2,10.11-11,9.34-3,15.74-20.47,24.48-33.95,25.73h-.29V39.58Z"/><path class="cls-8" d="M132.94,89.8a3.67,3.67,0,0,0-5.43-1,2.86,2.86,0,0,0-.88,3.22c.27.93,1.31,1,1.05,2.43a2.52,2.52,0,0,1-1.5,2.06,3.34,3.34,0,0,0-1.27,1.31,3.39,3.39,0,0,0-.16,2c.28,1.15,2,.24,3.23-.27a22.79,22.79,0,0,0,3.89-3C133.45,94.9,134.17,91.66,132.94,89.8Z"/><path class="cls-2" d="M89.16,48c-12.35,0-21.39,3.4-26.87,10.1C54.65,67.42,54.93,81.72,57.76,92c.86,3.14,1.3,11.59,1.9,14.7C62.33,120.56,78.5,128,89.16,128h.29V48Z"/><path class="cls-3" d="M116,58.07c-5.44-6.65-14.37-10-26.53-10.1v80c12.17-.13,26.71-8.23,29.21-21.26.6-3.11,1-11.56,1.9-14.7C123.37,81.74,123.65,67.47,116,58.07Z"/><path class="cls-10" d="M95.67,115.4s-2.79,3-6.24,3-6.07-2.91-6.07-2.91a40,40,0,0,1,6.07-.45A50.27,50.27,0,0,1,95.67,115.4Z"/><path class="cls-11" d="M91.21,114a1.63,1.63,0,0,0-1.78,1.36A1.61,1.61,0,0,0,87.67,114a24.72,24.72,0,0,0-4.47,1.38s3.41.36,4.38.36,1.84.38,1.85-.34c0,.73.72.45,1.69.45s4.55-.47,4.55-.47A24.83,24.83,0,0,0,91.21,114Z"/><path class="cls-12" d="M118.37,29.53a1.86,1.86,0,0,0-1.84,1.58H52.29a1.88,1.88,0,1,0,0,.57h64.24a1.86,1.86,0,0,0,1.84,1.59,1.87,1.87,0,1,0,0-3.74Z"/><path class="cls-12" d="M128.31,62.75a52.17,52.17,0,0,0-3.43-13.45c-2.74-6-7.61-9.45-14.78-12.82,0-.14,0-.27,0-.4,0-10.33-9.21-18.7-20.57-18.7C78.8,17.38,70,24.89,69.09,34.46,55.16,38.17,49.82,54,48.71,61.24c-.07.52-.15,1-.22,1.51C47,73.62,48.41,78.1,49.65,80.53A16.64,16.64,0,0,1,51,83.11c.64,2.58,1.37,3.42,2.66,6.15A8.55,8.55,0,0,1,56.2,92.8c1.19,3.07,1.64,2.56,1.64,2.56S56.17,84.52,56,80.53a4.16,4.16,0,0,1,0-.59c0-1.94.89-11.62,7.35-17.19a9.66,9.66,0,0,1,1-.79C69.74,57.91,79,59.63,80,59.63c.19,0,2.3,1.61,5.33,3.12s6.72,2.87,10.45,2.7c23.16-1.17,28,11.2,28.56,13.77,0,.43-.07.87-.09,1.31-.29,3.21-.63,6.92-.88,9.42-.42,3-.79,5.41-.79,5.41s.47.51,1.64-2.56a8.39,8.39,0,0,1,2.16-3.17,33.8,33.8,0,0,1,1.94-6.52,10,10,0,0,0,.55-2.58,47.87,47.87,0,0,0,.44-5.86A98.2,98.2,0,0,0,128.31,62.75Z"/></g></g></svg>