<svg xmlns="http://www.w3.org/2000/svg" xmlns:xlink="http://www.w3.org/1999/xlink" viewBox="0 0 175 174.32"><defs><style>.cls-1{fill:none;}.cls-2{fill:#fdfdff;}.cls-3{fill:#dddb1c;}.cls-4{fill:#70a63b;}.cls-5{clip-path:url(#clip-path);}.cls-6{fill:#4f8e3a;}.cls-7{fill:#3e4d7e;}.cls-8{fill:#fff;}.cls-9{fill:#a1bc31;}.cls-10{fill:#326535;}</style><clipPath id="clip-path"><rect class="cls-1" x="79.93" y="116.6" width="21.34" height="12.57"/></clipPath></defs><title>Ativo 107ac</title><g id="Camada_2" data-name="Camada 2"><g id="Avatares"><rect class="cls-2" width="175" height="174.29" rx="39.21"/><path class="cls-3" d="M90.54,103.7v70.6H52l-1-.4c0-37.87,23.58-40.7,23.58-40.7,2.35,0,3.86-3,4.86-7.58.16-.7.3-1.43.41-2.22.21-1.29.4-2.65.54-4.09.08-.85.16-1.71.25-2.6.34-4.34.45-9,.45-13.52,0,0,5.18.51,9.37.51"/><path class="cls-4" d="M130.13,173.9l-.91.4H90.54V103.7h.08c4.19,0,9.4-.51,9.4-.51,0,4.44.11,9.09.46,13.41.08.86.16,1.73.24,2.56.16,1.47.33,2.87.55,4.2v0c.07.6.18,1.13.29,1.67,1,4.87,2.57,8.15,5,8.15,0,0,23.57,2.83,23.57,40.7"/><g class="cls-5"><path class="cls-6" d="M101.27,123.34v0a12.47,12.47,0,0,1-10.67,5.79h-.06c-6.13,0-9.7-4.47-10.61-5.76.21-1.3.4-2.66.54-4.1.08-.85.16-1.71.25-2.6a42.85,42.85,0,0,0,9.7,1.26h.12a40.57,40.57,0,0,0,9.94-1.37c.08.86.16,1.73.24,2.56.16,1.47.33,2.87.55,4.18"/></g><path class="cls-7" d="M84.08,174.22c-.26-.54-.53-1.12-.81-1.68a1.86,1.86,0,0,0-.1-.2c-.53-1.15-1.08-2.28-1.61-3.41-.44-.93-.87-1.85-1.3-2.82-1.62-3.51-3-6.72-3.85-9a54.74,54.74,0,0,1-2.36-8.65c-.08-.35-.15-.71-.21-1.06a1.52,1.52,0,0,1,0-.21c-.07-.35-.12-.7-.18-1a3.46,3.46,0,0,1-.06-.49,35.54,35.54,0,0,1,0-11.94c0-.12.07-.22.1-.34-4.45,1-22.58,7.27-22.58,40.5l.93.41H84.14Z"/><path class="cls-7" d="M97.15,174.22c.27-.54.53-1.12.81-1.68a2,2,0,0,1,.11-.2c.52-1.15,1.06-2.28,1.6-3.41.44-.93.87-1.85,1.3-2.82,1.62-3.51,3-6.72,3.86-9a55.82,55.82,0,0,0,2.35-8.65c.08-.35.15-.71.22-1.06a1.52,1.52,0,0,0,0-.21c.06-.35.12-.7.17-1,0-.15,0-.31.07-.49a35.5,35.5,0,0,0,0-11.94c0-.12-.07-.22-.09-.34,4.45,1,22.58,7.27,22.58,40.5,0,0-.31.15-.92.41H97.1Z"/><path class="cls-8" d="M86.06,174.32h-6.7c-.31-.35-.57-.68-.83-1-13.73-16.25-15.85-28.23-15.85-28.23l5.66-2.83-3.5-2.55s1.37-1.72,3.81-4.27a21.52,21.52,0,0,1,2.78-2.28,25.25,25.25,0,0,1,4.5-2.64c-.16.22-1.61,2.27-1.23,12.09,0,.66.06,1.29.16,2a2.54,2.54,0,0,0,.07.44c0,.33.09.63.16,1a.51.51,0,0,0,0,.21c0,.32.11.66.18,1a90.16,90.16,0,0,0,5.64,16.28l1.2,2.59c.47,1,1,2.12,1.46,3.15.31.59.56,1.16.83,1.72s.62,1.27.93,1.92c.23.49.46,1,.7,1.47"/><path class="cls-8" d="M118.58,145.11s-2.11,12-15.86,28.23l-.85,1H95.24c1.75-3.57,3.84-7.84,5.7-12.23l.16-.4s0,0,0,0a76.77,76.77,0,0,0,5-15.32,2.05,2.05,0,0,0,.07-.31c.07-.35.11-.67.16-1a2.45,2.45,0,0,1,0-.38c.09-.67.12-1.33.17-2a44.93,44.93,0,0,0-.49-10.1c-.07-.31-.14-.57-.21-.8,0,0,0-.06,0-.11a3.74,3.74,0,0,0-.49-1.08,26.24,26.24,0,0,1,4.46,2.64h0a21.84,21.84,0,0,1,2.81,2.29c2.41,2.54,3.77,4.26,3.77,4.26l-3.48,2.55Z"/><path class="cls-9" d="M90.11,22.74c-40.8,0-41,34-39.22,56.32-2.8-5.28-11.08-3.65-10.4,4.67.66,8,12.35,12.15,12.2,11.22,3.34,18.34,22.53,28.92,37.42,28.92l.3,0V22.75h-.3"/><path class="cls-4" d="M90.31,22.74c40.8,0,41,34,39.22,56.32,2.79-5.28,11.07-3.65,10.4,4.67-.66,8-12.35,12.15-12.19,11.22-3.35,18.34-22.55,28.92-37.43,28.92l-.31,0V22.75h.31"/><path class="cls-3" d="M90.3,32.34c-13.43,0-23.25,3.89-29.21,11.56-8.29,10.71-8,27.07-4.91,38.82.93,3.58,1.41,13.25,2.06,16.81,2.9,15.88,20.48,24.34,32.06,24.34l.31,0V32.35H90.3"/><path class="cls-9" d="M119.43,43.91c-5.9-7.61-15.6-11.5-28.82-11.56v91.5c13.22-.15,29-9.4,31.74-24.32.64-3.56,1.13-13.23,2.07-16.81,3-11.73,3.35-28.06-5-38.81"/><path class="cls-10" d="M97.58,109.6a31.53,31.53,0,0,0,8.11-3.8l2.57,2.81,1.15-1L107,104.91a31.55,31.55,0,0,0,4.16-3.67l3.16,2.23.89-1.26-3-2.12A34.06,34.06,0,0,0,115,96.36l3,2.1.89-1.26-3-2.15a27.36,27.36,0,0,0,2.08-4.24l-1.75-.62A26.89,26.89,0,0,1,114.28,94l-2.14-1.52-.9,1.26,2.22,1.57A32.67,32.67,0,0,1,110.62,99l-2.17-1.54-.9,1.26,2,1.43a31,31,0,0,1-3.88,3.36l-1.83-2-1.15,1,1.7,1.87A28.91,28.91,0,0,1,97,107.83Z"/><polygon class="cls-9" points="40.46 82.82 41.59 57.54 51.94 76.44 51.74 80.93 40.46 82.82"/><polygon class="cls-4" points="139.97 82.82 138.84 57.54 128.5 76.44 128.7 80.93 139.97 82.82"/></g></g></svg>