<svg xmlns="http://www.w3.org/2000/svg" viewBox="0 0 175 174.93"><defs><style>.cls-1{fill:#c58b8e;}.cls-2{fill:#3b2b16;}.cls-3{fill:#dcc5a1;}.cls-4{fill:#edd9b4;}.cls-5,.cls-7{fill:#bc9f82;}.cls-5{opacity:0.7;}.cls-6{fill:#ccad8b;}.cls-8{fill:#d9bf9f;}.cls-9{fill:#b47070;}.cls-10{fill:#c17874;}.cls-11{fill:#4d1913;}.cls-12{fill:#fdfbf8;}.cls-13{fill:#d7d8dc;}.cls-14{fill:#434142;}</style></defs><title>Ativo 163ac</title><g id="Camada_2" data-name="Camada 2"><g id="Avatares"><rect class="cls-1" width="175" height="174.93" rx="39.36"/><path class="cls-2" d="M94.58,85.43c-1.6,5.32-3.42,11.41-6.84,17.49s-13.81,13.9-14.18,22.25c-.77,17.89,24.67,26.39,34.93,29.44s13.68,3.34,14.82,7.75.21,11.77.21,11.77,8.64-4.72,11.08-8.32c5.24-7.75-.49-13-.49-13s-2.13,1.82.38,5.92,2.51,7.76,1.6,8.82-4.11,4.41-4.11,4.41,15.86-4.48,12.77-17.33c-.52-2.2-2-.6,0,0,4.41,1.31,3.58,8.56,3.58,8.56s10.76-13.87-11-21.72c-2.07-.76-13.28-3.52-14.45-12.77-.64-5.12,3.12-5.57,3.81-11.83.89-8.11-10.76-6.4-15.24-14-.84-1.46,3.37-2.28,0-6.23-4.06-4.77-5.56-4.39-11.37-7.2S94.58,85.43,94.58,85.43Z"/><path class="cls-3" d="M90.27,105.43v69.18H52.52a8.57,8.57,0,0,0-.92-.39c0-10.29,1.77-18,4.33-23.64,4.24-9.36,10.62-13.37,14.75-15.06a16.4,16.4,0,0,1,4-1.19h.19a3,3,0,0,0,.5-.1c1.91-.55,3.21-3.32,4.08-7.33.16-.71.3-1.4.4-2.16.21-1.27.39-2.61.53-4,.07-.82.15-1.66.23-2.53.35-4.28.45-8.9.45-13.25C81.08,104.92,86.17,105.43,90.27,105.43Z"/><path class="cls-4" d="M129.07,174.22a5.69,5.69,0,0,0-.9.39H90.27V105.43h.08c4.1,0,9.2-.51,9.2-.51,0,4.35.11,8.93.46,13.14.07.84.16,1.69.23,2.51.17,1.45.33,2.82.53,4.08v.06c.08.58.19,1.1.29,1.63.8,3.88,2,6.73,3.66,7.68a2.78,2.78,0,0,0,.4.16,2.36,2.36,0,0,0,.84.15s11.68,1.41,18.43,15.52C127.14,155.6,129.07,163.45,129.07,174.22Z"/><path class="cls-5" d="M100.77,124.68v0a12.17,12.17,0,0,1-10.45,5.67h0a13.11,13.11,0,0,1-10.4-5.65c.21-1.25.39-2.6.53-4,.07-.84.15-1.69.23-2.56a41.43,41.43,0,0,0,9.53,1.24h.11a39.16,39.16,0,0,0,9.74-1.34c.07.84.16,1.69.23,2.5C100.41,122,100.56,123.38,100.77,124.68Z"/><path class="cls-6" d="M90.24,31.07c-39.4-.07-39.63,31.47-37.87,52-2.7-4.82-10.69-3-10,4.7.63,7.4,11.92,10.76,11.76,9.94,3.23,16.76,21.79,26.06,36.15,27.39h.31V31.07Z"/><path class="cls-7" d="M44.31,84.54a3.9,3.9,0,0,1,5.77-1A3,3,0,0,1,51,86.93c-.28,1-1.39,1.07-1.11,2.58a2.7,2.7,0,0,0,1.6,2.2,3.69,3.69,0,0,1,1.35,1.39A3.62,3.62,0,0,1,53,95.24c-.31,1.23-2.19.25-3.45-.29a23.42,23.42,0,0,1-4.13-3.19C43.77,90,43,86.53,44.31,84.54Z"/><path class="cls-8" d="M90.43,31.07c39.39-.07,39.62,31.47,37.87,52,2.7-4.82,10.69-3,10,4.7-.63,7.4-11.92,10.76-11.76,9.94-3.23,16.76-21.79,26.06-36.15,27.39h-.29V31.07Z"/><path class="cls-7" d="M136.64,84.54a3.91,3.91,0,0,0-5.78-1,3,3,0,0,0-.93,3.43c.27,1,1.38,1.07,1.11,2.58a2.68,2.68,0,0,1-1.6,2.2,3,3,0,0,0-1.52,3.53c.3,1.23,2.18.25,3.45-.29a23.79,23.79,0,0,0,4.13-3.19C137.18,90,138,86.53,136.64,84.54Z"/><path class="cls-3" d="M90,40c-13.16,0-22.79,3.62-28.61,10.75-8.14,10-7.84,25.19-4.82,36.12.91,3.34,1.38,12.34,2,15.65,2.83,14.77,20.06,22.65,31.41,22.65l.3,0V40Z"/><path class="cls-4" d="M118.58,50.77C112.8,43.68,103.28,40.06,90.33,40v85.14c13-.13,28.45-8.75,31.11-22.63.63-3.31,1.1-12.31,2-15.65C126.45,76,126.75,60.77,118.58,50.77Z"/><path class="cls-9" d="M97,111.81S94,115,90.32,115s-6.47-3.1-6.47-3.1a42.5,42.5,0,0,1,6.47-.48A53.1,53.1,0,0,1,97,111.81Z"/><path class="cls-10" d="M92.2,110.34a1.73,1.73,0,0,0-1.88,1.44,1.73,1.73,0,0,0-1.88-1.44,26.42,26.42,0,0,0-4.76,1.47s3.63.38,4.67.38,2,.4,2-.36c0,.77.77.47,1.79.47s4.85-.49,4.85-.49A26.42,26.42,0,0,0,92.2,110.34Z"/><path class="cls-11" d="M133,52.72c-.52-1.63-1.05-3.14-1.6-4.59V47.5c0-6.13-5-14.09-13-21.81s-13-6.14-19.62-5.91l-.05.12c-2.91-.67-18.51-4-27.8-.31-10.26,4.09-18.67,11.12-24.6,30s-1.06,34.31.09,40.9c3.64,20.88,21.12,34.1,21.12,34.1a46.26,46.26,0,0,1-6.39-11.14A65.11,65.11,0,0,1,57.35,90.8c0-10.9,10-24.42,10-24.42a53.45,53.45,0,0,0-5.51,17.8,27.6,27.6,0,0,0,3.91,16.52s-6.11-12.1,3.66-21.13A69.38,69.38,0,0,0,77.17,71v0c-2.45,7.14,2.47,13.14,2.47,13.14s-.09-9.15,5-12.27C97.05,64.26,99,61.13,100.77,55a14.72,14.72,0,0,0,.46-2.35l11.35,17.65c.53.77,1.4,2.07,2.41,3.74C117.92,79,122,87,122,94a65.06,65.06,0,0,1-3.82,22.63,46.22,46.22,0,0,1-6.38,11.13s17.48-13.21,21.12-34.09C134.06,87,138.93,71.58,133,52.72Z"/><path class="cls-12" d="M119.51,138.39c-5.08-2.43-11.11-4-10.79-3.23,3.3,4.61,2.06,8.48,1.52,15.1-.84,10.29-7.55,7.78-20,7.66-12.49.12-19.2,2.63-20-7.66-.55-6.62-1.77-10.49,1.52-15.1.32-.73-5.7.8-10.79,3.23a53.39,53.39,0,0,0-9.23,5.73A9.35,9.35,0,0,1,57,150a48.87,48.87,0,0,1,1.54,10.44c.55,7.92,4.54,11.47,4.31,14.13h54.64c-.24-2.66,3.76-6.21,4.31-14.13A49.52,49.52,0,0,1,123.37,150a9.35,9.35,0,0,1,5.37-5.92A53.39,53.39,0,0,0,119.51,138.39Z"/><path class="cls-13" d="M84.72,135.12c.58,8.94-3.33,19.07-4.21,22a36.24,36.24,0,0,1-4.29,8.38s3.37.31,3.87.29,4.92,1.11,6-2.23,5.39-25.07,5-25.62-1.38-2.8-1.38-2.8Z"/><path class="cls-14" d="M78.8,127.33c2.43.84,7.1,2.48,11.68,2.31A98,98,0,0,0,102.4,128s3.33,3.87.53,5.44-20.4,4-26-.28C76,132.46,78.8,127.33,78.8,127.33Z"/><path class="cls-14" d="M87,129.43c.45-.31,2.4,0,3.81,0s2-.43,3.2,0,2,3.82,2,4.35,0,1.67-.56,1.73,0,3.23.09,4.62c1.56,24.21-2.05,30.3-2.8,30.74s-13.37.78-13.37.78,3.44-7.69,4.77-11.92a103.12,103.12,0,0,0,4-23.62s-1.47.46-1.47-.85S85.8,130.26,87,129.43Z"/></g></g></svg>