<svg xmlns="http://www.w3.org/2000/svg" viewBox="0 0 174.4 174.4"><defs><style>.cls-1{fill:#e3b142;}.cls-2{fill:#dcc5a1;}.cls-3{fill:#edd9b4;}.cls-4,.cls-8{fill:#bc9f82;}.cls-4{opacity:0.7;}.cls-5{fill:#841720;}.cls-6{fill:#511e1e;}.cls-7{fill:#ccad8b;}.cls-9{fill:#d9bf9f;}.cls-10{fill:#aa6568;}</style></defs><title>Ativo 128ac</title><g id="Camada_2" data-name="Camada 2"><g id="Avatares"><rect class="cls-1" width="174.4" height="174.33" rx="39.23"/><path class="cls-2" d="M87.69,112.22v62.15H53.79c-.55-.24-.84-.35-.84-.35,0-33.34,20.76-35.83,20.76-35.83,2.07,0,3.4-2.65,4.28-6.69.15-.61.26-1.25.36-1.94.19-1.13.36-2.34.47-3.6.08-.75.15-1.51.22-2.29.31-3.82.4-8,.4-11.9C79.44,111.77,84,112.22,87.69,112.22Z"/><path class="cls-3" d="M122.55,174s-.31.11-.81.35h-34V112.22h.07c3.69,0,8.28-.45,8.28-.45,0,3.91.09,8,.4,11.8.07.76.15,1.52.22,2.25.14,1.3.28,2.53.47,3.69v0c.08.53.17,1,.26,1.47.89,4.29,2.26,7.18,4.4,7.18C101.79,138.19,122.55,140.68,122.55,174Z"/><path class="cls-4" d="M97.13,129.51v0a11,11,0,0,1-9.39,5.1h0a11.85,11.85,0,0,1-9.34-5.08c.19-1.13.36-2.34.47-3.6.08-.75.15-1.51.22-2.29a37.71,37.71,0,0,0,8.56,1.11h.09a35.15,35.15,0,0,0,8.75-1.21c.07.76.15,1.52.22,2.25C96.8,127.12,96.94,128.35,97.13,129.51Z"/><path class="cls-5" d="M116.42,148.07a23.89,23.89,0,0,0-10.79-9.3L88,168.57l-.19.33-.2-.33L70,138.77a23.89,23.89,0,0,0-10.79,9.3,14.44,14.44,0,0,1,2.8,5.71c2.23,8,.95,17.74.5,20.62h50.6c-.45-2.88-1.74-12.63.5-20.62A14.44,14.44,0,0,1,116.42,148.07Z"/><path class="cls-6" d="M140.26,77.72c0,8.29-25.47,27.75-52.8,27.75S34.66,88.69,34.66,80.4,59.2,68.82,86.53,68.82,140.26,69.42,140.26,77.72Z"/><path class="cls-7" d="M87.79,40.94c-35.91,0-36.12,30-34.52,49.57-2.46-4.64-9.75-3.21-9.15,4.1.57,7.07,10.87,10.71,10.72,9.89,2.95,16.13,19.84,25.45,33,25.45h.27V41Z"/><path class="cls-8" d="M46.41,91.52a3.4,3.4,0,0,1,5.18-1,2.92,2.92,0,0,1,.84,3.25c-.25.93-1.24,1-1,2.43a2.52,2.52,0,0,0,1.44,2.08,3.39,3.39,0,0,1,1.21,1.32,3.65,3.65,0,0,1,.17,2c-.28,1.16-2,.24-3.1-.27a21.81,21.81,0,0,1-3.72-3C45.92,96.67,45.22,93.4,46.41,91.52Z"/><path class="cls-9" d="M88,40.94c35.91,0,36.12,30,34.53,49.57,2.45-4.64,9.74-3.21,9.14,4.1-.57,7.07-10.87,10.71-10.73,9.89C118,120.63,101.08,130,88,130h-.28V41Z"/><path class="cls-8" d="M129.35,91.52a3.41,3.41,0,0,0-5.19-1,3,3,0,0,0-.84,3.25c.25.94,1.25,1,1,2.44a2.57,2.57,0,0,1-1.44,2.08,3.15,3.15,0,0,0-1.22,1.32,3.6,3.6,0,0,0-.16,2c.28,1.16,2,.24,3.1-.27a21.81,21.81,0,0,0,3.72-3C129.84,96.67,130.53,93.4,129.35,91.52Z"/><path class="cls-2" d="M87.48,49.39c-11.82,0-20.47,3.42-25.7,10.17-7.32,9.43-7,23.83-4.34,34.17.82,3.15,1.25,11.67,1.82,14.79,2.55,14,18,21.43,28.22,21.43h.28V49.4Z"/><path class="cls-3" d="M113.13,59.57c-5.2-6.7-13.75-10.12-25.37-10.17v80.54c11.63-.13,25.54-8.28,27.93-21.42.57-3.12,1-11.64,1.82-14.79C120.2,83.41,120.46,69,113.13,59.57Z"/><path class="cls-5" d="M123.31,53.33h-69a11.11,11.11,0,0,1,0-2c2.48-9.57,11.69-21,33.56-21,21.19,0,32.43,11.22,35.45,21A9.53,9.53,0,0,1,123.31,53.33Z"/><path class="cls-10" d="M122.92,64.7h-69V52.37s11.7-8.56,33.56-8.56c21.2,0,35.45,8.56,35.45,8.56Z"/><path class="cls-5" d="M86.53,68.82c-19.2.61-51.4,9.69-51.4,9.69S55,53.89,85.93,53.85c27.41,0,54.33,22.19,54.33,22.19S99.16,68.42,86.53,68.82Z"/></g></g></svg>