<svg xmlns="http://www.w3.org/2000/svg" viewBox="0 0 174.99 174.92"><defs><style>.cls-1{fill:#001f3a;}.cls-2{fill:#dcc5a1;}.cls-3{fill:#edd9b4;}.cls-4,.cls-8{fill:#bc9f82;}.cls-4{opacity:0.7;}.cls-5{fill:#b9c98e;}.cls-6{fill:#536d40;}.cls-7{fill:#ccad8b;}.cls-9{fill:#d9bf9f;}</style></defs><title>Ativo 149ac</title><g id="Camada_2" data-name="Camada 2"><g id="Avatares"><rect class="cls-1" width="174.99" height="174.92" rx="39.41"/><path class="cls-2" d="M87.78,110.59v64.33H52.68l-.86-.36c0-34.52,21.49-37.09,21.49-37.09a2.81,2.81,0,0,0,2.26-1.27,15.07,15.07,0,0,0,2.17-5.65c.14-.63.27-1.29.37-2,.19-1.17.36-2.42.49-3.72.07-.79.15-1.57.22-2.38.32-4,.42-8.25.42-12.32C79.24,110.12,84,110.59,87.78,110.59Z"/><path class="cls-3" d="M123.86,174.56s-.33.12-.83.36H87.78V110.59h.07c3.81,0,8.57-.47,8.57-.47,0,4,.1,8.3.42,12.22.07.79.15,1.57.22,2.33.14,1.35.29,2.62.49,3.82v0c.07.54.17,1,.27,1.52.72,3.51,1.77,6.13,3.27,7.06a2.34,2.34,0,0,0,1.29.37S123.86,140,123.86,174.56Z"/><path class="cls-4" d="M97.56,128.51v0a11.39,11.39,0,0,1-9.73,5.27h0a12.2,12.2,0,0,1-9.66-5.25c.19-1.18.36-2.42.48-3.72.07-.79.15-1.57.22-2.39a38.66,38.66,0,0,0,8.87,1.16h.09a36.64,36.64,0,0,0,9.06-1.25c.08.78.15,1.57.22,2.33C97.21,126,97.36,127.3,97.56,128.51Z"/><path class="cls-5" d="M123.86,174.56s-.33.12-.83.36H52.68l-.86-.36c0-34.52,21.49-37.09,21.49-37.09a2.81,2.81,0,0,0,2.26-1.27,47.74,47.74,0,0,1,8.3-.71l3.44,5.88a1.21,1.21,0,0,0,.47-.17c1.79-.84,7.69-4.56,8.32-4.56a34.17,34.17,0,0,1,4.17,0,6.52,6.52,0,0,0,2.11.84S123.86,140,123.86,174.56Z"/><path class="cls-6" d="M76.32,131.88s-1.91,5.41-1.59,5.13,3.29,4.37,13,4.37c0,0-.68-6.4-1.84-6.72S76.32,131.88,76.32,131.88Z"/><path class="cls-6" d="M99.24,131.88s1.92,5.41,1.59,5.13-3.28,4.37-13,4.37c0,0,.68-6.4,1.84-6.72S99.24,131.88,99.24,131.88Z"/><path class="cls-6" d="M83.06,168.27a9.78,9.78,0,0,0,4.07,2.26c-2.24-2-3.06-4.18-1.72-6.61.39.76.21,1.48,1.53,2.12a5.64,5.64,0,0,1-.6-2.6v-.07c0-.26.08-.51.14-.75a9.69,9.69,0,0,1,.46-1.35,3,3,0,0,0,.79,2,14.33,14.33,0,0,1,2-5l.76-1.1s-.18.77-.23,1.14c-.44,2.71-.31,5.35,3.53,7.68a3.8,3.8,0,0,0-.66-3.06s1.24-.43,2.49,2.26h0a3.49,3.49,0,0,1,.41,2.26c-.15.9-.94,1.68-1.21,2.54,3.4-1.8,4.84-4.09,5.42-6.61a6.85,6.85,0,0,0-.25-4.57,8.54,8.54,0,0,0-2.73-4c1,6.6-2.7,5-2.7,5a3.69,3.69,0,0,0,1.3-2.14,4.71,4.71,0,0,0,.13-.94v-.06c0-.08,0-.15,0-.23s0-.25,0-.36v0c0-.07,0-.12,0-.17a5.58,5.58,0,0,0-2.37-3.81,3.86,3.86,0,0,1-.67,4.38s-.1-.65-.2-1.13c-.42-1.91-1.83-3.49-3.42-5a23.16,23.16,0,0,0-3.74-2.56c.27.59.64,1.12.89,1.65a8.45,8.45,0,0,1,.51,5.94h0s-1.22,6.25-3.7,6c-2.09-.44.14-4.41.17-4.46a1.31,1.31,0,0,0,.1-1,7.25,7.25,0,0,0-3.67,6.39,5.68,5.68,0,0,0,.08.87v0h0A8,8,0,0,0,83.06,168.27Z"/><path class="cls-7" d="M87.89,36.81c-37.18,0-37.39,31-35.74,51.31-2.55-4.8-10.09-3.32-9.47,4.25.59,7.31,11.25,11.08,11.1,10.23,3,16.71,20.54,26.36,34.11,26.36h.28V36.82Z"/><path class="cls-8" d="M45.05,89.18a3.53,3.53,0,0,1,5.37-1,3.08,3.08,0,0,1,.87,3.37c-.26,1-1.28,1-1,2.52a2.61,2.61,0,0,0,1.48,2.15A3.44,3.44,0,0,1,53,97.56a3.7,3.7,0,0,1,.16,2.09c-.28,1.19-2,.24-3.2-.28a22.41,22.41,0,0,1-3.85-3.12C44.55,94.5,43.82,91.12,45.05,89.18Z"/><path class="cls-9" d="M88.07,36.81c37.18,0,37.39,31,35.73,51.31,2.56-4.8,10.1-3.32,9.48,4.25-.6,7.31-11.25,11.08-11.1,10.23C119.12,119.31,101.63,129,88.07,129h-.29V36.82Z"/><path class="cls-8" d="M130.91,89.18a3.54,3.54,0,0,0-5.38-1,3.08,3.08,0,0,0-.87,3.37c.27,1,1.29,1,1,2.52a2.6,2.6,0,0,1-1.49,2.15A3.42,3.42,0,0,0,123,97.56a3.62,3.62,0,0,0-.16,2.09c.28,1.19,2,.24,3.2-.28a22.41,22.41,0,0,0,3.85-3.12C131.41,94.5,132.13,91.12,130.91,89.18Z"/><path class="cls-2" d="M87.56,45.56c-12.23,0-21.18,3.54-26.6,10.53-7.57,9.76-7.28,24.66-4.49,35.36.86,3.27,1.29,12.09,1.89,15.33C61,121.25,77,129,87.56,129h.29V45.57Z"/><path class="cls-3" d="M114.11,56.1c-5.38-6.94-14.23-10.48-26.26-10.53V129c12-.14,26.45-8.58,28.92-22.17.59-3.24,1-12.06,1.88-15.33C121.43,80.78,121.7,65.89,114.11,56.1Z"/><path class="cls-6" d="M51.64,71.35S62.49,61.21,77.84,61s29.78,3.75,38.15,10.9,9.82,5.94,9.82,5.94a15.82,15.82,0,0,0,1.69-3.24c1-2.61,3.5-3.86,3.23-5.33s-.91-5.76-.45-7.08-1.34-9.27-8.15-14.92S109.57,31.11,90.88,30s-15.79,2.77-19.82,3.6-11.44.11-18.2,12.33c-2.94,5.31-1.86,9.12-2.47,12-.8,3.74-2.75,5.84-2.77,7.1C47.58,67.25,51.64,71.35,51.64,71.35Z"/></g></g></svg>