<svg xmlns="http://www.w3.org/2000/svg" viewBox="0 0 175 175.58"><defs><style>.cls-1{fill:#895a59;}.cls-2{fill:#dcc5a1;}.cls-3{fill:#edd9b4;}.cls-4,.cls-8{fill:#bc9f82;}.cls-4{opacity:0.7;}.cls-5{fill:#cc6b51;}.cls-6{fill:#f7f7f8;}.cls-7{fill:#ccad8b;}.cls-9{fill:#d9bf9f;}</style></defs><title>Ativo 86ac</title><g id="Camada_2" data-name="Camada 2"><g id="Avatares"><rect class="cls-1" width="175" height="175.58" rx="39.31"/><path class="cls-2" d="M91.6,109v65.21H56l-.87-.37c0-35,21.78-37.59,21.78-37.59h0c2.14-.05,3.51-2.81,4.44-7,.15-.64.27-1.32.37-2,.2-1.2.37-2.47.5-3.78.08-.8.15-1.59.23-2.42.32-4,.42-8.35.42-12.48C83,108.49,87.74,109,91.6,109Z"/><path class="cls-3" d="M128.17,173.62v.18l-.47.2h0a3.7,3.7,0,0,0-.35.17H91.6V109h.08c3.87,0,8.69-.47,8.69-.47,0,4.11.09,8.41.41,12.38.08.8.16,1.59.23,2.37.15,1.36.3,2.66.5,3.88v0c.07.55.18,1,.27,1.54.93,4.5,2.37,7.53,4.62,7.53a19.23,19.23,0,0,1,7.16,2.84C119.89,143,128.13,152.19,128.17,173.62Z"/><path class="cls-4" d="M101.51,127.12v0a11.48,11.48,0,0,1-9.85,5.35h0a12.44,12.44,0,0,1-9.8-5.32c.2-1.19.37-2.47.5-3.78.07-.8.15-1.59.22-2.41a39.08,39.08,0,0,0,9,1.16h.1a36.15,36.15,0,0,0,9.18-1.27c.07.8.15,1.6.22,2.37C101.17,124.6,101.31,125.9,101.51,127.12Z"/><path class="cls-5" d="M108.16,135a2.54,2.54,0,0,1-1.43-.84,27.83,27.83,0,0,0-2.67-3.61,3,3,0,0,1-.25-.27l-.39,2.24-11.63,5.94-11.47-5.54-.57-2.64s-.09.11-.16.15c-1.54,1.77-4.19,4.69-4.17,4.57-4.31,1-21.84,7-21.84,39.17l.9.39h74.63l.89-.39C130,142,112.47,136,108.16,135Z"/><path class="cls-6" d="M117.15,153.09a2.6,2.6,0,0,1-2.61,2.6h-8.41a2.6,2.6,0,0,1-2.61-2.6h0a2.61,2.61,0,0,1,2.61-2.6h8.41a2.61,2.61,0,0,1,2.61,2.6Z"/><path class="cls-7" d="M91.72,34.19c-37.68,0-37.9,31.43-36.22,52-2.59-4.87-10.23-3.37-9.61,4.31.61,7.4,11.41,11.23,11.26,10.37,3.09,16.92,20.81,26.71,34.57,26.71l.29,0V34.19Z"/><path class="cls-8" d="M48.3,87.26a3.56,3.56,0,0,1,5.44-1,3.09,3.09,0,0,1,.88,3.41c-.26,1-1.3,1.07-1,2.57a2.65,2.65,0,0,0,1.5,2.17,3.66,3.66,0,0,1,1.28,1.38,3.8,3.8,0,0,1,.16,2.12c-.29,1.22-2.06.25-3.25-.29a22,22,0,0,1-3.89-3.15C47.79,92.65,47.06,89.23,48.3,87.26Z"/><path class="cls-9" d="M91.9,34.19c37.68,0,37.9,31.43,36.22,52,2.59-4.87,10.23-3.37,9.6,4.31-.6,7.4-11.4,11.23-11.25,10.37-3.09,16.92-20.82,26.71-34.57,26.71l-.29,0V34.19Z"/><path class="cls-8" d="M135.31,87.26a3.55,3.55,0,0,0-5.43-1,3.08,3.08,0,0,0-.88,3.41c.25,1,1.3,1.07,1,2.57a2.61,2.61,0,0,1-1.51,2.17,3.56,3.56,0,0,0-1.27,1.38,3.8,3.8,0,0,0-.16,2.12c.28,1.22,2.06.25,3.25-.29a22.83,22.83,0,0,0,3.9-3.15C135.83,92.65,136.56,89.23,135.31,87.26Z"/><path class="cls-2" d="M91.38,43.05c-12.39,0-21.47,3.58-27,10.67-7.66,9.89-7.37,25-4.54,35.85.86,3.31,1.3,12.24,1.9,15.53,2.67,14.66,18.91,22.48,29.6,22.48l.3,0V43.06Z"/><path class="cls-3" d="M118.3,53.73c-5.45-7-14.42-10.61-26.62-10.67v84.5c12.21-.13,26.81-8.69,29.32-22.46.58-3.29,1-12.22,1.9-15.53C125.72,78.75,126,63.66,118.3,53.73Z"/><path class="cls-6" d="M109.1,119.74c-.44-2.25-4.19-4-6.08-6.09-2.5-2.74-6.48-6.4-11.29-5.33-4.82-1.07-8.8,2.59-11.3,5.33-1.89,2.08-5.63,3.84-6.07,6.09-.55,2.83,1.64,6.72,2.33,9.36.58,2.29,1.28,2.59,3.94,2,2.24-.5,3.06-4.64,3.8-7.22.94-3.28,3.2-7.6,5.5-9.22a9.05,9.05,0,0,1,1.8-.93,8.71,8.71,0,0,1,1.79.93c2.31,1.62,4.56,5.94,5.51,9.22.73,2.58,1.56,6.72,3.8,7.22,2.65.6,3.34.3,4-2C107.46,126.46,109.65,122.57,109.1,119.74Z"/><path class="cls-6" d="M59.36,95.27c-.72,0,0-4.57-2.35-7.72S50.94,73.8,50.94,63.21s3.14-20,11.31-30,20.2-14.88,20.2-14.88l-5.53,6s3-4.88,13.68-8.78c8.44-3.08,13.91.36,13.91.36s-5.57-.23-7.26,2.65a9.33,9.33,0,0,1-2,1.84s2.6-6.91,14.62-1.18,11.8,16,20.16,19.12c8.56,3.23,11-.91,11-.91s-3.72,7.26-10.31,7.27a5.05,5.05,0,0,1-1.18,0,75.49,75.49,0,0,1,2.95,13.58c.48,5.93-1,10-1.49,21.05-.4,9.46-2.58,4.62-5.16,11.6a17.09,17.09,0,0,0-.91,5c-1,.28-3.47-5.69-1.67-16,1.18-6.72-4.63-32.19-18.65-27.23-8.57,3-10.73,9.24-17.14,3.74-5.52-4.74-13.25-7.46-19-3.72s-9,12.18-8,25.62C61.77,95.39,59.36,95.27,59.36,95.27Z"/></g></g></svg>