<svg xmlns="http://www.w3.org/2000/svg" xmlns:xlink="http://www.w3.org/1999/xlink" viewBox="0 0 174.99 175.57"><defs><style>.cls-1{fill:none;}.cls-2{fill:#523570;}.cls-3{fill:#dcc5a1;}.cls-4{fill:#edd9b4;}.cls-5{clip-path:url(#clip-path);}.cls-6{fill:#bc9f82;}.cls-7{fill:#422e14;}.cls-8{fill:#895a59;}.cls-9{fill:#4f4e49;}.cls-10{fill:#fdfdfd;}.cls-11{fill:#f8f7e0;}.cls-12{fill:#d9bf9f;}.cls-13{fill:#ccad8b;}</style><clipPath id="clip-path"><rect class="cls-1" x="72.85" y="118.4" width="21.14" height="12.45"/></clipPath></defs><title>Ativo 113ac</title><g id="Camada_2" data-name="Camada 2"><g id="Avatares"><rect class="cls-2" width="174.99" height="175.57" rx="39.31"/><path class="cls-3" d="M83.36,105.63v69.92H45.22c-.61-.27-.94-.4-.94-.4,0-37.51,23.35-40.3,23.35-40.3,2.33,0,3.83-3,4.81-7.52a22.12,22.12,0,0,0,.41-2.2c.21-1.27.4-2.62.53-4,.08-.85.16-1.7.25-2.58.34-4.3.44-9,.44-13.38,0,0,5.14.5,9.29.5"/><path class="cls-4" d="M122.57,175.15s-.34.13-.91.4H83.36V105.63h.08c4.15,0,9.3-.5,9.3-.5,0,4.39.12,9,.46,13.27.08.85.16,1.71.24,2.54.17,1.46.33,2.84.55,4.15v0a15.5,15.5,0,0,0,.28,1.66c1,4.82,2.54,8.08,5,8.08,0,0,23.35,2.79,23.35,40.3"/><g class="cls-5"><path class="cls-6" d="M94,125.09v0a12.42,12.42,0,0,1-10.58,5.73h0c-6.07,0-9.6-4.42-10.51-5.7.21-1.29.4-2.64.53-4.06.08-.85.16-1.71.25-2.58a42.71,42.71,0,0,0,9.62,1.25h.11a39.83,39.83,0,0,0,9.84-1.36c.08.85.16,1.71.24,2.54.17,1.46.33,2.84.55,4.15"/></g><path class="cls-7" d="M77,175.46c-.26-.53-.53-1.11-.8-1.67a1.86,1.86,0,0,0-.11-.19c-.52-1.15-1.06-2.26-1.58-3.37-.44-.92-.86-1.84-1.29-2.8-1.61-3.48-3-6.65-3.81-8.9A53.5,53.5,0,0,1,67,150c-.08-.36-.15-.72-.2-1a1.74,1.74,0,0,1,0-.22c-.07-.35-.11-.68-.16-1a2.31,2.31,0,0,1-.07-.47,35.41,35.41,0,0,1,0-11.83l.11-.34c-4.41,1-22.37,7.2-22.37,40.11l.92.4H77Z"/><path class="cls-7" d="M89.9,175.46c.27-.53.53-1.11.8-1.67a1.86,1.86,0,0,1,.11-.19c.52-1.15,1.06-2.26,1.6-3.37.43-.92.85-1.84,1.28-2.8,1.6-3.48,3-6.65,3.81-8.9A54.57,54.57,0,0,0,99.84,150c.08-.36.14-.72.21-1a.56.56,0,0,0,0-.22c.07-.35.12-.68.17-1,0-.14,0-.31.07-.47a35.65,35.65,0,0,0,0-11.83c0-.13-.07-.22-.1-.34,4.41,1,22.37,7.2,22.37,40.11l-.92.4H89.85Z"/><path class="cls-8" d="M78.92,175.56H72.28c-.3-.34-.56-.67-.82-1-13.59-16.1-15.7-28-15.7-28l5.61-2.79-3.46-2.54s1.35-1.7,3.77-4.22a21.91,21.91,0,0,1,2.76-2.26,24.22,24.22,0,0,1,4.45-2.61c-.16.21-1.6,2.24-1.22,12,0,.65.07,1.28.16,1.95,0,.17,0,.3.07.44,0,.32.09.62.16.94a.78.78,0,0,0,0,.22c0,.32.12.64.19,1a87.92,87.92,0,0,0,5.59,16.12c.4.89.79,1.72,1.18,2.57.46,1,1,2.1,1.44,3.12.3.58.56,1.15.83,1.7s.61,1.26.92,1.9l.69,1.46"/><path class="cls-8" d="M110.63,146.63s-2.08,11.86-15.71,28c-.25.3-.53.63-.84,1H87.52c1.74-3.54,3.8-7.76,5.65-12.11.06-.15.1-.28.15-.39s0,0,0-.06a75.36,75.36,0,0,0,5-15.16c0-.09,0-.18.06-.3.07-.35.11-.67.17-1,0-.12,0-.26,0-.39.09-.66.12-1.31.17-2a44.33,44.33,0,0,0-.49-10c-.07-.29-.14-.54-.21-.77,0,0,0-.07,0-.12a3.46,3.46,0,0,0-.49-1.06,25.14,25.14,0,0,1,4.41,2.61h0a22.24,22.24,0,0,1,2.79,2.27c2.38,2.51,3.73,4.21,3.73,4.21L105,143.84Z"/><path class="cls-9" d="M101.5,144.23c.16,3.7-6.74,20.55-11.79,31.33H77.15c-5.05-10.75-12-27.63-11.81-31.38a21.07,21.07,0,0,1,2-8.55,24.14,24.14,0,0,1,3.62-5.27l.17-.17h.36l12,8.39,12-8.39h.38a1.33,1.33,0,0,0,.25.29,30.21,30.21,0,0,1,2.74,3.69l.74,1.39a21,21,0,0,1,2,8.67"/><path class="cls-10" d="M98,131.89c-.58-1.49-2-2.87-2.48-4.06-.84-2-1.62-3.67-1.62-3.67a18,18,0,0,1-5.75,10.16c-3.76,3-5.7,4.45-4.28,4.76s7.45,8.65,9.37,10.89,1.62,4.32,2.12,1.29,2.2-6.11,2.37-10.06,1.82-5.35.27-9.31"/><path class="cls-10" d="M78.7,134.32A17.91,17.91,0,0,1,73,124.16s-.78,1.72-1.63,3.67c-.5,1.19-1.91,2.57-2.48,4.06-1.55,4,.1,5.34.27,9.31s1.86,7,2.37,10.06.18,1,2.11-1.29,8-10.59,9.38-10.89-.51-1.73-4.27-4.76"/><path class="cls-11" d="M83.11,101.35a.8.8,0,0,0-.16.4c-4.51-1.18-44.71-9-44.71-9,3.16,8.47,6.07,12,8.6,15.84s4,6.94,8.45,7.91,27.47.43,27.47.43,22.76.54,27.15-.42,5.94-4.06,8.46-7.91,4.43-5.4,7.6-13.86c0,0-42.09,6.13-42.86,6.64"/><path class="cls-12" d="M83.14,25.46c40.39,0,40.62,33.7,38.83,55.76,2.77-5.23,11-3.61,10.3,4.63-.66,7.93-12.23,12-12.08,11.11-3.31,18.16-22.32,28.64-37,28.64h-.31V25.47h.31"/><path class="cls-6" d="M129.68,82.36a3.83,3.83,0,0,0-5.83-1.11,3.32,3.32,0,0,0-.95,3.66c.28,1.06,1.39,1.14,1.12,2.74A2.84,2.84,0,0,1,122.41,90,3.76,3.76,0,0,0,121,91.48a4,4,0,0,0-.17,2.26c.31,1.31,2.21.27,3.48-.3a24.07,24.07,0,0,0,4.18-3.39c1.7-1.9,2.49-5.57,1.15-7.69"/><path class="cls-13" d="M82.93,25.46c-40.4,0-40.64,33.7-38.84,55.76-2.76-5.23-11-3.61-10.3,4.63C34.45,93.78,46,97.89,45.88,97c3.3,18.16,22.31,28.64,37.05,28.64h.3V25.47h-.3"/><path class="cls-6" d="M36.3,82.36a3.84,3.84,0,0,1,5.84-1.11,3.33,3.33,0,0,1,.94,3.66C42.8,86,41.69,86.05,42,87.65A2.86,2.86,0,0,0,43.57,90a3.76,3.76,0,0,1,1.37,1.49,3.93,3.93,0,0,1,.17,2.26c-.31,1.31-2.21.27-3.47-.3a23.35,23.35,0,0,1-4.18-3.39c-1.7-1.9-2.49-5.57-1.16-7.69"/><path class="cls-3" d="M83.12,35c-13.3,0-23,3.85-28.93,11.44C46,57,46.29,73.21,49.33,84.84c.92,3.56,1.4,13.13,2,16.65,2.87,15.73,20.28,24.11,31.75,24.11h.3V35l-.3,0"/><path class="cls-4" d="M112,46.42C106.13,38.88,96.51,35,83.42,35v90.61c13.1-.15,28.75-9.33,31.44-24.1.63-3.52,1.11-13.09,2-16.65,3-11.6,3.32-27.78-5-38.42"/><path class="cls-11" d="M115.55,28.41C105.43,20.74,92,13.25,82.76,14.22c-9.22-1-22.69,6.52-32.81,14.19C33.46,40.94,37.28,78.08,37.28,78.08s2.66-.65,4.2.93a14.8,14.8,0,0,1,3.92,7.35,6,6,0,0,0,2.94,3.82s-4-17.84.11-25.78c2.29-4.51,4.31-9.39,10.44-14.15,4,4.37,13.18,7.43,23.89,7.43s19.87-3,23.86-7.41c6.1,4.76,8.13,9.63,10.42,14.13,4.06,7.94.11,25.78.11,25.78a6,6,0,0,0,2.94-3.82A14.86,14.86,0,0,1,124,79c1.54-1.58,4.2-.93,4.2-.93S132.05,40.94,115.55,28.41Z"/></g></g></svg>