<svg xmlns="http://www.w3.org/2000/svg" viewBox="0 0 175 174.93"><defs><style>.cls-1{fill:#f4f1c5;}.cls-2{fill:#dcc5a1;}.cls-3{fill:#edd9b4;}.cls-4,.cls-9{fill:#bc9f82;}.cls-4{opacity:0.7;}.cls-5{fill:#fff;}.cls-6{fill:#ddca80;}.cls-7{fill:#9d7758;}.cls-8{fill:#ccad8b;}.cls-10{fill:#d9bf9f;}.cls-11{fill:#1d1e17;}</style></defs><title>Ativo 136ac</title><g id="Camada_2" data-name="Camada 2"><g id="Avatares"><rect class="cls-1" width="175" height="174.93" rx="39.55"/><path class="cls-2" d="M88.34,110.17v64.76H53l-.87-.37c0-34.74,21.63-37.33,21.63-37.33h0c2.14,0,3.51-2.79,4.42-7,.15-.64.27-1.31.37-2,.2-1.18.37-2.44.5-3.75.07-.79.14-1.58.22-2.4.32-4,.42-8.29.42-12.39C79.74,109.7,84.5,110.17,88.34,110.17Z"/><path class="cls-3" d="M124.66,174.38v.18l-.48.19h0l-.35.18H88.34V110.17h.07c3.84,0,8.62-.47,8.62-.47,0,4.08.1,8.34.42,12.3.08.78.15,1.57.23,2.34.15,1.36.3,2.64.49,3.85v0c.07.54.18,1,.28,1.52.91,4.48,2.35,7.49,4.58,7.49a19,19,0,0,1,7.11,2.81C116.43,143.94,124.61,153.1,124.66,174.38Z"/><path class="cls-4" d="M98.17,128.19v0a11.39,11.39,0,0,1-9.77,5.31h-.06a12.35,12.35,0,0,1-9.73-5.29c.2-1.18.36-2.44.49-3.75.08-.79.15-1.58.23-2.39a38.41,38.41,0,0,0,8.91,1.15h.1A36.07,36.07,0,0,0,97.46,122c.08.79.15,1.58.22,2.34C97.83,125.7,98,127,98.17,128.19Z"/><path class="cls-5" d="M112.89,137.58a119.47,119.47,0,0,1-12.42,14.09c-6.51,6.25-10,14.39-11.82,22,0-.07,0-.16-.07-.24-.25-1.13-.57-2.24-.92-3.38v0a42.41,42.41,0,0,0-10.8-18.35,119,119,0,0,1-13-14.86,38.1,38.1,0,0,1,5.06-5c1.56-1.21,2.7-2.2,3.59-3h0c1.83.51,3.66,1,5.49,1.33a52,52,0,0,0,11,1.13,48.57,48.57,0,0,0,9-1,52.24,52.24,0,0,0,5.59-1.35h0c.9.79,2,1.73,3.5,2.89A47.49,47.49,0,0,1,112.89,137.58Z"/><path class="cls-6" d="M124.46,174.38a4.46,4.46,0,0,0-.48.37h0l-.35.18H52.81l-.87-.37c0-15.43,4.26-24.52,9-29.86,5.93-6.68,12.61-7.47,12.61-7.47h0c1.46,3.85.35,3.11,1.42,6.39a8.48,8.48,0,0,0,2.7,3.63,48.33,48.33,0,0,0,6.86,11.5,17.64,17.64,0,0,1,3.42,8,17.75,17.75,0,0,1,3.42-8,48.72,48.72,0,0,0,6.79-11.33,39.93,39.93,0,0,0,3.56-2.61c.55-.42,1.12,3.95,1.71,3.31a89.85,89.85,0,0,0,6.45-8.08,24.64,24.64,0,0,1,5.55,4.71,31.27,31.27,0,0,1,4.61,7.09C122.64,157.18,124.43,164.46,124.46,174.38Z"/><path class="cls-7" d="M88.56,174.33a5.13,5.13,0,0,1,0,.6l-.52-.3-.54-.3L64,161.33l8.42-10.92s-3.62-3.75-5.73-5.48c-1-.79-3.39-.62-5.7-.23a49.51,49.51,0,0,0-5.17,1.2c.32-.47,4.11-5.76,8.07-10.23a38.1,38.1,0,0,1,5.06-5c1.56-1.21,2.7-2.2,3.59-3h0c.82-.74,1.46-1.33,2-1.85,1.19.49,2.41.91,3.6,1.28-.05.61-.1,1.26-.16,1.9-.09,1-.19,2.05-.31,2.89-.4,2.91-2.56,6-2.16,8.47a30.08,30.08,0,0,0,2.18,6.91,48.33,48.33,0,0,0,6.86,11.5,17.64,17.64,0,0,1,3.42,8,32.28,32.28,0,0,1,.57,5.54C88.61,173.15,88.58,173.87,88.56,174.33Z"/><path class="cls-7" d="M103.64,150.41l8.43,10.92-23.51,13-.55.3-.52.3s0-.23,0-.6a35.16,35.16,0,0,1,.19-5.43v0c.1-.67.2-1.39.35-2.13a17.75,17.75,0,0,1,3.42-8,48.72,48.72,0,0,0,6.79-11.33,32.79,32.79,0,0,0,2.25-7.08c.4-2.47-1.76-5.56-2.15-8.47-.1-.81-.2-1.75-.3-2.75-.07-.63-.12-1.25-.18-1.87,1.27-.37,2.53-.79,3.79-1.28.57.49,1.2,1.09,2,1.8h0c.9.8,2,1.73,3.5,2.89a48.22,48.22,0,0,1,5.75,5.78c3.68,4.3,7.08,9,7.38,9.46-.2-.05-2.38-.7-4.78-1.15s-5.08-.66-6.12.18C107.25,146.66,103.64,150.41,103.64,150.41Z"/><path class="cls-8" d="M87.91,35.9c-37.42,0-37.63,31.22-36,51.65-2.57-4.84-10.16-3.35-9.54,4.28C43,99.18,53.74,103,53.59,102.12c3.06,16.82,20.67,26.53,34.32,26.53l.29,0V35.91Z"/><path class="cls-9" d="M44.8,88.6a3.54,3.54,0,0,1,5.4-1A3.06,3.06,0,0,1,51.08,91c-.26,1-1.3,1.06-1,2.55a2.64,2.64,0,0,0,1.49,2.16,3.47,3.47,0,0,1,1.26,1.38,3.65,3.65,0,0,1,.17,2.1c-.28,1.21-2.05.25-3.23-.29a23,23,0,0,1-3.87-3.13C44.29,94,43.57,90.57,44.8,88.6Z"/><path class="cls-10" d="M88.09,35.9c37.43,0,37.65,31.22,36,51.65,2.56-4.84,10.16-3.35,9.54,4.28-.6,7.35-11.33,11.15-11.18,10.29-3.06,16.82-20.67,26.53-34.34,26.53l-.28,0V35.91Z"/><path class="cls-9" d="M131.22,88.6a3.54,3.54,0,0,0-5.4-1,3.06,3.06,0,0,0-.88,3.38c.25,1,1.29,1.06,1,2.55a2.6,2.6,0,0,1-1.5,2.16,3.54,3.54,0,0,0-1.26,1.38,3.74,3.74,0,0,0-.17,2.1c.29,1.21,2,.25,3.23-.29a22.22,22.22,0,0,0,3.87-3.13C131.72,94,132.45,90.57,131.22,88.6Z"/><path class="cls-2" d="M87.59,44.7c-12.32,0-21.32,3.56-26.78,10.6-7.61,9.82-7.33,24.83-4.52,35.6.86,3.29,1.31,12.17,1.89,15.43,2.66,14.56,18.79,22.32,29.41,22.32l.29,0V44.71Z"/><path class="cls-3" d="M114.31,55.31c-5.41-7-14.32-10.54-26.43-10.6v83.92c12.12-.12,26.61-8.63,29.11-22.3.59-3.26,1-12.14,1.89-15.43C121.68,80.16,122,65.17,114.31,55.31Z"/><path class="cls-11" d="M103.52,115.39a9.14,9.14,0,0,0-1-2.1c-1.6-6.5-7.74-11.4-15.21-11.78v0l-.38,0-.37,0v0c-7.46.38-13.6,5.28-15.22,11.78a9.12,9.12,0,0,0-.94,2.1c-1.19,4.1-1.74,7.24,1.36,17h0s14,23.49,30.35,0h0C105.26,122.63,104.7,119.49,103.52,115.39ZM84.6,111.51a18.63,18.63,0,0,1,2.38-.22,18.45,18.45,0,0,1,2.39.22c4.37.71,6.42,3,8.88,6.19-.76.29.14.48-.7.56-2.53.25-8.25-.68-10.19-1v-.12h-.08l-.3,0-.28,0h-.09v.12c-1.94.34-7.65,1.27-10.19,1-.85-.08,0-.27-.7-.56C78.18,114.51,80.24,112.22,84.6,111.51Z"/><path class="cls-11" d="M124.17,38a22.84,22.84,0,0,0-8.67-4.82S104.8,27.83,96.64,24s-21.42-.76-28.3,1S53.27,36.56,50.71,41.9,41.83,58.82,39.79,67.21s4.82,16.5,9.09,18.24c2.78,1.13,3,7.64,3,7.64l3,1.34a23.85,23.85,0,0,1-1.6-9.14C53.47,82.23,53,73,53,73s13.08-2.59,22.71-5.18c-3.25,4-5.93,6.67-5.93,6.67a35.39,35.39,0,0,0,13.7-8.68A109.72,109.72,0,0,1,73,78.41,36.84,36.84,0,0,0,90.23,65.75,101.71,101.71,0,0,1,77,82.6C95.2,76.44,101.63,57,102.46,54.23a.67.67,0,0,0,.15-.14A30.09,30.09,0,0,1,113.5,59.5c4.82,3.57,10.76,8.51,10.76,19.19,0,3.57-1.61,14-1.61,14l1.61-1.13s0-4,4.57-6.55c3.64-2,4.57-8.87,4.57-11.69C133.4,54.36,128,41.55,124.17,38Z"/></g></g></svg>