<svg xmlns="http://www.w3.org/2000/svg" viewBox="0 0 174.37 174.54"><defs><style>.cls-1{fill:#c1667a;}.cls-2{fill:#dcc5a1;}.cls-3{fill:#edd9b4;}.cls-4,.cls-6{fill:#bc9f82;}.cls-4{opacity:0.7;}.cls-5{fill:#ccad8b;}.cls-7{fill:#d9bf9f;}.cls-8{fill:#fff;}.cls-9{fill:#82acc6;}.cls-10{fill:#3f3859;}</style></defs><title>Ativo 95ac</title><g id="Camada_2" data-name="Camada 2"><g id="Avatares"><rect class="cls-1" width="174.37" height="174.29" rx="39.4"/><path class="cls-2" d="M81.75,109.23v65H46.31l-.86-.38c0-34.84,21.69-37.45,21.69-37.45h0c2.14,0,3.5-2.79,4.42-7a19.79,19.79,0,0,0,.38-2c.2-1.19.37-2.45.49-3.76.08-.79.15-1.59.23-2.41.32-4,.42-8.32.42-12.43C73.13,108.76,77.9,109.23,81.75,109.23Z"/><path class="cls-3" d="M118.19,173.65v.17l-.47.2h0a2.87,2.87,0,0,0-.34.18H81.75v-65h.08c3.85,0,8.66-.47,8.66-.47,0,4.09.09,8.37.41,12.34.08.79.15,1.58.23,2.35.15,1.36.3,2.65.49,3.86v0c.08.54.18,1,.28,1.53.91,4.49,2.36,7.5,4.6,7.5a19.15,19.15,0,0,1,7.13,2.83C109.94,143.11,118.14,152.3,118.19,173.65Z"/><path class="cls-4" d="M91.63,127.31v0a11.46,11.46,0,0,1-9.82,5.32h0A12.36,12.36,0,0,1,72,127.37c.19-1.19.36-2.46.49-3.77.08-.79.15-1.59.22-2.4a39.37,39.37,0,0,0,9,1.16h.1a36.89,36.89,0,0,0,9.15-1.26c.07.79.15,1.58.22,2.35C91.28,124.81,91.43,126.1,91.63,127.31Z"/><path class="cls-5" d="M81.87,34.73c-37.55,0-37.76,31.32-36.09,51.81-2.58-4.86-10.19-3.36-9.57,4.3.6,7.36,11.37,11.18,11.22,10.32C50.5,118,68.16,127.77,81.87,127.77h.28v-93Z"/><path class="cls-6" d="M38.61,87.6a3.56,3.56,0,0,1,5.42-1,3.1,3.1,0,0,1,.88,3.4c-.26,1-1.3,1.06-1,2.56a2.65,2.65,0,0,0,1.5,2.17,3.56,3.56,0,0,1,1.27,1.38,3.85,3.85,0,0,1,.16,2.11c-.29,1.21-2,.24-3.24-.3a21.89,21.89,0,0,1-3.88-3.14C38.1,93,37.37,89.57,38.61,87.6Z"/><path class="cls-7" d="M82.05,34.73c37.54,0,37.76,31.32,36.09,51.81,2.57-4.86,10.19-3.36,9.57,4.3-.61,7.36-11.37,11.18-11.22,10.32-3.08,16.87-20.74,26.61-34.44,26.61h-.29v-93Z"/><path class="cls-6" d="M125.3,87.6a3.55,3.55,0,0,0-5.41-1A3.1,3.1,0,0,0,119,90c.26,1,1.3,1.06,1,2.56a2.61,2.61,0,0,1-1.5,2.17,3.49,3.49,0,0,0-1.27,1.38,3.76,3.76,0,0,0-.16,2.11c.28,1.21,2,.24,3.24-.3a22.26,22.26,0,0,0,3.88-3.14C125.82,93,126.54,89.57,125.3,87.6Z"/><path class="cls-2" d="M81.53,43.56c-12.34,0-21.39,3.57-26.86,10.63C47,64,47.32,79.09,50.15,89.9c.85,3.3,1.29,12.2,1.89,15.47,2.66,14.62,18.84,22.4,29.49,22.4h.3V43.56Z"/><path class="cls-3" d="M108.35,54.2c-5.43-7-14.36-10.57-26.52-10.64v84.2c12.16-.13,26.71-8.66,29.21-22.39.58-3.27,1-12.17,1.89-15.47C115.74,79.12,116,64.09,108.35,54.2Z"/><path class="cls-8" d="M117,38.15a22.08,22.08,0,0,0-8.44-4.69s-10.42-5.2-18.36-8.91-20.84-.74-27.54,1S47.93,36.77,45.45,42,36.8,58.43,34.81,66.59s4.69,16.07,8.85,17.76c2.71,1.1,2.88,7.44,2.88,7.44l3,1.3A23.09,23.09,0,0,1,48,84.19c.18-3-.31-11.91-.31-11.91s12.73-2.53,22.11-5C66.58,71.09,64,73.71,64,73.71a34.38,34.38,0,0,0,13.34-8.43A107.74,107.74,0,0,1,67.18,77.5,35.89,35.89,0,0,0,83.91,65.18a99.37,99.37,0,0,1-12.84,16.4C88.75,75.58,95,56.67,95.82,54l.15-.13a29.28,29.28,0,0,1,10.59,5.26c4.7,3.48,10.47,8.28,10.47,18.68,0,3.48-1.56,13.59-1.56,13.59l1.56-1.1s0-3.92,4.45-6.37c3.55-2,4.45-8.63,4.45-11.39C125.93,54.08,120.67,41.62,117,38.15Z"/><path class="cls-9" d="M98.25,135.13a2.5,2.5,0,0,1-1.42-.84,29.34,29.34,0,0,0-2.66-3.6,2.94,2.94,0,0,1-.25-.26l-.39,2.22-11.59,5.93-11.43-5.52-.57-2.63a1.2,1.2,0,0,1-.16.15c-1.54,1.75-4.18,4.67-4.15,4.55-4.29,1-21.77,7-21.77,39l.9.38h74.36l.9-.38C120,142.13,102.55,136.12,98.25,135.13Z"/><path class="cls-8" d="M68.47,161.83H67L66.53,155l-1.4,6.86h-.6L63.18,155l-.49,6.86h-1.5l1-11.91h1.5l1.18,6.35,1.24-6.35H67.6Z"/><path class="cls-8" d="M73.4,161.83H70.09V149.92H73.4v2.58H71.6v2h1.7v2.58H71.6v2.13h1.8Z"/><path class="cls-8" d="M80.6,161.83H78.78L77.53,158l-1.3,3.87H74.41l2.27-6.35-1.86-5.56h1.86l.86,3.09.91-3.09h1.86l-1.9,5.56Z"/><path class="cls-8" d="M83.38,161.83H81.87V149.92h1.51Z"/><path class="cls-8" d="M89.45,161.55a2.29,2.29,0,0,1-1.38.6,2.4,2.4,0,0,1-2-1.43,11,11,0,0,1,0-9.61,2.42,2.42,0,0,1,2-1.44,2.31,2.31,0,0,1,1.36.6V154a3.26,3.26,0,0,0-.44-.81,1.12,1.12,0,0,0-.87-.5,1.23,1.23,0,0,0-1,.72,4.92,4.92,0,0,0-.55,2.53,4.87,4.87,0,0,0,.55,2.51,1.23,1.23,0,0,0,1,.72,1.12,1.12,0,0,0,.87-.5,3.21,3.21,0,0,0,.44-.81Z"/><path class="cls-8" d="M96.59,161.83H95l-.38-2.08H92.5l-.39,2.08h-1.6l2.24-11.91H94.4Zm-2.4-4.43-.63-3.8-.63,3.8Z"/><path class="cls-8" d="M103.72,161.83H102.2l-2.77-7.29v7.29H97.91V149.92h1.52l2.77,7.28v-7.28h1.52Z"/><path class="cls-10" d="M80,164.68l-.9,5.64h-.76l-.52-3.27-.55,3.27H76.5l-.85-5.64h.78l.49,3.64.6-3.64h.59l.57,3.64.53-3.64Z"/><path class="cls-10" d="M82.22,170.32H80.6v-5.64h1.62v1.23h-.88v1h.84v1.22h-.84v1h.88Z"/><path class="cls-10" d="M85.72,170.32h-.79l-.18-1h-1l-.2,1h-.78l1.09-5.64h.81Zm-1.17-2.1-.31-1.8-.31,1.8Z"/><path class="cls-10" d="M88.74,170.32h-.92l-.71-2.16v2.16h-.74v-5.64h1.15a.8.8,0,0,1,.75.6,3,3,0,0,1,.2,1.14,2.62,2.62,0,0,1-.23,1.19.8.8,0,0,1-.39.4Zm-1-3.82a1.13,1.13,0,0,0-.11-.51.36.36,0,0,0-.34-.19h-.14v1.4h.14a.35.35,0,0,0,.34-.19A1.13,1.13,0,0,0,87.7,166.5Z"/><rect class="cls-10" x="92.11" y="164.73" width="12.1" height="5.77"/><rect class="cls-10" x="61.23" y="164.55" width="12.1" height="5.77"/></g></g></svg>