<svg xmlns="http://www.w3.org/2000/svg" viewBox="0 0 175 174.92"><defs><style>.cls-1{fill:#653e59;}.cls-2{fill:#d19a30;}.cls-3{fill:#dcc5a1;}.cls-4{fill:#edd9b4;}.cls-5,.cls-8{fill:#bc9f82;}.cls-5{opacity:0.7;}.cls-6{fill:#511e1e;}.cls-7{fill:#ccad8b;}.cls-9{fill:#d9bf9f;}.cls-10{fill:#b47070;}.cls-11{fill:#c17874;}.cls-12{fill:#111;}.cls-13{fill:none;}.cls-14{fill:#070707;}.cls-15{fill:#e3b142;}.cls-16{fill:#841720;}.cls-17{fill:#aa6568;}</style></defs><title>Ativo 119ac</title><g id="Camada_2" data-name="Camada 2"><g id="Avatares"><rect class="cls-1" width="175" height="174.92" rx="39.41"/><path class="cls-2" d="M91.56,91a77.16,77.16,0,0,1-6.43,16.46c-3.22,5.72-13,13.08-13.34,20.93C71.06,145.2,95,153.2,104.65,156.07s12.88,3.15,14,7.29.19,11.08.19,11.08,8.13-4.44,10.43-7.83c4.93-7.29-.46-12.25-.46-12.25s-2,1.71.35,5.57,2.36,7.3,1.5,8.3-3.86,4.15-3.86,4.15,14.92-4.21,12-16.31c-.5-2.07-1.86-.56,0,0,4.15,1.23,3.37,8.06,3.37,8.06s10.12-13.06-10.38-20.45c-2-.7-12.51-3.31-13.59-12-.61-4.82,2.93-5.24,3.58-11.13.83-7.63-10.13-6-14.34-13.21-.8-1.37,3.17-2.15,0-5.86-3.83-4.48-5.24-4.13-10.7-6.78S91.56,91,91.56,91Z"/><path class="cls-3" d="M87.51,109.79V174.9H52a7.92,7.92,0,0,0-.87-.38c0-9.68,1.66-16.9,4.08-22.24,4-8.8,10-12.58,13.88-14.17A15,15,0,0,1,72.86,137H73a3.89,3.89,0,0,0,.47-.09c1.79-.52,3-3.13,3.84-6.91.15-.67.27-1.32.37-2,.2-1.2.37-2.46.5-3.8.08-.77.14-1.56.23-2.38.32-4,.42-8.37.42-12.46C78.87,109.32,83.65,109.79,87.51,109.79Z"/><path class="cls-4" d="M124,174.52a5.36,5.36,0,0,0-.84.38H87.51V109.79h.07c3.86,0,8.67-.47,8.67-.47,0,4.09.1,8.39.42,12.36.08.8.16,1.59.23,2.35.15,1.37.3,2.66.49,3.85v.06c.08.54.19,1,.28,1.53.75,3.65,1.84,6.33,3.44,7.23a2.35,2.35,0,0,0,.37.14,2.18,2.18,0,0,0,.8.15s11,1.32,17.33,14.6C122.2,157,124,164.39,124,174.52Z"/><path class="cls-5" d="M97.39,127.9v0a11.47,11.47,0,0,1-9.83,5.33h0A12.36,12.36,0,0,1,77.72,128c.2-1.19.37-2.45.5-3.77.07-.79.14-1.59.22-2.41a38.3,38.3,0,0,0,9,1.17h.1a36.44,36.44,0,0,0,9.16-1.26c.08.79.16,1.59.23,2.35C97.05,125.4,97.2,126.69,97.39,127.9Z"/><path class="cls-6" d="M155,83.4c0,10.65-32.71,35.65-67.82,35.65S19.31,97.5,19.31,86.85,50.84,72,85.94,72,155,72.75,155,83.4Z"/><path class="cls-7" d="M87.48,39.82c-37.07-.07-37.29,29.62-35.64,49-2.53-4.54-10.06-2.86-9.44,4.42.59,7,11.21,10.12,11.07,9.36,3,15.77,20.51,24.52,34,25.77h.28V39.83Z"/><path class="cls-8" d="M44.26,90.14a3.68,3.68,0,0,1,5.44-1,2.83,2.83,0,0,1,.87,3.23c-.26.93-1.3,1-1,2.43A2.54,2.54,0,0,0,51,96.88,3.37,3.37,0,0,1,52.3,98.2a3.32,3.32,0,0,1,.17,2c-.28,1.16-2.06.24-3.24-.27a21.69,21.69,0,0,1-3.9-3C43.75,95.25,43,92,44.26,90.14Z"/><path class="cls-9" d="M87.67,39.82c37.06-.07,37.28,29.62,35.63,49,2.54-4.54,10.06-2.86,9.45,4.42-.6,7-11.22,10.12-11.07,9.36-3,15.77-20.5,24.52-34,25.77h-.29V39.83Z"/><path class="cls-8" d="M131.14,90.14a3.67,3.67,0,0,0-5.43-1,2.85,2.85,0,0,0-.88,3.23c.26.93,1.3,1,1,2.43a2.54,2.54,0,0,1-1.5,2.06,3.33,3.33,0,0,0-1.28,1.32,3.39,3.39,0,0,0-.16,2c.29,1.16,2.06.24,3.24-.27a21.63,21.63,0,0,0,3.89-3C131.66,95.25,132.38,92,131.14,90.14Z"/><path class="cls-3" d="M87.29,48.22c-12.38,0-21.44,3.41-26.93,10.12C52.7,67.72,53,82,55.83,92.33c.85,3.14,1.3,11.61,1.9,14.72,2.67,13.9,18.88,21.31,29.56,21.31h.28V48.23Z"/><path class="cls-4" d="M114.15,58.35c-5.44-6.67-14.4-10.07-26.58-10.12v80.12c12.19-.12,26.76-8.24,29.28-21.3.58-3.11,1-11.58,1.9-14.72C121.56,82.07,121.84,67.77,114.15,58.35Z"/><path class="cls-10" d="M93.8,115.8s-2.79,3-6.24,3-6.09-2.92-6.09-2.92a40.23,40.23,0,0,1,6.09-.45A49,49,0,0,1,93.8,115.8Z"/><path class="cls-11" d="M89.33,114.41a1.63,1.63,0,0,0-1.77,1.36,1.63,1.63,0,0,0-1.77-1.36,24.75,24.75,0,0,0-4.48,1.39s3.41.35,4.4.35,1.83.38,1.85-.34c0,.73.72.45,1.68.45s4.56-.46,4.56-.46A24.59,24.59,0,0,0,89.33,114.41Z"/><path class="cls-12" d="M82.44,92.8c0,4.44-6.57,8.85-14.3,9h-.53c-.65,0-1.28,0-1.85,0-9.38-.43-10.68-4.24-10.68-8.53,0-4.54-2.74-8.21,13.44-8.21,2.46,0,4.47.07,6.15.22a19,19,0,0,1,5,.93C83.28,87.55,82.44,89.89,82.44,92.8Z"/><path class="cls-12" d="M120.92,93.29c0,4.56-1.49,8.56-12.54,8.56-.47,0-.94,0-1.38,0a17.17,17.17,0,0,1-2.43-.3c-6.22-1.15-11-4.92-11-8.7,0-4.54-2-7.72,13.93-7.72,2.37,0,4.33.07,6,.22,4.34.39,6.27,1.27,7.08,2.49C121.52,89.26,120.92,91.16,120.92,93.29Z"/><path class="cls-13" d="M72.88,85.91a53.88,53.88,0,0,0-9.77,0c-4.83.44-8.24.75-7.77,5.93.68,7.46,4.91,8.65,6.35,9,3.28.72,16.87,1.79,19.68-7.38a7.48,7.48,0,0,0-.07-5C80.75,87,75.24,86.11,72.88,85.91Z"/><path class="cls-14" d="M85.38,86.5c-1-.15-3.24-.72-5.58-1.17-2.06-.4-4.16-.69-5.32-.81a114.45,114.45,0,0,0-14.4-.18c-5.27.36-9.31.79-9.51,1.09s-.47,3,0,3.32,1.91.89,2.27,1.89,1.82,8.11,5.09,10.07c5.36,3.2,23.41,3.34,26.52-8.35.43-1.6,1-2.53,2-2.79a6.25,6.25,0,0,1,1.74-.19v-2.7A12.58,12.58,0,0,1,85.38,86.5Zm-3.8,6.91c-2.81,9.17-16.4,8.1-19.69,7.38-1.45-.32-5.67-1.51-6.34-9-.47-5.18,2.94-5.49,7.76-5.93a54,54,0,0,1,9.78,0c2.36.2,7.87,1,8.41,2.46A7.48,7.48,0,0,1,81.58,93.41Z"/><path class="cls-13" d="M102.93,85.91a54,54,0,0,1,9.78,0c4.83.44,8.24.75,7.76,5.93-.68,7.46-4.9,8.65-6.33,9-3.3.72-16.89,1.79-19.7-7.38a7.48,7.48,0,0,1,.08-5C95.07,87,100.57,86.11,102.93,85.91Z"/><path class="cls-14" d="M87.77,86.68v2.7a6.2,6.2,0,0,1,1.74.19c1,.26,1.54,1.19,2,2.79,3.12,11.69,21.15,11.55,26.53,8.35,3.26-2,4.72-9.08,5.08-10.07s1.85-1.59,2.27-1.89.11-3.11,0-3.32-4.24-.73-9.5-1.09a114.58,114.58,0,0,0-14.41.18c-1.15.12-3.26.41-5.32.81-2.33.45-4.62,1-5.58,1.17A12.62,12.62,0,0,1,87.77,86.68Zm6.62,1.69c.54-1.42,6-2.26,8.4-2.46a54,54,0,0,1,9.78,0c4.83.44,8.24.75,7.77,5.93-.68,7.46-4.9,8.65-6.35,9-3.28.72-16.87,1.79-19.69-7.38A7.41,7.41,0,0,1,94.39,88.37Z"/><path class="cls-15" d="M127.72,60.19c-.49-1.53-1-2.95-1.5-4.32v-.59c0-5.77-4.72-13.26-12.23-20.52S101.75,29,95.53,29.19l0,.12c-2.73-.63-17.43-3.78-26.16-.3-9.66,3.86-17.57,10.46-23.15,28.22s-1,32.29.08,38.49c3.43,19.64,19.88,32.08,19.88,32.08a43.8,43.8,0,0,1-6-10.48A61.26,61.26,0,0,1,56.53,96c0-10.26,9.38-23,9.38-23a50.08,50.08,0,0,0-5.18,16.74,26,26,0,0,0,3.68,15.55S58.66,94,67.85,85.46a65.28,65.28,0,0,0,7.34-8.11,0,0,0,0,0,0,0c-2.3,6.72,2.33,12.36,2.33,12.36s-.09-8.62,4.7-11.55C93.89,71.05,95.75,68.1,97.39,62.36a13.8,13.8,0,0,0,.44-2.2l10.68,16.6c.49.72,1.31,1.94,2.25,3.53,2.77,4.6,6.6,12.14,6.6,18.7a61.21,61.21,0,0,1-3.59,21.29,43.43,43.43,0,0,1-6,10.48s16.45-12.44,19.88-32.08C128.71,92.48,133.3,77.94,127.72,60.19Z"/><path class="cls-16" d="M132.68,50.84H44a13.76,13.76,0,0,1,0-2.61c3.19-12.29,15-27,43.11-27,27.22,0,41.65,14.41,45.53,27A11.61,11.61,0,0,1,132.68,50.84Z"/><path class="cls-17" d="M132.68,66.68H44V50.84s15-11,43.11-11c27.22,0,45.53,11,45.53,11Z"/><path class="cls-16" d="M85.94,72c-24.67.78-66,12.45-66,12.45S45.49,52.8,85.17,52.75c35.19,0,69.78,28.49,69.78,28.49S102.16,71.45,85.94,72Z"/><path class="cls-16" d="M115,140.8c-4.78-2.28-10.46-3.71-10.16-3,3.1,4.34,1.95,8,1.44,14.21,0,.19,0,.36-.06.54A11.87,11.87,0,0,0,88,159.2h-.81a11.86,11.86,0,0,0-18.51-6.49c0-.23-.06-.47-.07-.72-.52-6.24-1.67-9.87,1.42-14.21.31-.68-5.36.75-10.15,3a50.47,50.47,0,0,0-8.68,5.4,8.81,8.81,0,0,1,5,5.57,46.5,46.5,0,0,1,1.46,9.82c.51,7.45,4.26,10.8,4,13.31h51.43c-.23-2.51,3.52-5.86,4-13.31a46.5,46.5,0,0,1,1.46-9.82,8.81,8.81,0,0,1,5-5.57A50,50,0,0,0,115,140.8Z"/></g></g></svg>