<svg xmlns="http://www.w3.org/2000/svg" xmlns:xlink="http://www.w3.org/1999/xlink" viewBox="0 0 174.37 174.54"><defs><style>.cls-1{fill:none;}.cls-2{fill:#82acc6;}.cls-3{fill:#dcc5a1;}.cls-4{fill:#edd9b4;}.cls-5{clip-path:url(#clip-path);}.cls-6{fill:#bc9f82;}.cls-7{fill:#fdfdff;}.cls-8{fill:#c58b8e;}.cls-9{fill:#ccad8b;}.cls-10{fill:#d9bf9f;}.cls-11{fill:#b47070;}.cls-12{fill:#c17874;}.cls-13{fill:#23313c;}</style><clipPath id="clip-path"><rect class="cls-1" x="77.05" y="117.89" width="20.3" height="12.34"/></clipPath></defs><title>Ativo 100ac</title><g id="Camada_2" data-name="Camada 2"><g id="Avatares"><rect class="cls-2" width="174.37" height="174.29" rx="39.22"/><path class="cls-3" d="M87.46,105.23v69.31H49.64c-.58-.27-.92-.39-.92-.39,0-17.5,5.11-27.38,10.52-32.93,6.13-6.27,12.63-7,12.63-7h.19a3,3,0,0,0,.5-.1c1.91-.52,3.23-3.32,4.08-7.34.16-.69.29-1.4.39-2.16.22-1.28.44-2.62.55-4,.09-.85.14-1.7.23-2.57.33-4.25.45-8.87.45-13.26,0,0,4.59.45,8.57.5Z"/><path class="cls-4" d="M125.7,174.15a8.63,8.63,0,0,0-.9.39h-38V105.23h.63c4,0,8.68-.5,8.68-.5,0,4.35.1,8.93.45,13.15.07.85.15,1.69.23,2.52.17,1.45.32,2.82.52,4.12v0c.09.59.2,1.11.3,1.65.8,3.89,2,6.73,3.66,7.69a2,2,0,0,0,.41.14,2.13,2.13,0,0,0,.84.16,23,23,0,0,1,11.74,6.19,30,30,0,0,1,3.61,4.13c4.3,5.91,7.8,15.16,7.8,29.65"/><g class="cls-5"><path class="cls-6" d="M97.34,124.52v0a11.78,11.78,0,0,1-10.15,5.68h0c-5.83,0-9.22-4.39-10.09-5.65.21-1.27.38-2.62.52-4,.07-.85.15-1.7.23-2.56a39.08,39.08,0,0,0,9.25,1.24h.09a36.43,36.43,0,0,0,9.46-1.35c.08.85.16,1.68.23,2.52.15,1.45.31,2.82.51,4.11"/></g><path class="cls-7" d="M125.7,174.15a8.63,8.63,0,0,0-.9.39H49.64c-.58-.27-.92-.39-.92-.39,0-17.5,5.15-28.66,11.4-33.79a21.3,21.3,0,0,0,.21,2.42s.33,3.33.93,4.31c3.61,5.75,17.53,11.65,21.14,12l1.6.16,2.69.16h.14a4.43,4.43,0,0,1,.63,0l1.91-.13,1.58-.16c3.62-.37,17.57-6.27,21.14-12a20,20,0,0,0,1.32-4.23l-.13-.58c.16-.54-.51-2.3-.33-3.15,1.22,1.17,3.56,2.93,5,5.05,4.44,6.6,7.78,15.48,7.78,30"/><path class="cls-8" d="M84.12,174.54H79.9c.14-2.55.32-6.63.32-8.93s.48-4.83-3.82-7.93-15.52-2.85-16.63-10.23a17.23,17.23,0,0,1-.1-4.49v0a15.88,15.88,0,0,1,.66-3.31s2.12-1.73,2.91-2.23c1-.63,4.21-2.13,4.21-2.13,0,3.42-2.8,10.94.65,13.5s10.85,4.67,12.83,5.68a5.35,5.35,0,0,1,3,4.29,3.06,3.06,0,0,1,0,.53c.21,2.49.16,11,.13,15.27"/><path class="cls-8" d="M113.58,147.45c-1.09,7.38-12.33,7.17-16.59,10.23s-3.86,5.75-3.86,7.93.19,6.38.32,8.93H89.24c0-4.3-.08-12.78.13-15.27a1.79,1.79,0,0,1,.06-.53,5.32,5.32,0,0,1,3-4.29c2-1,9.39-3.11,12.81-5.68s.64-10.27.64-13.67a28.49,28.49,0,0,1,4.16,1.52,13.12,13.12,0,0,1,3,2.7,30,30,0,0,1,.61,3.51v0a19.15,19.15,0,0,1-.13,4.59"/><path class="cls-9" d="M86.79,30.74c-39.46-.06-39.7,31.54-37.94,52.14-2.7-4.84-10.71-3-10.06,4.71.64,7.42,11.94,10.78,11.79,10,3.23,16.79,21.83,26.12,36.21,27.44h.29V30.76l-.29,0"/><path class="cls-6" d="M40.78,84.31a3.92,3.92,0,0,1,5.78-1,3,3,0,0,1,.94,3.44c-.27,1-1.38,1.06-1.12,2.58A2.71,2.71,0,0,0,48,91.5a3.45,3.45,0,0,1,1.35,1.4A3.67,3.67,0,0,1,49.52,95c-.31,1.23-2.19.25-3.45-.3a22.61,22.61,0,0,1-4.14-3.18c-1.69-1.78-2.47-5.24-1.15-7.24"/><path class="cls-10" d="M87,30.74c39.47-.06,39.7,31.54,37.93,52.14,2.71-4.84,10.72-3,10.06,4.71-.64,7.42-11.94,10.78-11.79,10C120,114.33,101.37,123.66,87,125h-.31V30.76l.31,0"/><path class="cls-6" d="M133.28,84.31a3.92,3.92,0,0,0-5.78-1,3,3,0,0,0-1,3.44c.29,1,1.39,1.06,1.12,2.58a2.7,2.7,0,0,1-1.6,2.21,3.53,3.53,0,0,0-1.36,1.4,3.58,3.58,0,0,0-.17,2.13c.3,1.23,2.19.25,3.46-.3a23.67,23.67,0,0,0,4.14-3.18c1.68-1.78,2.47-5.24,1.14-7.24"/><path class="cls-3" d="M86.59,39.69c-13.19,0-22.82,3.62-28.68,10.77-8.14,10-7.84,25.24-4.83,36.18.92,3.36,1.4,12.37,2,15.68C58,117.13,75.22,125,86.59,125l.3,0V39.69h-.3"/><path class="cls-4" d="M115.19,50.49c-5.8-7.11-15.33-10.72-28.3-10.8V125c13-.13,28.49-8.76,31.17-22.67.62-3.31,1.1-12.32,2-15.68,3-10.91,3.3-26.15-4.88-36.15"/><path class="cls-11" d="M93.52,111.63s-3,3.17-6.65,3.17-6.48-3.1-6.48-3.1a42.72,42.72,0,0,1,6.48-.48,54.44,54.44,0,0,1,6.65.41"/><path class="cls-12" d="M88.76,110.17a1.72,1.72,0,0,0-1.89,1.44A1.7,1.7,0,0,0,85,110.17a26.59,26.59,0,0,0-4.78,1.46s3.64.38,4.68.38,2,.41,2-.36c0,.77.77.47,1.81.47s4.84-.49,4.84-.49a26.55,26.55,0,0,0-4.76-1.46"/><path class="cls-13" d="M48.27,54.21c.48-1.43,1-2.76,1.5-4v-.55a7.13,7.13,0,0,1,2.07-4.8,3.17,3.17,0,0,1,.32-4.15,2.61,2.61,0,0,1-1.4-4.47l.9-.85a3.67,3.67,0,0,1-.88-.67c-1-1-1.21-2.47-.46-3.17l.41-.39a2.6,2.6,0,0,1-.79-.56c-.73-.77-.88-1.8-.34-2.31l6.46-6.11a1.73,1.73,0,0,1,2.3.46,2.82,2.82,0,0,1,.52.82l.31-.29c.74-.7,2.15-.42,3.15.63a3.39,3.39,0,0,1,.62.92l.4-.39A2.62,2.62,0,0,1,67.78,26a3.18,3.18,0,0,1,4.94,1.34,12.2,12.2,0,0,1,7.56-2,.61.61,0,0,1,0,.11c2.71-.6,17.31-3.53,26-.28,9.6,3.59,17.47,9.77,23,26.36s1,30.16-.08,36c-3.4,18.35-25.08,36.51-25.08,36.51s9.45-11.44,11.3-16.33a54.17,54.17,0,0,0,3.57-19.89c0-8.1-3.89-11.16-5.1-11.92a37.54,37.54,0,0,1,.92,6.09,23.21,23.21,0,0,1-3.66,14.53s5.71-10.64-3.42-18.58a61.9,61.9,0,0,1-7.29-7.57s0,0,0,0c2.29,6.28-3,20.91-3,20.91s.72-17.4-4-20.14C81.9,64.35,80.06,61.6,78.42,56.24A14.7,14.7,0,0,1,78,54.18L67.38,69.69c-.5.68-1.31,1.82-2.25,3.29-2.75,4.3-6.56,11.35-6.56,17.48,0,9.59,1.47,13.07,1.47,13.07s-4.93-.07-11.68-13.36C45.69,84.91,42.73,70.79,48.27,54.21Z"/></g></g></svg>