<svg xmlns="http://www.w3.org/2000/svg" viewBox="0 0 174.64 174.57"><defs><style>.cls-1{fill:#82acc6;}.cls-2{fill:#010400;}.cls-3{fill:#dcc5a1;}.cls-4{fill:#edd9b4;}.cls-10,.cls-5{fill:#bc9f82;}.cls-5{opacity:0.7;}.cls-6{fill:#653e59;}.cls-7{fill:#662625;}.cls-8{fill:#633c10;}.cls-9{fill:#ccad8b;}.cls-11{fill:#d9bf9f;}.cls-12{fill:#b47070;}.cls-13{fill:#c17874;}.cls-14{fill:#0f1005;}.cls-15{fill:#64996f;}.cls-16{fill:#6999a2;}.cls-17{fill:#211915;}.cls-18{fill:#7c4417;}.cls-19{fill:#568035;}</style></defs><title>Ativo 94ac</title><g id="Camada_2" data-name="Camada 2"><g id="Avatares"><rect class="cls-1" width="174.64" height="174.55" rx="39.4"/><path class="cls-2" d="M43,64c1.35,9.71,2,7.35,1,23.05-.65,10.85-2.42,14.36-2.42,14.36s11.47-19.49,8.06-36.84C49.15,61.86,43,64,43,64Z"/><path class="cls-2" d="M103,97.7c-.16,5,.45,13.22.79,17.16s.93,15.32.09,20.13-.69,10.83-1.91,10.92-1.68-2.41-1.18-5.26.77-19.75.62-23.14-1-13.92-1-14.36a22.81,22.81,0,0,1,1.44-4.84C102.36,97,103,97.7,103,97.7Z"/><path class="cls-2" d="M123.23,92.67a156.35,156.35,0,0,0-.31,25.24c.5,7.92,1.41,20.87,1.34,27.44S123,164.47,123,164.47l-1.75,2.25s-.84.05,0-10.23c.76-9.64.48-13.8-.41-25.65-.59-7.74-1.61-24-.89-27.61A92.67,92.67,0,0,1,123.23,92.67Z"/><path class="cls-2" d="M115,103.28c-1,6.25-1.18,16.88-1.15,22s-.66,19.67-2.86,25.57-2.87,13.56-5,13.38-2.62-3.48-1.31-7,4.35-24.86,4.58-29.2.36-17.91.32-18.46,2.07-4.29,3.3-5.78S115,103.28,115,103.28Z"/><path class="cls-2" d="M119.42,97.5c0,6.34.88,16.85,1.35,21.86s1.42,19.52.75,25.69-.35,13.85-1.56,14-1.76-3-1.35-6.67.14-25.24-.14-29.56-1.42-17.73-1.48-18.28a34.65,34.65,0,0,1,1.28-6.23C118.82,96.67,119.42,97.5,119.42,97.5Z"/><path class="cls-2" d="M117,97.5c0,6.34.88,16.85,1.35,21.86s1.42,19.52.74,25.69-.35,13.85-1.56,14-1.75-3-1.34-6.67.13-25.24-.14-29.56-1.41-17.73-1.48-18.28a35.56,35.56,0,0,1,1.28-6.23C116.43,96.67,117,97.5,117,97.5Z"/><path class="cls-2" d="M116.81,96.45c-.38,6.32-.11,16.87.06,21.9s.27,19.57-.76,25.69-1.16,13.8-2.39,13.9-1.57-3.1-1-6.74,1.63-25.18,1.61-29.51S114,103.9,114,103.35a35.33,35.33,0,0,1,1.66-6.14C116.25,95.58,116.81,96.45,116.81,96.45Z"/><path class="cls-2" d="M52.48,90a155.9,155.9,0,0,1-1.4,25.2c-1,7.87-2.83,20.73-3.2,27.29s0,19.16,0,19.16l1.6,2.37s.83.09.72-10.2c-.12-9.68.45-13.82,2.15-25.57,1.1-7.68,3.23-23.82,2.77-27.48A91.69,91.69,0,0,0,52.48,90Z"/><path class="cls-2" d="M52,94.52a156.23,156.23,0,0,1,.31,25.23c-.5,7.93-1.41,20.88-1.34,27.46s1.31,19.11,1.31,19.11L54,168.57s.85,0,0-10.23c-.77-9.64-.49-13.81.4-25.65.58-7.74,1.61-24,.89-27.61A90.6,90.6,0,0,0,52,94.52Z"/><path class="cls-2" d="M60.22,105.13c1,6.25,1.18,16.88,1.17,22s.65,19.68,2.85,25.57,2.86,13.57,5,13.38,2.63-3.47,1.31-7S66.24,134.21,66,129.86s-.37-17.91-.33-18.47-2.06-4.27-3.3-5.77S60.22,105.13,60.22,105.13Z"/><path class="cls-2" d="M63.93,105.43c1,6.25,1.88,16.77,2.23,21.79s1.77,19.49,3.45,25.48,2.58,13.61,3.8,13.57,1.24-3.25.24-6.8S69.41,134.6,69,130.29,67.49,112.56,67.47,112a34.09,34.09,0,0,0-2.28-5.94C64.39,104.51,63.93,105.43,63.93,105.43Z"/><path class="cls-2" d="M55.78,99.35c0,6.34-.88,16.85-1.35,21.86S53,140.73,53.69,146.9s.34,13.85,1.55,14,1.76-3,1.35-6.67-.14-25.24.13-29.55,1.43-17.74,1.49-18.3a34.94,34.94,0,0,0-1.29-6.22C56.38,98.51,55.78,99.35,55.78,99.35Z"/><path class="cls-2" d="M58.16,99.35c0,6.34-.87,16.85-1.35,21.86s-1.42,19.52-.74,25.69.34,13.85,1.56,14,1.74-3,1.34-6.67-.14-25.24.14-29.55,1.42-17.74,1.48-18.3a36.63,36.63,0,0,0-1.28-6.22C58.77,98.51,58.16,99.35,58.16,99.35Z"/><path class="cls-2" d="M68.34,98.35c.51,6.31.5,16.86.43,21.89s.19,19.56,1.36,25.67,1.48,13.77,2.7,13.84,1.5-3.14.8-6.76-2.2-25.14-2.29-29.46,0-17.8,0-18.35a35.43,35.43,0,0,0-1.79-6.1C68.88,97.46,68.34,98.35,68.34,98.35Z"/><path class="cls-3" d="M87.58,103.18v71.33H48.67l-1-.42c0-32.51,17.22-39.44,22.37-40.8a10.38,10.38,0,0,1,1.2-.25.25.25,0,0,0,.14,0l.11,0h.18a4.51,4.51,0,0,0,.53-.1,3.69,3.69,0,0,0,2-1.69,18,18,0,0,0,2.16-5.87c.16-.71.3-1.45.4-2.23.23-1.31.41-2.69.55-4.14.08-.86.17-1.73.24-2.63.36-4.38.47-9.14.47-13.65C78.11,102.67,83.35,103.18,87.58,103.18Z"/><path class="cls-4" d="M98.71,124.74a20.54,20.54,0,0,0,2.07,6.15c-.43,4.32,21.94,43.68,21.94,43.68s-35.12,0-35.14-.06V103.18h.09c4.23,0,9.48-.51,9.48-.51,0,4.49.12,9.19.47,13.54.08.87.17,1.74.25,2.59.17,1.49.32,2.91.55,4.23v0C98.5,123.66,98.6,124.2,98.71,124.74Z"/><path class="cls-4" d="M102.88,132.82a3.88,3.88,0,0,0,.44.13,1.39,1.39,0,0,1-.44-.07,2.26,2.26,0,0,1-.82-.52,1.82,1.82,0,0,0,.42.3A4.16,4.16,0,0,0,102.88,132.82Z"/><path class="cls-4" d="M103.32,133c.09,0,.17,0,.28,0h-.19A.11.11,0,0,1,103.32,133Z"/><path class="cls-4" d="M103.76,133a.18.18,0,0,1,.08,0l-.24,0Z"/><path class="cls-4" d="M127.58,174.09s-.35.14-.93.42h-9.19c1.72-3.27,4.61-11.56-3.52-20.89a35.45,35.45,0,0,0-2.73-2.8,15.67,15.67,0,0,1-1.94-2.09c-4.07-5.06-4.23-11-4.23-15.44l-.6-.17a23.76,23.76,0,0,1,8.76,4.08,25.93,25.93,0,0,1,4.09,3.62C122.67,146.63,127.58,156.7,127.58,174.09Z"/><path class="cls-5" d="M98.4,123.05v0a12.57,12.57,0,0,1-10.78,5.84h-.05c-6.2,0-9.8-4.52-10.72-5.82.21-1.31.4-2.69.54-4.13.08-.87.17-1.74.24-2.64a42.79,42.79,0,0,0,9.83,1.28h.11a40,40,0,0,0,10-1.39c.08.87.16,1.74.24,2.58C98,120.3,98.18,121.72,98.4,123.05Z"/><path class="cls-6" d="M111.29,150.75c-6-5.46-6.17-12.56-6.17-17.6-.22-.06-.44-.11-.6-.17s-.47-.09-.6-.11l-.25,0h-.19a.12.12,0,0,1-.08,0,1.15,1.15,0,0,1-.44-.09,2.14,2.14,0,0,1-.82-.51s0,0,0,0a4.51,4.51,0,0,1-1.25-1.44c-.44,4.34-.9,12.36-1.47,14.55-6.21,23.33-17.37,23.8-23.35,0-.57-2.23-1.1-9.94-1.54-14.25a3.68,3.68,0,0,1-2,1.69,2.41,2.41,0,0,1-.52.11h-.19a1.51,1.51,0,0,0-.25,0,.3.3,0,0,1-.13,0l-1.07.26c0,5-.22,12.14-6.16,17.6C52.7,161.23,56,170.91,57.89,174.51h59.64C119.42,170.91,122.72,161.23,111.29,150.75Z"/><path class="cls-6" d="M117.29,140.88c-1.14,2.35-2.53,7.58-3.35,12.89a35.55,35.55,0,0,0-2.73-2.82,15.2,15.2,0,0,1-1.94-2.11c.8-4.05,2-8.72,3.93-11.6A26.64,26.64,0,0,1,117.29,140.88Z"/><path class="cls-7" d="M57.4,141.51c1.15,2.35,2.53,7.58,3.35,12.89a32.33,32.33,0,0,1,2.73-2.82,15.79,15.79,0,0,0,1.94-2.11c-.8-4.05-2.05-8.73-3.92-11.6A26.68,26.68,0,0,0,57.4,141.51Z"/><path class="cls-2" d="M72.25,99.55c.17,5-.45,13.22-.79,17.16s-.92,15.32-.09,20.13.7,10.82,1.91,10.92,1.68-2.41,1.18-5.26-.78-19.76-.62-23.14,1-13.93,1-14.36a23.22,23.22,0,0,0-1.45-4.84C72.84,98.88,72.25,99.55,72.25,99.55Z"/><path class="cls-2" d="M75.73,100.05c0,6-.93,16-1.43,20.71s-1.48,18.5-.81,24.36.3,13.12,1.5,13.29,1.77-2.85,1.38-6.33-.06-23.92.22-28,1.48-16.81,1.55-17.33a31.92,31.92,0,0,0-1.27-5.9C76.34,99.26,75.73,100.05,75.73,100.05Z"/><path class="cls-2" d="M51.81,90.38c-9.52,35.4-7.72,48.39-7.09,48.88s1.15,1,1.67-3.83c4.77-44.13,8.45-39.88,8.55-41.55s1.15-2.67-.52-3.5A2.32,2.32,0,0,0,51.81,90.38Z"/><path class="cls-2" d="M44.68,137.16c-.77,2.18-.52,3.53-.28,5.66s.11,4.74,1.11,5.45,2.2,1.62,2.11-.29-.77-3.12-1.09-5.38-.56-4.92-.56-4.92Z"/><path class="cls-8" d="M47.59,137.59a2.16,2.16,0,0,1-2.17,2.16h0a2.16,2.16,0,0,1-2.17-2.16h0a2.17,2.17,0,0,1,2.17-2.17h0a2.17,2.17,0,0,1,2.17,2.17Z"/><path class="cls-2" d="M58.39,98.29c.38,6.33.11,16.88-.06,21.9s-.27,19.57.77,25.69,1.16,13.82,2.37,13.91,1.58-3.1,1-6.75-1.62-25.17-1.6-29.5.37-17.79.4-18.35a35.07,35.07,0,0,0-1.65-6.13C59,97.42,58.39,98.29,58.39,98.29Z"/><path class="cls-2" d="M111.27,103.59c-1,6.24-1.87,16.76-2.23,21.78s-1.78,19.49-3.45,25.48-2.58,13.61-3.8,13.58-1.24-3.25-.24-6.81,4.24-24.88,4.67-29.18,1.49-17.73,1.51-18.28a36.15,36.15,0,0,1,2.28-5.94C110.81,102.66,111.27,103.59,111.27,103.59Z"/><path class="cls-2" d="M106.86,96.49c-.51,6.32-.5,16.87-.44,21.9s-.17,19.57-1.35,25.67-1.48,13.77-2.7,13.84-1.51-3.14-.8-6.76,2.2-25.14,2.28-29.47,0-17.79,0-18.34a34.54,34.54,0,0,1,1.79-6.1C106.33,95.61,106.86,96.49,106.86,96.49Z"/><path class="cls-2" d="M99.47,98.19c0,6,.93,16,1.42,20.73s1.48,18.49.82,24.35-.29,13.12-1.51,13.28-1.76-2.84-1.37-6.32.06-23.91-.22-28-1.48-16.8-1.55-17.32A33.31,33.31,0,0,1,98.33,99C98.86,97.41,99.47,98.19,99.47,98.19Z"/><path class="cls-2" d="M60,102.65c.76,6.29,1.15,16.84,1.28,21.87s.94,19.54,2.35,25.6,2,13.7,3.22,13.72,1.38-3.19.54-6.78S64.19,132,64,127.7s-.72-17.77-.72-18.33a36.87,36.87,0,0,0-2-6C60.48,101.75,60,102.65,60,102.65Z"/><path class="cls-9" d="M87.54,26.56C46.93,26.48,46.69,59,48.51,80.2c-2.79-5-11-3.13-10.35,4.84.64,7.63,12.28,11.09,12.12,10.25,3.32,17.27,22.46,26.87,37.26,28.24h.31v-97Z"/><path class="cls-10" d="M40.2,81.67a4,4,0,0,1,5.95-1.07,3.1,3.1,0,0,1,1,3.54c-.29,1-1.43,1.1-1.15,2.66a2.78,2.78,0,0,0,1.65,2.26,3.13,3.13,0,0,1,1.57,3.64c-.31,1.26-2.25.26-3.55-.3a24.73,24.73,0,0,1-4.26-3.28C39.63,87.28,38.84,83.72,40.2,81.67Z"/><path class="cls-11" d="M87.74,26.56c40.6-.08,40.85,32.44,39,53.64,2.79-5,11-3.13,10.35,4.84-.64,7.63-12.29,11.09-12.12,10.25-3.32,17.27-22.47,26.87-37.26,28.24h-.31v-97Z"/><path class="cls-10" d="M135.37,81.67a4,4,0,0,0-6-1.07,3.13,3.13,0,0,0-1,3.54c.3,1,1.43,1.1,1.16,2.66A2.79,2.79,0,0,1,128,89.06a3.56,3.56,0,0,0-1.38,1.44,3.6,3.6,0,0,0-.19,2.2c.32,1.26,2.25.26,3.55-.3a24.41,24.41,0,0,0,4.27-3.28C135.93,87.28,136.73,83.72,135.37,81.67Z"/><path class="cls-3" d="M87.32,35.76c-13.56,0-23.48,3.73-29.5,11.09-8.38,10.26-8.06,26-5,37.22.95,3.45,1.43,12.72,2.09,16.13,2.93,15.23,20.68,23.35,32.38,23.35h.32V35.77Z"/><path class="cls-4" d="M116.75,46.85c-6-7.3-15.77-11-29.11-11.08v87.77c13.35-.14,29.32-9,32.06-23.34.65-3.41,1.13-12.68,2.09-16.13C124.88,72.83,125.18,57.17,116.75,46.85Z"/><path class="cls-12" d="M94.47,109.78s-3.07,3.27-6.85,3.27-6.66-3.2-6.66-3.2a43.2,43.2,0,0,1,6.66-.5A55.1,55.1,0,0,1,94.47,109.78Z"/><path class="cls-13" d="M89.57,108.27a1.77,1.77,0,0,0-1.95,1.48,1.77,1.77,0,0,0-1.93-1.48,27.14,27.14,0,0,0-4.91,1.51s3.74.39,4.82.39,2,.42,2-.37c0,.8.79.49,1.86.49s5-.51,5-.51A27.52,27.52,0,0,0,89.57,108.27Z"/><path class="cls-2" d="M132,69.87c0,9.79-1,7.54,2.08,23,2.11,10.66,4.34,13.9,4.34,13.9s-14-17.78-13-35.42C125.64,68.6,132,69.87,132,69.87Z"/><path class="cls-14" d="M52.81,34.59l-.82.59a18,18,0,0,0-4.72,5.36,31.05,31.05,0,0,0-2.33,5.12,59.19,59.19,0,0,0-2.77,13.85c-.58,5.18-.77,10.78-1.32,16.4s-1.15,11.21-2.1,16.44a95.3,95.3,0,0,1-3.59,14.06,66.94,66.94,0,0,1-4,9.45c-.51,1.12-1.37,2.08-.51-.22S32.54,110,33.62,106a133.31,133.31,0,0,0,2.69-14c.73-5.16,1.3-10.72,1.86-16.29s.93-11.17,1.71-16.43a60,60,0,0,1,3.71-14.1,23.17,23.17,0,0,1,5.95-8.43,16.79,16.79,0,0,1,2.37-1.63Z"/><path class="cls-15" d="M36.27,107.33a2.17,2.17,0,0,1-2.17,2.17h0a2.18,2.18,0,0,1-2.18-2.17h0a2.18,2.18,0,0,1,2.18-2.17h0a2.16,2.16,0,0,1,2.17,2.17Z"/><path class="cls-2" d="M122.72,88.16a155.9,155.9,0,0,0,1.4,25.2c1,7.87,2.82,20.74,3.2,27.29s0,19.17,0,19.17l-1.6,2.36s-.84.09-.72-10.2c.11-9.67-.45-13.81-2.15-25.57-1.1-7.68-3.24-23.81-2.76-27.49A89.93,89.93,0,0,1,122.72,88.16Z"/><path class="cls-16" d="M128.47,141.73a2.18,2.18,0,0,1-2.18,2.17h0a2.18,2.18,0,0,1-2.18-2.17h0a2.17,2.17,0,0,1,2.18-2.16h0a2.17,2.17,0,0,1,2.18,2.16Z"/><path class="cls-17" d="M50.22,42l-3.1,18.75c-.46,2.8-.92,5.85-1.38,9.07S44.89,76.44,44.42,80s-.74,7.15-1.06,10.84-.54,7.46-.6,11.21a68.52,68.52,0,0,1-1.11,11.57,92,92,0,0,1-2.9,10.8c-2.21,6.82-4.45,13-5.37,18.47a34.66,34.66,0,0,0-.48,7.53,23.8,23.8,0,0,0,1,5.75,30.77,30.77,0,0,0,1.37,3.58l.61,1.23-.8-1.13a21.58,21.58,0,0,1-1.93-3.4,26,26,0,0,1-1.81-5.85,30.31,30.31,0,0,1-.35-8c.45-5.87,2.35-12.41,4.26-19.22,1-3.41,1.81-6.92,2.47-10.48a64.93,64.93,0,0,0,.91-11c.12-3.84.42-7.67.77-11.42s.89-7.44,1.42-11,1.18-7,1.9-10.16,1.37-6.23,2.08-9c1.37-5.56,2.8-10.12,3.76-13.3S50.22,42,50.22,42Z"/><path class="cls-18" d="M34.1,149.13a2.17,2.17,0,0,1-2.18,2.16h0a2.17,2.17,0,0,1-2.17-2.16h0A2.17,2.17,0,0,1,31.92,147h0a2.17,2.17,0,0,1,2.18,2.17Z"/><path class="cls-17" d="M123.74,55.87s.16,1.69.34,4.67c0,1.48.22,3.29.48,5.32s.49,4.34.9,6.83.86,5.19,1.4,8,1.28,5.8,2,8.87,1.6,6.21,2.5,9.41,1.86,6.42,2.82,9.66,1.91,6.52,2.78,9.8,1.49,6.56,2.15,9.72c.21,1.61.4,3.2.6,4.75.07.81.22,1.49.23,2.37s0,1.49.06,2.21c0,1.46.07,2.88.1,4.25s-.16,2.76-.24,4.06a68.15,68.15,0,0,1-.7,7c-.25,2.06-1.46-2-1.65-7-.05-1.24-.1-2.54-.15-3.89s-.27-2.78-.42-4.22c-.06-.74-.13-1.47-.2-2.21s-.25-1.43-.38-2.14c-.25-1.48-.52-3-.79-4.51-.75-3-1.46-6.18-2.42-9.36s-1.89-6.41-2.89-9.67-1.91-6.55-2.71-9.81-1.53-6.52-2.2-9.65-1.12-6.23-1.45-9.16-.64-5.7-.72-8.27a62.31,62.31,0,0,1-.09-7c0-2.09.09-3.9.25-5.37C123.54,57.56,123.74,55.87,123.74,55.87Z"/><path class="cls-19" d="M140.61,141.92a2.17,2.17,0,0,1-2.17,2.17h0a2.18,2.18,0,0,1-2.18-2.17h0a2.18,2.18,0,0,1,2.18-2.17h0a2.17,2.17,0,0,1,2.17,2.17Z"/><path class="cls-2" d="M113.46,53.35c-3.37,6.27-2.43,13.37-13.86,18S83,77.3,70.57,82.93c-28.26,12.72-13.75,42.21-13.75,42.21s-7.74-7.58-10.55-15.48-13.65-42.31,0-69.5C53.76,25.24,67.62,21.8,79.79,20.79s20.86.05,29.67,8.16c1.91,1.75,7.41,2.16,13.44,6.45,13.49,9.6,12.39,23.76,13,32.8a68.56,68.56,0,0,1-3.5,27.69c-2.62,7.9-18.52,31.23-18.52,31.23s12.36-28.5,5.49-47c-4-10.84-11.22-10.23-11.52-14.44S113.46,53.35,113.46,53.35Z"/></g></g></svg>