<svg xmlns="http://www.w3.org/2000/svg" viewBox="0 0 174.8 175.24"><defs><style>.cls-1{fill:#f4f1c5;}.cls-2{fill:#5a4f51;}.cls-3{fill:#dcc5a1;}.cls-4{fill:#edd9b4;}.cls-5,.cls-9{fill:#bc9f82;}.cls-5{opacity:0.7;}.cls-6{fill:#895a59;}.cls-7{fill:#403836;}.cls-8{fill:#ccad8b;}.cls-10{fill:#d9bf9f;}</style></defs><title>Ativo 110ac</title><g id="Camada_2" data-name="Camada 2"><g id="Avatares"><rect class="cls-1" width="174.8" height="174.92" rx="39.39"/><path class="cls-2" d="M68.8,90.94a7,7,0,0,0-4.88-2.71,27.4,27.4,0,0,0-3-7.44c-4.12-5.6-14.43-1.21-14.43-1.21,0,6.59,2.3,9.89,0,15.17s-.5,2.61-4.77,7.8-5.07,6.51-6.1,10.23c-2,7.06.82,15.62,1.32,17.39s-2-12.23,4.62-14.52a19.76,19.76,0,0,0,3.2-1.46c.29,3.25.49,4.49-.33,8a16.84,16.84,0,0,0,.8,11.08,9,9,0,0,0,5,4.7,7.51,7.51,0,0,1-2.39-8.09c.94-3.62,2.73-5.21,3.71-8.27a26.85,26.85,0,0,0,.91-3.83,7.11,7.11,0,0,0,.61,3.51c1.15,2.23,4.76,5.89,4,10.38-2.24,12.59,2.41,16,3.06,17.58s-1.82-4-.17-8.71a8.06,8.06,0,0,1,3.85-4.62,9.15,9.15,0,0,1,1.17,5.9c-2.24,12.59,2.41,16,3.06,17.58s-1.82-4-.17-8.71,4.62-4.11,7.13-7.47a19.85,19.85,0,0,0,2.7-18C77.32,124.19,72.92,96.54,68.8,90.94Z"/><path class="cls-2" d="M139.6,112.57c-1-3.72-1.81-5.06-6.08-10.24s-2.48-2.52-4.78-7.8,0-8.57,0-15.17c0,0-10.32-4.39-14.43,1.21-1,1.38-2,4.11-3,7.44a7.09,7.09,0,0,0-4.89,2.71c-4.11,5.6-8.51,33.25-8.85,34.26a19.82,19.82,0,0,0,2.7,18c2.51,3.35,5.47,2.8,7.13,7.47s-.84,10.25-.18,8.71,5.3-5,3.06-17.58a9.05,9.05,0,0,1,1.19-5.91,8.07,8.07,0,0,1,3.83,4.62c1.66,4.66-.83,10.25-.17,8.71s5.31-5,3.07-17.57c-.81-4.5,2.8-8.17,4-10.39a7.32,7.32,0,0,0,.61-3.51,25.27,25.27,0,0,0,.91,3.83c1,3.06,2.76,4.64,3.7,8.27A7.5,7.5,0,0,1,125,137.7a9,9,0,0,0,5-4.7,16.83,16.83,0,0,0,.8-11.08c-.81-3.45-.6-4.7-.33-8a18,18,0,0,0,3.21,1.46c6.61,2.29,4.12,16.27,4.62,14.51S141.55,119.62,139.6,112.57Z"/><path class="cls-3" d="M86.94,112.37v62.87H52.64l-.84-.36c0-33.72,21-36.24,21-36.24,2.1,0,3.44-2.69,4.34-6.76.14-.63.26-1.27.35-2,.2-1.16.37-2.38.49-3.65.07-.77.14-1.53.21-2.32.27-3.15.36-6.53.39-9.81,0-.74,0-1.49,0-2.23C78.59,111.91,83.21,112.37,86.94,112.37Z"/><path class="cls-4" d="M122.21,174.88s-.32.12-.82.36H86.94V112.37H87c3.73,0,8.37-.46,8.37-.46,0,.87,0,1.73,0,2.6,0,3.13.15,6.34.39,9.34.07.77.14,1.54.21,2.28.15,1.31.3,2.57.49,3.73v0c.07.53.16,1,.26,1.49.89,4.34,2.28,7.26,4.45,7.26C101.2,138.64,122.21,141.16,122.21,174.88Z"/><path class="cls-5" d="M96.49,131v0a11.09,11.09,0,0,1-9.5,5.15h0A12,12,0,0,1,77.49,131c.2-1.15.36-2.37.48-3.64.07-.77.15-1.54.22-2.33a37.94,37.94,0,0,0,8.66,1.13h.09A35.49,35.49,0,0,0,95.8,125c.07.77.14,1.54.21,2.29C96.15,128.55,96.3,129.8,96.49,131Z"/><path class="cls-6" d="M122.21,174.88s-.32.12-.82.36H52.64l-.84-.36c0-32.93,20-36.09,21-36.24h0c1.6,0,2.75-1.53,3.59-4a3.81,3.81,0,0,0,1.5,1.3c1.22.67,3.55,1.31,9.13,1.31s9.29-1.19,10.3-2.13a1.46,1.46,0,0,0,.31-.48c.82,2.4,1.92,3.91,3.4,4h.18S122.21,141.16,122.21,174.88Z"/><path class="cls-7" d="M101.44,142.19c-4.62,3.26-7.64,4-14.54,4s-9.26-1-12.78-2.71c-2.47-1.22-4.24-2.18-2.43-3.76a11.93,11.93,0,0,0,1.08-1.08h0a15,15,0,0,0,1.4-2.14c.94-1.36-1.68-2.15-.07-3.2a4.32,4.32,0,0,1,2.86-.85c-.6,2.16.31,3.14.9,3.46,1.22.67,3.55,1.31,9.13,1.31s8.28-1.19,9.48-1.87c1-.56.75-1.68.73-2.16a2.5,2.5,0,0,1-.15-.44s3.08.18,2.81,1.69a6,6,0,0,0,1.14,4.2c.14.19.26.38.4.56C102.53,140.6,104.17,140.27,101.44,142.19Z"/><polygon class="cls-2" points="68.19 156.83 65.59 152.35 62.99 156.83 60.39 161.31 62.99 165.79 65.59 170.28 68.19 165.79 70.78 161.31 68.19 156.83"/><polygon class="cls-2" points="78.58 156.83 75.98 152.35 73.38 156.83 70.78 161.31 73.38 165.79 75.98 170.28 78.58 165.79 81.18 161.31 78.58 156.83"/><polygon class="cls-2" points="88.97 156.83 86.38 152.35 83.78 156.83 81.18 161.31 83.78 165.79 86.38 170.28 88.97 165.79 91.57 161.31 88.97 156.83"/><polygon class="cls-2" points="99.37 156.83 96.77 152.35 94.17 156.83 91.57 161.31 94.17 165.79 96.77 170.28 99.37 165.79 101.96 161.31 99.37 156.83"/><polygon class="cls-2" points="109.76 156.83 107.16 152.35 104.56 156.83 101.96 161.31 104.56 165.79 107.16 170.28 109.76 165.79 112.36 161.31 109.76 156.83"/><path class="cls-8" d="M87,40.26c-36.33,0-36.54,30.31-34.92,50.15-2.5-4.7-9.86-3.25-9.26,4.15.58,7.14,11,10.83,10.85,10,3,16.32,20.08,25.75,33.33,25.75h.28v-90Z"/><path class="cls-9" d="M45.18,91.43a3.44,3.44,0,0,1,5.24-1,3,3,0,0,1,.86,3.29c-.26,1-1.27,1-1,2.47a2.53,2.53,0,0,0,1.45,2.1,3.41,3.41,0,0,1,1.22,1.34,3.53,3.53,0,0,1,.16,2c-.28,1.17-2,.24-3.13-.28a21.76,21.76,0,0,1-3.76-3C44.68,96.64,44,93.33,45.18,91.43Z"/><path class="cls-10" d="M87.22,40.26c36.33,0,36.54,30.31,34.93,50.15,2.49-4.7,9.86-3.25,9.26,4.15-.59,7.14-11,10.83-10.86,10-3,16.32-20.07,25.75-33.33,25.75h-.28v-90Z"/><path class="cls-9" d="M129.08,91.43a3.44,3.44,0,0,0-5.24-1,3,3,0,0,0-.85,3.29c.25,1,1.26,1,1,2.47a2.55,2.55,0,0,1-1.45,2.1c-.42.37-1,.65-1.23,1.34a3.61,3.61,0,0,0-.16,2c.27,1.17,2,.24,3.13-.28a21,21,0,0,0,3.76-3C129.58,96.64,130.28,93.33,129.08,91.43Z"/><path class="cls-3" d="M86.73,48.8c-12,0-20.71,3.46-26,10.3-7.4,9.54-7.12,24.1-4.39,34.56.83,3.2,1.26,11.81,1.84,15,2.57,14.14,18.23,21.67,28.55,21.67H87V48.81Z"/><path class="cls-4" d="M112.67,59.11c-5.25-6.78-13.9-10.24-25.67-10.3V130.3c11.78-.12,25.85-8.38,28.27-21.66.58-3.17,1-11.78,1.84-15C119.83,83.23,120.1,68.68,112.67,59.11Z"/><path class="cls-2" d="M74.82,40c-4-4.85-6.62-12.21,0-17.55a23.39,23.39,0,0,1,15.37-5.55c2.73,0,10.67.77,12.89,5.55s8.39,7.86,2.87,12.27-3.57,7.47-16.47,7.47S74.82,40,74.82,40Z"/><path class="cls-6" d="M49.4,65.21c.46-5.5-5.48-3.08,1.6-11.21S62.89,41.24,68.37,39.48s12.12-6.15,22.17-5.28,15.54-2.64,20.81,4.84,7.08,8.14,9.13,16.5,8.91,14.79.92,13.77S49.4,65.21,49.4,65.21Z"/><path class="cls-2" d="M122.11,63.24c-2.48-.9-8.65-2.83-14-4.72a13.05,13.05,0,0,0-2.18-.84c-8.11-2.29-8.51-6-20.24-5.13S58.62,60.92,52.54,63.12,44.87,71,45.31,77.41a40.56,40.56,0,0,0,2,10.56C55,82.91,62.91,76.75,71.71,75.87s12.85-1.54,21.43,0,13.39.35,21.4,4.11c4.39,2.36,8.61,5.37,12.76,8.11a41,41,0,0,0,2-10.55C129.77,71.16,128.2,65.44,122.11,63.24Z"/><path class="cls-2" d="M108.12,117.61c-.55-1.92-2.68-1.34-6.61-2.69S91,112.83,87,112.82h0c-3.93,0-10.57.74-14.48,2.1s-6.06.77-6.61,2.69a16.62,16.62,0,0,0,.9,6.47c1.55,2.45,6.54,5.45,10.26,7.12,2.79,1.27,5,1.31,10,1.19,5,.12,7.17.08,10-1.19,3.71-1.67,8.71-4.67,10.25-7.12A16.62,16.62,0,0,0,108.12,117.61Zm-7.41.94c-.49.66-3.57,2.84-7.23,4.5-.72.32-1.21.5-3.58.5-.8,0-1.67,0-2.68,0h-.45c-1,0-1.89,0-2.69,0-2.36,0-2.85-.18-3.57-.5-3.64-1.64-6.7-3.8-7.32-4.65a10.08,10.08,0,0,1,2.11-1A46.15,46.15,0,0,1,87,115.8h.24a46.13,46.13,0,0,1,11.47,1.63,11,11,0,0,1,2.08.95A.67.67,0,0,1,100.71,118.55Z"/></g></g></svg>