<svg xmlns="http://www.w3.org/2000/svg" viewBox="0 0 175 174.93"><defs><style>.cls-1{fill:#7a94a4;}.cls-2{fill:#413841;}.cls-3{fill:#dcc5a1;}.cls-4{fill:#edd9b4;}.cls-5,.cls-9{fill:#bc9f82;}.cls-5{opacity:0.7;}.cls-6{fill:#5a4f51;}.cls-7{fill:#4e1812;}.cls-8{fill:#ccad8b;}.cls-10{fill:#d9bf9f;}.cls-11{fill:#b47070;}.cls-12{fill:#c17874;}</style></defs><title>Ativo 159ac</title><g id="Camada_2" data-name="Camada 2"><g id="Avatares"><rect class="cls-1" width="175" height="174.93" rx="39.36"/><path class="cls-2" d="M51.66,115.7s0,.08.05.11C51.88,116,51.84,116,51.66,115.7Z"/><path class="cls-3" d="M89.34,107.11v67.5H52.51l-.9-.38c0-36.21,22.54-38.92,22.54-38.92h.19a2.13,2.13,0,0,0,.49-.1c1.86-.51,3.13-3.24,4-7.15.16-.68.28-1.37.39-2.11.21-1.24.4-2.55.52-3.92.08-.82.15-1.64.23-2.49.34-4.15.44-8.65.44-12.92C80.38,106.62,85.34,107.11,89.34,107.11Z"/><path class="cls-4" d="M127.21,174.23s-.34.13-.88.38h-37v-67.5h.08c4,0,9-.49,9-.49,0,4.24.11,8.7.43,12.81.08.83.16,1.66.23,2.45.16,1.42.32,2.76.53,4v0c.08.57.18,1.09.28,1.6.77,3.78,1.91,6.56,3.56,7.48a2.14,2.14,0,0,0,.39.16,2.11,2.11,0,0,0,.83.15S127.21,138,127.21,174.23Z"/><path class="cls-5" d="M99.59,125.91v0a11.92,11.92,0,0,1-10.2,5.54h0A12.89,12.89,0,0,1,79.18,126c.22-1.24.39-2.55.52-3.91.08-.82.16-1.64.24-2.5a40.44,40.44,0,0,0,9.29,1.22h.11a38.16,38.16,0,0,0,9.5-1.32c.07.83.16,1.65.23,2.45C99.23,123.3,99.38,124.64,99.59,125.91Z"/><path class="cls-6" d="M127.28,174.23a5.73,5.73,0,0,0-.87.38H52.59a8.38,8.38,0,0,0-.9-.38c0-8.42,1.21-15,3.13-20.17,8.28-5.66,25.38-5.58,34.6,3.53,0,0,14.26-11.62,28.75-5.51a21.32,21.32,0,0,1,6.86,4.59A61.82,61.82,0,0,1,127.28,174.23Z"/><path class="cls-7" d="M77,128.4c0,.91,4.94.12,3.21,13.38S63.66,152.86,59.41,160a22.53,22.53,0,0,0-2.76,14.66h-6.3l1.34-4.52a17.15,17.15,0,0,1,1.05-11.4c2.76-5.71-.06-9.09.27-11.49s4.09-7.82,7.54-9.08,3.26-.43,7.63-1.45,9.29-3.49,9.29-6.23S77,128.4,77,128.4Z"/><path class="cls-7" d="M101.68,128c0,.91-4.94.12-3.22,13.38s16.57,11.08,20.82,18.17,2.57,15,2.57,15H128l-.74-4.79a18.72,18.72,0,0,0-1.33-11.5c-2.76-5.71,0-9.09-.28-11.5s-4.09-7.81-7.53-9.06-3.38-.15-7.76-1.17-9.16-3.78-9.16-6.52S101.68,128,101.68,128Z"/><path class="cls-8" d="M89.31,34.57c-38.44-.07-38.66,30.7-36.95,50.78-2.64-4.71-10.43-3-9.79,4.58.61,7.22,11.62,10.49,11.47,9.7C57.18,116,75.3,125.06,89.31,126.36h.3V34.57Z"/><path class="cls-9" d="M44.49,86.74a3.81,3.81,0,0,1,5.64-1A2.92,2.92,0,0,1,51,89.07c-.27,1-1.36,1.05-1.08,2.52a2.63,2.63,0,0,0,1.56,2.14c.45.38,1,.66,1.31,1.36A3.43,3.43,0,0,1,53,97.17c-.3,1.21-2.13.25-3.36-.28a22.7,22.7,0,0,1-4-3.11C44,92,43.21,88.68,44.49,86.74Z"/><path class="cls-10" d="M89.5,34.57c38.44-.07,38.66,30.7,37,50.78,2.64-4.71,10.43-3,9.79,4.58-.61,7.22-11.63,10.49-11.47,9.7-3.15,16.35-21.26,25.43-35.27,26.73h-.3V34.57Z"/><path class="cls-9" d="M134.58,86.74a3.8,3.8,0,0,0-5.63-1,2.92,2.92,0,0,0-.91,3.34c.27,1,1.35,1.05,1.08,2.52a2.59,2.59,0,0,1-1.56,2.14c-.45.38-1,.66-1.32,1.36a3.58,3.58,0,0,0-.16,2.08c.29,1.21,2.13.25,3.36-.28a23.06,23.06,0,0,0,4-3.11C135.11,92,135.87,88.68,134.58,86.74Z"/><path class="cls-3" d="M89.11,43.28c-12.84,0-22.24,3.53-27.92,10.49C53.24,63.49,53.55,78.35,56.48,89c.89,3.26,1.35,12,2,15.27,2.77,14.41,19.58,22.1,30.66,22.1h.29V43.29Z"/><path class="cls-4" d="M117,53.78C111.32,46.87,102,43.34,89.4,43.29v83.08c12.65-.14,27.76-8.55,30.36-22.09.61-3.23,1.07-12,2-15.27C124.65,78.38,124.94,63.54,117,53.78Z"/><path class="cls-11" d="M95.87,113.35s-2.91,3.09-6.48,3.09-6.31-3-6.31-3a41.27,41.27,0,0,1,6.31-.47A51.84,51.84,0,0,1,95.87,113.35Z"/><path class="cls-12" d="M91.22,111.91a1.68,1.68,0,0,0-1.83,1.41,1.69,1.69,0,0,0-1.83-1.41,25.65,25.65,0,0,0-4.65,1.44s3.54.37,4.55.37,1.9.39,1.93-.36c0,.76.75.46,1.75.46s4.73-.47,4.73-.47A25.65,25.65,0,0,0,91.22,111.91Z"/><path class="cls-6" d="M48.83,79.77S59,65.33,75.66,63.31s33.11,1.42,43.46,9.74,11.73,6.57,11.73,6.57a22.48,22.48,0,0,0,1.27-4.41c.67-3.49,3.18-5.4,2.62-7.29s-2-7.37-1.68-9.14-3-11.89-11.41-18.44-16.44-19.56-37-18.82-16.76,5.42-21,7S51.16,30,45.86,46.62c-2.3,7.24-.48,12.06-.67,15.85-.23,4.94-2,7.89-1.81,9.53C43.72,74.91,48.83,79.77,48.83,79.77Z"/></g></g></svg>