<svg xmlns="http://www.w3.org/2000/svg" xmlns:xlink="http://www.w3.org/1999/xlink" viewBox="0 0 174.99 174.92"><defs><style>.cls-1{fill:none;}.cls-2{fill:#4f4e49;}.cls-3{fill:#dcc5a1;}.cls-4{fill:#edd9b4;}.cls-5{clip-path:url(#clip-path);}.cls-6{fill:#bc9f82;}.cls-7{fill:#fff;}.cls-8{fill:#422e14;}.cls-9{fill:#d9bf9f;}.cls-10{fill:#ccad8b;}.cls-11{fill:#211915;}.cls-12{fill:#f8f7e0;}</style><clipPath id="clip-path"><rect class="cls-1" x="77.22" y="117.43" width="21.13" height="12.44"/></clipPath></defs><title>Ativo 114ac</title><g id="Camada_2" data-name="Camada 2"><g id="Avatares"><rect class="cls-2" width="174.99" height="174.92" rx="39.31"/><path class="cls-3" d="M87.74,104.67v69.91H49.59a8.82,8.82,0,0,0-.93-.4c0-14,3.27-23.19,7.32-29.16,6.86-10.05,16-11.15,16-11.15a2.92,2.92,0,0,0,1.94-.78s0-.05,0-.05a7.09,7.09,0,0,0,.56-.62,16.22,16.22,0,0,0,2.29-6.06,19.67,19.67,0,0,0,.4-2.18c.22-1.28.41-2.64.54-4.06.09-.85.16-1.71.24-2.57.35-4.3.46-9,.46-13.38,0,0,5.13.5,9.28.5"/><path class="cls-4" d="M127,174.18a7,7,0,0,0-.91.4H87.74V104.67h.08c4.14,0,9.3-.5,9.3-.5,0,4.39.11,9,.47,13.26.07.85.15,1.7.23,2.53.16,1.47.32,2.86.53,4.16v0c.09.58.19,1.11.3,1.65.69,3.44,1.69,6.08,3.08,7.29a2.7,2.7,0,0,0,1.87.78S127,136.68,127,174.18"/><g class="cls-5"><path class="cls-6" d="M98.35,124.11v0a12.36,12.36,0,0,1-10.57,5.74h-.06c-6.06,0-9.59-4.43-10.5-5.7.22-1.29.39-2.65.53-4.06.08-.85.17-1.71.25-2.59a41.05,41.05,0,0,0,9.62,1.26h.1a39.32,39.32,0,0,0,9.85-1.35c.09.85.17,1.7.23,2.52.17,1.48.33,2.86.55,4.16"/></g><path class="cls-7" d="M127,174.18a5.58,5.58,0,0,0-.91.4H49.59a6.7,6.7,0,0,0-.93-.4,71.32,71.32,0,0,1,1.66-15.91l0-.1c.15-.63.31-1.24.48-1.84s.31-1.12.47-1.68c.36-1.11.72-2.13,1.13-3.13.28-.69.56-1.36.89-2a29.21,29.21,0,0,1,2.11-3.9l.55-.87a28.66,28.66,0,0,1,4.4-5.13,21.12,21.12,0,0,1,2.88-2.3c.19-.14.35-.28.52-.4.72-.45,1.39-.85,2-1.17h0a4.61,4.61,0,0,1,.77-.43l.34-.16a20,20,0,0,1,3.48-1.32h0a9.22,9.22,0,0,1,1.27-.27h.06a.89.89,0,0,1,.22-.05,2.87,2.87,0,0,0,1.94-.82s0,0,0,0a2.1,2.1,0,0,1,.9,0c2.48.71,5.06,6,7.68,10,.37.54.71,1.06,1.06,1.55,1.37,1.82,2.74,3.12,4.13,3.12h.05c4.85,0,9.52-15.61,13.94-14.65a2.62,2.62,0,0,0,1.87.82S127,136.33,127,174.18"/><path class="cls-8" d="M80.43,174.58H57.16c.2-3.14.4-8.91.3-16.72A94.22,94.22,0,0,0,56,144.62c6.86-10.19,16-11.31,16-11.31a2.89,2.89,0,0,0,1.94-.8,0,0,0,0,1,0,0c.18-.19.37-.41.56-.65a1.61,1.61,0,0,1,.34.67,151.19,151.19,0,0,1,4.26,18.76,165.69,165.69,0,0,1,1.3,23.31"/><path class="cls-8" d="M95.14,174.58H118.4c-.19-3.14-.39-8.91-.28-16.72a93.81,93.81,0,0,1,1.46-13.24c-6.85-10.19-16-11.31-16-11.31a2.81,2.81,0,0,1-1.92-.8,0,0,0,0,0,0,0,6.16,6.16,0,0,1-.57-.65,1.47,1.47,0,0,0-.35.67,153,153,0,0,0-4.26,18.76,168.83,168.83,0,0,0-1.3,23.31"/><path class="cls-9" d="M88,24.47c40.4,0,40.64,33.71,38.83,55.75,2.77-5.22,11-3.6,10.3,4.63-.64,7.94-12.24,12-12.07,11.11C121.79,114.12,102.79,124.6,88,124.6h-.32V24.47H88"/><path class="cls-6" d="M134.6,81.38a3.83,3.83,0,0,0-5.84-1.12,3.34,3.34,0,0,0-.95,3.66c.28,1,1.4,1.13,1.13,2.75A2.86,2.86,0,0,1,127.32,89,3.64,3.64,0,0,0,126,90.48a3.9,3.9,0,0,0-.18,2.27c.31,1.3,2.21.27,3.48-.3a23.71,23.71,0,0,0,4.18-3.39c1.7-1.89,2.49-5.57,1.16-7.68"/><path class="cls-10" d="M87.84,24.47c-40.4,0-40.63,33.71-38.84,55.75-2.75-5.22-11-3.6-10.3,4.63.66,7.94,12.23,12,12.07,11.11,3.32,18.16,22.33,28.64,37.07,28.64h.31V24.47h-.31"/><path class="cls-6" d="M41.33,81.38a3.83,3.83,0,0,1,5.84-1.12,3.34,3.34,0,0,1,.95,3.66c-.28,1-1.4,1.13-1.13,2.75A2.86,2.86,0,0,0,48.61,89,3.64,3.64,0,0,1,50,90.48a4,4,0,0,1,.18,2.27c-.31,1.3-2.21.27-3.48-.3a23.71,23.71,0,0,1-4.18-3.39c-1.7-1.89-2.49-5.57-1.16-7.68"/><path class="cls-3" d="M87.49,34c-13.29,0-23,3.86-28.92,11.46C50.35,56,50.66,72.22,53.7,83.84c.92,3.57,1.4,13.14,2,16.67C58.61,116.22,76,124.6,87.49,124.6h.3V34h-.3"/><path class="cls-4" d="M116.34,45.43C110.5,37.88,100.88,34.05,87.79,34v90.62c13.11-.14,28.75-9.32,31.44-24.08.64-3.53,1.12-13.1,2-16.67,3-11.59,3.31-27.78-4.94-38.41"/><path class="cls-11" d="M119.68,86a13.92,13.92,0,0,0-27.8.43,10.75,10.75,0,0,0-7.79-.11,13.93,13.93,0,0,0-27.8-.56,64.37,64.37,0,0,1-7-8.33l-1.26.69c0,.1,5.57,8,8.2,9.26a13.92,13.92,0,0,0,27.8.5,8.88,8.88,0,0,1,7.87.24,13.92,13.92,0,0,0,27.76-.61c2.45-.63,8.52-9.28,8.55-9.39v-2C125.93,79.23,121.09,85,119.68,86Z"/><path class="cls-12" d="M136.7,87.11c-2-14.13,1.41-25.14-1.22-36.18s-3.32-12.13-7.71-18.12S119.2,22,107.38,18s-14.32-2.62-18.82-2.56a21.76,21.76,0,0,0-11.79,3.47,11.17,11.17,0,0,1,.42-5.85,32.17,32.17,0,0,1,2-5s-2.88,4.41-3.5,5.52C73.12,18.19,73.92,20,73.92,20c-2.4-1.34-12.68-5.42-12.68-5.42s3.5,2.16,3.93,4.08S42,29.57,38.67,54.06a68.86,68.86,0,0,0,.09,21.07,41.36,41.36,0,0,0,10.78,17.4c.38-3.31.2-5.68.74-8.5.15-.76.28-1.73.42-2.82a23.14,23.14,0,0,0,1.79,5.64,24.44,24.44,0,0,0,3.18,5.05,29.4,29.4,0,0,1-2.23-12.7c.36-4.09,2.81-4.73,8.28-19.73a18.15,18.15,0,0,0,.9-3.79,9.79,9.79,0,0,0,1,2.13,22.08,22.08,0,0,0,10.1,8.39,18.81,18.81,0,0,1-6.61-13.91,22.06,22.06,0,0,1,1.75-8.63s-1.67,10,13.47,16a12,12,0,0,0,7.75.57s-6.29-3.69-6.34-10.08a51.34,51.34,0,0,0,26.91,16.32,38.44,38.44,0,0,0,11.26,1.12s.7-1.44.49,5.32-1.4,9.66-3,12a22.83,22.83,0,0,1-2.64,2.68s5-1.85,8.18-8.23c1.59-3.22,2.83-4.85,2.74-6.76.15,2.36-.78,6-1.28,13.56-.94,14.24-5.91,20.45-5.91,20.45s3.62-2,6.61-7.92c.31-.63.63-1.29.93-2,.14-.36.29-.71.43-1.09h0c.89-2.26,1.73-11,2.47-14.21,0,0,1.72,8.26,2.58,12.61a19.4,19.4,0,0,0,2.65-5.11S138.25,98.22,136.7,87.11Z"/></g></g></svg>