<svg xmlns="http://www.w3.org/2000/svg" viewBox="0 0 174.99 175.72"><defs><style>.cls-1{fill:#b0c061;}.cls-2{fill:#dcc5a1;}.cls-3{fill:#edd9b4;}.cls-4,.cls-6{fill:#bc9f82;}.cls-4{opacity:0.7;}.cls-5{fill:#ccad8b;}.cls-7{fill:#d9bf9f;}.cls-8{fill:#442c38;}.cls-9{fill:#895a59;}.cls-10{fill:#fff;}.cls-11{fill:#82acc6;}.cls-12{fill:#eed121;}</style></defs><title>Ativo 144ac</title><g id="Camada_2" data-name="Camada 2"><g id="Avatares"><rect class="cls-1" width="174.99" height="174.92" rx="39.35"/><path class="cls-2" d="M88.86,110.55v65.17H53.29l-.88-.35c0-24.23,10.45-32.93,16.86-36a17.88,17.88,0,0,1,4.9-1.59c2.19,0,3.59-2.78,4.51-7,.15-.64.27-1.32.37-2,.2-1.19.37-2.46.51-3.78.07-.8.15-1.59.22-2.41.32-4,.42-8.35.42-12.48C80.2,110.07,85,110.55,88.86,110.55Z"/><path class="cls-3" d="M125.42,175.37l-.84.35H88.86V110.55h.07c3.87,0,8.68-.48,8.68-.48,0,4.1.1,8.41.42,12.38.08.8.15,1.6.23,2.36.15,1.37.3,2.66.5,3.88v0a14.05,14.05,0,0,0,.28,1.54c.89,4.5,2.36,7.53,4.61,7.53a18.88,18.88,0,0,1,6.06,2.19C116.15,143.51,125.42,152.53,125.42,175.37Z"/><path class="cls-4" d="M98.75,128.68v0a11.51,11.51,0,0,1-9.85,5.35h-.06a12.4,12.4,0,0,1-9.8-5.32c.2-1.19.38-2.46.5-3.78.08-.79.16-1.59.23-2.41a38.93,38.93,0,0,0,9,1.17h.09A37.14,37.14,0,0,0,98,122.44c.07.8.14,1.6.22,2.36C98.4,126.17,98.55,127.46,98.75,128.68Z"/><path class="cls-5" d="M88.62,35.75c-37.68,0-37.89,31.44-36.21,52-2.59-4.88-10.24-3.37-9.62,4.3.61,7.41,11.42,11.23,11.27,10.37,3.09,16.94,20.81,26.71,34.56,26.71h.29V35.77Z"/><path class="cls-6" d="M45.35,88.83a3.57,3.57,0,0,1,5.44-1,3.06,3.06,0,0,1,.88,3.41c-.26,1-1.3,1.06-1,2.56a2.63,2.63,0,0,0,1.51,2.18,3.47,3.47,0,0,1,1.26,1.38,3.72,3.72,0,0,1,.17,2.12c-.28,1.22-2.06.25-3.24-.29A22.54,22.54,0,0,1,46.43,96C44.84,94.22,44.11,90.8,45.35,88.83Z"/><path class="cls-7" d="M89.2,35.75c37.67,0,37.89,31.44,36.22,52,2.58-4.88,10.23-3.37,9.6,4.3-.61,7.41-11.41,11.23-11.26,10.37-3.08,16.94-20.81,26.71-34.56,26.71h-.29V35.77Z"/><path class="cls-6" d="M132.61,88.82a3.57,3.57,0,0,0-5.44-1,3.1,3.1,0,0,0-.88,3.41c.26,1,1.3,1.06,1,2.55a2.63,2.63,0,0,1-1.5,2.18,3.45,3.45,0,0,0-1.27,1.39,3.6,3.6,0,0,0-.16,2.11c.28,1.22,2.06.25,3.25-.28A22.92,22.92,0,0,0,131.54,96C133.13,94.21,133.85,90.79,132.61,88.82Z"/><path class="cls-2" d="M88.68,44.61c-12.4,0-21.47,3.59-27,10.68-7.67,9.88-7.38,25-4.55,35.84.86,3.31,1.31,12.24,1.9,15.53,2.68,14.66,18.91,22.48,29.61,22.48H89V44.62Z"/><path class="cls-3" d="M115.53,55.31c-5.46-7-14.42-10.63-26.62-10.69v84.51c12.21-.14,26.81-8.69,29.31-22.47.6-3.28,1-12.22,1.91-15.53C123,80.31,123.23,65.22,115.53,55.31Z"/><path class="cls-8" d="M107,119.36a11.6,11.6,0,0,0-1.81-5.79s-.38-.31-1-.79-1.72-1.18-3-1.94a36,36,0,0,0-4.87-2.64h0s7.93,2.87-.19-.08a20.73,20.73,0,0,0-14.62,0,33.73,33.73,0,0,0-5.08,2.72c-1.3.76-2.32,1.45-3,1.94s-1,.78-1,.79a11.5,11.5,0,0,0-1.81,5.79c0,.25,0,.5,0,.76a12.13,12.13,0,0,0,1.48,5.95,4.52,4.52,0,0,0,1.38,1.8,5.7,5.7,0,0,0,2.1,1.3,29.31,29.31,0,0,0,10.91,2.36,12.57,12.57,0,0,0,4.89,0,29.27,29.27,0,0,0,10.91-2.36,5.59,5.59,0,0,0,2.09-1.3,4.43,4.43,0,0,0,1.38-1.8,12,12,0,0,0,1.49-5.95C107.06,119.86,107,119.61,107,119.36Zm-5.12,5.77a23.23,23.23,0,0,1-5,1.55v0c0-2.83-3.67-5.11-8.19-5.11s-8.18,2.28-8.18,5.11v0a23.81,23.81,0,0,1-5-1.55,12.23,12.23,0,0,1-1-5,9,9,0,0,1,1.25-2.41c.09-.12.18-.21.27-.32a17.27,17.27,0,0,1,4.09-2.26c2.33-.49,4.84-.38,6.68-1.47a4.72,4.72,0,0,0,1.88-2.15,4.8,4.8,0,0,0,1.89,2.15c1.84,1.09,4.35,1,6.68,1.47a17.27,17.27,0,0,1,4.09,2.26c.09.11.18.2.27.32a9.57,9.57,0,0,1,1.25,2.41A12.56,12.56,0,0,1,101.89,125.13Z"/><path class="cls-8" d="M122,96.27c.71,0-.06-4.15,2.33-7s6-12.5,6-22.12S127.23,49,119.16,39.86s-20-13.51-20-13.51l5.46,5.45s-2.94-4.43-13.51-8c-8.35-2.8-13.76.31-13.76.31s5.51-.2,7.17,2.42a9.32,9.32,0,0,0,2,1.68S84,22,72.11,27.16,60.45,41.68,52.19,44.54c-8.46,2.93-10.91-.83-10.91-.83S45,50.3,51.47,50.32a4.86,4.86,0,0,0,1.16,0,64.38,64.38,0,0,0-2.91,12.33c-.48,5.38,1,9.06,1.47,19.13.4,8.6,2.55,4.19,5.1,10.53a14.43,14.43,0,0,1,.9,4.52c1,.25,3.43-5.16,1.64-14.56C57.68,76.12,63.41,53,77.26,57.49c8.47,2.76,10.6,8.39,16.93,3.39,5.46-4.3,13.09-6.77,18.79-3.37s8.92,11.06,7.92,23.28C119.63,96.38,122,96.27,122,96.27Z"/><path class="cls-9" d="M125.48,175.35s-.33.12-.85.37H53.33c-.56-.25-.87-.37-.87-.37,0-32.89,18.63-37.63,21.43-38.13,1.48,1.64,3.47,3.7,5.52,5.74,4.38,4.3,9,8.52,9,8.52s5.2-4.39,9.74-8.32a.07.07,0,0,1,0,0c1.82-1.57,3.54-3.06,4.74-4.2a7.1,7.1,0,0,0,.62-.57c.48-.45.86-.8,1.05-1h0a16.26,16.26,0,0,1,2.77.92c.2.07.4.17.62.27a23.31,23.31,0,0,1,4.29,2.54c.22.17.42.32.62.49C118.89,146.19,125.48,155.78,125.48,175.35Z"/><path class="cls-10" d="M102.78,132.32c.32.24,3.83,7.75,4.46,9.3s0,6.12,0,6.12-.48-2.44-1.88-3.1-4.37-1-5.54-.41-6.72,4.9-7.73,5.64a5.53,5.53,0,0,0-2,2.33v23.52H87.63l.16-23.37L90.44,144l9.71-9.4s-.59-2.39-.68-2.72S102.47,132.08,102.78,132.32Z"/><path class="cls-10" d="M74.91,132.71c-.3.25-3.82,7.76-4.45,9.3s0,6.13,0,6.13.47-2.45,1.88-3.1,4.37-1,5.54-.41,6.72,4.9,7.73,5.63,4.45,3.1,4.45,3.1L86.62,144l-9-9s.78-2.48.76-2.67S75.23,132.47,74.91,132.71Z"/><polygon class="cls-11" points="107.37 153.77 106.33 153.77 103.11 153.77 103.11 159.14 105.81 161.84 106.33 161.84 107.37 161.84 107.88 161.84 110.58 159.14 110.58 153.77 107.37 153.77"/><path class="cls-12" d="M111,165a4.15,4.15,0,1,1-4.16-4.13A4.14,4.14,0,0,1,111,165Z"/></g></g></svg>