<svg xmlns="http://www.w3.org/2000/svg" xmlns:xlink="http://www.w3.org/1999/xlink" viewBox="0 0 59.89 59.88"><defs><style>.cls-1{fill:none;}.cls-2{fill:#4f4e49;}.cls-3{fill:#dcc5a1;}.cls-4{fill:#edd9b4;}.cls-5{clip-path:url(#clip-path);}.cls-6{fill:#bc9f82;}.cls-7{fill:#ccad8b;}.cls-8{fill:#d9bf9f;}.cls-9{fill:#fdfdfd;}.cls-10{fill:#434142;}.cls-11{fill:#bd2c62;}.cls-12{fill:#dca88d;}.cls-13{fill:#4a72b0;}.cls-14{fill:#840e5b;}.cls-15{fill:#82acc6;}.cls-16{fill:#da9500;}.cls-17{fill:#f7eb45;}.cls-18{fill:#008f45;}.cls-19{fill:#1d1e17;}</style><clipPath id="clip-path"><rect class="cls-1" x="26.11" y="39.31" width="7.61" height="4.48"/></clipPath></defs><title>Ativo 209chatbot</title><g id="Camada_2" data-name="Camada 2"><g id="ChatBot"><rect class="cls-2" width="59.89" height="59.88" rx="13.47"/><path class="cls-3" d="M29.9,34.71V59.88H16.17a3.27,3.27,0,0,0-.35-.14c0-10.38,5-13.38,7.27-14.21a6.08,6.08,0,0,1,1.14-.31c.84,0,1.37-1.07,1.74-2.7.05-.24.1-.5.14-.78.08-.46.14-1,.2-1.46,0-.31.05-.62.08-.93.13-1.56.17-3.23.17-4.82,0,0,1.84.18,3.34.18"/><path class="cls-4" d="M44,59.74a2.41,2.41,0,0,0-.33.14H29.9V34.71h0c1.49,0,3.35-.18,3.35-.18,0,1.59,0,3.24.16,4.78,0,.31.06.61.09.9.06.54.1,1,.18,1.51h0c0,.21.07.4.12.59.35,1.73.91,2.9,1.78,2.9a6.92,6.92,0,0,1,1.73.54c2.47,1.12,6.68,4.42,6.68,14"/><g class="cls-5"><path class="cls-6" d="M33.72,41.71h0a4.44,4.44,0,0,1-3.8,2.07h0a4.81,4.81,0,0,1-3.79-2.06c.08-.46.14-.95.19-1.46l.09-.92a15,15,0,0,0,3.47.44h0a14.21,14.21,0,0,0,3.54-.48l.09.9c.06.54.11,1,.19,1.5"/></g><path class="cls-7" d="M29.64,5.84C15.1,5.84,15,18,15.66,25.91c-1-1.88-3.95-1.3-3.71,1.67s4.41,4.33,4.35,4c1.19,6.54,8,10.31,13.34,10.31h.11v-36h-.11"/><path class="cls-6" d="M12.88,26.32a1.39,1.39,0,0,1,2.11-.4,1.22,1.22,0,0,1,.33,1.32c-.1.38-.5.41-.4,1a1,1,0,0,0,.58.84c.17.15.39.26.49.54a1.52,1.52,0,0,1,.07.81c-.11.47-.8.1-1.26-.11a9,9,0,0,1-1.5-1.22,2.6,2.6,0,0,1-.42-2.77"/><path class="cls-8" d="M29.71,5.84c14.55,0,14.63,12.13,14,20.07,1-1.88,3.95-1.3,3.7,1.67s-4.4,4.33-4.34,4c-1.19,6.54-8,10.31-13.35,10.31H29.6v-36h.11"/><path class="cls-6" d="M46.48,26.32a1.39,1.39,0,0,0-2.11-.4A1.23,1.23,0,0,0,44,27.24c.11.38.51.41.41,1a1,1,0,0,1-.58.84c-.17.15-.39.26-.49.54a1.34,1.34,0,0,0-.07.81c.11.47.8.1,1.26-.11a9,9,0,0,0,1.5-1.22,2.62,2.62,0,0,0,.42-2.77"/><path class="cls-3" d="M29.81,9.26c-4.79,0-8.29,1.38-10.41,4.12-3,3.81-2.85,9.65-1.76,13.84.33,1.27.51,4.72.74,6,1,5.67,7.3,8.68,11.43,8.68h.11V9.26h-.11"/><path class="cls-4" d="M40.19,13.38c-2.1-2.71-5.56-4.1-10.27-4.12V41.88c4.71-.05,10.35-3.35,11.32-8.67.23-1.27.4-4.72.73-6,1.09-4.18,1.2-10-1.78-13.84"/><path class="cls-9" d="M44,59.74a2.41,2.41,0,0,0-.33.14H16.15a3.27,3.27,0,0,0-.35-.14c0-10.38,5-13.38,7.27-14.21,1.33.66,3.48,1.73,4.25,2.08a5.81,5.81,0,0,0,2.58.88,17.14,17.14,0,0,0,3.79-1.12,19.61,19.61,0,0,0,3.63-1.61c2.47,1.12,6.68,4.42,6.68,14"/><path class="cls-10" d="M40.93,59.88H18.87c.07-1.07.14-3,.11-5.65v-.49c0-.18,0-.37,0-.58l0-.41c-.09-1.06-.26-2.31-.47-3.61a10.38,10.38,0,0,1,2-2.23.83.83,0,0,1,.19-.15,8.88,8.88,0,0,1,2.4-1.37l.35-.11a4.33,4.33,0,0,1,.81-.19,1,1,0,0,0,.69-.29h0l.21-.24a.78.78,0,0,1,.12.25c.26.68,2.86,2.69,4.65,4.45,1.79-1.76,4.39-3.77,4.65-4.45a.57.57,0,0,1,.13-.25,1.59,1.59,0,0,0,.2.24h0a1,1,0,0,0,.69.29,4.63,4.63,0,0,1,.76.17l.35.12a8.69,8.69,0,0,1,2.44,1.36l.18.15a10.07,10.07,0,0,1,2,2.25c-.22,1.34-.4,2.62-.47,3.68,0,.14,0,.29,0,.42s0,.29,0,.41v.5c0,2.66,0,4.65.11,5.73"/><polygon class="cls-11" points="24.27 50.93 24.28 50.91 24.27 50.91 22.87 48.52 21.48 46.1 20.09 48.52 18.68 50.91 18.67 50.91 18.68 50.93 18.67 50.94 18.68 50.94 20.09 53.34 21.48 55.75 22.87 53.34 24.27 50.94 24.28 50.94 24.27 50.93"/><polygon class="cls-12" points="29.89 50.93 29.89 50.91 29.88 50.91 28.48 48.52 27.09 46.1 25.7 48.52 24.3 50.91 24.28 50.91 24.29 50.93 24.28 50.94 24.3 50.94 25.7 53.34 27.09 55.75 28.48 53.34 29.88 50.94 29.89 50.94 29.89 50.93"/><polygon class="cls-13" points="35.5 50.93 35.51 50.91 35.49 50.91 34.09 48.52 32.7 46.1 31.31 48.52 29.91 50.91 29.9 50.91 29.9 50.93 29.9 50.94 29.91 50.94 31.31 53.34 32.7 55.75 34.09 53.34 35.49 50.94 35.51 50.94 35.5 50.93"/><polygon class="cls-14" points="41.11 50.93 41.12 50.91 41.11 50.91 39.71 48.52 38.31 46.1 36.92 48.52 35.52 50.91 35.51 50.91 35.52 50.93 35.51 50.94 35.52 50.94 36.92 53.34 38.31 55.75 39.71 53.34 41.11 50.94 41.12 50.94 41.11 50.93"/><polygon class="cls-15" points="23.87 59.88 19.07 59.88 20.09 58.17 21.47 55.75 22.87 58.17 23.87 59.88"/><polygon class="cls-16" points="29.49 59.88 24.69 59.88 25.7 58.17 27.09 55.75 28.47 58.17 29.49 59.88"/><polygon class="cls-17" points="35.1 59.88 30.3 59.88 31.32 58.17 32.7 55.75 34.09 58.17 35.1 59.88"/><polygon class="cls-18" points="40.71 59.88 35.92 59.88 36.92 58.17 38.32 55.75 39.71 58.17 40.71 59.88"/><path class="cls-19" d="M24.39,53.43l.06-.13h-.13L23,51l-1.49-2.6L20,51l-1,1.78,0,.41,1.23-2.07,1.28-2.24,1.29,2.24,1.37,2.34-1.37,2.36L21.45,58l-1.27-2.23-1.2-2v.49l1,1.67,1.49,2.6L23,55.9l1.37-2.33h.14Z"/><path class="cls-19" d="M27.07,58.5l-1.49-2.6-1.37-2.33h-.14l.07-.13-.08-.12h.15L25.58,51l1.49-2.6,1.5,2.6,1.36,2.33h.13l-.06.13.07.12h-.14L28.57,55.9Zm-2.66-5.07,1.38,2.35L27.07,58l1.29-2.24,1.37-2.35-1.37-2.34-1.29-2.23-1.28,2.23Z"/><path class="cls-19" d="M32.68,58.5l-1.49-2.6-1.37-2.33h-.14l.07-.13-.07-.12h.14L31.19,51l1.5-2.6L34.18,51l1.36,2.33h.14l-.06.13.06.12h-.14L34.18,55.9ZM30,53.43l1.38,2.35L32.68,58,34,55.78l1.38-2.35L34,51.09l-1.28-2.23L31.4,51.09Z"/><path class="cls-19" d="M38.3,48.85l1.29,2.24,1.25,2.15c0-.13,0-.28,0-.42L39.79,51l-1.49-2.6L36.8,51,35.44,53.3l-.16,0,.08.11-.07.14h.15L36.8,55.9l1.5,2.6,1.49-2.6,1-1.75v-.5l-1.23,2.14L38.3,58,37,55.79l-1.38-2.36L37,51.09Z"/><polygon class="cls-19" points="21.45 58.01 20.39 59.88 20.66 59.88 21.45 58.49 22.27 59.88 22.54 59.88 21.45 58.01"/><polygon class="cls-19" points="27.07 58.01 26 59.88 26.28 59.88 27.07 58.49 27.87 59.88 28.15 59.88 27.07 58.01"/><polygon class="cls-19" points="32.69 58.01 31.61 59.88 31.89 59.88 32.69 58.49 33.48 59.88 33.76 59.88 32.69 58.01"/><polygon class="cls-19" points="38.3 58.01 37.22 59.88 37.49 59.88 38.3 58.49 39.09 59.88 39.38 59.88 38.3 58.01"/><path class="cls-19" d="M23.06,45.39l-1.6,2.77-.8-1.4a.83.83,0,0,0-.19.15l1,1.73,1.95-3.36-.35.11"/><path class="cls-19" d="M39.13,46.74l-.82,1.42-1.62-2.78-.35-.12,2,3.38,1-1.75-.18-.15"/><path class="cls-9" d="M35.16,44.33c-.21-.54-.71-1-.9-1.46-.3-.7-.58-1.32-.58-1.32a34.71,34.71,0,0,1-1.11,3.65s-3.26,3.48-2.76,3.6a11,11,0,0,1,3.63,2c.7.8.59,1.55.77.46s1.51-5.55.95-7"/><path class="cls-9" d="M27.23,45.2a37.3,37.3,0,0,1-1.11-3.65s-.28.62-.58,1.32c-.18.43-.69.92-.9,1.46-.55,1.42.77,5.88,1,7s.06.34.76-.46a10.68,10.68,0,0,1,3.54-2c.51-.11-2.67-3.62-2.67-3.62"/></g></g></svg>