<svg xmlns="http://www.w3.org/2000/svg" viewBox="0 0 297.95 297.9"><defs><style>.cls-1{fill:#219ebc;}.cls-2{fill:#dbdbdb;}.cls-3{fill:#fff;}</style></defs><title>Ativo 213icone</title><g id="Camada_2" data-name="Camada 2"><g id="Perfil_Psico" data-name="Perfil Psico"><rect class="cls-1" width="297.95" height="297.9" rx="49.61"/><path class="cls-2" d="M196.06,45.49h-6v5.84h-6.57V45.49h-6V39.28h6V33.44H190v5.84h6Z"/><path class="cls-2" d="M221.4,48.67v6.5H200.14V29.61h20.78v6.5h-12.3v3h10.81v6.21H208.62v3.36Z"/><path class="cls-2" d="M240.71,55.17l-4.41-6.83L232,55.17h-9.83l9.24-12.89-8.91-12.67h9.68L236.51,36l4.24-6.42H250L241.15,42l9.42,13.22Z"/><path class="cls-2" d="M275.59,39.25c0,5.91-4.53,9.64-11.65,9.64h-3.69v6.28h-8.62V29.61h12.31C271.06,29.61,275.59,33.33,275.59,39.25Zm-8.69,0c0-1.87-1.14-3-3.51-3h-3.14v6h3.14C265.76,42.24,266.9,41.11,266.9,39.25Z"/><path class="cls-3" d="M210.55,145.47c2.9-35.61,2.53-90-62.57-90.07h-.67c-65.1.1-65.47,54.46-62.57,90.07C80.26,137,67,139.64,68.11,152.94c1,12.81,19.75,19.45,19.49,18,4.22,23.07,24.13,38.47,44,44v.86c-.25.56-1.37,3-2.57,5.82-.81,1.9-3.08,4.13-4,6.52a10.63,10.63,0,0,0-.58,3.18,4.24,4.24,0,0,1-1.34.24,24.1,24.1,0,0,0-3.6.85h0c-.47.14-1,.31-1.55.52a39.23,39.23,0,0,0-7,3.44l-.15-.25-.31.54a40.64,40.64,0,0,0-3.37,2.39,3.89,3.89,0,0,0-.82.68,45.42,45.42,0,0,0-9.09,10l.06.36c-6.63,9.68-11.94,24.49-11.94,47.21a15.1,15.1,0,0,1,1.57.64H210.52a11,11,0,0,1,1.46-.64c0-22.8-5.34-37.66-12-47.34a1.85,1.85,0,0,1,0-.23,44.45,44.45,0,0,0-9.17-10.08,8.82,8.82,0,0,0-.81-.7c-1.15-.89-2.27-1.67-3.37-2.36l-.28-.48-.13.23a37.79,37.79,0,0,0-7.14-3.45l-1.57-.57a21.2,21.2,0,0,0-3.41-.77,4.18,4.18,0,0,1-1.33-.24,10.63,10.63,0,0,0-.58-3.18c-.94-2.39-3.18-4.62-4-6.52-1.1-2.55-2.11-4.83-2.46-5.62v-1.68c19.19-6,37.87-21.1,41.92-43.37-.25,1.49,18.47-5.15,19.5-18C228.28,139.64,215,137,210.55,145.47Z"/><path class="cls-1" d="M111.53,110.72a26.21,26.21,0,0,1,4.44-14A34,34,0,0,1,128.9,85a40.69,40.69,0,0,1,19.83-4.65,42.33,42.33,0,0,1,18.6,3.89A30.26,30.26,0,0,1,179.8,94.81a25.93,25.93,0,0,1,4.39,14.53,22.38,22.38,0,0,1-2.51,10.83,33.06,33.06,0,0,1-6,8q-3.45,3.38-12.39,11.37a48.86,48.86,0,0,0-4,4,16.69,16.69,0,0,0-2.22,3.12,15.21,15.21,0,0,0-1.12,2.84q-.4,1.41-1.2,5-1.38,7.56-8.65,7.56a8.83,8.83,0,0,1-6.36-2.47c-1.72-1.65-2.58-4.09-2.58-7.34a25.75,25.75,0,0,1,6.91-18.42,114.18,114.18,0,0,1,8.43-8c3.09-2.71,5.34-4.75,6.72-6.14a20.55,20.55,0,0,0,3.48-4.61,11.07,11.07,0,0,0,1.42-5.52,12.85,12.85,0,0,0-4.32-9.81,15.82,15.82,0,0,0-11.16-4q-8,0-11.77,4t-6.39,11.88q-2.48,8.2-9.37,8.21a9.23,9.23,0,0,1-6.87-2.87A8.83,8.83,0,0,1,111.53,110.72ZM147,190.36a11.47,11.47,0,0,1-7.74-2.87,10.09,10.09,0,0,1-3.3-8,10.34,10.34,0,0,1,3.19-7.7,10.78,10.78,0,0,1,7.85-3.13,10.69,10.69,0,0,1,10.83,10.83,10.14,10.14,0,0,1-3.27,8A11,11,0,0,1,147,190.36Z"/></g></g></svg>