<svg xmlns="http://www.w3.org/2000/svg" xmlns:xlink="http://www.w3.org/1999/xlink" viewBox="0 0 125 125"><defs><style>.cls-1{fill:none;}.cls-2{fill:#023047;}.cls-3{clip-path:url(#clip-path);}.cls-4{fill:#fbe88c;}.cls-5{fill:#fbe372;}.cls-6{fill:#e79098;}.cls-7{fill:#e17983;}.cls-8{fill:#ffe0d1;}.cls-9{fill:#ffd1c2;}.cls-10{fill:#fcf0b6;}</style><clipPath id="clip-path"><rect class="cls-1" x="17.88" y="12.4" width="89.23" height="100.19"/></clipPath></defs><title>Ativo 206elogios</title><g id="Camada_2" data-name="Camada 2"><g id="Extras"><rect class="cls-2" width="125" height="125" rx="7.12"/><g class="cls-3"><path class="cls-4" d="M43.19,92.1A34.44,34.44,0,0,1,34.77,38L50.64,21.44a1.27,1.27,0,0,1,2,.28L54,24.18,63,13.1a1.86,1.86,0,0,1,2.8-.12l24,25a34.44,34.44,0,0,1-8.42,54.1L69.43,97.88H55.09Z"/><path class="cls-5" d="M40.48,60.56c0-21.16,12.39-38.89,29.07-43.62l-3.79-4a1.86,1.86,0,0,0-2.8.12L54,24.18l-1.33-2.46a1.27,1.27,0,0,0-2-.28L34.77,38a34.44,34.44,0,0,0,8.42,54.1l11.9,5.78h2.27c-10.18-8-16.88-21.76-16.88-37.32Z"/></g><path class="cls-6" d="M56.55,91.51,46.11,86.44a28.08,28.08,0,0,1-6.75-44L49.67,31.65a.78.78,0,0,1,1.24.17l1.51,2.79a.75.75,0,0,0,1.25.11l10.1-12.5a1.31,1.31,0,0,1,1.95-.08L85.14,42.41a28.07,28.07,0,0,1-6.74,44L68,91.51Z"/><path class="cls-7" d="M46.11,86.44l1.88.91a50.16,50.16,0,0,1-7.51-26.79,50,50,0,0,1,8.24-27.92l-9.36,9.77a28.08,28.08,0,0,0,6.75,44Z"/><path class="cls-8" d="M66.9,52.75a4.88,4.88,0,0,1,2.25-.54H79a6.41,6.41,0,0,1,6.4,6.4v3.75A25.85,25.85,0,0,1,79.75,78.5l-4.43,5.57V109.8a2.79,2.79,0,0,1-2.79,2.8H52.23a2.79,2.79,0,0,1-2.79-2.8V80.41L48.2,78.76a13.93,13.93,0,0,1-2.78-8.34V52.75Z"/><path class="cls-9" d="M57.88,108.22a2.7,2.7,0,0,1-2.79-2.59V80a4.72,4.72,0,0,0-1.05-3l-.19-.24a12.3,12.3,0,0,1-2.78-7.73V52.75H45.42V70.42a13.87,13.87,0,0,0,2.78,8.34l1.24,1.65V109.8a2.79,2.79,0,0,0,2.79,2.8h20.3a2.79,2.79,0,0,0,2.79-2.8v-1.58Z"/><path class="cls-9" d="M58.27,59.29h.28a7.58,7.58,0,0,0,7.5-6.54H45.42v4.9a7.53,7.53,0,0,0,3.77,1h.49a7.35,7.35,0,0,0,2.66-.49,2.81,2.81,0,0,1,2.3.18,7.43,7.43,0,0,0,3.63.94Z"/><path class="cls-9" d="M66.66,78.74h12.9l.19-.24A25.85,25.85,0,0,0,85.4,62.36V58.61a6.41,6.41,0,0,0-6.4-6.4H69.15a4.88,4.88,0,0,0-2.25.54H62.43a8,8,0,0,0,2.12,11,14.82,14.82,0,0,0-3.44,9.44,5.55,5.55,0,0,0,5.55,5.55Z"/><path class="cls-8" d="M71.88,45a4.49,4.49,0,1,0-9,0v9.36a4.49,4.49,0,1,0,9,0Z"/><path class="cls-8" d="M76.36,41.72a4.49,4.49,0,0,0-4.48,4.49V56.73h9V46.21a4.49,4.49,0,0,0-4.49-4.49Z"/><path class="cls-9" d="M79,49.13H75.93a1.5,1.5,0,0,1-1.49-1.5V46.34A4.48,4.48,0,0,1,77.88,42a4.59,4.59,0,0,0-1.62-.26,4.54,4.54,0,0,0-4.38,4.58V56.73h9V49.31A9.44,9.44,0,0,0,79,49.13Z"/><path class="cls-9" d="M65.41,54.8V45.44a4.5,4.5,0,0,1,4-4.47,4.55,4.55,0,0,0-2-.49A4.49,4.49,0,0,0,62.9,45v9.36a4.49,4.49,0,0,0,4.49,4.49l.47,0a4.51,4.51,0,0,1-2.45-4Z"/><path class="cls-9" d="M69.15,49.13a8.05,8.05,0,0,0-3.63.86q-.42.23-.81.48v7.47a4.5,4.5,0,0,0,7.17-3.61v-5.2Z"/><path class="cls-8" d="M71.28,62.13H69.15a5,5,0,0,1-3.5-8.47,4.66,4.66,0,0,1,1.25-.91,4.88,4.88,0,0,1,2.25-.54H79a6.41,6.41,0,0,1,6.4,6.4v3.75A25.94,25.94,0,0,1,79.76,78.5l-2.37,3H64.19V73.19a11.64,11.64,0,0,1,5.59-9.94l1.5-.92Z"/><path class="cls-8" d="M58.55,41.72h-.28a4.49,4.49,0,0,0-4.49,4.49v5.51a4.49,4.49,0,0,0,4.49,4.49h.28A4.49,4.49,0,0,0,63,51.72V46.21a4.49,4.49,0,0,0-4.49-4.49Z"/><path class="cls-9" d="M56.79,51.53V46a4.49,4.49,0,0,1,2.83-4.17,4.18,4.18,0,0,0-1.07-.13h-.28a4.49,4.49,0,0,0-4.49,4.49v5.51a4.49,4.49,0,0,0,4.49,4.49h.28a4.34,4.34,0,0,0,1.66-.32,4.49,4.49,0,0,1-3.42-4.36Z"/><path class="cls-8" d="M49.68,42.26h-.49a4.49,4.49,0,0,0-4.49,4.49v4.34a4.49,4.49,0,0,0,4.49,4.48h.49a4.49,4.49,0,0,0,4.49-4.48V46.75a4.49,4.49,0,0,0-4.49-4.49Z"/><g class="cls-3"><path class="cls-9" d="M47.64,51.13V46.8A4.48,4.48,0,0,1,51,42.46a4.26,4.26,0,0,0-1.3-.2h-.49a4.49,4.49,0,0,0-4.49,4.49v4.34a4.49,4.49,0,0,0,4.49,4.48h.49a4.77,4.77,0,0,0,1.15-.14,4.5,4.5,0,0,1-3.19-4.3Z"/><path class="cls-10" d="M105,69.62a1,1,0,0,1-.24,0,1.54,1.54,0,0,1-1.29-1.75,38.8,38.8,0,0,0-10.39-33l-5.25-5.47a1.54,1.54,0,1,1,2.22-2.13l5.25,5.47a41.83,41.83,0,0,1,11.22,35.65,1.54,1.54,0,0,1-1.52,1.3Z"/><path class="cls-10" d="M31.76,92.94a1.51,1.51,0,0,1-1.05-.42A41.59,41.59,0,0,1,18,68.32a1.54,1.54,0,1,1,3-.47A38.57,38.57,0,0,0,32.81,90.27a1.54,1.54,0,0,1,.07,2.18,1.5,1.5,0,0,1-1.12.49Z"/></g></g></g></svg>