<svg xmlns="http://www.w3.org/2000/svg" xmlns:xlink="http://www.w3.org/1999/xlink" viewBox="0 0 125 125"><defs><style>.cls-1{fill:none;}.cls-2{fill:#023047;}.cls-3{clip-path:url(#clip-path);}.cls-4{fill:#ffe0d1;}.cls-5{fill:#ffd1c2;}.cls-6{fill:#ffe6c6;}.cls-7{fill:#f8d3aa;}</style><clipPath id="clip-path"><rect class="cls-1" x="13.19" y="12.4" width="98.63" height="100.19"/></clipPath></defs><title>Ativo 211elogios</title><g id="Camada_2" data-name="Camada 2"><g id="Extras"><rect class="cls-2" width="125" height="125" rx="7.89"/><g class="cls-3"><path class="cls-4" d="M79.35,13.14,66.88,28.81l-6.59,4.08A28.42,28.42,0,0,0,48.94,46.37l-2.06,5.07-2.46,16L55,77.49l.89,8.93A5.11,5.11,0,0,1,55.46,89l-3.17,7a3.5,3.5,0,0,0,6,3.51l5.8-7.93a2.6,2.6,0,0,0,.28-.45l0,0L62,96.23a3.54,3.54,0,0,0,6.14,3.5l3.4-5.19a2.27,2.27,0,0,1,.19-.34l2.5-3.89a3.19,3.19,0,0,1-.3.58L71.5,94.54A3.22,3.22,0,0,0,77,97.83l4.12-5.72-.83,1.22a3.33,3.33,0,0,0,5.35,4l2.51-3.13a5.34,5.34,0,0,0,1.11-2.69l.76-6.6L93.54,56,93.69,50l0-8.53a1.54,1.54,0,0,1,.34-1L111.42,18.9a1.48,1.48,0,0,0-1-2.38l-29.33-4.1a2,2,0,0,0-1.79.72Z"/><path class="cls-5" d="M81.14,12.42a2,2,0,0,0-1.79.72L66.88,28.81l-6.59,4.08A28.42,28.42,0,0,0,48.94,46.37l-1,2.55H55l.32-.78A29.38,29.38,0,0,1,67,34.17l6.78-4.23L86.6,13.7a2,2,0,0,1,.5-.45Z"/></g><path class="cls-5" d="M66.11,77.8,64.69,90.13a3,3,0,0,1-.3,1l0,0L62,96.23a3.53,3.53,0,0,0,3.18,5.09,3.4,3.4,0,0,0,1-.13,3.54,3.54,0,0,1-1-4.3l2.47-5.06,0,0a3,3,0,0,0,.31-1L69,81a2.89,2.89,0,0,0-2.88-3.22Z"/><path class="cls-5" d="M75.62,78.17l-1.23,11.3a3.4,3.4,0,0,1-.51,1.43l-2.39,3.64a3.22,3.22,0,0,0,1.16,4.12,3.12,3.12,0,0,0,1.85.5h0a3.22,3.22,0,0,1-.45-3.5L76.44,92a3.27,3.27,0,0,0,.3-.59,4,4,0,0,0,.21-.84L78,80.83a2.4,2.4,0,0,0-2.39-2.66Z"/><path class="cls-5" d="M83,78.17l-.59,5.6-.9,7.48a1.79,1.79,0,0,1-.34.86l-.83,1.22a3.33,3.33,0,0,0,2.8,5.2,3.31,3.31,0,0,1-.31-4.13l.83-1.22a1.94,1.94,0,0,0,.34-.87l.9-7.47.43-4.09A2.34,2.34,0,0,0,83,78.17Z"/><g class="cls-3"><path class="cls-5" d="M73,54.3A8.55,8.55,0,0,0,73.28,52a8.66,8.66,0,0,0-8.19-8.64l-8.76-.47-.65,0a12.31,12.31,0,0,0-5.82,1.49c-.33.67-.64,1.36-.92,2.06l-2.06,5.07,4-3a8.07,8.07,0,0,1,5.24-1.58l8.76.47A4.6,4.6,0,0,1,69.22,52a4.53,4.53,0,0,1-.17,1.25,4.6,4.6,0,0,1-3.94,3.33l-7.71.82L54.46,68.22a5.75,5.75,0,0,0-.18,2.1l1.6,16.1A5.11,5.11,0,0,1,55.46,89l-3.17,7a3.5,3.5,0,0,0,5.11,4.37,7.17,7.17,0,0,1,0-5.86l1.75-3.85A9.21,9.21,0,0,0,59.92,86l-1.6-16.09a1.77,1.77,0,0,1,0-.65l2.22-8.19,5-.53A8.6,8.6,0,0,0,73,54.3Z"/><path class="cls-6" d="M69.22,52a4.53,4.53,0,0,1-.17,1.25,4.6,4.6,0,0,1-3.94,3.33l-7.71.82L54.46,68.22a5.75,5.75,0,0,0-.18,2.1l1.6,16.1A5.11,5.11,0,0,1,55.46,89l-3.17,7a3.48,3.48,0,0,0,0,2.87l-3.51,1.21a1.31,1.31,0,0,0-.59.42l-8.79,11a3,3,0,0,1-3.54.83l-21.7-10.09a1.55,1.55,0,0,1-.56-2.38l18-22.46,3-11.56a19.31,19.31,0,0,1,7.11-10.55l5.16-3.84,4-3a8.07,8.07,0,0,1,5.24-1.58l8.76.47A4.6,4.6,0,0,1,69.22,52Z"/><path class="cls-7" d="M18.24,103.67l18-22.46,3-11.57A19.29,19.29,0,0,1,46.36,59.1l5.16-3.84,4-3a8.07,8.07,0,0,1,5.24-1.58l8.4.45a4.6,4.6,0,0,0-4.28-3.8l-8.76-.47a8.07,8.07,0,0,0-5.24,1.58l-4,3-5.16,3.84a19.31,19.31,0,0,0-7.11,10.55l-3,11.56-18,22.46a1.55,1.55,0,0,0,.56,2.38L18,104a1.13,1.13,0,0,1,.22-.36Z"/></g><path class="cls-5" d="M90,84.87,93.54,56,93.69,50l0-3.05-3-.13h-.33a7.31,7.31,0,0,0-7.31,7l0,.42a7.21,7.21,0,0,0,.73,3.53,7.17,7.17,0,0,0-2.19,4.85l0,.41a7.27,7.27,0,0,0,.7,3.42,7.24,7.24,0,0,0-2.13,4.8l0,.41a7.21,7.21,0,0,0,.79,3.61A7.32,7.32,0,0,0,85.71,87.8l3.21.14h.33l.43,0Z"/><path class="cls-6" d="M93.49,59l-3.34-.15a4.28,4.28,0,0,1-4.08-4.47l0-.42a4.27,4.27,0,0,1,4.47-4.08L93.9,50A4.27,4.27,0,0,1,98,54.5l0,.42A4.27,4.27,0,0,1,93.49,59Z"/><path class="cls-6" d="M92.15,67.67l-3.59-.16a4.16,4.16,0,0,1-4-4.33l0-.41a4.16,4.16,0,0,1,4.34-4l3.59.16a4.15,4.15,0,0,1,4,4.33l0,.41a4.16,4.16,0,0,1-4.34,4Z"/><path class="cls-6" d="M90.84,76.53l-4-.18a4.14,4.14,0,0,1-4-4.33l0-.8a4.16,4.16,0,0,1,4.34-4l4,.17a4.16,4.16,0,0,1,4,4.34l0,.8a4.16,4.16,0,0,1-4.34,4Z"/><path class="cls-6" d="M89.23,84.63,86,84.48a4.28,4.28,0,0,1,.38-8.56l3.21.14a4.29,4.29,0,1,1-.38,8.57Z"/><path class="cls-7" d="M94.32,56.76,91,56.61a4.28,4.28,0,0,1-4.08-4.47l0-.42s0-.08,0-.11A4.27,4.27,0,0,0,86.09,54l0,.42a4.28,4.28,0,0,0,4.08,4.47l3.34.15A4.29,4.29,0,0,0,98,55a4.28,4.28,0,0,1-3.64,1.72Z"/><path class="cls-7" d="M93,65.42l-3.59-.16a4.16,4.16,0,0,1-4-4.33l0-.41s0-.05,0-.07a4.14,4.14,0,0,0-.84,2.32l0,.4a4.15,4.15,0,0,0,4,4.34l3.59.16a4.14,4.14,0,0,0,4.33-3.89A4.13,4.13,0,0,1,93,65.42Z"/><path class="cls-7" d="M91.67,74.28l-4-.18a4.14,4.14,0,0,1-4-4.33l0-.8s0,0,0-.07a4.17,4.17,0,0,0-.84,2.32l0,.8a4.14,4.14,0,0,0,4,4.33l4,.18a4.15,4.15,0,0,0,4.33-3.89,4.16,4.16,0,0,1-3.5,1.64Z"/><path class="cls-7" d="M90.06,82.38l-3.21-.15a4.27,4.27,0,0,1-4.08-4.57h0a4.23,4.23,0,0,0-.83,2.26A4.28,4.28,0,0,0,86,84.48l3.21.15a4.3,4.3,0,0,0,4.47-4,4.31,4.31,0,0,1-3.64,1.74Z"/></g></g></svg>