<svg xmlns="http://www.w3.org/2000/svg" viewBox="0 0 125 125"><defs><style>.cls-1{fill:#fca311;}.cls-2{fill:#e79098;}.cls-3{fill:#e17983;}.cls-4{fill:#da606c;}.cls-5{fill:#fbe88c;}</style></defs><title>Ativo 214checked</title><g id="Camada_2" data-name="Camada 2"><g id="Extras"><rect class="cls-1" width="125" height="125" rx="7.12"/><path class="cls-2" d="M106.8,59.86A14,14,0,0,1,98,72.9a1.86,1.86,0,0,0-1.16,1.72,1.84,1.84,0,0,0,.06.47,13.86,13.86,0,0,1-7.77,16.12,2.12,2.12,0,0,0-.91.79,2.21,2.21,0,0,0-.33,1.16,13.38,13.38,0,0,1-24.29,7.75,1.3,1.3,0,0,0-2.1,0,13.38,13.38,0,0,1-24.29-7.75,2.13,2.13,0,0,0-1.24-2,13.8,13.8,0,0,1-7.77-16.12,1.87,1.87,0,0,0-1.1-2.19,14,14,0,0,1,5.18-27.07h0a.28.28,0,0,0,.25-.4A17,17,0,0,1,30.9,38,17.09,17.09,0,0,1,61.39,27.6a1.41,1.41,0,0,0,2.22,0,17.1,17.1,0,0,1,28.9,17.83.28.28,0,0,0,.25.4h0a14,14,0,0,1,14,14Z"/><path class="cls-3" d="M55.4,99.16a12,12,0,0,1-4.16-9,2,2,0,0,0-1.31-1.84c-5.3-2.1-8.7-6.82-8.7-12a11.71,11.71,0,0,1,.47-3.28,1.72,1.72,0,0,0-1.17-2.07c-5.49-1.95-9.37-6.73-9.37-12.32,0-7.33,6.66-13.27,14.87-13.27h0a.26.26,0,0,0,.27-.37,14.66,14.66,0,0,1-1.69-7c.1-6.76,4.92-12.54,11.6-14.85a16.93,16.93,0,0,0-7.91-2.11A17.11,17.11,0,0,0,32.49,45.43a.28.28,0,0,1-.25.4h0A14,14,0,0,0,27.05,72.9a1.87,1.87,0,0,1,1.1,2.19,13.8,13.8,0,0,0,7.77,16.12,2.13,2.13,0,0,1,1.24,2,13.38,13.38,0,0,0,23.36,8.92,14.38,14.38,0,0,1-5.12-2.92Z"/><path class="cls-3" d="M69.35,44.63A5.38,5.38,0,0,1,64,39.25V27.17l-.36.43a1.41,1.41,0,0,1-2.22,0L61,27.17V39.25a5.38,5.38,0,0,1-5.38,5.38,1.47,1.47,0,0,0,0,2.94A8.3,8.3,0,0,0,62.5,44a8.3,8.3,0,0,0,6.85,3.61,1.47,1.47,0,0,0,0-2.94Z"/><path class="cls-3" d="M62.5,73.5A1.46,1.46,0,0,1,61,72V69.9a5.39,5.39,0,0,0-5.38-5.38,1.47,1.47,0,0,1,0-2.93A8.32,8.32,0,0,1,64,69.9V72A1.46,1.46,0,0,1,62.5,73.5Z"/><path class="cls-3" d="M62.5,73.5A1.46,1.46,0,0,1,61,72V69.9a8.32,8.32,0,0,1,8.32-8.31,1.47,1.47,0,0,1,0,2.93A5.39,5.39,0,0,0,64,69.9V72A1.46,1.46,0,0,1,62.5,73.5Z"/><path class="cls-3" d="M67.5,91.2A3.53,3.53,0,0,1,64,87.67V86.11a1.47,1.47,0,0,0-2.94,0v1.56A3.53,3.53,0,0,1,57.5,91.2a1.47,1.47,0,0,0,0,2.94,6.48,6.48,0,0,0,5-2.37,6.48,6.48,0,0,0,5,2.37,1.47,1.47,0,0,0,0-2.94Z"/><path class="cls-3" d="M81.75,61.9a1.46,1.46,0,0,1-1.47-1.46V59.31a12.09,12.09,0,0,1,4-9,1.47,1.47,0,1,1,2,2.19,9.15,9.15,0,0,0-3,6.81v1.13a1.46,1.46,0,0,1-1.47,1.46Z"/><path class="cls-3" d="M43.25,61.9a1.46,1.46,0,0,1-1.47-1.46V59.31a9.15,9.15,0,0,0-3-6.81,1.47,1.47,0,1,1,1.95-2.19,12.09,12.09,0,0,1,4,9v1.13a1.46,1.46,0,0,1-1.47,1.46Z"/><path class="cls-4" d="M42.49,84.11A1.46,1.46,0,0,1,41,82.64v-.32a11.87,11.87,0,0,1,5.59-10.11l.19-.12a1.47,1.47,0,0,1,1.56,2.49l-.19.12A8.94,8.94,0,0,0,44,82.32v.32a1.47,1.47,0,0,1-1.47,1.47Z"/><path class="cls-3" d="M82.51,84.11A1.47,1.47,0,0,1,81,82.64v-.32a8.94,8.94,0,0,0-4.22-7.62l-.19-.12a1.47,1.47,0,0,1,1.56-2.49l.19.12A11.87,11.87,0,0,1,84,82.32v.32a1.46,1.46,0,0,1-1.46,1.47Z"/><path class="cls-4" d="M43.59,41.5A1.46,1.46,0,0,1,42.12,40v-.8a6.75,6.75,0,0,1,4.52-6.37,1.47,1.47,0,1,1,1,2.77,3.81,3.81,0,0,0-2.56,3.6V40a1.46,1.46,0,0,1-1.46,1.46Z"/><path class="cls-3" d="M81.41,41.5A1.46,1.46,0,0,1,80,40v-.8a3.81,3.81,0,0,0-2.56-3.6,1.47,1.47,0,0,1,1-2.77,6.75,6.75,0,0,1,4.52,6.37V40a1.46,1.46,0,0,1-1.47,1.46Z"/><path class="cls-5" d="M101.9,22.1l2.91-7.55a1.05,1.05,0,0,1,1.32-.62,8.07,8.07,0,0,1,5,4.49,1.07,1.07,0,0,1-.49,1.38l-7.23,3.61a1.05,1.05,0,0,1-1.46-1.31Z"/><path class="cls-5" d="M23.1,22.1l-2.91-7.55a1.05,1.05,0,0,0-1.32-.62,8.07,8.07,0,0,0-5,4.49,1.07,1.07,0,0,0,.49,1.38l7.23,3.61A1.05,1.05,0,0,0,23.1,22.1Z"/><path class="cls-5" d="M101.9,102.71l2.91,7.55a1.06,1.06,0,0,0,1.32.62,8.09,8.09,0,0,0,5-4.49,1.07,1.07,0,0,0-.49-1.38l-7.23-3.62a1.06,1.06,0,0,0-1.46,1.32Z"/><path class="cls-5" d="M23.1,102.71l-2.91,7.55a1.06,1.06,0,0,1-1.32.62,8.09,8.09,0,0,1-5-4.49,1.07,1.07,0,0,1,.49-1.38l7.23-3.62a1.06,1.06,0,0,1,1.46,1.32Z"/><path class="cls-5" d="M62.5,19A1.46,1.46,0,0,1,61,17.55V13.87a1.47,1.47,0,0,1,2.94,0v3.68A1.46,1.46,0,0,1,62.5,19Z"/><path class="cls-5" d="M62.5,112.6A1.47,1.47,0,0,1,61,111.13v-3.68a1.47,1.47,0,0,1,2.94,0v3.68a1.47,1.47,0,0,1-1.47,1.47Z"/><path class="cls-5" d="M15.16,92.21a1.47,1.47,0,0,1-.84-2.67l4.18-2.89a1.47,1.47,0,1,1,1.67,2.41L16,92a1.43,1.43,0,0,1-.83.26Z"/><path class="cls-5" d="M19.33,38.61a1.41,1.41,0,0,1-.83-.26l-4.18-2.89A1.47,1.47,0,0,1,16,33.05l4.18,2.89a1.47,1.47,0,0,1-.84,2.67Z"/><path class="cls-5" d="M109.84,92.21A1.43,1.43,0,0,1,109,92l-4.18-2.89a1.47,1.47,0,1,1,1.67-2.41l4.18,2.89a1.47,1.47,0,0,1-.84,2.67Z"/><path class="cls-5" d="M105.67,38.61a1.47,1.47,0,0,1-.84-2.67L109,33.05a1.47,1.47,0,0,1,1.67,2.41l-4.18,2.89a1.41,1.41,0,0,1-.83.26Z"/></g></g></svg>