<svg xmlns="http://www.w3.org/2000/svg" viewBox="0 0 125 125"><defs><style>.cls-1{fill:#023047;}.cls-2{fill:#b3e5ee;}.cls-3{fill:#86d7e5;}.cls-4{fill:#f9f7f7;}.cls-5{fill:#f8f3f2;}.cls-6{fill:#ffe0d1;}.cls-7{fill:#ffd1c2;}.cls-8{fill:#e79098;}</style></defs><title>Ativo 208elogios</title><g id="Camada_2" data-name="Camada 2"><g id="Extras"><rect class="cls-1" width="125" height="125" rx="7.12"/><path class="cls-2" d="M107.73,63.4A45.23,45.23,0,1,1,62.5,18.17,45.23,45.23,0,0,1,107.73,63.4Z"/><path class="cls-3" d="M32.36,62.5a45.25,45.25,0,0,1,35-44.07,46,46,0,0,0-4.87-.26,45.23,45.23,0,1,0,10.23,89.3,45.24,45.24,0,0,1-40.37-45Z"/><path class="cls-4" d="M100.32,63.21A37.82,37.82,0,1,1,62.5,25.39a37.83,37.83,0,0,1,37.82,37.82Z"/><path class="cls-5" d="M48.05,28.25a37.84,37.84,0,0,0,3.36,71.13,45.23,45.23,0,0,1-3.36-71.13Z"/><path class="cls-6" d="M69.18,87.9v0a4.08,4.08,0,1,1,0,8.15h-1.6a4.07,4.07,0,0,1,2.88,7,4,4,0,0,1-2.88,1.19H66a4.08,4.08,0,0,1,0,8.16H39.44a14.63,14.63,0,0,1-8.65-2.83L28.71,108l-13.08.26V81.83H30.42A4,4,0,0,0,32.86,81l5.67-4.43a4,4,0,0,0,1.52-3.12V66.78a5,5,0,0,1,10,0v10A2.93,2.93,0,0,0,53,79.75H88.56a4.08,4.08,0,1,1,0,8.15Z"/><path class="cls-6" d="M59,20.78A4.08,4.08,0,0,1,55,16.7a4,4,0,0,1,1.19-2.88A4.07,4.07,0,0,1,59,12.62H85.56a14.63,14.63,0,0,1,8.65,2.83L96.29,17H109V43.49l-14.41-.32a4,4,0,0,0-2.44.84l-5.67,4.43A4,4,0,0,0,85,51.56v6.66a5,5,0,1,1-10,0v-10A2.93,2.93,0,0,0,72,45.25H36.44a4.08,4.08,0,1,1,0-8.15H55.82v0a4.08,4.08,0,1,1,0-8.15h1.6a4.07,4.07,0,0,1-2.88-7,4,4,0,0,1,2.88-1.19Z"/><path class="cls-7" d="M80.37,62.6a5.29,5.29,0,0,1-1.58-3.78v-14a3.16,3.16,0,0,0-3.17-3.14H36a4.44,4.44,0,0,1-3.46-1.64,4,4,0,0,0-.15,1.1,4.08,4.08,0,0,0,4.08,4.07H72A2.93,2.93,0,0,1,75,48.18v10a5,5,0,0,0,5,5,4.74,4.74,0,0,0,1-.1,4.8,4.8,0,0,1-.59-.51Z"/><path class="cls-8" d="M111.72,45.84h-6.38a2.66,2.66,0,0,1-2.67-2.67V17a2.67,2.67,0,0,1,2.67-2.67h6.38a.89.89,0,0,1,.88.88V45a.88.88,0,0,1-.88.87Z"/><path class="cls-7" d="M69.78,106.83a4.08,4.08,0,0,1-3.07,1.38H40.18a14.72,14.72,0,0,1-8.66-2.82l-1.07-.78a3.63,3.63,0,0,0-2.25-.71,1.83,1.83,0,0,1-1.86-1.83V81.83H15.63v22.61h4.78v3.77l8.3-.17,2.08,1.51a14.63,14.63,0,0,0,8.65,2.83H65.88a4.08,4.08,0,0,0,3.9-5.55Z"/><path class="cls-8" d="M13.35,110.71h6.31A2.67,2.67,0,0,0,22.33,108V81.83a2.66,2.66,0,0,0-2.67-2.67H13.35a1,1,0,0,0-.95.94v29.66a1,1,0,0,0,.95.95Z"/><path class="cls-8" d="M62.4,70.59a7.89,7.89,0,1,1,7.89-7.89,7.9,7.9,0,0,1-7.89,7.89Zm0-12.78a4.89,4.89,0,1,0,4.89,4.89,4.9,4.9,0,0,0-4.89-4.89Z"/><path class="cls-8" d="M62.4,57.81a1.5,1.5,0,0,1-1.5-1.5V53.74a1.5,1.5,0,1,1,3,0v2.57a1.5,1.5,0,0,1-1.5,1.5Z"/><path class="cls-8" d="M71.36,64.2H68.79a1.5,1.5,0,0,1,0-3h2.57a1.5,1.5,0,1,1,0,3Z"/><path class="cls-8" d="M62.4,73.17a1.51,1.51,0,0,1-1.5-1.51V69.09a1.5,1.5,0,0,1,3,0v2.57a1.51,1.51,0,0,1-1.5,1.51Z"/><path class="cls-8" d="M56,64.2H53.44a1.5,1.5,0,1,1,0-3H56a1.5,1.5,0,1,1,0,3Z"/><path class="cls-8" d="M62.4,64.4a1.5,1.5,0,0,1-1.5-1.5v-.43a1.5,1.5,0,1,1,3,0v.43a1.5,1.5,0,0,1-1.5,1.5Z"/></g></g></svg>