<svg xmlns="http://www.w3.org/2000/svg" xmlns:xlink="http://www.w3.org/1999/xlink" viewBox="0 0 125 125"><defs><style>.cls-1{fill:none;}.cls-2{fill:#fca311;}.cls-3{fill:#ffe0d1;}.cls-4{clip-path:url(#clip-path);}.cls-5{fill:#ffd1c2;}.cls-6{fill:#b3e5ee;}.cls-7{fill:#86d7e5;}.cls-8{fill:#f9f7f7;}.cls-9{fill:#e17983;}</style><clipPath id="clip-path"><rect class="cls-1" x="12.4" y="12.4" width="100.19" height="100.19"/></clipPath></defs><title>Ativo 210checked</title><g id="Camada_2" data-name="Camada 2"><g id="Camada_20" data-name="Camada 20"><rect class="cls-2" width="125" height="125" rx="7.12"/><path class="cls-3" d="M63.55,74.37l-4-2.68-8.91-3.24L33.38,82.11,38.91,92l.22.13,4.6,2.67L65.61,79.27Z"/><g class="cls-4"><path class="cls-5" d="M43.45,89.13a26.53,26.53,0,0,1-7.4-6.35l-.86-1.07-.81-.4-1,.8L38.91,92l.22.13,4.6,2.67,4.27-3-4.55-2.65Z"/><path class="cls-3" d="M112.33,51.26a.8.8,0,0,0-1.2-.68L86.2,65.11a2.15,2.15,0,0,1-1.77.17l-3.54-1.21a20.55,20.55,0,0,0-13.9.26l-.09,0-6.87,9L44.17,87.7l-1.63,1.44a4.06,4.06,0,0,0-1.08,4.31,3.67,3.67,0,0,0,.72,1.25,3.94,3.94,0,0,0,4.76.92A4,4,0,0,0,46,98.19a3.91,3.91,0,0,0,1.06,2.68,4.14,4.14,0,0,0,5.69.11l0,0a4,4,0,0,0,.09,5.29,4.14,4.14,0,0,0,5.69.1l.17-.15a3.94,3.94,0,0,0,.12,5.24,4.14,4.14,0,0,0,5.69.1l1.59-1.41,10.9-8a2,2,0,0,1,3.24-2.39l3-2.23a2.38,2.38,0,0,1-.16-.85,2.43,2.43,0,0,1,3.92-1.92l4.16-3.08A16.62,16.62,0,0,0,98.17,86l1.07-1.51,12.85-6.28a.78.78,0,0,0,.44-.72Z"/><path class="cls-5" d="M112.33,51.26a.8.8,0,0,0-1.2-.68L86.2,65.11a2.15,2.15,0,0,1-1.77.17l-3.54-1.21a20.55,20.55,0,0,0-13.9.26l-.09,0-6.87,9L42.54,89.14a4.06,4.06,0,0,0-1.08,4.31,3.67,3.67,0,0,0,.72,1.25,3.94,3.94,0,0,0,4.76.92A4,4,0,0,0,46,98.19a3.91,3.91,0,0,0,1.06,2.68,4.14,4.14,0,0,0,5.69.11l0,0a4,4,0,0,0,.09,5.29,4.14,4.14,0,0,0,5.69.1l.17-.15a3.94,3.94,0,0,0,.12,5.24,4.14,4.14,0,0,0,5.69.1l1.59-1.41.45-.33v-.92a4.15,4.15,0,0,1-4.47-.88,4,4,0,0,1-1-2.69v-.18a1.1,1.1,0,0,0-1.27-1.21,4.11,4.11,0,0,1-3.65-1.11,3.93,3.93,0,0,1-1.06-2.69,5.46,5.46,0,0,1,0-.57,1.28,1.28,0,0,0-1.43-1.47c-1.23.17-2.62.14-3.38-.61a4,4,0,0,1-1-2.69,3.18,3.18,0,0,1,0-.62,1.32,1.32,0,0,0-1.19-1.53,2.67,2.67,0,0,1-.87-.27,1.73,1.73,0,0,1-.39-2.84l14-12.67,6.87-8.95.09,0a20.55,20.55,0,0,1,13.9-.26l3.54,1.21A2.15,2.15,0,0,0,87,68.62l24.93-14.53a.74.74,0,0,1,.42-.11Z"/></g><path class="cls-5" d="M79.47,75.69a7,7,0,0,0-2-5L70.19,63.4a20.15,20.15,0,0,0-3.2.93l-.09,0-6.87,9L55.9,77.06l6.63.29,5.79,4.1a7.06,7.06,0,0,0,11.15-5.76Z"/><path class="cls-3" d="M75.28,72.85,66.9,64.36a19.44,19.44,0,0,0-17-5.52l-10,1.63L13.13,47.91a.46.46,0,0,0-.66.42V75.4a.47.47,0,0,0,.26.42l17.93,8.77.86,1.07A26.63,26.63,0,0,0,38.91,92l1.18-6.23L54.92,74l8.63.37L70.07,79a4,4,0,0,0,5.21-6.14Z"/><path class="cls-5" d="M36.05,82.78A6.16,6.16,0,0,0,34,81.11L18.25,73.42a2.21,2.21,0,0,1-1.25-2V49.72l-3.87-1.81a.46.46,0,0,0-.66.42V75.4a.47.47,0,0,0,.26.42l17.93,8.77.86,1.07A26.63,26.63,0,0,0,38.91,92l1-5.32a26.49,26.49,0,0,1-3.87-3.91Z"/><path class="cls-6" d="M67.26,51.76l-4.18,1.53a1.93,1.93,0,0,1-1.34,0l-4.18-1.53a21.94,21.94,0,0,1-14.39-20.6V18A2.27,2.27,0,0,1,45,15.81L62.51,12.4l17.31,3.41A2.27,2.27,0,0,1,81.65,18V31.16a21.94,21.94,0,0,1-14.39,20.6Z"/><path class="cls-7" d="M65.5,51.5C55.15,48.07,48.28,39.16,48.28,29.2v-14L45,15.81A2.27,2.27,0,0,0,43.17,18V31.16a21.94,21.94,0,0,0,14.39,20.6l4.18,1.53a1.93,1.93,0,0,0,1.34,0l3.72-1.36Z"/><path class="cls-8" d="M59.64,46.08A15.93,15.93,0,0,1,49.22,31.16V22.25a1.33,1.33,0,0,1,1.07-1.31L62.5,18.56l12,2.37a1.33,1.33,0,0,1,1.07,1.31v8.92A15.88,15.88,0,0,1,65.18,46.08l-2.77,1Z"/><path class="cls-9" d="M59.94,38.87a1.53,1.53,0,0,1-1-.41l-2.44-2.3A1.51,1.51,0,0,1,58.53,34l1.27,1.19,6.87-8.35A1.51,1.51,0,1,1,69,28.72l-7.9,9.6a1.52,1.52,0,0,1-1.07.55Z"/><path class="cls-5" d="M91.23,91.59A15.92,15.92,0,0,0,94,90.05a6.91,6.91,0,0,0-1.3-2.25l-2.64-3a6.84,6.84,0,0,0-9.64-.68l-.21.19a6.74,6.74,0,0,0-2.11,3.37,6.84,6.84,0,0,0-3.64,1.63l-.22.18a6.83,6.83,0,0,0-2.11,3.38,6.76,6.76,0,0,0-3.63,1.62l-.22.19A6.7,6.7,0,0,0,66.17,98a6.9,6.9,0,0,0-3.64,1.62l-.22.19A6.83,6.83,0,0,0,60,104.5a6.73,6.73,0,0,0,1.66,5L63.87,112a3.66,3.66,0,0,0,.68-.51l1.59-1.41,10.9-8a2,2,0,0,1,3.24-2.39l3-2.23a2.38,2.38,0,0,1-.16-.85,2.43,2.43,0,0,1,3.92-1.92Z"/><path class="cls-3" d="M84.45,95l-2.64-3a3.8,3.8,0,0,1,.38-5.37l.22-.19a3.8,3.8,0,0,1,5.37.38l2.64,3A3.8,3.8,0,0,1,90,95.15l-.22.19A3.8,3.8,0,0,1,84.45,95Z"/><path class="cls-5" d="M86.1,93.72l-2.64-3a3.81,3.81,0,0,1,0-5,3.94,3.94,0,0,0-1,.64l-.22.19a3.8,3.8,0,0,0-.38,5.37l2.64,3a3.8,3.8,0,0,0,5.37.38l.22-.19a3.09,3.09,0,0,0,.4-.41,3.81,3.81,0,0,1-4.34-1Z"/><path class="cls-3" d="M78.49,100.14l-2.64-3a3.81,3.81,0,0,1,.37-5.37l.22-.19a3.81,3.81,0,0,1,5.37.37l2.64,3a3.81,3.81,0,0,1-.37,5.37l-.22.19a3.8,3.8,0,0,1-5.37-.38Z"/><path class="cls-5" d="M80.18,98.67l-2.64-3A3.81,3.81,0,0,1,77.27,91a3.42,3.42,0,0,0-.83.55l-.22.19a3.81,3.81,0,0,0-.37,5.37l2.64,3a3.8,3.8,0,0,0,5.37.38l.22-.19a3.79,3.79,0,0,0,.65-.74,3.8,3.8,0,0,1-4.55-.92Z"/><path class="cls-3" d="M72.52,105.33l-2.64-3a3.8,3.8,0,0,1,.38-5.37l.22-.19a3.8,3.8,0,0,1,5.37.38l2.64,3a3.81,3.81,0,0,1-.38,5.38l-.22.18a3.8,3.8,0,0,1-5.37-.37Z"/><path class="cls-5" d="M74.14,103.92l-2.64-3a3.79,3.79,0,0,1-.25-4.67,3.59,3.59,0,0,0-.77.52l-.22.19a3.8,3.8,0,0,0-.38,5.37l2.64,3a3.8,3.8,0,0,0,5.37.37l.22-.18a4.16,4.16,0,0,0,.63-.7,3.81,3.81,0,0,1-4.6-.9Z"/><path class="cls-3" d="M66.56,110.51l-2.64-3a3.81,3.81,0,0,1,.37-5.37l.22-.19a3.8,3.8,0,0,1,5.37.38l2.64,3a3.81,3.81,0,0,1-.37,5.37l-.22.19a3.8,3.8,0,0,1-5.37-.38Z"/><path class="cls-5" d="M69.49,110.3l-4-4.65a3.83,3.83,0,0,1-.63-4l-.31.24-.22.19a3.81,3.81,0,0,0-.37,5.37l2.64,3a3.81,3.81,0,0,0,4.6.9,3.84,3.84,0,0,1-1.67-1.11Z"/></g></g></svg>