<svg xmlns="http://www.w3.org/2000/svg" viewBox="0 0 377.24 377.17"><defs><style>.cls-1{fill:#023047;}</style></defs><title>Ativo 208ac</title><g id="Camada_2" data-name="Camada 2"><g id="Extras"><path class="cls-1" d="M377.24,84.84V292.32a84.85,84.85,0,0,1-84.85,84.85H277.25V376c-.05-31.84-7.54-52.53-16.86-66.08l.06-.4a62.54,62.54,0,0,0-12.86-14.15,14.79,14.79,0,0,0-1.14-1,56,56,0,0,0-4.72-3.3l-.4-.69-.2.34a53.09,53.09,0,0,0-10-4.86c-.8-.31-1.52-.55-2.19-.8a29.69,29.69,0,0,0-4.8-1.09,5.77,5.77,0,0,1-1.86-.33,14.75,14.75,0,0,0-.81-4.46c-1.32-3.36-4.46-6.48-5.63-9.16-1.54-3.58-3-6.77-3.45-7.88v-2.37c26.93-8.41,53.15-29.61,58.83-60.87-.34,2.09,25.93-7.22,27.38-25.21,1.54-18.67-17.06-22.32-23.34-10.48,4.07-50,3.54-126.3-87.83-126.44h-.94c-37.91.06-60.18,13.23-73,32.19-18,26.74-17.24,65-14.86,94.25-6.28-11.84-24.85-8.19-23.34,10.48,1.47,18,27.73,27.3,27.37,25.21,5.92,32.39,33.86,53.95,61.79,61.7v1.26c-.35.78-1.91,4.26-3.6,8.16-1.14,2.68-4.32,5.8-5.63,9.16a14.77,14.77,0,0,0-.8,4.46,5.91,5.91,0,0,1-1.89.33,34.86,34.86,0,0,0-5.06,1.21h0c-.66.18-1.39.43-2.17.73a55.83,55.83,0,0,0-9.77,4.85l-.23-.38-.45.78a57.37,57.37,0,0,0-4.71,3.34,6.3,6.3,0,0,0-1.16.94A64.74,64.74,0,0,0,116.2,309.5c0,.17.06.34.08.51-9.3,13.55-17,34.57-17.07,66.38v.78H84.85A84.85,84.85,0,0,1,0,292.32V84.84A84.84,84.84,0,0,1,84.85,0H292.39A84.84,84.84,0,0,1,377.24,84.84Z"/></g></g></svg>