<svg xmlns="http://www.w3.org/2000/svg" viewBox="0 0 297.95 297.95"><defs><style>.cls-1{fill:#219ebc;}.cls-2{fill:#fff;}.cls-3{fill:#dbdbdb;}</style></defs><title>Ativo 212icone</title><g id="Camada_2" data-name="Camada 2"><g id="Perfil_Psico" data-name="Perfil Psico"><rect class="cls-1" width="297.95" height="297.9" rx="49.61"/><path class="cls-2" d="M130,196c1.94-23.82,1.69-60.2-41.86-60.26H87.7c-43.56.06-43.8,36.44-41.86,60.26-3-5.65-11.85-3.9-11.13,5,.7,8.57,13.21,13,13,12,2.82,15.44,16.14,25.74,29.46,29.43V243c-.17.37-.92,2-1.72,3.89-.54,1.27-2.06,2.76-2.69,4.37a6.88,6.88,0,0,0-.38,2.12,2.66,2.66,0,0,1-.9.16,17.14,17.14,0,0,0-2.41.57h0c-.31.09-.66.21-1,.35a26.77,26.77,0,0,0-4.66,2.3l-.1-.17-.21.36a25,25,0,0,0-2.25,1.61,2.47,2.47,0,0,0-.55.45,30.28,30.28,0,0,0-6.08,6.7,2,2,0,0,0,0,.24c-4.44,6.47-8,16.38-8,31.58a9.94,9.94,0,0,1,1.05.43H130a6.94,6.94,0,0,1,1-.43c0-15.25-3.57-25.2-8-31.67l0-.15a30,30,0,0,0-6.13-6.75,5.73,5.73,0,0,0-.54-.46A26.17,26.17,0,0,0,114,256.9l-.18-.32-.09.15a25.3,25.3,0,0,0-4.78-2.3l-1-.38a13.44,13.44,0,0,0-2.28-.52,2.65,2.65,0,0,1-.89-.16,6.85,6.85,0,0,0-.39-2.12c-.63-1.61-2.13-3.1-2.68-4.37-.73-1.71-1.41-3.23-1.65-3.76V242c12.84-4,25.34-14.12,28.05-29-.17,1,12.35-3.44,13-12C141.87,192.07,133,190.32,130,196Z"/><path class="cls-3" d="M253.47,208.38c1.7-20.92,1.49-52.87-36.77-52.93h-.39c-38.26.06-38.47,32-36.77,52.93-2.63-5-10.41-3.43-9.77,4.39.61,7.53,11.6,11.43,11.45,10.55,2.48,13.56,14.18,22.61,25.87,25.85v.51c-.14.32-.8,1.78-1.5,3.42-.48,1.11-1.81,2.42-2.36,3.83a6,6,0,0,0-.34,1.87,2.57,2.57,0,0,1-.79.14,14.23,14.23,0,0,0-2.12.5h0c-.27.08-.58.18-.91.3a23.31,23.31,0,0,0-4.1,2l-.08-.15-.19.31c-.64.42-1.3.88-2,1.41a2.21,2.21,0,0,0-.49.4,26.76,26.76,0,0,0-5.34,5.88,1.55,1.55,0,0,1,0,.21c-3.9,5.69-7,14.39-7,27.74a9,9,0,0,1,.92.38h72.62a7,7,0,0,1,.86-.38c0-13.39-3.13-22.13-7.05-27.82l0-.13a26,26,0,0,0-5.38-5.92c-.15-.15-.33-.28-.48-.41a21.88,21.88,0,0,0-2-1.39l-.16-.28-.08.13a22.74,22.74,0,0,0-4.2-2l-.92-.33a12.25,12.25,0,0,0-2-.45,2.56,2.56,0,0,1-.78-.14,6.34,6.34,0,0,0-.33-1.87c-.56-1.41-1.88-2.72-2.36-3.83-.65-1.5-1.24-2.84-1.45-3.3v-1c11.28-3.52,22.25-12.4,24.63-25.49-.14.88,10.85-3,11.46-10.55C263.89,205,256.1,203.42,253.47,208.38Z"/><path class="cls-3" d="M132.15,64.53h61.71a35.59,35.59,0,0,1,35.59,35.59v0a35.59,35.59,0,0,1-35.59,35.59H167.74a35.59,35.59,0,0,1-35.59-35.59V64.53a0,0,0,0,1,0,0Z" transform="translate(361.61 200.23) rotate(180)"/><path class="cls-2" d="M118.09,49.7h26.12a35.59,35.59,0,0,1,35.59,35.59v0a35.59,35.59,0,0,1-35.59,35.59H82.5a0,0,0,0,1,0,0V85.29A35.59,35.59,0,0,1,118.09,49.7Z"/></g></g></svg>