<svg xmlns="http://www.w3.org/2000/svg" viewBox="0 0 45.99 75.33"><defs><style>.cls-1{fill:#dcc5a1;}.cls-2{fill:#edd9b4;}.cls-3{fill:#fdfdfd;}.cls-4,.cls-6{fill:#bc9f82;}.cls-4{opacity:0.7;}.cls-5{fill:#ccad8b;}.cls-7{fill:#d9bf9f;}.cls-8{fill:#b47070;}.cls-9{fill:#c17874;}.cls-10{fill:#362c1d;}</style></defs><title>Ativo 71avatar</title><g id="Camada_2" data-name="Camada 2"><g id="Objects"><path class="cls-1" d="M22.71,43.77v31.5H4.39l-.45-.18c0-11.51,5.21-15.76,8.52-17.31a9.7,9.7,0,0,1,2.7-.85h.09a1,1,0,0,0,.24,0c.93-.24,1.56-1.51,2-3.34a9,9,0,0,0,.19-1c.1-.58.2-1.19.26-1.83L18,49.57c.16-1.93.21-4,.21-6C18.25,43.54,20.72,43.77,22.71,43.77Z"/><path class="cls-2" d="M41.54,75.09l-.44.18H22.71V43.77h0c2,0,4.47-.23,4.47-.23,0,2,.05,4.06.22,6,0,.38.07.77.12,1.14.07.66.15,1.29.25,1.88h0c0,.26.09.5.14.74.38,1.77.95,3.06,1.77,3.5l.2.07a1.07,1.07,0,0,0,.41.07,9,9,0,0,1,2.2.63C35.81,58.93,41.54,63,41.54,75.09Z"/><path class="cls-3" d="M21.65,75.32c-.18-.85-.34-1.58-.53-2.48-.4-1.93-.76-3.64-.76-3.64s.56-.46,1.38-1.15c.35-.28.74-.62,1.19-1,3-2.54,7.7-6.84,9.68-10.14A12.31,12.31,0,0,1,36.84,60a15.31,15.31,0,0,1,2.79,4.48,27.81,27.81,0,0,1,1.86,10.83Z"/><path class="cls-3" d="M3.93,75.13s.16.06.43.19H23.73l.57-2.68L25.06,69s-.56-.45-1.38-1.14l-1.18-1c-3-2.54-7.71-6.85-9.69-10.14a12.18,12.18,0,0,0-4.23,3.11A15.52,15.52,0,0,0,5.79,64.3,27.81,27.81,0,0,0,3.93,75.13Z"/><path class="cls-4" d="M27.58,50.87l.09.72A5.51,5.51,0,0,1,22.8,54.1h0a6.31,6.31,0,0,1-5-2.7c.1-.61.18-1.25.25-1.92,0-.4.07-.81.12-1.23a19.7,19.7,0,0,0,4.55.6h.06a19.13,19.13,0,0,0,4.66-.65c0,.41.07.81.11,1.2C27.63,50.1,27.48,50.25,27.58,50.87Z"/><path class="cls-5" d="M23,6.57C4.09,6.53,4,21.63,4.82,31.48,3.53,29.17-.29,30,0,33.72s5.7,5.15,5.63,4.76C7.19,46.51,16.08,51,23,51.6h.14v-45Z"/><path class="cls-6" d="M1,32.16a1.87,1.87,0,0,1,2.76-.5,1.46,1.46,0,0,1,.45,1.64c-.14.48-.67.52-.53,1.24a1.29,1.29,0,0,0,.76,1.05,1.82,1.82,0,0,1,.65.67,1.72,1.72,0,0,1,.08,1c-.15.59-1,.12-1.65-.14a11.35,11.35,0,0,1-2-1.52A3.11,3.11,0,0,1,1,32.16Z"/><path class="cls-7" d="M23,6.57c18.86,0,19,15.06,18.13,24.91,1.29-2.31,5.12-1.46,4.8,2.24s-5.7,5.15-5.62,4.76C38.8,46.51,29.92,51,23,51.6H22.9v-45Z"/><path class="cls-6" d="M45.16,32.16a1.87,1.87,0,0,0-2.76-.5A1.46,1.46,0,0,0,42,33.3c.13.48.66.52.53,1.24a1.31,1.31,0,0,1-.76,1.05,1.68,1.68,0,0,0-.65.67,1.65,1.65,0,0,0-.08,1c.14.59,1,.12,1.65-.14a11.73,11.73,0,0,0,2-1.52A3.13,3.13,0,0,0,45.16,32.16Z"/><path class="cls-1" d="M22.85,10.84c-6.3,0-10.91,1.73-13.7,5.15-3.89,4.76-3.74,12-2.3,17.28.43,1.6.66,5.91,1,7.5,1.36,7.07,9.61,10.83,15,10.83H23V10.84Z"/><path class="cls-2" d="M36.52,16c-2.77-3.4-7.33-5.13-13.52-5.16V51.6c6.2-.06,13.61-4.19,14.89-10.83.3-1.59.52-5.9,1-7.5C40.29,28.06,40.43,20.78,36.52,16Z"/><path class="cls-8" d="M26.17,45.21A5,5,0,0,1,23,46.73a4.73,4.73,0,0,1-3.1-1.49A20.33,20.33,0,0,1,23,45,25.63,25.63,0,0,1,26.17,45.21Z"/><path class="cls-9" d="M23.89,44.51a.83.83,0,0,0-.9.69.83.83,0,0,0-.9-.69,12.66,12.66,0,0,0-2.28.7s1.74.18,2.23.18.94.2.95-.17c0,.37.36.23.86.23s2.32-.24,2.32-.24A12.93,12.93,0,0,0,23.89,44.51Z"/><path class="cls-10" d="M9.72,26.9Z"/><path class="cls-10" d="M41.75,10.66C40.06,8.07,39.94,8.8,39.94,8.8s1.7-7.08-8.87-8.64A24.73,24.73,0,0,0,26.92,0l1.44,1.45A29.74,29.74,0,0,0,15.46.73c-5.34.83-9,3.44-12,7.71A19.09,19.09,0,0,0,.81,15.51l2.76-3.67A18.23,18.23,0,0,0,.81,24.24C2.44,36.57,8.18,38.85,8.18,38.85S4.23,31.46,6.84,26.67A15.39,15.39,0,0,1,19,18.39a11.09,11.09,0,0,0-9.29,8.47.08.08,0,0,0,0,0,6,6,0,0,1,3.69-3.47c1.74-.67,4-.64,6.61-1.32a13.71,13.71,0,0,0-2.77,6.39,16.43,16.43,0,0,1,7.92-5.8l1-.39a6.91,6.91,0,0,0-.53,6.42s-.19-3.23,6.87-5.25C36.62,22.32,37.27,20,37.27,20a12.87,12.87,0,0,0,.52,3.72c.64,1.69,2.44,2.78,2.57,4.31.23,2.82-1.3,8.13-1.3,8.13l2.29-1.79a68,68,0,0,0,2.29-14.22C43.64,17,43,12.63,41.75,10.66Z"/></g></g></svg>