<svg xmlns="http://www.w3.org/2000/svg" viewBox="0 0 48.31 77.27"><defs><style>.cls-1{fill:#dcc5a1;}.cls-2{fill:#edd9b4;}.cls-3,.cls-7{fill:#bc9f82;}.cls-3{opacity:0.7;}.cls-4{fill:#483a26;}.cls-5{fill:#84572f;}.cls-6{fill:#ccad8b;}.cls-8{fill:#d9bf9f;}.cls-9{fill:#666664;}.cls-10{fill:#3b2f18;}</style></defs><title>Ativo 36avatar</title><g id="Camada_2" data-name="Camada 2"><g id="Objects"><path class="cls-1" d="M24.05,43V77.27H5.35l-.45-.2a32.64,32.64,0,0,1,1-8.53c.13-.46.26-.9.4-1.33A15.07,15.07,0,0,1,13,58.54a.11.11,0,0,0,.06,0h0a9.88,9.88,0,0,1,3.25-1.19c1.14,0,1.88-1.46,2.36-3.68a10.72,10.72,0,0,0,.2-1.07c.1-.63.2-1.29.26-2l.12-1.26c.17-2.11.22-4.4.22-6.56C19.5,42.75,22,43,24.05,43Z"/><path class="cls-2" d="M43.27,77.07l-.44.2H24.05V43h0c2,0,4.56-.24,4.56-.24,0,2.15.06,4.41.23,6.5,0,.42.07.84.11,1.25.08.71.16,1.39.27,2v0c0,.28.09.55.14.81.49,2.36,1.25,4,2.42,4A10.56,10.56,0,0,1,35.94,59C39.22,61.22,43.27,66.14,43.27,77.07Z"/><path class="cls-3" d="M29.26,52.54h0a6.06,6.06,0,0,1-5.18,2.81h0a6.55,6.55,0,0,1-5.15-2.8c.1-.63.2-1.29.26-2l.12-1.26a21.13,21.13,0,0,0,4.72.61h.05a19.49,19.49,0,0,0,4.83-.67c0,.42.07.84.11,1.25C29.07,51.21,29.15,51.89,29.26,52.54Z"/><path class="cls-4" d="M12.13,61.59C13.6,62.19,19,65,24.05,64.8c10.61-.32,12.35-4.19,12.35-4.19s.44,7.68-1.61,8.91-7.19,4.34-10.71,4-8.93-2.37-9.26-3.6S12.13,61.59,12.13,61.59Z"/><path class="cls-5" d="M42.34,68.54c-.13-.46-.26-.9-.41-1.33a15,15,0,0,0-6.75-8.67.07.07,0,0,1-.06,0h0a22.5,22.5,0,0,1-5.71,8A31.19,31.19,0,0,1,24,70.21a30.51,30.51,0,0,1-5.36-3.71,22.58,22.58,0,0,1-5.72-8h0l0,0a15,15,0,0,0-6.76,8.67c-.15.43-.28.87-.41,1.33a32.15,32.15,0,0,0-1,8.53l.47.2H42.91l.46-.2A32.18,32.18,0,0,0,42.34,68.54Z"/><path class="cls-6" d="M24.1,3.69C4.3,3.69,4.19,20.21,5.06,31c-1.35-2.56-5.37-1.77-5,2.27s6,5.9,5.92,5.44c1.62,8.91,10.94,14,18.16,14h.15V3.69Z"/><path class="cls-7" d="M1.29,31.58A1.87,1.87,0,0,1,4.15,31a1.63,1.63,0,0,1,.46,1.79c-.14.51-.69.55-.55,1.34a1.37,1.37,0,0,0,.79,1.15,1.84,1.84,0,0,1,.67.73,1.86,1.86,0,0,1,.08,1.11c-.14.64-1.08.13-1.7-.15a12.23,12.23,0,0,1-2-1.66A3.51,3.51,0,0,1,1.29,31.58Z"/><path class="cls-8" d="M24.2,3.69C44,3.69,44.12,20.21,43.24,31c1.36-2.56,5.38-1.77,5,2.27s-6,5.9-5.92,5.44c-1.62,8.91-10.94,14-18.17,14h-.15V3.69Z"/><path class="cls-7" d="M47,31.58A1.87,1.87,0,0,0,44.16,31a1.63,1.63,0,0,0-.46,1.79c.14.51.68.55.55,1.34a1.39,1.39,0,0,1-.79,1.15c-.23.2-.53.35-.67.73a1.86,1.86,0,0,0-.08,1.11c.14.64,1.08.13,1.7-.15a12.23,12.23,0,0,0,2.05-1.66A3.53,3.53,0,0,0,47,31.58Z"/><path class="cls-1" d="M23.93,8.34c-6.52,0-11.28,1.89-14.17,5.61-4,5.2-3.88,13.14-2.39,18.84.45,1.74.68,6.44,1,8.17,1.4,7.71,9.94,11.81,15.56,11.81h.15V8.35Z"/><path class="cls-2" d="M38.08,14c-2.87-3.7-7.58-5.58-14-5.61V52.77C30.5,52.69,38.17,48.2,39.49,41c.31-1.73.55-6.43,1-8.17C42,27.11,42.13,19.17,38.08,14Z"/><path class="cls-9" d="M43.27,38.07a.41.41,0,0,1-.81,0,.41.41,0,1,1,.81,0Z"/><path class="cls-9" d="M44.19,37.69a.23.23,0,1,1-.22-.22A.22.22,0,0,1,44.19,37.69Z"/><path class="cls-9" d="M45,37.24a.23.23,0,1,1-.45,0,.23.23,0,1,1,.45,0Z"/><path class="cls-10" d="M4.87,35.24A70.64,70.64,0,0,1,2.56,20.68c0-3.26.61-7.74,1.9-9.76C6.16,8.27,6.29,9,6.29,9S4.58,1.77,15.22.16A25.09,25.09,0,0,1,19.4,0L18,1.53a29.41,29.41,0,0,1,13-.78C36.32,1.59,40,4.28,43,8.65a19.7,19.7,0,0,1,2.65,7.24l-3.93-5.31a18.47,18.47,0,0,1,3.93,14.25c-1.64,12.63-7.42,15-7.42,15s4-7.58,1.35-12.48a15.47,15.47,0,0,0-12.27-8.49,11.21,11.21,0,0,1,9.36,8.68A6.06,6.06,0,0,0,33,24c-2.31-.9-5.56-.57-9.27-2.28a78,78,0,0,1-9.36-5.95s8,3,10.19,5a14.1,14.1,0,0,1,4.57,8.47,16.55,16.55,0,0,0-8-5.94C18.06,22.07,12.47,20,12.47,20a10.94,10.94,0,0,1,7.07,2.25c2.36,2,1.69,6.39,1.1,7.19,0,0,.19-3.31-6.92-5.38C9.63,22.87,9,20.52,9,20.52a13.24,13.24,0,0,1-.53,3.81C7.81,26.06,6,27.19,5.87,28.74c-.24,2.91,1.3,8.34,1.3,8.34Z"/></g></g></svg>