<svg xmlns="http://www.w3.org/2000/svg" xmlns:xlink="http://www.w3.org/1999/xlink" viewBox="0 0 50.06 81.99"><defs><style>.cls-1{fill:none;}.cls-2{fill:#484843;}.cls-3{fill:#dcc5a1;}.cls-4{fill:#edd9b4;}.cls-5{clip-path:url(#clip-path);}.cls-6{fill:#bc9f82;}.cls-7{fill:#422e14;}.cls-8{fill:#895a59;}.cls-9{fill:#4f4e49;}.cls-10{fill:#fdfdfd;}.cls-11{fill:#f8f7e0;}.cls-12{fill:#d9bf9f;}.cls-13{fill:#ccad8b;}</style><clipPath id="clip-path"><rect class="cls-1" x="19.86" y="52.96" width="10.74" height="6.32"/></clipPath></defs><title>Ativo 12avatar</title><g id="Camada_2" data-name="Camada 2"><g id="Objects"><path class="cls-2" d="M43.66,33.71a.26.26,0,1,0,.51,0L44.05,32a.26.26,0,0,0-.51,0Z"/><path class="cls-3" d="M25.19,46.47V82H5.82l-.47-.2c0-19.05,11.85-20.47,11.85-20.47,1.19,0,1.95-1.51,2.45-3.82q.12-.52.21-1.11c.11-.65.2-1.33.27-2.05,0-.44.08-.87.12-1.32.17-2.18.23-4.55.23-6.79,0,0,2.61.25,4.71.25Z"/><path class="cls-4" d="M45.11,81.78l-.46.2H25.19V46.47h0c2.11,0,4.73-.25,4.73-.25,0,2.23.06,4.57.23,6.74,0,.43.09.87.12,1.29.09.74.17,1.44.28,2.11h0c0,.3.09.57.15.84.5,2.45,1.29,4.1,2.51,4.1,0,0,11.86,1.42,11.86,20.47Z"/><g class="cls-5"><path class="cls-6" d="M30.59,56.35v0a6.29,6.29,0,0,1-5.37,2.91h0a6.71,6.71,0,0,1-5.33-2.9c.11-.65.2-1.33.27-2.05,0-.44.08-.87.12-1.32a21.49,21.49,0,0,0,4.89.64h.05a20.26,20.26,0,0,0,5-.69c0,.43.09.87.12,1.29.09.74.17,1.44.28,2.1"/></g><path class="cls-7" d="M22,81.94c-.14-.27-.27-.57-.41-.85L21.48,81c-.26-.59-.53-1.15-.8-1.72s-.44-.93-.66-1.42c-.81-1.77-1.51-3.38-1.93-4.52A27.42,27.42,0,0,1,16.9,69c0-.18-.08-.37-.1-.53a.53.53,0,0,1,0-.12c0-.17-.05-.34-.08-.52a.93.93,0,0,1,0-.24,18,18,0,0,1,0-6l.06-.17c-2.24.52-11.37,3.66-11.37,20.37l.47.21H22Z"/><path class="cls-7" d="M28.52,81.94c.14-.27.26-.57.41-.85A.41.41,0,0,1,29,81c.26-.59.54-1.15.81-1.72s.43-.93.65-1.42c.81-1.77,1.52-3.38,1.94-4.52A26.38,26.38,0,0,0,33.56,69c0-.18.08-.37.11-.53a.25.25,0,0,0,0-.12l.09-.52,0-.24a18,18,0,0,0,0-6c0-.06,0-.11,0-.17,2.24.52,11.36,3.66,11.36,20.37l-.47.21H28.49Z"/><path class="cls-8" d="M22.94,82H19.57l-.42-.49c-6.9-8.18-8-14.2-8-14.2L14,65.88l-1.76-1.29s.68-.86,1.91-2.14a12.15,12.15,0,0,1,1.4-1.15A12.64,12.64,0,0,1,17.85,60c-.09.11-.82,1.14-.63,6.08,0,.33,0,.65.09,1,0,.09,0,.16,0,.22s.05.32.08.49a.18.18,0,0,0,0,.1,4.37,4.37,0,0,0,.09.5,44.68,44.68,0,0,0,2.84,8.18c.2.45.4.87.6,1.31s.5,1.06.73,1.58c.16.3.29.58.42.87s.31.63.47,1l.35.74Z"/><path class="cls-8" d="M39.05,67.3s-1.06,6-8,14.2c-.13.15-.27.32-.43.49H27.31c.88-1.8,1.93-3.94,2.87-6.15,0-.07.05-.14.07-.2s0,0,0,0a37.76,37.76,0,0,0,2.51-7.7.57.57,0,0,0,0-.15c0-.18.06-.34.09-.52s0-.13,0-.19c0-.34.06-.67.08-1A22.34,22.34,0,0,0,32.75,61c0-.15-.07-.28-.1-.4s0,0,0-.06a2,2,0,0,0-.25-.54,13.18,13.18,0,0,1,2.24,1.33h0a11.52,11.52,0,0,1,1.41,1.15c1.22,1.28,1.9,2.14,1.9,2.14l-1.76,1.29Z"/><path class="cls-9" d="M34.41,66.08C34.49,68,31,76.52,28.42,82H22C19.47,76.53,16,68,16,66.05a10.77,10.77,0,0,1,1-4.34A12.36,12.36,0,0,1,18.88,59S18.94,59,19,59h.18l6.08,4.26L31.29,59h.2a.79.79,0,0,0,.12.15A14.66,14.66,0,0,1,33,61l.37.71a10.63,10.63,0,0,1,1,4.4Z"/><path class="cls-10" d="M32.65,59.81c-.29-.76-1-1.46-1.26-2.06l-.82-1.87A9.15,9.15,0,0,1,27.65,61c-1.91,1.54-2.9,2.26-2.18,2.42s3.79,4.39,4.77,5.53.82,2.2,1.07.66,1.12-3.1,1.2-5.11.93-2.72.14-4.73Z"/><path class="cls-10" d="M22.83,61a9,9,0,0,1-2.92-5.16s-.4.88-.83,1.87c-.26.6-1,1.3-1.26,2.06-.79,2,.05,2.71.14,4.73s.94,3.57,1.2,5.11.1.48,1.07-.66,4-5.37,4.77-5.53-.26-.87-2.17-2.42Z"/><path class="cls-11" d="M25.07,44.3a.38.38,0,0,0-.08.2c-2.3-.6-22.71-4.58-22.71-4.58a32.5,32.5,0,0,0,4.36,8c1.28,2,2.06,3.52,4.3,4s14,.21,14,.21,11.56.28,13.79-.21,3-2.06,4.3-4a25.09,25.09,0,0,0,3.86-7S25.46,44,25.07,44.3Z"/><path class="cls-12" d="M25.08,5.75c20.52,0,20.64,17.12,19.73,28.32,1.4-2.65,5.56-1.83,5.23,2.35s-6.21,6.12-6.14,5.65c-1.68,9.22-11.33,14.54-18.82,14.54h-.16V5.75Z"/><path class="cls-6" d="M48.72,34.65a2,2,0,0,0-3-.56A1.69,1.69,0,0,0,45.28,36c.14.53.71.58.57,1.39A1.45,1.45,0,0,1,45,38.53a2,2,0,0,0-.7.75,2.08,2.08,0,0,0-.08,1.15c.15.67,1.12.14,1.76-.15a12.26,12.26,0,0,0,2.13-1.72,3.67,3.67,0,0,0,.58-3.91Z"/><path class="cls-13" d="M25,5.75C4.45,5.75,4.34,22.87,5.25,34.07,3.85,31.42-.32,32.24,0,36.42s6.21,6.12,6.14,5.65C7.84,51.29,17.49,56.61,25,56.61h.15V5.75Z"/><path class="cls-6" d="M1.29,34.65a2,2,0,0,1,3-.56A1.71,1.71,0,0,1,4.74,36c-.15.53-.71.58-.57,1.39A1.43,1.43,0,0,0,5,38.53a1.94,1.94,0,0,1,.69.75,2.09,2.09,0,0,1,.09,1.15c-.16.67-1.12.14-1.77-.15a12.2,12.2,0,0,1-2.12-1.72,3.69,3.69,0,0,1-.59-3.91Z"/><path class="cls-3" d="M25.07,10.58c-6.75,0-11.69,1.95-14.69,5.81C6.21,21.77,6.37,30,7.91,35.91c.47,1.81.71,6.67,1,8.46,1.45,8,10.3,12.24,16.12,12.24h.16v-46Z"/><path class="cls-4" d="M39.72,16.4c-3-3.83-7.84-5.79-14.49-5.81v46c6.65-.08,14.6-4.74,16-12.24.32-1.79.57-6.65,1-8.46C43.77,30,43.92,21.8,39.72,16.4Z"/><path class="cls-11" d="M41.54,7.25C36.41,3.36,29.56-.45,24.89,0,20.21-.45,13.36,3.36,8.23,7.25-.15,13.61,1.79,32.48,1.79,32.48A2.46,2.46,0,0,1,3.92,33a7.5,7.5,0,0,1,2,3.73,3.06,3.06,0,0,0,1.5,2s-2-9.07,0-13.1c1.17-2.29,2.19-4.77,5.31-7.19,2,2.22,6.69,3.78,12.13,3.78S35,20.57,37,18.35c3.1,2.42,4.13,4.9,5.29,7.18,2.07,4,.06,13.1.06,13.1a3.06,3.06,0,0,0,1.49-2,7.58,7.58,0,0,1,2-3.73A2.46,2.46,0,0,1,48,32.48S49.93,13.61,41.54,7.25Z"/></g></g></svg>