<svg xmlns="http://www.w3.org/2000/svg" viewBox="0 0 48.87 79.7"><defs><style>.cls-1{fill:#dcc5a1;}.cls-2{fill:#edd9b4;}.cls-3,.cls-8{fill:#bc9f82;}.cls-3{opacity:0.7;}.cls-4{fill:#ecedef;}.cls-5{fill:#841720;}.cls-6{fill:#362c1d;}.cls-7{fill:#ccad8b;}.cls-9{fill:#d9bf9f;}.cls-10{fill:#cd6c13;}</style></defs><title>Ativo 60avatar</title><g id="Camada_2" data-name="Camada 2"><g id="Objects"><path class="cls-1" d="M24.33,45V79.7H5.41L5,79.5c0-18.6,11.58-20,11.58-20,.86,0,1.48-.82,2-2.15a13.23,13.23,0,0,0,.43-1.58c.08-.34.14-.7.2-1.08.1-.64.2-1.31.26-2l.12-1.28c.18-2.13.23-4.45.23-6.64C19.73,44.77,22.27,45,24.33,45Z"/><path class="cls-2" d="M43.78,79.5a4.4,4.4,0,0,0-.45.2h-19V45h0c2.06,0,4.62-.25,4.62-.25,0,2.18.05,4.47.22,6.58q.06.65.12,1.26c.08.72.16,1.41.27,2.06v0c0,.29.09.55.14.81a9.68,9.68,0,0,0,.93,2.82c.4.76.9,1.19,1.53,1.19C32.2,59.51,43.78,60.9,43.78,79.5Z"/><path class="cls-3" d="M29.6,54.67v0a6.11,6.11,0,0,1-5.24,2.84h0a6.65,6.65,0,0,1-5.22-2.83c.1-.63.2-1.31.27-2,0-.42.07-.84.12-1.28a20.93,20.93,0,0,0,4.77.62h.06a19.9,19.9,0,0,0,4.88-.67c0,.42.07.84.11,1.25C29.42,53.34,29.49,54,29.6,54.67Z"/><polygon class="cls-4" points="11.18 62.77 10.44 63.3 9.83 61.68 9.23 60.06 10.58 61.15 11.94 62.22 11.18 62.77"/><polygon class="cls-4" points="12.79 61.38 11.91 61.66 11.84 59.94 11.76 58.21 12.72 59.65 13.67 61.09 12.79 61.38"/><polygon class="cls-4" points="14.96 60.36 14.04 60.4 14.43 58.71 14.82 57.03 15.35 58.68 15.88 60.32 14.96 60.36"/><polygon class="cls-4" points="37.27 62.53 38.02 63.07 38.62 61.45 39.23 59.83 37.87 60.91 36.52 61.99 37.27 62.53"/><polygon class="cls-4" points="35.66 61.15 36.54 61.43 36.62 59.7 36.69 57.98 35.74 59.42 34.78 60.86 35.66 61.15"/><polygon class="cls-4" points="33.5 60.13 34.42 60.16 34.03 58.48 33.63 56.8 33.1 58.44 32.58 60.09 33.5 60.13"/><path class="cls-5" d="M43.78,79.49l-.45.21H5.41L5,79.49c0-18.7,11.58-20.1,11.58-20.1.86,0,1.48-.83,2-2.17l5.84,10.2,6.34-9.23c.4.76.9,1.2,1.53,1.2C32.2,59.39,43.78,60.79,43.78,79.49Z"/><path class="cls-6" d="M24.38,71.35a1.67,1.67,0,0,1-1.67-1.66s.75-4.43,1.67-4.43S26,69.69,26,69.69A1.66,1.66,0,0,1,24.38,71.35Z"/><path class="cls-7" d="M24.39,5.26C4.35,5.26,4.24,22,5.13,32.91,3.75,30.32-.31,31.12,0,35.2s6.07,6,6,5.51c1.65,9,11.08,14.21,18.39,14.21h.15V5.26Z"/><path class="cls-8" d="M1.3,33.48a1.9,1.9,0,0,1,2.9-.55,1.65,1.65,0,0,1,.46,1.81c-.14.52-.69.56-.55,1.36a1.38,1.38,0,0,0,.8,1.16,1.8,1.8,0,0,1,.67.74,1.9,1.9,0,0,1,.09,1.12c-.15.65-1.09.13-1.73-.15a12.39,12.39,0,0,1-2.07-1.68A3.58,3.58,0,0,1,1.3,33.48Z"/><path class="cls-9" d="M24.49,5.26c20,0,20.15,16.71,19.26,27.65,1.37-2.59,5.44-1.79,5.1,2.29s-6.06,6-6,5.51c-1.64,9-11.07,14.21-18.38,14.21h-.15V5.26Z"/><path class="cls-8" d="M47.57,33.48a1.89,1.89,0,0,0-2.89-.55,1.65,1.65,0,0,0-.47,1.81c.14.52.7.56.56,1.36a1.4,1.4,0,0,1-.8,1.16,1.82,1.82,0,0,0-.68.74,2,2,0,0,0-.09,1.12c.16.65,1.1.13,1.73-.15A11.64,11.64,0,0,0,47,37.29,3.54,3.54,0,0,0,47.57,33.48Z"/><path class="cls-1" d="M24.22,10c-6.6,0-11.42,1.9-14.35,5.67C5.8,20.9,6,28.94,7.45,34.7c.47,1.77.7,6.52,1,8.26,1.42,7.8,10.06,12,15.75,12h.15V10Z"/><path class="cls-2" d="M38.52,15.65C35.62,11.91,30.85,10,24.37,10V54.91C30.86,54.84,38.62,50.29,40,43c.31-1.74.55-6.49,1-8.26C42.47,29,42.62,20.93,38.52,15.65Z"/><path class="cls-10" d="M3.36,14.67c-.63,4.64-.8,8.46-.8,8.46L2.47,33.64A23.22,23.22,0,0,1,4,28a12.83,12.83,0,0,0,.41-3.17s-.85,2.44-.68,8.82c.11,3.8,3.22,7.12,3.22,7.12S4,35.05,6.59,30.53a8,8,0,0,1,1.74-2l-.16,5.41a30.22,30.22,0,0,0,3.52-10.08c.46-3.56,0-4.67,0-4.67a12,12,0,0,0,2.64,7.6c3.79,4.8,9.4,6.26,11.48,6.72a52.4,52.4,0,0,0,6.69.34,12.28,12.28,0,0,1-5.92-2.69,18.34,18.34,0,0,1-3.26-3.28,24.16,24.16,0,0,0,3.9,3.32,11.5,11.5,0,0,0,6.56,1.58,21,21,0,0,1-4.43-2.92,23.36,23.36,0,0,1-2.61-3.95s2.94,3.83,4.75,4.8A10.56,10.56,0,0,0,40,31.6s-3.51-.24-4.85-3c-.4-.81-1.58-3.24-1.58-3.24s.85,4,8,6a13.19,13.19,0,0,0,5.9,0,8.55,8.55,0,0,1-5.18-2.68C41.19,27.32,38,21.6,38,21.6A19.58,19.58,0,0,0,39.67,25a26.41,26.41,0,0,1,3.2,7.65c.64,2.92-.59,7.35-.59,7.35s4.87-7.78,4.08-15.37c-.15-1.44-.35-7.08-1-10.18C41.72-2.86,21,.21,21,.21S5.32.23,3.36,14.67Z"/></g></g></svg>