<svg xmlns="http://www.w3.org/2000/svg" xmlns:xlink="http://www.w3.org/1999/xlink" viewBox="0 0 50.87 87.62"><defs><style>.cls-1{fill:none;}.cls-2{fill:#3b2f18;}.cls-3{fill:#dcc5a1;}.cls-4{fill:#edd9b4;}.cls-5{clip-path:url(#clip-path);}.cls-6{fill:#bc9f82;}.cls-7{fill:#fff;}.cls-8{fill:#7491c6;}.cls-9{fill:#ccad8b;}.cls-10{fill:#d9bf9f;}</style><clipPath id="clip-path"><rect class="cls-1" x="19.66" y="58.74" width="10.68" height="6.29"/></clipPath></defs><title>Ativo 30avatar</title><g id="Camada_2" data-name="Camada 2"><g id="Objects"><path class="cls-2" d="M46.5,53.3c-.7-3.43-.28-2.19.62-5.31l-.31.17a26.93,26.93,0,0,0,2.06-10.33c0-14-10.52-25.31-23.5-25.31S1.86,23.85,1.86,37.83a27,27,0,0,0,2,10.22.34.34,0,0,1-.1-.06c.88,3.12,1.32,1.88.61,5.31C3.77,56.27,2,57,2,57a14.52,14.52,0,0,0,3.44-1.89l1.46-1.72s0,0,0,0a5.65,5.65,0,0,0,0,3.57,9.16,9.16,0,0,0,3.43,4.65A6.67,6.67,0,0,1,9.12,57S9,58,11.71,60.7s7.7,5.06,7.7,5.06,1.93.83,1.87-1c2,.57,2-1.61,4.09-1.61s3,2.49,5,1.89c-.06,1.86,1.13.73,1.13.73s5-2.36,7.69-5.06S41.75,57,41.75,57a6.63,6.63,0,0,1-1.19,4.63A9.11,9.11,0,0,0,44,57c.62-2.6-.06-3.68-.07-3.68s1.15,1.36,1.54,1.81A14.52,14.52,0,0,0,48.9,57s-1.79-.77-2.4-3.74Z"/><path class="cls-3" d="M25,52.29V87.62H5.7l-.47-.2c0-17.53,10.09-20.06,11.61-20.33l.19,0c1.17,0,1.93-1.52,2.43-3.81.08-.35.15-.71.2-1.1.11-.64.21-1.34.27-2,0-.43.08-.86.13-1.31.17-2.16.22-4.52.22-6.75,0,0,2.6.25,4.7.25Z"/><path class="cls-4" d="M44.79,87.42l-.46.2H25V52.29h0c2.09,0,4.7-.25,4.7-.25,0,2.22.05,4.55.23,6.7L30.07,60c.08.74.16,1.44.28,2.1h0c0,.3.09.57.14.84.5,2.44,1.28,4.09,2.5,4.09a3.31,3.31,0,0,1,.5.08s0,0,0,0c2.28.54,11.28,3.72,11.28,20.28Z"/><g class="cls-5"><path class="cls-6" d="M30.35,62.12h0A6.25,6.25,0,0,1,25,65h0a6.73,6.73,0,0,1-5.32-2.88,20.56,20.56,0,0,0,.27-2c0-.44.08-.87.13-1.31a21.82,21.82,0,0,0,4.87.63H25a20.08,20.08,0,0,0,5-.69c0,.43.09.87.13,1.28.07.74.15,1.44.27,2.1"/></g><path class="cls-7" d="M44.79,87.41l-.46.21H5.7l-.47-.21C5.23,69.6,15.33,67,16.84,66.75c2.47,2.81,7.88,7.74,7.88,7.74s5.56-4.68,7.87-6.82a2.51,2.51,0,0,0,.33-.32c.26-.23.46-.42.57-.54h0a9.32,9.32,0,0,1,1.5.49l.33.15a12.81,12.81,0,0,1,2.33,1.39,2.78,2.78,0,0,1,.34.26c3.21,2.51,6.78,7.72,6.78,18.31Z"/><path class="cls-8" d="M32.5,64.1c.17.13,2.07,4.2,2.41,5a10.49,10.49,0,0,1,0,3.32s-.26-1.33-1-1.68a4.75,4.75,0,0,0-3-.22c-.64.3-3.64,2.65-4.19,3a3,3,0,0,0-1.09,1.26V87.62H24.29L24.37,75l1.44-4.5,5.26-5.09s-.32-1.3-.37-1.47a4.86,4.86,0,0,1,1.8.21Z"/><path class="cls-8" d="M17.4,64.31c-.18.14-2.08,4.21-2.42,5a10.42,10.42,0,0,0,0,3.31s.26-1.33,1-1.67a4.63,4.63,0,0,1,3-.22c.64.3,3.64,2.65,4.19,3s2.42,1.68,2.42,1.68l-1.87-5-4.9-4.9s.42-1.35.41-1.45a4.81,4.81,0,0,0-1.85.21Z"/><path class="cls-9" d="M24.85,11.76C4.44,11.76,4.32,28.8,5.23,40,3.83,37.3-.31,38.13,0,42.28s6.18,6.09,6.1,5.62C7.8,57.08,17.4,62.37,24.85,62.37H25V11.77Z"/><path class="cls-6" d="M1.33,40.52a1.94,1.94,0,0,1,3-.56,1.68,1.68,0,0,1,.47,1.85c-.14.54-.7.58-.56,1.39A1.39,1.39,0,0,0,5,44.37a2,2,0,0,1,.69.76,1.91,1.91,0,0,1,.09,1.15c-.15.66-1.12.13-1.76-.16a12.45,12.45,0,0,1-2.11-1.71,3.64,3.64,0,0,1-.58-3.89Z"/><path class="cls-10" d="M25,11.76c20.43,0,20.54,17,19.63,28.19,1.4-2.65,5.55-1.82,5.21,2.33s-6.19,6.09-6.1,5.62C42,57.08,32.41,62.37,25,62.37H24.8V11.77Z"/><path class="cls-6" d="M48.48,40.52A1.94,1.94,0,0,0,45.53,40a1.7,1.7,0,0,0-.48,1.85c.14.54.71.58.57,1.39a1.39,1.39,0,0,1-.82,1.17,2.11,2.11,0,0,0-.68.76A1.91,1.91,0,0,0,44,46.28c.15.66,1.12.13,1.76-.16a12.45,12.45,0,0,0,2.11-1.71,3.66,3.66,0,0,0,.58-3.89Z"/><path class="cls-3" d="M24.85,16.6c-6.72,0-11.63,1.95-14.62,5.79-4.15,5.36-4,13.55-2.46,19.42.47,1.8.71,6.64,1,8.42,1.44,7.94,10.25,12.18,16,12.18H25V16.61Z"/><path class="cls-4" d="M39.43,22.4c-3-3.82-7.81-5.76-14.42-5.79V62.4c6.61-.07,14.52-4.71,15.88-12.17.33-1.78.56-6.62,1-8.42,1.53-5.86,1.68-14-2.49-19.41Z"/><path class="cls-2" d="M50.87,25.17C49.8,16,40.53,13.7,38.27,13.29L38,13.1a6.51,6.51,0,0,1,.33-.93c.66-1.53,3.79-.84,3.79-.84a3.69,3.69,0,0,0-4.21-1.16c-1.69.63-.95.11-.95.11s.89-.75-.09-3.12A4.76,4.76,0,0,0,34,4.31a6.15,6.15,0,0,1,1.43,3.15c0,1.47-1.33,3.93-2,3.55-1.25-.65-1.37-2.2-1.48-3a9,9,0,0,1,.87-2.91,28.33,28.33,0,0,1-2.45,1.87,2.56,2.56,0,0,0-.86.93,3.92,3.92,0,0,0,.23-2c-.34-1.22-.63-2.8.41-3.95S35,0,35,0a43.51,43.51,0,0,0-5.64.26C27.49.65,24.65,1.44,23,3.54s.24,5.16-.07,5-2.53-2.63-2.74-4.41a4.94,4.94,0,0,1,0-2.2s-4.71,3.42-3.37,8.71c.45,1.76.72,1.91.72,1.91l-2.29-.93c-2.31-.94-3.37-.05-5.68-.78A4,4,0,0,1,6.9,7.66a5.78,5.78,0,0,0-.45,3,3.59,3.59,0,0,0,2.14,2.93,10.37,10.37,0,0,0-2.46,0c-1.89.1-3.1,2.29-3.1,2.29A4.87,4.87,0,0,1,7.67,15a2.87,2.87,0,0,1,1.8,1.25l-.42.4C5.34,18.44-.89,22.79.53,31.26A30.31,30.31,0,0,1,3,27.81C1.7,38.14,11.26,46.33,11.26,46.33a37.21,37.21,0,0,1-2.2-15l-.16-.15L9.09,31s2-9.87,3.84-4.55a4.11,4.11,0,0,0,.08.54,7.36,7.36,0,0,0,2.63,4.2,5.91,5.91,0,0,1-.28-5.58,9,9,0,0,1,3.92-4.21l.08,0a9.64,9.64,0,0,1,2.69-1.06c0,.14-2.38,2.53,0,6.49A12.43,12.43,0,0,1,22.29,23c.39-1.16,1.74-2.68,3.28-2.62,2.88,1.46,6.84,5.22,3.23,14.34,0,0,6.33-4.14,9-9.4a10.19,10.19,0,0,0,1.08-3.59A22.71,22.71,0,0,1,41.41,31a36.6,36.6,0,0,1-2.29,14.72S53,34.1,45.53,21.1C48.35,23,50.87,25.17,50.87,25.17Z"/></g></g></svg>