<svg xmlns="http://www.w3.org/2000/svg" xmlns:xlink="http://www.w3.org/1999/xlink" viewBox="0 0 52.66 84.97"><defs><style>.cls-1{fill:none;}.cls-2{fill:#dcc5a1;}.cls-3{fill:#edd9b4;}.cls-4{clip-path:url(#clip-path);}.cls-5{fill:#bc9f82;}.cls-6{fill:#002178;}.cls-7{fill:#ccad8b;}.cls-8{fill:#a01127;}.cls-9{fill:#796452;}.cls-10{fill:#fff;}</style><clipPath id="clip-path"><rect class="cls-1" x="19.48" y="56.08" width="10.68" height="6.3"/></clipPath></defs><title>Ativo 15avatar</title><g id="Camada_2" data-name="Camada 2"><g id="Objects"><path class="cls-2" d="M24.8,49.63V85H5.51L5,84.76c0-19,11.8-20.37,11.8-20.37,1.18,0,1.94-1.5,2.44-3.79.07-.35.14-.72.2-1.11.11-.64.2-1.34.27-2l.12-1.31c.18-2.17.23-4.53.23-6.76,0,0,2.59.25,4.7.25Z"/><path class="cls-3" d="M44.61,84.76l-.46.2H24.8V49.63h0c2.09,0,4.71-.25,4.71-.25,0,2.22.05,4.55.23,6.7,0,.43.08.86.11,1.28.09.74.17,1.44.28,2.11h0c0,.3.09.56.15.84.49,2.43,1.28,4.07,2.5,4.07,0,0,11.8,1.42,11.8,20.37Z"/><g class="cls-4"><path class="cls-5" d="M30.16,59.47h0a6.26,6.26,0,0,1-5.34,2.9h0a6.73,6.73,0,0,1-5.31-2.89c.11-.64.2-1.34.27-2l.12-1.31a21.82,21.82,0,0,0,4.87.63h.05a19.76,19.76,0,0,0,5-.69l.12,1.28c.08.74.16,1.44.27,2.11"/></g><path class="cls-6" d="M40.22,85H9.37c.08-1.21.2-3,.33-3.93.55-4.59,3.86-5.46,3.66-15.33,0-.16.1-.28.16-.42l3.27-1v.15c0,1.33.25,9.9.48,12.26.15,1.69,4.1,2.47,7.53,2.59,3.41-.12,7.34-.9,7.51-2.59.21-2.37.43-11,.46-12.26,0-.1,0-.15,0-.15l3.27,1,.14.35c.1,10.47,3.12,10.78,3.7,15.4.12,1,.24,2.72.33,3.93Z"/><path class="cls-7" d="M24.83,9.12V59.71H25c7.45,0,17.06-5.29,18.74-14.47a.93.93,0,0,0,0,.42,1.78,1.78,0,0,0,2.68.63c.87-.78.3-2.25.34-2.27a6.26,6.26,0,0,0,3-4.4c.34-4.16-3.79-5-5.2-2.33C45.5,26.14,45.4,9.12,25,9.12Zm19.9,36a.61.61,0,0,1,.62-.6.6.6,0,0,1,0,1.19.61.61,0,0,1-.62-.59Z"/><path class="cls-8" d="M44.06,45.15a1.28,1.28,0,0,0,1.29,1.26,1.27,1.27,0,1,0,0-2.53,1.29,1.29,0,0,0-1.29,1.27Zm.67,0a.61.61,0,0,1,.62-.6.6.6,0,0,1,0,1.19.61.61,0,0,1-.62-.59Z"/><path class="cls-9" d="M48.47,37.86a1.93,1.93,0,0,0-2.94-.56,1.68,1.68,0,0,0-.48,1.85c.14.54.7.57.57,1.39a1.45,1.45,0,0,1-.82,1.18,1.81,1.81,0,0,0-.69.75A2.09,2.09,0,0,0,44,43.62c.16.66,1.12.13,1.76-.16a12.07,12.07,0,0,0,2.11-1.71,3.63,3.63,0,0,0,.58-3.89Z"/><path class="cls-7" d="M24.85,9.11c-20.43,0-20.53,17-19.63,28.18C3.82,34.65-.32,35.46,0,39.62a6.26,6.26,0,0,0,3,4.4s-.53,1.49.34,2.27a1.78,1.78,0,0,0,2.68-.63.8.8,0,0,0,0-.42C7.79,54.42,17.4,59.71,24.85,59.71H25V9.11ZM4.47,45.74a.6.6,0,0,1-.59-.59.59.59,0,0,1,.59-.59.6.6,0,0,1,.62.59.61.61,0,0,1-.62.59Z"/><path class="cls-2" d="M24.67,13.91C18,13.91,13,15.85,10.05,19.69c-4.15,5.36-4,13.55-2.46,19.43.47,1.79.71,6.64,1,8.41,1.45,7.95,10.24,12.18,16,12.18h.16V13.91Z"/><path class="cls-3" d="M39.25,19.7c-3-3.81-7.81-5.75-14.42-5.79v45.8c6.61-.08,14.52-4.71,15.88-12.18.33-1.77.57-6.62,1-8.41,1.53-5.86,1.68-14-2.49-19.42Z"/><path class="cls-9" d="M1.51,37.77a1.94,1.94,0,0,1,3-.56,1.67,1.67,0,0,1,.47,1.85c-.14.53-.7.57-.57,1.39a1.47,1.47,0,0,0,.83,1.18,1.86,1.86,0,0,1,.68.75A1.88,1.88,0,0,1,6,43.52c-.15.66-1.12.14-1.76-.15a13.51,13.51,0,0,1-2.11-1.71,3.64,3.64,0,0,1-.58-3.89Z"/><path class="cls-10" d="M5.62,46c-.42,0,0-2.59-1.36-4.38S.77,33.79.77,27.78s1.81-11.36,6.51-17A32.83,32.83,0,0,1,18.9,2.3L15.72,5.71s1.72-2.77,7.88-5c4.86-1.75,8,.2,8,.2S28.4.8,27.43,2.43a5.47,5.47,0,0,1-1.14,1s1.49-3.92,8.41-.67,6.79,9.07,11.6,10.85,6.36-.51,6.36-.51-2.14,4.12-5.94,4.13a2.72,2.72,0,0,1-.68,0,42.11,42.11,0,0,1,1.7,7.7c.28,3.36-.59,5.66-.86,11.95-.23,5.37-1.48,2.62-3,6.58a9.54,9.54,0,0,0-.52,2.82c-.55.16-2-3.22-1-9.1.68-3.81-2.67-18.27-10.73-15.45-4.94,1.72-6.18,5.24-9.87,2.12-3.18-2.7-7.63-4.24-10.95-2.11s-5.2,6.91-4.62,14.54C7,46.05,5.62,46,5.62,46Z"/></g></g></svg>