<svg xmlns="http://www.w3.org/2000/svg" viewBox="0 0 68.89 78.07"><defs><style>.cls-1{fill:#d19a30;}.cls-2{fill:#dcc5a1;}.cls-3{fill:#edd9b4;}.cls-4,.cls-7{fill:#bc9f82;}.cls-4{opacity:0.7;}.cls-5{fill:#511e1e;}.cls-6{fill:#ccad8b;}.cls-8{fill:#d9bf9f;}.cls-9{fill:#b47070;}.cls-10{fill:#c17874;}.cls-11{fill:#111;}.cls-12{fill:none;}.cls-13{fill:#070707;}.cls-14{fill:#e3b142;}.cls-15{fill:#841720;}.cls-16{fill:#aa6568;}</style></defs><title>Ativo 59avatar</title><g id="Camada_2" data-name="Camada 2"><g id="Objects"><path class="cls-1" d="M36.7,35.44a39,39,0,0,1-3.27,8.36c-1.63,2.91-6.6,6.65-6.78,10.63C26.28,63,38.44,67.05,43.35,68.51s6.54,1.6,7.08,3.7a19.09,19.09,0,0,1,.1,5.63s4.13-2.25,5.3-4c2.5-3.7-.24-6.22-.24-6.22s-1,.87.19,2.83,1.19,3.71.76,4.22-2,2.1-2,2.1,7.58-2.14,6.1-8.28c-.25-1.05-.94-.28,0,0,2.11.63,1.71,4.09,1.71,4.09S67.53,66,57.12,62.22c-1-.36-6.35-1.68-6.9-6.1-.31-2.45,1.48-2.66,1.81-5.66.43-3.87-5.14-3.06-7.28-6.71-.41-.69,1.61-1.09,0-3-1.94-2.28-2.66-2.1-5.43-3.45S36.7,35.44,36.7,35.44Z"/><path class="cls-2" d="M34.64,45V78.07h-18a4.22,4.22,0,0,0-.44-.19,27.26,27.26,0,0,1,2.07-11.3,13.36,13.36,0,0,1,7.05-7.2,7.87,7.87,0,0,1,1.92-.56h.09l.24,0c.91-.26,1.53-1.59,1.95-3.51.07-.34.14-.67.19-1,.1-.61.19-1.25.25-1.93,0-.39.07-.79.12-1.21.16-2,.21-4.25.21-6.33C30.25,44.76,32.68,45,34.64,45Z"/><path class="cls-3" d="M53.18,77.88a2.68,2.68,0,0,0-.42.19H34.64V45h0c2,0,4.4-.24,4.4-.24,0,2.08.05,4.26.21,6.28q.06.62.12,1.2c.07.69.15,1.35.25,1.95v0c0,.27.09.53.14.78.38,1.85.94,3.21,1.75,3.67a2,2,0,0,0,.59.15s5.58.67,8.8,7.41A26.71,26.71,0,0,1,53.18,77.88Z"/><path class="cls-4" d="M39.66,54.2v0a5.84,5.84,0,0,1-5,2.71h0a6.3,6.3,0,0,1-5-2.7c.1-.61.18-1.25.25-1.92,0-.4.07-.8.11-1.22a19.8,19.8,0,0,0,4.56.59h0A18.52,18.52,0,0,0,39.29,51l.12,1.2C39.48,52.93,39.56,53.58,39.66,54.2Z"/><path class="cls-5" d="M68.89,31.6c0,5.41-16.61,18.1-34.44,18.1S0,38.76,0,33.35s16-7.56,33.84-7.56S68.89,26.19,68.89,31.6Z"/><path class="cls-6" d="M34.62,9.46c-18.82,0-18.94,15.05-18.1,24.88-1.29-2.31-5.11-1.46-4.79,2.24.3,3.54,5.69,5.14,5.62,4.75,1.54,8,10.42,12.46,17.27,13.1h.15v-45Z"/><path class="cls-7" d="M12.67,35a1.87,1.87,0,0,1,2.76-.5,1.45,1.45,0,0,1,.45,1.64c-.13.48-.66.51-.53,1.24a1.27,1.27,0,0,0,.76,1,1.9,1.9,0,0,1,.65.67,1.72,1.72,0,0,1,.08,1c-.14.59-1,.12-1.65-.14a10.82,10.82,0,0,1-2-1.52A3.1,3.1,0,0,1,12.67,35Z"/><path class="cls-8" d="M34.72,9.46c18.83,0,18.93,15.05,18.1,24.88,1.29-2.31,5.11-1.46,4.8,2.24-.31,3.54-5.7,5.14-5.63,4.75-1.54,8-10.41,12.46-17.27,13.1h-.15v-45Z"/><path class="cls-7" d="M56.8,35a1.87,1.87,0,0,0-2.76-.5,1.47,1.47,0,0,0-.45,1.64c.14.48.67.51.54,1.24a1.27,1.27,0,0,1-.76,1c-.23.19-.51.33-.65.67a1.73,1.73,0,0,0-.09,1c.15.59,1,.12,1.65-.14a10.88,10.88,0,0,0,2-1.52A3.11,3.11,0,0,0,56.8,35Z"/><path class="cls-2" d="M34.52,13.73c-6.28,0-10.89,1.73-13.67,5.14-3.89,4.76-3.74,12-2.3,17.26.43,1.6.66,5.9,1,7.48,1.36,7.06,9.59,10.82,15,10.82h.15V13.74Z"/><path class="cls-3" d="M48.17,18.88c-2.76-3.4-7.31-5.12-13.5-5.14V54.43c6.19-.06,13.59-4.19,14.87-10.82.3-1.58.53-5.88,1-7.48C51.94,30.92,52.08,23.66,48.17,18.88Z"/><path class="cls-9" d="M37.84,48.05a5,5,0,0,1-3.18,1.51,4.74,4.74,0,0,1-3.09-1.48,20.28,20.28,0,0,1,3.09-.23A25.43,25.43,0,0,1,37.84,48.05Z"/><path class="cls-10" d="M35.56,47.35a.83.83,0,0,0-.9.69.82.82,0,0,0-.89-.69,12.66,12.66,0,0,0-2.28.7s1.73.18,2.23.18.93.2.94-.17c0,.37.37.23.86.23s2.32-.24,2.32-.24A12.66,12.66,0,0,0,35.56,47.35Z"/><path class="cls-11" d="M32.06,36.37c0,2.26-3.34,4.5-7.26,4.59h-.27l-.94,0c-4.76-.22-5.43-2.15-5.43-4.33S16.77,32.45,25,32.45c1.24,0,2.26,0,3.12.11a9.44,9.44,0,0,1,2.55.48C32.49,33.7,32.06,34.89,32.06,36.37Z"/><path class="cls-11" d="M51.61,36.62c0,2.32-.76,4.35-6.37,4.35-.24,0-.48,0-.7,0a8.24,8.24,0,0,1-1.24-.15c-3.16-.58-5.6-2.5-5.6-4.42,0-2.3-1-3.92,7.08-3.92,1.2,0,2.2,0,3,.11,2.2.2,3.18.65,3.59,1.27S51.61,35.54,51.61,36.62Z"/><path class="cls-12" d="M27.21,32.87a27.78,27.78,0,0,0-5,0c-2.46.23-4.19.39-3.95,3,.34,3.79,2.49,4.39,3.22,4.55,1.67.37,8.57.91,10-3.75a3.77,3.77,0,0,0,0-2.56C31.2,33.4,28.41,33,27.21,32.87Z"/><path class="cls-13" d="M33.56,33.17c-.49-.07-1.65-.36-2.84-.59-1-.21-2.11-.35-2.7-.41a58.88,58.88,0,0,0-7.32-.1,25.22,25.22,0,0,0-4.83.56c-.07.11-.23,1.53,0,1.68s1,.46,1.15,1,.92,4.13,2.58,5.12c2.73,1.63,11.89,1.7,13.47-4.24.22-.81.51-1.29,1-1.42a3.62,3.62,0,0,1,.88-.1V33.26A6.14,6.14,0,0,1,33.56,33.17Zm-1.93,3.51c-1.43,4.66-8.33,4.12-10,3.75-.74-.16-2.88-.76-3.23-4.55-.24-2.63,1.5-2.79,4-3a27.75,27.75,0,0,1,5,0c1.2.11,4,.53,4.28,1.25A3.83,3.83,0,0,1,31.63,36.68Z"/><path class="cls-12" d="M42.47,32.87a27.88,27.88,0,0,1,5,0c2.45.23,4.18.39,3.94,3-.34,3.79-2.49,4.39-3.22,4.55-1.67.37-8.57.91-10-3.75a3.83,3.83,0,0,1,0-2.56C38.48,33.4,41.27,33,42.47,32.87Z"/><path class="cls-13" d="M34.77,33.26v1.37a3.77,3.77,0,0,1,.89.1c.49.13.77.61,1,1.42C38.23,42.09,47.4,42,50.13,40.39c1.65-1,2.39-4.61,2.58-5.12s.94-.8,1.15-1,.06-1.57,0-1.68A24.93,24.93,0,0,0,49,32.07a58.92,58.92,0,0,0-7.32.1c-.58.06-1.65.2-2.7.41s-2.34.52-2.83.59A6.22,6.22,0,0,1,34.77,33.26Zm3.36.86c.28-.72,3.07-1.14,4.27-1.25a27.88,27.88,0,0,1,5,0c2.45.23,4.18.39,3.94,3-.34,3.79-2.48,4.39-3.22,4.55-1.67.37-8.57.91-10-3.75A3.77,3.77,0,0,1,38.13,34.12Z"/><path class="cls-14" d="M55.06,19.81c-.24-.78-.5-1.5-.76-2.19v-.3c0-2.94-2.4-6.74-6.21-10.43S41.87,4,38.71,4.06l0,.06C37.3,3.8,29.84,2.21,25.4,4c-4.91,2-8.92,5.32-11.76,14.33s-.51,16.4,0,19.56c1.74,10,10.1,16.29,10.1,16.29a22.21,22.21,0,0,1-3.05-5.32A31.1,31.1,0,0,1,18.9,38c0-5.21,4.77-11.67,4.77-11.67A25.43,25.43,0,0,0,21,34.85a13.13,13.13,0,0,0,1.87,7.89S20,37,24.65,32.64a31.86,31.86,0,0,0,3.73-4.12h0a7,7,0,0,0,1.18,6.28s0-4.37,2.39-5.86c5.93-3.62,6.87-5.12,7.71-8a7.12,7.12,0,0,0,.22-1.12l5.42,8.44c.26.36.67,1,1.15,1.79,1.41,2.33,3.35,6.16,3.35,9.5A31.14,31.14,0,0,1,48,50.33a21.85,21.85,0,0,1-3.06,5.32S53.28,49.34,55,39.36C55.57,36.21,57.9,28.82,55.06,19.81Z"/><path class="cls-15" d="M57.58,15.06h-45a7.13,7.13,0,0,1,0-1.33C14.18,7.49,20.19,0,34.45,0,48.28,0,55.61,7.32,57.58,13.73A5.72,5.72,0,0,1,57.58,15.06Z"/><path class="cls-16" d="M57.58,23.11h-45v-8s7.63-5.58,21.89-5.58a48.6,48.6,0,0,1,23.13,5.58Z"/><path class="cls-15" d="M33.84,25.79C21.31,26.19.31,32.12.31,32.12S13.3,16.05,33.45,16C51.33,16,68.89,30.5,68.89,30.5S42.08,25.53,33.84,25.79Z"/><path class="cls-15" d="M48.62,60.75c-2.43-1.15-5.32-1.88-5.16-1.54,1.57,2.21,1,4,.73,7.22l0,.28a6,6,0,0,0-9.28,3.39h-.41a6,6,0,0,0-9.41-3.29l0-.37c-.27-3.17-.85-5,.72-7.22.16-.34-2.72.39-5.15,1.54a25.32,25.32,0,0,0-4.41,2.74,4.49,4.49,0,0,1,2.56,2.84,23.34,23.34,0,0,1,.74,5c.26,3.78,2.17,5.48,2.06,6.75H47.67c-.12-1.27,1.79-3,2-6.75a23.34,23.34,0,0,1,.74-5A4.49,4.49,0,0,1,53,63.49,25.8,25.8,0,0,0,48.62,60.75Z"/></g></g></svg>