<svg xmlns="http://www.w3.org/2000/svg" viewBox="0 0 45.99 80.15"><defs><style>.cls-1{fill:#dcc5a1;}.cls-2{fill:#edd9b4;}.cls-3,.cls-7{fill:#bc9f82;}.cls-3{opacity:0.7;}.cls-4{fill:#895a59;}.cls-5{fill:#4b3118;}.cls-6{fill:#ccad8b;}.cls-8{fill:#d9bf9f;}.cls-9{fill:#b47070;}.cls-10{fill:#c17874;}.cls-11{fill:#fdfdfd;}</style></defs><title>Ativo 63avatar</title><g id="Camada_2" data-name="Camada 2"><g id="Objects"><path class="cls-1" d="M23,46.89V80H4.9l-.44-.19c0-10.8,4.09-15.53,7.3-17.57a10.07,10.07,0,0,1,3.76-1.52h.09a1.14,1.14,0,0,0,.24,0c.91-.25,1.53-1.59,2-3.5.08-.33.14-.68.19-1,.1-.61.19-1.25.25-1.92,0-.41.08-.81.12-1.23.16-2,.21-4.24.21-6.34C18.57,46.65,21,46.89,23,46.89Z"/><path class="cls-2" d="M41.54,79.82l-.43.19H23V46.89h0c2,0,4.41-.24,4.41-.24,0,2.09,0,4.27.21,6.29l.12,1.2c.07.7.15,1.35.25,2v0c0,.27.09.52.14.78.38,1.85.94,3.22,1.75,3.67a.46.46,0,0,0,.19.08,1.1,1.1,0,0,0,.41.07,9.25,9.25,0,0,1,2.68.91C36.44,63.28,41.54,67.77,41.54,79.82Z"/><path class="cls-3" d="M28,56.12h0a5.82,5.82,0,0,1-5,2.72h0a6.32,6.32,0,0,1-5-2.7c.11-.61.19-1.25.26-1.92,0-.41.07-.81.11-1.23a19.86,19.86,0,0,0,4.56.6H23A18.53,18.53,0,0,0,27.62,53c.05.41.08.81.12,1.2C27.82,54.85,27.89,55.5,28,56.12Z"/><path class="cls-4" d="M41.54,79.82l-.43.19H4.81l-.44-.19c0-10.8,4.48-16.49,8.4-18.18,2.94,3,6.41,7.6,7.35,8.47,1.58,1.49,2.55,4,3.55,3.38S30.25,65,33.15,61.64C36.42,63.28,41.54,67.77,41.54,79.82Z"/><path class="cls-5" d="M14.93,61.53c.36.74,4.34,5.12,5.43,6.41S22,69,22.72,71.53,23,80,23,80s-.35-5.07-1.8-6.36-9.36-5.25-9.36-5.25l3-1-8-3.2a31.42,31.42,0,0,1,4.83-2.76c2.32-1,4.25-1.6,4.25-1.6Z"/><path class="cls-5" d="M31.09,61.69c-.36.75-4.35,5.13-5.43,6.42S24,69.21,23.3,71.7s-.24,8.45-.24,8.45.35-5.08,1.8-6.37,9.36-5.24,9.36-5.24l-3-1,8-3.19a32.58,32.58,0,0,0-4.83-2.77c-2.32-1-4.25-1.59-4.25-1.59Z"/><path class="cls-6" d="M23,11.32C4.09,11.28,4,26.38,4.82,36.23,3.53,33.91-.29,34.77,0,38.47s5.7,5.15,5.63,4.76c1.54,8,10.43,12.48,17.3,13.12h.15v-45Z"/><path class="cls-7" d="M1,36.91a1.87,1.87,0,0,1,2.76-.5,1.47,1.47,0,0,1,.45,1.65c-.14.47-.66.51-.54,1.23a1.31,1.31,0,0,0,.77,1.05,1.73,1.73,0,0,1,.64.67,1.65,1.65,0,0,1,.09,1c-.14.59-1,.12-1.65-.14a11.35,11.35,0,0,1-2-1.52A3.11,3.11,0,0,1,1,36.91Z"/><path class="cls-8" d="M23,11.32c18.86,0,19,15.06,18.13,24.91,1.29-2.32,5.12-1.46,4.81,2.24s-5.71,5.15-5.63,4.76C38.8,51.25,29.92,55.71,23,56.35H22.9v-45Z"/><path class="cls-7" d="M45.16,36.91a1.87,1.87,0,0,0-2.76-.5A1.47,1.47,0,0,0,42,38.06c.13.47.66.51.53,1.23a1.27,1.27,0,0,1-.76,1.05,1.75,1.75,0,0,0-.65.67A1.72,1.72,0,0,0,41,42c.14.59,1,.12,1.65-.14a11.73,11.73,0,0,0,2-1.52A3.13,3.13,0,0,0,45.16,36.91Z"/><path class="cls-1" d="M22.85,15.59c-6.3,0-10.9,1.73-13.69,5.15C5.26,25.5,5.41,32.79,6.85,38c.43,1.6.66,5.91,1,7.49,1.36,7.08,9.61,10.85,15,10.85H23V15.59Z"/><path class="cls-2" d="M36.52,20.74c-2.77-3.39-7.33-5.12-13.52-5.15V56.35c6.2-.07,13.61-4.19,14.89-10.84.3-1.58.52-5.89,1-7.49C40.28,32.81,40.43,25.53,36.52,20.74Z"/><path class="cls-9" d="M26.17,50A5.05,5.05,0,0,1,23,51.47,4.78,4.78,0,0,1,19.89,50a20.5,20.5,0,0,1,3.1-.23A25.63,25.63,0,0,1,26.17,50Z"/><path class="cls-10" d="M23.89,49.26A.82.82,0,0,0,23,50a.83.83,0,0,0-.9-.69,12.66,12.66,0,0,0-2.28.7s1.74.18,2.24.18.93.2.94-.17c0,.37.36.23.86.23S26.17,50,26.17,50A12.66,12.66,0,0,0,23.89,49.26Z"/><path class="cls-11" d="M37.74,6.19A1,1,0,0,0,36.8,7H4.06a1,1,0,1,0,0,.29H36.8a1,1,0,0,0,.94.81,1,1,0,1,0,0-1.91Z"/><path class="cls-11" d="M42.8,23.13a26.51,26.51,0,0,0-1.74-6.86c-1.4-3-3.88-4.82-7.54-6.54a1.23,1.23,0,0,0,0-.2C33.54,4.27,28.84,0,23.05,0c-5.48,0-10,3.83-10.43,8.71-7.1,1.89-9.82,10-10.39,13.64,0,.27-.07.52-.11.78-.76,5.54,0,7.82.59,9.06a8.15,8.15,0,0,1,.67,1.31,13.89,13.89,0,0,0,1.35,3.14,4.24,4.24,0,0,1,1.32,1.8c.61,1.56.84,1.3.84,1.3S6,34.22,6,32.19a1.67,1.67,0,0,1,0-.3c0-1,.46-5.93,3.75-8.76.16-.14.32-.28.5-.41,2.77-2.06,7.5-1.19,8-1.19.1,0,1.18.82,2.72,1.6a11.18,11.18,0,0,0,5.32,1.37c11.81-.59,14.3,5.71,14.56,7,0,.22,0,.44,0,.67-.14,1.63-.32,3.53-.44,4.8-.22,1.51-.41,2.75-.41,2.75s.24.26.84-1.3a4.28,4.28,0,0,1,1.1-1.62,17,17,0,0,1,1-3.32,5.31,5.31,0,0,0,.28-1.31,26,26,0,0,0,.22-3A49.39,49.39,0,0,0,42.8,23.13Z"/></g></g></svg>