<svg xmlns="http://www.w3.org/2000/svg" viewBox="0 0 47.56 77.37"><defs><style>.cls-1{fill:#dcc5a1;}.cls-2{fill:#edd9b4;}.cls-3,.cls-5{fill:#bc9f82;}.cls-3{opacity:0.7;}.cls-4{fill:#ccad8b;}.cls-6{fill:#d9bf9f;}.cls-7{fill:#fff;}.cls-8{fill:#82acc6;}</style></defs><title>Ativo 50avatar</title><g id="Camada_2" data-name="Camada 2"><g id="Objects"><path class="cls-1" d="M24.11,44.07V77.19H6.05L5.6,77c0-17.76,11.06-19.09,11.06-19.09h0c1.09,0,1.78-1.43,2.25-3.56.08-.33.14-.67.2-1,.09-.61.18-1.25.25-1.92,0-.41.07-.81.11-1.23.16-2,.22-4.24.22-6.34C19.72,43.83,22.15,44.07,24.11,44.07Z"/><path class="cls-2" d="M42.69,76.91V77l-.24.1h0l-.17.09H24.11V44.07h0c2,0,4.41-.24,4.41-.24,0,2.09.05,4.27.21,6.29l.12,1.2c.08.7.15,1.35.25,2h0c0,.28.09.53.14.79.47,2.28,1.2,3.82,2.35,3.82a9.78,9.78,0,0,1,3.63,1.44C38.48,61.34,42.66,66,42.69,76.91Z"/><path class="cls-3" d="M29.14,53.29v0a5.84,5.84,0,0,1-5,2.71h0a6.31,6.31,0,0,1-5-2.7c.1-.61.19-1.25.25-1.92,0-.41.08-.81.11-1.22a19.88,19.88,0,0,0,4.56.58h.06a18.21,18.21,0,0,0,4.66-.64c0,.41.08.81.11,1.2C29,52,29,52.67,29.14,53.29Z"/><path class="cls-4" d="M24.17,6.09C5,6.09,4.92,22.06,5.77,32.51,4.46,30,.58,30.79.89,34.7c.31,3.75,5.8,5.69,5.72,5.26,1.57,8.6,10.57,13.57,17.56,13.57h.15V6.1Z"/><path class="cls-5" d="M2.12,33.05a1.81,1.81,0,0,1,2.76-.53,1.56,1.56,0,0,1,.45,1.73c-.13.5-.66.54-.53,1.3a1.35,1.35,0,0,0,.76,1.11,1.77,1.77,0,0,1,.65.7,1.92,1.92,0,0,1,.08,1.08c-.15.61-1,.12-1.65-.15a11.77,11.77,0,0,1-2-1.6A3.43,3.43,0,0,1,2.12,33.05Z"/><path class="cls-6" d="M24.26,6.09c19.14,0,19.25,16,18.4,26.42C44,30,47.85,30.79,47.54,34.7c-.31,3.75-5.8,5.69-5.72,5.26-1.57,8.6-10.57,13.57-17.56,13.57h-.14V6.1Z"/><path class="cls-5" d="M46.31,33.05a1.81,1.81,0,0,0-2.76-.53,1.58,1.58,0,0,0-.45,1.73c.14.5.66.54.54,1.3a1.33,1.33,0,0,1-.77,1.11,1.7,1.7,0,0,0-.65.7,2,2,0,0,0-.08,1.08c.14.61,1,.12,1.65-.15a11.39,11.39,0,0,0,2-1.6A3.41,3.41,0,0,0,46.31,33.05Z"/><path class="cls-1" d="M24,10.59c-6.29,0-10.91,1.82-13.69,5.42C6.41,21,6.56,28.71,8,34.22c.44,1.68.66,6.22,1,7.89,1.36,7.45,9.61,11.42,15,11.42h.15V10.6Z"/><path class="cls-2" d="M37.67,16c-2.77-3.58-7.32-5.39-13.52-5.42V53.52c6.2-.07,13.62-4.41,14.89-11.41.3-1.67.53-6.21,1-7.89C41.44,28.73,41.58,21.06,37.67,16Z"/><path class="cls-7" d="M42.05,7.84a11.26,11.26,0,0,0-4.3-2.39S32.44,2.8,28.39.91s-10.62-.38-14,.5S6.87,7.13,5.6,9.78,1.2,18.18.18,22.34s2.39,8.19,4.51,9.05c1.38.56,1.47,3.79,1.47,3.79l1.51.67a11.76,11.76,0,0,1-.79-4.54c.09-1.52-.16-6.08-.16-6.08S13.21,24,18,22.66c-1.61,2-2.94,3.31-2.94,3.31a17.56,17.56,0,0,0,6.8-4.3,54.33,54.33,0,0,1-5.17,6.23,18.27,18.27,0,0,0,8.53-6.29A50.32,50.32,0,0,1,18.66,30c9-3.06,12.21-12.7,12.62-14.08l.08-.07a15,15,0,0,1,5.4,2.68c2.39,1.78,5.34,4.22,5.34,9.53,0,1.77-.8,6.92-.8,6.92l.8-.56a4,4,0,0,1,2.26-3.25c1.82-1,2.27-4.4,2.27-5.8C46.63,16,44,9.61,42.05,7.84Z"/><path class="cls-8" d="M32.52,57.28a1.28,1.28,0,0,1-.72-.43A15,15,0,0,0,30.44,55l-.13-.13L30.11,56,24.2,59l-5.82-2.81-.29-1.34L18,55c-.78.9-2.13,2.39-2.12,2.33C13.7,57.78,4.8,60.84,4.8,77.17l.46.2h37.9l.46-.2C43.62,60.84,34.71,57.78,32.52,57.28Z"/></g></g></svg>