<svg xmlns="http://www.w3.org/2000/svg" viewBox="0 0 50.88 77.37"><defs><style>.cls-1{fill:#444e53;}.cls-2{fill:#dcc5a1;}.cls-3{fill:#edd9b4;}.cls-4,.cls-9{fill:#bc9f82;}.cls-4{opacity:0.7;}.cls-5{fill:#7fa5ad;}.cls-6{fill:#2b2a23;}.cls-7{fill:#fdfbf8;}.cls-8{fill:#ccad8b;}.cls-10{fill:#d9bf9f;}.cls-11{fill:#381c16;}.cls-12{fill:#611413;}</style></defs><title>Ativo 65avatar</title><g id="Camada_2" data-name="Camada 2"><g id="Objects"><path class="cls-1" d="M34.36,15.81c-3.13,0-6,1.74-8.19,4.59-2.3-3.67-5.55-6-9.16-6-7,0-12.61,8.56-12.61,19.11S10.05,52.63,17,52.63c3.13,0,6-1.74,8.2-4.6,2.3,3.68,5.54,6,9.15,6C41.33,54,47,45.46,47,34.91S41.33,15.81,34.36,15.81Z"/><path class="cls-2" d="M25.41,40.71V77.34h-20l-.49-.21C4.93,57.48,17.17,56,17.17,56h.1a1.19,1.19,0,0,0,.26,0c1-.28,1.7-1.76,2.16-3.89,0-.16.07-.33.1-.5s.09-.42.11-.64c.12-.67.21-1.38.28-2.12,0-.45.08-.89.13-1.36.18-2.25.23-4.69.23-7C20.54,40.44,23.24,40.71,25.41,40.71Z"/><path class="cls-3" d="M46,77.13s-.19.07-.48.21H25.41V40.71h0c2.17,0,4.88-.27,4.88-.27,0,2.3.05,4.72.23,7,.05.45.09.9.13,1.33.08.77.17,1.49.28,2.18v0c0,.15,0,.29.07.43l.09.43c.42,2,1,3.56,1.93,4.07l.21.08a1.12,1.12,0,0,0,.45.08S46,57.48,46,77.13Z"/><path class="cls-4" d="M31,50.9v0a6.44,6.44,0,0,1-5.53,3h0a7,7,0,0,1-5.5-3c.11-.67.2-1.38.27-2.12,0-.45.09-.89.13-1.36a22.18,22.18,0,0,0,5.05.66h0a21.08,21.08,0,0,0,5.16-.71c0,.44.09.89.13,1.32C30.77,49.49,30.85,50.22,31,50.9Z"/><path class="cls-5" d="M46,77.16a4.11,4.11,0,0,0-.48.21H5.46c-.32-.15-.49-.21-.49-.21a31.7,31.7,0,0,1,1.7-11c4.49-3.09,11.72,2.26,18.78,2.6,4,.19,7.73-4.32,15.6-1,1.5.63,2.71-1.2,3.72-.19A33.91,33.91,0,0,1,46,77.16Z"/><path class="cls-6" d="M46.22,77.13l-.48.21H5.43l-.5-.21c0-19.91,12.32-21.39,12.32-21.39h.1c.08,0,.52.1.6.07,1-.28-1.11-.5-1.62,3.47-.44,3.32,1.88,6.29-.3,7.38.67.77,6.13,5.46,8,5.39h2.82c1.9.07,7.55-4.74,8.2-5.59-2.19-1.07.4-4.11-.31-7.38s-1.45-3.31-1.38-3.29.37,0,.53,0C33.91,55.74,46.22,57.22,46.22,77.13Z"/><path class="cls-7" d="M33.4,55.65c-.5.85-1.64,1.71-4.09,2a38.15,38.15,0,0,1-3.85.23c-4.89,0-7-1.18-7.77-2.26.88-.33,1.5-1.59,1.93-3.38,0-.14.09-.3.12-.46s0-.17.05-.25c.23.43.89,1.15,2.78,1.41h0a22.51,22.51,0,0,0,2.86.21A10.71,10.71,0,0,0,29,52.61h0a3.26,3.26,0,0,0,2-1.44l.1.07a2.4,2.4,0,0,1,0,.24c.42,2.05,1,3.56,1.94,4.06a1.89,1.89,0,0,0,.21.09Z"/><path class="cls-8" d="M25.39,1.34C4.52,1.3,4.41,18,5.33,28.9,3.9,26.34-.33,27.29,0,31.38c.33,3.92,6.31,5.69,6.23,5.26C8,45.52,17.79,50.45,25.39,51.15h.16V1.34Z"/><path class="cls-9" d="M1.07,29.65a2.07,2.07,0,0,1,3.06-.55,1.6,1.6,0,0,1,.49,1.82c-.15.52-.73.57-.59,1.36a1.42,1.42,0,0,0,.85,1.16c.24.21.56.36.71.74a1.86,1.86,0,0,1,.09,1.13c-.15.65-1.16.13-1.82-.15a12.45,12.45,0,0,1-2.19-1.69A3.43,3.43,0,0,1,1.07,29.65Z"/><path class="cls-10" d="M25.49,1.34c20.86,0,21,16.66,20.05,27.56,1.43-2.56,5.66-1.61,5.32,2.48-.34,3.92-6.31,5.69-6.23,5.26-1.71,8.88-11.54,13.81-19.14,14.51h-.16V1.34Z"/><path class="cls-9" d="M50,29.65a2.07,2.07,0,0,0-3.06-.55,1.62,1.62,0,0,0-.5,1.82c.15.52.74.57.6,1.36a1.42,1.42,0,0,1-.85,1.16c-.25.21-.56.36-.72.74a1.86,1.86,0,0,0-.09,1.13c.16.65,1.16.13,1.83-.15a12.39,12.39,0,0,0,2.18-1.69A3.44,3.44,0,0,0,50,29.65Z"/><path class="cls-2" d="M25.28,6.06c-7,0-12.07,1.92-15.16,5.7C5.82,17,6,25.09,7.57,30.88c.49,1.77.73,6.54,1.07,8.29,1.51,7.82,10.63,12,16.64,12h.16V6.07Z"/><path class="cls-3" d="M40.4,11.77c-3.07-3.76-8.1-5.67-15-5.7V51.15c6.86-.07,15.06-4.63,16.47-12,.33-1.75.58-6.52,1.07-8.29C44.57,25.11,44.72,17.06,40.4,11.77Z"/><path class="cls-11" d="M28.94,44.08a5.54,5.54,0,0,1-3.51,1.68A5.27,5.27,0,0,1,22,44.12a23,23,0,0,1,3.43-.25A29.53,29.53,0,0,1,28.94,44.08Z"/><path class="cls-12" d="M26.43,43.31a.91.91,0,0,0-1,.76.91.91,0,0,0-1-.76,14.27,14.27,0,0,0-2.53.77s1.93.21,2.48.21,1,.21,1-.19c0,.4.41.25.95.25s2.56-.27,2.56-.27A14,14,0,0,0,26.43,43.31Z"/><path class="cls-1" d="M46.44,15.6c-.25-.72-.51-1.4-.78-2v-.28c0-2.75-2.48-6.31-6.42-9.77S32.82.75,29.56.85l0,.06C28.1.61,20.4-.89,15.82.77c-5.07,1.83-9.21,5-12.14,13.42s-.52,15.37,0,18.32c1.8,9.35,10.43,15.26,10.43,15.26a20.45,20.45,0,0,1-3.16-5A26.87,26.87,0,0,1,9.11,32.66C9.11,27.77,14,21.72,14,21.72a22.35,22.35,0,0,0-2.71,8,11.5,11.5,0,0,0,1.92,7.4s-3-5.42,1.81-9.47a32.46,32.46,0,0,0,3.85-3.85h0c-1.21,3.2,1.22,5.88,1.22,5.88s0-4.1,2.47-5.49c6.12-3.4,7.1-4.8,8-7.53a6.67,6.67,0,0,0,.23-1.05l5.59,7.9c.27.34.7.93,1.19,1.68C39,27.35,41,30.94,41,34.07A26.87,26.87,0,0,1,39.13,44.2a20.56,20.56,0,0,1-3.15,5S44.6,43.27,46.4,33.92C47,31,49.37,24.05,46.44,15.6Z"/></g></g></svg>