<svg xmlns="http://www.w3.org/2000/svg" viewBox="0 0 51.96 82.66"><defs><style>.cls-1{fill:#fff;}.cls-2{fill:#dcc5a1;}.cls-3{fill:#edd9b4;}.cls-4,.cls-8{fill:#bc9f82;}.cls-4{opacity:0.7;}.cls-5{fill:#ecedef;}.cls-6{fill:#895a59;}.cls-7{fill:#ccad8b;}.cls-9{fill:#d9bf9f;}.cls-10{fill:#3b2f18;}.cls-11{fill:#40331b;}</style></defs><title>Ativo 21avatar</title><g id="Camada_2" data-name="Camada 2"><g id="Objects"><path class="cls-1" d="M16.07,67.88l-.24-.24C15.83,67.72,15.93,67.81,16.07,67.88Z"/><path class="cls-1" d="M15.83,67.6v0s0,0,0,0Z"/><path class="cls-2" d="M26,46V82.66h-20l-.49-.2c0-13.64,5.88-18.54,9.49-20.26a9.91,9.91,0,0,1,2.75-.9c1.24,0,2-1.56,2.54-3.94a9.43,9.43,0,0,0,.21-1.15c.12-.67.21-1.38.29-2.13,0-.45.08-.89.12-1.35.18-2.26.24-4.71.24-7C21.08,45.7,23.76,46,26,46Z"/><path class="cls-3" d="M46.54,82.46l-.48.2H26V46h0c2.18,0,4.89-.27,4.89-.27,0,2.31.06,4.73.24,7,0,.45.08.9.13,1.33.08.77.16,1.49.28,2.18v0a7.89,7.89,0,0,0,.15.87c.51,2.52,1.33,4.23,2.6,4.23a11,11,0,0,1,3.42,1.24C41.32,64.52,46.54,69.6,46.54,82.46Z"/><path class="cls-4" d="M31.52,58.35h0a6.48,6.48,0,0,1-5.55,3h0a6.94,6.94,0,0,1-5.52-3c.11-.67.21-1.38.28-2.12l.12-1.36a22.35,22.35,0,0,0,5.06.66H26a20.6,20.6,0,0,0,5.16-.72c.05.45.09.9.13,1.33C31.33,56.93,31.41,57.66,31.52,58.35Z"/><path class="cls-5" d="M18.54,63.51s7.43,5.53,15,0L25.71,74.72Z"/><path class="cls-6" d="M46.57,82.45l-.48.21H6l-.49-.21C5.46,63.94,16,61.26,17.53,61c.82.93,1.95,2.09,3.1,3.23,2.47,2.42,5.09,4.8,5.09,4.8s2.93-2.47,5.48-4.68a0,0,0,0,1,0,0c1-.88,2-1.72,2.67-2.36.13-.12.25-.22.35-.33.27-.25.48-.45.59-.57h0a8.47,8.47,0,0,1,1.56.52l.35.15a13.42,13.42,0,0,1,2.42,1.43l.35.28C42.86,66,46.57,71.44,46.57,82.45Z"/><path class="cls-7" d="M25.82,3.86C4.61,3.86,4.48,21.56,5.43,33.14,4,30.39-.33,31.24,0,35.56c.34,4.17,6.42,6.32,6.34,5.84,1.74,9.53,11.72,15,19.46,15H26V3.86Z"/><path class="cls-8" d="M1.46,33.74a2,2,0,0,1,3.06-.58A1.71,1.71,0,0,1,5,35.07c-.15.56-.74.6-.59,1.45a1.47,1.47,0,0,0,.85,1.22c.24.22.56.38.71.78a2.06,2.06,0,0,1,.1,1.19c-.16.69-1.16.15-1.83-.16a13.44,13.44,0,0,1-2.2-1.77A3.8,3.8,0,0,1,1.46,33.74Z"/><path class="cls-9" d="M26.14,3.86c21.21,0,21.34,17.7,20.39,29.28,1.46-2.75,5.76-1.9,5.41,2.42-.34,4.17-6.42,6.32-6.34,5.84-1.74,9.53-11.71,15-19.46,15H26V3.86Z"/><path class="cls-8" d="M50.58,33.74a2,2,0,0,0-3.06-.59A1.75,1.75,0,0,0,47,35.07c.14.56.73.6.59,1.44a1.5,1.5,0,0,1-.85,1.23,2,2,0,0,0-.72.78A2.05,2.05,0,0,0,46,39.71c.16.69,1.16.14,1.83-.16A12.56,12.56,0,0,0,50,37.77,3.76,3.76,0,0,0,50.58,33.74Z"/><path class="cls-2" d="M25.85,8.85c-7,0-12.09,2-15.18,6C6.36,20.42,6.52,28.93,8.11,35c.49,1.86.74,6.89,1.08,8.74C10.69,52,19.83,56.43,25.85,56.43H26V8.85Z"/><path class="cls-3" d="M41,14.86c-3.07-4-8.12-6-15-6V56.43c6.88-.08,15.1-4.9,16.51-12.65.33-1.85.58-6.88,1.07-8.74C45.14,28.94,45.3,20.45,41,14.86Z"/><path class="cls-10" d="M41.78,6.05c-4.7-3.89-11-6.49-15.24-6-4.28-.5-10.54,2.1-15.24,6C3.64,12.41,5.41,31.28,5.41,31.28a2.1,2.1,0,0,1,2,.47,7.76,7.76,0,0,1,1.82,3.74,3,3,0,0,0,1.36,1.94s-1.83-9.07.06-13.1c1.16-2.5,2.17-5.23,5.68-7.86,2.3-1.72,6.37-2.2,10.26-2.14s8,.42,10.25,2.14c3.51,2.63,4.52,5.36,5.69,7.86,1.88,4,.05,13.1.05,13.1a3,3,0,0,0,1.36-1.94,7.78,7.78,0,0,1,1.83-3.74,2.08,2.08,0,0,1,1.94-.47s1.78-18.87-5.88-25.23Z"/><path class="cls-11" d="M14.87,14.74a11.17,11.17,0,0,1,7.92-6.8c1.56-.41,6.47-.9,8.45,0a6.19,6.19,0,0,1,3.52,3.77c.59,1.64.34,6.77-7.32,7.47-2.92.27-7.87,1.83-8.73,3.54-1.41,2.83,2.16,5.16,2.16,5.16s-4.85-2.06-6-5.44a10.45,10.45,0,0,1,0-7.7Z"/><path class="cls-11" d="M35.14,52.35A6.5,6.5,0,0,0,33.7,48,9.28,9.28,0,0,0,26,44.47a9.55,9.55,0,0,0-7.33,3.07,5.88,5.88,0,0,0-2,4.81,7.28,7.28,0,0,0,.78,3.36,2.4,2.4,0,0,0,.72,1,2.9,2.9,0,0,0,1.09.74A15.22,15.22,0,0,0,26,58.83c4.78,0,8.66-1.63,8.66-3.64,0,0,0-.06,0-.09A7.66,7.66,0,0,0,35.14,52.35Zm-2.73,2.94a11.47,11.47,0,0,1-2.19.73v-.08c0-.81-1.93-1.46-4.31-1.46s-4.33.65-4.33,1.46a.08.08,0,0,0,0,0,10.62,10.62,0,0,1-2.24-.8,8,8,0,0,1-.49-3.66,9.32,9.32,0,0,1,5.61-2.74,12.82,12.82,0,0,1,1.53-.1,12.52,12.52,0,0,1,1.52.1,9.37,9.37,0,0,1,5.4,2.53,8.79,8.79,0,0,1,.07,1A7.48,7.48,0,0,1,32.41,55.29Z"/></g></g></svg>