<svg xmlns="http://www.w3.org/2000/svg" viewBox="0 0 49.37 86.14"><defs><style>.cls-1{fill:#dcc5a1;}.cls-2{fill:#edd9b4;}.cls-3,.cls-7{fill:#bc9f82;}.cls-3{opacity:0.7;}.cls-4{fill:#5a4f51;}.cls-5{fill:#895a59;}.cls-6{fill:#ccad8b;}.cls-8{fill:#d9bf9f;}.cls-9{fill:#b47070;}.cls-10{fill:#c17874;}.cls-11{fill:#b9c98e;}</style></defs><title>Ativo 27avatar</title><g id="Camada_2" data-name="Camada 2"><g id="Objects"><path class="cls-1" d="M24.92,54.54v31.6H7.68L7.26,86C7.26,69,17.81,67.74,17.81,67.74h.09a.87.87,0,0,0,.22,0c.87-.24,1.47-1.51,1.87-3.35.07-.31.13-.64.18-1,.1-.58.18-1.2.24-1.84,0-.38.07-.77.11-1.16.16-2,.2-4,.2-6C20.72,54.31,23.05,54.54,24.92,54.54Z"/><path class="cls-2" d="M42.65,86l-.42.18H24.92V54.54h0c1.87,0,4.21-.23,4.21-.23,0,2,0,4.07.2,6,0,.38.07.77.11,1.14.07.66.15,1.29.24,1.88h0c0,.27.08.51.13.75.36,1.77.9,3.07,1.67,3.51l.18.07a1,1,0,0,0,.39.07S42.65,69,42.65,86Z"/><path class="cls-3" d="M29.72,63.34h0a5.61,5.61,0,0,1-4.78,2.59h0a6,6,0,0,1-4.75-2.58c.09-.58.18-1.19.24-1.83,0-.39.07-.77.11-1.17a19.14,19.14,0,0,0,4.35.57h.05a18.45,18.45,0,0,0,4.45-.62c0,.39.07.77.11,1.14C29.55,62.12,29.62,62.74,29.72,63.34Z"/><path class="cls-4" d="M42.69,86a3.52,3.52,0,0,0-.41.18H7.72A4,4,0,0,0,7.3,86a27.36,27.36,0,0,1,1.46-9.45C12.64,73.87,20.65,73.9,25,78.17c0,0,6.67-5.44,13.45-2.58a10,10,0,0,1,3.22,2.15A29.15,29.15,0,0,1,42.69,86Z"/><path class="cls-5" d="M19.15,64.5c0,.43,2.32.06,1.51,6.27S12.9,76,10.91,79.27a10.63,10.63,0,0,0-1.29,6.87H6.67L7.3,84a8.05,8.05,0,0,1,.49-5.33c1.29-2.68,0-4.26.13-5.39a7.24,7.24,0,0,1,3.53-4.25c1.62-.58,1.52-.19,3.57-.68s4.35-1.63,4.35-2.91S19.15,64.5,19.15,64.5Z"/><path class="cls-5" d="M30.71,64.33c0,.43-2.32.06-1.51,6.26S37,75.78,38.94,79.1a10.69,10.69,0,0,1,1.21,7H43l-.35-2.25a8.76,8.76,0,0,0-.62-5.38c-1.3-2.67,0-4.25-.13-5.38a7.24,7.24,0,0,0-3.53-4.25c-1.62-.59-1.58-.06-3.63-.55s-4.29-1.76-4.29-3S30.71,64.33,30.71,64.33Z"/><path class="cls-6" d="M24.91,20.58c-18,0-18.1,14.37-17.3,23.77C6.37,42.14,2.72,43,3,46.49,3.31,49.87,8.47,51.4,8.39,51c1.48,7.65,10,11.9,16.52,12.51H25v-43Z"/><path class="cls-7" d="M3.92,45a1.79,1.79,0,0,1,2.64-.48A1.38,1.38,0,0,1,7,46.09c-.13.46-.63.49-.51,1.18a1.26,1.26,0,0,0,.73,1,1.57,1.57,0,0,1,.62.63,1.67,1.67,0,0,1,.08,1c-.14.56-1,.11-1.58-.14A10.69,10.69,0,0,1,4.44,48.3,3,3,0,0,1,3.92,45Z"/><path class="cls-8" d="M46.88,46.49c-.29,3.35-5.37,4.89-5.37,4.56-.87,4.46-4.11,7.76-8,9.86a22.17,22.17,0,0,1-3.94,1.67,20.62,20.62,0,0,1-4.57,1h-.18v-43H25c11.22,0,15.46,5.61,16.88,12.11a22.12,22.12,0,0,0,.39,2.38h0c.11.88.17,1.76.2,2.63a54.67,54.67,0,0,1-.22,6.64C43.53,42.14,47.18,43,46.88,46.49Z"/><path class="cls-7" d="M46.1,45a1.79,1.79,0,0,0-2.64-.48A1.38,1.38,0,0,0,43,46.09c.12.46.63.49.5,1.18a1.23,1.23,0,0,1-.73,1c-.21.17-.48.3-.61.63a1.59,1.59,0,0,0-.08,1c.14.56,1,.11,1.57-.14a10.34,10.34,0,0,0,1.89-1.45A3,3,0,0,0,46.1,45Z"/><path class="cls-1" d="M24.81,24.65c-6,0-10.41,1.66-13.07,4.91C8,34.12,8.16,41.07,9.53,46.06c.42,1.53.64,5.64.93,7.15,1.3,6.75,9.17,10.34,14.35,10.34H25V24.66Z"/><path class="cls-2" d="M37.85,29.57c-2.64-3.24-7-4.89-12.9-4.91V63.55c5.92-.06,13-4,14.21-10.34.29-1.51.5-5.62.92-7.15C41.45,41.08,41.58,34.14,37.85,29.57Z"/><path class="cls-9" d="M28,57.45a4.8,4.8,0,0,1-3,1.45,4.53,4.53,0,0,1-3-1.41,19.33,19.33,0,0,1,3-.22A25.78,25.78,0,0,1,28,57.45Z"/><path class="cls-10" d="M25.8,56.79a.79.79,0,0,0-.86.65.78.78,0,0,0-.86-.65,12.29,12.29,0,0,0-2.17.66s1.66.18,2.13.18.89.19.9-.17c0,.36.35.22.82.22S28,57.45,28,57.45A12.29,12.29,0,0,0,25.8,56.79Z"/><path class="cls-4" d="M49,21.72c-.61,1.72-1.07,2.34-3.62,4.75s-1.46,1.17-2.83,3.62a4.42,4.42,0,0,0-.59,2.6,22.12,22.12,0,0,0,.39,2.38h0a10.71,10.71,0,0,1,.16,1.24,1.93,1.93,0,0,1,.16.74,1.87,1.87,0,0,1-.12.65A3.82,3.82,0,0,1,41,39.48a14.53,14.53,0,0,1-3.83,1.71c-.55.17-1.13.33-1.75.47a42,42,0,0,1-6.66,1c-.49,0-1,.07-1.51.09-.71,0-1.43.06-2.17.06h-.3c-.72,0-1.42,0-2.12,0s-1.12-.05-1.67-.09a42.52,42.52,0,0,1-6.55-.92c-.57-.13-1.11-.27-1.63-.42l-.6-.18a14.48,14.48,0,0,1-3.53-1.58h0a4.6,4.6,0,0,1-1.27-1.13,2.23,2.23,0,0,1-.51-1.28V37c0-3,1.35-4.51,0-6.93S6.57,28.87,4,26.47s-3-3-3.61-4.76c-1.16-3.27.48-7.25.77-8.06S0,19.32,3.93,20.38a12.38,12.38,0,0,1,1.9.68,7.08,7.08,0,0,0-.19-3.69,6.27,6.27,0,0,1,.48-5.14,5.07,5.07,0,0,1,3-2.17,3.15,3.15,0,0,0-1.4,3.74c.56,1.69,1.63,2.42,2.21,3.84a10.12,10.12,0,0,1,.54,1.78,2.69,2.69,0,0,1,.36-1.63c.69-1,2.83-2.74,2.36-4.82C11.81,7.13,14.58,5.52,15,4.81l.06-.1a5.62,5.62,0,0,0-.16,4.14A4.14,4.14,0,0,0,17.15,11a3.48,3.48,0,0,0,.7-2.74C16.52,2.41,19.28.81,19.68.1l.06-.1a5.66,5.66,0,0,0-.17,4.14c1,2.17,2.74,1.91,4.23,3.47a7.72,7.72,0,0,1,.88,1.1,9.43,9.43,0,0,1,.88-1.1c1.49-1.56,3.26-1.3,4.24-3.47A5.64,5.64,0,0,0,29.64,0l.06.1c.39.71,3.15,2.32,1.82,8.16a3.49,3.49,0,0,0,.7,2.74,4.19,4.19,0,0,0,2.29-2.15,5.69,5.69,0,0,0-.17-4.14l.06.1c.39.71,3.15,2.32,1.82,8.16-.47,2.09,1.67,3.79,2.35,4.82a2.63,2.63,0,0,1,.37,1.63,9.34,9.34,0,0,1,.54-1.78c.58-1.42,1.64-2.16,2.2-3.84a3.13,3.13,0,0,0-1.4-3.74,5.11,5.11,0,0,1,3,2.17,6.23,6.23,0,0,1,.48,5.14,7.12,7.12,0,0,0-.2,3.7,11.89,11.89,0,0,1,1.91-.68c3.93-1.07,2.45-7.56,2.74-6.74S50.12,18.44,49,21.72Z"/><path class="cls-4" d="M23,41.22c0,2.22-2.8,4.93-5.32,4.93s-4.93-2-4.93-4.2,0-4.11,2.41-4.75C19.37,36.09,23,39,23,41.22Z"/><path class="cls-4" d="M26.89,41.34c0,2.23,2.8,4.93,5.32,4.93s4.93-2,4.93-4.19,0-4.12-2.41-4.76C30.53,36.21,26.89,39.11,26.89,41.34Z"/><path class="cls-11" d="M21.22,41.62a3.91,3.91,0,0,1-3.55,3.28c-1.68,0-3.28-1.31-3.28-2.79s0-2.74,1.61-3.17C18.79,38.21,21.22,40.13,21.22,41.62Z"/><path class="cls-11" d="M28.56,41.83a3.91,3.91,0,0,0,3.55,3.29c1.68,0,3.28-1.31,3.28-2.79s0-2.75-1.61-3.17C31,38.42,28.56,40.35,28.56,41.83Z"/></g></g></svg>