<svg xmlns="http://www.w3.org/2000/svg" viewBox="0 0 48.56 81.62"><defs><style>.cls-1{fill:none;}.cls-2{fill:#dcc5a1;}.cls-3{fill:#edd9b4;}.cls-4,.cls-7{fill:#bc9f82;}.cls-4{opacity:0.7;}.cls-5{fill:#463e43;}.cls-6{fill:#ccad8b;}.cls-8{fill:#d9bf9f;}.cls-9{fill:#010300;}</style></defs><title>Ativo 51avatar</title><g id="Camada_2" data-name="Camada 2"><g id="Objects"><path class="cls-1" d="M30.51,34.79a25.38,25.38,0,0,1,4.74,0c2.35.22,4,.37,3.77,2.88C38.69,41.28,36.64,41.85,36,42c-1.6.35-8.19.87-9.56-3.58a3.69,3.69,0,0,1,0-2.45C26.7,35.3,29.37,34.89,30.51,34.79Z"/><path class="cls-1" d="M15.93,34.79a25.36,25.36,0,0,0-4.74,0c-2.34.22-4,.37-3.77,2.88C7.75,41.28,9.8,41.85,10.5,42c1.6.35,8.19.87,9.55-3.58A3.57,3.57,0,0,0,20,36C19.75,35.3,17.08,34.89,15.93,34.79Z"/><path class="cls-2" d="M23.23,48.5V81.62H5.17l-.45-.19c0-17.77,11.06-19.1,11.06-19.1h0c1.09,0,1.79-1.42,2.26-3.56.07-.32.14-.67.19-1,.1-.61.19-1.25.25-1.92,0-.4.08-.81.11-1.23.17-2,.22-4.24.22-6.34C18.84,48.25,21.27,48.5,23.23,48.5Z"/><path class="cls-3" d="M41.81,81.34v.09l-.24.1h0l-.17.09H23.23V48.5h0c2,0,4.41-.25,4.41-.25,0,2.09.05,4.27.22,6.3,0,.4.08.8.11,1.2.08.69.15,1.35.25,2h0c0,.28.1.53.14.78.47,2.28,1.21,3.82,2.35,3.82a9.78,9.78,0,0,1,3.63,1.44C37.6,65.77,41.78,70.45,41.81,81.34Z"/><path class="cls-4" d="M28.27,57.72h0a5.85,5.85,0,0,1-5,2.71h0a6.3,6.3,0,0,1-5-2.7c.1-.6.19-1.25.25-1.92l.12-1.22a20.29,20.29,0,0,0,4.56.59h0a19.07,19.07,0,0,0,4.66-.64c0,.4.08.81.11,1.2C28.09,56.44,28.16,57.1,28.27,57.72Z"/><path class="cls-5" d="M39.58,69.81a15.53,15.53,0,0,0-2.36-3.62,12.59,12.59,0,0,0-2.84-2.42,44.05,44.05,0,0,1-3.29,4.14c-.3.32-.6-1.91-.87-1.7a20.14,20.14,0,0,1-1.83,1.34,25,25,0,0,1-3.47,5.8,9.09,9.09,0,0,0-1.75,4.09c-.06-.3-.12-.59-.2-.89.1-2.24.15-4.43.15-4.43a2,2,0,0,0-.72,1c.08-1.86.11-3.47.11-3.47a2.22,2.22,0,0,0-.79,1.22c.06-.82.08-1.37.08-1.37a3.38,3.38,0,0,0-1.57,1c.17-1.87.24-3.48.24-3.48a3.61,3.61,0,0,0-2,1.61c-.21-.42-.4-.84-.58-1.24a4.4,4.4,0,0,1-1.38-1.85c-.54-1.68,0-1.31-.72-3.28h0a11.28,11.28,0,0,0-6.44,3.83C6.9,68.89,4.72,73.53,4.72,81.43l.45.19H41.38l.17-.09h0a1.8,1.8,0,0,1,.24-.19A26.71,26.71,0,0,0,39.58,69.81ZM13.91,75.56l-1.42,1-1.22,3.55a12.08,12.08,0,0,1-.72-2.49,21.9,21.9,0,0,0-2.9.35l1.53-2L8,75.87l0-.21c0-.86,3-4.31,3-4.31l.21,1.27,5.69-.5-5.59,2.33Zm14.8,3-.05.08A9.79,9.79,0,0,1,26.2,79l.36-.49-2.08-1.73,2.67,1.08-.54-1.27.82.14L29,76a5.76,5.76,0,0,1-.6,1.07,10.35,10.35,0,0,0,1.09.85l-1.18.16Zm7.43-4.92,0,.08a9.86,9.86,0,0,1-2.46.45l.36-.5-2.08-1.73L34.57,73,34,71.7l.82.14,1.6-.78a5.69,5.69,0,0,1-.59,1.07A10.33,10.33,0,0,0,37,73l-1.18.16Z"/><path class="cls-6" d="M23.29,10.52C4.15,10.52,4,26.48,4.9,36.93,3.58,34.45-.3,35.22,0,39.12s5.79,5.7,5.71,5.26C7.3,53,16.31,58,23.29,58h.15V10.52Z"/><path class="cls-7" d="M1.24,37.47A1.81,1.81,0,0,1,4,36.94a1.56,1.56,0,0,1,.45,1.73c-.13.51-.66.54-.53,1.31a1.34,1.34,0,0,0,.76,1.1,1.8,1.8,0,0,1,.65.71,2,2,0,0,1,.09,1.07c-.15.62-1,.13-1.66-.15a11.77,11.77,0,0,1-2-1.6A3.42,3.42,0,0,1,1.24,37.47Z"/><path class="cls-8" d="M23.38,10.52c19.14,0,19.25,16,18.4,26.41,1.31-2.48,5.2-1.71,4.88,2.19s-5.8,5.7-5.72,5.26C39.37,53,30.37,58,23.38,58h-.14V10.52Z"/><path class="cls-7" d="M45.43,37.47a1.81,1.81,0,0,0-2.76-.53,1.59,1.59,0,0,0-.45,1.73c.14.51.67.54.54,1.31a1.33,1.33,0,0,1-.77,1.1c-.22.2-.51.35-.65.71a2,2,0,0,0-.08,1.07c.15.62,1.05.13,1.65-.15a11.39,11.39,0,0,0,2-1.6A3.4,3.4,0,0,0,45.43,37.47Z"/><path class="cls-2" d="M23.12,15c-6.29,0-10.9,1.82-13.69,5.42-3.9,5-3.75,12.7-2.31,18.2.44,1.69.66,6.22,1,7.89C9.44,54,17.69,58,23.12,58h.15V15Z"/><path class="cls-3" d="M36.79,20.44C34,16.87,29.47,15.05,23.27,15V57.94c6.2-.06,13.62-4.41,14.89-11.41.3-1.67.53-6.2,1-7.89C40.56,33.15,40.7,25.49,36.79,20.44Z"/><path class="cls-9" d="M48.56,24.07c-1-8.82-9.89-11-12.05-11.37l-.23-.17a6.11,6.11,0,0,1,.32-.9c.63-1.45,3.62-.8,3.62-.8a3.52,3.52,0,0,0-4-1.1c-1.6.6-.9.1-.9.1s.85-.72-.09-3a4.5,4.5,0,0,0-2.73-2.73,5.91,5.91,0,0,1,1.36,3c0,1.4-1.27,3.76-2,3.4-1.19-.62-1.31-2.1-1.41-2.91a8.39,8.39,0,0,1,.83-2.78A26,26,0,0,1,29,6.62a2.41,2.41,0,0,0-.82.89,3.63,3.63,0,0,0,.21-1.91c-.32-1.17-.6-2.68.4-3.78S33.38,0,33.38,0A42.59,42.59,0,0,0,28,.24c-1.77.38-4.49,1.14-6.1,3.14s.23,4.94-.07,4.75-2.42-2.51-2.62-4.22a5,5,0,0,1,0-2.1S14.69,5.07,16,10.13c.44,1.69.69,1.84.69,1.84l-2.19-.9c-2.2-.89-3.23,0-5.43-.74a3.83,3.83,0,0,1-2.52-3,5.53,5.53,0,0,0-.44,2.91A3.43,3.43,0,0,0,8.13,13a10.21,10.21,0,0,0-2.35,0c-1.81.1-3,2.19-3,2.19a4.67,4.67,0,0,1,4.44-.84A2.67,2.67,0,0,1,9,15.53l-.4.38C5,17.63-.94,21.79.42,29.89a27.88,27.88,0,0,1,2.38-3.3C1.55,36.47,10.68,44.3,10.68,44.3A35.71,35.71,0,0,1,8.58,30l-.16-.13.19-.24s1.91-9.43,3.67-4.34a3.89,3.89,0,0,0,.08.51,7,7,0,0,0,2.51,4,5.67,5.67,0,0,1-.27-5.33,8.63,8.63,0,0,1,3.76-4l.07,0a9.59,9.59,0,0,1,2.57-1c0,.13-2.27,2.42,0,6.21A12.18,12.18,0,0,1,21.23,22c.38-1.11,1.67-2.57,3.14-2.51,2.75,1.41,6.54,5,3.09,13.72,0,0,6.06-4,8.56-9a9.77,9.77,0,0,0,1-3.44,21.77,21.77,0,0,1,2.45,8.81,34.79,34.79,0,0,1-2.19,14.07s13.31-11.07,6.14-23.51C46.15,22,48.56,24.07,48.56,24.07Z"/><path class="cls-9" d="M23.74,50.22c-.19,2.53-5,2.3-7.49,2.3,1.25-1.14,4.51-3.7,7-3.7A4.62,4.62,0,0,1,23.74,50.22Z"/><path class="cls-9" d="M23.39,50.22c.2,2.53,5,2.3,7.49,2.3-1.24-1.14-4.5-3.7-7-3.7A4.87,4.87,0,0,0,23.39,50.22Z"/><path class="cls-9" d="M41,44.56c-.71,1.2-2.53,1.43-3.92,3.12s-7.79,4.56-7.79,4.56-.13,2.5-3.95,2.51c-.7,0-1.2-1.06-1.76-1h0c-.56,0-1.06,1-1.75,1-3.83,0-4-2.51-4-2.51s-6.4-2.87-7.79-4.56-3.21-1.92-3.92-3.12c-.53-.91.91,4.35,1.41,5.48s1.58,4.88,2.86,6.86a8.58,8.58,0,0,0,2.31,2.54c.47.46,0-2.26,0-2.26a32.1,32.1,0,0,0,2.43,3.38,30,30,0,0,0,7.65,4c.21.07.4.11.6.16v0l.09,0h.16l.1,0v0c.2-.05.39-.09.6-.16a29.85,29.85,0,0,0,7.65-4,32.1,32.1,0,0,0,2.43-3.38s-.47,2.72,0,2.26a8.58,8.58,0,0,0,2.31-2.54c1.28-2,2.35-5.73,2.86-6.86S41.55,43.65,41,44.56Z"/></g></g></svg>