<svg xmlns="http://www.w3.org/2000/svg" xmlns:xlink="http://www.w3.org/1999/xlink" viewBox="0 0 52.65 80.2"><defs><style>.cls-1{fill:none;}.cls-2{fill:#dcc5a1;}.cls-3{fill:#edd9b4;}.cls-4{clip-path:url(#clip-path);}.cls-5{fill:#bc9f82;}.cls-6{fill:#ccad8b;}.cls-7{fill:#d9bf9f;}.cls-8{fill:#fdfdfd;}.cls-9{fill:#434142;}.cls-10{fill:#bd2c62;}.cls-11{fill:#dca88d;}.cls-12{fill:#4a72b0;}.cls-13{fill:#840e5b;}.cls-14{fill:#82acc6;}.cls-15{fill:#da9500;}.cls-16{fill:#f7eb45;}.cls-17{fill:#008f45;}.cls-18{fill:#1d1e17;}</style><clipPath id="clip-path"><rect class="cls-1" x="21.03" y="49.67" width="11.29" height="6.65"/></clipPath></defs><title>Ativo 75avatar</title><g id="Camada_2" data-name="Camada 2"><g id="Objects"><path class="cls-2" d="M26.65,42.85V80.2H6.27c-.33-.15-.52-.22-.52-.22,0-15.4,7.38-19.85,10.8-21.08a8.15,8.15,0,0,1,1.69-.46c1.25,0,2-1.58,2.58-4,.08-.37.16-.75.21-1.17.12-.68.2-1.41.29-2.16,0-.46.08-.92.13-1.39.19-2.3.24-4.79.24-7.15,0,0,2.74.28,5,.28Z"/><path class="cls-3" d="M47.6,80s-.19.07-.49.22H26.65V42.85h0c2.22,0,5-.28,5-.28,0,2.36,0,4.82.24,7.1,0,.46.09.91.13,1.33.09.8.15,1.55.27,2.24v0c.06.31.1.59.17.88.53,2.56,1.36,4.3,2.65,4.3a10.19,10.19,0,0,1,2.57.8c3.65,1.67,9.9,6.56,9.9,20.74Z"/><g class="cls-4"><path class="cls-5" d="M32.31,53.23v0a6.57,6.57,0,0,1-5.64,3.06h0a7.09,7.09,0,0,1-5.61-3c.11-.69.21-1.42.29-2.17,0-.46.08-.91.12-1.38a23,23,0,0,0,5.15.67h.05a21.35,21.35,0,0,0,5.26-.72c0,.44.09.9.13,1.34.09.79.17,1.53.28,2.22"/></g><path class="cls-6" d="M26.27,0C4.68,0,4.56,18,5.52,29.79,4,27-.34,27.86,0,32.26c.35,4.24,6.53,6.43,6.45,5.94,1.77,9.7,11.93,15.3,19.8,15.3h.16V0Z"/><path class="cls-5" d="M1.4,30.4a2,2,0,0,1,3.12-.59,1.75,1.75,0,0,1,.5,2c-.15.56-.75.61-.6,1.47a1.54,1.54,0,0,0,.86,1.25,1.82,1.82,0,0,1,.73.79,2.12,2.12,0,0,1,.1,1.21c-.17.69-1.19.15-1.86-.17A13,13,0,0,1,2,34.51,3.88,3.88,0,0,1,1.4,30.4Z"/><path class="cls-7" d="M26.38,0C48,0,48.09,18,47.13,29.79c1.48-2.79,5.86-1.93,5.5,2.47-.35,4.24-6.54,6.43-6.45,5.94-1.77,9.7-11.92,15.3-19.8,15.3h-.17V0Z"/><path class="cls-5" d="M51.25,30.4a2,2,0,0,0-3.12-.59,1.77,1.77,0,0,0-.51,2c.16.56.75.61.61,1.47a1.53,1.53,0,0,1-.87,1.25,2,2,0,0,0-.73.79,2.12,2.12,0,0,0-.09,1.21c.17.69,1.18.15,1.86-.17a12.94,12.94,0,0,0,2.23-1.8,3.86,3.86,0,0,0,.62-4.11Z"/><path class="cls-2" d="M26.51,5.07c-7.1,0-12.3,2.06-15.44,6.12-4.4,5.66-4.23,14.32-2.61,20.53.49,1.9.75,7,1.09,8.9C11.08,49,20.39,53.5,26.51,53.5h.17V5.08Z"/><path class="cls-3" d="M41.93,11.19c-3.12-4-8.26-6.08-15.25-6.11V53.49c7-.07,15.35-5,16.79-12.87.35-1.88.6-7,1.09-8.9,1.62-6.19,1.78-14.84-2.63-20.53Z"/><path class="cls-8" d="M47.57,80s-.18.07-.48.22H6.25c-.33-.15-.52-.22-.52-.22,0-15.4,7.37-19.84,10.79-21.08,2,1,5.16,2.57,6.3,3.09a8.72,8.72,0,0,0,3.83,1.3c1.54,0,3.4-1,5.63-1.66a30,30,0,0,0,5.39-2.39c3.66,1.67,9.9,6.56,9.9,20.74Z"/><path class="cls-9" d="M43,80.2H10.29c.1-1.6.2-4.49.15-8.38v-.74c0-.27,0-.55,0-.85s0-.41,0-.62c-.13-1.57-.39-3.42-.7-5.36a15.36,15.36,0,0,1,3-3.31,2.38,2.38,0,0,1,.27-.22,13.05,13.05,0,0,1,3.58-2l.51-.18a9,9,0,0,1,1.2-.28,1.52,1.52,0,0,0,1-.43,0,0,0,0,1,0,0,4.05,4.05,0,0,0,.31-.36.91.91,0,0,1,.18.37c.39,1,4.24,4,6.9,6.61,2.66-2.61,6.52-5.59,6.9-6.61a1,1,0,0,1,.19-.37,2.86,2.86,0,0,0,.3.36,0,0,0,0,1,0,0,1.54,1.54,0,0,0,1,.43,7,7,0,0,1,1.13.26l.52.18a12.83,12.83,0,0,1,3.61,2,1.94,1.94,0,0,1,.27.23,14.84,14.84,0,0,1,3,3.33c-.32,2-.59,3.89-.69,5.47q0,.32-.06.63c0,.2,0,.42,0,.6v.73c-.06,4,.06,6.91.16,8.52Z"/><polygon class="cls-10" points="18.3 66.91 18.32 66.89 18.29 66.89 16.22 63.34 14.15 59.75 12.09 63.34 10.01 66.89 9.99 66.89 10 66.91 9.99 66.93 10.01 66.93 12.09 70.48 14.15 74.07 16.22 70.48 18.29 66.93 18.32 66.93 18.3 66.91"/><polygon class="cls-11" points="26.63 66.91 26.64 66.89 26.62 66.89 24.55 63.34 22.48 59.75 20.42 63.34 18.34 66.89 18.32 66.89 18.33 66.91 18.32 66.93 18.34 66.93 20.42 70.48 22.48 74.07 24.55 70.48 26.62 66.93 26.64 66.93 26.63 66.91"/><polygon class="cls-12" points="34.96 66.91 34.97 66.89 34.95 66.89 32.87 63.34 30.81 59.75 28.75 63.34 26.67 66.89 26.65 66.89 26.65 66.91 26.65 66.93 26.67 66.93 28.75 70.48 30.81 74.07 32.87 70.48 34.95 66.93 34.97 66.93 34.96 66.91"/><polygon class="cls-13" points="43.29 66.91 43.3 66.89 43.28 66.89 41.2 63.34 39.14 59.75 37.07 63.34 35 66.89 34.97 66.89 34.99 66.91 34.97 66.93 35 66.93 37.07 70.48 39.14 74.07 41.2 70.48 43.28 66.93 43.3 66.93 43.29 66.91"/><polygon class="cls-14" points="17.71 80.2 10.59 80.2 12.09 77.66 14.15 74.06 16.22 77.66 17.71 80.2"/><polygon class="cls-15" points="26.04 80.2 18.92 80.2 20.42 77.66 22.48 74.06 24.54 77.66 26.04 80.2"/><polygon class="cls-16" points="34.37 80.2 27.25 80.2 28.75 77.66 30.81 74.06 32.87 77.66 34.37 80.2"/><polygon class="cls-17" points="42.69 80.2 35.58 80.2 37.07 77.66 39.14 74.06 41.2 77.66 42.69 80.2"/><path class="cls-18" d="M18.48,70.63l.08-.2h-.18l-2-3.46-2.22-3.86L11.91,67l-1.55,2.64c0,.21,0,.43,0,.62l1.82-3.08,1.91-3.33L16,67.15l2,3.48-2,3.49-1.92,3.32-1.9-3.32-1.78-3v.74l1.47,2.47,2.21,3.86,2.23-3.86,2-3.46.2,0Z"/><path class="cls-18" d="M22.45,78.15l-2.21-3.86-2-3.46H18l.1-.19L18,70.46l.22,0,2-3.47,2.22-3.85L24.68,67l2,3.46h.19l-.08.2.1.18H26.7l-2,3.47ZM18.5,70.63l2.05,3.48,1.9,3.32,1.92-3.32,2-3.48-2-3.48-1.91-3.32-1.91,3.32Z"/><path class="cls-18" d="M30.78,78.15l-2.21-3.86-2-3.46h-.21l.1-.19-.11-.18.22,0,2-3.47,2.22-3.85L33,67l2,3.46h.19l-.08.2.09.18H35l-2,3.47Zm-3.94-7.52,2,3.48,1.9,3.32,1.92-3.32,2-3.48-2-3.48-1.91-3.32-1.91,3.32Z"/><path class="cls-18" d="M39.11,63.82,41,67.15l1.86,3.2q0-.31.06-.63L41.33,67l-2.22-3.86L36.9,67l-2,3.46-.23,0,.11.17-.09.2h.21l2,3.46,2.21,3.86,2.22-3.86,1.53-2.61V71L41,74.12l-1.92,3.32-1.9-3.32-2-3.49,2-3.48Z"/><polygon class="cls-18" points="14.12 77.42 12.53 80.2 12.95 80.2 14.12 78.13 15.32 80.2 15.73 80.2 14.12 77.42"/><polygon class="cls-18" points="22.45 77.42 20.87 80.2 21.28 80.2 22.45 78.13 23.64 80.2 24.05 80.2 22.45 77.42"/><polygon class="cls-18" points="30.78 77.42 29.2 80.2 29.61 80.2 30.78 78.13 31.97 80.2 32.38 80.2 30.78 77.42"/><polygon class="cls-18" points="39.12 77.42 37.51 80.2 37.91 80.2 39.12 78.13 40.28 80.2 40.72 80.2 39.12 77.42"/><path class="cls-18" d="M16.51,58.7l-2.38,4.1-1.2-2.08a2.38,2.38,0,0,0-.27.22l1.47,2.57,2.89-5-.51.18Z"/><path class="cls-18" d="M40.34,60.69,39.13,62.8l-2.4-4.12-.52-.18,2.92,5,1.48-2.59a1.94,1.94,0,0,0-.27-.23Z"/><path class="cls-8" d="M34.45,57.11c-.31-.79-1.05-1.53-1.32-2.16-.45-1-.86-2-.86-2-.11,1-1.65,5.43-1.65,5.43s-4.85,5.16-4.09,5.33,4.35,1.83,5.38,3,.87,2.31,1.14.7,2.23-8.24,1.4-10.36Z"/><path class="cls-8" d="M22.69,58.42S21.15,54,21,53c0,0-.41.92-.86,2-.27.63-1,1.37-1.33,2.16C18,59.23,20,65.85,20.27,67.47s.09.5,1.12-.7a16,16,0,0,1,5.26-3c.76-.16-4-5.36-4-5.36Z"/></g></g></svg>