<svg xmlns="http://www.w3.org/2000/svg" viewBox="0 0 47.73 75.15"><defs><style>.cls-1{fill:#fdfbf8;}.cls-2{fill:#dcc5a1;}.cls-3{fill:#edd9b4;}.cls-4,.cls-6{fill:#bc9f82;}.cls-4{opacity:0.7;}.cls-5{fill:#ccad8b;}.cls-7{fill:#d9bf9f;}.cls-8{fill:#16160f;}.cls-9{fill:#0f0f0f;}.cls-10{fill:#e3b142;}</style></defs><title>Ativo 68avatar</title><g id="Camada_2" data-name="Camada 2"><g id="Objects"><path class="cls-1" d="M13.15,38.11c-.36-.27-7-4.34-7-4.34.45,2.53.79,3.57.12,5.29a6.16,6.16,0,0,1-2.37,2.68,5.1,5.1,0,0,1-2.38.95,7.28,7.28,0,0,1-1-.08,7.61,7.61,0,0,0,3.68.46,4.21,4.21,0,0,0,2.27-.64,3.28,3.28,0,0,0-.46,3.15c2,4.05-.67,5.37-.67,5.37a7.69,7.69,0,0,0,3.7-1.41.28.28,0,0,1,0,.09,2.93,2.93,0,0,0,2.18,2.25s-1-.16-.81-2c.06-.51.58-.7,1.23-1,.25,1.82,1.07,3.67-.63,4.43,0,0,2.88-.57,3.4-2.28a6.25,6.25,0,0,0,.2-.89c0,.16.1.31.13.48a6.1,6.1,0,0,1-1.24,4.27s6-.63,6-3a12.46,12.46,0,0,1,.26-2.34c.18-.54.55-3.25.55-3.25S13.51,38.38,13.15,38.11Z"/><path class="cls-1" d="M34.19,38.11c.37-.27,7-4.34,7-4.34-.45,2.53-.79,3.57-.13,5.29a6.22,6.22,0,0,0,2.37,2.68,5.1,5.1,0,0,0,2.38.95,7.28,7.28,0,0,0,1-.08,7.61,7.61,0,0,1-3.68.46,4.14,4.14,0,0,1-2.26-.64,3.31,3.31,0,0,1,.46,3.15c-2,4.05.66,5.37.66,5.37a7.69,7.69,0,0,1-3.7-1.41s0,.07,0,.09A2.93,2.93,0,0,1,36,51.88s1-.16.81-2c-.05-.51-.57-.7-1.22-1-.26,1.82-1.08,3.67.62,4.43,0,0-2.87-.57-3.4-2.28a6.18,6.18,0,0,1-.19-.89,3.79,3.79,0,0,0-.14.48,6.1,6.1,0,0,0,1.24,4.27s-6-.63-6-3a11.68,11.68,0,0,0-.26-2.34c-.18-.54-.55-3.25-.55-3.25S33.83,38.38,34.19,38.11Z"/><path class="cls-2" d="M23.14,42.18v33h-18L4.7,75c0-17.69,11-19,11-19a1.46,1.46,0,0,0,1.16-.65A7.89,7.89,0,0,0,18,52.41a9.8,9.8,0,0,0,.18-1c.11-.61.19-1.25.26-1.92,0-.4.08-.8.11-1.22.17-2,.22-4.22.22-6.3C18.76,42,21.18,42.18,23.14,42.18Z"/><path class="cls-3" d="M41.63,75s-.17.06-.43.18H23.14v-33h0c2,0,4.39-.23,4.39-.23,0,2.07.05,4.24.21,6.26.05.4.08.8.12,1.19.07.69.15,1.34.25,2h0c0,.28.09.53.14.78.37,1.8.91,3.15,1.68,3.62a1.17,1.17,0,0,0,.65.19S41.63,57.28,41.63,75Z"/><path class="cls-4" d="M28.15,51.36v0a5.85,5.85,0,0,1-5,2.7h0a6.28,6.28,0,0,1-5-2.69c.1-.61.19-1.25.25-1.91,0-.4.08-.8.11-1.22a19.79,19.79,0,0,0,4.55.59h.05a18.5,18.5,0,0,0,4.64-.64c0,.4.08.8.11,1.19C28,50.09,28,50.75,28.15,51.36Z"/><path class="cls-5" d="M23.19,4.37C4.13,4.37,4,20.27,4.87,30.67,3.57,28.2-.3,29,0,32.85s5.76,5.68,5.69,5.24c1.56,8.56,10.53,13.5,17.48,13.5h.14V4.37Z"/><path class="cls-6" d="M1.23,31.2A1.82,1.82,0,0,1,4,30.68a1.56,1.56,0,0,1,.44,1.73c-.13.5-.66.54-.53,1.29a1.33,1.33,0,0,0,.77,1.1,1.75,1.75,0,0,1,.64.7,1.9,1.9,0,0,1,.08,1.07c-.14.62-1,.13-1.64-.14a11,11,0,0,1-2-1.6A3.43,3.43,0,0,1,1.23,31.2Z"/><path class="cls-7" d="M23.28,4.37c19.06,0,19.17,15.9,18.32,26.3,1.31-2.47,5.17-1.7,4.85,2.18s-5.76,5.68-5.69,5.24c-1.56,8.56-10.53,13.5-17.48,13.5h-.14V4.37Z"/><path class="cls-6" d="M45.24,31.2a1.81,1.81,0,0,0-2.75-.52A1.58,1.58,0,0,0,42,32.41c.13.5.66.54.53,1.29a1.34,1.34,0,0,1-.76,1.1,1.75,1.75,0,0,0-.64.7,1.9,1.9,0,0,0-.09,1.07c.15.62,1.05.13,1.64-.14a11.39,11.39,0,0,0,2-1.6A3.41,3.41,0,0,0,45.24,31.2Z"/><path class="cls-2" d="M23.37,9.29c-6.28,0-10.86,1.82-13.64,5.4-3.88,5-3.73,12.64-2.3,18.13.44,1.67.66,6.19,1,7.85C9.75,48.09,18,52,23.37,52h.14V9.3Z"/><path class="cls-3" d="M37,14.7c-2.75-3.56-7.29-5.37-13.46-5.4V52c6.17-.07,13.56-4.39,14.83-11.36.29-1.66.52-6.18,1-7.85C40.72,27.35,40.86,19.71,37,14.7Z"/><path class="cls-1" d="M7,33.82c-.36,0,0-1.91-1.18-3.22s-3-5.75-3-10.16S4.35,12.08,8.43,7.9A28.94,28.94,0,0,1,18.5,1.69L15.74,4.2s1.48-2,6.82-3.66A9.68,9.68,0,0,1,29.5.68S26.72.59,25.88,1.79a4.35,4.35,0,0,1-1,.77s1.29-2.88,7.28-.49,5.89,6.67,10,8,5.51-.38,5.51-.38-1.85,3-5.14,3c-.63,0-.59,0-.59,0a27.7,27.7,0,0,1,1.47,5.67c.24,2.47-.51,4.17-.74,8.79-.2,4-1.28,1.92-2.57,4.84a6,6,0,0,0-.46,2.08c-.48.11-1.73-2.37-.83-6.7.59-2.8-2.31-13.44-9.29-11.36-4.28,1.26-5.36,3.85-8.55,1.55-2.76-2-6.61-3.11-9.49-1.55s-4.5,5.09-4,10.7C8.19,33.87,7,33.82,7,33.82Z"/><path class="cls-8" d="M17.26,53.09a21.3,21.3,0,0,0-.81,2.63A9.34,9.34,0,0,0,23.13,58s-.35-3.29-.94-3.45Z"/><path class="cls-8" d="M29,53.09a21.3,21.3,0,0,1,.81,2.63A9.35,9.35,0,0,1,23.13,58s.36-3.29.95-3.45Z"/><path class="cls-9" d="M41.63,75s-.17.06-.43.18H5.14L4.7,75c0-17.69,11-19,11-19a1.43,1.43,0,0,0,1.15-.65,24.73,24.73,0,0,1,4.26-.37l1.76,3a.51.51,0,0,0,.24-.09c.92-.43,3.94-2.34,4.27-2.34a18.91,18.91,0,0,1,2.13,0,3.7,3.7,0,0,0,1.08.43S41.63,57.28,41.63,75Z"/><path class="cls-10" d="M38.41,75l-.36.15H8.67L8.3,75c0-.43,0-.86,0-1.27a25.6,25.6,0,0,1,.24-2.64,15.39,15.39,0,0,1,.36-2,7.33,7.33,0,0,1,.19-.81c.1-.36.21-.7.32-1s.19-.54.3-.8a13,13,0,0,1,1-2,11.2,11.2,0,0,1,2.15-2.65,10.44,10.44,0,0,1,1.81-1.31l0,0h0a8.27,8.27,0,0,0,1.2,1.34c.7.69,1.7,1.59,3,2.65l.27.21a6.19,6.19,0,0,0,8.33,0l.27-.21c1.29-1.06,2.29-2,3-2.65A7.76,7.76,0,0,0,32,60.49h0l.05,0a9.73,9.73,0,0,1,1.81,1.31A11.48,11.48,0,0,1,36,64.48a13.93,13.93,0,0,1,1,2c.1.26.2.52.3.8s.22.68.33,1,.13.53.19.81c.14.61.26,1.25.35,2s.19,1.7.23,2.64C38.4,74.14,38.41,74.57,38.41,75Z"/></g></g></svg>