<svg xmlns="http://www.w3.org/2000/svg" viewBox="0 0 48.43 78.52"><defs><style>.cls-1{fill:#dcc5a1;}.cls-2{fill:#edd9b4;}.cls-3,.cls-6{fill:#bc9f82;}.cls-3{opacity:0.7;}.cls-4{fill:#37293f;}.cls-5{fill:#ccad8b;}.cls-7{fill:#d9bf9f;}.cls-8{fill:#b47070;}.cls-9{fill:#c17874;}.cls-10{fill:#fdfcf3;}.cls-11{fill:#444e53;}</style></defs><title>Ativo 45avatar</title><g id="Camada_2" data-name="Camada 2"><g id="Objects"><path class="cls-1" d="M24.19,43.65V78.52h-19l-.47-.2C4.69,66.94,9,62,12.38,59.82a10.66,10.66,0,0,1,4-1.6h.09a1.09,1.09,0,0,0,.26,0c1-.27,1.61-1.68,2-3.69.08-.35.15-.71.2-1.1.11-.64.2-1.32.27-2l.12-1.29c.18-2.14.23-4.47.23-6.67C19.56,43.4,22.12,43.65,24.19,43.65Z"/><path class="cls-2" d="M43.75,78.32l-.46.2H24.19V43.65h0c2.06,0,4.64-.25,4.64-.25,0,2.19.05,4.49.23,6.62l.12,1.26c.08.73.16,1.42.27,2.07v0c0,.29.09.56.14.82.4,2,1,3.39,1.84,3.87a.56.56,0,0,0,.2.08,1.06,1.06,0,0,0,.43.08,9.79,9.79,0,0,1,2.83,1C38.37,60.91,43.75,65.63,43.75,78.32Z"/><path class="cls-3" d="M29.47,53.37h0a6.13,6.13,0,0,1-5.26,2.86h0a6.64,6.64,0,0,1-5.24-2.85c.1-.64.2-1.32.26-2q.06-.63.12-1.29a20.79,20.79,0,0,0,4.81.63h.05A20.07,20.07,0,0,0,29.09,50q.06.64.12,1.26C29.29,52,29.37,52.71,29.47,53.37Z"/><path class="cls-4" d="M43.75,78.32l-.46.2H5.07l-.47-.2C4.6,66.94,9.32,61,13.44,59.18c3.1,3.13,6.76,8,7.75,8.92,1.66,1.56,2.69,4.22,3.74,3.56s6.93-8.92,10-12.48C38.36,60.91,43.75,65.63,43.75,78.32Z"/><path class="cls-5" d="M24.17,6.18c-19.86,0-20,15.87-19.09,26.23C3.72,30-.31,30.89,0,34.78c.32,3.73,6,5.42,5.93,5,1.62,8.45,11,13.14,18.22,13.81h.15V6.18Z"/><path class="cls-6" d="M1,33.14a2,2,0,0,1,2.91-.53,1.53,1.53,0,0,1,.47,1.73c-.14.5-.7.54-.56,1.3a1.38,1.38,0,0,0,.8,1.11,1.77,1.77,0,0,1,.68.7,1.74,1.74,0,0,1,.09,1.07c-.15.62-1.1.13-1.74-.14a12,12,0,0,1-2.08-1.6A3.27,3.27,0,0,1,1,33.14Z"/><path class="cls-7" d="M24.26,6.18c19.86,0,20,15.87,19.09,26.23,1.36-2.43,5.39-1.52,5.06,2.37-.31,3.73-6,5.42-5.92,5-1.63,8.45-11,13.14-18.23,13.81h-.15V6.18Z"/><path class="cls-6" d="M47.56,33.14a2,2,0,0,0-2.92-.53,1.53,1.53,0,0,0-.47,1.73c.15.5.7.54.57,1.3a1.37,1.37,0,0,1-.81,1.11,1.77,1.77,0,0,0-.68.7,1.82,1.82,0,0,0-.09,1.07c.15.62,1.1.13,1.74-.14A11.66,11.66,0,0,0,47,36.78,3.29,3.29,0,0,0,47.56,33.14Z"/><path class="cls-1" d="M24.06,10.68c-6.63,0-11.48,1.83-14.42,5.42-4.1,5-3.95,12.7-2.43,18.2.46,1.69.7,6.23,1,7.89,1.43,7.45,10.11,11.42,15.83,11.42h.16V10.69Z"/><path class="cls-2" d="M38.45,16.11c-2.91-3.57-7.71-5.39-14.23-5.42V53.61c6.52-.07,14.33-4.42,15.67-11.42.32-1.66.56-6.2,1-7.89C42.42,28.81,42.57,21.15,38.45,16.11Z"/><path class="cls-8" d="M27.55,46.88a5.3,5.3,0,0,1-3.34,1.59A5,5,0,0,1,21,46.91a21.56,21.56,0,0,1,3.26-.24A26.89,26.89,0,0,1,27.55,46.88Z"/><path class="cls-9" d="M25.16,46.14a.86.86,0,0,0-.95.72.87.87,0,0,0-.95-.72,13.45,13.45,0,0,0-2.4.74s1.83.19,2.35.19,1,.21,1-.19c0,.4.38.25.9.25s2.44-.25,2.44-.25A13.3,13.3,0,0,0,25.16,46.14Z"/><polygon class="cls-10" points="44.7 42.11 44.67 42.05 43.93 40.77 43.11 39.37 42.3 40.77 41.56 42.05 41.53 42.11 41.56 42.17 42.3 43.45 43.11 44.86 43.93 43.45 44.67 42.17 44.7 42.11"/><path class="cls-11" d="M44.88,20.51c-1.35-1.92-.67-4.62-.9-7S38.44,4.86,35.39,2.27,25.68,0,22.28,0a10.27,10.27,0,0,0-6.77,2.71C14,3.84,13.7,3.51,11.89,3.84S9,5,5.68,10.83,4.32,19.72,4.61,24.67s-.82,9.39-.82,11.54c0,7.93,5.3,14.49,4.49,22.48A28.17,28.17,0,0,1,5.57,68a30.31,30.31,0,0,0,3.5-7c1-3.38.67-9.46-1-14.3C6.63,42.7,6.88,38,7.59,34.1c0-.21.08-.42.12-.63.1-.54.22-1.07.34-1.58l.12-.48c.09-.38.19-.78.31-1.2A.78.78,0,0,0,8.61,30a2.87,2.87,0,0,0,.07-.46c.05-.18.1-.35.16-.53a17.76,17.76,0,0,0-.1,3.1,1,1,0,0,1,0,.17c0,.35,0,.66.11,1L9,34l0,.26c0,.17.07.35.11.53.11.5.23,1,.37,1.46.35,1.27.83,2.45,1.25,3.57S11.58,42,11.9,43a20.71,20.71,0,0,1,.69,2.89,13.33,13.33,0,0,1,.16,1.33,10.31,10.31,0,0,1,.06,1.21c0,.77,0,1.44-.06,2l-.19,1.76s.07-.15.18-.43.31-.69.48-1.24a14.22,14.22,0,0,0,.51-2A11.92,11.92,0,0,0,14,45.8a18,18,0,0,0-.61-4.54c-.14-.57-.29-1.14-.47-1.71l-.12-.42c-.3-.93-.56-1.86-.82-2.79-.07-.24-.13-.48-.2-.72-.17-.6-.27-1.15-.39-1.72l-.14-1c0-.25,0-.58-.07-.87a15.21,15.21,0,0,1,0-2.24c0-.44.06-.89.12-1.34A26.85,26.85,0,0,1,11.89,25c.57-2.27,1.29-4.37,1.89-6.2.29-.82.53-1.58.75-2.28a4.29,4.29,0,0,0,1.08,2.54A15.31,15.31,0,0,0,26.4,24.23h.18a17.55,17.55,0,0,1,3.6.55c6.12,2,7.15,8.77,10.83,9.22a3.09,3.09,0,0,0,.86,0,3.5,3.5,0,0,0,1.7-.77,9.92,9.92,0,0,0,3-5.14,6.47,6.47,0,0,0,.16-.89,4.92,4.92,0,0,0,0-.52A10.3,10.3,0,0,0,44.88,20.51Z"/><path class="cls-11" d="M43.54,34.87h0Z"/></g></g></svg>