<svg xmlns="http://www.w3.org/2000/svg" xmlns:xlink="http://www.w3.org/1999/xlink" viewBox="0 0 54.29 81.71"><defs><style>.cls-1{fill:none;}.cls-2{fill:#dcc5a1;}.cls-3{fill:#edd9b4;}.cls-4{clip-path:url(#clip-path);}.cls-5{fill:#bc9f82;}.cls-6{fill:#fdfdfd;}.cls-7{fill:#cc6b51;}.cls-8{fill:#ccad8b;}.cls-9{fill:#d9bf9f;}.cls-10{fill:#0f1005;}.cls-11{fill:#211915;}</style><clipPath id="clip-path"><rect class="cls-1" x="20.67" y="53.69" width="11.16" height="6.1"/></clipPath></defs><title>Ativo 14avatar</title><g id="Camada_2" data-name="Camada 2"><g id="Objects"><path class="cls-2" d="M26.23,47.43V81.71H6.08a4.68,4.68,0,0,0-.51-.19c0-14.14,7.3-18.23,10.67-19.36a9.53,9.53,0,0,1,1.68-.42c1.23,0,2-1.45,2.55-3.67a10.72,10.72,0,0,0,.2-1.07c.12-.63.2-1.3.29-2,0-.42.08-.84.12-1.27.19-2.11.24-4.4.24-6.56,0,0,2.72.25,4.91.25Z"/><path class="cls-3" d="M46.94,81.52a3.47,3.47,0,0,0-.48.19H26.23V47.43h0c2.19,0,4.92-.25,4.92-.25,0,2.16,0,4.42.24,6.51,0,.42.08.83.13,1.23.08.73.15,1.41.26,2h0c.06.29.1.55.18.81.52,2.36,1.33,4,2.61,4a10.76,10.76,0,0,1,2.54.73c3.62,1.53,9.79,6,9.79,19Z"/><g class="cls-4"><path class="cls-5" d="M31.83,57h0a6.62,6.62,0,0,1-5.58,2.81h0A7.13,7.13,0,0,1,20.67,57c.11-.63.21-1.29.28-2,0-.41.08-.83.13-1.26a23.82,23.82,0,0,0,5.09.61h0a22.41,22.41,0,0,0,5.2-.66c0,.41.09.83.13,1.23.09.73.17,1.41.28,2"/></g><path class="cls-6" d="M46.94,81.52a3.47,3.47,0,0,0-.48.19H6.08a4.68,4.68,0,0,0-.51-.19c0-14.14,7.3-18.22,10.67-19.36,2,.9,5.1,2.36,6.23,2.84a9,9,0,0,0,3.78,1.19c1.53,0,3.37-.88,5.57-1.52a30.29,30.29,0,0,0,5.33-2.2c3.62,1.53,9.79,6,9.79,19Z"/><path class="cls-7" d="M42.44,81.71H10.08c.1-1.46.19-4.12.15-7.69v-.68c0-.24,0-.5,0-.78s0-.38,0-.57c-.12-1.44-.38-3.14-.69-4.91a14.38,14.38,0,0,1,3-3,1.6,1.6,0,0,1,.26-.21A13.33,13.33,0,0,1,16.23,62a3.72,3.72,0,0,1,.51-.16,7.91,7.91,0,0,1,1.18-.26,1.57,1.57,0,0,0,1-.39,0,0,0,0,1,0,0,3.13,3.13,0,0,0,.3-.32.71.71,0,0,1,.18.34c.39.93,4.2,9.46,6.83,11.85,2.62-2.39,6.44-10.92,6.82-11.85a.71.71,0,0,1,.18-.34,3.13,3.13,0,0,0,.3.32s0,0,0,0a1.62,1.62,0,0,0,1,.39,7.2,7.2,0,0,1,1.12.23l.51.18a13,13,0,0,1,3.57,1.83,2.88,2.88,0,0,1,.27.22,14.1,14.1,0,0,1,3,3.06,47.93,47.93,0,0,0-.69,5c0,.2,0,.39-.06.58s0,.39,0,.56v.67c-.06,3.63.06,6.33.16,7.81Z"/><path class="cls-8" d="M26,8.11C4.64,8.11,4.51,24.63,5.46,35.44,4,32.89-.33,33.68,0,37.71s6.46,5.91,6.38,5.45c1.75,8.9,11.79,14,19.58,14h.16V8.11Z"/><path class="cls-5" d="M1.39,36a2.11,2.11,0,0,1,3.08-.53A1.55,1.55,0,0,1,5,37.25c-.15.52-.74.56-.59,1.35a1.4,1.4,0,0,0,.85,1.15,1.87,1.87,0,0,1,.72.73,1.87,1.87,0,0,1,.1,1.11c-.17.63-1.18.13-1.85-.15A13.88,13.88,0,0,1,2,39.78,3.35,3.35,0,0,1,1.39,36Z"/><path class="cls-2" d="M26.22,12.76c-7,0-12.16,1.89-15.27,5.61C6.6,23.57,6.76,31.52,8.37,37.22c.49,1.74.74,6.44,1.08,8.16C11,53.1,20.16,57.2,26.22,57.2h.16V12.77Z"/><path class="cls-9" d="M26.08,8.11c21.34,0,21.47,16.52,20.52,27.33,1.46-2.55,5.8-1.76,5.43,2.27s-6.45,5.91-6.37,5.45c-1.75,8.9-11.79,14-19.58,14h-.16V8.11Z"/><path class="cls-3" d="M41.46,18.38c-3.09-3.7-8.17-5.58-15.08-5.61V57.2C33.3,57.13,41.56,52.63,43,45.38c.33-1.72.58-6.42,1.08-8.16,1.59-5.68,1.75-13.62-2.61-18.84Z"/><path class="cls-10" d="M50.34,38.24a3.67,3.67,0,1,0,3.95,3.66A3.82,3.82,0,0,0,50.34,38.24Zm0,6a2.37,2.37,0,1,1,2.55-2.36A2.47,2.47,0,0,1,50.34,44.26Z"/><path class="cls-5" d="M50.68,36a2.12,2.12,0,0,0-3.09-.53,1.55,1.55,0,0,0-.5,1.78c.15.52.74.56.6,1.35a1.41,1.41,0,0,1-.86,1.15,1.87,1.87,0,0,0-.72.73A1.79,1.79,0,0,0,46,41.59c.16.63,1.16.13,1.84-.15a13.88,13.88,0,0,0,2.21-1.66A3.36,3.36,0,0,0,50.68,36Z"/><path class="cls-11" d="M34.63,53.44a6.15,6.15,0,0,0-1.36-4.08A8.77,8.77,0,0,0,26,46a9,9,0,0,0-6.92,2.9,5.56,5.56,0,0,0-1.89,4.54,6.9,6.9,0,0,0,.73,3.17,2.22,2.22,0,0,0,.67,1,3,3,0,0,0,1,.7A14.46,14.46,0,0,0,26,59.55c4.52,0,8.18-1.53,8.18-3.43,0,0,0-.06,0-.09A7.24,7.24,0,0,0,34.63,53.44ZM32,56.21a11,11,0,0,1-2.06.7v-.08c0-.76-1.82-1.38-4.07-1.38s-4.08.62-4.08,1.38v0a10.06,10.06,0,0,1-2.1-.75,7,7,0,0,1-.51-2.67c0-.27,0-.53,0-.78a8.73,8.73,0,0,1,5.3-2.59A11.13,11.13,0,0,1,26,50a11.36,11.36,0,0,1,1.44.09,8.78,8.78,0,0,1,5.08,2.39,7.79,7.79,0,0,1,.07,1A6.88,6.88,0,0,1,32,56.21Z"/><path class="cls-11" d="M4,16.65C3.9,12.91,5.68,11.7,6.8,9.87A24.43,24.43,0,0,1,11.55,5c1.13-.9,2.34-2,2.34-2A13.18,13.18,0,0,1,18.38,1.1c2.59-.52,3.37.09,5.78.94a8.42,8.42,0,0,1,.81.33,7.15,7.15,0,0,1,3.14-2A4.86,4.86,0,0,1,33,.93l-1.81.25A9.28,9.28,0,0,1,36.57,2.3,11.08,11.08,0,0,1,39.82,5s-3.48-.72-1.23,0a18.51,18.51,0,0,1,6,3.33A15.43,15.43,0,0,1,49.21,14c.86,2.18-.43-1.13-2.16-2.34a12.27,12.27,0,0,0-3.11-1.65,21.68,21.68,0,0,1,4.41,6.51,22.42,22.42,0,0,1,2.12,12c-.65,9.19-5.41,12.55-5.41,12.55a6.8,6.8,0,0,0,1.55-2.5,6.59,6.59,0,0,0,.18-3C46.7,36,42,42.36,42,42.36A14.82,14.82,0,0,0,44.36,31a9.56,9.56,0,0,0-2.49-4.4c-.18-.22-.34-.44-.49-.65-2.29,2.65-6.59,3.78-6.59,3.78S37.57,27,37.91,25s.19-6.14-2.22-8.49a14.5,14.5,0,0,0-1.13-1,7.15,7.15,0,0,1,0,6.64,6.88,6.88,0,0,1-2.41,2.55,17.07,17.07,0,0,1-10.36,3.15,19.79,19.79,0,0,1-5.63-.8h0l-.85-.28C12.31,26,3,24.12,7.41,37.41l0,.19h0A8.93,8.93,0,0,0,11,42.45a17.37,17.37,0,0,1-5.24-5.13c-1.91-3.12-2.14-6-2-10,0-.81.1-1.52.19-2.19a3.86,3.86,0,0,1-.65.68A4.88,4.88,0,0,1,.5,27S4.06,25.11,4,16.65Z"/></g></g></svg>