<svg xmlns="http://www.w3.org/2000/svg" xmlns:xlink="http://www.w3.org/1999/xlink" viewBox="0 0 47.62 78.59"><defs><style>.cls-1{fill:none;}.cls-2{fill:#dcc5a1;}.cls-3{fill:#edd9b4;}.cls-4{clip-path:url(#clip-path);}.cls-5{fill:#bc9f82;}.cls-6{fill:#f8f7e0;}.cls-7{fill:#7491c6;}.cls-8{fill:#ccad8b;}.cls-9{fill:#d9bf9f;}.cls-10{fill:#b47070;}.cls-11{fill:#c17874;}.cls-12{fill:#010300;}</style><clipPath id="clip-path"><rect class="cls-1" x="18.62" y="50.34" width="10.37" height="6.11"/></clipPath></defs><title>Ativo 33avatar</title><g id="Camada_2" data-name="Camada 2"><g id="Objects"><path class="cls-2" d="M23.77,44.08V78.36H5.07l-.46-.2c0-11.62,4.56-16.44,7.93-18.41a9.88,9.88,0,0,1,3.52-1.35c1.14,0,1.87-1.47,2.36-3.69.08-.34.14-.7.19-1.07q.16-.95.27-2c0-.42.08-.84.11-1.28.18-2.1.23-4.39.23-6.56,0,0,2.52.26,4.55.26Z"/><path class="cls-3" d="M43,78.16l-.44.2H23.77V44.08h0c2,0,4.57-.26,4.57-.26,0,2.16.05,4.42.22,6.51,0,.42.08.84.11,1.25.09.71.16,1.39.27,2h0c0,.29.09.54.14.81.49,2.36,1.25,4,2.43,4A9.88,9.88,0,0,1,35,59.73c3.37,2,8,6.79,8,18.43Z"/><g class="cls-4"><path class="cls-5" d="M29,53.62h0a6,6,0,0,1-5.18,2.81h0a6.5,6.5,0,0,1-5.15-2.79c.1-.63.19-1.3.26-2,0-.42.08-.84.12-1.28a19.52,19.52,0,0,0,4.72.62h.05a19,19,0,0,0,4.83-.66c0,.42.08.83.11,1.24.09.72.17,1.4.27,2"/></g><path class="cls-6" d="M43.11,78.37s-.18.07-.45.2h-38l-.45-.2C4.16,66.58,8.85,62,12.27,60c-.72,3.83,5.27,5.3,11.33,5.23S35.32,63.58,34.9,60c3.42,2,8.21,6.61,8.21,18.42Z"/><path class="cls-7" d="M36.76,68.17a4.25,4.25,0,0,0-3.09-.72V58.39l-2.4-.61V67.91a15.86,15.86,0,0,0-3,1.23,9.79,9.79,0,0,1-4.67,1.47h-.06c-.44,0-1.5.22-4.72-1.48A16.24,16.24,0,0,0,16.22,68V58.28l-2.4.62v8.59a4.89,4.89,0,0,0-3.33.52A27.93,27.93,0,0,0,8.81,78.42l.35.17H38l.35-.17A28.31,28.31,0,0,0,36.76,68.17Z"/><path class="cls-8" d="M23.76,7.23C4.23,7.19,4.13,22.82,5,33c-1.34-2.39-5.3-1.5-5,2.32s5.9,5.34,5.83,4.93c1.59,8.31,10.8,12.92,17.91,13.58h.15V7.23Z"/><path class="cls-5" d="M1,33.73a1.94,1.94,0,0,1,2.86-.52,1.48,1.48,0,0,1,.46,1.7c-.14.5-.69.53-.55,1.28a1.35,1.35,0,0,0,.79,1.09c.23.19.53.34.67.69A1.77,1.77,0,0,1,5.32,39c-.15.6-1.09.12-1.71-.15a11.64,11.64,0,0,1-2-1.57A3.22,3.22,0,0,1,1,33.73Z"/><path class="cls-9" d="M23.85,7.23C43.38,7.19,43.49,22.82,42.62,33c1.34-2.39,5.3-1.5,5,2.32s-5.91,5.34-5.83,4.93C40.17,48.58,31,53.19,23.85,53.85h-.14V7.23Z"/><path class="cls-5" d="M46.76,33.73a2,2,0,0,0-2.87-.52,1.51,1.51,0,0,0-.46,1.7c.14.5.69.53.55,1.28a1.33,1.33,0,0,1-.79,1.09A1.51,1.51,0,0,0,42.43,39c.15.6,1.09.12,1.71-.15a11.64,11.64,0,0,0,2-1.57,3.22,3.22,0,0,0,.57-3.58Z"/><path class="cls-2" d="M23.65,11.09c-6.52,0-11.28,1.79-14.18,5.32-4,4.95-3.88,12.49-2.39,17.9.46,1.66.69,6.12,1,7.76C9.49,49.39,18,53.29,23.65,53.29h.16V11.1Z"/><path class="cls-3" d="M37.81,16.36c-2.87-3.52-7.59-5.3-14-5.33V53.22c6.42-.07,14.1-4.34,15.41-11.22.31-1.63.55-6.09,1-7.75,1.48-5.4,1.62-12.93-2.42-17.89Z"/><path class="cls-10" d="M27.06,47.54a5.22,5.22,0,0,1-3.29,1.57,4.91,4.91,0,0,1-3.2-1.54,21.77,21.77,0,0,1,3.2-.23,27.43,27.43,0,0,1,3.29.2Z"/><path class="cls-11" d="M24.71,46.81a.86.86,0,0,0-.94.72.85.85,0,0,0-.93-.72,13.23,13.23,0,0,0-2.36.73s1.8.18,2.31.18,1,.21,1-.17c0,.38.38.24.89.24s2.4-.25,2.4-.25a13.08,13.08,0,0,0-2.35-.73Z"/><path class="cls-12" d="M46.6,19.24a4.74,4.74,0,0,0-.43-.84A34.51,34.51,0,0,0,41.66,6.67C39.54,3.61,34.35.9,27.67.09S15.19,4,15.19,4a7.51,7.51,0,0,0-1.92-2c-.89-.45-3.42.09-3.42.09A6.18,6.18,0,0,1,11.91,3a1.85,1.85,0,0,1,.34,1.65,12.27,12.27,0,0,0-2.9-.88c-1.61,0-3.43,2-3.43,2a5.9,5.9,0,0,1,3-1,7.84,7.84,0,0,1,1.78.63s-2.39.26-6.87,5.14A14,14,0,0,0,.42,19.11l2.83-1.62a7.61,7.61,0,0,0-1.09,1.75c-2.09,5.18.77,10.37.77,10.37s.93.09,1.78,2.08a39.12,39.12,0,0,1,1.87,6.05h1s-2.14-8.34-.7-12.88c.4-1.24,1.48-3.81,3-3.9a5.41,5.41,0,0,0,1.44-2.58c.43-1.71,2.74-4.58,4-5.12a1.67,1.67,0,0,1,1.95.27,13.17,13.17,0,0,1,5.48-2.16c3.53-.63,5.48,3.15,6.25,5.13a4.38,4.38,0,0,1,.37,3,9.36,9.36,0,0,0,1.33-4.86,6.16,6.16,0,0,0-.4-1.85c.46.23,2.47.79,2.88,6a5.27,5.27,0,0,1-2,4.14s5-2.05,3.93-8.37a10.84,10.84,0,0,1,2.44,3.86c.44,1.72,4.16,5.7,4.41,6.48,1.44,4.54-.7,12.88-.7,12.88h1a39.12,39.12,0,0,1,1.87-6.05c.85-2,1.79-2.08,1.79-2.08S48.69,24.42,46.6,19.24ZM29.74,11.83a.41.41,0,0,0-.07-.11l.08.09Z"/></g></g></svg>