<svg xmlns="http://www.w3.org/2000/svg" viewBox="0 0 47.74 76.56"><defs><style>.cls-1{fill:#dcc5a1;}.cls-2{fill:#edd9b4;}.cls-3,.cls-7{fill:#bc9f82;}.cls-3{opacity:0.7;}.cls-4{fill:#3b2f18;}.cls-5{fill:#5a4f51;}.cls-6{fill:#ccad8b;}.cls-8{fill:#d9bf9f;}.cls-9{fill:#12130a;}.cls-10{fill:#1a1a13;}.cls-11{fill:#504f4b;}.cls-12{fill:#44433e;}</style></defs><title>Ativo 38avatar</title><g id="Camada_2" data-name="Camada 2"><g id="Objects"><path class="cls-1" d="M24.66,43.45V76.56H6.6l-.45-.18c0-17.77,11.07-19.1,11.07-19.1h.09a1.14,1.14,0,0,0,.24-.05l.1,0c.8-.3,1.35-1.43,1.74-3,0-.13.08-.28.11-.42a1.74,1.74,0,0,1,.05-.22c.05-.26.1-.53.14-.8.1-.61.19-1.25.25-1.92,0-.41.07-.81.11-1.22h0c.17-2,.22-4.25.22-6.34C20.27,43.21,22.7,43.45,24.66,43.45Z"/><path class="cls-2" d="M43.24,76.38l-.43.18H24.66V43.45h.05c2,0,4.4-.24,4.4-.24,0,2.08.05,4.26.22,6.28h0c0,.41.07.81.11,1.21.08.69.15,1.34.26,2v0a4.86,4.86,0,0,0,.1.55,1.7,1.7,0,0,0,0,.22c.38,1.85.93,3.22,1.75,3.67l.15.06,0,0,.07,0a.91.91,0,0,0,.33.05S43.24,58.61,43.24,76.38Z"/><path class="cls-3" d="M29.7,52.67h0a5.86,5.86,0,0,1-5,2.72h0a6.34,6.34,0,0,1-5-2.7c.1-.61.19-1.26.25-1.92,0-.41.08-.81.11-1.23a19.36,19.36,0,0,0,4.57.59h.05a18.21,18.21,0,0,0,4.66-.64c0,.41.08.81.11,1.2C29.52,51.4,29.59,52.05,29.7,52.67Z"/><path class="cls-4" d="M31.85,57.23c-.46.77-1.48,1.56-3.7,1.79a33.6,33.6,0,0,1-3.49.22c-4.42,0-6.28-1.07-7-2.05.8-.3,1.35-1.43,1.74-3,0-.13.08-.28.11-.42a1.74,1.74,0,0,1,.05-.22c.2.39.79,1,2.51,1.27h0a19.83,19.83,0,0,0,2.58.19,9.59,9.59,0,0,0,3.25-.47h0a3,3,0,0,0,1.77-1.3l.09.06a1.7,1.7,0,0,0,0,.22c.38,1.85.93,3.22,1.75,3.67l.19.08Z"/><path class="cls-5" d="M43.24,76.38l-.43.18H6.6l-.45-.18c0-17.77,11.07-19.1,11.07-19.1h.09a1.14,1.14,0,0,0,.24-.05l.1,0c-1.09,2.05-8.13,9.59,0,11.24a39.81,39.81,0,0,0,7,.82A25,25,0,0,0,34,68c3.48-1.3-.49-8.39-2.22-10.77l0,0,.07,0a.91.91,0,0,0,.33.05S43.24,58.61,43.24,76.38Z"/><path class="cls-6" d="M24.65,7.86c-18.85,0-19,15.07-18.12,24.91-1.3-2.3-5.12-1.45-4.8,2.25.29,3.55,5.7,5.15,5.62,4.76,1.54,8,10.43,12.48,17.3,13.11h.15v-45Z"/><path class="cls-7" d="M2.74,33a1.87,1.87,0,0,1,2.76-.5A1.47,1.47,0,0,1,6,34.12c-.13.47-.66.51-.54,1.23a1.3,1.3,0,0,0,.77,1c.22.19.5.33.64.67a1.65,1.65,0,0,1,.09,1c-.15.59-1,.12-1.65-.13a11.92,11.92,0,0,1-2-1.53A3.11,3.11,0,0,1,2.74,33Z"/><path class="cls-8" d="M24.75,7.86c18.85,0,19,15.07,18.12,24.91,1.3-2.3,5.12-1.45,4.81,2.25-.3,3.55-5.71,5.15-5.63,4.76-1.55,8-10.43,12.48-17.3,13.11H24.6v-45Z"/><path class="cls-7" d="M46.65,33a1.87,1.87,0,0,0-2.76-.5,1.47,1.47,0,0,0-.45,1.65c.14.47.66.51.54,1.23a1.26,1.26,0,0,1-.77,1c-.22.19-.51.33-.65.67a1.72,1.72,0,0,0-.08,1c.14.59,1.05.12,1.65-.13a11.92,11.92,0,0,0,2-1.53A3.13,3.13,0,0,0,46.65,33Z"/><path class="cls-1" d="M24.55,12.14c-6.29,0-10.9,1.73-13.69,5.14C7,22.05,7.11,29.34,8.55,34.57c.44,1.6.66,5.91,1,7.49,1.36,7.08,9.6,10.84,15,10.84h.15V12.14Z"/><path class="cls-2" d="M38.22,17.29c-2.77-3.39-7.32-5.12-13.52-5.15V52.9c6.2-.07,13.61-4.19,14.89-10.84.3-1.58.53-5.89,1-7.49C42,29.35,42.13,22.08,38.22,17.29Z"/><path class="cls-9" d="M27.87,46.51A5,5,0,0,1,24.69,48a4.73,4.73,0,0,1-3.09-1.49,20.28,20.28,0,0,1,3.09-.23A25.43,25.43,0,0,1,27.87,46.51Z"/><path class="cls-10" d="M25.59,45.81a.83.83,0,0,0-.9.69.82.82,0,0,0-.9-.69,12.93,12.93,0,0,0-2.28.7s1.74.18,2.24.18.93.2.94-.17c0,.37.37.22.86.22s2.32-.23,2.32-.23A12.66,12.66,0,0,0,25.59,45.81Z"/><path class="cls-4" d="M18.87,10c-1-.52-5.47-2.11-5.47-2.11s1.51.84,1.69,1.59-10,4.25-11.43,13.79S5.85,36.58,5.85,36.58s-.67-6.68-.67-6.67-2.74,3-2.45,5.34S3.65,37.34,5.59,40c1.77,2.39,0-1.25,0-1.25S7,43,7.61,41.2c1.13-3.18.67-4.51,1.06-6.29s.67-6.57.67-6.57A9.65,9.65,0,0,0,9.62,36,9.5,9.5,0,0,0,11,38,10.53,10.53,0,0,1,10,33c.15-1.6,1.21-1.85,3.58-7.7,1.12-2.77.16-8.11,0-6.81s-.32,4.54.86,6.17A9.52,9.52,0,0,0,18.79,28a7.2,7.2,0,0,1-2.85-5.42,7.85,7.85,0,0,1,.76-3.37s-.72,3.9,5.81,6.24a5.73,5.73,0,0,0,3.34.22s-2.71-1.44-2.73-3.93a22.38,22.38,0,0,0,11.61,6.36,18.33,18.33,0,0,0,4.86.44s.3-.57.21,2.07-.6,3.77-1.29,4.68a10.17,10.17,0,0,1-1.14,1,7,7,0,0,0,3.53-3.21,7.56,7.56,0,0,0,.63-4,42.8,42.8,0,0,1,0,6.65c-.41,5.55-2.55,8-2.55,8a8.44,8.44,0,0,0,3.44-4.3c0-.1-.15,2,0,.56,0,0,1.9.25,3.27-3.17,0,0,.89,3.64.22-.69-.85-5.51.61-9.8-.52-14.11S44,17.28,42.11,14.94s-3.7-4.22-8.8-5.77-6.18-1-8.12-1A10.08,10.08,0,0,0,20.1,9.53a4,4,0,0,1,.18-2.29,12,12,0,0,1,.85-1.93S19.89,7,19.62,7.47c-1.1,1.77-.75,2.48-.75,2.48Z"/><path class="cls-11" d="M6.55,42.85C4,38.51,3.11,36.32,3.75,33.07,4,32,5.11,29.1,4.93,27.63c-.3-2.3,5.68-13.3,10.33-15.39a24.23,24.23,0,0,1,12-2.24,13.65,13.65,0,0,1,10.08,6.33c2.54,4.34,3.64,4.68,3.81,6s.83,2.81,1.12,4.51c.33,1.86,2.46,5.74,2.46,9.05s-3.16,7.93-3.16,7.93,3.21-4.19,3.94-4.91a6.22,6.22,0,0,0,2.21-4c.35-2.25-1.25-6.39-1.08-8.4A23.53,23.53,0,0,0,45,15.71c-1.84-4.33-4-9.22-8.59-11.85S27-.78,22.92.3,15.37.12,10.19,3.83s-6,2.87-9.28,11C-.92,19.35.64,23.07.29,25.54a28.06,28.06,0,0,0-.06,6.19C.6,37.11,6.55,42.85,6.55,42.85Z"/><path class="cls-12" d="M5,21.55c1.82-5.38,5.28-11.11,8.44-12.65s7.37-3,11.84-2.56,9.91,2.25,11.84,4.34,4.47,6.11,4.73,8.13.21,3.15.38,4.31,1.65,8.13,1.65,8.13-2.83-7-3.11-8.33c-.61-2.92-2.87-5.37-4.39-7a32.81,32.81,0,0,0-4-3s-1.41-3.16-7.08-3c-8.37.22-11.43,4.47-11.43,4.47s-1.57,1.32-2.3,2.11c-1.94,2.1-5.08,5.95-5.83,9.36A34.86,34.86,0,0,1,4.34,31a18.58,18.58,0,0,1,.09-3.61c.12-1.43-.27-3.36.58-5.86Z"/></g></g></svg>