<svg xmlns="http://www.w3.org/2000/svg" xmlns:xlink="http://www.w3.org/1999/xlink" viewBox="0 0 49.06 79.17"><defs><style>.cls-1{fill:none;}.cls-2{fill:#dcc5a1;}.cls-3{fill:#edd9b4;}.cls-4{clip-path:url(#clip-path);}.cls-5{fill:#bc9f82;}.cls-6{fill:#ccad8b;}.cls-7{fill:#d9bf9f;}.cls-8{fill:#42413c;}.cls-9{fill:#402b26;}.cls-10{fill:#563d38;}.cls-11{fill:#f8f7e0;}.cls-12{fill:#fdfdff;}.cls-13{fill:#211915;}</style><clipPath id="clip-path"><rect class="cls-1" x="19.18" y="50.3" width="10.68" height="6.29"/></clipPath></defs><title>Ativo 5avatar</title><g id="Camada_2" data-name="Camada 2"><g id="Objects"><polygon class="cls-1" points="20.93 64.91 25.24 67.38 29.86 65.37 24.64 63.78 20.93 64.91"/><path class="cls-1" d="M13.07,60.26a25.53,25.53,0,0,0,1.45,2.79l1-1.26,5,2.89,3.53-1.08Z"/><path class="cls-1" d="M30.34,65.16l3.9-1.69v.22a24.15,24.15,0,0,0,1.87-3.4L25.22,63.6Z"/><path class="cls-2" d="M24.49,43.84V79.17H5.22c-.31-.14-.48-.2-.48-.2,0-11.81,4.59-16.81,8-18.92a10.51,10.51,0,0,1,3.76-1.45c1.17,0,1.92-1.51,2.43-3.8.08-.35.15-.72.2-1.11.11-.64.2-1.33.27-2,0-.43.08-.86.12-1.31.18-2.17.23-4.53.23-6.76,0,0,2.6.26,4.69.26Z"/><path class="cls-3" d="M44.31,79s-.17.06-.46.2H24.49V43.84h0c2.1,0,4.71-.26,4.71-.26,0,2.22.05,4.56.22,6.71,0,.43.08.86.13,1.28.07.74.15,1.44.26,2.1v0c0,.29.1.56.15.83.51,2.44,1.29,4.08,2.51,4.08a10.9,10.9,0,0,1,4.66,2.06c3.3,2.4,7.14,7.51,7.14,18.31Z"/><g class="cls-4"><path class="cls-5" d="M29.86,53.67v0a6.24,6.24,0,0,1-5.33,2.9h0a6.71,6.71,0,0,1-5.31-2.89c.1-.64.2-1.34.27-2.05,0-.42.07-.86.11-1.31a20.84,20.84,0,0,0,4.87.64h.06a20.57,20.57,0,0,0,5-.68c0,.43.08.86.12,1.27.09.75.17,1.44.27,2.1"/></g><path class="cls-6" d="M24.48,5.87C4.37,5.83,4.25,21.94,5.14,32.45,3.76,30-.31,30.9,0,34.84c.32,3.79,6.09,5.5,6,5.08,1.64,8.56,11.12,13.31,18.45,14h.15v-48Z"/><path class="cls-5" d="M1,33.18a2,2,0,0,1,3-.53,1.53,1.53,0,0,1,.48,1.75c-.15.51-.71.55-.57,1.32a1.38,1.38,0,0,0,.82,1.12,1.67,1.67,0,0,1,.68.71,1.73,1.73,0,0,1,.09,1.09c-.15.62-1.11.12-1.75-.15a11.93,11.93,0,0,1-2.12-1.62A3.33,3.33,0,0,1,1,33.18Z"/><path class="cls-7" d="M24.58,5.87c20.12,0,20.24,16.07,19.34,26.58C45.3,30,49.38,30.9,49,34.84c-.32,3.79-6.08,5.5-6,5.08-1.65,8.56-11.13,13.31-18.46,14h-.15v-48Z"/><path class="cls-5" d="M48.18,33.18a2,2,0,0,0-3-.53,1.53,1.53,0,0,0-.48,1.75c.15.51.71.55.57,1.32a1.39,1.39,0,0,1-.81,1.12,1.75,1.75,0,0,0-.69.71,1.88,1.88,0,0,0-.09,1.09c.15.62,1.11.12,1.75-.15a11.58,11.58,0,0,0,2.12-1.62,3.33,3.33,0,0,0,.58-3.69Z"/><path class="cls-2" d="M24.38,10.43c-6.72,0-11.64,1.85-14.61,5.49C5.61,21,5.77,28.79,7.31,34.37c.46,1.7.7,6.3,1,8,1.44,7.55,10.24,11.57,16,11.57h.15V10.44Z"/><path class="cls-3" d="M39,15.93c-3-3.62-7.82-5.47-14.43-5.49V53.91c6.62-.06,14.53-4.47,15.88-11.56.33-1.68.57-6.28,1-8C43,28.8,43.13,21,39,15.93Z"/><path class="cls-8" d="M46.39,40.29a1.49,1.49,0,1,1-1.49-1.48,1.48,1.48,0,0,1,1.49,1.48Z"/><path class="cls-9" d="M29.89,46.16s-2.27,2.43-5.07,2.43a7.55,7.55,0,0,1-4.94-2.38,33.05,33.05,0,0,1,4.94-.36,41.8,41.8,0,0,1,5.07.31Z"/><path class="cls-10" d="M26.39,45.09A1.32,1.32,0,0,0,25,46.19a1.32,1.32,0,0,0-1.43-1.1,20,20,0,0,0-3.65,1.12s2.77.3,3.58.3,1.48.31,1.5-.28c0,.59.58.36,1.36.36s3.7-.38,3.7-.38a20,20,0,0,0-3.63-1.12Z"/><polygon class="cls-11" points="20.91 46.33 21.48 48.67 22.23 46.45 20.91 46.33"/><polygon class="cls-11" points="28.48 46.42 27.91 48.76 27.15 46.55 28.48 46.42"/><path class="cls-12" d="M45.46,11.81c-1.84-2.87-2-2.06-2-2.06S45.33,1.91,33.82.18A26.49,26.49,0,0,0,29.31,0l1.57,1.61a31.94,31.94,0,0,0-14-.84C11,1.72,7,4.62,3.75,9.35A21.33,21.33,0,0,0,.88,17.18l3-4.06a20.48,20.48,0,0,0-3,13.73C2.65,40.51,8.9,43,8.9,43S4.6,34.85,7.44,29.55a16.71,16.71,0,0,1,13.27-9.17,12.1,12.1,0,0,0-10.12,9.37v.05a6.58,6.58,0,0,1,4-3.85c1.88-.73,4.36-.71,7.19-1.46a15.27,15.27,0,0,0-3,7.09,17.86,17.86,0,0,1,8.62-6.43l1.15-.44c-1.8,2.36-1.17,6.33-.59,7.12,0,0-.21-3.58,7.48-5.81,4.43-1.3,5.14-3.84,5.14-3.84a14.38,14.38,0,0,0,.56,4.13c.7,1.87,2.65,3.08,2.79,4.77.26,3.14-1.41,9-1.41,9l2.5-2a76.78,76.78,0,0,0,2.49-15.74C47.51,18.84,46.86,14,45.46,11.81Z"/><path class="cls-13" d="M36.15,60.05l-.06.13L24.18,63.72l-12-3.57,0,0a.78.78,0,0,0,0-.14C8.59,62.16,3.9,67.16,3.9,79l.49.2H44c.31-.14.48-.2.48-.2C44.45,67.16,39.72,62.16,36.15,60.05Zm-21.33,2-1,1.26a24,24,0,0,1-1.48-2.78L23.59,63.9,20,65Zm10,5.59L20.39,65.2l3.8-1.13,5.34,1.59ZM34,64v-.22l-4,1.69L24.78,63.9l11.13-3.32A22.57,22.57,0,0,1,34,64Z"/><path class="cls-13" d="M25.29,73.73l-3.67.93L21,74.3c-9.55-6-12.21-11.46-12.21-11.46l2.75-2.16-2.23-.75s.53-1,1.55-2.6a11.86,11.86,0,0,1,1.24-1.5,9.49,9.49,0,0,1,2.18-1.66c-.06.12-.65,1.08.78,5.79.11.31.21.61.34.93l.09.2c.07.15.13.29.21.44a.42.42,0,0,0,0,.1c.07.15.14.3.22.45a41.75,41.75,0,0,0,5.14,7.1c.33.37.65.72,1,1.09s.81.89,1.2,1.32c.24.24.45.49.67.72l.74.8.57.62Z"/><path class="cls-13" d="M25,73.73l3.67.93c.21-.13.4-.24.57-.36,9.56-6,12.22-11.46,12.22-11.46l-2.75-2.16L41,59.93s-.53-1-1.55-2.6a12.8,12.8,0,0,0-1.24-1.5A9.26,9.26,0,0,0,36,54.17c.07.12.66,1.08-.78,5.79-.11.31-.2.61-.33.93l-.09.2-.22.44a.14.14,0,0,1,0,.1,4.66,4.66,0,0,1-.22.45,41.12,41.12,0,0,1-5.13,7.1c-.33.37-.65.72-1,1.09L27,71.59c-.24.24-.45.49-.67.72l-.75.8c-.19.2-.37.41-.56.62Z"/><path class="cls-11" d="M39.05,75.06c-.3-.81-1.49-.65-2.22-.91-1-.38-1.86-1.36-2.74-1.74a16.31,16.31,0,0,1,3.2-1.17c.5.21,1,.77,1.73.45.29-.63-.23-1.06-.46-1.45a1.66,1.66,0,0,0-.08-1.37c-1.13,0-1.65,1.08-2.46,1.55-1,.55-2.06.79-3.11,1.36a14,14,0,0,0-3.28-1.46c-.51-.64-1.25-1.84-2.29-1.35a3.91,3.91,0,0,1-.54,2.36c.41.86,1.33.15,1.91-.09a10.74,10.74,0,0,1,3.11,1.27c-.73.09-1.61,1.25-2.74,1.64s-2.56.13-2.28,1.27c.1.41.61.55,1.27.55a1.45,1.45,0,0,0,1,.81,1.57,1.57,0,0,0,.73-1.45A15.66,15.66,0,0,1,33,73.14c1,.75,2.32,1.18,3,2.19.34.5.28,1.24,1,1.45a2.42,2.42,0,0,0,2.09-1.27C39.22,75.26,39.17,75.13,39.05,75.06Z"/></g></g></svg>