<svg xmlns="http://www.w3.org/2000/svg" viewBox="0 0 53.69 72.92"><defs><style>.cls-1{fill:#4f1719;}.cls-2{fill:#dcc5a1;}.cls-3{fill:#edd9b4;}.cls-4,.cls-7{fill:#bc9f82;}.cls-4{opacity:0.7;}.cls-5{fill:#5a4f51;}.cls-6{fill:#ccad8b;}.cls-8{fill:#d9bf9f;}.cls-9{fill:#b47070;}.cls-10{fill:#c17874;}.cls-11{fill:none;stroke:#ecd000;stroke-miterlimit:10;stroke-width:0.75px;}.cls-12{fill:#81181a;}</style></defs><title>Ativo 54avatar</title><g id="Camada_2" data-name="Camada 2"><g id="Objects"><path class="cls-1" d="M50.26,24s1.31,11.76-1,17-6.1,11.33-9.9,13.18S25,56.39,18.53,59.55,8.16,64.09,8.43,66.82a5.06,5.06,0,0,0,2.4,3.87S3,68.07,3,62.6s3-7.87,4.76-10.52C13.22,44,9.08,33,9.08,33s5.74-20.65,6.33-20.61S34.79,5.49,37.12,7,50.26,24,50.26,24Z"/><path class="cls-2" d="M30.67,39.81V72.92H12.6l-.44-.19A31.65,31.65,0,0,1,13,65.17c2.55-10.6,10.24-11.52,10.24-11.52h.09l.24-.06c.91-.25,1.53-1.59,1.95-3.51.07-.32.14-.66.19-1,.1-.6.19-1.25.25-1.92l.12-1.23c.16-2,.22-4.24.22-6.34C26.28,39.56,28.71,39.81,30.67,39.81Z"/><path class="cls-3" d="M49.24,72.73l-.43.19H30.67V39.81h0c2,0,4.41-.25,4.41-.25,0,2.09.05,4.27.21,6.29q.06.61.12,1.2c.07.7.15,1.35.25,2h0c0,.28.09.54.14.79.38,1.86.94,3.22,1.75,3.67a.64.64,0,0,0,.19.08,1.06,1.06,0,0,0,.4.08,3,3,0,0,1,.36.06,12.3,12.3,0,0,1,7.77,6.08C48,62.62,49.24,66.75,49.24,72.73Z"/><path class="cls-4" d="M35.69,49h0a5.82,5.82,0,0,1-5,2.71h0a6.31,6.31,0,0,1-5-2.7c.1-.6.2-1.25.26-1.92,0-.4.07-.81.11-1.22a20.44,20.44,0,0,0,4.56.59h.06a19.14,19.14,0,0,0,4.66-.64c0,.4.07.8.11,1.2C35.51,47.75,35.6,48.41,35.69,49Z"/><path class="cls-5" d="M50.71,64.39S45.47,54.08,38.16,53.65c-.19,0,5.43,8.19-2.06,10.1a19.53,19.53,0,0,1-5.39.57h0a19.64,19.64,0,0,1-5.4-.57c-7.49-1.91-1.86-10.12-2.05-10.1-7.31.43-12.56,10.74-12.56,10.74l2.32.78,3.27,1.1a21.6,21.6,0,0,0-1.2,6.65H46.33a21.6,21.6,0,0,0-1.2-6.65l3.27-1.1Z"/><path class="cls-6" d="M30.65,4.22c-18.85,0-19,15.07-18.12,24.91-1.3-2.31-5.12-1.45-4.81,2.25.3,3.54,5.71,5.15,5.63,4.76,1.54,8,10.43,12.47,17.3,13.11h.14v-45Z"/><path class="cls-7" d="M8.67,29.81a1.87,1.87,0,0,1,2.76-.5A1.47,1.47,0,0,1,11.88,31c-.14.47-.67.51-.54,1.24a1.33,1.33,0,0,0,.77,1c.22.18.51.32.65.66a1.73,1.73,0,0,1,.08,1c-.15.59-1,.12-1.65-.14a11.35,11.35,0,0,1-2-1.52A3.13,3.13,0,0,1,8.67,29.81Z"/><path class="cls-8" d="M30.75,4.22c18.85,0,19,15.07,18.12,24.91,1.3-2.31,5.12-1.45,4.8,2.25-.3,3.54-5.7,5.15-5.63,4.76-1.54,8-10.43,12.47-17.29,13.11H30.6v-45Z"/><path class="cls-7" d="M52.87,29.81a1.88,1.88,0,0,0-2.77-.5A1.45,1.45,0,0,0,49.65,31c.13.47.66.51.53,1.24a1.33,1.33,0,0,1-.76,1,1.65,1.65,0,0,0-.65.66,1.73,1.73,0,0,0-.08,1c.14.59,1,.12,1.65-.14a11.35,11.35,0,0,0,2-1.52A3.15,3.15,0,0,0,52.87,29.81Z"/><path class="cls-2" d="M30.55,8.49c-6.3,0-10.9,1.74-13.7,5.15C13,18.41,13.11,25.7,14.55,30.93c.44,1.6.66,5.9,1,7.49,1.36,7.07,9.61,10.84,15,10.84h.15V8.5Z"/><path class="cls-3" d="M44.22,13.65c-2.77-3.4-7.33-5.13-13.52-5.15V49.25c6.2-.06,13.61-4.19,14.89-10.83.3-1.59.52-5.89,1-7.49C48,25.71,48.13,18.43,44.22,13.65Z"/><path class="cls-9" d="M33.87,42.86a5,5,0,0,1-3.18,1.52,4.78,4.78,0,0,1-3.1-1.48,20.5,20.5,0,0,1,3.1-.23A27,27,0,0,1,33.87,42.86Z"/><path class="cls-10" d="M31.59,42.16a.83.83,0,0,0-.9.69.82.82,0,0,0-.9-.69,12.66,12.66,0,0,0-2.28.7s1.74.19,2.24.19.93.19.94-.18c0,.37.37.23.86.23s2.32-.24,2.32-.24A12.66,12.66,0,0,0,31.59,42.16Z"/><path class="cls-11" d="M13.93,37.13a1.33,1.33,0,1,1-1.33-1.31A1.32,1.32,0,0,1,13.93,37.13Z"/><path class="cls-11" d="M49.24,37.13a1.32,1.32,0,1,1-1.32-1.31A1.32,1.32,0,0,1,49.24,37.13Z"/><path class="cls-12" d="M11.08,27.45s.15.47.38,1.3a26.87,26.87,0,0,1,.73,3.47,22.91,22.91,0,0,1,.26,2.37,21.9,21.9,0,0,1,0,2.7,21.06,21.06,0,0,1-.31,2.89,12.63,12.63,0,0,1-.33,1.48l-.2.73-.05.19v0l0,.12,0,.08-.13.34-.54,1.34a13,13,0,0,1-.72,1.38,15.65,15.65,0,0,1-1.69,2.46,17.89,17.89,0,0,1-1.92,2A18.16,18.16,0,0,1,4.6,51.79a16,16,0,0,1-1.71,1.07,15.28,15.28,0,0,1-1.38.74c-.77.38-1.22.57-1.22.57s.33-.37.93-1,1.46-1.45,2.42-2.5c.5-.51,1-1.1,1.5-1.7s1-1.31,1.51-2a22.66,22.66,0,0,0,1.28-2.24,11.81,11.81,0,0,0,.57-1.18L9,42.25l.13-.34,0-.09v0c0,.14,0,0,0,.05v0l0-.17L9.42,41a11.83,11.83,0,0,0,.34-1.3l.3-1.31.21-1.3c.11-.86.22-1.7.3-2.51s.14-1.57.17-2.29c.09-1.44.17-2.65.23-3.49S11.08,27.45,11.08,27.45Z"/><path class="cls-12" d="M11.89,37.13s.19.5.44,1.36a6.6,6.6,0,0,1,.35,1.6,12.24,12.24,0,0,1,.09,2.24,13.48,13.48,0,0,1-.4,2.61L12,46.33c-.16.46-.39.91-.58,1.37a21.94,21.94,0,0,1-1.5,2.72c-.58.84-1.19,1.71-1.83,2.5s-1.3,1.59-2,2.31-1.24,1.42-1.78,2.09a9.18,9.18,0,0,0-2.07,3.8,6.07,6.07,0,0,0,0,1.75c.06.27.13.52.17.77s.15.47.21.67c.14.42.3.73.38,1l.14.36L2.8,65.4A6.38,6.38,0,0,1,2,64.72l-.55-.56c-.18-.22-.35-.49-.55-.78a9.31,9.31,0,0,1-.5-1,5.87,5.87,0,0,1-.29-1.25A6.69,6.69,0,0,1,.3,58.24a12.2,12.2,0,0,1,1.22-2.8,25.58,25.58,0,0,1,1.72-2.53c.61-.8,1.23-1.57,1.83-2.34S6.26,49,6.86,48.31,8,46.84,8.42,46.1c.24-.37.48-.72.7-1.08L9.7,44a7.22,7.22,0,0,0,.51-1.05c.14-.34.29-.68.43-1,.27-.66.39-1.27.59-1.83a10.38,10.38,0,0,0,.35-1.55C11.75,37.64,11.89,37.13,11.89,37.13Z"/><path class="cls-12" d="M49.63,29.37l.17.31a4.29,4.29,0,0,1,.44.91,5.49,5.49,0,0,1,.36,1.6,7.55,7.55,0,0,1-.13,2.13,15,15,0,0,1-2,4.82c-.49.81-1,1.61-1.52,2.4s-1,1.58-1.57,2.38-1,1.6-1.53,2.38-1,1.55-1.36,2.34c-.21.38-.4.76-.6,1.13l-.5,1.12c-.36.72-.53,1.45-.8,2.1s-.32,1.3-.49,1.86a12.3,12.3,0,0,0-.27,1.49c-.12.84-.21,1.33-.21,1.33s-.13-.47-.29-1.32a6.83,6.83,0,0,1-.2-1.57,12.19,12.19,0,0,1,0-2.07,14.15,14.15,0,0,1,.42-2.42c.12-.42.24-.86.37-1.3s.34-.86.51-1.3a30.43,30.43,0,0,1,2.79-5.16c.53-.79,1.09-1.63,1.67-2.4l1.68-2.21a20.57,20.57,0,0,0,2.49-4,8.8,8.8,0,0,0,.55-1.76,7.25,7.25,0,0,0,.13-1.45,5.75,5.75,0,0,0-.09-1C49.64,29.5,49.63,29.37,49.63,29.37Z"/><path class="cls-1" d="M10.64,16.36c0-3.67,1.56-4.87,2.58-6.66a23.11,23.11,0,0,1,4.3-4.81c1-.88,2.11-2,2.11-2a11.42,11.42,0,0,1,4.06-1.81c2.35-.51,3,.09,5.23.92.28.11.52.22.74.33A6.36,6.36,0,0,1,32.49.38a4.15,4.15,0,0,1,4.45.53l-1.64.25a7.8,7.8,0,0,1,4.85,1.1,10.65,10.65,0,0,1,2.94,2.63s-3.15-.71-1.11,0a16.35,16.35,0,0,1,5.46,3.28,15,15,0,0,1,4.15,5.63c.78,2.13-.4-1.11-2-2.31a11.18,11.18,0,0,0-2.81-1.62,21.4,21.4,0,0,1,4,6.4A23.83,23.83,0,0,1,52.73,28c-.59,9-4.9,12.33-4.9,12.33a6.66,6.66,0,0,0,1.4-2.44,7,7,0,0,0,.17-3c-.08.43-4.33,6.66-4.33,6.66A15.55,15.55,0,0,0,47.2,30.5a9.59,9.59,0,0,0-2.26-4.32c-.16-.22-.3-.43-.45-.65-2.06,2.62-6,3.72-6,3.72s2.51-2.68,2.82-4.65.18-6-2-8.34c-.3-.31-.65-.64-1-1a7.49,7.49,0,0,1,0,6.52,6.54,6.54,0,0,1-2.18,2.51,14.58,14.58,0,0,1-9.37,3.1,16.6,16.6,0,0,1-5.09-.79h0c-.26-.08-.51-.18-.76-.28-2.69-.85-11.16-2.66-7.12,10.4l0,.19h0a35.59,35.59,0,0,0,2.25,6.52s-2.12-3.72-3.84-6.79-1.93-5.94-1.77-9.84c0-.8.09-1.5.18-2.16a4.4,4.4,0,0,1-.59.67,4.23,4.23,0,0,1-2.53,1.17S10.73,24.68,10.64,16.36Z"/></g></g></svg>