<svg xmlns="http://www.w3.org/2000/svg" viewBox="0 0 47.57 77.15"><defs><style>.cls-1{fill:#dcc5a1;}.cls-2{fill:#edd9b4;}.cls-3,.cls-8{fill:#bc9f82;}.cls-3{opacity:0.7;}.cls-4{fill:#fff;}.cls-5{fill:#5a4f51;}.cls-6{fill:#895a59;}.cls-7{fill:#ccad8b;}.cls-9{fill:#d9bf9f;}.cls-10{fill:#b47070;}.cls-11{fill:#c17874;}.cls-12{fill:#422e14;}</style></defs><title>Ativo 79avatar</title><g id="Camada_2" data-name="Camada 2"><g id="Objects"><path class="cls-1" d="M23.45,44V77.15H5.38L4.94,77C4.94,59.19,16,57.87,16,57.87h.09a1.14,1.14,0,0,0,.24,0c.91-.25,1.53-1.59,2-3.51.08-.33.13-.67.19-1,.1-.61.19-1.26.25-1.92,0-.41.08-.81.12-1.23.16-2,.21-4.24.21-6.34C19.05,43.79,21.48,44,23.45,44Z"/><path class="cls-2" d="M42,77a4.19,4.19,0,0,0-.43.19H23.45V44h0c2,0,4.41-.24,4.41-.24,0,2.09.05,4.27.22,6.29,0,.4.08.81.11,1.2.08.69.16,1.35.26,2h0c0,.28.09.53.14.78.37,1.86.93,3.22,1.75,3.68l.18.08a1.14,1.14,0,0,0,.41.07S42,59.19,42,77Z"/><path class="cls-3" d="M28.47,53.25v0a5.84,5.84,0,0,1-5,2.71h0a6.31,6.31,0,0,1-5-2.7c.1-.61.18-1.25.25-1.92,0-.41.08-.81.11-1.23a19.86,19.86,0,0,0,4.56.6h.06a18.66,18.66,0,0,0,4.66-.65c0,.41.07.81.11,1.2C28.3,52,28.37,52.63,28.47,53.25Z"/><path class="cls-4" d="M29.48,68A6.44,6.44,0,1,1,23,61.57,6.43,6.43,0,0,1,29.48,68Z"/><path class="cls-5" d="M34.4,69.16a6.26,6.26,0,0,1-2.86-5.91l-.28,0-.28,0h-.24a.76.76,0,0,1-.21,0,1,1,0,0,1-.37-.17h0a1.87,1.87,0,0,1-.58-.49c-.21,1.46-.42,4.15-.68,4.89-2.89,7.83-8.07,8-10.85,0a47.74,47.74,0,0,1-.71-4.79,1.67,1.67,0,0,1-.95.57l-.24,0h-.27l-.49.08a6.26,6.26,0,0,1-2.86,5.91c-5.32,3.52-3.78,6.77-2.91,8H37.3C38.17,75.93,39.71,72.68,34.4,69.16Z"/><path class="cls-6" d="M24.67,62c.06,1.11-2.63,5.1-7.29,7.5C14.75,70.83,5,76.05,5,77,5,59.18,16,57.85,16,57.85h.09a1,1,0,0,0,.24-.05c.85-.24,1.45-1.4,1.85-3.09a12,12,0,0,0,4,1.63C23.94,56.5,24.6,60.88,24.67,62Z"/><path class="cls-6" d="M22.29,62c-.06,1.11,2.62,5.1,7.28,7.5C32.21,70.83,42,76.05,42,77c0-17.77-11.06-19.1-11.06-19.1h-.09a1.14,1.14,0,0,1-.24-.05c-.85-.24-1.44-1.4-1.85-3.09a11.86,11.86,0,0,1-4,1.63C23,56.5,22.35,60.88,22.29,62Z"/><path class="cls-7" d="M23.43,8.45c-18.86,0-19,15.06-18.13,24.91C4,31.05.19,31.91.5,35.6s5.71,5.15,5.63,4.76c1.54,8,10.43,12.48,17.3,13.11h.14v-45Z"/><path class="cls-8" d="M1.44,34a1.88,1.88,0,0,1,2.77-.5,1.45,1.45,0,0,1,.45,1.64c-.14.48-.67.52-.53,1.24a1.29,1.29,0,0,0,.76,1,1.75,1.75,0,0,1,.65.67,1.72,1.72,0,0,1,.08,1c-.15.59-1,.12-1.65-.14A11.35,11.35,0,0,1,2,37.5,3.13,3.13,0,0,1,1.44,34Z"/><path class="cls-9" d="M23.52,8.45c18.86,0,19,15.06,18.13,24.91,1.29-2.31,5.12-1.45,4.8,2.24s-5.7,5.15-5.62,4.76c-1.55,8-10.43,12.48-17.31,13.11h-.14v-45Z"/><path class="cls-8" d="M45.64,34a1.87,1.87,0,0,0-2.76-.5,1.45,1.45,0,0,0-.45,1.64c.13.48.66.52.53,1.24a1.29,1.29,0,0,1-.76,1,1.68,1.68,0,0,0-.65.67,1.72,1.72,0,0,0-.08,1c.14.59,1.05.12,1.65-.14a11.35,11.35,0,0,0,2-1.52A3.13,3.13,0,0,0,45.64,34Z"/><path class="cls-1" d="M23.33,12.72c-6.3,0-10.91,1.73-13.7,5.15-3.89,4.77-3.74,12.05-2.3,17.28.43,1.6.66,5.91,1,7.49,1.36,7.08,9.61,10.84,15,10.84h.15V12.73Z"/><path class="cls-2" d="M37,17.87c-2.77-3.39-7.33-5.12-13.52-5.14V53.48c6.2-.06,13.61-4.19,14.89-10.84.3-1.58.53-5.89,1-7.49C40.77,29.94,40.91,22.66,37,17.87Z"/><path class="cls-10" d="M26.65,47.09a5,5,0,0,1-3.18,1.52,4.73,4.73,0,0,1-3.1-1.49,20.33,20.33,0,0,1,3.1-.23A25.63,25.63,0,0,1,26.65,47.09Z"/><path class="cls-11" d="M24.37,46.39a.82.82,0,0,0-.9.69.82.82,0,0,0-.9-.69,12.66,12.66,0,0,0-2.28.7s1.74.18,2.23.18.94.2.95-.17c0,.37.37.23.86.23s2.32-.24,2.32-.24A12.66,12.66,0,0,0,24.37,46.39Z"/><path class="cls-12" d="M36.44,15.27c-1.67,2.91-1.2,6.21-6.84,8.37S21.44,26.39,15.3,29C1.37,34.92,8.52,48.61,8.52,48.61s-3.81-3.53-5.2-7.19-6.72-19.65,0-32.28C7,2.22,13.84.62,19.84.15s10.28,0,14.62,3.79c.94.81,3.65,1,6.63,3,6.65,4.46,6.1,11,6.39,15.23A30.14,30.14,0,0,1,45.76,35c-1.29,3.67-9.13,14.51-9.13,14.51s6.09-13.24,2.71-21.84c-2-5-5.53-4.75-5.68-6.71S36.44,15.27,36.44,15.27Z"/></g></g></svg>