<svg xmlns="http://www.w3.org/2000/svg" xmlns:xlink="http://www.w3.org/1999/xlink" viewBox="0 0 50.73 77.27"><defs><style>.cls-1{fill:none;}.cls-2{fill:#dddb1c;}.cls-3{fill:#70a63b;}.cls-4{clip-path:url(#clip-path);}.cls-5{fill:#4f8e3a;}.cls-6{fill:#3e4d7e;}.cls-7{fill:#fff;}.cls-8{fill:#a1bc31;}.cls-9{fill:#326535;}</style><clipPath id="clip-path"><rect class="cls-1" x="20.12" y="47.85" width="10.88" height="6.41"/></clipPath></defs><title>Ativo 31avatar</title><g id="Camada_2" data-name="Camada 2"><g id="Objects"><path class="cls-2" d="M25.53,41.27v36H5.9l-.48-.2c0-19.31,12-20.75,12-20.75,1.2,0,2-1.53,2.48-3.87a11.47,11.47,0,0,0,.2-1.13c.11-.65.21-1.35.28-2.08l.12-1.33c.18-2.21.24-4.61.24-6.89,0,0,2.64.26,4.77.26Z"/><path class="cls-3" d="M45.72,77.06l-.47.2H25.53v-36h0c2.14,0,4.79-.26,4.79-.26,0,2.26.06,4.64.24,6.84,0,.43.08.88.12,1.3.09.75.17,1.47.28,2.14h0c0,.31.1.58.15.85.51,2.49,1.31,4.16,2.55,4.16,0,0,12,1.44,12,20.75Z"/><g class="cls-4"><path class="cls-5" d="M31,51.28v0a6.35,6.35,0,0,1-5.44,3h0a6.85,6.85,0,0,1-5.41-2.93c.11-.66.21-1.36.28-2.09l.12-1.33a22,22,0,0,0,4.95.64h.06a20.83,20.83,0,0,0,5.07-.69c0,.43.08.88.12,1.3.09.75.17,1.47.28,2.13"/></g><path class="cls-6" d="M22.24,77.22l-.41-.86a.31.31,0,0,1,0-.1c-.28-.59-.56-1.16-.82-1.74s-.45-.94-.67-1.43c-.82-1.8-1.53-3.43-2-4.58a28.6,28.6,0,0,1-1.2-4.41c0-.18-.08-.37-.11-.54s0-.07,0-.11-.06-.36-.08-.53a1.64,1.64,0,0,1,0-.25,18.15,18.15,0,0,1,0-6.08,1,1,0,0,1,.05-.18c-2.27.53-11.51,3.71-11.51,20.65l.47.21H22.27Z"/><path class="cls-6" d="M28.9,77.22c.14-.27.27-.57.41-.86l.06-.1c.27-.59.54-1.16.82-1.74s.44-.94.66-1.43c.83-1.8,1.54-3.43,2-4.58A29.78,29.78,0,0,0,34,64.1c0-.18.07-.37.11-.54a.41.41,0,0,0,0-.11c0-.18.06-.36.09-.53s0-.16,0-.25a18.39,18.39,0,0,0,0-6.08c0-.07,0-.12,0-.18,2.27.53,11.52,3.71,11.52,20.65l-.47.21H28.88Z"/><path class="cls-7" d="M23.25,77.27H19.83c-.15-.18-.28-.35-.42-.5-7-8.29-8.08-14.39-8.08-14.39l2.89-1.44-1.79-1.3s.7-.88,2-2.18a10,10,0,0,1,1.41-1.16A12.77,12.77,0,0,1,18.09,55c-.09.11-.83,1.16-.63,6.17,0,.33,0,.65.08,1a1.09,1.09,0,0,0,0,.22,4.17,4.17,0,0,0,.08.49.41.41,0,0,0,0,.11c0,.17.06.34.09.5a46.25,46.25,0,0,0,2.88,8.3l.61,1.32c.24.53.51,1.08.74,1.6.16.31.29.6.43.88s.32.65.47,1l.36.75Z"/><path class="cls-7" d="M39.83,62.38s-1.08,6.1-8.09,14.39l-.43.5H27.93c.89-1.82,2-4,2.9-6.23a1.45,1.45,0,0,0,.08-.21s0,0,0,0A38.58,38.58,0,0,0,33.47,63s0-.1,0-.15.05-.35.08-.53,0-.13,0-.19c0-.34.06-.68.09-1A23,23,0,0,0,33.45,56c0-.15-.07-.28-.11-.4s0,0,0-.06a2,2,0,0,0-.25-.55,13.72,13.72,0,0,1,2.27,1.35h0a10.83,10.83,0,0,1,1.43,1.17c1.23,1.29,1.92,2.17,1.92,2.17l-1.78,1.3Z"/><path class="cls-8" d="M25.32,0C4.51,0,4.4,17.35,5.32,28.71,3.9,26-.33,26.85,0,31.09c.33,4.08,6.29,6.19,6.22,5.72,1.7,9.35,11.48,14.74,19.08,14.74h.15V0Z"/><path class="cls-3" d="M25.42,0c20.79,0,20.91,17.35,20,28.71,1.42-2.69,5.64-1.86,5.3,2.38-.33,4.08-6.29,6.19-6.21,5.72C42.79,46.16,33,51.55,25.42,51.55h-.16V0Z"/><path class="cls-2" d="M25.41,4.89c-6.84,0-11.85,2-14.89,5.9C6.29,16.24,6.46,24.58,8,30.57c.47,1.83.72,6.76,1.05,8.57,1.47,8.1,10.44,12.41,16.34,12.41h.16V4.9Z"/><path class="cls-8" d="M40.26,10.79c-3-3.88-7.95-5.86-14.69-5.89V51.54c6.74-.07,14.8-4.79,16.18-12.4.33-1.81.57-6.74,1-8.57,1.56-6,1.71-14.3-2.54-19.78Z"/><path class="cls-9" d="M29.12,44.28a15.79,15.79,0,0,0,4.13-1.94l1.32,1.44.58-.53-1.24-1.37A15.66,15.66,0,0,0,36,40l1.61,1.13.46-.64-1.53-1.08A18.69,18.69,0,0,0,38,37.53l1.51,1.07L40,38l-1.55-1.1a14.52,14.52,0,0,0,1.06-2.16l-.9-.32a13.67,13.67,0,0,1-1,1.92l-1.1-.77-.45.64,1.13.8a17.51,17.51,0,0,1-1.45,1.9l-1.11-.78-.45.64,1,.72a16.07,16.07,0,0,1-2,1.72l-.94-1-.58.53.87.95a14.75,14.75,0,0,1-3.77,1.76Z"/><polygon class="cls-8" points="0.01 30.63 0.58 17.74 5.86 27.37 5.75 29.66 0.01 30.63"/><polygon class="cls-3" points="50.73 30.63 50.16 17.74 44.88 27.37 44.98 29.66 50.73 30.63"/></g></g></svg>