<svg xmlns="http://www.w3.org/2000/svg" viewBox="0 0 48.63 74.88"><defs><style>.cls-1{fill:#28210d;}.cls-2{fill:#453514;}.cls-3{fill:#3b2812;}.cls-4{fill:#dcc5a1;}.cls-5{fill:#edd9b4;}.cls-6,.cls-8{fill:#bc9f82;}.cls-6{opacity:0.7;}.cls-7{fill:#ccad8b;}.cls-9{fill:#d9bf9f;}.cls-10{fill:#b47070;}.cls-11{fill:#c17874;}.cls-12{fill:#4b3018;}.cls-13{fill:#4b3118;}.cls-14{fill:#326535;}.cls-15{fill:#4f8e3a;}</style></defs><title>Ativo 56avatar</title><g id="Camada_2" data-name="Camada 2"><g id="Objects"><path class="cls-1" d="M13.87,31.39c-1.07,2.37-2.57,4.76-2.18,6.89,1.37,7.47.67,21.73,4.56,22.38C17,60.79,13.5,45.72,13.59,38c-.39-2.13.87-3.43,1.95-5.8-.2-1.07-.2-1.07-1.67-.83Z"/><path class="cls-2" d="M13.6,29.58c-1.06,2.36-2.48,4.67-2.28,7,.74,8.13-.7,23.14,2.59,24.41.63.25-1.47-16.24-.95-24.4-.21-2.32.95-3.51,2-5.87-.11-1.16-.11-1.16-1.37-1.13Z"/><path class="cls-2" d="M16.25,29.58c-1.05,2.36-2.48,4.67-2.27,7,.74,8.13-.7,23.14,2.58,24.41.63.25-1.47-16.24-.94-24.4-.21-2.32,1-3.51,2-5.87-.1-1.16-.1-1.16-1.37-1.13Z"/><path class="cls-2" d="M17.38,29.5c-1.06,2.35-2.48,4.67-2.27,7,.73,8.12-.71,23.13,2.58,24.41.63.24-1.47-16.25-1-24.4-.21-2.33,1-3.52,2-5.87-.1-1.17-.1-1.17-1.37-1.13Z"/><path class="cls-1" d="M14.52,33.05c-1.26,2.25-2.9,4.47-2.9,6.72,0,7.91-2.8,22.45.37,23.76.61.26,0-15.81,1.27-23.71,0-2.26,1.26-3.39,2.53-5.65,0-1.12,0-1.12-1.27-1.12Z"/><path class="cls-1" d="M21,33.05c-1.26,2.25-2.9,4.47-2.9,6.72,0,7.91-2.8,22.45.37,23.76.61.26,0-15.81,1.27-23.71,0-2.26,1.26-3.39,2.53-5.65,0-1.12,0-1.12-1.27-1.12Z"/><path class="cls-3" d="M13.2,30.54c-1.26,2.18-2.9,4.32-2.9,6.51,0,7.64-2.79,21.7.37,23,.61.24,0-15.28,1.27-22.93,0-2.19,1.26-3.27,2.53-5.46,0-1.09,0-1.09-1.27-1.09Z"/><path class="cls-1" d="M32.87,31.67c1.07,2.36,2.58,4.76,2.18,6.89C33.68,46,34.39,60.28,30.5,60.94c-.75.12,2.74-14.94,2.65-22.64.4-2.13-.87-3.43-1.95-5.8.2-1.07.2-1.07,1.67-.83Z"/><path class="cls-2" d="M34.46,30.37c1.26,2.33,2.9,4.6,2.9,6.93,0,8.13,2.8,23.09-.37,24.44-.61.27,0-16.26-1.27-24.39,0-2.33-1.26-3.49-2.53-5.82,0-1.16,0-1.16,1.27-1.16Z"/><path class="cls-2" d="M33.15,29.86c1.05,2.36,2.48,4.67,2.27,7-.74,8.13.7,23.14-2.59,24.41-.63.25,1.48-16.24,1-24.4.21-2.32-1-3.51-2-5.87.11-1.16.11-1.16,1.38-1.13Z"/><path class="cls-2" d="M30.49,29.86c1.06,2.36,2.48,4.67,2.27,7C32,45,33.46,60,30.18,61.26c-.63.25,1.47-16.24.94-24.4.21-2.32-.95-3.51-2-5.87.1-1.16.1-1.16,1.37-1.13Z"/><path class="cls-2" d="M29.36,29.78c1.06,2.35,2.48,4.66,2.27,7-.73,8.12.7,23.13-2.58,24.41-.63.24,1.47-16.25.95-24.41.21-2.32-.95-3.51-2-5.86.11-1.17.11-1.17,1.37-1.13Z"/><path class="cls-1" d="M32.22,33.32c1.26,2.26,2.9,4.48,2.9,6.73,0,7.91,2.8,22.44-.37,23.76-.6.25,0-15.81-1.27-23.71,0-2.26-1.26-3.39-2.53-5.65,0-1.13,0-1.13,1.27-1.13Z"/><path class="cls-1" d="M25.78,33.32c1.27,2.26,2.9,4.48,2.9,6.73,0,7.91,2.8,22.44-.37,23.76-.6.25,0-15.81-1.26-23.71,0-2.26-1.27-3.39-2.54-5.65,0-1.13,0-1.13,1.27-1.13Z"/><path class="cls-3" d="M33.53,30.82c1.27,2.18,2.91,4.32,2.91,6.5,0,7.65,2.8,21.71-.37,23-.61.24,0-15.28-1.27-22.93,0-2.18-1.27-3.27-2.53-5.46,0-1.09,0-1.09,1.26-1.09Z"/><path class="cls-4" d="M23,41.75V74.88H4.9l-.44-.2c0-1,0-1.84.09-2.69.75-10.81,6-14.53,8.93-15.8a8.5,8.5,0,0,1,2-.6h.09l.24-.05c.91-.26,1.53-1.59,2-3.5.08-.34.14-.68.19-1,.1-.62.19-1.26.25-1.93,0-.39.08-.8.12-1.22.16-2,.21-4.24.21-6.33C18.57,41.52,21,41.75,23,41.75Z"/><path class="cls-5" d="M41.54,74.68a4.41,4.41,0,0,0-.43.2H23V41.75h0c2,0,4.41-.23,4.41-.23,0,2.07,0,4.26.21,6.28l.12,1.2c.07.69.15,1.36.25,2v0c0,.27.09.53.14.77.38,1.87.94,3.23,1.75,3.68a1.08,1.08,0,0,0,.19.08,1.4,1.4,0,0,0,.4.07,8.5,8.5,0,0,1,2,.6c3,1.29,8.37,5.13,9,16.37C41.53,73.24,41.54,73.94,41.54,74.68Z"/><path class="cls-6" d="M28,51h0a5.82,5.82,0,0,1-5,2.72h0A6.31,6.31,0,0,1,18,51c.1-.61.19-1.25.26-1.92,0-.4.07-.81.11-1.22a19.87,19.87,0,0,0,4.56.59H23a18.68,18.68,0,0,0,4.67-.64c0,.4.07.81.11,1.2C27.82,49.7,27.89,50.36,28,51Z"/><path class="cls-7" d="M23,6.17C4.09,6.14,4,21.24,4.82,31.08,3.53,28.77-.3,29.63,0,33.33c.3,3.54,5.7,5.15,5.63,4.76,1.54,8,10.43,12.48,17.3,13.11h.14v-45Z"/><path class="cls-8" d="M1,31.76a1.87,1.87,0,0,1,2.77-.49,1.43,1.43,0,0,1,.44,1.64c-.13.48-.66.51-.52,1.23a1.26,1.26,0,0,0,.76,1,1.9,1.9,0,0,1,.65.67,1.84,1.84,0,0,1,.08,1c-.15.58-1,.11-1.65-.14a11.92,11.92,0,0,1-2-1.53A3.13,3.13,0,0,1,1,31.76Z"/><path class="cls-9" d="M23,6.17c18.86,0,19,15.07,18.13,24.91,1.29-2.31,5.12-1.45,4.8,2.25-.3,3.54-5.7,5.15-5.63,4.76C38.8,46.11,29.91,50.57,23,51.2H22.9v-45Z"/><path class="cls-8" d="M45.16,31.76a1.87,1.87,0,0,0-2.77-.49A1.46,1.46,0,0,0,42,32.91c.13.48.66.51.53,1.23a1.27,1.27,0,0,1-.76,1c-.23.19-.51.33-.65.67a1.76,1.76,0,0,0-.09,1c.15.58,1.05.11,1.65-.14a11.52,11.52,0,0,0,2-1.53A3.11,3.11,0,0,0,45.16,31.76Z"/><path class="cls-4" d="M22.85,10.44c-6.3,0-10.91,1.74-13.7,5.15-3.89,4.77-3.74,12.06-2.3,17.29.43,1.6.66,5.91,1,7.49,1.36,7.07,9.61,10.84,15,10.84H23V10.45Z"/><path class="cls-5" d="M36.51,15.6c-2.76-3.4-7.32-5.12-13.51-5.15V51.21c6.2-.07,13.61-4.2,14.88-10.84.31-1.58.53-5.89,1-7.49C40.29,27.66,40.43,20.38,36.51,15.6Z"/><path class="cls-10" d="M26.17,44.81A5,5,0,0,1,23,46.33a4.74,4.74,0,0,1-3.1-1.48,20.33,20.33,0,0,1,3.1-.23A27,27,0,0,1,26.17,44.81Z"/><path class="cls-11" d="M23.89,44.12a.82.82,0,0,0-.9.68.82.82,0,0,0-.9-.68,12.79,12.79,0,0,0-2.28.69S21.55,45,22,45s.94.19.95-.18c0,.38.36.23.86.23s2.32-.24,2.32-.24A13.06,13.06,0,0,0,23.89,44.12Z"/><path class="cls-1" d="M33,11.63c1.43,3.42,3.26,6.84,3.34,10.08.33,11.38,3.88,32.7.58,34.15-.64.28-.64-22.75-2.3-34.31-.1-3.25-1.48-5.05-2.92-8.48,0-1.62,0-1.62,1.3-1.44Z"/><path class="cls-2" d="M38.79,13.66c1.35,3,3.1,6,3.1,9,0,10.6,3,30.12-.39,31.88-.66.34,0-21.21-1.36-31.82,0-3-1.35-4.55-2.71-7.58,0-1.51,0-1.51,1.36-1.51Z"/><path class="cls-1" d="M38,24.24c0,12,2.49,34-.33,36-.54.38.31-18.65-1-34.53C35.31,10.16,23.63,13,22.5,9.57c0-1.71,5.69.46,6.72.87C37.57,13.83,38,20.81,38,24.24Z"/><path class="cls-1" d="M39.79,24C39.4,36,41.15,58,38.27,60c-.55.36.93-18.64.13-34.55C37.61,9.84,25.84,12.35,24.82,8.9c.06-1.72,5.67.61,6.69,1C39.75,13.56,39.91,20.55,39.79,24Z"/><path class="cls-2" d="M38.57,21.36c0,12,2.49,34-.33,36-.54.38.32-18.65-1-34.54C35.92,7.29,23.92,10.05,22.79,6.63c0-1.71,6,.52,7,.94C38.18,11,38.57,17.94,38.57,21.36Z"/><path class="cls-3" d="M37.49,22.68c0,12.25,2.55,34.79-.33,36.83-.56.39.32-19.07-1-35.32-1.34-15.9-13.28-13-14.43-16.51,0-1.75,5.81.47,6.86.9C37.09,12,37.49,19.18,37.49,22.68Z"/><path class="cls-12" d="M40.65,21.45c0,12.26,2.55,34.79-.34,36.83-.55.39.32-19.07-1-35.32-1.34-15.9-15-13.07-16.18-16.57,0-1.76,7.55.53,8.6,1C40.24,10.81,40.65,18,40.65,21.45Z"/><path class="cls-3" d="M41.65,16.57c3.63,11.52,2.55,32.1.44,34.71-.4.51,1.95-12.22-1-31C38.66,4.86,23.6,7.44,22.33,6.3s5.61-1,6.73-.82C38.11,6.66,40.61,13.28,41.65,16.57Z"/><path class="cls-3" d="M37.42,25.84c0,12.25,2.56,34.79-.33,36.83-.55.39.32-19.08-1.05-35.33-1.33-15.89-13.28-13-14.43-16.5,0-1.75,5.81.47,6.86.89C37,15.19,37.42,22.34,37.42,25.84Z"/><path class="cls-12" d="M36.72,27.55c0,12.25,2,34.79-.26,36.83-.43.39.25-19.08-.82-35.32C34.6,13.16,23.9,16,23,12.49c0-1.75,5.9.53,6.72,1C36.41,16.9,36.72,24.05,36.72,27.55Z"/><path class="cls-1" d="M12.18,11.31c-1.31,3.48-3,7-3,10.21.09,11.38-2.69,32.81.66,34.14.64.26-.18-22.76,1.06-34.37,0-3.25,1.3-5.1,2.61-8.58,0-1.62,0-1.62-1.35-1.4Z"/><path class="cls-2" d="M7.15,13.43c-1.36,3-3.11,6-3.11,9,0,10.61-3,30.12.4,31.89.64.34,0-21.22,1.35-31.83,0-3,1.36-4.54,2.71-7.57,0-1.52,0-1.52-1.35-1.52Z"/><path class="cls-1" d="M8,24c0,12-2.49,34,.33,36,.54.38-.32-18.66,1-34.54,1.31-15.54,13-12.71,14.12-16.13,0-1.71-5.69.45-6.72.87C8.36,13.6,8,20.59,8,24Z"/><path class="cls-1" d="M6.13,23.75c.41,12-1.35,34.06,1.53,36,.55.36-.93-18.63-.12-34.54C8.32,9.61,20.09,12.12,21.11,8.67c-.06-1.71-5.67.62-6.69,1.06C6.18,13.33,6,20.33,6.13,23.75Z"/><path class="cls-2" d="M7.36,21.13c0,12-2.49,34,.33,36,.54.38-.31-18.65,1-34.53C10,7.06,22.13,10.22,23.26,6.79c0-1.71-6.12.14-7.15.56C7.75,10.73,7.36,17.71,7.36,21.13Z"/><path class="cls-3" d="M8.44,22.45c0,12.26-2.55,34.8.34,36.84.55.39-.33-19.08,1-35.32C11.15,8.06,23.1,11,24.26,7.46c0-1.75-5.82.47-6.87.89C8.84,11.81,8.44,19,8.44,22.45Z"/><path class="cls-3" d="M8.37,25.61c0,12.26-2.55,34.79.34,36.84.55.38-.33-19.08,1-35.33,1.34-15.9,13.29-13,14.44-16.51,0-1.75-5.81.47-6.87.9C8.78,15,8.37,22.11,8.37,25.61Z"/><path class="cls-13" d="M5.29,21.22c0,12.26-2.55,34.8.33,36.84.55.39-.32-19.08,1-35.32C8,6.83,22.28,9.92,23.43,6.42c0-1.75-8.14.28-9.2.7C5.69,10.58,5.29,17.73,5.29,21.22Z"/><path class="cls-13" d="M9.08,27.32c0,12.26-2,34.8.26,36.84.43.39-.25-19.08.82-35.33,1-15.9,12.2-12.81,13.1-16.31,0-1.76-6.36.28-7.18.7C9.39,16.68,9.08,23.83,9.08,27.32Z"/><path class="cls-3" d="M4.28,16.35C.65,27.87,1.73,48.44,3.84,51.06c.4.5-1.95-12.23,1-31C7.26,4.63,22.33,7.21,23.6,6.07s-5.61-1-6.72-.82C7.81,6.43,5.32,13.06,4.28,16.35Z"/><path class="cls-14" d="M32.52,56.19A10.06,10.06,0,0,1,23,62.68h0a9.15,9.15,0,0,1-6.73-2.83c-.07-2.49-.17-4.4-.17-4.4a7.3,7.3,0,0,0-2,.33,4.9,4.9,0,0,0-1.56.86h0c-3.27,1.75-8.1,6.31-8.1,18l.44.2H41.11a4.41,4.41,0,0,1,.43-.2C41.54,61.79,35.72,57.56,32.52,56.19Z"/><path class="cls-15" d="M33.12,18.42a5.33,5.33,0,0,1-5.34,5.32H8.24A5.33,5.33,0,0,1,2.9,18.42h0a5.34,5.34,0,0,1,5.34-5.33H27.78a5.34,5.34,0,0,1,5.34,5.33Z"/><path class="cls-14" d="M46,26.24A56.65,56.65,0,0,0,39,11.11a9.87,9.87,0,0,0-1.55-1.68,1.6,1.6,0,0,0,.5-.91c.11-1,.58-2.94-.8-2.25s.29,1-.47,2.09C35.91,7.27,33.37,5,25.26,2,13.58-2.31,10.56,1.38,6.7,3.3s-4,3.85-3.54,5.1,1,5.16,1.77,6.2,4.34-.4,11.26,5.68,21.08,9,25.26,14.66,6.11,3.79,6.11,3.79.49-1.12,1-2.4S47.72,33,46,26.24Z"/></g></g></svg>