<svg xmlns="http://www.w3.org/2000/svg" viewBox="0 0 50.61 73.41"><defs><style>.cls-1{fill:#7491c6;}.cls-2{fill:#dcc5a1;}.cls-3{fill:#edd9b4;}.cls-4,.cls-6{fill:#bc9f82;}.cls-4{opacity:0.7;}.cls-5{fill:#ccad8b;}.cls-7{fill:#d9bf9f;}.cls-8{fill:#b47070;}.cls-9{fill:#c17874;}.cls-10{fill:#3c4c82;}.cls-11{fill:#010300;}</style></defs><title>Ativo 78avatar</title><g id="Camada_2" data-name="Camada 2"><g id="Objects"><path class="cls-1" d="M30.21,39a11.54,11.54,0,0,0-4.77,1,11.59,11.59,0,0,0-18,9.58c0,1.59-2.85,4.63-2.27,6A8.8,8.8,0,0,0,6.68,58C8.8,60.61,15.38,61.1,19,61.1a11.51,11.51,0,0,0,4.77-1,11.54,11.54,0,0,0,6.46,2c4.18,0,10.63-.35,12.67-3.66a11.86,11.86,0,0,0,.88-1.83c.53-1.32-2-4.54-2-6A11.57,11.57,0,0,0,30.21,39Z"/><path class="cls-2" d="M25.19,40.29V73.41H7.12a4.22,4.22,0,0,0-.44-.19,28.67,28.67,0,0,1,1.53-9.95c2.13-5.87,6-8,8.06-8.76a8.1,8.1,0,0,1,1.47-.4h.09l.24,0c.61-.17,1.09-.83,1.47-1.82A11.38,11.38,0,0,0,20,50.57c.08-.34.14-.68.19-1,.1-.62.19-1.25.25-1.93,0-.39.08-.8.12-1.21.16-2,.21-4.26.21-6.34C20.79,40.05,23.23,40.29,25.19,40.29Z"/><path class="cls-3" d="M43.77,73.22a2.77,2.77,0,0,0-.44.19H25.19V40.29h0c2,0,4.41-.24,4.41-.24,0,2.07.05,4.25.21,6.28,0,.4.08.8.11,1.21.08.68.16,1.35.26,2v0c0,.27.09.53.14.77A12.11,12.11,0,0,0,31,52.53h0A2.76,2.76,0,0,0,32.11,54a.66.66,0,0,0,.19.09,1.34,1.34,0,0,0,.4.06,7.17,7.17,0,0,1,.89.19c2,.6,6.88,2.75,9.07,10.26a27.55,27.55,0,0,1,1.05,6.72C43.75,71.91,43.77,72.55,43.77,73.22Z"/><path class="cls-4" d="M30.21,49.51h0a5.84,5.84,0,0,1-5,2.71h0a6.28,6.28,0,0,1-5-2.7c.1-.61.18-1.25.25-1.92,0-.4.07-.81.11-1.22a20.44,20.44,0,0,0,4.56.59h.05a19,19,0,0,0,4.66-.64L30,47.53C30,48.23,30.11,48.88,30.21,49.51Z"/><path class="cls-5" d="M25.17,4.7C6.31,4.66,6.2,19.76,7,29.61c-1.3-2.31-5.12-1.45-4.8,2.25.3,3.54,5.7,5.14,5.63,4.75,1.54,8,10.43,12.48,17.3,13.12h.14V4.7Z"/><path class="cls-6" d="M3.19,30.29A1.86,1.86,0,0,1,6,29.8a1.43,1.43,0,0,1,.44,1.64c-.13.47-.66.51-.53,1.23a1.31,1.31,0,0,0,.77,1,1.73,1.73,0,0,1,.64.67,1.65,1.65,0,0,1,.09,1c-.15.59-1.05.12-1.65-.14a11.35,11.35,0,0,1-2-1.52A3.11,3.11,0,0,1,3.19,30.29Z"/><path class="cls-7" d="M25.26,4.7c18.86,0,19,15.06,18.13,24.91,1.29-2.31,5.12-1.45,4.8,2.25-.3,3.54-5.7,5.14-5.62,4.75-1.55,8-10.44,12.48-17.31,13.12h-.14V4.7Z"/><path class="cls-6" d="M47.38,30.29a1.86,1.86,0,0,0-2.76-.49,1.43,1.43,0,0,0-.45,1.64c.13.47.66.51.53,1.23a1.28,1.28,0,0,1-.77,1,1.45,1.45,0,0,0-.72,1.69c.14.59,1,.12,1.65-.14a11.35,11.35,0,0,0,2-1.52A3.13,3.13,0,0,0,47.38,30.29Z"/><path class="cls-2" d="M25.07,9c-6.3,0-10.91,1.73-13.7,5.15C7.48,18.89,7.63,26.17,9.06,31.4c.44,1.6.67,5.91,1,7.5,1.36,7.07,9.61,10.84,15,10.84h.15V9Z"/><path class="cls-3" d="M38.74,14.13C36,10.73,31.41,9,25.22,9V49.73c6.2-.06,13.61-4.19,14.89-10.83.3-1.59.52-5.9,1-7.5C42.5,26.19,42.65,18.91,38.74,14.13Z"/><path class="cls-8" d="M28.39,43.34a5,5,0,0,1-3.18,1.52,4.73,4.73,0,0,1-3.1-1.49,21.24,21.24,0,0,1,3.1-.22A27,27,0,0,1,28.39,43.34Z"/><path class="cls-9" d="M26.11,42.64a.82.82,0,0,0-.9.69.83.83,0,0,0-.9-.69,12.66,12.66,0,0,0-2.28.7s1.74.19,2.24.19.93.19.94-.18c0,.37.36.23.86.23s2.32-.24,2.32-.24A12.66,12.66,0,0,0,26.11,42.64Z"/><path class="cls-10" d="M44,43.33c-.08,1.66-.17,1.84.61,3.13s1.7,1.8.83,3.28-2.31,1.65-2.22,2.95,1.66,1.91,1.39,3.66c-.24,1.58-2.73,3.23-3.2,3.52.38-.28,2-1.55,1.76-3.16-.26-1.82-.47-1.91-2.38-3s-2.21-1.5-1.68-3,2.27-1.61,1-3.18S38,45,38.34,44s-.23-1.66,1.32-3.51c1-1.12.82-3.66.82-4.79s1.56-6.61-1-9c-.46-.43-1.23-1.41-2.17-2.55-.76-.93-1.63-2-2.51-2.9a13.91,13.91,0,0,1-2.29-3.62c-.57-1.21-.94-2.21-1-2.44,0,.26.18,1.44.3,2.36,0,.34.08.64.09.87a5.35,5.35,0,0,0,2,3.85,17.47,17.47,0,0,1-4.3-3.38,7.56,7.56,0,0,1-1-1.69,6.28,6.28,0,0,1-.13-4.64,22.49,22.49,0,0,1-3.12,4c-.12.12-.25.22-.37.33a43.19,43.19,0,0,1-4.93,3.39,13.15,13.15,0,0,0,2.69-3.56,5.39,5.39,0,0,0,.34-.68c.32-.79,1.65-4.88,1.65-4.88a59.37,59.37,0,0,1-3.37,5.47,20.17,20.17,0,0,1-3.59,4c-.51.4-1.19,1-2,1.6C13.12,24.45,9.3,27.93,9,29.84c-.43,2.43.79,7.75,1.57,9.92s.88,2.88,0,3.75-3,2.44-2.7,3.22,1.66,2.08,1.4,3.13-3.13,3.55-3.5,5c-.63,2.49,3.15,4.61,3.6,4.85-.46-.15-5.57-2.12-5-4.76.38-1.72.08-2-.88-3.31s-2.35-3.48-1-4.78S5.55,44,5.12,42.55,0,30.83,0,27.21a31.55,31.55,0,0,1,.65-5.4,43.23,43.23,0,0,1,1.63-6.13C3.77,11.53,6.05,7.39,9.51,5.15,16.93.37,22.16-.38,24.78.23s5.29-.46,6-.18,7.4,3.09,9.93,6c1.95,2.23,6.79,7.64,8.89,13.93a17.56,17.56,0,0,1,1,5.73c0,.21,0,.42,0,.64C50.28,34.57,44.09,41.72,44,43.33Z"/><path class="cls-11" d="M39.3,64.75c-2.58-4.4-4.39-7.51-5.19-10.24a8.1,8.1,0,0,0-1.47-.4h-.09l-.24,0c-.61-.17-1.09-.83-1.47-1.82a6.55,6.55,0,0,1-1.26.46c-1.6.46-4.31,1.14-4.31,1.14a64.94,64.94,0,0,1,2.62,6.5c1.06,3.1-.63,5.42-2.7,5.51-2.06-.09-3.76-2.41-2.7-5.51a64.94,64.94,0,0,1,2.62-6.5s-2.7-.68-4.32-1.14a6.68,6.68,0,0,1-1.25-.46c-.38,1-.86,1.65-1.47,1.82l-.24,0h-.09a8.1,8.1,0,0,0-1.47.4c-.8,2.73-2.61,5.84-5.19,10.24-1.44,2.43-.44,6.81.39,8.66H38.91C39.74,71.72,40.73,67.18,39.3,64.75Z"/></g></g></svg>