<svg xmlns="http://www.w3.org/2000/svg" xmlns:xlink="http://www.w3.org/1999/xlink" viewBox="0 0 60.51 77.75"><defs><style>.cls-1{fill:none;}.cls-2{fill:#ccad8b;}.cls-3{fill:#d9bf9f;}.cls-4{fill:#ecedef;}.cls-5{fill:#c2c3c8;}.cls-6{fill:#b47070;}.cls-7{fill:#c17874;}.cls-8{fill:#dcc5a1;}.cls-9{fill:#edd9b4;}.cls-10{clip-path:url(#clip-path);}.cls-11{fill:#bc9f82;}.cls-12{fill:#d7d8dc;}.cls-13{fill:#adacb2;}.cls-14{fill:#99989d;}.cls-15{fill:#211915;}</style><clipPath id="clip-path"><rect class="cls-1" x="23.44" y="48.84" width="10.68" height="6.29"/></clipPath></defs><title>Ativo 26avatar</title><g id="Camada_2" data-name="Camada 2"><g id="Objects"><path class="cls-2" d="M28.74,4.42C8.63,4.38,8.51,20.49,9.4,31,8,28.53,3.94,29.44,4.27,33.39c.33,3.78,6.09,5.49,6,5.07,1.64,8.56,11.12,13.32,18.45,14h.16v-48Z"/><path class="cls-3" d="M28.84,4.42C49,4.38,49.08,20.49,48.18,31c1.38-2.46,5.46-1.55,5.13,2.4-.32,3.78-6.09,5.49-6,5.07-1.64,8.56-11.13,13.32-18.46,14h-.15v-48Z"/><path class="cls-4" d="M18.19,6.49a24.3,24.3,0,0,0,26.19,4,20.24,20.24,0,0,1,2.37,4.15S27.84,20.46,15,8.57A8.1,8.1,0,0,1,18.19,6.49Z"/><path class="cls-5" d="M20.94,5.43s2.74,9.82,21.78,3.27a17.15,17.15,0,0,0-4.06-2.54S27.21,11.59,25.53,4.54C25.53,4.54,21.73,4.85,20.94,5.43Z"/><path class="cls-4" d="M9.18,24.48S24.67,21.42,23.44,4.84a49.75,49.75,0,0,1,5.25-.42S28,23.05,9.44,30.76C9.44,30.76,8.45,26.22,9.18,24.48Z"/><path class="cls-6" d="M32.18,45.39A5.36,5.36,0,0,1,28.8,47a5.05,5.05,0,0,1-3.31-1.59,22.19,22.19,0,0,1,3.31-.24,27.57,27.57,0,0,1,3.38.21Z"/><path class="cls-7" d="M29.75,44.64a.86.86,0,0,0-.95.74.89.89,0,0,0-1-.74,13.52,13.52,0,0,0-2.43.75s1.85.2,2.38.2,1,.2,1-.19c0,.39.39.24.92.24s2.47-.25,2.47-.25a13.52,13.52,0,0,0-2.43-.75Z"/><path class="cls-8" d="M28.76,42.38V77.71H9.47L9,77.51a29,29,0,0,1,2.25-12.14c3.43-7.5,9.55-8.23,9.55-8.23,1.18,0,1.93-1.5,2.43-3.79.08-.36.15-.72.21-1.11.11-.65.2-1.33.27-2.05l.12-1.3c.17-2.17.23-4.53.23-6.77,0,0,2.59.26,4.7.26Z"/><path class="cls-9" d="M48.57,77.51l-.46.2H28.76V42.38h0c2.09,0,4.71-.26,4.71-.26,0,2.23,0,4.56.22,6.71.05.44.09.87.13,1.28.08.74.16,1.44.27,2.11h0c.05.3.09.56.15.83.5,2.44,1.28,4.08,2.5,4.08,0,0,6.23.74,9.63,8.42a29.16,29.16,0,0,1,2.17,12Z"/><g class="cls-10"><path class="cls-11" d="M34.12,52.22h0a6.22,6.22,0,0,1-5.34,2.9h0a6.75,6.75,0,0,1-5.31-2.89c.11-.64.21-1.33.27-2,0-.43.08-.87.13-1.31a21.22,21.22,0,0,0,4.86.64h.05a20.57,20.57,0,0,0,5-.69c0,.43.08.86.13,1.27.07.75.15,1.45.26,2.11"/></g><path class="cls-4" d="M32.46,54s-3.17,15.08-20.07,9.28c0,0-1.38,2.62-1.55,3.08,0,0,13.93,5.86,25.93-9.2,0,0-2.15.41-2.75-5.57C34,51.57,34.26,52.48,32.46,54Z"/><path class="cls-12" d="M21.78,56.74s12.69,17.32,26.16,15a11.8,11.8,0,0,0-.28-2.44S36,69.78,23,54.43C23,54.43,22.65,55.13,21.78,56.74Z"/><path class="cls-4" d="M23.8,77.6s14-9.18,13-20.46c0,0,3.76,1.19,5.08,2.38,0,0-.83,12.28-10.84,18.08Z"/><path class="cls-13" d="M16.57,59s8.2,15.46,19.49,18.62h4.26S20.49,63.88,19.68,57.41C19.68,57.41,16.73,58.09,16.57,59Z"/><path class="cls-13" d="M10.14,77.75S30,76.23,45.39,63.61a12.84,12.84,0,0,0-3.54-4.09s1.38,7.74-32.8,15.89L9,77.51l.47.2Z"/><path class="cls-4" d="M10,69s7.49,8.46,17.64,8.61h2.59S12.72,70.34,11.39,65.19C11.39,65.19,10.2,68.07,10,69Z"/><path class="cls-8" d="M28.61,9C21.89,9,17,10.84,14,14.48c-4.15,5.1-4,12.88-2.44,18.45.47,1.71.72,6.3,1,8,1.47,7.55,10.27,11.55,16.07,11.54h.16L28.76,9Z"/><path class="cls-9" d="M43.2,14.45C40.23,10.84,35.37,9,28.76,9l.07,43.48c6.61-.08,14.51-4.49,15.86-11.58.32-1.69.56-6.29,1-8,1.52-5.56,1.66-13.33-2.51-18.43Z"/><path class="cls-4" d="M10.84,14.6s18.72,18.71,37.44,6.74l-.34-3.26S31.27,28.2,12.19,11.88Z"/><path class="cls-14" d="M9.4,31s27.3-1.63,32-23.3L38.66,6.16S34.25,25.72,9.18,27.62Z"/><path class="cls-12" d="M9.18,24.48s18.69,19.08,39,6.07L48.43,27s-18.25,10.91-39-6.82Z"/><path class="cls-5" d="M4.78,35A38.5,38.5,0,0,0,41,47.85l3.38-3.21S21.19,47.17,4.48,31.55A5.16,5.16,0,0,0,4.78,35Z"/><path class="cls-4" d="M15,46.57s3-4.11,33.26-16.81l-.34,4.36S14.32,45.8,18.18,48.93C18.18,48.93,15.28,47.43,15,46.57Z"/><path class="cls-4" d="M4.48,31.55s1.39-3.84,4.75-.83c0,0,16.23,18.12,38.07,7.74,0,0-.95,4.16-2.92,6.18,0,0-23.87,4.68-39.9-12.74Z"/><path class="cls-12" d="M28.69,4.42s3.23,29.8-17.13,37.7A16.17,16.17,0,0,0,15,46.57S38.59,28,34.89,5A19.52,19.52,0,0,0,28.69,4.42Z"/><path class="cls-15" d="M10.55,48.88l0,.06C10.67,49.05,10.65,49,10.55,48.88Z"/><path class="cls-15" d="M56.91,24.13a8.6,8.6,0,0,0,3.6-1,6.14,6.14,0,0,1-4.73-.48c-2.51-1.39-3.29-2.21-4.35-4.76s-.12-2.57-1.18-4.57-.68-3.81-1.9-5.61c-1.88-2.75-7.57-3.12-7.8-3.45-1.12-1.57-1.4-1.26-1.8-.89,0-1.31-.4-1.41-.57-2.21,0,0-.38-1.67-1.39-1-.25.18-1.24.16-1.35.5a21,21,0,0,0-4.12,0C28.93.86,25.4,0,19.76,1.3,14.89,2.42,13.51,4,9.93,7.37a14.67,14.67,0,0,0-3,5.41C3.79,15.64.45,20.63,0,29.34-.14,32.82,2.22,37,2.22,37a17.8,17.8,0,0,1,.1-5.65A11.07,11.07,0,0,1,6,24.73a10.66,10.66,0,0,0-2.7,5.86,20.11,20.11,0,0,0,2,12.15c1.25,2.57,4.61,5.89,5.33,6.8a9,9,0,0,1-.59-3,18,18,0,0,0,5.42,4.24l-1.66-2.33a37.33,37.33,0,0,1-2.6-6.95,12.08,12.08,0,0,1,.62-7.05,22.77,22.77,0,0,0,.39,3.4c1.66,5.12,5.07,6.4,5.07,6.4s-4.65-7.61-.86-16a38.44,38.44,0,0,1,4.2-6.14,19.09,19.09,0,0,0-2.46,4.47,7.74,7.74,0,0,0,.65,5.06c.21-.89-.19-2.23.92-4.09s3.33-2.1,5.76-2.74a11.79,11.79,0,0,0,4.55,1A9.77,9.77,0,0,0,39.6,15.61a14.38,14.38,0,0,1-.29,5.59,10.83,10.83,0,0,1-4.43,5.3s5.25-.82,7-3.78a12.4,12.4,0,0,0,1.21-3.15c-.27,2,.18,5.56,1,6.89a9.35,9.35,0,0,1,.75,2c.5,2,1.18,5.79.07,8S40,41.19,40,41.19a14.55,14.55,0,0,0,6.31-3,15.19,15.19,0,0,0-1.14,5.86c.47,4.14-4.35,7.22-4.35,7.22C46.08,50,50,44.77,51,39.32a15.08,15.08,0,0,0-.67-6.86,7.72,7.72,0,0,1,1.44,4.17,12.7,12.7,0,0,1-.84,6.23s4.64-4.22,4.52-6.64S57,31.79,56,28.08c-.32-1.23-2.88-4.66-2.88-4.66l-1.21-1A8.25,8.25,0,0,0,56.91,24.13ZM32.78,21.61c-1.85,2.76-5.15,3.07-6.79,3a11.19,11.19,0,0,0,2.88-1.25c3.72-2.27,5.49-5.93,5.5-7.19h0C33.92,19.29,34,19.72,32.78,21.61Z"/></g></g></svg>