<svg xmlns="http://www.w3.org/2000/svg" xmlns:xlink="http://www.w3.org/1999/xlink" viewBox="0 0 49.27 78.18"><defs><style>.cls-1{fill:none;}.cls-2{fill:#211915;}.cls-3{fill:#dcc5a1;}.cls-4{fill:#edd9b4;}.cls-5{clip-path:url(#clip-path);}.cls-6{fill:#bc9f82;}.cls-7{fill:#ccad8b;}.cls-8{fill:#d9bf9f;}.cls-9{fill:#b47070;}.cls-10{fill:#c17874;}.cls-11{fill:#4f4e49;}.cls-12{fill:#f8f7e0;}</style><clipPath id="clip-path"><rect class="cls-1" x="19.26" y="49.24" width="10.72" height="6.31"/></clipPath></defs><title>Ativo 16avatar</title><g id="Camada_2" data-name="Camada 2"><g id="Objects"><path class="cls-2" d="M44.58,41.64c-2.72,10.92-8.82,13.21-19.71,13.21S5.15,48.94,5.15,41.64,14,28.44,24.87,28.44s21.48,6.14,19.71,13.2Z"/><path class="cls-3" d="M24.6,42.77V78.18H5.24L4.77,78c0-15.62,8-19.35,10.87-20.18a6.5,6.5,0,0,1,1-.22h.1c.07,0,.17,0,.25-.06,1-.27,1.65-1.7,2.09-3.75.08-.36.15-.72.2-1.11.12-.65.2-1.34.28-2.06l.12-1.3c.18-2.18.23-4.54.23-6.78,0,0,2.61.26,4.71.26Z"/><path class="cls-4" d="M44.5,78l-.46.21H24.6V42.77h0c2.09,0,4.72-.26,4.72-.26,0,2.23.05,4.56.22,6.72.05.44.09.87.13,1.29.08.74.16,1.44.27,2.1v0c0,.29.1.57.15.83.41,2,1,3.44,1.87,3.93a.76.76,0,0,0,.21.08,1,1,0,0,0,.43.09,6.22,6.22,0,0,1,.92.2c2.78.79,10.93,4.47,10.93,20.2Z"/><g class="cls-5"><path class="cls-6" d="M30,52.63h0a6.27,6.27,0,0,1-5.37,2.91h0a6.78,6.78,0,0,1-5.34-2.89c.11-.65.2-1.34.27-2.06,0-.43.09-.86.13-1.3a21.91,21.91,0,0,0,4.88.63h.06a20.17,20.17,0,0,0,5-.69c.05.43.09.87.13,1.28.07.75.16,1.45.27,2.11"/></g><path class="cls-7" d="M24.58,4.71C4.38,4.68,4.26,20.82,5.17,31.35,3.78,28.88-.31,29.8,0,33.75c.32,3.8,6.11,5.52,6,5.09,1.66,8.59,11.18,13.35,18.54,14h.15V4.72Z"/><path class="cls-6" d="M1,32.09a2,2,0,0,1,3-.54,1.54,1.54,0,0,1,.48,1.76c-.14.51-.71.54-.57,1.32s.58.92.82,1.13a1.84,1.84,0,0,1,.7.71,2,2,0,0,1,.09,1.09c-.16.63-1.13.13-1.77-.15a12.05,12.05,0,0,1-2.13-1.63A3.35,3.35,0,0,1,1,32.09Z"/><path class="cls-8" d="M24.69,4.71C44.88,4.68,45,20.82,44.1,31.35c1.38-2.47,5.48-1.55,5.15,2.4-.33,3.8-6.11,5.52-6,5.09-1.65,8.59-11.16,13.35-18.52,14h-.16V4.72Z"/><path class="cls-6" d="M48.38,32.09a2,2,0,0,0-3-.54,1.54,1.54,0,0,0-.49,1.76c.15.51.71.54.58,1.32a1.42,1.42,0,0,1-.83,1.13,1.54,1.54,0,0,0-.78,1.8c.16.63,1.12.13,1.77-.15a11.64,11.64,0,0,0,2.12-1.63,3.32,3.32,0,0,0,.59-3.69Z"/><path class="cls-3" d="M24.48,9.29c-6.75,0-11.68,1.84-14.67,5.5-4.18,5.1-4,12.9-2.48,18.49.47,1.7.71,6.31,1,8,1.46,7.57,10.3,11.6,16.12,11.6h.15V9.29Z"/><path class="cls-4" d="M39.11,14.8c-3-3.63-7.84-5.48-14.48-5.51V52.87c6.65-.07,14.59-4.48,16-11.59.33-1.69.57-6.3,1-8,1.53-5.58,1.68-13.36-2.51-18.48Z"/><path class="cls-9" d="M28,46a5.37,5.37,0,0,1-3.41,1.62,5.06,5.06,0,0,1-3.31-1.58,21.32,21.32,0,0,1,3.31-.25A27.78,27.78,0,0,1,28,46Z"/><path class="cls-10" d="M25.59,45.3a.89.89,0,0,0-1,.73c0-.41-.43-.73-1-.73a13.54,13.54,0,0,0-2.44.74s1.86.19,2.4.19,1,.21,1-.18c0,.39.4.24.93.24S28,46,28,46a13.8,13.8,0,0,0-2.44-.74Z"/><path class="cls-11" d="M44.7,78l-.47.21H5L4.57,78c0-7.51,1.83-12.29,4.07-15.35h0a14.67,14.67,0,0,1,3-3.07c.16-.13.34-.24.52-.36,0,0,0,0,.05,0l.49-.32a55,55,0,0,1,5.54-2.59L17,59.52c-.07,1.34,3.64,7.87,7.49,7.8s8.12-6.77,8-8.17c.42-.59-1.91-2.49-1.58-2.94,1.49.44,7.27,3,9.77,6.53,2.2,3.05,4,7.83,4,15.23Z"/><polygon class="cls-12" points="24.57 78 23.09 72.69 21.6 67.37 24.57 67.37 27.56 67.37 26.07 72.69 24.57 78"/><path class="cls-2" d="M33.29,59.78C33,59,32.12,58.2,31.82,57.56c-.5-1.07-1-2-1-2A52.43,52.43,0,0,1,29,61.11s-5.24,6.46-4.4,6.62,4.7.72,5.84,1.94,1,2.37,1.26.72S34.21,62,33.29,59.78Z"/><path class="cls-2" d="M20.22,61.11a52.43,52.43,0,0,1-1.83-5.56s-.46.94-1,2c-.3.64-1.13,1.41-1.48,2.22C15,62,17.22,68.72,17.52,70.39s.11.51,1.26-.72,5-1.77,5.85-1.94-4.41-6.62-4.41-6.62Z"/><path class="cls-2" d="M12,14c1.53,2.68,1.1,5.7,6.27,7.68s7.49,2.52,13.12,4.92c12.77,5.42,6.21,18,6.21,18s3.51-3.23,4.78-6.6,6.16-18,0-29.59C39,2,32.75.57,27.25.14s-9.43,0-13.4,3.47c-.87.75-3.36.92-6.09,2.75-6.09,4.09-5.59,10.12-5.86,14A27.67,27.67,0,0,0,3.48,32.12c1.19,3.36,8.38,13.3,8.38,13.3s-5.59-12.14-2.49-20c1.82-4.62,5.07-4.36,5.21-6.15S12,14,12,14Z"/></g></g></svg>