<svg xmlns="http://www.w3.org/2000/svg" viewBox="0 0 48.81 76.76"><defs><style>.cls-1{fill:#0c0e03;}.cls-2{fill:#dcc5a1;}.cls-3{fill:#edd9b4;}.cls-4,.cls-6{fill:#bc9f82;}.cls-4{opacity:0.7;}.cls-5{fill:#ccad8b;}.cls-7{fill:#d9bf9f;}.cls-8{fill:#cd6c13;}.cls-9{fill:#fdfbf8;}.cls-10{fill:#b3b628;}.cls-11{fill:#425f6a;}.cls-12{fill:#856da5;}</style></defs><title>Ativo 66avatar</title><g id="Camada_2" data-name="Camada 2"><g id="Objects"><path class="cls-1" d="M11.69,41.32c-.33-.25-6.49-4-6.49-4,.42,2.36.74,3.33.12,4.92a5.74,5.74,0,0,1-2.21,2.5,4.64,4.64,0,0,1-2.21.89,6.25,6.25,0,0,1-.9-.08,7.11,7.11,0,0,0,3.43.43,3.84,3.84,0,0,0,2.11-.6,3.06,3.06,0,0,0-.43,2.94c1.85,3.77-.62,5-.62,5A7.21,7.21,0,0,0,7.94,52v.09a2.74,2.74,0,0,0,2,2.1s-.92-.16-.75-1.91c0-.47.54-.65,1.14-1,.23,1.7,1,3.42-.58,4.13,0,0,2.68-.54,3.17-2.12a6.81,6.81,0,0,0,.17-.83,3.33,3.33,0,0,1,.13.45,5.71,5.71,0,0,1-1.15,4s5.55-.59,5.59-2.79a11.48,11.48,0,0,1,.25-2.18c.17-.51.5-3,.5-3S12,41.57,11.69,41.32Z"/><path class="cls-1" d="M34.7,41.32c.34-.25,6.49-4,6.49-4-.42,2.36-.73,3.33-.12,4.92a5.69,5.69,0,0,0,2.22,2.5,4.64,4.64,0,0,0,2.21.89,6.22,6.22,0,0,0,.89-.08,7.11,7.11,0,0,1-3.43.43,3.77,3.77,0,0,1-2.1-.6,3.05,3.05,0,0,1,.42,2.94c-1.85,3.77.62,5,.62,5A7.19,7.19,0,0,1,38.46,52s0,.06,0,.09a2.74,2.74,0,0,1-2,2.1s.93-.16.75-1.91c0-.47-.53-.65-1.14-1-.23,1.7-1,3.42.59,4.13,0,0-2.68-.54-3.17-2.12a6.9,6.9,0,0,1-.18-.83c0,.15-.1.29-.13.45a5.7,5.7,0,0,0,1.16,4s-5.56-.59-5.6-2.79a10.65,10.65,0,0,0-.24-2.18c-.17-.51-.51-3-.51-3S34.36,41.57,34.7,41.32Z"/><path class="cls-2" d="M23.19,44.47V76.76H5.58l-.43-.19C5.15,59.25,15.93,58,15.93,58c1.08,0,1.77-1.38,2.22-3.47a9.55,9.55,0,0,0,.19-1c.1-.59.18-1.22.25-1.87,0-.39.07-.79.11-1.2.16-2,.21-4.13.21-6.17C18.91,44.24,21.28,44.47,23.19,44.47Z"/><path class="cls-3" d="M41.3,76.57s-.16.06-.42.19H23.19V44.47h0c1.91,0,4.3-.23,4.3-.23,0,2,0,4.16.21,6.13,0,.39.07.78.11,1.16.07.69.15,1.32.25,1.93h0c0,.27.08.52.13.76.46,2.23,1.18,3.73,2.28,3.73C30.51,58,41.3,59.25,41.3,76.57Z"/><path class="cls-4" d="M28.1,53.46h0a5.71,5.71,0,0,1-4.88,2.64h0a6.14,6.14,0,0,1-4.85-2.63c.1-.59.18-1.22.25-1.87,0-.39.07-.79.11-1.2a18.84,18.84,0,0,0,4.44.58h.05a18.25,18.25,0,0,0,4.55-.62c0,.39.07.78.11,1.16C27.92,52.22,28,52.85,28.1,53.46Z"/><path class="cls-5" d="M23.24,7.44C4.59,7.44,4.48,23,5.31,33.19,4,30.78.25,31.52.56,35.33s5.64,5.55,5.57,5.13c1.53,8.38,10.3,13.22,17.11,13.22h.15V7.45Z"/><path class="cls-6" d="M1.75,33.72a1.76,1.76,0,0,1,2.69-.51,1.53,1.53,0,0,1,.44,1.69c-.13.48-.65.52-.52,1.26a1.31,1.31,0,0,0,.74,1.08c.22.19.5.33.63.68a1.83,1.83,0,0,1,.09,1c-.15.6-1,.13-1.61-.14a11.28,11.28,0,0,1-1.93-1.56A3.31,3.31,0,0,1,1.75,33.72Z"/><path class="cls-7" d="M23.34,7.44C42,7.44,42.1,23,41.27,33.19c1.28-2.41,5.06-1.67,4.75,2.14s-5.64,5.55-5.57,5.13c-1.53,8.38-10.31,13.22-17.11,13.22h-.15V7.45Z"/><path class="cls-6" d="M44.83,33.72a1.76,1.76,0,0,0-2.69-.51,1.51,1.51,0,0,0-.44,1.69c.13.48.65.52.52,1.26a1.29,1.29,0,0,1-.75,1.08c-.21.19-.49.33-.62.68a1.83,1.83,0,0,0-.09,1c.14.6,1,.13,1.61-.14a11.28,11.28,0,0,0,1.93-1.56A3.31,3.31,0,0,0,44.83,33.72Z"/><path class="cls-2" d="M23.08,11.83c-6.14,0-10.63,1.77-13.35,5.28C5.93,22,6.08,29.49,7.48,34.86c.42,1.64.65,6.07.94,7.69,1.33,7.26,9.36,11.13,14.66,11.13h.15V11.83Z"/><path class="cls-3" d="M36.41,17.12c-2.7-3.48-7.14-5.26-13.18-5.29V53.68c6-.07,13.27-4.31,14.51-11.13.29-1.62.51-6,.94-7.69C40.08,29.51,40.22,22,36.41,17.12Z"/><path class="cls-1" d="M43.63,22.58a4.56,4.56,0,0,0-.4-.76,31.49,31.49,0,0,0-4.08-10.64c-1.93-2.77-6.63-5.22-12.68-6S15.14,8.76,15.14,8.76A6.79,6.79,0,0,0,13.4,7c-.8-.41-3.1.08-3.1.08a5.57,5.57,0,0,1,1.87.84,1.66,1.66,0,0,1,.31,1.5,11.31,11.31,0,0,0-2.63-.8c-1.46-.05-3.11,1.81-3.11,1.81a5.26,5.26,0,0,1,2.69-.93,7.08,7.08,0,0,1,1.62.58s-2.17.22-6.23,4.66a12.61,12.61,0,0,0-3.07,7.76L4.32,21a6.63,6.63,0,0,0-1,1.59C1.43,27.27,4,32,4,32s.84.08,1.62,1.89a35.56,35.56,0,0,1,1.69,5.48h.91S6.3,31.79,7.61,27.68C8,26.55,9,24.22,10.31,24.14a4.85,4.85,0,0,0,1.3-2.33,9.64,9.64,0,0,1,3.61-4.65,1.5,1.5,0,0,1,1.76.25,12,12,0,0,1,5-2c3.21-.57,5,2.85,5.67,4.65A4,4,0,0,1,28,22.79a8.5,8.5,0,0,0,1.21-4.41,5.29,5.29,0,0,0-.38-1.68c.43.22,2.25.72,2.62,5.44a4.75,4.75,0,0,1-1.84,3.75s4.5-1.86,3.57-7.59a9.89,9.89,0,0,1,2.21,3.51c.39,1.55,3.77,5.16,4,5.87,1.31,4.11-.63,11.67-.63,11.67h.9a36.19,36.19,0,0,1,1.7-5.48c.78-1.81,1.62-1.89,1.62-1.89S45.52,27.27,43.63,22.58ZM28.34,15.86a.31.31,0,0,0-.07-.09l.08.07Z"/><path class="cls-8" d="M46.12,26.42a57.47,57.47,0,0,0-7-15.24,10,10,0,0,0-1.57-1.69,1.66,1.66,0,0,0,.52-.91c.1-1,.58-3-.82-2.26s.3,1-.47,2.1C36,7.32,33.45,5.06,25.29,2,13.53-2.33,10.49,1.39,6.6,3.33S2.55,7.2,3,8.45s1,5.2,1.78,6.25,4.37-.4,11.34,5.71,21.21,9.06,25.42,14.76S47.74,39,47.74,39s.48-1.12,1-2.42S47.9,33.18,46.12,26.42Z"/><path class="cls-9" d="M41.44,76.57l-.43.19H5.59l-.45-.19c0-.51,0-1,0-1.52,0-1.13.14-2.2.28-3.19a19.64,19.64,0,0,1,.44-2.35c.06-.33.14-.65.23-1s.24-.85.38-1.26.23-.65.36-1a16.53,16.53,0,0,1,1.2-2.42,13.25,13.25,0,0,1,2.59-3.19,11.76,11.76,0,0,1,2.19-1.59l.05,0s0,0,0,0a8.93,8.93,0,0,0,1.45,1.63c.84.82,2.05,1.91,3.59,3.19.1.07.21.17.32.26a7.48,7.48,0,0,0,10,0l.33-.26c1.55-1.28,2.76-2.37,3.6-3.19a9.39,9.39,0,0,0,1.45-1.63s0,0,0,0l.06,0A12.1,12.1,0,0,1,36,60.71a13.49,13.49,0,0,1,2.59,3.19,15.58,15.58,0,0,1,1.19,2.42q.18.47.36,1c.14.41.26.82.39,1.26s.16.64.24,1c.17.74.3,1.51.42,2.35s.23,2.06.28,3.19C41.43,75.54,41.44,76.06,41.44,76.57Z"/><path class="cls-8" d="M17.83,70.48A1.84,1.84,0,1,1,16,68.66,1.83,1.83,0,0,1,17.83,70.48Z"/><path class="cls-10" d="M23,73.27a1,1,0,1,1-1-1A1,1,0,0,1,23,73.27Z"/><path class="cls-11" d="M31.4,71.09a2.29,2.29,0,1,1-2.29-2.28A2.28,2.28,0,0,1,31.4,71.09Z"/><path class="cls-10" d="M37.16,73.27a.66.66,0,1,1-.66-.66A.66.66,0,0,1,37.16,73.27Z"/><path class="cls-12" d="M34.52,65.82a.72.72,0,1,1-.71-.72A.71.71,0,0,1,34.52,65.82Z"/><path class="cls-10" d="M13.55,64.7a.92.92,0,1,1-.91-.91A.91.91,0,0,1,13.55,64.7Z"/><path class="cls-10" d="M10.7,72.31a1.22,1.22,0,1,1-1.22-1.22A1.21,1.21,0,0,1,10.7,72.31Z"/></g></g></svg>