<svg xmlns="http://www.w3.org/2000/svg" viewBox="0 0 53.82 73.47"><defs><style>.cls-1{fill:#dcc5a1;}.cls-2{fill:#edd9b4;}.cls-3,.cls-7{fill:#bc9f82;}.cls-3{opacity:0.7;}.cls-4{fill:#841720;}.cls-5{fill:#511e1e;}.cls-6{fill:#ccad8b;}.cls-8{fill:#d9bf9f;}.cls-9{fill:#aa6568;}</style></defs><title>Ativo 67avatar</title><g id="Camada_2" data-name="Camada 2"><g id="Objects"><path class="cls-1" d="M27,41.78V73.46H9.75l-.43-.18C9.32,56.29,19.9,55,19.9,55c1.06,0,1.73-1.36,2.18-3.41a9.16,9.16,0,0,0,.19-1q.15-.87.24-1.83c0-.39.07-.78.11-1.17.15-1.95.2-4.06.2-6.07C22.82,41.55,25.15,41.78,27,41.78Z"/><path class="cls-2" d="M44.79,73.28l-.41.18H27V41.78h0c1.88,0,4.22-.23,4.22-.23,0,2,0,4.08.21,6,0,.38.07.77.11,1.14.07.67.14,1.29.24,1.88v0c0,.27.08.5.13.75.45,2.18,1.15,3.66,2.24,3.66C34.21,55,44.79,56.29,44.79,73.28Z"/><path class="cls-3" d="M31.84,50.59v0a5.57,5.57,0,0,1-4.79,2.59h0a6,6,0,0,1-4.76-2.58q.15-.87.24-1.83c0-.39.07-.78.11-1.17a19.24,19.24,0,0,0,4.36.56H27a18,18,0,0,0,4.46-.61c0,.38.07.77.11,1.14C31.67,49.38,31.74,50,31.84,50.59Z"/><path class="cls-4" d="M41.67,60.05a12.24,12.24,0,0,0-5.5-4.74l-9,15.19-.1.17L27,70.5,18,55.31a12.34,12.34,0,0,0-5.5,4.74A7.26,7.26,0,0,1,13.94,63c1.14,4.07.49,9,.26,10.51H40C39.76,72,39.1,67,40.24,63A7.39,7.39,0,0,1,41.67,60.05Z"/><path class="cls-5" d="M53.82,24.2c0,4.22-13,14.14-26.91,14.14S0,29.79,0,25.56s12.51-5.9,26.44-5.9S53.82,20,53.82,24.2Z"/><path class="cls-6" d="M27.08,5.45C8.77,5.45,8.67,20.72,9.48,30.72c-1.25-2.37-5-1.64-4.66,2.09s5.54,5.45,5.46,5c1.51,8.23,10.12,13,16.8,13h.13V5.46Z"/><path class="cls-7" d="M6,31.23a1.74,1.74,0,0,1,2.65-.5,1.51,1.51,0,0,1,.43,1.65c-.13.48-.64.52-.51,1.25a1.3,1.3,0,0,0,.73,1.06,1.69,1.69,0,0,1,.62.67,1.84,1.84,0,0,1,.08,1c-.14.59-1,.12-1.58-.14a10.83,10.83,0,0,1-1.89-1.53A3.29,3.29,0,0,1,6,31.23Z"/><path class="cls-8" d="M27.17,5.45c18.3,0,18.41,15.27,17.6,25.27,1.25-2.37,5-1.64,4.66,2.09s-5.54,5.45-5.47,5c-1.5,8.23-10.11,13-16.79,13H27V5.46Z"/><path class="cls-7" d="M48.26,31.23a1.74,1.74,0,0,0-2.65-.5,1.51,1.51,0,0,0-.42,1.66c.13.47.63.51.51,1.24A1.3,1.3,0,0,1,45,34.69a1.69,1.69,0,0,0-.62.67,1.83,1.83,0,0,0-.07,1c.14.59,1,.12,1.57-.14a10.9,10.9,0,0,0,1.9-1.53A3.29,3.29,0,0,0,48.26,31.23Z"/><path class="cls-1" d="M26.92,9.76c-6,0-10.43,1.74-13.1,5.18-3.73,4.8-3.59,12.14-2.21,17.41.42,1.61.63,5.95.92,7.55C13.84,47,21.72,50.82,26.92,50.82h.14V9.76Z"/><path class="cls-2" d="M40,15c-2.65-3.42-7-5.16-12.93-5.19V50.81c5.93-.06,13-4.22,14.24-10.91.29-1.59.51-5.94.93-7.55C43.6,27.1,43.73,19.77,40,15Z"/><path class="cls-4" d="M45.18,11.76H10a5.71,5.71,0,0,1,0-1C11.27,5.85,16,0,27.11,0c10.8,0,16.53,5.72,18.07,10.73A4.9,4.9,0,0,1,45.18,11.76Z"/><path class="cls-9" d="M45,17.56H9.81V11.27s6-4.35,17.11-4.35A38,38,0,0,1,45,11.27Z"/><path class="cls-4" d="M26.44,19.66C16.65,20,.24,24.6.24,24.6S10.39,12.05,26.13,12c14,0,27.69,11.31,27.69,11.31S32.87,19.45,26.44,19.66Z"/></g></g></svg>