<svg xmlns="http://www.w3.org/2000/svg" xmlns:xlink="http://www.w3.org/1999/xlink" viewBox="0 0 49.07 77.94"><defs><style>.cls-1{fill:none;}.cls-2{fill:#dcc5a1;}.cls-3{fill:#edd9b4;}.cls-4{clip-path:url(#clip-path);}.cls-5{fill:#bc9f82;}.cls-6{fill:#895a59;}.cls-7{fill:#f8f7e0;}.cls-8{fill:#ccad8b;}.cls-9{fill:#d9bf9f;}.cls-10{fill:#b47070;}.cls-11{fill:#c17874;}.cls-12{fill:#0f1005;}</style><clipPath id="clip-path"><rect class="cls-1" x="19.19" y="49.07" width="10.68" height="6.29"/></clipPath></defs><title>Ativo 22avatar</title><g id="Camada_2" data-name="Camada 2"><g id="Objects"><path class="cls-2" d="M24.5,42.61V77.94H5.23l-.47-.2c0-18.95,11.8-20.37,11.8-20.37h.09a1.09,1.09,0,0,0,.26,0c.89-.24,1.53-1.48,2-3.29a4.46,4.46,0,0,0,.11-.46c.08-.35.15-.71.2-1.1.11-.65.2-1.33.28-2,0-.43.08-.86.11-1.3.18-2.17.24-4.53.24-6.76,0,0,2.59.25,4.68.25Z"/><path class="cls-3" d="M44.32,77.74l-.46.2H24.5V42.61h.05c2.09,0,4.7-.25,4.7-.25,0,2.22.05,4.55.23,6.7,0,.43.08.87.12,1.29.08.73.16,1.44.27,2.09v0c0,.29.1.56.15.83s.11.52.17.74c.4,1.61.94,2.76,1.69,3.18a1.11,1.11,0,0,0,.21.08,1,1,0,0,0,.43.08s11.8,1.42,11.8,20.37Z"/><g class="cls-4"><path class="cls-5" d="M29.87,52.45h0a6.26,6.26,0,0,1-5.34,2.9h0a6.73,6.73,0,0,1-5.31-2.88c.11-.65.2-1.33.27-2l.12-1.3a21.82,21.82,0,0,0,4.87.63h.05a20,20,0,0,0,5-.69c.05.43.09.86.13,1.28q.11,1.11.27,2.1"/></g><path class="cls-6" d="M44.35,77.74l-.46.2H5.21l-.48-.2a35.93,35.93,0,0,1,.49-6.2c2.23-13.1,11.33-14.19,11.33-14.19h.09l.26-.06c.89-.24,1.49-2.3,1.94-4.1a33.09,33.09,0,0,0,5.61,1.34,34.22,34.22,0,0,0,5.72-1.34c.39,1.6,1,3.57,1.73,4a1.76,1.76,0,0,0,.2.09,1.22,1.22,0,0,0,.43.08s11.82,1.41,11.82,20.39Z"/><path class="cls-2" d="M10.1,71.54v6.4H5.23l-.47-.2a37,37,0,0,1,.48-6.2Z"/><path class="cls-2" d="M39,71.54v6.4h4.87l.47-.2a35.93,35.93,0,0,0-.49-6.2Z"/><path class="cls-7" d="M23.13,69.59a2.27,2.27,0,0,1-.9.17c-1.35,0-2.47-1.14-3.57-1.39l1.64-7.78-.43,0c-1.78,0-3.73,1.38-3.73,2.82,0,.78.4,1,1.13,1a1.58,1.58,0,0,1-.15-.74,2.4,2.4,0,0,1,1.49-2.36L17,68.84h.24c1.89,0,3.22,2.46,4.75,2.46C22.59,71.29,23,70.63,23.13,69.59Z"/><path class="cls-7" d="M21.66,68.63c1.3,0,2.37-1.26,2.54-3.26a4.17,4.17,0,0,0,.89-.25l-.36,1.73a2.87,2.87,0,0,0-.05.52A1.16,1.16,0,0,0,26,68.65c2.18,0,3-3,3-4.76,0-.47-.16-.94-.67-.94s-.66.25-.66.59.13.55.38.55c.09,0,.31,0,.34-.11,0,1.19-.8,3.62-1.84,3.62a.32.32,0,0,1-.36-.36,2.18,2.18,0,0,1,.05-.39L27,63.17H25.5l-.3,1.45a2.45,2.45,0,0,1-.85.21.18.18,0,0,1-.12,0c0-1.13-.44-1.73-1.36-1.73-2.19,0-2.92,2.6-2.92,3.84A1.54,1.54,0,0,0,21.66,68.63ZM23,63.73c.28,0,.39.17.41.63a.6.6,0,0,0-.33.58c0,.22.06.4.28.46-.17,1.28-.71,2.25-1.23,2.25s-.54-.16-.54-.87C21.54,65.71,22.2,63.73,23,63.73Z"/><path class="cls-7" d="M30.6,66.72c0-.1,0-.22,0-.32a2.48,2.48,0,0,0,2.44-2.29c0-.54-.22-1-1.17-1-2.18,0-2.87,2.61-2.87,3.86a1.5,1.5,0,0,0,1.65,1.72A1.72,1.72,0,0,0,32.52,67a2.12,2.12,0,0,1-1.26.58C30.89,67.62,30.6,67.4,30.6,66.72ZM32,63.65c.2,0,.26.17.26.44a1.79,1.79,0,0,1-1.55,1.79C30.93,64.85,31.45,63.65,32,63.65Z"/><path class="cls-7" d="M22.08,73.08c0-.21-.09-.42-.47-.42-.88,0-1.16,1-1.16,1.56h0c-.08.16-.15.26-.3.26A.17.17,0,0,1,20,74.3c0-.24.21-.77.21-1.12a.44.44,0,0,0-.48-.49.62.62,0,0,0-.5.24l.24-1.1-.64.09-.46,2.18h0c-.06.22-.22.39-.38.39s-.18,0-.18-.16a.93.93,0,0,1,0-.14l.27-1.31h.26l0-.18H18.1l.15-.69-.63.09-.13.6h-.14l0,.18h.14L17.2,74.1a1.06,1.06,0,0,0,0,.29c0,.36.2.52.46.52a.81.81,0,0,0,.61-.29l-.05.27h.62l.29-1.42c0-.12.16-.39.33-.39s.16.08.16.23-.2.81-.2,1.11a.46.46,0,0,0,.51.49.66.66,0,0,0,.6-.38.59.59,0,0,0,.62.38.69.69,0,0,0,.74-.64.85.85,0,0,1-.5.23c-.15,0-.27-.09-.27-.37,0,0,0-.08,0-.13A1,1,0,0,0,22.08,73.08Zm-.44-.19c.08,0,.11.08.11.18a.72.72,0,0,1-.63.72C21.21,73.38,21.42,72.89,21.64,72.89Z"/><path class="cls-7" d="M29.61,73a.31.31,0,0,0-.3-.33.8.8,0,0,0-.51.27l.05-.27h-.62l-.29,1.4h0a1,1,0,0,1-.76.44c-.2,0-.31-.07-.31-.36,0-.49.28-1.29.55-1.29.08,0,.12.08.12.18a.85.85,0,0,1-.05.26.23.23,0,0,0,.15,0c.13,0,.23-.1.23-.31s-.1-.41-.48-.41c-.84,0-1.13,1-1.15,1.51a1,1,0,0,1-.71.37c-.2,0-.3-.07-.3-.36V74a1,1,0,0,0,1-.92c0-.21-.09-.42-.47-.42-.84,0-1.13,1-1.16,1.48a1.6,1.6,0,0,1-.25.18.78.78,0,0,0,0-.16c0-.29-.05-.46-.1-1.59l-.64.08A6.65,6.65,0,0,1,23.1,74a.43.43,0,0,0-.23.4.57.57,0,0,0,.63.56.93.93,0,0,0,.67-.26,2.64,2.64,0,0,0,.43-.32.59.59,0,0,0,.66.58,1.25,1.25,0,0,0,1-.54.59.59,0,0,0,.66.54,1.25,1.25,0,0,0,1-.51l-.1.49h.62l.34-1.66a.43.43,0,0,1,.31-.17c.13,0,0,.29.25.29A.31.31,0,0,0,29.61,73Zm-3.83-.14c.09,0,.11.08.11.18a.72.72,0,0,1-.62.72C25.36,73.36,25.56,72.89,25.78,72.89Zm-2.42,1.68c-.19,0-.26-.1-.26-.31a.13.13,0,0,0,.11.06.2.2,0,0,0,.19-.22.16.16,0,0,0-.1-.15,4.13,4.13,0,0,0,.35-.82c0,.67.08.8.08,1S23.55,74.57,23.36,74.57Z"/><path class="cls-7" d="M32.27,72l-.63.09-.13.6h-.14l0,.18h.14l-.26,1.22h0a1,1,0,0,1-.76.44c-.2,0-.31-.07-.31-.36,0-.06,0-.12,0-.18a1,1,0,0,0,1-.92c0-.21-.09-.42-.47-.42-.88,0-1.16,1-1.16,1.56a.6.6,0,0,0,.66.69,1.26,1.26,0,0,0,1-.57s0,0,0,.08c0,.28.13.49.43.49.15,0,.34,0,.46-.43a.22.22,0,0,1-.11,0c-.12,0-.15-.07-.15-.16a.39.39,0,0,1,0-.15l.27-1.31h.26l0-.18h-.26C32.21,72.31,32.27,72,32.27,72Zm-1.58.88c.08,0,.11.08.11.18a.73.73,0,0,1-.62.72C30.26,73.36,30.47,72.89,30.69,72.89Z"/><path class="cls-7" d="M23.6,70.91a1.3,1.3,0,0,0,0,.26c0,.33.18.47.41.47a.72.72,0,0,0,.57-.29.53.53,0,0,0,.51.29.7.7,0,0,0,.77-.68c0-.25,0-.41-.08-1.42l-.57.08a6.19,6.19,0,0,1-.47,1.15.42.42,0,0,0-.21.37h0a.31.31,0,0,1-.22.12c-.11,0-.16,0-.16-.15a.74.74,0,0,1,0-.12l.27-1.33h-.55Zm1.29-.13A3.89,3.89,0,0,0,25.2,70c0,.6.08.72.08.93a.32.32,0,0,1-.34.36c-.15,0-.22-.08-.23-.23a0,0,0,0,0,0,0,.18.18,0,0,0,.09,0,.19.19,0,0,0,.17-.2A.14.14,0,0,0,24.89,70.78Z"/><path class="cls-7" d="M24.55,69.14a.31.31,0,0,0-.31-.31.31.31,0,0,0,0,.62A.31.31,0,0,0,24.55,69.14Z"/><path class="cls-8" d="M24.49,4.64C4.37,4.61,4.25,20.72,5.15,31.22,3.77,28.75-.31,29.67,0,33.62c.32,3.78,6.09,5.5,6,5.08,1.64,8.56,11.12,13.31,18.46,14h.15v-48Z"/><path class="cls-5" d="M1,32a2,2,0,0,1,3-.53,1.53,1.53,0,0,1,.48,1.75c-.14.51-.71.54-.57,1.32a1.36,1.36,0,0,0,.82,1.12,1.92,1.92,0,0,1,.69.72,1.87,1.87,0,0,1,.09,1.09c-.16.62-1.12.13-1.76-.16a11.51,11.51,0,0,1-2.11-1.62A3.33,3.33,0,0,1,1,32Z"/><path class="cls-9" d="M24.59,4.64c20.12,0,20.23,16.08,19.33,26.58,1.39-2.47,5.47-1.55,5.13,2.4-.32,3.78-6.08,5.5-6,5.08C41.4,47.26,31.92,52,24.59,52.69h-.16v-48Z"/><path class="cls-5" d="M48.19,32a2,2,0,0,0-3-.53,1.54,1.54,0,0,0-.47,1.75c.14.51.7.54.57,1.32a1.36,1.36,0,0,1-.82,1.12,1.85,1.85,0,0,0-.69.72,1.87,1.87,0,0,0-.09,1.09c.16.62,1.12.13,1.76-.16a11.51,11.51,0,0,0,2.11-1.62A3.33,3.33,0,0,0,48.19,32Z"/><path class="cls-2" d="M24.38,9.21c-6.72,0-11.63,1.84-14.61,5.49-4.16,5.08-4,12.86-2.46,18.44.46,1.7.71,6.31,1,8,1.45,7.55,10.24,11.57,16,11.57h.16V9.21Z"/><path class="cls-3" d="M39,14.71c-3-3.63-7.81-5.47-14.42-5.5V52.69c6.61-.07,14.52-4.47,15.88-11.56.33-1.68.57-6.29,1-8C43,27.58,43.13,19.81,39,14.71Z"/><path class="cls-10" d="M27.92,45.88a5.37,5.37,0,0,1-3.39,1.61,5,5,0,0,1-3.3-1.58,21.11,21.11,0,0,1,3.3-.25,26.41,26.41,0,0,1,3.39.22Z"/><path class="cls-11" d="M25.49,45.13a.88.88,0,0,0-1,.73.88.88,0,0,0-1-.73,13.52,13.52,0,0,0-2.43.75s1.85.19,2.38.19,1,.21,1-.18c0,.39.39.23.92.23s2.47-.24,2.47-.24a13.52,13.52,0,0,0-2.43-.75Z"/><path class="cls-12" d="M12,27.32s0,0,0,0Z"/><path class="cls-12" d="M44.5,10.83c-1.72-2.63-1.84-1.89-1.84-1.89s1.72-7.19-9-8.78A25.45,25.45,0,0,0,29.44,0L30.9,1.51A30.22,30.22,0,0,0,17.79.74c-5.42.84-9.12,3.5-12.19,7.84a19.35,19.35,0,0,0-2.68,7.17L5.72,12a18.5,18.5,0,0,0-2.8,12.58c1.66,12.53,7.49,14.85,7.49,14.85S6.39,32,9,27.09a15.65,15.65,0,0,1,12.37-8.41A11.27,11.27,0,0,0,12,27.28v0a6.14,6.14,0,0,1,3.75-3.53c1.77-.67,4.07-.65,6.71-1.33A13.79,13.79,0,0,0,19.62,29a16.62,16.62,0,0,1,8-5.89l1.07-.4a7,7,0,0,0-.55,6.52s-.19-3.28,7-5.33C39.29,22.67,40,20.34,40,20.34a12.68,12.68,0,0,0,.53,3.78c.64,1.71,2.47,2.83,2.6,4.37.24,2.88-1.31,8.27-1.31,8.27l2.32-1.82A69.08,69.08,0,0,0,46.42,20.5C46.42,17.27,45.81,12.83,44.5,10.83Z"/></g></g></svg>