<svg xmlns="http://www.w3.org/2000/svg" viewBox="0 0 47.86 77.58"><defs><style>.cls-1{fill:#dcc5a1;}.cls-2{fill:#edd9b4;}.cls-3,.cls-8{fill:#bc9f82;}.cls-3{opacity:0.7;}.cls-4{fill:#fff;}.cls-5{fill:#ddca80;}.cls-6{fill:#9d7758;}.cls-7{fill:#ccad8b;}.cls-9{fill:#d9bf9f;}.cls-10{fill:#1d1e17;}</style></defs><title>Ativo 49avatar</title><g id="Camada_2" data-name="Camada 2"><g id="Objects"><path class="cls-1" d="M24.84,44.69V77.58H6.9l-.44-.19c0-17.65,11-19,11-19h0c1.08,0,1.78-1.42,2.24-3.54a9.48,9.48,0,0,0,.19-1c.1-.6.19-1.24.25-1.9,0-.4.08-.8.11-1.22.17-2,.22-4.21.22-6.3C20.48,44.44,22.89,44.69,24.84,44.69Z"/><path class="cls-2" d="M43.29,77.3v.09l-.24.1h0l-.18.09h-18V44.69h0c1.95,0,4.38-.25,4.38-.25,0,2.08,0,4.24.21,6.25l.12,1.19c.07.69.15,1.34.25,2h0c0,.28.09.53.14.78.46,2.27,1.19,3.8,2.33,3.8a9.56,9.56,0,0,1,3.61,1.43C39.11,61.84,43.27,66.49,43.29,77.3Z"/><path class="cls-3" d="M29.84,53.84h0a5.8,5.8,0,0,1-5,2.7h0a6.27,6.27,0,0,1-5-2.69c.11-.6.19-1.24.25-1.9,0-.4.08-.8.12-1.22a19.45,19.45,0,0,0,4.52.59h.06a18.42,18.42,0,0,0,4.63-.64c0,.4.07.8.11,1.19C29.66,52.57,29.74,53.22,29.84,53.84Z"/><path class="cls-4" d="M37.31,58.6A60.34,60.34,0,0,1,31,65.76a22.53,22.53,0,0,0-6,11.17s0-.08,0-.12c-.13-.57-.29-1.14-.47-1.72h0A21.63,21.63,0,0,0,19,65.76a60.41,60.41,0,0,1-6.6-7.54A19.12,19.12,0,0,1,15,55.67c.79-.62,1.37-1.12,1.82-1.53h0c.93.26,1.86.5,2.79.68a26.21,26.21,0,0,0,5.62.57,25,25,0,0,0,4.54-.5,25.53,25.53,0,0,0,2.84-.69h0c.45.41,1,.88,1.77,1.47A23.69,23.69,0,0,1,37.31,58.6Z"/><path class="cls-5" d="M43.19,77.3a1.8,1.8,0,0,0-.24.19h0l-.17.09H6.8l-.44-.19c0-7.84,2.16-12.45,4.57-15.17a11.19,11.19,0,0,1,6.41-3.79h0c.75,2,.18,1.58.72,3.25a4.44,4.44,0,0,0,1.38,1.84,24.57,24.57,0,0,0,3.48,5.84,9,9,0,0,1,1.74,4.06,9,9,0,0,1,1.73-4.06,24.59,24.59,0,0,0,3.45-5.75,20.1,20.1,0,0,0,1.81-1.33c.28-.22.57,2,.87,1.68a48.16,48.16,0,0,0,3.28-4.1,12.3,12.3,0,0,1,2.81,2.39A15.36,15.36,0,0,1,41,65.85,26.71,26.71,0,0,1,43.19,77.3Z"/><path class="cls-6" d="M25,77.27c0,.19,0,.31,0,.31l-.26-.16-.28-.15-11.94-6.6,4.28-5.55s-1.84-1.9-2.91-2.78c-.49-.4-1.73-.31-2.9-.12s-2.52.59-2.62.61c.16-.24,2.09-2.92,4.1-5.19A19.12,19.12,0,0,1,15,55.09c.79-.61,1.37-1.11,1.82-1.53h0l1.05-.94a18.9,18.9,0,0,0,1.82.65c0,.32-.05.64-.08,1,0,.53-.1,1-.16,1.47-.2,1.48-1.29,3-1.09,4.3a15.45,15.45,0,0,0,1.11,3.51,24.57,24.57,0,0,0,3.48,5.84,9,9,0,0,1,1.74,4.06A18,18,0,0,1,25,76.23,10.36,10.36,0,0,1,25,77.27Z"/><path class="cls-6" d="M32.62,65.12l4.28,5.55L25,77.27l-.27.15-.27.16s0-.12,0-.31a18.35,18.35,0,0,1,.1-2.76h0c.05-.34.1-.7.18-1.08a9,9,0,0,1,1.73-4.06,24.59,24.59,0,0,0,3.45-5.75A17.3,17.3,0,0,0,31,60c.2-1.26-.9-2.82-1.1-4.3-.05-.42-.1-.89-.15-1.4l-.09-1c.65-.19,1.29-.4,1.93-.65.29.25.6.55,1,.91h0c.45.41,1,.88,1.77,1.47A23.85,23.85,0,0,1,37.31,58c1.87,2.18,3.6,4.57,3.75,4.8-.1,0-1.21-.35-2.43-.58s-2.57-.34-3.1.09C34.45,63.22,32.62,65.12,32.62,65.12Z"/><path class="cls-7" d="M24.63,7C5.62,7,5.51,22.82,6.36,33.19,5.05,30.74,1.2,31.5,1.52,35.37S7.27,41,7.19,40.6c1.56,8.54,10.5,13.47,17.44,13.47h.14V7Z"/><path class="cls-8" d="M2.73,33.73a1.79,1.79,0,0,1,2.74-.52,1.56,1.56,0,0,1,.45,1.72c-.13.49-.66.54-.53,1.29a1.32,1.32,0,0,0,.76,1.1,1.75,1.75,0,0,1,.64.7,1.81,1.81,0,0,1,.08,1.07c-.14.61-1,.12-1.64-.15a11.58,11.58,0,0,1-2-1.59A3.39,3.39,0,0,1,2.73,33.73Z"/><path class="cls-9" d="M24.72,7C43.73,7,43.84,22.82,43,33.19c1.3-2.45,5.16-1.69,4.85,2.18S42.08,41,42.16,40.6c-1.56,8.54-10.5,13.47-17.44,13.47h-.14V7Z"/><path class="cls-8" d="M46.62,33.73a1.79,1.79,0,0,0-2.74-.52,1.55,1.55,0,0,0-.44,1.72c.12.49.65.54.52,1.29a1.32,1.32,0,0,1-.76,1.1,1.75,1.75,0,0,0-.64.7,1.89,1.89,0,0,0-.08,1.07c.14.61,1,.12,1.63-.15a10.9,10.9,0,0,0,2-1.59A3.39,3.39,0,0,0,46.62,33.73Z"/><path class="cls-1" d="M24.46,11.43c-6.25,0-10.83,1.81-13.6,5.39C7,21.8,7.14,29.43,8.57,34.9c.43,1.67.66,6.18,1,7.83,1.35,7.4,9.54,11.34,14.93,11.34h.15V11.44Z"/><path class="cls-2" d="M38,16.82c-2.75-3.55-7.28-5.35-13.43-5.38V54.06C30.77,54,38.13,49.68,39.4,42.73c.3-1.65.52-6.16,1-7.83C41.78,29.44,41.92,21.83,38,16.82Z"/><path class="cls-10" d="M32.55,47.34a4.53,4.53,0,0,0-.48-1.07,8.22,8.22,0,0,0-7.72-6v0H24v0a8.23,8.23,0,0,0-7.73,6,4.53,4.53,0,0,0-.48,1.07c-.6,2.08-.89,3.67.69,8.62h0s7.12,11.93,15.41,0h0C33.44,51,33.16,49.42,32.55,47.34Zm-9.61-2a12,12,0,0,1,1.22-.11,11.82,11.82,0,0,1,1.21.11c2.22.37,3.26,1.53,4.51,3.15-.39.15.07.24-.36.29a27.38,27.38,0,0,1-5.17-.53v-.05h0l-.15,0-.15,0h0v.05a27.49,27.49,0,0,1-5.18.53c-.43,0,0-.14-.36-.29C19.68,46.89,20.73,45.73,22.94,45.36Z"/><path class="cls-10" d="M43,8a11.63,11.63,0,0,0-4.4-2.45S33.2,2.86,29.06.93,18.18.54,14.69,1.44,7,7.3,5.73,10,1.22,18.6.19,22.86s2.44,8.39,4.61,9.27C6.22,32.7,6.31,36,6.31,36l1.54.68A12.07,12.07,0,0,1,7,32.05c.09-1.56-.16-6.22-.16-6.22s6.64-1.32,11.54-2.64c-1.66,2-3,3.39-3,3.39a17.82,17.82,0,0,0,7-4.41,54.2,54.2,0,0,1-5.29,6.38,18.73,18.73,0,0,0,8.74-6.43,51.25,51.25,0,0,1-6.71,8.56c9.23-3.13,12.5-13,12.92-14.41l.07-.07A15.24,15.24,0,0,1,37.62,19c2.45,1.81,5.47,4.32,5.47,9.75,0,1.81-.82,7.09-.82,7.09l.82-.58a4.1,4.1,0,0,1,2.32-3.33c1.85-1,2.32-4.5,2.32-5.93C47.73,16.34,45,9.83,43,8Z"/></g></g></svg>