<svg xmlns="http://www.w3.org/2000/svg" viewBox="0 0 58.23 79.64"><defs><style>.cls-1{fill:#dcc5a1;}.cls-2{fill:#edd9b4;}.cls-3,.cls-7{fill:#bc9f82;}.cls-3{opacity:0.7;}.cls-4{fill:#483a26;}.cls-5{fill:#fff;}.cls-6{fill:#ccad8b;}.cls-8{fill:#d9bf9f;}.cls-9{fill:#b47070;}.cls-10{fill:#c17874;}.cls-11{fill:#001f3a;}</style></defs><title>Ativo 42avatar</title><g id="Camada_2" data-name="Camada 2"><g id="Objects"><path class="cls-1" d="M26.31,42.54V79.6H6.1l-.5-.21c0-8.52,2.26-13.65,4.86-16.74A12.73,12.73,0,0,1,18,58h.1a1.18,1.18,0,0,0,.27-.06c1-.28,1.72-1.78,2.19-3.93.08-.36.15-.75.21-1.16.11-.67.21-1.4.29-2.14,0-.46.08-.91.12-1.38.19-2.27.24-4.74.24-7.09C21.39,42.27,24.11,42.54,26.31,42.54Z"/><path class="cls-2" d="M47.1,79.39s-.19.07-.48.21H26.31V42.54h.05c2.19,0,4.93-.27,4.93-.27,0,2.34.06,4.78.24,7,0,.45.09.9.13,1.34.08.78.17,1.51.28,2.2v0c0,.31.1.59.16.87.42,2.08,1,3.61,1.95,4.11a.74.74,0,0,0,.21.09,1.25,1.25,0,0,0,.46.09,13,13,0,0,1,8,5.21C45.1,66.38,47.1,71.41,47.1,79.39Z"/><path class="cls-3" d="M31.94,52.87h0a6.53,6.53,0,0,1-5.6,3h0a7.1,7.1,0,0,1-5.57-3c.12-.68.22-1.4.29-2.15q.06-.68.12-1.38a22.23,22.23,0,0,0,5.11.67h0a21,21,0,0,0,5.22-.72c0,.45.09.9.13,1.34C31.75,51.44,31.83,52.17,31.94,52.87Z"/><path class="cls-4" d="M13.7,62.68c1.59.66,7.39,3.64,12.89,3.47C38.07,65.8,40,61.62,40,61.62s.47,8.31-1.75,9.64S30.43,76,26.63,75.59,17,73,16.61,71.7,13.7,62.68,13.7,62.68Z"/><path class="cls-5" d="M46.37,70.2c-.14-.5-.28-1-.44-1.45-1.82-5.31-4.88-8-7.3-9.36a.11.11,0,0,1-.06,0l0,0c-.22.5-2.35,5.54-6.19,8.65a34.14,34.14,0,0,1-5.78,4,33.44,33.44,0,0,1-5.79-4c-3.84-3.11-6-8.15-6.19-8.65l0,0-.05,0c-2.42,1.35-5.49,4-7.31,9.36-.16.47-.3,1-.44,1.45a34.81,34.81,0,0,0-1.12,9.22l.5.22H47l.5-.22A34.81,34.81,0,0,0,46.37,70.2Z"/><path class="cls-6" d="M26.3,2.72C5.19,2.68,5.08,19.58,6,30.6,4.57,28,.29,29,.64,33.11c.33,4,6.38,5.77,6.3,5.33,1.72,9,11.67,14,19.36,14.67h.16V2.73Z"/><path class="cls-7" d="M1.87,31.5A2.09,2.09,0,0,1,5,30.94a1.61,1.61,0,0,1,.5,1.84c-.15.53-.74.57-.6,1.38a1.41,1.41,0,0,0,.86,1.17c.25.21.57.37.72.75a1.93,1.93,0,0,1,.1,1.15c-.16.65-1.17.13-1.85-.16a13.1,13.1,0,0,1-2.22-1.7A3.5,3.5,0,0,1,1.87,31.5Z"/><path class="cls-8" d="M26.4,2.72c21.1,0,21.23,16.86,20.29,27.88C48.14,28,52.42,29,52.07,33.11c-.34,4-6.39,5.77-6.3,5.33-1.73,9-11.68,14-19.37,14.67h-.16V2.73Z"/><path class="cls-7" d="M51.07,31A2.09,2.09,0,0,0,48,30.43a1.61,1.61,0,0,0-.5,1.84c.15.53.74.57.59,1.38a1.44,1.44,0,0,1-.85,1.18,1.9,1.9,0,0,0-.72.74,2,2,0,0,0-.1,1.15c.17.65,1.17.13,1.85-.16a12.65,12.65,0,0,0,2.21-1.7A3.48,3.48,0,0,0,51.07,31Z"/><path class="cls-1" d="M26.19,7.51c-7,0-12.21,1.94-15.33,5.75C6.5,18.6,6.66,26.76,8.28,32.61,8.76,34.4,9,39.22,9.36,41c1.52,7.92,10.75,12.14,16.83,12.14h.16V7.51Z"/><path class="cls-2" d="M41.48,13.27c-3.09-3.8-8.19-5.73-15.13-5.76V53.12C33.29,53.05,41.59,48.43,43,41c.33-1.77.59-6.59,1.08-8.38C45.7,26.77,45.86,18.63,41.48,13.27Z"/><path class="cls-9" d="M29.9,46a5.61,5.61,0,0,1-3.56,1.7A5.29,5.29,0,0,1,22.88,46a23.36,23.36,0,0,1,3.46-.25A29,29,0,0,1,29.9,46Z"/><path class="cls-10" d="M27.35,45.19a.93.93,0,0,0-1,.77.91.91,0,0,0-1-.77,14.17,14.17,0,0,0-2.55.78s1.94.2,2.49.2,1,.22,1.06-.19c0,.42.41.25,1,.25S29.9,46,29.9,46A14.17,14.17,0,0,0,27.35,45.19Z"/><path class="cls-11" d="M52.11,22.79h0a50.55,50.55,0,0,0-1.64-6.16c3.13,2.1,7.77,10.24,7.77,10.24C56.93,19.66,49,11.37,49,11.37h0c-3.18-8.2-17.29-9.44-17.29-9.44A13.91,13.91,0,0,0,24.47,0,19.42,19.42,0,0,0,8.82,7.44c-21.28,26.17,2.62,40.9,2.62,40.9l5.1,2.9s-3.74-7.19-3.81-11.36c-.24-14.77,10.39-22.88,16-26.14.89,4,2.82,9.93,6.73,12.33,0,0-6.31-9.4-3.32-12.61.12,2,.74,5.64,3.54,7.49,4,2.64,6.32,5.23,7.21,8.41s1.44,4.8.66,9.38S39.76,50.8,39.76,50.8l4.39-3s4.38-3.61,7-13.83c.76,4.42,1.26,8.31,1.26,8.31,1-5.4.36-13.66,0-17.46C52.29,24.12,52.22,23.45,52.11,22.79Z"/></g></g></svg>