<svg xmlns="http://www.w3.org/2000/svg" viewBox="0 0 48.83 78.95"><defs><style>.cls-1{fill:#dcc5a1;}.cls-2{fill:#edd9b4;}.cls-3,.cls-7{fill:#bc9f82;}.cls-3{opacity:0.7;}.cls-4{fill:#771819;}.cls-5{fill:#fdfdfd;}.cls-6{fill:#ccad8b;}.cls-8{fill:#d9bf9f;}.cls-9{fill:#422e14;}</style></defs><title>Ativo 10avatar</title><g id="Camada_2" data-name="Camada 2"><g id="Objects"><path class="cls-1" d="M22.93,46.28V79H5.1l-.43-.18c0-17.53,10.91-18.84,10.91-18.84,1.09,0,1.79-1.4,2.25-3.51.07-.33.13-.66.19-1,.1-.59.18-1.23.24-1.89l.12-1.21c.16-2,.21-4.18.21-6.25C18.59,46,21,46.28,22.93,46.28Z"/><path class="cls-2" d="M41.26,78.77l-.43.18H22.93V46.28h0c1.93,0,4.35-.24,4.35-.24,0,2.06.05,4.21.21,6.2,0,.4.07.8.11,1.19.08.68.15,1.33.25,1.94h0c0,.28.09.53.14.77.46,2.26,1.19,3.78,2.31,3.78C30.34,59.93,41.26,61.24,41.26,78.77Z"/><path class="cls-3" d="M27.89,55.37h0A5.76,5.76,0,0,1,23,58.06h0A6.19,6.19,0,0,1,18,55.39c.1-.59.18-1.23.24-1.89l.12-1.21a19.9,19.9,0,0,0,4.5.59h.05a18.64,18.64,0,0,0,4.6-.64c0,.4.07.8.11,1.19C27.72,54.11,27.79,54.76,27.89,55.37Z"/><path class="cls-4" d="M30.77,60a1.26,1.26,0,0,1-.69-.41,13.16,13.16,0,0,0-1.28-1.72l-.12-.13-.18,1.07-5.57,2.85L17.44,59l-.27-1.27-.08.07c-.74.85-2,2.24-2,2.19C13,60.5,4.64,63.38,4.64,78.77l.43.18H40.79l.43-.18C41.22,63.38,32.83,60.5,30.77,60Z"/><path class="cls-5" d="M29.76,58.54c-.27-.69-.93-1.33-1.16-1.88l-.76-1.73a45.19,45.19,0,0,1-1.44,4.75s-4.24,2-3.57,2.17S26.64,66,27.54,67s.75,2,1,.6S30.48,60.4,29.76,58.54Z"/><path class="cls-5" d="M19.47,59.68A47.74,47.74,0,0,1,18,54.93l-.76,1.73c-.24.55-.89,1.19-1.16,1.88-.72,1.86,1,7.65,1.23,9.06s.09.44,1-.6,3.83-5,4.5-5.15S19.47,59.68,19.47,59.68Z"/><path class="cls-6" d="M23,8.8C4.1,8.8,4,24.55,4.83,34.86,3.54,32.42-.29,33.17,0,37s5.71,5.63,5.63,5.2C7.21,50.7,16.09,55.6,23,55.6h.14V8.8Z"/><path class="cls-7" d="M1.23,35.39A1.79,1.79,0,0,1,4,34.87a1.54,1.54,0,0,1,.44,1.71c-.13.5-.65.54-.52,1.29A1.33,1.33,0,0,0,4.62,39a1.72,1.72,0,0,1,.64.69,1.86,1.86,0,0,1,.08,1.06c-.14.61-1,.13-1.62-.14a11.6,11.6,0,0,1-2-1.58A3.37,3.37,0,0,1,1.23,35.39Z"/><path class="cls-8" d="M23.07,8.8c18.89,0,19,15.75,18.15,26.06,1.3-2.44,5.13-1.69,4.82,2.16s-5.72,5.63-5.65,5.2C38.85,50.7,30,55.6,23.07,55.6h-.14V8.8Z"/><path class="cls-7" d="M44.83,35.39a1.8,1.8,0,0,0-2.73-.52,1.57,1.57,0,0,0-.44,1.71c.14.5.66.54.53,1.29A1.32,1.32,0,0,1,41.43,39c-.22.19-.5.33-.63.69a1.78,1.78,0,0,0-.08,1.06c.14.61,1,.13,1.62-.14a12,12,0,0,0,2-1.58A3.39,3.39,0,0,0,44.83,35.39Z"/><path class="cls-1" d="M22.82,13.24c-6.22,0-10.76,1.8-13.52,5.35C5.46,23.54,5.61,31.12,7,36.55c.44,1.66.66,6.14,1,7.79C9.32,51.68,17.46,55.6,22.82,55.6H23V13.24Z"/><path class="cls-2" d="M36.3,18.59c-2.73-3.52-7.22-5.32-13.34-5.35V55.59c6.12-.06,13.44-4.35,14.69-11.25.3-1.65.52-6.13,1-7.79C40,31.13,40.16,23.57,36.3,18.59Z"/><path class="cls-9" d="M7.32,53.76l0,.06h0a11.55,11.55,0,0,0,2.52,4,14.35,14.35,0,0,0,3.79,2.88,18.74,18.74,0,0,1-1.76-1.55,17.76,17.76,0,0,1-1.5-1.75A12.42,12.42,0,0,1,9,55.14c.31.14.63.28.94.39.88.33,1.8.59,2.59.86l1.08.38-.24-1.07a23.25,23.25,0,0,0-1-3.09c-.06-.13-.12-.27-.17-.41.3.22.6.44.92.65a19.66,19.66,0,0,0,3.5,1.89,15.46,15.46,0,0,0,3.85,1.11,11.8,11.8,0,0,0,2.52.06,11.91,11.91,0,0,0,2.53-.06,15.64,15.64,0,0,0,3.84-1.11,19.66,19.66,0,0,0,3.5-1.89l.92-.65c0,.14-.11.28-.16.41a21.9,21.9,0,0,0-1,3.09l-.24,1.07,1.08-.38c.8-.27,1.71-.53,2.59-.86.31-.11.63-.25.94-.39a12.42,12.42,0,0,1-1.43,2.28A16.51,16.51,0,0,1,34,59.17a20,20,0,0,1-1.75,1.55,14.68,14.68,0,0,0,3.79-2.88,11.85,11.85,0,0,0,2.52-4h0s0,0,0-.06l.92-2.68-2,2.36a1.22,1.22,0,0,1-.28.26,3.88,3.88,0,0,1-.5.29c-.37.18-.78.33-1.19.48s-1,.3-1.45.44c.52-1.58,1.23-3.16,1.91-4.71L37.45,47,35,49.5c-.41.42-.9.85-1.38,1.25s-1,.79-1.48,1.16a27.82,27.82,0,0,1-3.2,2,18,18,0,0,1-3.55,1.37,11.41,11.41,0,0,1-2.41.37,11.32,11.32,0,0,1-2.4-.37A17.51,17.51,0,0,1,17,53.93a28,28,0,0,1-3.21-2c-.5-.37-1-.76-1.48-1.16s-1-.83-1.38-1.25L8.47,47,9.86,50.2c.68,1.55,1.39,3.13,1.92,4.71-.5-.14-1-.28-1.46-.44s-.82-.3-1.19-.48a3.88,3.88,0,0,1-.5-.29,1,1,0,0,1-.28-.26L6.4,51.08Z"/><path class="cls-9" d="M8.47,47s12.5,15.33,29,0l-4.68,5.52s-11.91,9-22.8-2.64Z"/><path class="cls-9" d="M6,35.55c-.37,0,0-2-1.23-3.38s-3.18-6-3.18-10.69S3.23,12.7,7.52,8.31A30.36,30.36,0,0,1,18.1,1.78L15.2,4.41S16.76,2.27,22.37.56c4.43-1.35,7.29.15,7.29.15s-2.91-.09-3.8,1.17a4.74,4.74,0,0,1-1,.81s1.36-3,7.66-.52,6.18,7,10.57,8.4,5.78-.4,5.78-.4-1.94,3.18-5.4,3.19c-.66,0-.62,0-.62,0a28.48,28.48,0,0,1,1.54,6c.26,2.6-.53,4.38-.78,9.24-.21,4.15-1.35,2-2.7,5.09a6.3,6.3,0,0,0-.48,2.18c-.5.12-1.82-2.5-.87-7,.62-2.95-2.43-14.12-9.77-11.95-4.5,1.34-5.63,4.05-9,1.64-2.9-2.08-6.94-3.27-10-1.63s-4.73,5.34-4.2,11.24C7.26,35.61,6,35.55,6,35.55Z"/></g></g></svg>