<svg xmlns="http://www.w3.org/2000/svg" viewBox="0 0 53.53 80.42"><defs><style>.cls-1{fill:#5a4f51;}.cls-2{fill:#dcc5a1;}.cls-3{fill:#edd9b4;}.cls-4,.cls-8{fill:#bc9f82;}.cls-4{opacity:0.7;}.cls-5{fill:#895a59;}.cls-6{fill:#403836;}.cls-7{fill:#ccad8b;}.cls-9{fill:#d9bf9f;}</style></defs><title>Ativo 8avatar</title><g id="Camada_2" data-name="Camada 2"><g id="Objects"><path class="cls-1" d="M17.22,37.6a3.61,3.61,0,0,0-2.48-1.37,14,14,0,0,0-1.54-3.78c-2.09-2.85-7.33-.62-7.33-.62,0,3.35,1.17,5,0,7.71s-.26,1.33-2.43,4S.87,46.81.35,48.7c-1,3.58.41,7.93.67,8.83s-1-6.21,2.34-7.38A9,9,0,0,0,5,49.41a9.92,9.92,0,0,1-.17,4,8.59,8.59,0,0,0,.41,5.63,4.55,4.55,0,0,0,2.55,2.38,3.79,3.79,0,0,1-1.21-4.1c.48-1.84,1.38-2.65,1.88-4.21a11.33,11.33,0,0,0,.46-1.94A3.59,3.59,0,0,0,9.23,53c.58,1.13,2.41,3,2,5.28-1.14,6.39,1.22,8.15,1.55,8.93s-.92-2.06-.08-4.43a4.12,4.12,0,0,1,1.95-2.35,4.7,4.7,0,0,1,.6,3c-1.14,6.4,1.22,8.15,1.55,8.93s-.92-2-.09-4.42,2.35-2.09,3.62-3.8A10,10,0,0,0,21.71,55C21.54,54.49,19.31,40.45,17.22,37.6Z"/><path class="cls-1" d="M53.18,48.59c-.52-1.89-.92-2.57-3.09-5.2s-1.26-1.28-2.43-4,0-4.36,0-7.71c0,0-5.24-2.23-7.33.61a14.32,14.32,0,0,0-1.54,3.78,3.64,3.64,0,0,0-2.48,1.38c-2.09,2.84-4.33,16.89-4.5,17.4A10,10,0,0,0,33.19,64c1.27,1.71,2.78,1.43,3.62,3.8a8.34,8.34,0,0,1-.1,4.42c.34-.78,2.7-2.53,1.56-8.93a4.63,4.63,0,0,1,.6-3,4.12,4.12,0,0,1,2,2.35,8.3,8.3,0,0,1-.09,4.42c.34-.78,2.7-2.53,1.56-8.92-.41-2.28,1.43-4.15,2-5.28a3.58,3.58,0,0,0,.31-1.78,14,14,0,0,0,.46,1.95c.5,1.55,1.41,2.35,1.89,4.2a3.82,3.82,0,0,1-1.22,4.11A4.59,4.59,0,0,0,48.3,59a8.59,8.59,0,0,0,.4-5.63,10.09,10.09,0,0,1-.16-4,9,9,0,0,0,1.63.74c3.35,1.17,2.09,8.27,2.34,7.38S54.17,52.17,53.18,48.59Z"/><path class="cls-2" d="M26.43,48.49V80.42H9l-.43-.18c0-17.13,10.66-18.41,10.66-18.41,1.07,0,1.75-1.36,2.21-3.43.07-.32.13-.65.18-1,.1-.59.18-1.21.24-1.85,0-.39.08-.78.11-1.18.14-1.6.18-3.32.2-5,0-.38,0-.76,0-1.13C22.19,48.26,24.53,48.49,26.43,48.49Z"/><path class="cls-3" d="M44.34,80.24s-.16.06-.41.18H26.43V48.49h0c1.9,0,4.26-.23,4.26-.23,0,.44,0,.87,0,1.31,0,1.59.08,3.23.2,4.75,0,.39.07.78.1,1.16.08.66.15,1.3.25,1.89v0c0,.27.08.51.13.75.45,2.21,1.16,3.69,2.26,3.69C33.67,61.83,44.34,63.11,44.34,80.24Z"/><path class="cls-4" d="M31.28,57.94h0a5.63,5.63,0,0,1-4.82,2.62h0A6.07,6.07,0,0,1,21.63,58c.1-.58.18-1.2.24-1.85,0-.39.08-.78.11-1.18a19.11,19.11,0,0,0,4.4.57h.05a17.85,17.85,0,0,0,4.5-.62c0,.39.07.78.11,1.16C31.11,56.71,31.18,57.34,31.28,57.94Z"/><path class="cls-5" d="M44.34,80.24s-.16.06-.41.18H9l-.43-.18c0-16.73,10.16-18.33,10.65-18.41h0c.81,0,1.4-.78,1.83-2a1.81,1.81,0,0,0,.76.66c.62.35,1.8.67,4.64.67S31.18,60.5,31.7,60a.64.64,0,0,0,.15-.25c.42,1.22,1,2,1.73,2h.09S44.34,63.11,44.34,80.24Z"/><path class="cls-6" d="M33.8,63.63c-2.35,1.66-3.89,2-7.39,2s-4.71-.49-6.49-1.38c-1.26-.62-2.15-1.11-1.23-1.91a5.29,5.29,0,0,0,.54-.55h0A8.78,8.78,0,0,0,20,60.75c.47-.7-.86-1.1,0-1.63a2.16,2.16,0,0,1,1.45-.43c-.3,1.09.16,1.59.46,1.75.62.35,1.8.67,4.64.67a9.57,9.57,0,0,0,4.81-1c.52-.28.38-.85.37-1.1a1,1,0,0,1-.08-.22s1.57.09,1.43.86a3,3,0,0,0,.58,2.13,3.39,3.39,0,0,0,.2.28C34.35,62.83,35.18,62.66,33.8,63.63Z"/><polygon class="cls-1" points="16.9 71.07 15.59 68.8 14.26 71.07 12.94 73.35 14.26 75.62 15.59 77.9 16.9 75.62 18.22 73.35 16.9 71.07"/><polygon class="cls-1" points="22.18 71.07 20.86 68.8 19.54 71.07 18.22 73.35 19.54 75.62 20.86 77.9 22.18 75.62 23.5 73.35 22.18 71.07"/><polygon class="cls-1" points="27.46 71.07 26.14 68.8 24.82 71.07 23.5 73.35 24.82 75.62 26.14 77.9 27.46 75.62 28.78 73.35 27.46 71.07"/><polygon class="cls-1" points="32.74 71.07 31.42 68.8 30.1 71.07 28.78 73.35 30.1 75.62 31.42 77.9 32.74 75.62 34.06 73.35 32.74 71.07"/><polygon class="cls-1" points="38.02 71.07 36.7 68.8 35.38 71.07 34.06 73.35 35.38 75.62 36.7 77.9 38.02 75.62 39.34 73.35 38.02 71.07"/><path class="cls-7" d="M26.48,11.86C8,11.86,7.92,27.26,8.74,37.33,7.48,35,3.73,35.68,4,39.44s5.59,5.5,5.51,5.08c1.51,8.29,10.2,13.08,16.93,13.08h.14V11.86Z"/><path class="cls-8" d="M5.22,37.85a1.74,1.74,0,0,1,2.66-.5A1.51,1.51,0,0,1,8.31,39c-.12.48-.64.52-.51,1.25a1.3,1.3,0,0,0,.74,1.07c.21.19.49.33.62.68a1.76,1.76,0,0,1,.08,1c-.14.6-1,.13-1.59-.14a11,11,0,0,1-1.91-1.55A3.3,3.3,0,0,1,5.22,37.85Z"/><path class="cls-9" d="M26.57,11.86c18.46,0,18.56,15.4,17.74,25.47,1.27-2.38,5-1.65,4.71,2.11s-5.59,5.5-5.52,5.08C42,52.81,33.31,57.6,26.57,57.6h-.14V11.86Z"/><path class="cls-8" d="M47.84,37.85a1.75,1.75,0,0,0-2.67-.5A1.54,1.54,0,0,0,44.74,39c.13.48.64.52.52,1.25a1.32,1.32,0,0,1-.74,1.07,1.74,1.74,0,0,0-.63.68,1.84,1.84,0,0,0-.08,1c.14.6,1,.13,1.59-.14a10.64,10.64,0,0,0,1.91-1.55A3.3,3.3,0,0,0,47.84,37.85Z"/><path class="cls-2" d="M26.32,16.2c-6.07,0-10.51,1.76-13.21,5.23C9.36,26.27,9.5,33.67,10.89,39c.42,1.62.64,6,.93,7.6,1.31,7.19,9.26,11,14.5,11h.14V16.2Z"/><path class="cls-3" d="M39.5,21.44c-2.67-3.45-7.06-5.21-13-5.24V57.59c6-.06,13.13-4.25,14.36-11,.29-1.6.51-6,.93-7.6C43.14,33.69,43.27,26.3,39.5,21.44Z"/><path class="cls-1" d="M20.28,11.73c-2-2.46-3.37-6.2,0-8.91A11.84,11.84,0,0,1,28.08,0c1.39,0,5.42.39,6.55,2.82s4.26,4,1.46,6.23-1.82,3.8-8.37,3.8S20.28,11.73,20.28,11.73Z"/><path class="cls-5" d="M7.36,24.53c.24-2.79-2.78-1.56.82-5.69s6-6.48,8.82-7.38,6.15-3.12,11.26-2.68,7.89-1.34,10.57,2.46,3.59,4.14,4.64,8.38,4.52,7.52.46,7S7.36,24.53,7.36,24.53Z"/><path class="cls-1" d="M44.29,23.53c-1.25-.45-4.39-1.43-7.11-2.39a6,6,0,0,0-1.11-.43c-4.12-1.16-4.32-3.05-10.28-2.6S12.05,22.35,9,23.47s-3.9,4-3.67,7.26a20.8,20.8,0,0,0,1,5.36c3.89-2.57,7.91-5.69,12.37-6.14s6.53-.78,10.89,0,6.8.18,10.87,2.09c2.23,1.19,4.37,2.73,6.48,4.12a20.8,20.8,0,0,0,1-5.36C48.19,27.55,47.39,24.65,44.29,23.53Z"/><path class="cls-1" d="M37.19,51.15c-.28-1-1.36-.68-3.36-1.37a27,27,0,0,0-7.36-1.06h0a26.93,26.93,0,0,0-7.35,1.06c-2,.69-3.08.39-3.36,1.37a8.57,8.57,0,0,0,.45,3.29c.79,1.24,3.32,2.76,5.21,3.61,1.42.65,2.55.67,5.06.61s3.64,0,5.06-.61c1.89-.85,4.43-2.37,5.21-3.61A8.39,8.39,0,0,0,37.19,51.15Zm-3.76.48a14,14,0,0,1-3.68,2.28,3.61,3.61,0,0,1-1.82.25c-.4,0-.84,0-1.36,0h-.23c-.51,0-1,0-1.36,0a3.64,3.64,0,0,1-1.82-.25,12.8,12.8,0,0,1-3.72-2.36,5.24,5.24,0,0,1,1.08-.49,23.71,23.71,0,0,1,5.93-.83h.13a23.48,23.48,0,0,1,5.82.83,5.61,5.61,0,0,1,1.06.48Z"/></g></g></svg>