<svg xmlns="http://www.w3.org/2000/svg" xmlns:xlink="http://www.w3.org/1999/xlink" viewBox="0 0 49.07 77.83"><defs><style>.cls-1{fill:none;}.cls-2{fill:#dcc5a1;}.cls-3{fill:#edd9b4;}.cls-4{clip-path:url(#clip-path);}.cls-5{fill:#bc9f82;}.cls-6{fill:#fdfdff;}.cls-7{fill:#c58b8e;}.cls-8{fill:#ccad8b;}.cls-9{fill:#d9bf9f;}.cls-10{fill:#b47070;}.cls-11{fill:#c17874;}.cls-12{fill:#23313c;}</style><clipPath id="clip-path"><rect class="cls-1" x="19.52" y="48.95" width="10.35" height="6.29"/></clipPath></defs><title>Ativo 24avatar</title><g id="Camada_2" data-name="Camada 2"><g id="Objects"><path class="cls-2" d="M24.83,42.5V77.83H5.55a4.43,4.43,0,0,0-.47-.2c0-8.92,2.61-14,5.36-16.79a11.91,11.91,0,0,1,6.44-3.58H17l.25,0c1-.27,1.65-1.7,2.08-3.75.08-.35.15-.71.2-1.1.11-.65.22-1.34.28-2,.05-.43.07-.86.12-1.31.17-2.16.23-4.52.23-6.76,0,0,2.34.23,4.37.26Z"/><path class="cls-3" d="M44.32,77.63a3.92,3.92,0,0,0-.46.2H24.51V42.5h.32c2,0,4.42-.26,4.42-.26,0,2.22.06,4.56.23,6.71l.12,1.28c.09.74.16,1.44.27,2.1h0c0,.3.1.57.15.84.41,2,1,3.43,1.86,3.92l.21.08a1.22,1.22,0,0,0,.43.08,11.68,11.68,0,0,1,6,3.15,16.24,16.24,0,0,1,1.84,2.1c2.19,3,4,7.73,4,15.12Z"/><g class="cls-4"><path class="cls-5" d="M29.87,52.33v0a6,6,0,0,1-5.18,2.89h0a6.47,6.47,0,0,1-5.15-2.88c.11-.64.2-1.34.26-2L19.9,49a20.08,20.08,0,0,0,4.72.63h.05A18.94,18.94,0,0,0,29.49,49l.12,1.29c.07.74.15,1.43.26,2.09"/></g><path class="cls-6" d="M44.32,77.63a3.92,3.92,0,0,0-.46.2H5.55a4.43,4.43,0,0,0-.47-.2c0-8.92,2.63-14.61,5.81-17.23A9.26,9.26,0,0,0,11,61.64a8.24,8.24,0,0,0,.47,2.2c1.84,2.93,8.94,5.94,10.78,6.12l.81.09,1.38.08h.07a1.72,1.72,0,0,1,.32,0l1-.06.81-.09c1.84-.18,9-3.19,10.77-6.12a10.15,10.15,0,0,0,.68-2.16l-.07-.3c.08-.27-.26-1.17-.17-1.6a16.28,16.28,0,0,1,2.54,2.57c2.26,3.37,4,7.89,4,15.28Z"/><path class="cls-7" d="M23.12,77.83H21c.07-1.3.17-3.38.17-4.55a4,4,0,0,0-1.95-4C17,67.67,11.28,67.78,10.71,64a9,9,0,0,1-.05-2.29h0A8.12,8.12,0,0,1,11,60s1.08-.88,1.48-1.13,2.15-1.09,2.15-1.09c0,1.75-1.43,5.58.33,6.88s5.53,2.38,6.54,2.9A2.72,2.72,0,0,1,23,69.78a.87.87,0,0,1,0,.27c.11,1.26.08,5.59.06,7.78Z"/><path class="cls-7" d="M38.14,64c-.55,3.76-6.28,3.65-8.45,5.22a4,4,0,0,0-2,4c0,1.17.09,3.25.16,4.55H25.74c0-2.19,0-6.52.06-7.78a.87.87,0,0,1,0-.27,2.74,2.74,0,0,1,1.54-2.19c1-.52,4.78-1.59,6.53-2.9s.33-5.23.33-7a14.63,14.63,0,0,1,2.12.78,6.7,6.7,0,0,1,1.55,1.37,15.12,15.12,0,0,1,.31,1.79v0A10,10,0,0,1,38.14,64Z"/><path class="cls-8" d="M24.48,4.53C4.37,4.49,4.25,20.6,5.15,31.1,3.77,28.64-.31,29.56,0,33.51.34,37.29,6.11,39,6,38.58c1.64,8.56,11.12,13.31,18.45,14h.16v-48Z"/><path class="cls-5" d="M1,31.83a2,2,0,0,1,3-.53,1.55,1.55,0,0,1,.48,1.76c-.14.5-.71.54-.57,1.31a1.38,1.38,0,0,0,.82,1.13,1.75,1.75,0,0,1,.69.71,1.87,1.87,0,0,1,.09,1.09c-.16.62-1.12.12-1.76-.15a11.24,11.24,0,0,1-2.11-1.63A3.33,3.33,0,0,1,1,31.83Z"/><path class="cls-9" d="M24.59,4.53c20.12,0,20.24,16.07,19.33,26.57,1.39-2.46,5.47-1.54,5.13,2.41C48.73,37.29,43,39,43,38.58c-1.64,8.56-11.12,13.31-18.45,14h-.16v-48Z"/><path class="cls-5" d="M48.19,31.83a2,2,0,0,0-2.95-.53,1.55,1.55,0,0,0-.48,1.76c.14.5.7.54.57,1.31a1.4,1.4,0,0,1-.82,1.13,1.75,1.75,0,0,0-.69.71,1.87,1.87,0,0,0-.09,1.09c.15.62,1.12.12,1.76-.15a11.93,11.93,0,0,0,2.11-1.63,3.33,3.33,0,0,0,.59-3.69Z"/><path class="cls-2" d="M24.38,9.09c-6.72,0-11.63,1.84-14.61,5.49C5.61,19.67,5.77,27.44,7.3,33c.47,1.71.71,6.31,1,8,1.44,7.55,10.25,11.57,16,11.57h.16V9.09Z"/><path class="cls-3" d="M39,14.59C36,11,31.15,9.13,24.54,9.09V52.57C31.15,52.5,39.06,48.11,40.43,41c.31-1.68.56-6.28,1-8C43,27.46,43.13,19.69,39,14.59Z"/><path class="cls-10" d="M27.92,45.76a5.36,5.36,0,0,1-3.39,1.62,5,5,0,0,1-3.3-1.59,22.13,22.13,0,0,1,3.3-.24,27.64,27.64,0,0,1,3.39.21Z"/><path class="cls-11" d="M25.49,45a.87.87,0,0,0-1,.73.87.87,0,0,0-1-.73,13.65,13.65,0,0,0-2.43.74S23,46,23.52,46s1,.22,1-.18c0,.4.39.24.92.24s2.47-.25,2.47-.25A13.65,13.65,0,0,0,25.49,45Z"/><path class="cls-12" d="M4.85,16.49c.25-.73.5-1.41.76-2.06v-.28A3.63,3.63,0,0,1,6.67,11.7a1.6,1.6,0,0,1,.16-2.11,1.33,1.33,0,0,1-.71-2.28l.46-.43a1.83,1.83,0,0,1-.45-.35C5.62,6,5.51,5.27,5.89,4.92l.21-.2a1.36,1.36,0,0,1-.4-.29c-.37-.39-.45-.92-.17-1.18L8.82.14A.87.87,0,0,1,10,.38a1.45,1.45,0,0,1,.27.41l.16-.14C10.79.29,11.51.43,12,1a1.74,1.74,0,0,1,.32.46l.2-.19a1.34,1.34,0,0,1,1.9.05,1.29,1.29,0,0,1,.35.79A1.63,1.63,0,0,1,17,2.24a1.53,1.53,0,0,1,.33.52,6.31,6.31,0,0,1,3.86-1l0,.06C22.57,1.48,30,0,34.45,1.64c4.89,1.83,8.9,5,11.73,13.44s.5,15.37,0,18.33C44.4,42.76,33.35,52,33.35,52s4.82-5.83,5.76-8.32a27.67,27.67,0,0,0,1.82-10.14c0-4.13-2-5.69-2.6-6.08a18.16,18.16,0,0,1,.47,3.1A11.78,11.78,0,0,1,36.93,38s2.92-5.42-1.74-9.47a30.62,30.62,0,0,1-3.71-3.86h0C32.65,27.87,30,35.33,30,35.33s.37-8.88-2.06-10.27c-5.91-3.4-6.85-4.8-7.69-7.54A6.16,6.16,0,0,1,20,16.47l-5.41,7.91c-.25.35-.67.93-1.14,1.68C12,28.25,10.1,31.84,10.1,35c0,4.89.75,6.66.75,6.66s-2.51,0-5.95-6.81C3.54,32.14,2,24.94,4.85,16.49Z"/></g></g></svg>