<svg xmlns="http://www.w3.org/2000/svg" viewBox="0 0 46.05 75.01"><defs><style>.cls-1{fill:#dcc5a1;}.cls-2{fill:#edd9b4;}.cls-3,.cls-8{fill:#bc9f82;}.cls-3{opacity:0.7;}.cls-4{fill:#5a4f51;}.cls-5{fill:#14150c;}.cls-6{fill:#010400;}.cls-7{fill:#ccad8b;}.cls-9{fill:#d9bf9f;}.cls-10{fill:#f8f7e0;}</style></defs><title>Ativo 9avatar</title><g id="Camada_2" data-name="Camada 2"><g id="Objects"><path class="cls-1" d="M22.93,42.34V75H5.1l-.44-.18C4.66,57.3,15.58,56,15.58,56c.81,0,1.39-.77,1.85-2,.14-.44.28-.93.4-1.48q.11-.48.18-1c.11-.6.19-1.24.25-1.9q.06-.59.12-1.2c.16-2,.21-4.19.21-6.26C18.59,42.1,21,42.34,22.93,42.34Z"/><path class="cls-2" d="M41.25,74.83l-.42.18H22.93V42.34h0c1.93,0,4.35-.24,4.35-.24,0,2.06,0,4.21.21,6.2,0,.4.07.8.11,1.19.08.68.15,1.33.25,1.94h0c0,.28.09.53.14.77a8.91,8.91,0,0,0,.87,2.66c.38.71.85,1.12,1.44,1.12C30.34,56,41.25,57.3,41.25,74.83Z"/><path class="cls-3" d="M27.89,51.43v0A5.79,5.79,0,0,1,23,54.13h0A6.22,6.22,0,0,1,18,51.46c.1-.6.18-1.24.25-1.9,0-.39.07-.79.11-1.2a19.91,19.91,0,0,0,4.5.58h.05a18.65,18.65,0,0,0,4.6-.63c0,.39.07.79.11,1.18C27.72,50.17,27.79,50.82,27.89,51.43Z"/><path class="cls-4" d="M41.28,74.83l-.43.18H5.13l-.44-.18c0-17.64,10.91-18.95,10.91-18.95.82,0,1.4-.78,1.85-2.05l5.5.44,6,.48c.38.71.85,1.13,1.44,1.13C30.37,55.88,41.28,57.19,41.28,74.83Z"/><path class="cls-5" d="M29.39,55.18s-.7-3-1.21-3-5.48,2.3-5.48,2.3l1.58,3.3Z"/><path class="cls-5" d="M16.15,55.18s.7-3,1.21-3,5.48,2.3,5.48,2.3l-1.57,3.3Z"/><path class="cls-6" d="M39.46,61.31a13.7,13.7,0,0,0-6.25-4.82L23,71.93l-.11.17-.11-.17L12.57,56.49a13.7,13.7,0,0,0-6.25,4.82,7.2,7.2,0,0,1,1.63,3c1.29,4.14.55,9.18.28,10.68H37.55c-.27-1.5-1-6.54.28-10.68A7.32,7.32,0,0,1,39.46,61.31Z"/><path class="cls-7" d="M23,4.86C4.1,4.86,4,20.62,4.83,30.92,3.54,28.48-.29,29.23,0,33.08s5.71,5.63,5.64,5.2C7.2,46.76,16.09,51.66,23,51.66h.14V4.87Z"/><path class="cls-8" d="M1.22,31.46A1.79,1.79,0,0,1,4,30.94a1.53,1.53,0,0,1,.44,1.71c-.13.49-.65.53-.52,1.28A1.32,1.32,0,0,0,4.62,35a1.75,1.75,0,0,1,.64.7,1.85,1.85,0,0,1,.08,1.06c-.14.61-1,.12-1.63-.15a11.07,11.07,0,0,1-1.95-1.58A3.38,3.38,0,0,1,1.22,31.46Z"/><path class="cls-9" d="M23.07,4.86c18.89,0,19,15.76,18.15,26.06,1.3-2.44,5.13-1.69,4.82,2.16s-5.72,5.63-5.64,5.2C38.85,46.76,30,51.66,23.07,51.66h-.14V4.87Z"/><path class="cls-8" d="M44.83,31.46a1.79,1.79,0,0,0-2.73-.52,1.57,1.57,0,0,0-.44,1.71c.13.49.66.53.53,1.28A1.3,1.3,0,0,1,41.43,35a1.67,1.67,0,0,0-.63.7,1.86,1.86,0,0,0-.09,1.06c.15.61,1,.12,1.63-.15a11.51,11.51,0,0,0,2-1.58A3.38,3.38,0,0,0,44.83,31.46Z"/><path class="cls-1" d="M22.82,9.3c-6.22,0-10.76,1.8-13.52,5.35-3.84,5-3.69,12.53-2.28,18,.44,1.67.66,6.14,1,7.79,1.34,7.35,9.48,11.26,14.84,11.26H23V9.31Z"/><path class="cls-2" d="M36.3,14.66C33.57,11.13,29.07,9.34,23,9.31V51.66c6.12-.07,13.43-4.36,14.7-11.26.29-1.65.51-6.12,1-7.79C40,27.19,40.16,19.63,36.3,14.66Z"/><path class="cls-10" d="M27.2,43.78a1.61,1.61,0,0,0-.82.23c1,.59,1.72,2.22,1.72,4.14a6.68,6.68,0,0,1-.43,2.41l-.17.09c-.52-1.11-2.55-1.95-5-1.95s-4.48.84-5,2l-.15-.08a6.59,6.59,0,0,1-.44-2.44c0-1.92.72-3.55,1.72-4.14a1.59,1.59,0,0,0-.82-.23c-1.4,0-2.53,2-2.53,4.37a6.11,6.11,0,0,0,.82,3.22c.54,1,2.17,1.82,4.29,2.14a9.26,9.26,0,0,0,2.1.23,9.7,9.7,0,0,0,2.24-.26A7.89,7.89,0,0,0,28,52.26c1-.6,1.69-2.21,1.69-4.11C29.73,45.74,28.6,43.78,27.2,43.78Z"/><path class="cls-10" d="M38.13,6.13C33.67,3,27-.27,22.92.13,12.93-.85,10,3.82,7.7,5.43c-7.28,5.11-4.83,23.4-4.83,23.4a2.27,2.27,0,0,1,1.85.39,5.88,5.88,0,0,1,1.72,3,2.54,2.54,0,0,0,1.3,1.56S6,26.49,7.79,23.25a16.17,16.17,0,0,1,3.34-4.74,8.36,8.36,0,0,0,.69,3.23c1.12,2.71,5.72,4.37,5.72,4.37s-3.39-1.87-2-4.14c.81-1.38,5.51-2.63,8.28-2.85,4-.31,5.89-1.71,6.66-3.12a8.81,8.81,0,0,1,2.21.95c3.33,2.11,4.29,4.3,5.4,6.3,1.79,3.24.05,10.52.05,10.52a2.5,2.5,0,0,0,1.29-1.56,5.9,5.9,0,0,1,1.73-3A2.27,2.27,0,0,1,43,28.83S45.4,11.24,38.13,6.13Z"/></g></g></svg>