<svg xmlns="http://www.w3.org/2000/svg" xmlns:xlink="http://www.w3.org/1999/xlink" viewBox="0 0 53.29 85.45"><defs><style>.cls-1{fill:none;}.cls-2{fill:#dcc5a1;}.cls-3{fill:#edd9b4;}.cls-4{clip-path:url(#clip-path);}.cls-5{fill:#bc9f82;}.cls-6{fill:#f8f7e0;}.cls-7{fill:#223727;}.cls-8{fill:#ccad8b;}.cls-9{fill:#d9bf9f;}.cls-10{fill:#3b2f18;}</style><clipPath id="clip-path"><rect class="cls-1" x="21.62" y="54.95" width="11.28" height="6.64"/></clipPath></defs><title>Ativo 18avatar</title><g id="Camada_2" data-name="Camada 2"><g id="Objects"><path class="cls-2" d="M27.24,48.13V85.45H6.88l-.5-.21c0-15.25,7.24-19.74,10.67-21a9.51,9.51,0,0,1,1.79-.48c1.24,0,2-1.6,2.57-4a10.15,10.15,0,0,0,.21-1.17c.12-.68.22-1.41.29-2.16,0-.46.09-.91.13-1.38.18-2.3.24-4.79.24-7.14,0,0,2.74.26,5,.26Z"/><path class="cls-3" d="M48.16,85.24l-.48.21H27.24V48.13h0c2.21,0,5-.26,5-.26,0,2.34,0,4.81.24,7.08,0,.45.09.91.13,1.35.08.79.17,1.52.28,2.23h0c.05.32.1.6.16.88.53,2.58,1.36,4.32,2.64,4.32a9.32,9.32,0,0,1,1.76.47c3.42,1.26,10.7,5.74,10.7,21Z"/><g class="cls-4"><path class="cls-5" d="M32.9,58.52h0a6.58,6.58,0,0,1-5.64,3.06h0a7.08,7.08,0,0,1-5.61-3c.12-.68.22-1.41.29-2.16L22,55a23.09,23.09,0,0,0,5.15.66h.05A21.35,21.35,0,0,0,32.49,55l.12,1.35c.09.79.17,1.52.29,2.22"/></g><path class="cls-6" d="M48.16,85.24l-.48.21H6.88l-.5-.21c0-15.28,7.24-19.78,10.67-21.06,2.25,2.46,6.69,5.85,10.11,6h.1s0,0,.08,0c3.43-.17,7.88-3.58,10.12-6,3.42,1.27,10.7,5.75,10.7,21.08Z"/><path class="cls-7" d="M15.14,65.07c2.65,2.93,7.93,7,12,7.15h.12s.05,0,.09,0c4.07-.2,9.33-4.23,12-7.15a12.8,12.8,0,0,0-1.91-.91c-2.24,2.46-6.69,5.87-10.12,6,0,0-.06,0-.07,0h-.1c-3.43-.17-7.87-3.56-10.11-6a12.85,12.85,0,0,0-1.88.89Z"/><path class="cls-8" d="M26.94,5.34C5.37,5.34,5.25,23.33,6.2,35.1,4.73,32.31.35,33.17.71,37.57,1.06,41.8,7.24,44,7.15,43.49c1.77,9.7,11.91,15.29,19.79,15.29h.16V5.34Z"/><path class="cls-5" d="M2.09,35.71a2,2,0,0,1,3.11-.6,1.78,1.78,0,0,1,.51,2c-.15.56-.75.6-.6,1.46A1.5,1.5,0,0,0,6,39.77a2,2,0,0,1,.73.8,2.12,2.12,0,0,1,.09,1.21c-.16.69-1.18.14-1.86-.16a13.34,13.34,0,0,1-2.22-1.81,3.82,3.82,0,0,1-.62-4.1Z"/><path class="cls-9" d="M27,5.34c21.57,0,21.69,18,20.73,29.76,1.49-2.79,5.86-1.93,5.5,2.47-.35,4.23-6.53,6.42-6.45,5.92C45.06,53.19,34.91,58.78,27,58.78h-.16V5.34Z"/><path class="cls-5" d="M51.89,35.71a2,2,0,0,0-3.11-.6,1.79,1.79,0,0,0-.51,2c.15.56.75.6.61,1.46A1.51,1.51,0,0,1,48,39.77a1.76,1.76,0,0,0-.82,2c.16.69,1.18.14,1.85-.16a13.07,13.07,0,0,0,2.24-1.81,3.86,3.86,0,0,0,.61-4.1Z"/><path class="cls-2" d="M27.11,10.4c-7.1,0-12.29,2.06-15.44,6.12C7.28,22.18,7.45,30.82,9.07,37c.49,1.89.75,7,1.09,8.89,1.53,8.39,10.82,12.86,17,12.86h.16V10.41Z"/><path class="cls-3" d="M42.51,16.52c-3.12-4-8.26-6.08-15.24-6.11V58.77c7-.07,15.34-5,16.78-12.85.34-1.88.59-7,1.09-8.89,1.62-6.19,1.77-14.83-2.63-20.51Z"/><path class="cls-1" d="M15.15,39.77a.14.14,0,0,1-.14.14.13.13,0,0,1-.13-.14.13.13,0,0,1,.13-.13.13.13,0,0,1,.14.13"/><path class="cls-1" d="M16.35,42.21a.13.13,0,1,1-.26,0,.13.13,0,1,1,.26,0"/><path class="cls-1" d="M12.66,41.5a.13.13,0,0,1-.13.13.14.14,0,0,1-.14-.13.13.13,0,0,1,.14-.13.13.13,0,0,1,.13.13"/><path class="cls-1" d="M16.08,44.68a.13.13,0,1,1-.26,0,.13.13,0,1,1,.26,0"/><path class="cls-1" d="M17.94,38a.13.13,0,0,1-.13.13.13.13,0,0,1-.14-.13.14.14,0,0,1,.14-.14.13.13,0,0,1,.13.14"/><path class="cls-1" d="M18.07,40.92a.13.13,0,0,1-.13.14.13.13,0,0,1-.13-.14.13.13,0,0,1,.13-.13.13.13,0,0,1,.13.13"/><path class="cls-1" d="M20.42,39.73a.13.13,0,0,1-.13.14.14.14,0,0,1-.14-.14.13.13,0,0,1,.14-.13.13.13,0,0,1,.13.13"/><path class="cls-1" d="M22.42,42.08a.13.13,0,0,1-.14.13.13.13,0,0,1-.13-.13.13.13,0,0,1,.13-.14.14.14,0,0,1,.14.14"/><path class="cls-1" d="M19.38,43.77a.13.13,0,0,1-.13.14.14.14,0,0,1-.13-.14.13.13,0,0,1,.13-.13.13.13,0,0,1,.13.13"/><path class="cls-1" d="M24.8,38a.13.13,0,0,1-.14.13.13.13,0,0,1-.13-.13.13.13,0,0,1,.13-.14.14.14,0,0,1,.14.14"/><path class="cls-1" d="M25.39,42.08a.13.13,0,0,1-.26,0,.13.13,0,1,1,.26,0"/><path class="cls-1" d="M24.23,43.91a.13.13,0,0,1-.13.13.13.13,0,0,1-.13-.13.13.13,0,0,1,.13-.14.14.14,0,0,1,.13.14"/><path class="cls-1" d="M39.05,39.79a.14.14,0,0,0,.14.14.13.13,0,0,0,.13-.14.13.13,0,0,0-.13-.13.13.13,0,0,0-.14.13"/><path class="cls-1" d="M37.85,42.22a.13.13,0,0,0,.13.14.14.14,0,0,0,.14-.14.13.13,0,0,0-.14-.13.13.13,0,0,0-.13.13"/><path class="cls-1" d="M41.54,41.51a.13.13,0,1,0,.26,0,.13.13,0,0,0-.26,0"/><path class="cls-1" d="M38.12,44.7a.13.13,0,1,0,.13-.13.13.13,0,0,0-.13.13"/><path class="cls-1" d="M36.26,38a.13.13,0,0,0,.13.13.13.13,0,1,0,0-.26.13.13,0,0,0-.13.13"/><path class="cls-1" d="M36.12,40.94a.14.14,0,0,0,.14.13.13.13,0,0,0,.13-.13.14.14,0,0,0-.13-.14.15.15,0,0,0-.14.14"/><path class="cls-1" d="M33.78,39.75a.13.13,0,0,0,.13.13.13.13,0,1,0,0-.26.13.13,0,0,0-.13.13"/><path class="cls-1" d="M31.78,42.09a.13.13,0,0,0,.14.13.13.13,0,1,0,0-.26.13.13,0,0,0-.14.13"/><path class="cls-1" d="M34.82,43.78a.13.13,0,1,0,.26,0,.13.13,0,0,0-.26,0"/><path class="cls-1" d="M29.41,38a.13.13,0,0,0,.13.13.13.13,0,0,0,0-.26.13.13,0,0,0-.13.13"/><path class="cls-1" d="M28.81,42.09a.13.13,0,1,0,.13-.13.13.13,0,0,0-.13.13"/><path class="cls-1" d="M30,43.92a.13.13,0,0,0,.13.13.13.13,0,0,0,.14-.13.14.14,0,0,0-.14-.14.14.14,0,0,0-.13.14"/><path class="cls-10" d="M26,52.33a1,1,0,0,0-.14.5v.46a1.14,1.14,0,0,0,2.28,0v-.46a1.07,1.07,0,0,0-.14-.5c-.32,0-.66,0-1,0S26.36,52.3,26,52.33Z"/><path class="cls-10" d="M35.21,50.15a6.47,6.47,0,0,0-.54-.44c-.35-.27-.87-.64-1.53-1.05a10.35,10.35,0,0,0-3.81-1.85,17.63,17.63,0,0,0-4.59,0,10.43,10.43,0,0,0-3.81,1.85c-.66.41-1.18.78-1.53,1.05l-.54.44a6.73,6.73,0,0,0-.94,3.57A7,7,0,0,0,18.67,57a2.38,2.38,0,0,0,.71,1,2.87,2.87,0,0,0,1.06.71A15.07,15.07,0,0,0,27,60a15.07,15.07,0,0,0,6.6-1.32A2.87,2.87,0,0,0,34.7,58a2.45,2.45,0,0,0,.7-1,7,7,0,0,0,.76-3.24A6.73,6.73,0,0,0,35.21,50.15Zm-1.68,6.3A15.27,15.27,0,0,1,27,57.71a15.24,15.24,0,0,1-6.49-1.26,7.59,7.59,0,0,1-.48-3.54,9.06,9.06,0,0,1,5.47-2.64,10.6,10.6,0,0,1,1.5-.1,10.46,10.46,0,0,1,1.49.1A9.09,9.09,0,0,1,34,52.91a7.09,7.09,0,0,1,0,.81A7.3,7.3,0,0,1,33.53,56.45Z"/><path class="cls-10" d="M46.59,39.8c.41,0,0-2.24,1.34-3.79s3.46-6.76,3.46-12S49.61,14.22,45,9.3A33,33,0,0,0,33.43,2l3.15,3S34.89,2.55,28.79.63C24-.88,20.85.8,20.85.8S24,.69,25,2.11a5.05,5.05,0,0,0,1.13.9s-1.48-3.39-8.33-.58-6.73,7.85-11.49,9.4S0,11.38,0,11.38,2.12,14.94,5.88,15c.72,0,.67,0,.67,0a33,33,0,0,0-1.68,6.67c-.27,2.91.59,4.9.85,10.34.23,4.65,1.47,2.27,2.94,5.7a7.25,7.25,0,0,1,.52,2.44c.55.14,2-2.79,1-7.88-.67-3.3,2.64-15.81,10.64-13.38,4.88,1.5,6.11,4.54,9.77,1.84,3.15-2.33,7.55-3.66,10.84-1.83s5.15,6,4.57,12.59C45.22,39.86,46.59,39.8,46.59,39.8Z"/></g></g></svg>