<svg xmlns="http://www.w3.org/2000/svg" xmlns:xlink="http://www.w3.org/1999/xlink" viewBox="0 0 48.59 77.02"><defs><style>.cls-1{fill:none;}.cls-2{fill:#dcc5a1;}.cls-3{fill:#edd9b4;}.cls-4{clip-path:url(#clip-path);}.cls-5{fill:#bc9f82;}.cls-6{fill:#9a6919;}.cls-7{fill:#ccad8b;}.cls-8{fill:#d9bf9f;}.cls-9{fill:#b47070;}.cls-10{fill:#c17874;}.cls-11{fill:#434142;}.cls-12{fill:#fff;}.cls-13{fill:#bd2c62;}</style><clipPath id="clip-path"><rect class="cls-1" x="19" y="48.43" width="10.58" height="6.23"/></clipPath></defs><title>Ativo 25avatar</title><g id="Camada_2" data-name="Camada 2"><g id="Objects"><path class="cls-1" d="M19.64,66.15c-.35.55-.21.5,0,0"/><path class="cls-1" d="M17.49,69.45c-.32.5-.2.46,0,0"/><path class="cls-1" d="M15.29,70.47c-.32.5-.19.46,0,0"/><path class="cls-1" d="M12.38,67.25c-.36.54-.21.5,0,0"/><path class="cls-1" d="M13.54,67.25c-.35.54-.21.5,0,0"/><path class="cls-1" d="M29.38,69.89c.32.51.19.46,0,0"/><path class="cls-1" d="M31.76,72.32c.32.51.19.46,0,0"/><path class="cls-1" d="M34.06,73c.35.55.21.51,0,0"/><path class="cls-1" d="M36.05,70.9c.32.51.19.46,0,0"/><path class="cls-1" d="M35,70.9c.32.51.19.46,0,0"/><path class="cls-2" d="M24.26,42V77H5.17c-.3-.14-.47-.2-.47-.2,0-18.77,11.7-20.17,11.7-20.17h.08l.26,0c1-.27,1.62-1.69,2.06-3.71.08-.35.15-.71.2-1.1.11-.64.2-1.32.27-2,0-.43.08-.85.12-1.29.17-2.15.22-4.48.22-6.69,0,0,2.58.25,4.65.25Z"/><path class="cls-3" d="M43.88,76.82a4.4,4.4,0,0,0-.45.2H24.26V42h0c2.07,0,4.66-.25,4.66-.25,0,2.19,0,4.5.22,6.64,0,.42.08.86.12,1.27.08.73.16,1.43.27,2.08h0c0,.3.09.56.15.83.4,2,1,3.4,1.84,3.88l.21.08a1.2,1.2,0,0,0,.42.08s11.68,1.4,11.68,20.17Z"/><g class="cls-4"><path class="cls-5" d="M29.58,51.77h0a6.18,6.18,0,0,1-5.29,2.88h0A6.7,6.7,0,0,1,19,51.8c.11-.65.2-1.33.27-2l.12-1.3a21.43,21.43,0,0,0,4.82.64h.05a20.73,20.73,0,0,0,4.93-.68c0,.41.07.85.12,1.26.08.73.16,1.43.27,2.08"/></g><path class="cls-6" d="M35.5,65.38c-1.2-1.18-1.63-4.73-1.63-8.25a7.3,7.3,0,0,0-1.18-.37c-.22,0-.9-.25-.9-.16.93,6.57-5.62,11.67-7.34,11.72h-.37c-1.72,0-8.28-5.15-7.34-11.72,0-.09-.68.11-.91.16a7.84,7.84,0,0,0-1.17.37c0,3.52-.42,7.07-1.63,8.25C10.72,67.65,9,70.78,9.56,77H39c.58-6.24-1.16-9.37-3.47-11.64Z"/><path class="cls-7" d="M24.25,4.43c-19.93,0-20,15.92-19.15,26.32C3.73,28.31-.31,29.22,0,33.12c.32,3.74,6,5.45,5.94,5C7.6,46.63,17,51.34,24.25,52h.15V4.44Z"/><path class="cls-5" d="M1,31.47A2,2,0,0,1,3.94,31a1.52,1.52,0,0,1,.47,1.73c-.13.5-.7.54-.56,1.31a1.37,1.37,0,0,0,.81,1.11,1.82,1.82,0,0,1,.69.71,1.8,1.8,0,0,1,.08,1.07c-.15.62-1.11.13-1.74-.14a13.79,13.79,0,0,1-2.1-1.61A3.31,3.31,0,0,1,1,31.47Z"/><path class="cls-8" d="M24.35,4.43c19.92,0,20,15.92,19.15,26.32,1.36-2.44,5.4-1.53,5.08,2.37-.32,3.74-6,5.45-6,5C41,46.63,31.61,51.34,24.35,52h-.16V4.44Z"/><path class="cls-5" d="M47.72,31.47A2,2,0,0,0,44.8,31a1.52,1.52,0,0,0-.48,1.73c.14.5.7.54.57,1.31a1.39,1.39,0,0,1-.82,1.11,1.71,1.71,0,0,0-.67.71,1.73,1.73,0,0,0-.09,1.07c.15.62,1.1.13,1.74-.14a13.25,13.25,0,0,0,2.09-1.61,3.3,3.3,0,0,0,.58-3.66Z"/><path class="cls-2" d="M24.14,9c-6.65,0-11.52,1.82-14.47,5.43-4.11,5-4,12.74-2.44,18.27.46,1.69.7,6.24,1,7.91C9.69,48,18.4,52,24.14,52h.15V9Z"/><path class="cls-3" d="M38.58,14.39C35.66,10.81,30.85,9,24.29,9V52c6.56-.07,14.39-4.43,15.74-11.45.32-1.67.56-6.22,1-7.91,1.51-5.52,1.66-13.21-2.47-18.26Z"/><path class="cls-9" d="M27.65,45.26a5.32,5.32,0,0,1-3.36,1.61A5,5,0,0,1,21,45.29a21.62,21.62,0,0,1,3.27-.24,27.23,27.23,0,0,1,3.36.21Z"/><path class="cls-10" d="M25.24,44.52a.87.87,0,0,0-.95.73.87.87,0,0,0-.95-.73,13.34,13.34,0,0,0-2.41.74s1.84.19,2.36.19,1,.21,1-.18c0,.39.38.24.9.24s2.46-.25,2.46-.25a13.61,13.61,0,0,0-2.41-.74Z"/><path class="cls-11" d="M44.1,18.52a27.5,27.5,0,0,0-1.79-7c-2-4.29-6-6.12-12.42-8.72-5.16-2.1-7.35-1.33-12.1-.13a3.61,3.61,0,0,0-.89-1.54C14.76-1,10.2.05,6.71,3.52,3.56,6.67,2.37,10.69,3.76,13a22,22,0,0,0-1.34,4.72l-.12.79c-.77,5.7,0,8,.62,9.32a9.65,9.65,0,0,1,.67,1.35A14.44,14.44,0,0,0,5,32.4a4.52,4.52,0,0,1,1.35,1.86c.62,1.61.86,1.34.86,1.34s-.87-5.68-1-7.76a1.78,1.78,0,0,1,0-.31c0-1,.47-6.09,3.85-9,.16-.14.33-.28.51-.41,2.85-2.12,7.71-1.22,8.24-1.22.11,0,1.21.84,2.8,1.63a11.44,11.44,0,0,0,5.47,1.42c12.13-.61,14.69,5.86,15,7.21,0,.22,0,.46,0,.69-.14,1.67-.32,3.62-.45,4.92-.22,1.56-.42,2.84-.42,2.84s.25.27.86-1.34a4.33,4.33,0,0,1,1.13-1.66,18,18,0,0,1,1-3.41,5.63,5.63,0,0,0,.29-1.35,25.6,25.6,0,0,0,.23-3.08A51.86,51.86,0,0,0,44.1,18.52Z"/><path class="cls-12" d="M13.65,9.61a1,1,0,0,1-1.12.88,1,1,0,0,1-.91-1.11,1,1,0,0,1,1.14-.91,1,1,0,0,1,.89,1.14Z"/><path class="cls-13" d="M8.56,5.47c-.49.52-.16,1.59.7,2.41a3.29,3.29,0,0,0,2.47.52A3.13,3.13,0,0,0,11,6c-.86-.81-2-1-2.45-.52Z"/><path class="cls-13" d="M17.51,6.47c.36.62-.18,1.59-1.22,2.19a3.3,3.3,0,0,1-2.53,0A3.27,3.27,0,0,1,15,6.44c1-.6,2.15-.59,2.51,0Z"/><path class="cls-13" d="M7.16,9.84c0-.72.9-1.34,2.08-1.39a3.23,3.23,0,0,1,2.24,1.16A3.34,3.34,0,0,1,9.38,11c-1.2.05-2.19-.47-2.22-1.18Z"/><path class="cls-13" d="M18.09,10.91c.19-.67-.58-1.49-1.74-1.81a3.2,3.2,0,0,0-2.43.63s.56,1.51,1.72,1.85,2.24,0,2.45-.67Z"/><path class="cls-13" d="M13.31,3.84c-.7-.1-1.39.78-1.56,2a3.28,3.28,0,0,0,1,2.31,3.28,3.28,0,0,0,1.58-2c.15-1.19-.29-2.21-1-2.3Z"/><path class="cls-13" d="M9.81,14.11c-.59-.39-.58-1.51.07-2.52a3.26,3.26,0,0,1,2.24-1.14A3.23,3.23,0,0,1,12.06,13c-.64,1-1.64,1.52-2.25,1.15Z"/><path class="cls-13" d="M14.61,14.65c.68-.24.92-1.34.51-2.47s-1.93-1.62-1.93-1.62A3.25,3.25,0,0,0,12.68,13c.39,1.13,1.27,1.84,1.93,1.62Z"/></g></g></svg>