<svg xmlns="http://www.w3.org/2000/svg" viewBox="0 0 49.35 77.7"><defs><style>.cls-1{fill:#edd9b4;}.cls-2{fill:#dcc5a1;}.cls-3,.cls-6{fill:#bc9f82;}.cls-3{opacity:0.7;}.cls-4{fill:#442c38;}.cls-5{fill:#ccad8b;}.cls-7{fill:#d9bf9f;}.cls-8{fill:#b47070;}.cls-9{fill:#c17874;}.cls-10{fill:#0f1005;}</style></defs><title>Ativo 39avatar</title><g id="Camada_2" data-name="Camada 2"><g id="Objects"><path class="cls-1" d="M27.45,33.3c.75,2.11,3.53,3.46,5.92,3.38C37.73,36.53,41.69,33,41,30c-.48-1.95-3.22-2.28-7-1.42C27.53,30.06,26.65,31,27.45,33.3Z"/><path class="cls-2" d="M24.64,42.17V77.7H5.25l-.47-.2c0-8.17,2.17-13.09,4.66-16A12.21,12.21,0,0,1,16.64,57h.1L17,57c1-.27,1.64-1.7,2.09-3.76.08-.35.15-.72.21-1.12.1-.64.2-1.34.27-2l.12-1.32c.18-2.18.23-4.55.23-6.8C19.92,41.91,22.53,42.17,24.64,42.17Z"/><path class="cls-1" d="M44.57,77.5l-.46.2H24.64V42.17h0c2.11,0,4.73-.26,4.73-.26,0,2.24.05,4.58.23,6.75L29.76,50c.08.74.17,1.45.27,2.11h0c0,.3.1.57.16.84.4,2,1,3.46,1.87,3.94a.9.9,0,0,0,.21.08,1,1,0,0,0,.43.09,12.47,12.47,0,0,1,7.67,5C42.65,65,44.57,69.84,44.57,77.5Z"/><path class="cls-3" d="M30,52.07h0A6.25,6.25,0,0,1,24.67,55h0a6.79,6.79,0,0,1-5.34-2.9c.11-.66.2-1.34.27-2.06l.12-1.32a21.49,21.49,0,0,0,4.89.64h.06a20.32,20.32,0,0,0,5-.69c0,.43.09.86.13,1.29C29.85,50.7,29.93,51.4,30,52.07Z"/><path class="cls-4" d="M44.52,77.48s-.18.07-.46.21H5.19l-.48-.21c0-14.51,6.89-18.78,10.17-20C17,59.82,21.24,63,24.51,63.2h.16c3.28-.16,7.51-3.39,9.65-5.74,3.26,1.21,10.2,5.47,10.2,20Z"/><path class="cls-5" d="M24.63,4C4.39,4,4.28,20.16,5.18,30.72,3.79,28.24-.32,29.16,0,33.13c.32,3.8,6.12,5.53,6,5.1,1.66,8.61,11.19,13.4,18.57,14.08h.15V4Z"/><path class="cls-6" d="M1.24,31.36a2,2,0,0,1,3-.53,1.54,1.54,0,0,1,.48,1.76c-.14.51-.71.55-.57,1.32A1.34,1.34,0,0,0,4.94,35a1.85,1.85,0,0,1,.69.72,1.76,1.76,0,0,1,.09,1.1c-.15.63-1.12.12-1.76-.15a12.23,12.23,0,0,1-2.13-1.64A3.37,3.37,0,0,1,1.24,31.36Z"/><path class="cls-7" d="M24.72,4C45,4,45.07,20.16,44.18,30.72c1.38-2.48,5.49-1.56,5.15,2.41-.32,3.8-6.12,5.53-6,5.1-1.66,8.61-11.19,13.4-18.57,14.08h-.15V4Z"/><path class="cls-6" d="M48.33,31.24a2,2,0,0,0-3-.53,1.55,1.55,0,0,0-.48,1.76c.14.51.71.55.57,1.33a1.35,1.35,0,0,1-.81,1.12,1.8,1.8,0,0,0-.7.72,1.83,1.83,0,0,0-.09,1.1c.16.63,1.12.12,1.77-.15A12.16,12.16,0,0,0,47.74,35,3.33,3.33,0,0,0,48.33,31.24Z"/><path class="cls-2" d="M24.52,8.58c-6.76,0-11.7,1.86-14.7,5.52C5.64,19.22,5.8,27,7.34,32.65c.47,1.72.72,6.34,1,8,1.46,7.59,10.31,11.63,16.14,11.63h.15V8.58Z"/><path class="cls-1" d="M39.18,14.11c-3-3.64-7.86-5.5-14.51-5.53V52.31c6.66-.07,14.62-4.5,16-11.62.33-1.7.57-6.32,1-8C43.23,27.05,43.38,19.24,39.18,14.11Z"/><path class="cls-8" d="M28.08,45.46a5.41,5.41,0,0,1-3.41,1.62,5.13,5.13,0,0,1-3.33-1.59,22.65,22.65,0,0,1,3.33-.24A28,28,0,0,1,28.08,45.46Z"/><path class="cls-9" d="M25.63,44.71a.87.87,0,0,0-1,.73.89.89,0,0,0-1-.73,13.67,13.67,0,0,0-2.44.75s1.86.19,2.39.19,1,.21,1-.18c0,.4.39.24.92.24s2.49-.25,2.49-.25A13.56,13.56,0,0,0,25.63,44.71Z"/><path class="cls-4" d="M43,27.11c-2.25-.6-7.42.31-9.56.78a81.56,81.56,0,0,0-7.81,2.59,3.26,3.26,0,0,1-.86.22,3.08,3.08,0,0,1-.88-.22,78,78,0,0,0-7.81-2.59c-2.13-.47-7.31-1.38-9.55-.79a1.26,1.26,0,0,0-.85.72c.08.61,1.68,9.64,10.65,9.64a7.81,7.81,0,0,0,4.89-1.57,13.46,13.46,0,0,0,2.41-3c.31-.45.64-.78,1.11-.75h0l0,0c.46,0,.8.29,1.11.74a13.13,13.13,0,0,0,2.41,3,7.87,7.87,0,0,0,4.89,1.56c9,0,10.57-9,10.65-9.64A1.26,1.26,0,0,0,43,27.11Zm-20.9,6.18c-.76,2.12-3.54,3.47-5.93,3.39C11.84,36.52,7.87,33,8.6,30c.47-1.95,3.21-2.28,7-1.42C22,30.06,22.92,31,22.12,33.29Zm11.25,3.39c-2.39.08-5.17-1.27-5.92-3.38s.08-3.24,6.56-4.72c3.74-.86,6.48-.53,7,1.42C41.69,33,37.73,36.53,33.37,36.68Z"/><path class="cls-10" d="M46,15.39c-.25-.69-.51-1.32-.77-1.92v-.26a3.26,3.26,0,0,0-1.07-2.29A1.42,1.42,0,0,0,44,9a1.54,1.54,0,0,0,.77-.37,1.18,1.18,0,0,0,0-1.76l-.47-.4a1.62,1.62,0,0,0,.46-.33c.51-.49.62-1.17.24-1.5l-.22-.19a1.22,1.22,0,0,0,.41-.27c.38-.36.45-.85.18-1.09L42,.13a.94.94,0,0,0-1.18.22,1.25,1.25,0,0,0-.27.39L40.4.6a1.28,1.28,0,0,0-1.62.3,1.45,1.45,0,0,0-.32.44l-.21-.19a1.45,1.45,0,0,0-1.92.05,1.21,1.21,0,0,0-.36.74,1.75,1.75,0,0,0-2.21.15,1.41,1.41,0,0,0-.33.49,6.68,6.68,0,0,0-3.9-1l0,0C28.1,1.38,20.58,0,16.1,1.53c-5,1.71-9,4.65-11.87,12.54A24.47,24.47,0,0,0,3.5,27.86c.12.54.23,1,.35,1.5.17.71.32,1.33.42,1.82,0,.14.07.29.11.44a14,14,0,0,0,.49,1.64c2.88,8,12.33,15.28,12.33,15.28s-4.87-5.44-5.82-7.76a.78.78,0,0,1-.05-.14,23.9,23.9,0,0,1-1.79-9.33,8.72,8.72,0,0,1,.39-2.65,5.26,5.26,0,0,1,2.24-3,16.09,16.09,0,0,0-.47,2.9,10.38,10.38,0,0,0,1.88,6.91s-2.95-5.06,1.76-8.84A29.8,29.8,0,0,0,19.1,23h0c-1.18,3,1.52,10,1.52,10s-.37-8.29,2.09-9.59c1.09-.58,2-1.09,2.8-1.57l.19-.11.21-.14c3.17-2,3.91-3.21,4.57-5.21a4.92,4.92,0,0,0,.23-1l5.47,7.38c.26.32.67.86,1.16,1.57,1.42,2,3.38,5.4,3.38,8.31,0,.85,0,1.59-.07,2.25a12.46,12.46,0,0,1-.69,4,3.26,3.26,0,0,0,1.64-.76,14.05,14.05,0,0,0,3.42-4c.31-.49.64-1,1-1.63a.16.16,0,0,0,0-.07,13.72,13.72,0,0,0,1.19-3.55c.08-.41.15-.85.22-1.31A25.63,25.63,0,0,0,46,15.39Z"/></g></g></svg>