<svg xmlns="http://www.w3.org/2000/svg" viewBox="0 0 56.51 78.56"><defs><style>.cls-1{fill:#c17874;}.cls-2{fill:#010400;}.cls-3{fill:#dcc5a1;}.cls-4{fill:#edd9b4;}.cls-10,.cls-5{fill:#bc9f82;}.cls-5{opacity:0.7;}.cls-6{fill:#653e59;}.cls-7{fill:#662625;}.cls-8{fill:#633c10;}.cls-9{fill:#ccad8b;}.cls-11{fill:#d9bf9f;}.cls-12{fill:#b47070;}.cls-13{fill:#0f1005;}.cls-14{fill:#64996f;}.cls-15{fill:#6999a2;}.cls-16{fill:#211915;}.cls-17{fill:#7c4417;}.cls-18{fill:#568035;}</style></defs><title>Ativo 43avatar</title><g id="Camada_2" data-name="Camada 2"><g id="Objects"><path class="cls-1" d="M36.88,56.81a2.65,2.65,0,0,1-.64-.74.12.12,0,0,0,0-.08A5.33,5.33,0,0,0,36.88,56.81Z"/><path class="cls-2" d="M6.75,22.17c.69,4.95,1,3.75.53,11.75C7,39.45,6,41.24,6,41.24s5.85-9.93,4.11-18.78C9.89,21.1,6.75,22.17,6.75,22.17Z"/><path class="cls-2" d="M37.31,39.37c-.08,2.53.23,6.74.41,8.75s.47,7.81,0,10.26-.35,5.52-1,5.57-.86-1.23-.6-2.69.39-10.06.31-11.79S36,42.37,36,42.15a12.06,12.06,0,0,1,.74-2.47C37,39,37.31,39.37,37.31,39.37Z"/><path class="cls-2" d="M47.65,36.81a80.67,80.67,0,0,0-.16,12.86c.26,4,.72,10.64.69,14s-.67,9.75-.67,9.75l-.89,1.14s-.43,0,0-5.21a70,70,0,0,0-.21-13.07c-.3-4-.82-12.23-.46-14.08A48,48,0,0,1,47.65,36.81Z"/><path class="cls-2" d="M43.44,42.22a84,84,0,0,0-.59,11.19c0,2.59-.33,10-1.45,13s-1.46,6.91-2.57,6.82-1.34-1.77-.67-3.56S40.38,57,40.49,54.82s.19-9.13.17-9.41a11.8,11.8,0,0,1,1.68-2.95C43,41.71,43.44,42.22,43.44,42.22Z"/><path class="cls-2" d="M45.71,39.27c0,3.23.45,8.59.69,11.14s.72,10,.38,13.1-.18,7.06-.8,7.15-.89-1.54-.68-3.4.07-12.87-.07-15.07-.73-9-.76-9.32a18.18,18.18,0,0,1,.65-3.18C45.4,38.84,45.71,39.27,45.71,39.27Z"/><path class="cls-2" d="M44.5,39.27c0,3.23.44,8.59.68,11.14s.73,10,.38,13.1-.17,7.06-.79,7.15-.89-1.54-.69-3.4.07-12.87-.07-15.07-.72-9-.75-9.32a17.29,17.29,0,0,1,.65-3.18C44.19,38.84,44.5,39.27,44.5,39.27Z"/><path class="cls-2" d="M44.38,38.73c-.19,3.23-.06,8.6,0,11.17s.14,10-.39,13.09-.59,7-1.21,7.09-.81-1.58-.49-3.43.83-12.84.82-15.05-.19-9.07-.21-9.35a17.8,17.8,0,0,1,.84-3.13C44.1,38.29,44.38,38.73,44.38,38.73Z"/><path class="cls-2" d="M11.59,35.45a79,79,0,0,1-.72,12.85c-.53,4-1.44,10.57-1.63,13.91s0,9.77,0,9.77l.81,1.2s.43,0,.37-5.2a67.92,67.92,0,0,1,1.1-13c.56-3.92,1.65-12.14,1.41-14A47,47,0,0,0,11.59,35.45Z"/><path class="cls-2" d="M11.33,37.75a79.32,79.32,0,0,1,.15,12.86c-.25,4-.72,10.65-.68,14s.67,9.74.67,9.74l.89,1.15s.43,0,0-5.22a68.34,68.34,0,0,1,.21-13.07c.3-4,.82-12.22.45-14.08A46.53,46.53,0,0,0,11.33,37.75Z"/><path class="cls-2" d="M15.53,43.16a84.23,84.23,0,0,1,.6,11.19c0,2.59.33,10,1.45,13S19,74.3,20.15,74.21s1.34-1.77.66-3.56S18.6,58,18.49,55.77s-.19-9.13-.17-9.42a11.61,11.61,0,0,0-1.68-2.94C16,42.65,15.53,43.16,15.53,43.16Z"/><path class="cls-2" d="M17.42,43.31c.53,3.19,1,8.55,1.14,11.11s.9,9.94,1.76,13,1.31,6.93,1.94,6.92.63-1.66.12-3.47S20.22,58.18,20,56s-.76-9-.77-9.32a18.9,18.9,0,0,0-1.16-3C17.66,42.84,17.42,43.31,17.42,43.31Z"/><path class="cls-2" d="M13.27,40.21c0,3.23-.45,8.59-.69,11.15s-.72,10-.38,13.09.18,7.06.79,7.15.9-1.53.69-3.4-.07-12.87.07-15.07.72-9,.76-9.32a18.31,18.31,0,0,0-.66-3.17C13.58,39.78,13.27,40.21,13.27,40.21Z"/><path class="cls-2" d="M14.48,40.21c0,3.23-.45,8.59-.69,11.15s-.72,10-.38,13.09.18,7.06.8,7.15.89-1.53.68-3.4-.07-12.87.07-15.07.73-9,.76-9.32a18.11,18.11,0,0,0-.65-3.17C14.79,39.78,14.48,40.21,14.48,40.21Z"/><path class="cls-2" d="M19.67,39.7c.26,3.22.25,8.6.22,11.16s.09,10,.69,13.09.76,7,1.38,7,.76-1.6.41-3.44-1.13-12.82-1.17-15,0-9.08,0-9.36a17.86,17.86,0,0,0-.92-3.1C19.94,39.25,19.67,39.7,19.67,39.7Z"/><path class="cls-3" d="M29.48,42.17V78.53H9.64c-.31-.15-.48-.21-.48-.21,0-16.58,8.78-20.11,11.4-20.81a4.42,4.42,0,0,1,.61-.12.08.08,0,0,0,.07,0h.15a2.14,2.14,0,0,0,.27-.06,1.87,1.87,0,0,0,1-.86,8.81,8.81,0,0,0,1.1-3A9.83,9.83,0,0,0,24,52.32c.11-.67.21-1.38.28-2.11,0-.45.08-.89.12-1.35.19-2.23.24-4.66.24-7C24.65,41.91,27.32,42.17,29.48,42.17Z"/><path class="cls-4" d="M35.15,53.16a10.52,10.52,0,0,0,1.06,3.13C36,58.49,47.39,78.56,47.39,78.56s-17.9,0-17.91,0V42.17h0c2.16,0,4.84-.26,4.84-.26,0,2.28.06,4.68.24,6.9l.12,1.31c.09.77.17,1.49.28,2.17h0C35,52.6,35.1,52.88,35.15,53.16Z"/><path class="cls-4" d="M37.28,57.27l.22.07a.6.6,0,0,1-.22,0,1,1,0,0,1-.42-.26.94.94,0,0,0,.42.23Z"/><path class="cls-4" d="M37.5,57.34l.14,0h-.09A.06.06,0,0,1,37.5,57.34Z"/><path class="cls-4" d="M37.73,57.36h0Z"/><path class="cls-4" d="M49.87,78.32a3.67,3.67,0,0,0-.47.21H44.71c.87-1.67,2.35-5.9-1.79-10.65a17,17,0,0,0-1.4-1.43,7,7,0,0,1-1-1.07c-2.08-2.57-2.16-5.62-2.16-7.87l-.31-.08a12,12,0,0,1,4.47,2.08,13.64,13.64,0,0,1,2.09,1.84C47.37,64.32,49.87,69.45,49.87,78.32Z"/><path class="cls-5" d="M35,52.29v0a6.44,6.44,0,0,1-5.5,3h0a6.93,6.93,0,0,1-5.46-3c.11-.67.2-1.37.27-2.11,0-.44.09-.89.13-1.34a21.83,21.83,0,0,0,5,.65h.06a20.75,20.75,0,0,0,5.12-.71l.12,1.32C34.8,50.89,34.88,51.61,35,52.29Z"/><path class="cls-6" d="M41.56,66.41c-3-2.78-3.14-6.4-3.14-9l-.31-.08-.3-.06h-.23l0,0a.57.57,0,0,1-.22,0A1.12,1.12,0,0,1,36.9,57s0,0,0,0a2.21,2.21,0,0,1-.64-.73c-.22,2.21-.46,6.3-.75,7.41-3.17,11.9-8.86,12.14-11.91,0-.28-1.13-.56-5.06-.78-7.26a1.87,1.87,0,0,1-1,.86,2.44,2.44,0,0,1-.26.06h-.3l-.54.13c0,2.57-.11,6.19-3.14,9-5.83,5.34-4.15,10.28-3.19,12.12H44.75C45.71,76.69,47.39,71.75,41.56,66.41Z"/><path class="cls-6" d="M44.63,61.38A27.27,27.27,0,0,0,42.92,68a17,17,0,0,0-1.4-1.43,7.54,7.54,0,0,1-1-1.08,18,18,0,0,1,2-5.91A14.31,14.31,0,0,1,44.63,61.38Z"/><path class="cls-7" d="M14.09,61.7a27.75,27.75,0,0,1,1.71,6.57,18.37,18.37,0,0,1,1.39-1.43,7.63,7.63,0,0,0,1-1.08,18,18,0,0,0-2-5.91A14.31,14.31,0,0,0,14.09,61.7Z"/><path class="cls-2" d="M21.66,40.31a86.89,86.89,0,0,1-.4,8.75c-.18,2-.47,7.81-.05,10.27s.36,5.51,1,5.56.86-1.23.6-2.68-.4-10.07-.31-11.8.49-7.1.52-7.32a12,12,0,0,0-.74-2.46C22,40,21.66,40.31,21.66,40.31Z"/><path class="cls-2" d="M23.44,40.57c0,3.06-.48,8.14-.73,10.56S22,60.56,22.3,63.54s.15,6.69.76,6.78.9-1.45.7-3.23,0-12.19.11-14.28.76-8.56.79-8.83A16.39,16.39,0,0,0,24,41C23.75,40.16,23.44,40.57,23.44,40.57Z"/><path class="cls-2" d="M11.24,35.64c-4.85,18-3.93,24.67-3.61,24.92s.58.5.85-2c2.43-22.49,4.31-20.32,4.36-21.18s.59-1.36-.27-1.78A1.18,1.18,0,0,0,11.24,35.64Z"/><path class="cls-2" d="M7.61,59.49a5.55,5.55,0,0,0-.15,2.88c.12,1.08.06,2.42.57,2.78S9.16,66,9.11,65s-.4-1.59-.56-2.74-.28-2.51-.28-2.51Z"/><path class="cls-8" d="M9.09,59.7A1.1,1.1,0,0,1,8,60.81H8A1.1,1.1,0,0,1,6.88,59.7h0A1.11,1.11,0,0,1,8,58.6H8a1.1,1.1,0,0,1,1.1,1.1Z"/><path class="cls-2" d="M14.6,39.67c.19,3.23.05,8.61,0,11.17s-.14,10,.39,13.09.59,7,1.21,7.09.8-1.58.49-3.44-.83-12.83-.82-15,.19-9.06.21-9.35a19,19,0,0,0-.85-3.13C14.88,39.23,14.6,39.67,14.6,39.67Z"/><path class="cls-2" d="M41.55,42.37c-.52,3.19-.95,8.55-1.13,11.1s-.91,9.94-1.76,13-1.32,6.94-1.94,6.93-.63-1.66-.12-3.47S38.76,57.24,39,55s.76-9,.77-9.32a18.34,18.34,0,0,1,1.16-3C41.32,41.9,41.55,42.37,41.55,42.37Z"/><path class="cls-2" d="M39.31,38.75c-.27,3.23-.26,8.61-.23,11.17S39,59.89,38.39,63s-.75,7-1.37,7.05-.77-1.6-.41-3.45,1.12-12.81,1.16-15,0-9.07,0-9.35a18.92,18.92,0,0,1,.91-3.11C39,38.31,39.31,38.75,39.31,38.75Z"/><path class="cls-2" d="M35.54,39.62c0,3.07.47,8.15.73,10.57s.75,9.42.41,12.41-.15,6.69-.77,6.77-.9-1.45-.69-3.22,0-12.19-.12-14.28-.75-8.56-.79-8.83A17.3,17.3,0,0,1,35,40C35.23,39.22,35.54,39.62,35.54,39.62Z"/><path class="cls-2" d="M15.4,41.89c.39,3.21.59,8.59.66,11.15a95.39,95.39,0,0,0,1.19,13.05c.72,3.08,1,7,1.65,7s.7-1.63.27-3.46-1.61-12.76-1.74-15-.36-9.06-.36-9.34a18.82,18.82,0,0,0-1-3.07C15.66,41.44,15.4,41.89,15.4,41.89Z"/><path class="cls-9" d="M29.46,3.1c-20.7,0-20.83,16.54-19.9,27.35-1.42-2.53-5.62-1.59-5.27,2.47.32,3.89,6.25,5.65,6.18,5.22,1.69,8.81,11.44,13.7,19,14.4h.15V3.11Z"/><path class="cls-10" d="M5.32,31.2a2.05,2.05,0,0,1,3-.54,1.57,1.57,0,0,1,.49,1.8c-.15.52-.73.56-.59,1.35A1.43,1.43,0,0,0,9.1,35c.25.2.56.35.71.73a1.82,1.82,0,0,1,.09,1.12c-.15.65-1.14.13-1.81-.15A13.09,13.09,0,0,1,5.92,35,3.44,3.44,0,0,1,5.32,31.2Z"/><path class="cls-11" d="M29.56,3.1c20.7,0,20.82,16.54,19.9,27.35,1.42-2.53,5.61-1.59,5.27,2.47-.33,3.89-6.26,5.65-6.18,5.22-1.69,8.81-11.45,13.7-19,14.4H29.4V3.11Z"/><path class="cls-10" d="M53.84,31.2a2.05,2.05,0,0,0-3-.54,1.6,1.6,0,0,0-.49,1.8c.15.52.73.56.59,1.35A1.41,1.41,0,0,1,50.06,35c-.25.2-.56.35-.71.73a1.82,1.82,0,0,0-.09,1.12c.16.65,1.15.13,1.81-.15A13.09,13.09,0,0,0,53.24,35,3.42,3.42,0,0,0,53.84,31.2Z"/><path class="cls-3" d="M29.35,7.8c-6.92,0-12,1.9-15,5.65-4.28,5.23-4.11,13.23-2.53,19,.48,1.76.72,6.49,1.06,8.23,1.49,7.76,10.54,11.9,16.51,11.9h.16V7.8Z"/><path class="cls-4" d="M44.35,13.45c-3-3.72-8-5.62-14.84-5.65V52.54c6.8-.07,15-4.6,16.34-11.89.33-1.74.58-6.47,1.07-8.23C48.49,26.69,48.64,18.71,44.35,13.45Z"/><path class="cls-12" d="M33,45.53A5.54,5.54,0,0,1,29.5,47.2a5.19,5.19,0,0,1-3.4-1.64,22.5,22.5,0,0,1,3.4-.25A28.08,28.08,0,0,1,33,45.53Z"/><path class="cls-1" d="M30.49,44.76a.9.9,0,0,0-1,.75.91.91,0,0,0-1-.75,14.07,14.07,0,0,0-2.5.77s1.91.2,2.46.2,1,.21,1-.19c0,.41.4.25.94.25S33,45.53,33,45.53A13.8,13.8,0,0,0,30.49,44.76Z"/><path class="cls-2" d="M52.13,25.18c0,5-.49,3.85,1.06,11.72C54.27,42.33,55.4,44,55.4,44s-7.13-9.06-6.6-18.06C48.88,24.54,52.13,25.18,52.13,25.18Z"/><path class="cls-13" d="M11.75,7.2l-.42.3a10.36,10.36,0,0,0-1.07,1,10.17,10.17,0,0,0-1.33,1.77,15.91,15.91,0,0,0-1.19,2.61A30.29,30.29,0,0,0,6.33,19.9c-.3,2.64-.39,5.5-.67,8.36S5.07,34,4.58,36.64a48.5,48.5,0,0,1-1.82,7.17,34.59,34.59,0,0,1-2,4.82c-.26.57-.69,1.06-.26-.12s1-2.87,1.5-4.93a69,69,0,0,0,1.37-7.14c.37-2.63.67-5.46,1-8.3s.47-5.7.87-8.38a30.58,30.58,0,0,1,1.89-7.19,11.83,11.83,0,0,1,3-4.29,8.52,8.52,0,0,1,1.21-.84Z"/><path class="cls-14" d="M3.32,44.28a1.11,1.11,0,0,1-1.11,1.11h0a1.11,1.11,0,0,1-1.1-1.11h0a1.1,1.1,0,0,1,1.1-1.1h0a1.1,1.1,0,0,1,1.11,1.1Z"/><path class="cls-2" d="M47.39,34.51a78.78,78.78,0,0,0,.72,12.84c.53,4,1.44,10.57,1.63,13.92s0,9.77,0,9.77l-.82,1.2s-.43.05-.36-5.2a68.74,68.74,0,0,0-1.1-13c-.56-3.92-1.65-12.14-1.41-14A47,47,0,0,1,47.39,34.51Z"/><path class="cls-15" d="M50.32,61.82a1.11,1.11,0,0,1-1.11,1.1h0a1.11,1.11,0,0,1-1.11-1.1h0a1.11,1.11,0,0,1,1.11-1.11h0a1.11,1.11,0,0,1,1.11,1.11Z"/><path class="cls-16" d="M10.43,11,8.85,20.54c-.23,1.43-.47,3-.7,4.62s-.43,3.37-.67,5.16S7.1,34,6.94,35.85s-.28,3.8-.31,5.71a36.21,36.21,0,0,1-.56,5.9A49.23,49.23,0,0,1,4.59,53a72.42,72.42,0,0,0-2.74,9.41,18.07,18.07,0,0,0-.25,3.84,12.18,12.18,0,0,0,.54,2.93A14.41,14.41,0,0,0,2.83,71c.21.41.31.63.31.63L2.74,71a11.6,11.6,0,0,1-1-1.73,13.28,13.28,0,0,1-.92-3,15.7,15.7,0,0,1-.18-4.07,54.27,54.27,0,0,1,2.17-9.8c.49-1.73.93-3.53,1.26-5.34a33.75,33.75,0,0,0,.47-5.6c0-2,.21-3.91.39-5.83s.45-3.79.72-5.6.61-3.54,1-5.17.7-3.18,1.06-4.6c.7-2.83,1.43-5.16,1.92-6.78S10.43,11,10.43,11Z"/><path class="cls-17" d="M2.21,65.59a1.1,1.1,0,0,1-1.1,1.1h0A1.1,1.1,0,0,1,0,65.59H0a1.11,1.11,0,0,1,1.11-1.11h0a1.11,1.11,0,0,1,1.1,1.11Z"/><path class="cls-16" d="M47.91,18.05s.08.86.18,2.38c0,.75.11,1.67.24,2.71s.25,2.21.46,3.48.44,2.65.71,4.1.65,3,1,4.52.81,3.16,1.27,4.79.95,3.28,1.44,4.93,1,3.32,1.42,5,.76,3.35,1.09,5c.11.82.21,1.63.31,2.42,0,.41.11.76.12,1.21s0,.76,0,1.13q0,1.11.06,2.16c0,.72-.09,1.41-.13,2.07-.05,1.32-.21,2.51-.35,3.56s-.75-1-.85-3.56c0-.63,0-1.29-.07-2s-.14-1.42-.21-2.15c0-.38-.07-.75-.11-1.13s-.13-.73-.19-1.09c-.13-.75-.27-1.52-.4-2.3-.38-1.56-.75-3.15-1.24-4.77s-1-3.27-1.47-4.93-1-3.34-1.38-5-.78-3.32-1.12-4.92S48.14,32.46,48,31s-.33-2.91-.37-4.22a31,31,0,0,1,0-3.58c0-1.07,0-2,.12-2.74C47.81,18.91,47.91,18.05,47.91,18.05Z"/><path class="cls-18" d="M56.51,61.92A1.1,1.1,0,0,1,55.4,63h0a1.1,1.1,0,0,1-1.1-1.1h0a1.11,1.11,0,0,1,1.1-1.11h0a1.11,1.11,0,0,1,1.11,1.11Z"/><path class="cls-2" d="M42.67,16.76C41,20,41.43,23.58,35.6,26s-8.44,3-14.79,5.89c-14.41,6.49-7,21.52-7,21.52s-4-3.86-5.38-7.89-7-21.57,0-35.43C12.24,2.43,19.3.68,25.51.16s10.63,0,15.12,4.16c1,.9,3.78,1.1,6.86,3.29,6.87,4.9,6.31,12.11,6.61,16.72a35.1,35.1,0,0,1-1.78,14.12c-1.34,4-9.45,15.92-9.45,15.92s6.31-14.53,2.81-24C43.62,24.87,40,25.18,39.8,23S42.67,16.76,42.67,16.76Z"/></g></g></svg>