<svg xmlns="http://www.w3.org/2000/svg" viewBox="0 0 46.95 75.57"><defs><style>.cls-1{fill:#dcc5a1;}.cls-2{fill:#edd9b4;}.cls-3,.cls-7{fill:#bc9f82;}.cls-3{opacity:0.7;}.cls-4{fill:#2b1910;}.cls-5{fill:#f8f7e0;}.cls-6{fill:#ccad8b;}.cls-8{fill:#d9bf9f;}.cls-9{fill:#b47070;}.cls-10{fill:#c17874;}.cls-11{fill:#895a59;}</style></defs><title>Ativo 76avatar</title><g id="Camada_2" data-name="Camada 2"><g id="Objects"><path class="cls-1" d="M23.92,42.45V75.57H5.86l-.45-.19c0-7.41,1.93-12,4.18-14.76a11.55,11.55,0,0,1,6.88-4.33h.09a.93.93,0,0,0,.24,0c.91-.25,1.53-1.59,1.95-3.51a10.47,10.47,0,0,0,.19-1c.1-.61.2-1.25.26-1.92,0-.41.07-.82.11-1.23.17-2,.22-4.24.22-6.34C19.53,42.21,22,42.45,23.92,42.45Z"/><path class="cls-2" d="M42.5,75.38s-.17.06-.44.19H23.92V42.45h0c2,0,4.41-.24,4.41-.24,0,2.09.05,4.27.21,6.29l.12,1.2c.08.7.15,1.35.25,2h0c0,.28.09.53.14.79.38,1.85.94,3.22,1.75,3.67a.73.73,0,0,0,.19.07,1,1,0,0,0,.41.08,11.57,11.57,0,0,1,7.13,4.65C40.71,63.75,42.5,68.23,42.5,75.38Z"/><path class="cls-3" d="M29,51.68h0a5.82,5.82,0,0,1-5,2.72h0a6.31,6.31,0,0,1-5-2.71c.1-.6.19-1.25.25-1.92,0-.4.07-.81.11-1.22a19.87,19.87,0,0,0,4.56.59h.05a18.74,18.74,0,0,0,4.67-.64c0,.4.07.81.11,1.2C28.78,50.4,28.85,51.06,29,51.68Z"/><path class="cls-4" d="M42.5,75.38s-.17.06-.44.19H5.86l-.45-.19c0-7.41,1.93-12,4.18-14.76a9.84,9.84,0,0,0,7.05,5.1,63.29,63.29,0,0,0,7.28.92c3.78.28,7.34-.33,9.29-1.39a20.5,20.5,0,0,0,5.36-4.31C40.71,63.75,42.5,68.23,42.5,75.38Z"/><path class="cls-5" d="M31.12,56.67a3.42,3.42,0,0,1-.78-2.53c.15-.9-1.33-.86-1.33-.86s.54.72,0,1.21-2.36,1.14-5.16,1.14-4-.35-4.59-.7S18.09,53.79,19,53a2.49,2.49,0,0,0-1.53.49c-.79.57.51,1,0,1.72A5.36,5.36,0,0,1,16.21,57c-.9.85,0,1.35,1.21,2a11.77,11.77,0,0,0,2.33,1,3.9,3.9,0,0,0,4.11,3.44A3.9,3.9,0,0,0,28,60a9.46,9.46,0,0,0,3.17-1.69C32.49,57.24,31.67,57.42,31.12,56.67Zm-7.26,5.69a2.51,2.51,0,1,1,2.52-2.51A2.51,2.51,0,0,1,23.86,62.36Z"/><path class="cls-6" d="M23.91,6.87c-18.86,0-19,15.07-18.13,24.91C4.49,29.47.67,30.33,1,34c.3,3.54,5.7,5.15,5.63,4.76,1.54,8,10.43,12.48,17.3,13.11h.15v-45Z"/><path class="cls-7" d="M1.92,32.47A1.87,1.87,0,0,1,4.69,32a1.45,1.45,0,0,1,.45,1.64c-.14.48-.66.51-.54,1.24a1.29,1.29,0,0,0,.77,1,1.7,1.7,0,0,1,.64.66,1.68,1.68,0,0,1,.09,1c-.14.58-1,.12-1.65-.14a11.92,11.92,0,0,1-2-1.53A3.1,3.1,0,0,1,1.92,32.47Z"/><path class="cls-8" d="M24,6.87c18.86,0,19,15.07,18.13,24.91,1.29-2.31,5.12-1.45,4.81,2.25-.31,3.54-5.71,5.15-5.63,4.76C39.76,46.81,30.87,51.27,24,51.9h-.14v-45Z"/><path class="cls-7" d="M46.12,32.47a1.86,1.86,0,0,0-2.76-.5,1.45,1.45,0,0,0-.45,1.64c.13.48.66.51.53,1.24a1.31,1.31,0,0,1-.76,1,1.65,1.65,0,0,0-.65.66,1.76,1.76,0,0,0-.08,1c.14.58,1,.12,1.65-.14a12.35,12.35,0,0,0,2-1.53A3.11,3.11,0,0,0,46.12,32.47Z"/><path class="cls-1" d="M23.81,11.15c-6.3,0-10.9,1.73-13.7,5.14C6.22,21.06,6.37,28.35,7.8,33.58c.44,1.6.67,5.9,1,7.49,1.36,7.07,9.61,10.84,15,10.84H24V11.15Z"/><path class="cls-2" d="M37.48,16.3c-2.77-3.39-7.33-5.12-13.52-5.15V51.9c6.2-.06,13.61-4.19,14.89-10.83.3-1.59.52-5.89,1-7.49C41.24,28.36,41.39,21.09,37.48,16.3Z"/><path class="cls-9" d="M27.13,45.51A5,5,0,0,1,24,47a4.78,4.78,0,0,1-3.1-1.48,20.5,20.5,0,0,1,3.1-.23A26.74,26.74,0,0,1,27.13,45.51Z"/><path class="cls-10" d="M24.85,44.82a.81.81,0,0,0-.9.68.82.82,0,0,0-.9-.68,12.79,12.79,0,0,0-2.28.69s1.74.19,2.24.19.93.19.94-.18c0,.37.36.23.86.23s2.32-.24,2.32-.24A12.79,12.79,0,0,0,24.85,44.82Z"/><path class="cls-11" d="M41,37.41c.36,0,0-2.11,1.18-3.56s3-6.35,3-11.24-1.58-9.24-5.68-13.87A28.76,28.76,0,0,0,29.44,1.87l2.78,2.77s-1.5-2.25-6.87-4c-4.24-1.42-7,.16-7,.16S21.15.65,22,2a4.71,4.71,0,0,0,1,.85s-1.3-3.19-7.33-.54S9.74,9.67,5.54,11.12,0,10.7,0,10.7s1.87,3.35,5.18,3.36c.63,0,.59,0,.59,0a32.81,32.81,0,0,0-1.48,6.27C4.05,23.05,4.8,24.92,5,30c.2,4.38,1.29,2.13,2.59,5.35a7.44,7.44,0,0,1,.45,2.3c.48.13,1.75-2.62.84-7.4-.59-3.11,2.33-14.87,9.36-12.58,4.31,1.41,5.39,4.26,8.61,1.73,2.78-2.19,6.65-3.45,9.55-1.72s4.53,5.62,4,11.83C39.82,37.47,41,37.41,41,37.41Z"/></g></g></svg>