<svg xmlns="http://www.w3.org/2000/svg" xmlns:xlink="http://www.w3.org/1999/xlink" viewBox="0 0 52.93 79.1"><defs><style>.cls-1{fill:none;}.cls-2{fill:#471c24;}.cls-3{fill:#755150;}.cls-3,.cls-4{fill-rule:evenodd;}.cls-4{fill:#422e14;}.cls-5{fill:#dcc5a1;}.cls-6{fill:#edd9b4;}.cls-7{clip-path:url(#clip-path);}.cls-8{fill:#bc9f82;}.cls-9{fill:#f8f7e0;}.cls-10{fill:#211915;}.cls-11{fill:#ccad8b;}.cls-12{fill:#d9bf9f;}</style><clipPath id="clip-path"><rect class="cls-1" x="20.7" y="47.92" width="11.52" height="6.79"/></clipPath></defs><title>Ativo 6avatar</title><g id="Camada_2" data-name="Camada 2"><g id="Objects"><polygon class="cls-2" points="11.95 67.85 11.88 67.69 13.24 67.1 13.31 67.26 11.95 67.85"/><path class="cls-3" d="M26.17,41.4c1.41-3,5.53-1,7.95-.31.51,0,.16-.88.46-1.09,2.39,6-6.16,7.43-8.41,3.57C24,47,16.09,46.19,17.76,40c.62,0,.11,1.23.77,1.24C20.74,40.13,24.68,38.65,26.17,41.4Z"/><path class="cls-4" d="M18.53,41.24c-.66,0-.15-1.19-.77-1.24-1.67,6.19,6.22,7,8.41,3.57C28.42,47.43,37,46,34.58,40c-.3.21.05,1.09-.46,1.09-2.42-.74-6.54-2.72-7.95.31C24.68,38.65,20.74,40.13,18.53,41.24Z"/><path class="cls-5" d="M26.43,41V79.07H5.63l-.51-.22c0-12.92,5.08-18.28,8.83-20.47a10.91,10.91,0,0,1,3.9-1.5c1.27,0,2.09-1.63,2.63-4.1.08-.38.16-.77.21-1.19.12-.7.23-1.44.3-2.21,0-.46.09-.93.13-1.41.19-2.35.25-4.89.25-7.3,0,0,2.8.29,5.06.29Z"/><path class="cls-6" d="M47.8,78.85s-.18.07-.49.22H26.43V41h0c2.26,0,5.08-.29,5.08-.29,0,2.4.05,4.92.24,7.24,0,.47.09.93.13,1.38.09.8.18,1.55.29,2.27v0c0,.31.11.6.17.9.54,2.62,1.38,4.4,2.7,4.4A11,11,0,0,1,39,58.36c3.75,2.17,8.85,7.54,8.85,20.49Z"/><g class="cls-7"><path class="cls-8" d="M32.22,51.56v0a6.72,6.72,0,0,1-5.76,3.12h0a7.23,7.23,0,0,1-5.73-3.11c.11-.69.22-1.44.29-2.21.05-.46.09-.93.13-1.41a22.82,22.82,0,0,0,5.25.69h.06a21.76,21.76,0,0,0,5.37-.74c0,.46.08.93.12,1.37.09.81.18,1.56.3,2.27"/></g><path class="cls-9" d="M48.08,78.85s-.19.07-.51.22H5.29l-.52-.22c0-13.11,5.23-18.17,9-20.39-.8,4.25,5.86,5.89,12.59,5.81s13-1.87,12.56-5.91c3.81,2.21,9.13,7.35,9.13,20.49Z"/><path class="cls-10" d="M40.9,67.43a4.78,4.78,0,0,0-3.44-.81V56.48l-2.68-.69V67.13a19.14,19.14,0,0,0-3.35,1.38c-3.45,1.83-4.66,1.54-5.19,1.65h-.07c-.48,0-1.67.24-5.25-1.66a18.89,18.89,0,0,0-2.86-1.22V56.36l-2.67.69v9.62a5.47,5.47,0,0,0-3.71.58A31.73,31.73,0,0,0,9.82,78.9l.39.2h32.1l.38-.2A32.12,32.12,0,0,0,40.9,67.43Z"/><path class="cls-11" d="M26.41,0C4.71,0,4.58,17.33,5.54,28.66,4.06,26-.34,27,0,31.25c.35,4.08,6.57,5.93,6.48,5.48,1.78,9.23,12,14.36,19.91,15.09h.17V0Z"/><path class="cls-8" d="M1.11,29.45a2.15,2.15,0,0,1,3.18-.57,1.66,1.66,0,0,1,.51,1.89c-.15.55-.76.59-.61,1.42a1.47,1.47,0,0,0,.88,1.21c.26.21.59.37.75.77a2,2,0,0,1,.09,1.18c-.16.67-1.2.13-1.89-.17a12.15,12.15,0,0,1-2.28-1.75,3.57,3.57,0,0,1-.63-4Z"/><path class="cls-12" d="M26.52,0c21.7,0,21.83,17.33,20.86,28.66,1.49-2.66,5.9-1.67,5.53,2.59-.34,4.08-6.56,5.93-6.48,5.48-1.77,9.23-12,14.36-19.91,15.09h-.17V0Z"/><path class="cls-8" d="M52,29.45a2.16,2.16,0,0,0-3.19-.57,1.67,1.67,0,0,0-.51,1.89c.15.55.76.59.61,1.42A1.47,1.47,0,0,1,48,33.4a1.9,1.9,0,0,0-.74.77,2.1,2.1,0,0,0-.1,1.18c.17.67,1.2.13,1.9-.17a12.48,12.48,0,0,0,2.28-1.75,3.59,3.59,0,0,0,.63-4Z"/><path class="cls-5" d="M26.29,4.31c-7.24,0-12.54,2-15.76,5.92C6.05,15.72,6.22,24.11,7.88,30.12c.5,1.85.76,6.8,1.11,8.62,1.56,8.15,11.06,12.48,17.3,12.48h.17V4.31Z"/><path class="cls-6" d="M42,10.14c-3.19-3.9-8.43-5.89-15.57-5.92v46.9c7.15-.07,15.68-4.82,17.14-12.47.35-1.82.61-6.78,1.12-8.62,1.65-6,1.81-14.37-2.69-19.89Z"/></g></g></svg>