<svg xmlns="http://www.w3.org/2000/svg" xmlns:xlink="http://www.w3.org/1999/xlink" viewBox="0 0 52.86 78.69"><defs><style>.cls-1{fill:none;}.cls-2{fill:#453514;}.cls-3{fill:#29210f;}.cls-4{fill:#3b2812;}.cls-5{fill:#dcc5a1;}.cls-6{fill:#edd9b4;}.cls-7{clip-path:url(#clip-path);}.cls-8{fill:#bc9f82;}.cls-9{fill:#4f4e49;}.cls-10{fill:#ccad8b;}.cls-11{fill:#d9bf9f;}.cls-12{fill:#b47070;}.cls-13{fill:#c17874;}.cls-14{fill:#f8f7e0;}</style><clipPath id="clip-path"><rect class="cls-1" x="20.59" y="49.64" width="10.68" height="6.29"/></clipPath></defs><title>Ativo 2avatar</title><g id="Camada_2" data-name="Camada 2"><g id="Objects"><path class="cls-2" d="M48,28.65c-.4.39-1.78.4-3.06,3-.8,1.58-1.4,1.73-1.4,1.73s1-6.43,1-8.22-5.72-15-8.91-16.07-6.07,2.51-9.51,2.51h-.27c-3.36-.07-6.35-3.55-9.5-2.51s-8.9,14.29-8.9,16.07,1,8.22,1,8.22a4,4,0,0,1-1.75-2C5.43,28.59,4.48,29,4,28.63,3.18,17.49,5.84,2.56,25.87,2.56H26c20.14,0,22.94,15,22.06,26.09Z"/><path class="cls-3" d="M3.92,20.37C2.62,23.21.86,26,1.13,28.72c1,9.38-.73,27,3.37,28.15.78.23-1.94-18.76-1.33-28.3-.27-2.68,1.16-4.18,2.45-7-.13-1.34-.13-1.34-1.7-1.18Z"/><path class="cls-3" d="M48.09,20.37c1.3,2.84,3.06,5.67,2.78,8.35-1,9.38.73,27-3.36,28.15-.78.23,1.93-18.76,1.32-28.3.28-2.68-1.15-4.18-2.45-7,.13-1.34.13-1.34,1.71-1.18Z"/><path class="cls-2" d="M4.32,16.64c-1.36,2.69-3.1,5.32-3.1,8,0,9.43-3,26.78.39,28.35.65.3,0-18.87,1.35-28.29,0-2.7,1.36-4,2.71-6.74,0-1.34,0-1.34-1.35-1.34Z"/><path class="cls-2" d="M48.55,18.48c1.35,2.7,3.1,5.34,3.1,8,0,9.43,3,26.77-.4,28.35-.65.29,0-18.87-1.35-28.29,0-2.7-1.35-4.05-2.71-6.74,0-1.35,0-1.35,1.36-1.35Z"/><path class="cls-2" d="M44.23,26.28c1.35,2.7,3.1,5.33,3.1,8,0,9.43,3,26.77-.39,28.34-.65.3,0-18.86-1.36-28.29,0-2.69-1.35-4-2.69-6.73,0-1.35,0-1.35,1.34-1.35Z"/><path class="cls-2" d="M3.47,30.22c1.36,2.69,3.1,5.33,3.1,8,0,9.43,3,26.77-.39,28.34-.65.3,0-18.86-1.35-28.29,0-2.69-1.36-4-2.71-6.73,0-1.35,0-1.35,1.35-1.35Z"/><path class="cls-4" d="M47.16,23.19c1.35,2.7,3.1,5.33,3.1,8,0,9.42,3,26.77-.4,28.33-.65.31,0-18.85-1.35-28.28,0-2.7-1.35-4-2.7-6.74,0-1.35,0-1.35,1.35-1.35Z"/><path class="cls-4" d="M5.51,20.37C4.21,23.21,2.45,26,2.72,28.72c1,9.38-.73,27,3.37,28.15.78.23-1.94-18.76-1.33-28.3-.28-2.68,1.16-4.18,2.46-7-.14-1.34-.14-1.34-1.71-1.18Z"/><path class="cls-2" d="M9.74,30.19C8.44,33,6.68,35.86,7,38.54c1,9.39-.73,27,3.37,28.15.78.23-1.93-18.75-1.33-28.3-.27-2.68,1.16-4.18,2.46-7C11.31,30,11.31,30,9.74,30.19Z"/><path class="cls-4" d="M13.48,30.47c-1.29,2.84-3.06,5.68-2.78,8.35,1,9.38-.73,27,3.37,28.15.78.23-1.94-18.76-1.33-28.3-.28-2.68,1.15-4.18,2.45-7-.13-1.34-.13-1.34-1.71-1.18Z"/><path class="cls-2" d="M45,28.65C43.72,31.48,42,34.32,42.23,37c1,9.38-.73,27,3.36,28.15.79.22-1.93-18.76-1.32-28.31-.28-2.68,1.16-4.18,2.46-7-.14-1.34-.14-1.34-1.71-1.17Z"/><path class="cls-3" d="M11.49,26.15C10.19,29,8.43,31.83,8.71,34.5c1,9.39-.74,27,3.37,28.16.78.22-1.95-18.77-1.34-28.31-.27-2.67,1.16-4.18,2.46-7-.14-1.34-.14-1.34-1.71-1.18Z"/><path class="cls-2" d="M41.21,31.42c-1.3,2.84-3.06,5.68-2.79,8.35,1,9.39-.73,27,3.37,28.15.78.22-1.93-18.76-1.32-28.3-.29-2.68,1.15-4.18,2.45-7-.14-1.34-.14-1.34-1.71-1.18Z"/><path class="cls-2" d="M42.4,30.19c-1.3,2.84-3.06,5.67-2.78,8.35,1,9.39-.74,27,3.36,28.15.79.23-1.93-18.75-1.33-28.3-.27-2.68,1.16-4.18,2.46-7C44,30,44,30,42.4,30.19Z"/><path class="cls-2" d="M38.41,32.85c-1.29,2.84-3.06,5.67-2.78,8.35,1,9.39-.73,27,3.36,28.16.79.22-1.93-18.77-1.33-28.31-.27-2.68,1.17-4.18,2.47-7-.15-1.34-.15-1.34-1.72-1.18Z"/><path class="cls-3" d="M17.37,32.85c-1.3,2.84-3.06,5.67-2.79,8.35,1,9.39-.73,27,3.37,28.16.79.22-1.94-18.77-1.32-28.31-.28-2.68,1.15-4.18,2.45-7-.14-1.34-.14-1.34-1.71-1.18Z"/><path class="cls-4" d="M18.55,32c-1.31,2.84-3.07,5.67-2.79,8.35,1,9.39-.73,27,3.36,28.15.78.22-1.93-18.76-1.33-28.3-.27-2.68,1.16-4.18,2.46-7-.13-1.33-.13-1.33-1.7-1.17Z"/><path class="cls-2" d="M20.81,32c-1.31,2.84-3.06,5.67-2.8,8.35,1,9.39-.72,27,3.37,28.15.79.22-1.93-18.76-1.33-28.3-.27-2.68,1.17-4.18,2.47-7-.14-1.33-.14-1.33-1.71-1.17Z"/><path class="cls-3" d="M34.08,32c-1.3,2.84-3.06,5.67-2.79,8.35,1,9.39-.73,27,3.36,28.15.8.22-1.93-18.76-1.32-28.3-.28-2.68,1.16-4.18,2.46-7-.14-1.33-.14-1.33-1.71-1.17Z"/><path class="cls-2" d="M36.35,32c-1.29,2.84-3.06,5.67-2.78,8.35,1,9.39-.73,27,3.37,28.15.78.22-1.94-18.76-1.33-28.3-.27-2.68,1.16-4.18,2.46-7-.14-1.33-.14-1.33-1.72-1.17Z"/><path class="cls-4" d="M46.92,25.19c-1.29,2.84-3.06,5.67-2.78,8.35,1,9.38-.73,27,3.36,28.15.79.22-1.93-18.76-1.32-28.3-.28-2.68,1.16-4.18,2.46-7C48.5,25,48.5,25,46.92,25.19Z"/><path class="cls-3" d="M6.65,25.22c1,8.08-1.41,14.73-3,22.9-.93,4.66,0,12.12,4,13.47-3-5.39-3-10.77-1-16.17s0-12.12,2-18.85c0-1.35-1-1.35-2-1.35Z"/><path class="cls-3" d="M43.69,27.84c1,8.08-1.56,14.7-3,22.91-1.08,5.94,0,12.12,4,13.47a18.28,18.28,0,0,1-1-16.16c2-5.4,0-12.14,2-18.87,0-1.35-1-1.35-2-1.35Z"/><path class="cls-4" d="M38.63,33.77c1,8.08-1.58,14.69-3,22.9-.72,4,0,12.12,4,13.47-3-5.39-3-10.78-1-16.17s0-12.12,2-18.86c0-1.34-1-1.34-2-1.34Z"/><path class="cls-3" d="M47,18.49c-1,8.08,1.57,14.69,3,22.9.83,4.64,0,12.12-4,13.47a18.27,18.27,0,0,0,1-16.17c-2-5.39,0-12.12-2-18.86,0-1.34,1-1.34,2-1.34Z"/><path class="cls-2" d="M12.69,32c-1,8.08,1.13,14.79,3,22.9,1.09,4.63,0,12.12-4.05,13.47a18.22,18.22,0,0,0,1-16.16c-2-5.4,0-12.13-2-18.87,0-1.34,1-1.34,2-1.34Z"/><path class="cls-5" d="M25.89,43.18V78.51H6.62l-.47-.2C6.15,59.36,18,58,18,58c1.18,0,1.93-1.51,2.43-3.8.08-.36.15-.72.21-1.11.11-.64.2-1.33.26-2,0-.42.09-.85.13-1.3.17-2.17.22-4.53.22-6.76,0,0,2.6.25,4.69.25Z"/><path class="cls-6" d="M45.72,78.31s-.18.07-.46.21H25.89V43.18h0c2.1,0,4.71-.25,4.71-.25,0,2.22.06,4.55.23,6.71L31,50.92c.08.74.16,1.44.27,2.09v0c0,.29.1.57.16.83C31.91,56.3,32.69,58,33.91,58c0,0,11.81,1.41,11.81,20.36Z"/><g class="cls-7"><path class="cls-8" d="M31.26,53v0a6.24,6.24,0,0,1-5.34,2.89h0A6.7,6.7,0,0,1,20.59,53c.11-.64.2-1.33.26-2,0-.42.09-.85.13-1.3a21.23,21.23,0,0,0,4.86.63h.05a20.1,20.1,0,0,0,5-.68L31,50.92c.08.74.16,1.44.27,2.09"/></g><path class="cls-9" d="M43.15,65.22a35.3,35.3,0,0,1-5.57,1.48c-.33-.49-1.14-2.08-1.26-6.15,0-.77,0-1.38,0-1.86h0l0-.19-1.69-.69s-1.88,3.33.72,9.27c-.68.1-1.37.19-2.12.26-1.55.17-4.26.26-7.16.29s-5.6-.12-7.15-.29c-.77-.07-1.48-.17-2.17-.27,2.47-5.8.63-9.05.63-9.05l-1.68.68c0,.48,0,1.09,0,1.86-.13,4-.92,5.62-1.26,6.13A34.2,34.2,0,0,1,8.9,65.22c-1.61,3-2.79,7.27-2.79,13.26a3.09,3.09,0,0,1,.48.21H45.45a3.09,3.09,0,0,1,.48-.21C45.93,72.49,44.75,68.23,43.15,65.22Z"/><path class="cls-10" d="M26,2.66c-20.43,0-20.54,17-19.64,28.17C4.93,28.19.78,29,1.12,33.17s6.18,6.08,6.1,5.62C8.9,48,18.5,53.27,26,53.27l.15,0V2.66Z"/><path class="cls-8" d="M2.43,31.42a1.93,1.93,0,0,1,2.95-.56,1.66,1.66,0,0,1,.47,1.84c-.14.53-.71.57-.56,1.39a1.44,1.44,0,0,0,.81,1.18c.24.21.54.36.69.75a2,2,0,0,1,.09,1.14c-.16.66-1.12.14-1.76-.15A12.42,12.42,0,0,1,3,35.3a3.64,3.64,0,0,1-.57-3.88Z"/><path class="cls-11" d="M26.05,2.66c20.42,0,20.54,17,19.63,28.17,1.4-2.64,5.54-1.82,5.2,2.34s-6.18,6.08-6.1,5.62C43.11,48,33.5,53.27,26.05,53.27l-.16,0V2.66Z"/><path class="cls-8" d="M49.58,31.42a1.93,1.93,0,0,0-2.95-.56,1.67,1.67,0,0,0-.48,1.84c.14.53.71.57.57,1.39a1.43,1.43,0,0,1-.82,1.18c-.23.21-.53.36-.68.75a1.89,1.89,0,0,0-.09,1.14c.15.66,1.11.14,1.76-.15A12,12,0,0,0,49,35.3a3.62,3.62,0,0,0,.58-3.88Z"/><path class="cls-5" d="M25.78,7.46c-6.72,0-11.64,1.94-14.61,5.79C7,18.6,7.17,26.79,8.7,32.66c.47,1.81.71,6.64,1,8.42C11.18,49,20,53.27,25.78,53.27h.15V7.46Z"/><path class="cls-6" d="M40.35,13.25c-3-3.82-7.81-5.75-14.42-5.79V53.25c6.62-.06,14.53-4.7,15.89-12.17.32-1.78.56-6.61,1-8.42,1.53-5.86,1.68-14-2.5-19.41Z"/><path class="cls-12" d="M29.32,45.53a5.36,5.36,0,0,1-3.39,1.62,5.09,5.09,0,0,1-3.31-1.58,22.36,22.36,0,0,1,3.31-.24,29,29,0,0,1,3.39.2Z"/><path class="cls-13" d="M26.89,44.79a.88.88,0,0,0-1,.73.88.88,0,0,0-1-.73,13.65,13.65,0,0,0-2.43.74s1.85.2,2.38.2,1,.21,1-.18c0,.39.39.24.92.24s2.47-.26,2.47-.26a13.65,13.65,0,0,0-2.43-.74Z"/><path class="cls-14" d="M49,17.87a15.75,15.75,0,0,1-1.27-5.15C47.64,10.82,46.4,9,44.8,7.3a18,18,0,0,0-6.58-4.58A36.35,36.35,0,0,0,26.11,0h-.18A36.47,36.47,0,0,0,13.81,2.72,17.82,17.82,0,0,0,7.25,7.3C5.63,9,4.41,10.82,4.3,12.72A15.79,15.79,0,0,1,3,17.87c-.8,2.32,1.2,3.14.79,4.95a34.84,34.84,0,0,0,0,6.52,43.79,43.79,0,0,0,4.8-3.26C11.52,23.24,14.81,19.17,26,19c10.92.17,14.66,5.93,17.67,8.84.94.92,4.22,1.36,4.53,1.5,0,0,.41-4.71,0-6.52s1.6-2.63.79-4.95Z"/></g></g></svg>