<svg xmlns="http://www.w3.org/2000/svg" xmlns:xlink="http://www.w3.org/1999/xlink" viewBox="0 0 49.79 78.98"><defs><style>.cls-1{fill:none;}.cls-2{fill:#4a3c29;}.cls-3{fill:#dcc5a1;}.cls-4{fill:#edd9b4;}.cls-5{clip-path:url(#clip-path);}.cls-6{fill:#bc9f82;}.cls-7{fill:#97c7eb;}.cls-8{fill:#895a59;}.cls-9{fill:#fdfdfd;}.cls-10{fill:#ccad8b;}.cls-11{fill:#d9bf9f;}.cls-12{fill:#292321;}.cls-13{fill:#40331b;}</style><clipPath id="clip-path"><rect class="cls-1" x="19.48" y="50.1" width="10.67" height="6.29"/></clipPath></defs><title>Ativo 28avatar</title><g id="Camada_2" data-name="Camada 2"><g id="Objects"><path class="cls-2" d="M48.14,43.15S46.39,41.51,47.43,31a33.42,33.42,0,0,0-1.11-11.44c.1.3-10.08,15.33-10.08,15.33-.35,4.19-.63,8.29-.7,11.14l-1.71-2.18a36.08,36.08,0,0,0-1.66,5c0,.08,0,.16,0,.24L26.66,45A40.47,40.47,0,0,0,27,49.57l-3.33-2.48s0,6,1.13,7.91c1.26,2.11.13,8,.13,8a17.12,17.12,0,0,0,3.37-4.35c-.14,1.29-.33,2.27-.33,2.27a17.12,17.12,0,0,0,4.38-6.59c.07.9.14,1.81.15,2.7a13.64,13.64,0,0,1-1.34,5.61,22.51,22.51,0,0,0,4.57-8c.29,3.68,1,6.34,2.49,7.78-.19-.26-.94-1.46-.76-4.58.08-1.41.26-2.93.48-4.46a12.21,12.21,0,0,0,4.59,6.17,16.12,16.12,0,0,1-1.77-9.81c.17-1.11.3-2.07.41-2.94a22.38,22.38,0,0,0,.78,5,17.13,17.13,0,0,0,3.81,7s-2.46-4.08-.21-15.11a14.76,14.76,0,0,0,.12-3.38c1.41,2.49,2.52,2.85,2.52,2.85Z"/><path class="cls-2" d="M21.61,37.6l-4.47,3.32a60,60,0,0,0,.39-6.1l-7.35,5.47c0-.1,0-.22,0-.33a46.77,46.77,0,0,0-2.22-6.7L4.06,38.2a29.88,29.88,0,0,0,7.51,20.19,18.57,18.57,0,0,1-1.81-7.51c0-1.19.12-2.41.22-3.61a22.71,22.71,0,0,0,5.86,8.82s-.25-1.31-.43-3a22.53,22.53,0,0,0,4.49,5.82s-1.5-7.85.17-10.68c1.49-2.52,1.54-10.59,1.54-10.59Z"/><path class="cls-3" d="M24.79,43.65V79H5.52l-.47-.2c0-19,11.79-20.37,11.79-20.37,1.18,0,1.94-1.51,2.44-3.8.08-.34.14-.71.2-1.1.11-.65.2-1.33.27-2,0-.43.08-.86.12-1.31.17-2.17.23-4.52.23-6.76,0,0,2.59.26,4.69.26Z"/><path class="cls-4" d="M44.61,78.78a3.92,3.92,0,0,0-.46.2H24.79V43.65h0c2.1,0,4.7-.26,4.7-.26,0,2.22.06,4.56.23,6.71l.12,1.28c.09.74.16,1.44.27,2.1v0c0,.29.1.56.16.83.49,2.44,1.27,4.08,2.49,4.08,0,0,11.81,1.41,11.81,20.37Z"/><g class="cls-5"><path class="cls-6" d="M30.15,53.48v0a6.22,6.22,0,0,1-5.33,2.89h0a6.7,6.7,0,0,1-5.31-2.88c.11-.65.2-1.33.27-2,0-.43.08-.86.12-1.31a20.78,20.78,0,0,0,4.87.63h.05a19.56,19.56,0,0,0,5-.68l.12,1.28c.09.74.17,1.44.27,2.1"/></g><path class="cls-7" d="M44.57,78.78a3.92,3.92,0,0,0-.46.2H5.48L5,78.78a37,37,0,0,1,.49-6.2C7.72,59.5,16.81,58.41,16.81,58.41h.09l.27,0c.88-.24,1.48.39,1.93-1.41l5.62,10,5.7-10c.38,1.6,1,.88,1.71,1.3l.21.08a1.22,1.22,0,0,0,.43.08s11.8,1.41,11.8,20.37Z"/><path class="cls-8" d="M17.09,58.16a1.19,1.19,0,0,1-.26.05h-.1S7.57,59.32,5.31,72.52a37.7,37.7,0,0,0-.49,6.26s.17.06.48.2H19.23L19,56.74c-.45,1.82-1.05,1.18-1.95,1.42Z"/><path class="cls-8" d="M45,78.78c0-19.13-11.91-20.57-11.91-20.57a1.62,1.62,0,0,1-.44-.07,1.76,1.76,0,0,1-.2-.09c-.77-.42-1.34.31-1.74-1.31L30.4,79H44.51a3.92,3.92,0,0,1,.46-.2Z"/><path class="cls-9" d="M21,59.39a49.82,49.82,0,0,1-1.64-5.13s-.42.87-.86,1.86c-.27.59-1,1.29-1.33,2-.82,2-1.74,9.8-1.74,9.8l3-2.87s4.46-.33,6.42,2c.5.6-3.81-7.74-3.81-7.74Z"/><path class="cls-9" d="M28.65,59.39a50.84,50.84,0,0,0,1.68-5.13l.88,1.86c.27.59,1,1.29,1.35,2,.83,2,1.75,9.8,1.75,9.8l-3-2.87s-4.56-.33-6.57,2c-.51.6,3.9-7.74,3.9-7.74Z"/><path class="cls-2" d="M46.9,31.57a5.14,5.14,0,0,0-1.29,1.93c-.7,1.87-1,1.55-1,1.55s1.1-7.32,1.1-9.35S39.47,13.37,36,12.17,29.29,15,25.53,15h-.3c-3.69-.08-7-4-10.43-2.85S5,23.67,5,25.7s1.1,9.35,1.1,9.35-.27.32-1-1.55A5.06,5.06,0,0,0,3.6,31.35C2.67,18.67,3.2,0,25.2,0h.12C47.44,0,47.86,18.89,46.9,31.57Z"/><path class="cls-10" d="M24.85,3.12c-20.42,0-20.54,17-19.63,28.19C3.82,28.67-.32,29.48,0,33.64s6.18,6.08,6.1,5.61c1.67,9.18,11.27,14.48,18.73,14.48H25V3.13Z"/><path class="cls-6" d="M1.32,31.88a1.94,1.94,0,0,1,2.95-.56,1.68,1.68,0,0,1,.48,1.85c-.14.53-.71.58-.57,1.38A1.45,1.45,0,0,0,5,35.74a1.84,1.84,0,0,1,.69.74,2.1,2.1,0,0,1,.09,1.15c-.16.66-1.12.14-1.76-.15a12.07,12.07,0,0,1-2.11-1.71,3.66,3.66,0,0,1-.59-3.89Z"/><path class="cls-11" d="M25,3.12c20.41,0,20.53,17,19.62,28.19,1.41-2.64,5.54-1.83,5.21,2.33s-6.18,6.08-6.1,5.61C42,48.43,32.39,53.73,25,53.73h-.16V3.13Z"/><path class="cls-6" d="M48.48,31.88a2,2,0,0,0-3-.56,1.68,1.68,0,0,0-.47,1.85c.14.53.7.58.56,1.38a1.41,1.41,0,0,1-.82,1.19,1.89,1.89,0,0,0-.68.74A2,2,0,0,0,44,37.63c.16.66,1.12.14,1.75-.15a12.13,12.13,0,0,0,2.12-1.71,3.68,3.68,0,0,0,.59-3.89Z"/><path class="cls-3" d="M24.67,7.93C18,7.93,13,9.87,10.06,13.71c-4.15,5.36-4,13.55-2.46,19.42.46,1.8.7,6.64,1,8.42,1.45,8,10.25,12.18,16,12.18h.15V7.93Z"/><path class="cls-4" d="M39.25,13.72C36.3,9.91,31.43,8,24.82,7.93V53.72c6.62-.07,14.52-4.7,15.89-12.17.32-1.78.56-6.62,1-8.42,1.53-5.86,1.68-14-2.49-19.41Z"/><path class="cls-12" d="M44.81,28c-.11-.23-2.27-.54-5.09-.8a46.43,46.43,0,0,0-7.71.13,28.66,28.66,0,0,0-2.84.59c-1.25.33-2.47.75-3,.86a5.5,5.5,0,0,1-1.28.13h-.18a5.53,5.53,0,0,1-1.29-.13c-.51-.11-1.73-.53-3-.86a28.18,28.18,0,0,0-2.85-.59,46.28,46.28,0,0,0-7.7-.13c-2.82.26-5,.57-5.09.8a6.29,6.29,0,0,0,0,2.41c.22.22,1,.66,1.22,1.38s1,5.91,2.72,7.34c2.86,2.33,12.52,2.44,14.18-6.08.23-1.17.53-1.85,1-2a2.81,2.81,0,0,1,.85-.13,2.91,2.91,0,0,1,.84.13c.52.19.82.87,1.05,2C28.37,41.57,38,41.46,40.9,39.13c1.74-1.43,2.53-6.61,2.72-7.34s1-1.16,1.21-1.38A6.29,6.29,0,0,0,44.81,28Zm-23.4,5.81c-1.51,6.68-8.78,5.91-10.53,5.38-.77-.23-3-1.1-3.4-6.53-.25-3.78,1.57-4,4.16-4.32a21,21,0,0,1,5.23,0c1.26.16,4.21.77,4.5,1.8A7.26,7.26,0,0,1,21.41,33.81Zm20.74-1.15c-.37,5.43-2.62,6.3-3.4,6.53-1.76.53-9,1.3-10.53-5.38a7.37,7.37,0,0,1,0-3.67c.29-1,3.24-1.64,4.5-1.8a21,21,0,0,1,5.23,0C40.57,28.65,42.4,28.88,42.15,32.66Z"/><path class="cls-13" d="M14.71,8.86a11.21,11.21,0,0,1,7.92-6.8c1.56-.4,6.47-.9,8.45,0a6.22,6.22,0,0,1,3.53,3.78c.59,1.64.33,6.76-7.33,7.47-2.92.26-7.87,1.82-8.73,3.53C17.14,19.68,20.71,22,20.71,22s-4.85-2.05-6-5.44a10.44,10.44,0,0,1,0-7.7Z"/></g></g></svg>