<svg xmlns="http://www.w3.org/2000/svg" viewBox="0 0 47.21 72.44"><defs><style>.cls-1{fill:#dcc5a1;}.cls-2{fill:#edd9b4;}.cls-3,.cls-6{fill:#bc9f82;}.cls-3{opacity:0.7;}.cls-4{fill:#841720;}.cls-5{fill:#ccad8b;}.cls-7{fill:#d9bf9f;}.cls-8{fill:#b47070;}.cls-9{fill:#c17874;}.cls-10{fill:#fff;}</style></defs><title>Ativo 53avatar</title><g id="Camada_2" data-name="Camada 2"><g id="Objects"><path class="cls-1" d="M23.14,39.32V72.44H5.07l-.45-.19c0-7.41,1.93-12,4.19-14.76a11.49,11.49,0,0,1,6.88-4.33h.09l.24,0c.91-.26,1.53-1.6,1.95-3.51.07-.33.14-.67.19-1,.1-.61.19-1.25.25-1.92l.12-1.22c.16-2,.21-4.24.21-6.34C18.74,39.08,21.17,39.32,23.14,39.32Z"/><path class="cls-2" d="M41.71,72.25s-.16.06-.43.19H23.14V39.32h0c2,0,4.41-.24,4.41-.24,0,2.08,0,4.27.21,6.29,0,.4.08.8.11,1.2.08.69.15,1.35.26,2h0c0,.28.09.53.14.78.38,1.86.94,3.22,1.74,3.67a.84.84,0,0,0,.2.08,1.06,1.06,0,0,0,.4.08,11.53,11.53,0,0,1,7.13,4.64C39.92,60.62,41.71,65.1,41.71,72.25Z"/><path class="cls-3" d="M28.17,48.55h0a5.88,5.88,0,0,1-5,2.71h0a6.31,6.31,0,0,1-5-2.7c.1-.61.19-1.25.25-1.92l.12-1.23a19.72,19.72,0,0,0,4.56.6h.05a18.59,18.59,0,0,0,4.66-.65q.06.62.12,1.2C28,47.27,28.06,47.92,28.17,48.55Z"/><path class="cls-4" d="M19.31,42.91c0-.43-.66-.88-1.37-1.25a.28.28,0,0,0,0-.06L17.36,41A6.66,6.66,0,0,0,18,38.26l-1.43-2.88-1,2.88-.25.59-.21-.22c-.06.4-.08.73-.11,1s-.22.54-.33.79a18.81,18.81,0,0,0-.55-1.88l-.2.16A13.79,13.79,0,0,0,13.24,36L12,37a15.1,15.1,0,0,0,.13-1.66l-.59.19a12.91,12.91,0,0,0,.4-3c-3.3,1-2.61,1.34-7.58,1.23-3.44-.08-4.36-1-4.36-1A13.27,13.27,0,0,0,5.55,36.6h-1c-3.43-.08-4.36-1-4.36-1s2.86,3.51,6.89,4.12l-.45.17c-3.23,1.17-4.42.64-4.42.64a13.42,13.42,0,0,0,6.36,1.54l-1,.39c-3.23,1.17-4.43.64-4.43.64s4,2.25,8,1.34a52.45,52.45,0,0,1-5.82,3.4,48.41,48.41,0,0,0,7.51-2.49.47.47,0,0,0-.07.12,43.67,43.67,0,0,1-4,6.2,53.82,53.82,0,0,0,6.84-5.48c-.18.58-.41,1.29-.73,2.2-1.12,3.23-2.29,3.83-2.29,3.83S19.8,49.36,19.31,42.91Z"/><path class="cls-4" d="M27.9,42.37c0-.43.66-.88,1.37-1.25a.28.28,0,0,1,0-.06l.59-.63a6.88,6.88,0,0,1-.66-2.71l1.43-2.87,1,2.87.25.6.21-.23c.06.4.08.73.11,1s.22.54.33.79A16.64,16.64,0,0,1,33.07,38l.19.16A13.08,13.08,0,0,1,34,35.44c.52.42.91.76,1.24,1-.11-.86-.13-1.66-.13-1.66l.59.19a12.91,12.91,0,0,1-.4-3c3.3,1,2.62,1.34,7.58,1.23,3.44-.08,4.36-1,4.36-1a13.36,13.36,0,0,1-5.55,3.81l1,0C46.1,36,47,35,47,35s-2.86,3.51-6.88,4.12l.44.17C43.81,40.5,45,40,45,40a13.58,13.58,0,0,1-6.38,1.55l1,.38c3.23,1.17,4.43.64,4.43.64s-4,2.25-8,1.34A55.44,55.44,0,0,0,42,47.28a48.78,48.78,0,0,1-7.51-2.49s0,.08.07.12a44.43,44.43,0,0,0,4,6.21,53.5,53.5,0,0,1-6.84-5.49c.18.58.41,1.29.73,2.2,1.12,3.23,2.29,3.83,2.29,3.83S27.41,48.83,27.9,42.37Z"/><path class="cls-5" d="M23.13,3.74C4.27,3.7,4.16,18.8,5,28.65,3.7,26.34-.12,27.2.19,30.89S5.9,36,5.82,35.65c1.55,8,10.43,12.48,17.31,13.12h.14v-45Z"/><path class="cls-6" d="M1.14,29.33a1.87,1.87,0,0,1,2.76-.5,1.43,1.43,0,0,1,.45,1.64c-.13.48-.66.52-.53,1.24a1.29,1.29,0,0,0,.77,1,1.73,1.73,0,0,1,.64.67,1.72,1.72,0,0,1,.08,1c-.14.59-1,.12-1.65-.14a11.73,11.73,0,0,1-2-1.52A3.13,3.13,0,0,1,1.14,29.33Z"/><path class="cls-7" d="M23.22,3.74c18.85,0,19,15.06,18.12,24.91,1.3-2.31,5.12-1.45,4.81,2.24S40.44,36,40.52,35.65c-1.55,8-10.43,12.48-17.3,13.12h-.15v-45Z"/><path class="cls-6" d="M45.33,29.33a1.87,1.87,0,0,0-2.76-.5,1.46,1.46,0,0,0-.45,1.64c.14.48.67.52.54,1.24a1.29,1.29,0,0,1-.77,1,1.75,1.75,0,0,0-.65.67,1.72,1.72,0,0,0-.08,1c.15.59,1.05.12,1.65-.14a11.35,11.35,0,0,0,2-1.52A3.11,3.11,0,0,0,45.33,29.33Z"/><path class="cls-1" d="M23,8c-6.29,0-10.9,1.73-13.69,5.15C5.43,17.92,5.58,25.21,7,30.44c.44,1.6.66,5.91,1,7.49C9.35,45,17.59,48.77,23,48.77h.15V8Z"/><path class="cls-2" d="M36.69,13.16C33.93,9.77,29.37,8,23.17,8V48.77c6.2-.06,13.62-4.19,14.89-10.84.3-1.58.53-5.89,1-7.49C40.46,25.23,40.6,18,36.69,13.16Z"/><path class="cls-8" d="M26.34,42.38a5,5,0,0,1-3.18,1.52,4.74,4.74,0,0,1-3.09-1.48,20.28,20.28,0,0,1,3.09-.23A26.74,26.74,0,0,1,26.34,42.38Z"/><path class="cls-9" d="M24.06,41.68a.83.83,0,0,0-.9.69.81.81,0,0,0-.89-.69,12.66,12.66,0,0,0-2.28.7s1.73.18,2.23.18.94.2.94-.17c0,.37.37.23.86.23s2.32-.24,2.32-.24A12.66,12.66,0,0,0,24.06,41.68Z"/><path class="cls-4" d="M43.55,22.7a24.08,24.08,0,0,1-.23,3A5,5,0,0,1,43,27a17.63,17.63,0,0,0-1,3.32A4.18,4.18,0,0,0,41,31.94c-.59,1.56-.83,1.3-.83,1.3s.19-1.24.4-2.75c.13-1.28.3-3.17.44-4.81,0-.22,0-.45.06-.66-.27-1.32-2.75-7.62-14.56-7a11.16,11.16,0,0,1-5.32-1.38C19.59,15.85,18.52,15,18.41,15c-.52,0-5.24-.87-8,1.19a3.88,3.88,0,0,0-.49.4c-3.3,2.84-3.75,7.78-3.75,8.76,0,.09,0,.19,0,.3.09,2,.94,7.56.94,7.56s-.23.26-.84-1.3a4.27,4.27,0,0,0-1.32-1.81A14.8,14.8,0,0,1,3.59,27a9.35,9.35,0,0,0-.66-1.32c-.63-1.23-1.36-3.52-.6-9.06l.12-.77C3,12.06,5.92,3.55,13.55,2s9.4-3.3,15.63-.76,10.17,4.3,12.09,8.48A26.72,26.72,0,0,1,43,16.62,49.64,49.64,0,0,1,43.55,22.7Z"/><path class="cls-10" d="M41.71,72.25s-.16.06-.43.19H5.07l-.45-.19c0-7.41,1.93-12,4.19-14.76a9.89,9.89,0,0,0,7,5.1,63.76,63.76,0,0,0,7.29.92c3.77.28,7.33-.34,9.29-1.4a20.26,20.26,0,0,0,5.35-4.31C39.92,60.62,41.71,65.1,41.71,72.25Z"/><path class="cls-1" d="M34.56,64.64A4.66,4.66,0,1,1,29.91,60,4.65,4.65,0,0,1,34.56,64.64Z"/><path class="cls-4" d="M32.8,64.64a2.9,2.9,0,1,1-2.89-2.89A2.89,2.89,0,0,1,32.8,64.64Z"/></g></g></svg>