<svg xmlns="http://www.w3.org/2000/svg" viewBox="0 0 49.8 79.41"><defs><style>.cls-1{fill:#dcc5a1;}.cls-2{fill:#edd9b4;}.cls-3{fill:#bc9f82;}.cls-4{fill:#060800;}.cls-5{fill:#fff;}.cls-6{fill:#d9bf9f;}.cls-7{fill:#422e14;}</style></defs><title>Ativo 29avatar</title><g id="Camada_2" data-name="Camada 2"><g id="Objects"><path class="cls-1" d="M24.86,44.07V79.4H5.58l-.47-.2c0-19,11.8-20.37,11.8-20.37,1.18,0,1.94-1.5,2.44-3.79.08-.36.14-.72.2-1.11.11-.65.2-1.33.27-2l.12-1.3c.18-2.18.23-4.53.23-6.77,0,0,2.59.26,4.69.26Z"/><path class="cls-2" d="M44.68,79.2a3.92,3.92,0,0,0-.46.2H24.86V44.07h0c2.1,0,4.71-.26,4.71-.26,0,2.22.05,4.55.22,6.71,0,.43.09.86.13,1.28.08.74.16,1.44.27,2.1h0c0,.3.09.57.15.84.5,2.44,1.28,4.08,2.5,4.08,0,0,11.8,1.41,11.8,20.37Z"/><path class="cls-3" d="M30.23,53.9h0a6.24,6.24,0,0,1-5.34,2.9h0a6.7,6.7,0,0,1-5.31-2.88c.11-.65.2-1.33.27-2l.12-1.3a21.82,21.82,0,0,0,4.87.63h.05a20.08,20.08,0,0,0,5-.69c0,.43.09.86.13,1.28.08.74.16,1.44.27,2.1Z"/><path class="cls-4" d="M44.71,79.2s-.18.07-.46.21H5.57l-.48-.21c0-14.44,6.86-18.69,10.12-19.9,2.13,2.33,6.34,5.53,9.59,5.69h.09s0,0,.07,0c3.26-.16,7.47-3.38,9.6-5.71,3.24,1.21,10.15,5.44,10.15,19.92Z"/><path class="cls-5" d="M13.4,60.14c2.52,2.77,7.52,6.57,11.37,6.77h.11a.21.21,0,0,0,.08,0c3.86-.2,8.85-4,11.38-6.77a14.23,14.23,0,0,0-1.82-.86c-2.13,2.33-6.34,5.55-9.6,5.71,0,0-.06,0-.06,0h-.1c-3.25-.16-7.45-3.36-9.58-5.69a12,12,0,0,0-1.78.84Z"/><path class="cls-6" d="M24.85,3.54c-20.42,0-20.53,17-19.63,28.19C3.82,29.08-.32,29.9,0,34.06c.33,4,6.18,6.08,6.1,5.61C7.79,48.85,17.4,54.14,24.85,54.14H25V3.54Z"/><path class="cls-3" d="M1.32,32.3a1.94,1.94,0,0,1,3-.56,1.69,1.69,0,0,1,.47,1.85c-.14.53-.71.57-.57,1.38A1.41,1.41,0,0,0,5,36.15a1.9,1.9,0,0,1,.69.76,2.14,2.14,0,0,1,.09,1.14c-.16.66-1.12.14-1.77-.15A13.4,13.4,0,0,1,1.9,36.19a3.68,3.68,0,0,1-.58-3.89Z"/><path class="cls-6" d="M25,3.54c20.42,0,20.53,17,19.63,28.19,1.4-2.65,5.54-1.83,5.2,2.33-.33,4-6.18,6.08-6.1,5.61C42,48.85,32.4,54.14,25,54.14H24.8V3.54Z"/><path class="cls-3" d="M48.48,32.3a1.94,1.94,0,0,0-3-.56,1.69,1.69,0,0,0-.47,1.85c.14.53.71.57.57,1.38a1.43,1.43,0,0,1-.82,1.18,1.9,1.9,0,0,0-.69.76A2,2,0,0,0,44,38.05c.16.66,1.12.14,1.77-.15a12.89,12.89,0,0,0,2.1-1.71,3.66,3.66,0,0,0,.59-3.89Z"/><path class="cls-1" d="M25,8.35c-6.72,0-11.63,1.94-14.62,5.78-4.15,5.36-4,13.55-2.46,19.42.47,1.8.71,6.64,1,8.42,1.46,8,10.26,12.17,16.05,12.17h.15V8.35Z"/><path class="cls-2" d="M39.59,14.14c-3-3.82-7.81-5.76-14.43-5.79V54.14c6.62-.07,14.53-4.71,15.9-12.17.31-1.78.55-6.62,1-8.42,1.53-5.86,1.68-14-2.49-19.41Z"/><path class="cls-7" d="M33.05,45.5a2.29,2.29,0,0,0-.14-.27,6.53,6.53,0,0,0-.77-1.14v0a9,9,0,0,0-7.36-3.5h0a9,9,0,0,0-7.36,3.5v0a6.53,6.53,0,0,0-.77,1.14c-.05.08-.09.18-.14.27a8.75,8.75,0,0,0,.06,8.08c1.05,2.3,4.32,5.37,8.2,5.37h0c3.87,0,7.14-3.07,8.19-5.37A8.73,8.73,0,0,0,33.05,45.5Zm-1.93,6.82a11.44,11.44,0,0,1-3,1,3.89,3.89,0,0,0-3.32-1.67,3.89,3.89,0,0,0-3.33,1.67,11.64,11.64,0,0,1-3-1,8.93,8.93,0,0,1-.57-3.18A8.35,8.35,0,0,1,18,48a8.9,8.9,0,0,1,5.32-2.73,10.73,10.73,0,0,1,1.51-.11h0a10.62,10.62,0,0,1,1.51.11A8.93,8.93,0,0,1,31.62,48a8.35,8.35,0,0,1,.08,1.13A8.71,8.71,0,0,1,31.12,52.32Z"/><path class="cls-7" d="M39.94,6.63C35.48,3.25,28.78-.29,24.72.15c-10-1.07-12.92,4-15.21,5.72-7.28,5.52-4.83,25.3-4.83,25.3a2.12,2.12,0,0,1,1.85.41,6.54,6.54,0,0,1,1.72,3.24,2.68,2.68,0,0,0,1.3,1.68s-1.74-7.86,0-11.36A17.32,17.32,0,0,1,12.94,20a9.69,9.69,0,0,0,.68,3.5c1.12,2.93,5.73,4.72,5.73,4.72s-3.39-2-2.05-4.48c.81-1.49,5.51-2.84,8.28-3.07,4-.34,5.88-1.85,6.66-3.37a8.34,8.34,0,0,1,2.21,1c3.33,2.29,4.29,4.65,5.39,6.83,1.79,3.5,0,11.36,0,11.36a2.64,2.64,0,0,0,1.3-1.68,6.56,6.56,0,0,1,1.73-3.24,2.1,2.1,0,0,1,1.84-.41S47.21,12.15,39.94,6.63Z"/></g></g></svg>