<svg xmlns="http://www.w3.org/2000/svg" xmlns:xlink="http://www.w3.org/1999/xlink" viewBox="0 0 54.51 80.66"><defs><style>.cls-1{fill:none;}.cls-2{fill:#211915;}.cls-3{fill:#dcc5a1;}.cls-4{fill:#edd9b4;}.cls-5{clip-path:url(#clip-path);}.cls-6{fill:#bc9f82;}.cls-7{fill:#9a6919;}.cls-8{fill:#fff;}.cls-9{fill:#82acc6;}.cls-10{fill:#483a26;}.cls-11{fill:#ccad8b;}.cls-12{fill:#d9bf9f;}.cls-13{fill:#32221d;}.cls-14{fill:#412620;}.cls-15{fill:#0f1005;}</style><clipPath id="clip-path"><rect class="cls-1" x="20.55" y="49.72" width="11.44" height="6.74"/></clipPath></defs><title>Ativo 34avatar</title><g id="Camada_2" data-name="Camada 2"><g id="Objects"><polygon class="cls-2" points="24.8 53.25 25.02 53.11 24.85 53.33 24.8 53.25"/><polygon class="cls-2" points="25.13 53.11 25.08 53.06 25.1 53.05 25.13 53.11"/><path class="cls-3" d="M26.24,42.82V80.66H5.6l-.51-.22c0-20.3,12.63-21.81,12.63-21.81h.11l.27-.06a1.07,1.07,0,0,0,.27-.12c.89-.45,1.53-1.89,2-3.89a10.72,10.72,0,0,0,.22-1.18c.11-.7.22-1.43.29-2.2,0-.46.09-.92.13-1.4.19-2.32.25-4.84.25-7.24,0,0,2.78.28,5,.28Z"/><path class="cls-4" d="M47.47,80.44s-.19.07-.5.22H26.24V42.82h0c2.25,0,5-.28,5-.28,0,2.37.06,4.87.25,7.18.05.47.09.93.13,1.38.08.79.17,1.54.29,2.25h0c0,.32.11.6.16.9.43,2.11,1.07,3.68,2,4.19a1.89,1.89,0,0,0,.21.09,1.27,1.27,0,0,0,.47.09s12.64,1.51,12.64,21.81Z"/><g class="cls-5"><path class="cls-6" d="M32,53.35h0a6.68,6.68,0,0,1-5.72,3.1h0a7.22,7.22,0,0,1-5.69-3.08c.11-.69.22-1.43.29-2.2,0-.46.09-.92.13-1.4a22.55,22.55,0,0,0,5.21.68h.06a21.43,21.43,0,0,0,5.33-.74c.05.47.09.93.13,1.38.08.79.17,1.55.29,2.25"/></g><polygon class="cls-7" points="43.87 73.74 43.58 73.95 38.52 66.46 38.29 66.13 37.91 65.55 37.89 65.52 37.31 64.66 37.08 64.33 36.08 62.84 35.86 62.52 34.86 61.05 34.65 60.72 33.65 59.23 33.43 58.92 32.43 57.43 32.21 57.11 32.42 56.79 32.65 57.11 33.65 58.6 33.87 58.92 34.86 60.4 35.08 60.73 36.08 62.21 36.3 62.54 36.96 63.52 37.29 64 37.51 64.34 38.52 65.81 38.73 66.14 43.87 73.74"/><polygon class="cls-7" points="41.89 74.41 41.58 74.61 38.73 70.38 38.41 69.9 38.19 69.59 37.29 68.26 37.08 67.95 36.08 66.46 35.86 66.15 34.86 64.66 34.63 64.34 34.63 64.33 33.65 62.85 33.43 62.54 33.43 62.52 32.42 61.05 32.21 60.73 31.2 59.25 30.98 58.92 29.98 57.43 29.76 57.11 29.98 56.79 30.2 57.11 31.2 58.6 31.43 58.92 32.43 60.4 32.63 60.72 33.65 62.21 33.87 62.54 34.86 64 35.08 64.33 36.08 65.81 36.3 66.15 37.29 67.62 37.51 67.95 38.41 69.26 38.63 69.59 38.94 70.04 41.89 74.41"/><polygon class="cls-7" points="39.9 75.07 39.6 75.26 37.2 71.71 36.98 71.38 36.89 71.25 36.08 70.07 35.86 69.74 34.86 68.26 34.65 67.93 33.65 66.45 33.43 66.13 32.43 64.66 32.21 64.33 31.2 62.84 31 62.52 29.98 61.04 29.76 60.72 28.76 59.23 28.55 58.92 27.55 57.43 27.34 57.11 27.55 56.77 27.77 57.11 28.76 58.6 28.99 58.9 29.98 60.39 30.21 60.72 31.22 62.21 31.42 62.52 32.43 64 32.65 64.33 33.65 65.8 33.87 66.13 34.86 67.62 35.08 67.95 36.08 69.42 36.3 69.74 37.2 71.06 37.21 71.09 37.41 71.38 39.9 75.07"/><polygon class="cls-7" points="37.91 75.73 37.59 75.92 35.97 73.53 35.75 73.2 35.06 72.17 34.86 71.87 34.65 71.56 33.65 70.07 33.43 69.75 32.42 68.26 32.2 67.93 31.2 66.46 30.98 66.14 29.98 64.66 29.76 64.34 28.76 62.85 28.55 62.52 27.54 61.03 27.34 60.73 26.32 59.25 26.32 59.23 26.11 58.92 25.11 57.44 24.89 57.11 25.12 56.79 25.34 57.11 26.32 58.58 26.55 58.92 27.55 60.4 27.77 60.72 28.76 62.21 28.99 62.52 29.98 64 30.2 64.33 31.2 65.81 31.43 66.14 32.42 67.62 32.65 67.93 33.65 69.42 33.87 69.75 34.86 71.22 35.08 71.56 35.39 72 35.4 72 35.97 72.87 36.19 73.2 37.91 75.73"/><polygon class="cls-7" points="35.92 76.38 35.61 76.59 33.65 73.68 33.43 73.35 33.2 73.01 32.43 71.87 32.21 71.56 31.2 70.07 30.98 69.74 29.98 68.26 29.76 67.93 28.76 66.45 28.55 66.14 27.55 64.66 27.34 64.33 26.32 62.84 26.12 62.52 25.12 61.03 24.89 60.72 23.89 59.25 23.67 58.92 22.67 57.43 22.45 57.11 21.46 55.64 21.24 55.31 21.46 54.98 21.67 55.31 22.67 56.77 22.89 57.11 23.9 58.58 24.12 58.92 25.12 60.39 25.34 60.72 26.34 62.21 26.55 62.52 27.55 63.99 27.77 64.33 28.76 65.81 28.99 66.13 29.98 67.62 30.21 67.93 31.2 69.41 31.43 69.74 32.43 71.22 32.65 71.56 33.54 72.87 33.65 73.03 33.87 73.35 35.92 76.38"/><polygon class="cls-7" points="33.92 77.04 33.63 77.25 33.54 77.12 33.31 76.79 32.43 75.47 32.21 75.14 31.23 73.7 31.22 73.68 31 73.35 29.98 71.87 29.98 71.86 29.76 71.54 28.76 70.07 28.55 69.74 27.55 68.25 27.34 67.93 26.34 66.45 26.12 66.13 25.12 64.64 24.9 64.33 23.9 62.84 23.67 62.52 22.67 61.03 22.45 60.72 21.46 59.23 21.24 58.9 20.24 57.43 20.02 57.11 20.24 56.79 20.46 57.11 21.46 58.6 21.67 58.92 22.67 60.4 22.89 60.72 23.89 62.21 24.11 62.52 25.12 64 25.32 64.33 26.32 65.81 26.55 66.14 27.55 67.62 27.77 67.93 28.76 69.42 28.99 69.75 29.98 71.22 30.2 71.56 31.2 73.03 31.2 73.04 31.43 73.36 31.58 73.59 32.42 74.83 32.65 75.16 33.53 76.47 33.75 76.8 33.92 77.04"/><polygon class="cls-7" points="31.94 77.72 31.64 77.91 31.2 77.28 30.98 76.95 29.98 75.47 29.76 75.16 29.13 74.2 28.76 73.68 28.55 73.35 27.55 71.87 27.34 71.56 26.32 70.07 26.12 69.75 25.12 68.26 24.89 67.93 23.89 66.45 23.67 66.14 22.67 64.66 22.45 64.33 21.46 62.85 21.24 62.52 20.24 61.03 20.01 60.72 19.03 59.25 18.79 58.92 19.03 58.6 19.24 58.92 20.24 60.39 20.46 60.72 21.46 62.21 21.67 62.52 22.67 63.99 22.89 64.33 23.9 65.81 24.11 66.13 25.12 67.6 25.12 67.62 25.34 67.93 26.34 69.42 26.55 69.74 27.55 71.22 27.77 71.56 28.76 73.03 28.99 73.35 29.52 74.13 29.98 74.83 30.21 75.16 31.2 76.64 31.43 76.95 31.94 77.72"/><path class="cls-7" d="M29.94,78.37l-.28.21-.9-1.3L28.55,77l-1-1.48-.21-.32-.42-.62-.58-.85-.22-.33-1-1.49-.22-.3-1-1.49v0l-.23-.31-1-1.49-.22-.32-1-1.48-.22-.32-1-1.49L20,64.33l-1-1.49-.22-.32-1-1.47-.22-.34-.25-.34-.76-1.14L16.39,59l.36-.1.05.06L17.55,60l.24.37.22.33,1,1.48.22.31,1,1.48.22.33,1,1.48.21.34,1,1.47.22.31,1,1.49.22.33,1,1.47h0l.2.33,1,1.47h0l.24.32.75,1.12.23.35.23.33,1,1.48L29,77Z"/><path class="cls-7" d="M28,79l-.31.2-.1-.14-.21-.34-1-1.48L26.1,77l-1-1.48-.23-.31-.54-.81-.46-.68-.22-.31-1-1.49-.22-.31-1-1.49-.22-.32-1-1.49L20,67.93l-1-1.47-.22-.31-1-1.49-.21-.33-1-1.48-.22-.31-.09-.15-.91-1.34-.22-.34-.65-.94a3.29,3.29,0,0,1,.33-.16l.54.78.22.32L16.46,62l.12.18.22.33,1,1.46.22.33,1,1.48.21.32,1,1.49.22.31,1,1.49.21.32,1,1.48.22.34,1,1.47.21.31.74,1.09.27.4.22.33,1,1.48.24.31,1,1.48.22.33Z"/><path class="cls-7" d="M26,79.7l-.29.21-.55-.83-.23-.33-1-1.47L23.67,77l-1-1.48-.22-.31-1-1.44,0,0-.22-.33-1-1.48-.22-.3-1-1.49-.24-.33-1-1.49-.21-.32-1-1.48-.22-.32-1-1.47-.12-.19-.1-.14-1-1.49-.22-.32-1.14-1.68a1.42,1.42,0,0,1,.29-.21l1.06,1.58.23.33,1,1.46.06.09.16.25,1,1.47.22.34,1,1.47L18,68l1,1.47.22.33,1,1.48.2.33,1,1.47.21.33.35.52.65,1,.22.32,1,1.48.22.32,1,1.47.22.33Z"/><path class="cls-7" d="M24,80.36l-.31.21-1-1.47-.22-.34-1-1.48L21.24,77l-1-1.49L20,75.16l-1-1.49-.22-.31-.6-.91-.4-.58-.21-.31-1-1.49-.22-.32-1-1.49L15.14,68l-.86-1.27-.14-.22-.22-.31-1-1.49-.23-.33-1.47-2.2a1.6,1.6,0,0,0,.26-.26L12.92,64l.22.33,1,1.48.22.34.09.12.91,1.35.22.31,1,1.49.22.32,1,1.48.22.34.81,1.18L19,73l.2.31,1,1.49.22.33,1,1.48.21.31,1,1.48.22.33Z"/><path class="cls-7" d="M21.73,80.66H21.3L19,77.28,18.79,77l-1-1.48-.21-.31-1-1.48-.22-.33-1-1.49-.22-.3-.56-.86-.44-.63-.22-.33-.3-.44-.69-1L12.71,68l-1-1.49-.22-.33L9.83,63.67a2.83,2.83,0,0,1,.23-.28l1.64,2.42.23.32,1,1.49.21.33.56.8.44.67.22.32L15.19,71l.17.26.22.32,1,1.49.22.32,1,1.48.2.32,1,1.49.21.31Z"/><path class="cls-7" d="M42.7,63.56l-1,1.47-.21.33-1,1.49-.21.32-.43.62-.2.32-.07.09-.31.44-.21.33-.06.09-.36.53h0l-.2.3-.36.55-.22.31,0,.06h0l-.37.56-.21.33-.37.53-.22.34-.42.62-.22.33-.36.54-.21.31L35,75l-.21.32-.37.54-.23.33-.42.61-.21.32-1.65,2.44-.39.58-.3-.2.26-.38,1.86-2.77.21-.32.42-.61.22-.33.37-.54.23-.32.41-.62.21-.32.36-.53.22-.33.43-.63.21-.31.37-.55.17-.27h0l0,0,.42-.62.21-.31.18-.26.18-.28.22-.33.42-.62.07-.1h0l.15-.21.36-.54.08-.12.14-.19.42-.62.22-.34,1-1.48.24-.31,1-1.45a2.17,2.17,0,0,1,.24.29Z"/><polygon class="cls-7" points="21.67 55.31 21.46 55.64 20.46 57.11 20.24 57.43 19.24 58.92 19.03 59.25 18.01 60.73 17.81 61.05 16.8 62.54 16.58 62.85 15.58 64.34 15.36 64.66 14.75 65.55 14.73 65.6 14.36 66.14 14.14 66.46 13.14 67.95 12.93 68.26 8.64 74.61 8.34 74.41 12.71 67.95 12.93 67.62 13.93 66.14 14.14 65.81 15.14 64.33 15.36 64 15.7 63.51 16.36 62.54 16.58 62.21 17.59 60.72 17.79 60.4 18.79 58.92 19.03 58.6 20.02 57.11 20.24 56.79 21.24 55.31 21.46 54.98 21.67 55.31"/><polygon class="cls-7" points="22.89 57.11 22.67 57.43 21.67 58.92 21.46 59.23 20.46 60.72 20.24 61.04 19.23 62.52 19.03 62.84 18.01 64.33 17.79 64.66 16.8 66.14 16.58 66.45 15.58 67.93 15.36 68.26 14.36 69.74 14.14 70.07 13.93 70.38 10.63 75.26 10.32 75.07 13.71 70.05 14.14 69.41 15.14 67.95 15.36 67.62 16.36 66.13 16.58 65.81 17.58 64.33 17.79 64 18.81 62.52 19.01 62.21 20.01 60.72 20.24 60.39 21.24 58.9 21.46 58.6 22.45 57.11 22.67 56.78 22.89 57.11"/><polygon class="cls-7" points="25.34 57.11 25.11 57.44 24.12 58.92 23.89 59.25 22.89 60.72 22.67 61.04 21.67 62.52 21.46 62.85 20.46 64.33 20.23 64.64 19.24 66.13 19.01 66.46 18.01 67.95 17.79 68.25 16.8 69.74 16.58 70.07 15.78 71.23 15.58 71.54 15.36 71.86 12.61 75.92 12.32 75.73 15.14 71.56 15.36 71.22 15.45 71.09 16.36 69.75 16.58 69.41 17.58 67.93 17.79 67.62 18.79 66.14 19.03 65.81 20.02 64.33 20.23 64 21.24 62.52 21.46 62.21 22.45 60.72 22.67 60.4 23.67 58.92 23.9 58.58 24.88 57.11 25.12 56.79 25.34 57.11"/><polygon class="cls-7" points="27.77 57.11 27.55 57.43 26.55 58.92 26.32 59.23 26.32 59.25 25.34 60.72 25.12 61.04 24.11 62.52 23.9 62.84 22.89 64.33 22.67 64.66 21.67 66.14 21.46 66.45 20.46 67.93 20.24 68.26 19.23 69.75 19.03 70.07 18.01 71.56 17.79 71.87 17.59 72.17 16.8 73.34 16.58 73.67 14.61 76.59 14.3 76.38 16.36 73.34 16.58 73.03 17.26 72 17.58 71.56 17.79 71.22 18.79 69.74 19.01 69.41 20.01 67.93 20.24 67.62 21.24 66.13 21.46 65.81 22.45 64.33 22.67 64 23.67 62.52 23.89 62.21 24.89 60.72 25.12 60.39 26.11 58.92 26.32 58.58 27.34 57.11 27.55 56.78 27.77 57.11"/><polygon class="cls-7" points="31.36 55.4 31.2 55.62 30.2 57.11 29.98 57.43 28.99 58.9 28.76 59.23 27.77 60.72 27.54 61.03 26.55 62.52 26.32 62.84 25.32 64.33 25.12 64.64 24.11 66.13 23.89 66.45 22.89 67.93 22.67 68.25 21.67 69.74 21.46 70.05 21.46 70.07 20.44 71.56 20.24 71.86 19.46 73.01 19.23 73.34 19.01 73.68 18.01 75.14 17.79 75.47 16.59 77.25 16.3 77.04 17.58 75.16 17.81 74.83 18.79 73.36 19.02 73.03 19.12 72.86 20.02 71.56 20.24 71.23 21.24 69.75 21.46 69.42 22.45 67.93 22.67 67.62 23.67 66.14 23.9 65.81 24.9 64.33 25.12 64 26.12 62.52 26.34 62.21 27.34 60.73 27.55 60.4 28.55 58.91 28.76 58.6 29.76 57.11 29.98 56.8 31 55.31 31.07 55.19 31.36 55.4"/><polygon class="cls-7" points="32.65 57.11 32.43 57.43 31.43 58.92 31.2 59.25 30.21 60.72 29.98 61.04 28.99 62.52 28.76 62.85 27.77 64.33 27.55 64.66 26.55 66.14 26.34 66.45 25.34 67.93 25.12 68.26 24.11 69.75 23.9 70.05 23.9 70.07 22.89 71.56 22.67 71.87 21.67 73.36 21.46 73.67 21.45 73.7 21.43 73.7 20.46 75.16 20.24 75.47 19.24 76.95 19.03 77.28 18.59 77.91 18.29 77.72 18.79 76.95 19.03 76.63 20.01 75.16 20.24 74.83 21.06 73.59 21.24 73.34 21.46 73.03 22.45 71.56 22.67 71.22 23.67 69.74 23.89 69.41 24.89 67.93 25.12 67.62 25.12 67.6 26.12 66.13 26.32 65.81 27.34 64.33 27.55 64 28.55 62.52 28.76 62.21 29.76 60.72 29.98 60.39 30.98 58.92 31.2 58.6 32.21 57.11 32.42 56.79 32.65 57.11"/><polygon class="cls-7" points="33.87 58.92 33.65 59.23 32.63 60.72 32.42 61.05 31.42 62.52 31.2 62.84 30.2 64.33 29.98 64.66 28.99 66.13 28.77 66.45 27.77 67.93 27.55 68.25 26.55 69.74 26.32 70.07 25.32 71.56 25.12 71.86 24.11 73.34 23.89 73.67 23.53 74.2 22.89 75.16 22.67 75.47 21.67 76.95 21.46 77.28 20.57 78.58 20.28 78.37 21.24 76.96 21.46 76.64 22.45 75.16 22.67 74.84 23.14 74.16 23.15 74.16 23.67 73.36 23.9 73.03 24.9 71.56 25.12 71.23 25.12 71.22 26.12 69.75 26.34 69.41 27.34 67.93 27.55 67.62 28.55 66.14 28.77 65.81 29.76 64.34 29.98 64 31 62.52 31.22 62.21 32.21 60.73 32.43 60.4 33.43 58.92 33.65 58.6 33.87 58.92"/><path class="cls-7" d="M36.27,59l-1,1.42-.23.34-.22.32-1,1.49-.22.31-1,1.48-.22.33-1,1.49-.23.31-1,1.47-.23.33-1,1.49-.23.32-1,1.49-.22.31-1,1.49-.22.31-.59.86-.41.63-.22.31-1,1.49-.21.32-1,1.48-.22.34-.1.14-.3-.2.18-.28.22-.33,1-1.48.22-.31,1-1.48.23-.33.23-.35.77-1.14.2-.3h0l1-1.47.21-.34,1-1.48.21-.32,1-1.49.22-.31,1-1.47.22-.34,1-1.48.22-.33,1-1.46v0l.22-.31,1-1.5.21-.31.25-.37.79-1.18c.12,0,.24.08.37.12Z"/><path class="cls-7" d="M38.15,59.78l-1.77,2.61-.08.15-.22.3-1,1.49-.22.33-1,1.47-.22.32-1,1.48-.23.33-1,1.48-.23.33-1,1.49-.22.3h0l-1,1.47-.23.34-.46.67-.53.81-.22.31-1,1.48-.24.33-1,1.48-.2.33-.57.81-.3-.2.64-1,.21-.32,1-1.48.22-.31,1-1.49.2-.32.28-.4h0l.73-1.09.21-.31,1-1.49.22-.32,1-1.48.22-.32h0l1-1.48.22-.31,1-1.49.22-.34,1-1.45h0l.23-.33,1-1.48.22-.31.11-.18,1.64-2.42.32.17Z"/><path class="cls-7" d="M39.87,60.85l-2.36,3.49-.09.14-.11.18-1,1.48-.22.32-1,1.49-.22.31-1,1.49-.22.32-1,1.49-.22.31-1,1.49-.21.32,0,0h0l-1,1.45-.23.31L29,77l-.23.32-1,1.48-.22.34-1,1.47-.31-.21,1.09-1.6.21-.33,1-1.48.21-.31,1-1.48.22-.33.66-1h0l.35-.52.2-.3h0l1-1.47.22-.34,1-1.47.22-.34,1-1.48.21-.31,1-1.48.22-.33,1-1.48.15-.24.06-.09,2.29-3.37.29.22Z"/><path class="cls-7" d="M41.42,62.16l-2.69,4-.21.32-.15.22L37.51,68l-.22.31-1,1.48-.22.33-1,1.49-.22.31-.39.58-.6.89-.22.33-1,1.49-.22.31-1,1.48-.23.33-2.27,3.38h-.44L31,77l.22-.32,1-1.48.21-.32,1-1.49.22-.31.17-.28h0l.82-1.19.21-.34,1-1.48.22-.33,1-1.46.21-.33.92-1.35.08-.14.23-.32,2.64-3.91c.09.08.18.18.26.26Z"/><path class="cls-8" d="M47.68,80.44a5.4,5.4,0,0,0-.51.22H5.47L5,80.44C5,72,7.13,66.76,9.7,63.53a1.49,1.49,0,0,1,.23-.28A14.55,14.55,0,0,1,11.1,62a3.18,3.18,0,0,0,.26-.26,12,12,0,0,1,1.31-1,1.57,1.57,0,0,1,.3-.2,12.92,12.92,0,0,1,1.43-.88l.33-.16a14.19,14.19,0,0,1,1.49-.62l.09,0c.13,0,.24-.08.36-.1a.35.35,0,0,1,.11,0,6.88,6.88,0,0,1,.92-.2h.1a2.8,2.8,0,0,0,.28-.06,1.19,1.19,0,0,0,.26-.12h.07s-.38.63-.94,1.59a1.82,1.82,0,0,1-.2.35l-.89,1.67c-.07.12-.13.23-.19.36-.2.37-.4.74-.59,1.14-.08.19-.18.38-.27.58s-.12.25-.17.37c-.18.37-.36.74-.5,1.1v0c-.11.24-.21.45-.3.68s-.1.28-.16.42a13.18,13.18,0,0,0-.6,2.09c0,.2-.05.38-.07.55a2.26,2.26,0,0,0,.09.75.9.9,0,0,0,.49.52l.38.14.62.26.26.13.34.15c.45.25.94.51,1.48.77l.34.18.6.27.63.29.31.13c.11.06.23.1.34.15.51.2,1.05.41,1.62.58l.37.12h.06l.54.16,1.12.28h0l.39.05c.27.06.55.11.83.15a3.85,3.85,0,0,0,.49.07,4.18,4.18,0,0,0,.51.06l.41,0,.52,0h.07l.58,0,.39,0a4.18,4.18,0,0,0,.51-.06h0a3.85,3.85,0,0,0,.49-.07l.83-.15a2.44,2.44,0,0,0,.39-.07c.4-.07.76-.17,1.13-.27h0a4.64,4.64,0,0,0,.53-.16h.05l.35-.12c.58-.17,1.12-.38,1.64-.58l.34-.15.28-.11h0l.64-.31.59-.27.33-.18h0c.54-.26,1-.52,1.51-.76a2,2,0,0,1,.26-.12h0l0,0,.58-.28h0a6.62,6.62,0,0,1,.65-.25.85.85,0,0,0,.28-.18A.63.63,0,0,0,39,70a2.2,2.2,0,0,0,.05-1,3.46,3.46,0,0,0-.09-.53v0a11.48,11.48,0,0,0-.54-1.85c-.06-.14-.1-.27-.16-.42s-.21-.47-.31-.72v0c-.14-.35-.3-.7-.47-1.05,0-.13-.13-.26-.18-.39s-.19-.39-.28-.58c-.19-.4-.38-.77-.58-1.14-.06-.13-.12-.24-.19-.36-.31-.6-.62-1.17-.89-1.66a3.35,3.35,0,0,1-.21-.36c-.55-1-.93-1.59-.93-1.59a1,1,0,0,0,.21.09,1.27,1.27,0,0,0,.47.09,6.45,6.45,0,0,1,1,.23l.37.11a14.5,14.5,0,0,1,1.57.64l.32.18a14.43,14.43,0,0,1,1.45.86l.29.22a11.88,11.88,0,0,1,1.3,1.06l.27.26c.35.34.69.72,1,1.12a1.76,1.76,0,0,1,.24.3c2.61,3.2,4.85,8.44,4.85,17Z"/><path class="cls-9" d="M26.37,60.5a14.41,14.41,0,0,0,7.84-2A15.53,15.53,0,0,1,33,55.7a2.83,2.83,0,0,0-.75-1.45s-1.76,1.31-5.87,1.21c-4.09.1-5.85-1.21-5.85-1.21a2.83,2.83,0,0,0-.75,1.45,15,15,0,0,1-1.24,2.75,14.34,14.34,0,0,0,7.82,2h.05Z"/><path class="cls-10" d="M3.19,35.14c0,5,2.29,5.86,5,13.92C10.39,55.74,5.92,55,5.92,55s6.83,4.63,6.06-19.4c-.15-4.92,13-12.34,14.67-13.16s2.28-.56,3.75-2.43,2-10,2-10c-2.69-.55-12.45-.89-17.17,1.83S5.48,20.89,4,27.48Z"/><path class="cls-10" d="M7.11,39.27c0,5,2.29,5.86,5,13.92,2.23,6.68-2.23,5.92-2.23,5.92s6.82,4.63,6.06-19.4c-.16-4.91,13-12.34,14.66-13.15s2.28-.57,3.75-2.44,2-10,2-10c-2.68-.55-12.45-.88-17.17,1.83S9.4,25,7.94,31.61Z"/><path class="cls-10" d="M49.38,35.14c0,5-2.29,5.86-5,13.92C42.18,55.74,46.65,55,46.65,55s-6.83,4.63-6.06-19.4c.15-4.92-13-12.34-14.67-13.16s-2.28-.56-3.75-2.43-2-10-2-10c2.69-.55,12.46-.89,17.19,1.83s9.69,9.08,11.15,15.67Z"/><path class="cls-10" d="M45.46,39.27c0,5-2.29,5.86-5,13.92-2.23,6.68,2.24,5.92,2.24,5.92s-6.83,4.63-6.06-19.4c.15-4.91-13-12.34-14.66-13.15s-2.3-.57-3.76-2.44-1.95-10-1.95-10c2.68-.55,12.45-.88,17.17,1.83S43.17,25,44.63,31.61Z"/><path class="cls-11" d="M26.22,2.15C4.68,2.11,4.55,19.36,5.51,30.61,4,28-.33,29,0,33.18c.35,4,6.52,5.89,6.43,5.44,1.77,9.17,11.92,14.26,19.77,15h.17V2.15Z"/><path class="cls-6" d="M1.1,31.39a2.14,2.14,0,0,1,3.16-.56,1.64,1.64,0,0,1,.51,1.87c-.15.54-.76.58-.61,1.41A1.48,1.48,0,0,0,5,35.31c.26.21.59.37.75.76a2.11,2.11,0,0,1,.1,1.18c-.17.66-1.2.13-1.89-.16a13.18,13.18,0,0,1-2.27-1.74,3.6,3.6,0,0,1-.62-4Z"/><path class="cls-12" d="M26.33,2.15C47.88,2.11,48,19.36,47,30.61c1.48-2.64,5.85-1.65,5.5,2.57-.35,4-6.52,5.89-6.44,5.44-1.76,9.17-11.91,14.26-19.77,15h-.17V2.15Z"/><path class="cls-6" d="M51.61,31.39a2.14,2.14,0,0,0-3.16-.56,1.66,1.66,0,0,0-.52,1.87c.16.54.76.58.62,1.41a1.48,1.48,0,0,1-.88,1.2,2.08,2.08,0,0,0-.74.76,2,2,0,0,0-.09,1.18c.17.66,1.19.13,1.88-.16A12.75,12.75,0,0,0,51,35.35a3.56,3.56,0,0,0,.63-4Z"/><path class="cls-3" d="M26.11,7c-7.19,0-12.46,2-15.65,5.88C6,18.36,6.18,26.69,7.82,32.67c.5,1.82.76,6.74,1.1,8.56,1.56,8.08,11,12.38,17.19,12.38h.17V7Z"/><path class="cls-4" d="M41.73,12.92C38.57,9.05,33.36,7.07,26.28,7V53.6c7.09-.07,15.56-4.78,17-12.37.35-1.81.61-6.74,1.11-8.56,1.63-6,1.8-14.28-2.67-19.75Z"/><path class="cls-13" d="M29.9,46.3A5.71,5.71,0,0,1,26.27,48a5.41,5.41,0,0,1-3.54-1.7,23.45,23.45,0,0,1,3.54-.26,30.08,30.08,0,0,1,3.63.22Z"/><path class="cls-14" d="M27.3,45.51a.93.93,0,0,0-1,.78.93.93,0,0,0-1-.78,14.31,14.31,0,0,0-2.61.8s2,.21,2.55.21,1.07.22,1.08-.2c0,.42.42.25,1,.25s2.65-.26,2.65-.26a14.42,14.42,0,0,0-2.6-.8Z"/><path class="cls-15" d="M33.83,48a.49.49,0,0,1-.49.5.5.5,0,0,1-.53-.5.51.51,0,0,1,.53-.52.5.5,0,0,1,.49.52Z"/><path class="cls-10" d="M49,24.08h0a60.3,60.3,0,0,0-1.47-6.51c2.8,2.22,7,10.82,7,10.82C53.34,20.77,46.17,12,46.17,12v0c-2.86-8.67-15.53-10-15.53-10a11.25,11.25,0,0,0-6.46-2c-3.51,0-9.24.92-14,7.87C-9,35.51,12.49,51.08,12.49,51.08l4.57,3.07s-3.35-7.6-3.41-12A32.24,32.24,0,0,1,28,14.52c.8,4.19,2.53,10.5,6,13,0,0-5.67-9.93-3-13.33.11,2.13.67,6,3.18,7.91,3.59,2.8,5.68,5.53,6.47,8.89a20.83,20.83,0,0,1,.59,9.92,91.7,91.7,0,0,1-3.41,12.74l3.94-3.17s3.93-3.81,6.24-14.62c.69,4.68,1.13,8.79,1.13,8.79.91-5.7.33-14.44,0-18.45A21.16,21.16,0,0,0,49,24.08Z"/></g></g></svg>