<svg xmlns="http://www.w3.org/2000/svg" viewBox="0 0 50.23 80.42"><defs><style>.cls-1{fill:#dcc5a1;}.cls-2{fill:#edd9b4;}.cls-3,.cls-7{fill:#bc9f82;}.cls-3{opacity:0.7;}.cls-4{fill:#272b41;}.cls-5{fill:#202331;}.cls-6{fill:#ccad8b;}.cls-8{fill:#d9bf9f;}.cls-9{fill:#fff;}</style></defs><title>Ativo 62avatar</title><g id="Camada_2" data-name="Camada 2"><g id="Objects"><path class="cls-1" d="M25.35,45.25V80.42H6.17l-.47-.21C5.7,61.36,17.44,60,17.44,60c1.17,0,1.92-1.5,2.42-3.78.08-.35.15-.71.2-1.1q.17-1,.27-2c.05-.43.08-.86.12-1.3.15-1.75.2-3.65.22-5.48,0-.42,0-.84,0-1.25C20.68,45,23.26,45.25,25.35,45.25Z"/><path class="cls-2" d="M45.07,80.21s-.18.07-.46.21H25.35V45.25h0c2.08,0,4.68-.25,4.68-.25,0,.49,0,1,0,1.45,0,1.75.08,3.55.22,5.23L30.42,53c.08.74.16,1.44.27,2.09v0c0,.29.09.56.15.83.49,2.42,1.27,4.06,2.48,4.06C33.32,60,45.07,61.36,45.07,80.21Z"/><path class="cls-3" d="M30.69,55v0a6.19,6.19,0,0,1-5.31,2.88h0a6.67,6.67,0,0,1-5.28-2.87c.1-.64.19-1.32.26-2,.05-.43.09-.85.12-1.3a20.61,20.61,0,0,0,4.85.63h.05a19.92,19.92,0,0,0,4.95-.68c0,.43.09.86.12,1.27C30.5,53.69,30.58,54.39,30.69,55Z"/><path class="cls-4" d="M45.07,80.21s-.18.07-.46.21H6.17l-.47-.21C5.7,61.8,16.89,60,17.43,60h0c.89,0,1.53-.86,2-2.25a2.11,2.11,0,0,0,.84.72c.69.38,2,.74,5.11.74s5.19-.67,5.76-1.2a.83.83,0,0,0,.17-.26c.46,1.34,1.08,2.18,1.9,2.25h.1S45.07,61.36,45.07,80.21Z"/><path class="cls-5" d="M33.46,61.93c-2.58,1.82-4.28,2.24-8.14,2.24s-5.18-.54-7.14-1.52c-1.38-.68-2.37-1.21-1.36-2.1a7,7,0,0,0,.61-.6h0a11.2,11.2,0,0,0,.78-1.19c.52-.77-.94-1.21,0-1.8a2.41,2.41,0,0,1,1.6-.47c-.34,1.21.17,1.75.5,1.93.69.38,2,.74,5.11.74a10.46,10.46,0,0,0,5.3-1c.57-.31.42-.94.41-1.21a1.61,1.61,0,0,1-.09-.25s1.72.11,1.58,1A3.32,3.32,0,0,0,33.22,60l.23.31C34.07,61.05,35,60.86,33.46,61.93Z"/><path class="cls-6" d="M25.41,4.94C5.09,4.94,5,21.88,5.88,33,4.48,30.35.36,31.16.7,35.3s6.15,6.05,6.07,5.59C8.44,50,18,55.29,25.41,55.29h.15V4.94Z"/><path class="cls-7" d="M2,33.55A1.93,1.93,0,0,1,4.93,33a1.66,1.66,0,0,1,.47,1.84c-.14.53-.7.57-.56,1.38a1.42,1.42,0,0,0,.81,1.17,1.94,1.94,0,0,1,.69.75,2,2,0,0,1,.09,1.14c-.16.66-1.11.14-1.75-.15a12.39,12.39,0,0,1-2.11-1.7A3.65,3.65,0,0,1,2,33.55Z"/><path class="cls-8" d="M25.51,4.94C45.82,4.94,45.94,21.88,45,33c1.39-2.63,5.52-1.82,5.17,2.32s-6.15,6.05-6.07,5.59C42.48,50,32.92,55.29,25.51,55.29h-.16V4.94Z"/><path class="cls-7" d="M48.92,33.55A1.93,1.93,0,0,0,46,33a1.68,1.68,0,0,0-.47,1.84c.14.53.7.57.57,1.38a1.43,1.43,0,0,1-.82,1.17c-.23.21-.54.37-.69.75a2,2,0,0,0-.09,1.14c.16.66,1.12.14,1.76-.15a12.32,12.32,0,0,0,2.1-1.7A3.65,3.65,0,0,0,48.92,33.55Z"/><path class="cls-1" d="M25.23,9.71c-6.69,0-11.58,1.94-14.54,5.75C6.55,20.8,6.71,29,8.24,34.79c.46,1.79.7,6.61,1,8.38,1.44,7.91,10.19,12.12,16,12.12h.15V9.72Z"/><path class="cls-2" d="M39.74,15.47C36.8,11.68,32,9.75,25.38,9.72V55.28C32,55.21,39.84,50.6,41.19,43.17c.33-1.77.56-6.59,1-8.38C43.74,29,43.89,20.83,39.74,15.47Z"/><path class="cls-9" d="M34,47.17a5.82,5.82,0,0,0-.92-2.9l-.53-.4c-.36-.25-.88-.6-1.54-1a15.55,15.55,0,0,0-2.81-1.46,5.56,5.56,0,0,0-1-.27A16.39,16.39,0,0,0,25.13,41h0a16.09,16.09,0,0,0-2.06.13,5.45,5.45,0,0,0-1,.27,15.77,15.77,0,0,0-2.8,1.46c-.67.39-1.19.74-1.54,1l-.54.4a5.92,5.92,0,0,0-.91,2.9c0,.15,0,.29,0,.44a6.15,6.15,0,0,0,.76,3,2.23,2.23,0,0,0,.71.93,3,3,0,0,0,1.06.66,15.81,15.81,0,0,0,6.38,1.23h0a15.81,15.81,0,0,0,6.38-1.23,3,3,0,0,0,1.07-.66,2.41,2.41,0,0,0,.71-.93,6.15,6.15,0,0,0,.75-3C34,47.46,34,47.32,34,47.17Zm-2.61,3a11,11,0,0,1-1.89.64,1.27,1.27,0,0,0,0-.34,1.29,1.29,0,0,0-1.29-1.29H22a1.3,1.3,0,0,0-1.3,1.29,1.28,1.28,0,0,0,.06.34,11.41,11.41,0,0,1-1.9-.64,6.46,6.46,0,0,1-.52-2.56,6.06,6.06,0,0,1,0-.75,9.32,9.32,0,0,1,5.5-2.47c.41,0,.84-.08,1.27-.09s.86,0,1.28.09a9.32,9.32,0,0,1,5.5,2.47c0,.24,0,.49,0,.75A6.29,6.29,0,0,1,31.4,50.17Z"/><path class="cls-9" d="M43.44,8.1A11.78,11.78,0,0,0,39,5.62S33.51,2.89,29.33.94s-11-.39-14.51.52-7.72,5.91-9,8.64-4.56,8.68-5.6,13,2.47,8.47,4.66,9.36c1.42.58,1.51,3.92,1.51,3.92L7.92,37a19.88,19.88,0,0,1,2.22-9.42c16.85,7,22-10.39,22.19-11.2l.06-.06A15.47,15.47,0,0,1,38,19.13C40.45,21,43.49,23.49,43.49,29c0,1.83-.83,7.16-.83,7.16l.83-.58a4.15,4.15,0,0,1,2.34-3.36c1.87-1,2.35-4.54,2.35-6C48.18,16.49,45.41,9.92,43.44,8.1Z"/></g></g></svg>