<svg xmlns="http://www.w3.org/2000/svg" viewBox="0 0 48.15 78.9"><defs><style>.cls-1{fill:#dcc5a1;}.cls-2{fill:#edd9b4;}.cls-3,.cls-6{fill:#bc9f82;}.cls-3{opacity:0.7;}.cls-4{fill:#fff;}.cls-5{fill:#ccad8b;}.cls-7{fill:#d9bf9f;}.cls-8{fill:#b47070;}.cls-9{fill:#c17874;}.cls-10{fill:#010400;}</style></defs><title>Ativo 32avatar</title><g id="Camada_2" data-name="Camada 2"><g id="Objects"><path class="cls-1" d="M24,44.23V78.9H5.12l-.45-.19a38.47,38.47,0,0,1,.2-4,27.89,27.89,0,0,1,.46-3c.12-.6.26-1.16.41-1.7a20.08,20.08,0,0,1,1.9-4.64.28.28,0,0,1,.06-.09,14.45,14.45,0,0,1,2.4-3.13h0a12.59,12.59,0,0,1,1.81-1.51,12.38,12.38,0,0,1,2.92-1.51h0a7.43,7.43,0,0,1,1.39-.34h.09a2.27,2.27,0,0,0,.25-.06,2.35,2.35,0,0,0,1.33-1.41,8,8,0,0,0,.51-1.42c.07-.26.14-.55.21-.84s.14-.7.19-1.09a4.54,4.54,0,0,0,.08-.55l.69.26V51.1h-.42c0-.16,0-.33,0-.49.13-1.69.2-3.49.21-5.26,0-.46,0-.92,0-1.37C19.43,44,22,44.23,24,44.23Z"/><path class="cls-2" d="M43.48,78.71l-.13,0c-.08,0-.18.08-.32.15H24V44.23h0c2.05,0,4.61-.25,4.61-.25,0,2.18.07,4.46.23,6.58,0,.19,0,.37,0,.54s0,.48.07.72,0,.35.06.52c.07.53.14,1,.22,1.54h0a6.7,6.7,0,0,0,.13.82c.08.4.17.76.26,1.12a4.49,4.49,0,0,0,1.57,2.73l.2.08a1.22,1.22,0,0,0,.43.08,8.49,8.49,0,0,1,1.94.55,11.73,11.73,0,0,1,2.38,1.3,12.93,12.93,0,0,1,2.37,2.08,15.93,15.93,0,0,1,1.88,2.58A20,20,0,0,1,42.42,70a27.06,27.06,0,0,1,.85,4.74,5.47,5.47,0,0,1,.08.72C43.44,76.44,43.48,77.54,43.48,78.71Z"/><path class="cls-3" d="M29.31,53.88h0a6.13,6.13,0,0,1-5.24,2.85h0a6.6,6.6,0,0,1-5.21-2.84c.11-.63.19-1.3.26-2,0-.43.08-.85.12-1.29a20.53,20.53,0,0,0,4.78.63H24a19.82,19.82,0,0,0,4.88-.68L29,51.82C29.12,52.54,29.2,53.23,29.31,53.88Z"/><path class="cls-4" d="M36.23,60.57a11.73,11.73,0,0,0-2.38-1.3C22.07,79.93,10.1,62.09,10.1,62.09a18.12,18.12,0,0,0-4.77,9.56V78.9H38.6V62.65A12.93,12.93,0,0,0,36.23,60.57Z"/><path class="cls-5" d="M24,7c-19.75,0-19.86,15.77-19,26.08C3.69,30.63-.31,31.53,0,35.4c.31,3.71,6,5.39,5.89,5C7.53,48.78,16.84,53.45,24,54.11h.15V7Z"/><path class="cls-6" d="M1,33.76a2,2,0,0,1,2.89-.52A1.51,1.51,0,0,1,4.37,35c-.14.5-.69.54-.56,1.3a1.34,1.34,0,0,0,.8,1.09,1.91,1.91,0,0,1,.68.7,1.81,1.81,0,0,1,.09,1.07c-.15.62-1.1.13-1.73-.14a12,12,0,0,1-2.07-1.6A3.27,3.27,0,0,1,1,33.76Z"/><path class="cls-7" d="M24.13,7c19.74,0,19.85,15.77,19,26.08,1.36-2.42,5.36-1.52,5,2.35-.31,3.71-6,5.39-5.89,5-1.62,8.4-10.92,13.07-18.11,13.73H24V7Z"/><path class="cls-6" d="M47.28,33.76a2,2,0,0,0-2.89-.52A1.52,1.52,0,0,0,43.92,35c.14.5.69.54.56,1.3a1.34,1.34,0,0,1-.8,1.09,1.91,1.91,0,0,0-.68.7,1.81,1.81,0,0,0-.09,1.07c.15.62,1.1.13,1.73-.14a11.59,11.59,0,0,0,2.07-1.6A3.25,3.25,0,0,0,47.28,33.76Z"/><path class="cls-1" d="M23.92,11.44c-6.59,0-11.42,1.81-14.34,5.39-4.08,5-3.92,12.62-2.41,18.1.45,1.67.69,6.18,1,7.84C9.6,50.18,18.23,54.12,23.92,54.12h.15V11.45Z"/><path class="cls-2" d="M38.23,16.83c-2.9-3.55-7.67-5.36-14.16-5.38V54.12c6.5-.07,14.26-4.39,15.59-11.35.32-1.66.56-6.17,1-7.84C42.18,29.47,42.33,21.85,38.23,16.83Z"/><path class="cls-8" d="M27.4,47.43A5.3,5.3,0,0,1,24.07,49a5,5,0,0,1-3.24-1.55,21.28,21.28,0,0,1,3.24-.24A26.82,26.82,0,0,1,27.4,47.43Z"/><path class="cls-9" d="M25,46.69a.86.86,0,0,0-.94.72.87.87,0,0,0-.95-.72,13.41,13.41,0,0,0-2.38.74s1.82.19,2.34.19,1,.2,1-.18c0,.38.38.23.9.23s2.43-.24,2.43-.24A13.3,13.3,0,0,0,25,46.69Z"/><path class="cls-10" d="M43.7,18.51a27.11,27.11,0,0,0-1.75-7C40,7.25,36.09,5.44,29.86,2.86c-5.55-2.31-7.57-1.13-13.32.25A4.34,4.34,0,0,0,16,2C14.25-.55,10-.67,6.56,1.72S1.68,8.07,3.42,10.59A4.17,4.17,0,0,0,4.91,11.9a22.41,22.41,0,0,0-1.8,5.83c0,.27-.07.52-.11.78-.76,5.66,0,8,.59,9.25a9.37,9.37,0,0,1,.66,1.34,12.33,12.33,0,0,0,.8,3.19c.43.39,1.54.92,1.88,1.85.61,1.59.84,1.32.84,1.32s-.86-5.63-.94-7.7a1.78,1.78,0,0,1,0-.31c0-1,.46-6,3.75-8.94.16-.14.32-.28.5-.41,2.77-2.1,7.5-1.21,8-1.21.1,0,1.17.84,2.72,1.62a11,11,0,0,0,5.33,1.41c11.81-.61,14.3,5.82,14.56,7.16,0,.22,0,.45-.05.68-.14,1.66-.32,3.6-.45,4.89-.21,1.55-.4,2.81-.4,2.81s.24.27.84-1.32c.29-.79,1.28-1.28,1.66-1.65a29.37,29.37,0,0,1,.43-3.39A5.65,5.65,0,0,0,44,27.76a27.34,27.34,0,0,0,.23-3.05A52.54,52.54,0,0,0,43.7,18.51Z"/></g></g></svg>