<svg xmlns="http://www.w3.org/2000/svg" viewBox="0 0 46.4 70.03"><defs><style>.cls-1{fill:#211915;}.cls-2{fill:#dcc5a1;}.cls-3{fill:#edd9b4;}.cls-4,.cls-7{fill:#bc9f82;}.cls-4{opacity:0.7;}.cls-5{fill:#856da5;}.cls-6{fill:#ccad8b;}.cls-8{fill:#d9bf9f;}.cls-9{fill:#b47070;}.cls-10{fill:#c17874;}</style></defs><title>Ativo 70avatar</title><g id="Camada_2" data-name="Camada 2"><g id="Objects"><path class="cls-1" d="M41,46c0,5.77-7.86,10.46-17.55,10.46S5.84,51.8,5.84,46,13.7,35.57,23.4,35.57,41,40.25,41,46Z"/><path class="cls-2" d="M23.17,36.63V70H5l-.45-.19a31.66,31.66,0,0,1,.83-7.63C7.9,51.51,15.66,50.59,15.66,50.59h.09l.24-.06c.92-.25,1.55-1.6,2-3.54.07-.33.14-.67.19-1,.1-.61.19-1.26.25-1.94,0-.41.08-.81.12-1.23.16-2.06.22-4.28.22-6.4C18.74,36.38,21.19,36.63,23.17,36.63Z"/><path class="cls-3" d="M41.91,69.84l-.43.19H23.17V36.63h0c2,0,4.45-.25,4.45-.25,0,2.11.05,4.31.22,6.35,0,.4.07.81.11,1.2.08.71.15,1.37.25,2h0c0,.29.1.54.15.8.38,1.87.94,3.24,1.76,3.7a.77.77,0,0,0,.19.08,1.15,1.15,0,0,0,.41.08,3,3,0,0,1,.36.06A12.38,12.38,0,0,1,39,56.79C40.64,59.64,41.91,63.81,41.91,69.84Z"/><path class="cls-4" d="M28.24,45.93h0a5.9,5.9,0,0,1-5,2.73h0a6.39,6.39,0,0,1-5-2.72c.1-.61.19-1.26.26-1.93,0-.41.08-.82.11-1.24a20.79,20.79,0,0,0,4.6.6h.06a19.46,19.46,0,0,0,4.7-.65c0,.4.07.81.11,1.21C28.06,44.64,28.14,45.3,28.24,45.93Z"/><path class="cls-5" d="M43.39,61.42S38.1,51,30.73,50.59c-.19,0,5.48,8.26-2.08,10.18a18.78,18.78,0,0,1-5.44.57h0a18.78,18.78,0,0,1-5.44-.57c-7.56-1.92-1.88-10.2-2.07-10.18C8.28,51,3,61.42,3,61.42l2.34.79,3.3,1.11A21.56,21.56,0,0,0,7.41,70H39a21.56,21.56,0,0,0-1.22-6.71l3.3-1.11Z"/><path class="cls-6" d="M23.15.73C4.13.69,4,15.92,4.87,25.86,3.56,23.52-.3,24.39,0,28.12c.3,3.57,5.75,5.19,5.68,4.8C7.26,41,16.22,45.51,23.15,46.15h.15V.73Z"/><path class="cls-7" d="M1,26.54A1.89,1.89,0,0,1,3.76,26a1.46,1.46,0,0,1,.46,1.66c-.14.48-.67.52-.54,1.25A1.32,1.32,0,0,0,4.45,30c.22.18.51.32.65.67a1.76,1.76,0,0,1,.09,1c-.15.59-1.06.12-1.67-.14a11.49,11.49,0,0,1-2-1.54A3.16,3.16,0,0,1,1,26.54Z"/><path class="cls-8" d="M23.25.73c19,0,19.13,15.19,18.28,25.13,1.31-2.34,5.17-1.47,4.85,2.26-.31,3.57-5.75,5.19-5.68,4.8C39.14,41,30.18,45.51,23.25,46.15H23.1V.73Z"/><path class="cls-7" d="M45.56,26.54a1.89,1.89,0,0,0-2.79-.5,1.46,1.46,0,0,0-.45,1.66c.13.48.67.52.54,1.25A1.34,1.34,0,0,1,42.08,30c-.22.18-.51.32-.65.67a1.68,1.68,0,0,0-.08,1c.15.59,1.06.12,1.66-.14A11.13,11.13,0,0,0,45,30,3.14,3.14,0,0,0,45.56,26.54Z"/><path class="cls-2" d="M23.05,5c-6.35,0-11,1.74-13.82,5.19C5.31,15,5.46,22.39,6.91,27.67c.44,1.61.67,5.95,1,7.55,1.37,7.14,9.69,10.94,15.17,10.94h.15V5Z"/><path class="cls-3" d="M36.84,10.24C34.05,6.81,29.45,5.07,23.2,5V46.15c6.26-.06,13.74-4.22,15-10.93.31-1.6.53-5.94,1-7.55C40.64,22.4,40.78,15.06,36.84,10.24Z"/><path class="cls-9" d="M26.4,39.71a5.08,5.08,0,0,1-3.21,1.53,4.77,4.77,0,0,1-3.12-1.5,20.62,20.62,0,0,1,3.12-.23A26,26,0,0,1,26.4,39.71Z"/><path class="cls-10" d="M24.1,39a.83.83,0,0,0-.91.7.83.83,0,0,0-.9-.7,12.57,12.57,0,0,0-2.3.71s1.75.18,2.25.18.94.2,1-.17c0,.37.37.23.87.23s2.34-.24,2.34-.24A12.83,12.83,0,0,0,24.1,39Z"/><path class="cls-1" d="M39.9,36c-.08,1.37-.15,1.52.52,2.6s1.44,1.49.7,2.71-2,1.38-1.89,2.46,1.41,1.59,1.19,3-2.33,2.69-2.73,2.93c.32-.23,1.69-1.29,1.5-2.63-.23-1.52-.4-1.59-2-2.45s-1.88-1.25-1.42-2.47,1.93-1.35.8-2.65-1.76-2.19-1.46-3-.2-1.39,1.12-2.92c.82-.93.7-3,.7-4s1.33-5.49-.82-7.49a27.77,27.77,0,0,1-1.84-2.12c-.65-.77-1.39-1.64-2.14-2.41a11.57,11.57,0,0,1-2-3c-.48-1-.8-1.84-.87-2,0,.22.16,1.19.26,2,0,.28.07.53.07.72a4.44,4.44,0,0,0,1.7,3.2,14.65,14.65,0,0,1-3.66-2.81,6.27,6.27,0,0,1-.82-1.4,5.11,5.11,0,0,1-.11-3.85,18.8,18.8,0,0,1-2.66,3.29c-.09.09-.2.18-.31.27a35.24,35.24,0,0,1-4.2,2.81,10.69,10.69,0,0,0,2.3-3,3.77,3.77,0,0,0,.28-.57c.29-.65,1.41-4,1.41-4a50.49,50.49,0,0,1-2.86,4.54,16.74,16.74,0,0,1-3.06,3.28c-.43.34-1,.8-1.66,1.34-2.34,1.92-5.59,4.81-5.88,6.4-.37,2,.67,6.44,1.34,8.24s.74,2.39,0,3.11-2.6,2-2.3,2.68,1.41,1.73,1.19,2.6-2.67,2.95-3,4.12c-.54,2.07,2.68,3.83,3.06,4-.39-.13-4.74-1.76-4.24-4,.32-1.42.07-1.65-.75-2.74s-2-2.9-.89-4,2.67-2.32,2.3-3.55S2.46,25.61,2.46,22.6A25.61,25.61,0,0,1,3,18.12,33.71,33.71,0,0,1,4.4,13c1.26-3.45,3.2-6.89,6.15-8.75,6.31-4,10.76-4.59,13-4.09S28-.19,28.63,0s6.3,2.57,8.45,5c1.66,1.85,5.78,6.35,7.57,11.57a14.45,14.45,0,0,1,.86,4.77c0,.17,0,.35,0,.53C45.23,28.72,40,34.66,39.9,36Z"/></g></g></svg>