<svg xmlns="http://www.w3.org/2000/svg" viewBox="0 0 46.68 80.86"><defs><style>.cls-1{fill:#dcc5a1;}.cls-2{fill:#edd9b4;}.cls-3,.cls-9{fill:#bc9f82;}.cls-3{opacity:0.7;}.cls-4{fill:#d8cc95;}.cls-5{fill:#536d40;}.cls-6{fill:#4b6439;}.cls-7{fill:#3b4e29;}.cls-8{fill:#ccad8b;}.cls-10{fill:#d9bf9f;}.cls-11{fill:#3c1c2b;}.cls-12{fill:#b47070;}.cls-13{fill:#c17874;}</style></defs><title>Ativo 52avatar</title><g id="Camada_2" data-name="Camada 2"><g id="Objects"><path class="cls-1" d="M23.25,47.74V80.86H5.18a2.92,2.92,0,0,0-.46-.2c0-.34,0-.67,0-1C5,66.74,11.4,63,14.34,62a7.85,7.85,0,0,1,1.46-.38,1.42,1.42,0,0,0,.36,0,1.68,1.68,0,0,0,.84-.68s0,0,0,0A8,8,0,0,0,18.07,58c.08-.32.14-.67.2-1,.1-.62.18-1.25.25-1.92,0-.4.08-.81.12-1.23.16-2,.21-4.24.21-6.34C18.85,47.49,21.28,47.74,23.25,47.74Z"/><path class="cls-2" d="M41.82,80.66a2.59,2.59,0,0,0-.43.2H23.25V47.74h0c2,0,4.42-.25,4.42-.25,0,2.09,0,4.27.21,6.29,0,.41.07.81.11,1.2.08.7.14,1.35.25,2v0c.05.27.09.53.14.78a10.87,10.87,0,0,0,.59,2,2.84,2.84,0,0,0,1.25,1.66,1,1,0,0,0,.51.12S41.82,62.89,41.82,80.66Z"/><path class="cls-3" d="M28.27,57h0a5.83,5.83,0,0,1-5,2.71h0a6.28,6.28,0,0,1-5-2.7c.1-.61.19-1.25.26-1.92,0-.4.07-.8.11-1.22a19.8,19.8,0,0,0,4.56.59h0a18.6,18.6,0,0,0,4.66-.64L28,55C28.1,55.67,28.17,56.33,28.27,57Z"/><path class="cls-4" d="M29.77,80.86H41.43a2.92,2.92,0,0,1,.46-.2c0-.34,0-.67,0-1,0-2.81.86-4.32-.19-7.13-1.16-3.13-.3-3-2.25-6.37C38,63.84,34.63,62.57,32.27,62a24.31,24.31,0,0,0-2.46-.5S29.39,72.91,29.77,80.86Z"/><path class="cls-4" d="M16.83,80.86H5.18a2.92,2.92,0,0,0-.46-.2c0-.34,0-.67,0-1,0-2.81-.86-4.32.19-7.13,1.17-3.13.3-3,2.25-6.37C8.57,63.84,12,62.57,14.34,62a24.31,24.31,0,0,1,2.46-.5S17.22,72.91,16.83,80.86Z"/><path class="cls-5" d="M19.51,59.19l-2.05,1c-.29.22-3.86,1.85-4.14,2.1-1.39,1.18-.16,3.49-1.15,4.79-4.23,5.5-6,8.52-5.62,13.82H23.08v-18Z"/><path class="cls-6" d="M26.58,59.19l2.06,1c.28.22,3.85,1.69,4.12,2,1.39,1.17.17,3.64,1.17,4.94,4.23,5.5,6,8.52,5.62,13.82H23v-18Z"/><path class="cls-7" d="M29,58.91c-.58-2.58-.85-2.37-.85-2.37s-.08-.11.07.65S24.7,58.82,23.53,59h0l-.16,0h-.18c-1.21-.13-5.16-1.08-5-1.76s.06-.65.06-.65-.25-.21-.79,2.37a7.17,7.17,0,0,1-.52,1.66,13.81,13.81,0,0,0,2.57,1.24c2.68.89,3.56,4.73,3.56,4.73l0-.09v.09s.94-3.84,3.78-4.73a15,15,0,0,0,2.73-1.24A7,7,0,0,1,29,58.91Z"/><path class="cls-8" d="M23.29,9.75c-19.14,0-19.24,16-18.39,26.41C3.58,33.68-.29,34.45,0,38.35s5.8,5.71,5.72,5.26c1.56,8.6,10.57,13.57,17.55,13.57h.15V9.75Z"/><path class="cls-9" d="M1.24,36.7A1.82,1.82,0,0,1,4,36.17a1.6,1.6,0,0,1,.45,1.74c-.14.5-.67.54-.54,1.3a1.33,1.33,0,0,0,.77,1.1c.22.2.5.34.64.71a1.81,1.81,0,0,1,.09,1.07c-.15.62-1,.13-1.66-.14a11.78,11.78,0,0,1-2-1.61A3.43,3.43,0,0,1,1.24,36.7Z"/><path class="cls-10" d="M23.39,9.75c19.14,0,19.25,16,18.4,26.41,1.31-2.48,5.19-1.71,4.87,2.19S40.87,44.06,41,43.61c-1.57,8.6-10.58,13.57-17.56,13.57h-.15V9.75Z"/><path class="cls-9" d="M45.44,36.7a1.82,1.82,0,0,0-2.77-.53,1.61,1.61,0,0,0-.45,1.74c.14.5.67.54.54,1.3a1.34,1.34,0,0,1-.76,1.1c-.23.2-.51.34-.65.71a2,2,0,0,0-.09,1.07c.15.62,1.05.13,1.65-.14a11.09,11.09,0,0,0,2-1.61A3.41,3.41,0,0,0,45.44,36.7Z"/><path class="cls-1" d="M23.13,14.25c-6.3,0-10.91,1.82-13.7,5.42-3.89,5-3.75,12.7-2.31,18.2.44,1.69.66,6.23,1,7.89,1.36,7.45,9.61,11.42,15,11.42h.15V14.25Z"/><path class="cls-2" d="M36.8,19.68c-2.77-3.58-7.33-5.4-13.52-5.43V57.17c6.2-.06,13.61-4.41,14.88-11.41.3-1.66.53-6.2,1-7.89C40.56,32.38,40.7,24.72,36.8,19.68Z"/><path class="cls-11" d="M42.73,23.13A26.12,26.12,0,0,0,41,16.27c-1.39-3-3.87-4.82-7.53-6.54,0-.06,0-.13,0-.2a8.77,8.77,0,0,0-.31-2.24h3.56a1,1,0,1,0,0-.29H33.08A10.37,10.37,0,0,0,23,0,10.36,10.36,0,0,0,12.89,7H4a1,1,0,1,0,0,.29h8.82a8.28,8.28,0,0,0-.26,1.42c-7.1,1.89-9.82,10-10.39,13.64,0,.27-.07.52-.11.78-.76,5.54,0,7.82.59,9.06A7.54,7.54,0,0,1,3.3,33.5a14.42,14.42,0,0,0,1.36,3.14A4.24,4.24,0,0,1,6,38.44c.6,1.56.83,1.3.83,1.3S6,34.22,5.88,32.19a1.62,1.62,0,0,1,0-.3c0-1,.46-5.93,3.75-8.76a5,5,0,0,1,.5-.41c2.77-2.06,7.5-1.19,8-1.19.1,0,1.18.82,2.72,1.6a11.18,11.18,0,0,0,5.32,1.37c11.81-.59,14.29,5.71,14.56,7,0,.22,0,.44,0,.67-.14,1.63-.32,3.52-.44,4.8-.22,1.51-.41,2.75-.41,2.75s.24.26.84-1.3a4.28,4.28,0,0,1,1.1-1.62,17,17,0,0,1,1-3.32A5.31,5.31,0,0,0,43,32.19a26,26,0,0,0,.22-3A49.39,49.39,0,0,0,42.73,23.13Z"/><path class="cls-12" d="M28.05,48.15a7.48,7.48,0,0,1-4.74,2.27,7.07,7.07,0,0,1-4.63-2.22,30.65,30.65,0,0,1,4.63-.34A39,39,0,0,1,28.05,48.15Z"/><path class="cls-13" d="M24.65,47.11a1.22,1.22,0,0,0-1.34,1,1.24,1.24,0,0,0-1.35-1,19.08,19.08,0,0,0-3.4,1s2.59.28,3.34.28,1.39.29,1.41-.26c0,.55.54.34,1.28.34s3.46-.36,3.46-.36A18.81,18.81,0,0,0,24.65,47.11Z"/></g></g></svg>