<svg xmlns="http://www.w3.org/2000/svg" viewBox="0 0 48.44 80.97"><defs><style>.cls-1{fill:#dcc5a1;}.cls-2{fill:#edd9b4;}.cls-3,.cls-7{fill:#bc9f82;}.cls-3{opacity:0.7;}.cls-4{fill:#304f3c;}.cls-5{fill:#223727;}.cls-6{fill:#ccad8b;}.cls-8{fill:#d9bf9f;}.cls-9{fill:#010300;}</style></defs><title>Ativo 20avatar</title><g id="Camada_2" data-name="Camada 2"><g id="Objects"><path class="cls-1" d="M24.19,46.48V80.84H5.44L5,80.65C5,62.21,16.46,60.84,16.46,60.84h0c1.13,0,1.85-1.48,2.34-3.7.07-.34.14-.69.19-1.07.11-.63.2-1.3.26-2,0-.42.09-.84.13-1.27.17-2.11.22-4.41.22-6.58C19.63,46.23,22.15,46.48,24.19,46.48Z"/><path class="cls-2" d="M43.47,80.56v.09l-.25.1h0l-.19.09H24.19V46.48h0c2,0,4.58-.25,4.58-.25,0,2.16.05,4.43.22,6.52L29.15,54c.08.72.16,1.4.26,2v0c0,.29.09.55.14.81.49,2.37,1.25,4,2.44,4a10.06,10.06,0,0,1,3.77,1.49C39.1,64.4,43.44,69.26,43.47,80.56Z"/><path class="cls-3" d="M29.41,56v0a6,6,0,0,1-5.19,2.81h0A6.53,6.53,0,0,1,19,56.07c.1-.63.19-1.3.26-2l.12-1.27a20.19,20.19,0,0,0,4.73.61h.05A19,19,0,0,0,29,52.75c0,.43.08.84.12,1.25C29.23,54.72,29.31,55.4,29.41,56Z"/><path class="cls-4" d="M44.18,80.76l-.45.21H5.44L5,80.76C5,66.42,11.76,62.2,15,61c2.11,2.31,6.27,5.49,9.48,5.65h.1s0,0,.07,0c3.23-.16,7.39-3.36,9.5-5.67,3.21,1.19,10,5.4,10,19.78Z"/><polygon class="cls-5" points="20.47 70 20.28 69.72 18.14 71.19 16 69.72 15.81 70 17.84 71.39 15.81 72.78 16 73.05 18.14 71.58 20.28 73.05 20.47 72.78 18.43 71.39 20.47 70"/><polygon class="cls-5" points="33.69 70 33.5 69.72 31.36 71.19 29.23 69.72 29.03 70 31.07 71.39 29.03 72.78 29.23 73.05 31.36 71.58 33.5 73.05 33.69 72.78 31.66 71.39 33.69 70"/><polygon class="cls-5" points="29.07 75.35 26.92 77.39 24.72 75.35 22.57 77.39 20.37 75.35 18.02 77.58 18.25 77.82 20.37 75.82 22.55 77.82 22.57 77.79 22.6 77.82 24.72 75.82 26.9 77.82 26.93 77.79 26.95 77.82 29.08 75.82 31.25 77.82 31.48 77.58 29.07 75.35"/><path class="cls-5" d="M13.19,61.83c2.49,2.75,7.44,6.53,11.26,6.72h.11a.21.21,0,0,0,.08,0c3.82-.19,8.76-4,11.26-6.72A11.74,11.74,0,0,0,34.1,61c-2.1,2.31-6.27,5.51-9.5,5.67,0,0-.05,0-.06,0h-.1C21.22,66.49,17.06,63.31,15,61a12.85,12.85,0,0,0-1.77.83Z"/><path class="cls-6" d="M24.17,7.06c-19.86,0-20,16.57-19.09,27.41C3.72,31.9-.31,32.7,0,36.74S6,42.66,6,42.21c1.63,8.92,11,14.08,18.22,14.08h.15V7.07Z"/><path class="cls-7" d="M1.29,35a1.88,1.88,0,0,1,2.86-.54,1.6,1.6,0,0,1,.47,1.79c-.14.52-.69.56-.55,1.36a1.44,1.44,0,0,0,.79,1.15c.23.2.53.35.68.72a2,2,0,0,1,.08,1.12c-.15.64-1.08.13-1.71-.15a11.87,11.87,0,0,1-2.06-1.67A3.54,3.54,0,0,1,1.29,35Z"/><path class="cls-8" d="M24.27,7.06c19.86,0,20,16.57,19.09,27.41,1.36-2.57,5.39-1.77,5.06,2.27s-6,5.92-5.93,5.47c-1.63,8.92-11,14.08-18.22,14.08h-.15V7.07Z"/><path class="cls-7" d="M47.15,35a1.88,1.88,0,0,0-2.86-.54,1.62,1.62,0,0,0-.47,1.79c.14.52.69.56.55,1.36a1.42,1.42,0,0,1-.79,1.15,1.88,1.88,0,0,0-.67.72,2,2,0,0,0-.09,1.12c.15.64,1.09.13,1.71-.15a11.51,11.51,0,0,0,2.06-1.67A3.54,3.54,0,0,0,47.15,35Z"/><path class="cls-1" d="M24,11.73c-6.54,0-11.32,1.89-14.21,5.63-4,5.21-3.89,13.18-2.4,18.89.45,1.75.69,6.46,1,8.19C9.8,52.17,18.37,56.29,24,56.29h.15V11.74Z"/><path class="cls-2" d="M38.18,17.36c-2.87-3.7-7.6-5.59-14-5.62V56.28c6.44-.07,14.13-4.58,15.45-11.84.32-1.73.55-6.44,1-8.19C42.09,30.55,42.24,22.6,38.18,17.36Z"/><path class="cls-9" d="M41.07,7C36.05,3.45,28.51-.3,23.94.15,12.69-1,9.39,4.38,6.8,6.23c-8.19,5.86-5.44,26.85-5.44,26.85a2.55,2.55,0,0,1,2.09.44A6.77,6.77,0,0,1,5.39,37a2.91,2.91,0,0,0,1.46,1.79s-2-8.36.05-12.07a18.51,18.51,0,0,1,3.77-5.45,9.5,9.5,0,0,0,.77,3.71c1.26,3.12,6.44,5,6.44,5s-3.82-2.14-2.3-4.75c.91-1.58,6.21-3,9.32-3.26,4.52-.36,6.63-2,7.5-3.58a9.49,9.49,0,0,1,2.49,1.08c3.75,2.42,4.83,4.94,6.08,7.24,2,3.71.05,12.07.05,12.07A2.88,2.88,0,0,0,42.48,37a6.87,6.87,0,0,1,2-3.44,2.5,2.5,0,0,1,2.07-.44S49.27,12.89,41.07,7Z"/><path class="cls-9" d="M24.47,48.07c-.2,2.62-5.24,2.38-7.86,2.38,1.31-1.17,4.73-3.83,7.35-3.83A4.7,4.7,0,0,1,24.47,48.07Z"/><path class="cls-9" d="M24.1,48.07c.21,2.62,5.25,2.38,7.87,2.38-1.31-1.17-4.73-3.83-7.36-3.83A5,5,0,0,0,24.1,48.07Z"/><path class="cls-9" d="M42.6,42.19c-.74,1.25-2.65,1.48-4.11,3.24s-8.17,4.74-8.17,4.74-.14,2.6-4.15,2.61c-.74,0-1.26-1.11-1.85-1.08h0c-.59,0-1.1,1.08-1.84,1.08-4,0-4.15-2.61-4.15-2.61s-6.72-3-8.18-4.74-3.36-2-4.11-3.24c-.56-.95,1,4.52,1.48,5.69S9.15,53,10.49,55a8.63,8.63,0,0,0,2.43,2.64c.48.48,0-2.35,0-2.35a32.85,32.85,0,0,0,2.55,3.52,31.53,31.53,0,0,0,8,4.19,5.39,5.39,0,0,0,.63.17v0l.1,0h.17l.11,0v0c.2,0,.4-.09.63-.17a31.71,31.71,0,0,0,8-4.19A34.35,34.35,0,0,0,35.7,55.3s-.49,2.83,0,2.35A8.91,8.91,0,0,0,38.13,55c1.33-2,2.47-6,3-7.13S43.16,41.24,42.6,42.19Z"/></g></g></svg>