<svg xmlns="http://www.w3.org/2000/svg" viewBox="0 0 49.8 78.23"><defs><style>.cls-1{fill:#dcc5a1;}.cls-2{fill:#edd9b4;}.cls-3,.cls-8{fill:#bc9f82;}.cls-3{opacity:0.7;}.cls-4{fill:#d8cc95;}.cls-5{fill:#c1667a;}.cls-6{fill:#fff;}.cls-7{fill:#d9bf9f;}.cls-9{fill:#ccad8b;}.cls-10{fill:#b47070;}.cls-11{fill:#c17874;}.cls-12{fill:#442c38;}</style></defs><title>Ativo 44avatar</title><g id="Camada_2" data-name="Camada 2"><g id="Objects"><path class="cls-1" d="M25.1,44.72V77.84H7a3.72,3.72,0,0,0-.45-.19c0-.35,0-.68,0-1,.29-13,6.66-16.69,9.6-17.74a7.08,7.08,0,0,1,1.45-.37A1.43,1.43,0,0,0,18,58.5a1.67,1.67,0,0,0,.84-.68l0,0A8,8,0,0,0,19.93,55a10.15,10.15,0,0,0,.19-1c.1-.62.18-1.25.26-1.92,0-.4.07-.8.11-1.22.17-2,.22-4.25.22-6.34C20.71,44.48,23.14,44.72,25.1,44.72Z"/><path class="cls-2" d="M43.68,77.65a2.51,2.51,0,0,0-.43.19H25.1V44.72h0c2,0,4.41-.24,4.41-.24,0,2.08,0,4.27.21,6.29,0,.4.08.81.12,1.2.08.69.14,1.35.24,2v0c.05.28.1.53.15.78a10.17,10.17,0,0,0,.59,2,2.73,2.73,0,0,0,1.25,1.66,1,1,0,0,0,.51.13S43.68,59.87,43.68,77.65Z"/><path class="cls-3" d="M30.13,53.93h0a5.86,5.86,0,0,1-5,2.72h0a6.28,6.28,0,0,1-5-2.71c.1-.6.19-1.25.25-1.91,0-.41.08-.81.11-1.23a19.89,19.89,0,0,0,4.57.59h.05a18.6,18.6,0,0,0,4.66-.64c0,.4.08.81.11,1.2C30,52.65,30,53.31,30.13,53.93Z"/><path class="cls-4" d="M31.59,78.23H43.25a3.39,3.39,0,0,1,.46-.19c0-.34,0-.67,0-1,0-2.82.86-4.32-.19-7.14-1.16-3.13-.3-3-2.26-6.36-1.38-2.36-4.78-3.62-7.14-4.24a23,23,0,0,0-2.46-.51S31.21,70.29,31.59,78.23Z"/><path class="cls-4" d="M18.66,78.23H7A3.39,3.39,0,0,0,6.54,78c0-.34,0-.67,0-1,0-2.82-.86-4.32.19-7.14,1.16-3.13.3-3,2.25-6.36,1.38-2.36,4.79-3.62,7.15-4.24a23,23,0,0,1,2.46-.51S19,70.29,18.66,78.23Z"/><path class="cls-5" d="M21.34,56.57l-2.06,1c-.28.21-3.86,1.85-4.14,2.1C13.75,60.8,15,63.12,14,64.42c-4.23,5.49-6,8.52-5.62,13.81H24.9v-18Z"/><path class="cls-5" d="M28.4,56.57l2.06,1c.28.21,3.84,1.69,4.13,1.94,1.38,1.18.16,3.65,1.16,5,4.23,5.49,6,8.52,5.62,13.81H24.83v-18Z"/><path class="cls-6" d="M30.89,56.29c-.58-2.58-.84-2.38-.84-2.38s-.09-.1.07.66-3.56,1.62-4.72,1.76h-.35c-1.22-.13-5.16-1.08-5-1.76s.06-.66.06-.66-.24-.2-.79,2.38A7.6,7.6,0,0,1,18.78,58a14.15,14.15,0,0,0,2.57,1.24c2.67.89,3.56,4.72,3.56,4.72v0s.94-3.83,3.79-4.72A16.2,16.2,0,0,0,31.44,58,6.66,6.66,0,0,1,30.89,56.29Z"/><path class="cls-7" d="M25.45,6.73c19.14,0,19.25,16,18.4,26.41,1.31-2.48,5.19-1.71,4.88,2.19S42.93,41,43,40.6c-1.57,8.6-10.58,13.56-17.56,13.56H25.3V6.73Z"/><path class="cls-8" d="M47.5,33.68a1.81,1.81,0,0,0-2.76-.52,1.58,1.58,0,0,0-.45,1.73c.14.5.66.54.54,1.3a1.35,1.35,0,0,1-.77,1.11,1.77,1.77,0,0,0-.65.7,1.92,1.92,0,0,0-.08,1.08c.14.61,1,.12,1.65-.15a11.45,11.45,0,0,0,2-1.61A3.4,3.4,0,0,0,47.5,33.68Z"/><path class="cls-9" d="M25.36,6.73C6.22,6.73,6.11,22.69,7,33.14c-1.31-2.48-5.19-1.71-4.88,2.19S7.88,41,7.8,40.6c1.57,8.6,10.58,13.56,17.56,13.56h.15V6.73Z"/><path class="cls-8" d="M3.31,33.68a1.81,1.81,0,0,1,2.76-.52,1.58,1.58,0,0,1,.45,1.73c-.13.5-.66.54-.53,1.3a1.36,1.36,0,0,0,.76,1.11,1.77,1.77,0,0,1,.65.7,1.92,1.92,0,0,1,.08,1.08c-.14.61-1,.12-1.65-.15a11.45,11.45,0,0,1-2-1.61A3.4,3.4,0,0,1,3.31,33.68Z"/><path class="cls-1" d="M25.19,11.23c-6.29,0-10.9,1.82-13.69,5.42-3.9,5-3.75,12.7-2.31,18.21.43,1.68.66,6.22,1,7.88,1.35,7.45,9.6,11.42,15,11.42h.15V11.23Z"/><path class="cls-2" d="M38.86,16.66c-2.77-3.58-7.32-5.4-13.52-5.43V54.16c6.2-.07,13.62-4.42,14.89-11.42.3-1.66.53-6.2,1-7.88C42.63,29.36,42.77,21.7,38.86,16.66Z"/><path class="cls-10" d="M30.12,45.14a7.51,7.51,0,0,1-4.75,2.27,7.1,7.1,0,0,1-4.63-2.22,30,30,0,0,1,4.63-.35A38,38,0,0,1,30.12,45.14Z"/><path class="cls-11" d="M26.72,44.09a1.24,1.24,0,0,0-1.35,1,1.24,1.24,0,0,0-1.34-1,19.1,19.1,0,0,0-3.41,1s2.6.27,3.34.27,1.39.29,1.41-.26c0,.55.55.34,1.28.34s3.47-.35,3.47-.35A18.94,18.94,0,0,0,26.72,44.09Z"/><path class="cls-12" d="M48.8,19.62C46.73,13.43,42,8.1,40.05,5.92,37.56,3.1,31,.32,30.27.05S27,.82,24.39.23s-7.73.13-15,4.84C6,7.27,3.71,11.34,2.25,15.43a41.56,41.56,0,0,0-1.61,6A31.28,31.28,0,0,0,0,26.78a11.53,11.53,0,0,0,.46,2.68c.09.35.19.7.29,1.07.32,1,.71,2.18,1.13,3.31L3,35.78a6.73,6.73,0,0,0-.21.77,6.48,6.48,0,0,0-.1.77c0,.15,0,.29,0,.44a5.91,5.91,0,0,0,2.67,5A5.3,5.3,0,0,0,4.21,46c0,3.17,2.88,5.73,6.43,5.73a6.37,6.37,0,0,0,1-.07A4.51,4.51,0,0,0,11.41,53c0,2.34,1.83,4.33,4.37,5.06l.52.12.41-.07h.1a2.14,2.14,0,0,0,.27-.06c.9-.25,1.55-1.43,2-3.16.08-.26.14-.53.2-.81s.16-.76.22-1.17h0v0c0-.29.09-.59.13-.89h0a24.66,24.66,0,0,1-9.4-5.41,13,13,0,0,1-1.33-2.22c-.13-3.18-.2-8.91-.18-12.31,0-1.39,0-2.4.08-2.66.34-1.88,4.1-5.3,6.8-7.58.75-.63,1.42-1.18,1.92-1.58a19.9,19.9,0,0,0,3.54-3.89,58.08,58.08,0,0,0,3.32-5.38s-1.31,4-1.63,4.8a4.64,4.64,0,0,1-.33.67,13,13,0,0,1-2.66,3.51,42.73,42.73,0,0,0,4.86-3.34l.36-.32a.6.6,0,0,0,.08-.08l.11-.1s.08-.07.11-.11a24.11,24.11,0,0,0,2.77-3.61,6.18,6.18,0,0,0,.13,4.56,8.25,8.25,0,0,0,.95,1.67,17.6,17.6,0,0,0,4.22,3.33,5.35,5.35,0,0,1-1.95-3.8c0-.22-.05-.52-.09-.85-.11-.91-.27-2.06-.3-2.32.09.22.45,1.21,1,2.41a13.58,13.58,0,0,0,2.26,3.55c.86.91,1.72,1.94,2.47,2.86.92,1.12,1.68,2.08,2.13,2.51S39.79,28.63,40,31a131.43,131.43,0,0,1,.17,15,14.38,14.38,0,0,1-1.11,1.46A25.29,25.29,0,0,1,30.71,52h0c0,.29.07.57.12.85h0a.08.08,0,0,1,0,0v0c0,.31.1.6.15.89s.14.6.21.89c.42,1.64,1,2.83,1.78,3.27a1.8,1.8,0,0,0,.21.08,1.18,1.18,0,0,0,.46.09,10.06,10.06,0,0,1,2.76.89,6.49,6.49,0,0,0,.77-.11c3.12-.63,5.43-2.89,5.43-5.6a4.92,4.92,0,0,0-.84-2.7,7.64,7.64,0,0,0,3.17-6.14,7.43,7.43,0,0,0-.51-2.68c2.5-.9,4.25-2.82,4.28-5.07v-.06a4.2,4.2,0,0,0-.06-.72,4.84,4.84,0,0,0-.84-2l0,0a28.8,28.8,0,0,0,1.28-3.67q.14-.51.24-1a19.52,19.52,0,0,0,.43-3.26c0-.21,0-.42,0-.63A17.58,17.58,0,0,0,48.8,19.62Z"/></g></g></svg>