<svg xmlns="http://www.w3.org/2000/svg" viewBox="0 0 48.16 75.69"><defs><style>.cls-1{fill:#fff;}.cls-2{fill:#dcc5a1;}.cls-3{fill:#edd9b4;}.cls-4,.cls-7{fill:#bc9f82;}.cls-4{opacity:0.7;}.cls-5{fill:#751819;}.cls-6{fill:#ccad8b;}.cls-8{fill:#d9bf9f;}.cls-9{fill:#b47070;}.cls-10{fill:#c17874;}</style></defs><title>Ativo 47avatar</title><g id="Camada_2" data-name="Camada 2"><g id="Objects"><path class="cls-1" d="M39.84,47c2.28-7.56,4.21-8.32,4.22-13.06l-.7-7.19c-1.24-6.18-5.47-12.15-9.49-14.7a12.58,12.58,0,0,0-4.29-1.55,1.15,1.15,0,0,1,0-.17A25.45,25.45,0,0,0,24.43,10a25.39,25.39,0,0,0-5.16.35v.17A12.66,12.66,0,0,0,15,12c-4,2.55-8.24,8.52-9.49,14.7l-.7,7.19c0,4.74,2,5.5,4.23,13.06,1.89,6.27-1.91,5.55-1.91,5.55s5.81,4.35,5.16-18.2a5.35,5.35,0,0,1,1.16-3.05,2.16,2.16,0,0,0,.18.3,5.47,5.47,0,0,0,1.2,1.31,23.17,23.17,0,0,0-2,5.71l-.71,7.19c0,4.74,2,5.5,4.23,13.06,1.89,6.27-1.9,5.56-1.9,5.56s5.79,4.34,5.14-18.2c-.06-2.09,2.21-4.67,4.84-6.94,2.62,2.27,4.89,4.85,4.83,6.94-.65,22.54,5.16,18.2,5.16,18.2s-3.8.71-1.91-5.56a46.55,46.55,0,0,1,2-5.36C36,58.2,38.41,56.4,38.41,56.4s-3.8.72-1.9-5.55c.3-1,.6-1.91.89-2.71,1.48,6.53,4.34,4.38,4.34,4.38S38,53.24,39.84,47Z"/><path class="cls-2" d="M24.05,41V75.69H5.13a3.51,3.51,0,0,0-.46-.2A29.9,29.9,0,0,1,6.28,65.07c2.22-6.14,6.23-8.39,8.43-9.17a8.38,8.38,0,0,1,1.54-.41h.09a1.22,1.22,0,0,0,.26-.06c.63-.16,1.14-.85,1.53-1.9a11.71,11.71,0,0,0,.51-1.76c.08-.35.14-.71.2-1.08.1-.65.2-1.31.26-2,0-.41.08-.84.12-1.27.17-2.14.23-4.46.23-6.64C19.45,40.76,22,41,24.05,41Z"/><path class="cls-3" d="M43.5,75.49a2.31,2.31,0,0,0-.45.2h-19V41h0c2.06,0,4.62-.25,4.62-.25,0,2.17.05,4.46.22,6.57l.12,1.27c.08.72.16,1.42.27,2v0c0,.28.09.55.14.8a13.3,13.3,0,0,0,.68,2.34h0a3,3,0,0,0,1.14,1.51,1.13,1.13,0,0,0,.2.09,1.49,1.49,0,0,0,.43.07,6.88,6.88,0,0,1,.92.2c2.1.62,7.21,2.87,9.5,10.73a29,29,0,0,1,1.1,7C43.49,74.12,43.5,74.79,43.5,75.49Z"/><path class="cls-4" d="M29.31,50.66v0a6.13,6.13,0,0,1-5.24,2.84h0a6.63,6.63,0,0,1-5.21-2.83q.17-1,.27-2c0-.42.08-.85.11-1.28A21.17,21.17,0,0,0,24,48H24a19.36,19.36,0,0,0,4.88-.68Q29,48,29,48.6C29.12,49.33,29.2,50,29.31,50.66Z"/><path class="cls-5" d="M38.83,66.62c-2.71-4.6-4.61-7.85-5.44-10.72a8.38,8.38,0,0,0-1.54-.41h-.09l-.26-.06c-.63-.16-1.14-.85-1.53-1.9a6.26,6.26,0,0,1-1.32.49c-1.68.48-4.52,1.19-4.52,1.19A68.31,68.31,0,0,1,26.88,62c1.11,3.24-.67,5.67-2.83,5.76-2.16-.09-3.94-2.52-2.82-5.76A67,67,0,0,1,24,55.21S21.13,54.5,19.45,54a6.26,6.26,0,0,1-1.32-.49c-.39,1-.9,1.74-1.53,1.9a1.22,1.22,0,0,1-.26.06h-.09a8.38,8.38,0,0,0-1.54.41C13.88,58.77,12,62,9.27,66.62c-1.49,2.55-.46,7.13.41,9.07H38.42C39.29,73.92,40.33,69.17,38.83,66.62Z"/><path class="cls-6" d="M24,3.75c-19.75,0-19.86,15.77-19,26.08-1.36-2.42-5.36-1.52-5,2.35.31,3.71,6,5.39,5.9,5C7.53,45.57,16.84,50.23,24,50.89h.15V3.75Z"/><path class="cls-7" d="M1,30.55A1.94,1.94,0,0,1,3.9,30a1.49,1.49,0,0,1,.47,1.71c-.14.5-.69.54-.55,1.3a1.34,1.34,0,0,0,.8,1.1,1.81,1.81,0,0,1,.67.7,1.74,1.74,0,0,1,.09,1.07c-.15.61-1.1.12-1.73-.15a11.89,11.89,0,0,1-2.07-1.59A3.27,3.27,0,0,1,1,30.55Z"/><path class="cls-8" d="M24.13,3.75c19.74,0,19.85,15.77,19,26.08,1.35-2.42,5.35-1.52,5,2.35-.32,3.71-6,5.39-5.9,5-1.62,8.4-10.92,13.06-18.11,13.72H24V3.75Z"/><path class="cls-7" d="M47.28,30.55A1.94,1.94,0,0,0,44.39,30a1.5,1.5,0,0,0-.47,1.71c.14.5.69.54.56,1.3a1.36,1.36,0,0,1-.8,1.1,1.77,1.77,0,0,0-.68.7,1.81,1.81,0,0,0-.09,1.07c.15.61,1.1.12,1.73-.15a11.53,11.53,0,0,0,2.07-1.59A3.25,3.25,0,0,0,47.28,30.55Z"/><path class="cls-2" d="M23.93,8.22c-6.6,0-11.42,1.82-14.35,5.39-4.07,5-3.92,12.62-2.41,18.1.45,1.68.69,6.19,1,7.84C9.6,47,18.24,50.91,23.93,50.91h.15V8.23Z"/><path class="cls-3" d="M38.23,13.62c-2.89-3.55-7.66-5.36-14.15-5.39V50.9c6.49-.07,14.25-4.39,15.59-11.35.31-1.65.55-6.16,1-7.84C42.18,26.25,42.33,18.63,38.23,13.62Z"/><path class="cls-9" d="M27.4,44.21a5.26,5.26,0,0,1-3.33,1.59,4.94,4.94,0,0,1-3.24-1.56A22.18,22.18,0,0,1,24.07,44,27.92,27.92,0,0,1,27.4,44.21Z"/><path class="cls-10" d="M25,43.48a.86.86,0,0,0-.94.72.86.86,0,0,0-.94-.72,13.27,13.27,0,0,0-2.38.73s1.81.19,2.33.19,1,.2,1-.18c0,.39.39.24.9.24s2.43-.25,2.43-.25A13.43,13.43,0,0,0,25,43.48Z"/><path class="cls-1" d="M36.07,12.59C34.61,15,35,17.72,30,19.5s-7.22,2.27-12.66,4.42c-12.33,4.88-6,16.18-6,16.18S8,37.19,6.77,34.17.82,18,6.77,7.54C10,1.83,16.08.51,21.39.12s9.1,0,12.93,3.13c.84.67,3.24.82,5.87,2.47,5.89,3.68,5.4,9.1,5.66,12.57a23.27,23.27,0,0,1-1.52,10.6c-1.15,3-8.08,12-8.08,12s5.39-10.92,2.39-18c-1.75-4.15-4.89-3.92-5-5.53S36.07,12.59,36.07,12.59Z"/></g></g></svg>