<svg xmlns="http://www.w3.org/2000/svg" viewBox="0 0 48.63 76.67"><defs><style>.cls-1{fill:#dcc5a1;}.cls-2{fill:#edd9b4;}.cls-3,.cls-7{fill:#bc9f82;}.cls-3{opacity:0.7;}.cls-4{fill:#e6e6e6;}.cls-5{fill:#5a4f51;}.cls-6{fill:#ccad8b;}.cls-8{fill:#d9bf9f;}.cls-9{fill:#fdfbf8;}</style></defs><title>Ativo 80avatar</title><g id="Camada_2" data-name="Camada 2"><g id="Objects"><path class="cls-1" d="M23.27,44V76.66H5.44L5,76.48C5,59,15.92,57.64,15.92,57.64c1.09,0,1.78-1.39,2.25-3.51a10,10,0,0,0,.19-1c.1-.59.18-1.23.25-1.89,0-.4.07-.8.11-1.2.16-2,.21-4.19.21-6.26C18.93,43.75,21.33,44,23.27,44Z"/><path class="cls-2" d="M41.6,76.48s-.17.06-.43.18H23.27V44h0c1.94,0,4.35-.24,4.35-.24,0,2,.05,4.21.21,6.2,0,.4.08.8.11,1.18.08.69.15,1.34.25,1.95h0c0,.28.09.52.14.77.46,2.26,1.19,3.78,2.31,3.78C30.68,57.64,41.6,59,41.6,76.48Z"/><path class="cls-3" d="M28.23,53.08h0a5.76,5.76,0,0,1-4.94,2.68h0a6.19,6.19,0,0,1-4.91-2.67c.1-.59.18-1.23.25-1.89,0-.4.07-.8.11-1.2a20.41,20.41,0,0,0,4.5.58h.05a18.58,18.58,0,0,0,4.6-.64c0,.4.08.8.11,1.18C28.06,51.82,28.13,52.47,28.23,53.08Z"/><path class="cls-4" d="M41.6,76.48s-.16.06-.42.19H5.45L5,76.48c0-13,5.82-17.23,9-18.54a8.34,8.34,0,0,1,1.77-.56c2.62.25,7.47,2.24,7.47,2.24a8.27,8.27,0,0,0,5-2c.11-.11,2.3.4,2.38.3.24-.21.43-.39.53-.5h0a9.93,9.93,0,0,1,1.36.43s0,0,0,0l.31.13A11.72,11.72,0,0,1,35,59.3a2.62,2.62,0,0,1,.32.23C38.3,61.87,41.6,66.69,41.6,76.48Z"/><path class="cls-5" d="M38.38,62.83a12.68,12.68,0,0,0-5.68-4.89L23.44,73.61l-.1.17-.1-.17L14,57.94A12.66,12.66,0,0,0,8.3,62.83a7.63,7.63,0,0,1,1.47,3c1.18,4.2.5,9.32.27,10.83h26.6c-.24-1.51-.91-6.63.26-10.83A7.62,7.62,0,0,1,38.38,62.83Z"/><path class="cls-6" d="M23,6.51C4.1,6.51,4,22.27,4.83,32.57,3.53,30.13-.3,30.88,0,34.73s5.71,5.63,5.64,5.19C7.21,48.41,16.09,53.31,23,53.31h.14V6.51Z"/><path class="cls-7" d="M1.22,33.1A1.79,1.79,0,0,1,4,32.59a1.53,1.53,0,0,1,.44,1.7c-.13.5-.65.54-.52,1.29a1.33,1.33,0,0,0,.75,1.09,1.79,1.79,0,0,1,.64.69,1.86,1.86,0,0,1,.08,1.06c-.14.61-1,.13-1.63-.14A12,12,0,0,1,1.76,36.7,3.4,3.4,0,0,1,1.22,33.1Z"/><path class="cls-8" d="M23.07,6.51c18.89,0,19,15.76,18.15,26.06,1.3-2.44,5.13-1.69,4.82,2.16s-5.72,5.63-5.64,5.19C38.85,48.41,30,53.31,23.07,53.31h-.14V6.51Z"/><path class="cls-7" d="M44.83,33.1a1.79,1.79,0,0,0-2.73-.51,1.55,1.55,0,0,0-.44,1.7c.13.5.66.54.53,1.29a1.34,1.34,0,0,1-.76,1.09,1.79,1.79,0,0,0-.64.69,2,2,0,0,0-.08,1.06c.15.61,1,.13,1.63-.14a11.54,11.54,0,0,0,1.95-1.58A3.38,3.38,0,0,0,44.83,33.1Z"/><path class="cls-1" d="M22.82,11C16.6,11,12.06,12.75,9.3,16.3,5.46,21.25,5.61,28.83,7,34.26c.44,1.66.66,6.14,1,7.78,1.34,7.36,9.48,11.27,14.84,11.27H23V11Z"/><path class="cls-2" d="M36.3,16.31C33.57,12.78,29.08,11,23,11V53.3C29.08,53.23,36.4,49,37.65,42c.3-1.64.52-6.12,1-7.78C40,28.84,40.16,21.28,36.3,16.31Z"/><path class="cls-9" d="M5.8,35.55c-.38,0,0-2-1.23-3.39s-3.18-6-3.18-10.68S3,12.7,7.32,8.31A30.36,30.36,0,0,1,17.9,1.78L15,4.41S16.56,2.27,22.17.56a10.18,10.18,0,0,1,7.3.16s-2.92-.1-3.81,1.16a4.74,4.74,0,0,1-1,.81s1.36-3,7.66-.52,6.18,7,10.57,8.39,5.78-.4,5.78-.4-1.94,3.19-5.4,3.2c-.66,0-.62,0-.62,0a28.7,28.7,0,0,1,1.55,6c.25,2.6-.54,4.38-.79,9.24-.21,4.15-1.34,2-2.7,5.08a6.71,6.71,0,0,0-.48,2.19c-.5.12-1.81-2.49-.87-7,.61-2.95-2.43-14.13-9.78-11.95-4.49,1.34-5.62,4.05-9,1.64-2.89-2.08-6.95-3.27-10-1.63s-4.73,5.34-4.2,11.24C7.06,35.61,5.8,35.55,5.8,35.55Z"/><path class="cls-9" d="M29.92,46.92c-.12,3.94-4.34,4.5-6.59,4.61h-.78c-2.24-.11-6.47-.67-6.59-4.61,0-.54-1.09,1.22-.72,4.37s5.82,4.81,7.69,5.2h0c1.87-.39,7.33-2.2,7.69-5.2S29.94,46.38,29.92,46.92Z"/></g></g></svg>