<svg xmlns="http://www.w3.org/2000/svg" xmlns:xlink="http://www.w3.org/1999/xlink" viewBox="0 0 50.05 78.92"><defs><style>.cls-1{fill:none;}.cls-2{fill:#442c38;}.cls-3{fill:#dcc5a1;}.cls-4{fill:#edd9b4;}.cls-5{clip-path:url(#clip-path);}.cls-6{fill:#bc9f82;}.cls-7{fill:#ccad8b;}.cls-8{fill:#d9bf9f;}.cls-9{fill:#453514;}.cls-10{fill:#fff;}</style><clipPath id="clip-path"><rect class="cls-1" x="19.58" y="49.89" width="10.73" height="6.32"/></clipPath></defs><title>Ativo 40avatar</title><g id="Camada_2" data-name="Camada 2"><g id="Objects"><path class="cls-2" d="M2.86,28.11v28.1h0c.43,1.38,10.21,11.05,22.21,11.05s21.78-9.67,22.2-11.05h0V28.11Z"/><path class="cls-3" d="M24.92,43.4V78.91H5.55l-.48-.2c0-19,11.86-20.47,11.86-20.47,1.19,0,1.94-1.51,2.44-3.81a9.66,9.66,0,0,0,.21-1.12c.11-.65.2-1.34.27-2.06,0-.43.08-.86.12-1.31.18-2.18.23-4.55.23-6.79,0,0,2.62.25,4.72.25Z"/><path class="cls-4" d="M44.84,78.71s-.18.07-.46.21H24.92V43.4h0c2.11,0,4.73-.25,4.73-.25,0,2.23,0,4.57.23,6.74,0,.43.08.86.13,1.29.07.74.15,1.44.26,2.1h0c.05.3.1.58.16.85.49,2.45,1.28,4.1,2.5,4.1,0,0,11.87,1.42,11.87,20.47Z"/><g class="cls-5"><path class="cls-6" d="M30.31,53.28h0a6.26,6.26,0,0,1-5.37,2.92h0a6.74,6.74,0,0,1-5.34-2.9c.11-.65.2-1.34.27-2.06,0-.43.08-.86.12-1.31a21.49,21.49,0,0,0,4.89.64h.06a20.32,20.32,0,0,0,5-.69c0,.43.08.86.13,1.29.07.74.15,1.44.26,2.1"/></g><path class="cls-7" d="M17.89,75.89a1,1,0,0,1-2,0,1,1,0,0,1,2,0Z"/><path class="cls-7" d="M34,75.89a1,1,0,1,1-1-1,1,1,0,0,1,1,1Z"/><path class="cls-7" d="M25,2.67C4.45,2.67,4.34,19.79,5.25,31,3.85,28.34-.32,29.16,0,33.34c.33,4,6.21,6.11,6.13,5.65C7.84,48.21,17.49,53.54,25,53.54l.15,0V2.67Z"/><path class="cls-6" d="M1.33,31.58a2,2,0,0,1,3-.57,1.66,1.66,0,0,1,.47,1.85c-.13.54-.71.58-.56,1.4A1.47,1.47,0,0,0,5,35.45c.24.21.55.36.7.75a2.09,2.09,0,0,1,.09,1.15c-.16.66-1.13.14-1.77-.15a12.65,12.65,0,0,1-2.13-1.72,3.68,3.68,0,0,1-.58-3.9Z"/><path class="cls-8" d="M25.08,2.67C45.6,2.67,45.72,19.79,44.81,31c1.4-2.65,5.57-1.83,5.22,2.35-.32,4-6.21,6.11-6.13,5.65-1.68,9.22-11.33,14.55-18.82,14.55l-.16,0V2.67Z"/><path class="cls-6" d="M48.73,31.58a2,2,0,0,0-3-.57,1.68,1.68,0,0,0-.48,1.85c.14.54.71.58.57,1.4A1.43,1.43,0,0,1,45,35.45c-.24.21-.54.36-.69.75a2,2,0,0,0-.09,1.15c.15.66,1.11.14,1.76-.15a12.26,12.26,0,0,0,2.13-1.72,3.68,3.68,0,0,0,.59-3.9Z"/><path class="cls-3" d="M24.8,7.5c-6.75,0-11.69,1.95-14.69,5.81-4.18,5.39-4,13.62-2.48,19.52.47,1.81.71,6.67,1,8.46,1.46,8,10.3,12.25,16.13,12.25H25V7.5Z"/><path class="cls-4" d="M39.45,13.32C36.48,9.48,31.6,7.54,25,7.5v46c6.65-.07,14.61-4.73,16-12.23.33-1.79.57-6.65,1-8.46,1.53-5.89,1.68-14.1-2.51-19.51Z"/><path class="cls-9" d="M47.18,29.37c-.41.4-1.79.41-3.09,3-.79,1.58-1.4,1.74-1.4,1.74s1-6.46,1-8.26S37.94,10.76,34.74,9.68s-6.1,2.52-9.55,2.52h-.27c-3.38-.07-6.39-3.56-9.55-2.52S6.42,24.05,6.42,25.84s1,8.26,1,8.26a4,4,0,0,1-1.76-2c-1.31-2.76-2.27-2.34-2.72-2.73-.86-11.2,1.82-26.2,22-26.2H25c20.24,0,23.06,15,22.18,26.22Z"/><path class="cls-10" d="M48.15,18a16,16,0,0,1-1.28-5.17c-.1-1.92-1.34-3.7-3-5.45a17.85,17.85,0,0,0-6.6-4.61A37,37,0,0,0,25.13,0H25A37,37,0,0,0,12.78,2.73,17.92,17.92,0,0,0,6.17,7.34c-1.62,1.75-2.85,3.53-2.95,5.45A16.26,16.26,0,0,1,1.93,18c-.8,2.33,1.2,3.15.8,5s0,6.56,0,6.56a44.84,44.84,0,0,0,4.82-3.28c2.92-2.85,6.23-6.94,17.49-7.11,11,.16,14.73,6,17.76,8.88,1,.92,4.24,1.36,4.56,1.51a34.39,34.39,0,0,0,0-6.56c-.4-1.82,1.61-2.64.79-5Z"/><path class="cls-2" d="M26,51.53a3.48,3.48,0,0,0-.51-1.36,5.73,5.73,0,0,1-.85.81,6.87,6.87,0,0,1-.79-.82,2.87,2.87,0,0,0-.74,1.25,4.37,4.37,0,0,1-.15-.63,5.23,5.23,0,0,0-.86,1.47,1.69,1.69,0,0,0,.36,1.2,2.8,2.8,0,0,0,.47-.31,4.86,4.86,0,0,0,1.64,2.61,5,5,0,0,0,1.74-2.5,2.11,2.11,0,0,0,.33.19,1.52,1.52,0,0,0,.36-1.2,4.55,4.55,0,0,0-.84-1.64s.05.91-.16.93Z"/></g></g></svg>