<svg xmlns="http://www.w3.org/2000/svg" viewBox="0 0 46.96 72.49"><defs><style>.cls-1{fill:#dcc5a1;}.cls-2{fill:#edd9b4;}.cls-3,.cls-6{fill:#bc9f82;}.cls-3{opacity:0.7;}.cls-4{fill:#4d1913;}.cls-5{fill:#ccad8b;}.cls-7{fill:#d9bf9f;}.cls-8{fill:#fdfbf8;}.cls-9{fill:#a1556b;}.cls-10{fill:#fff;}</style></defs><title>Ativo 74avatar</title><g id="Camada_2" data-name="Camada 2"><g id="Objects"><path class="cls-1" d="M23.47,39.81V72.48H5.65l-.44-.18c0-17.53,10.91-18.84,10.91-18.84,1.09,0,1.79-1.39,2.25-3.51a10.26,10.26,0,0,0,.19-1c.1-.6.19-1.24.25-1.9,0-.4.07-.8.11-1.21.17-2,.22-4.18.22-6.25C19.14,39.57,21.53,39.81,23.47,39.81Z"/><path class="cls-2" d="M41.8,72.3l-.42.18H23.47V39.81h0c1.94,0,4.35-.24,4.35-.24,0,2.06.05,4.21.21,6.21L28.19,47c.07.68.15,1.33.25,1.94v0a6.17,6.17,0,0,0,.14.77c.46,2.25,1.18,3.77,2.31,3.77C30.89,53.46,41.8,54.77,41.8,72.3Z"/><path class="cls-3" d="M28.44,48.9v0a5.78,5.78,0,0,1-4.94,2.67h0a6.21,6.21,0,0,1-4.91-2.66c.1-.6.19-1.24.25-1.9,0-.4.07-.8.11-1.21a18.83,18.83,0,0,0,4.5.59h0a18.52,18.52,0,0,0,4.6-.63L28.19,47C28.26,47.64,28.34,48.29,28.44,48.9Z"/><path class="cls-4" d="M11.84,36.62c-.34-.25-6.57-4.09-6.57-4.09.42,2.39.74,3.36.12,5A5.89,5.89,0,0,1,3.15,40a4.7,4.7,0,0,1-2.24.9A6.48,6.48,0,0,1,0,40.86a7.16,7.16,0,0,0,3.47.44,3.91,3.91,0,0,0,2.13-.61,3.14,3.14,0,0,0-.43,3c1.88,3.82-.62,5.06-.62,5.06A7.26,7.26,0,0,0,8,47.39a.28.28,0,0,1,0,.09,2.77,2.77,0,0,0,2.05,2.12s-.93-.16-.76-1.93c.05-.47.54-.66,1.16-1,.24,1.71,1,3.46-.59,4.18,0,0,2.71-.54,3.2-2.15a7,7,0,0,0,.19-.83,3.6,3.6,0,0,1,.12.44,5.74,5.74,0,0,1-1.17,4s5.63-.59,5.67-2.82a10.9,10.9,0,0,1,.24-2.2c.17-.51.52-3.06.52-3.06S12.18,36.87,11.84,36.62Z"/><path class="cls-4" d="M35.12,36.62c.34-.25,6.57-4.09,6.57-4.09-.42,2.39-.74,3.36-.12,5A5.83,5.83,0,0,0,43.81,40a4.66,4.66,0,0,0,2.24.9,6.48,6.48,0,0,0,.91-.08,7.18,7.18,0,0,1-3.48.44,4,4,0,0,1-2.13-.61,3.09,3.09,0,0,1,.43,3c-1.87,3.82.63,5.06.63,5.06a7.31,7.31,0,0,1-3.49-1.33v.09a2.78,2.78,0,0,1-2.06,2.12s.94-.16.76-1.93c0-.47-.54-.66-1.15-1-.24,1.71-1,3.46.59,4.18,0,0-2.71-.54-3.21-2.15-.08-.29-.13-.56-.18-.83,0,.15-.1.29-.13.44a5.79,5.79,0,0,0,1.17,4s-5.62-.59-5.66-2.82a10.9,10.9,0,0,0-.24-2.2c-.18-.51-.52-3.06-.52-3.06S34.78,36.87,35.12,36.62Z"/><path class="cls-5" d="M23.53,2.33c-18.89,0-19,15.75-18.15,26.06C4.08,26,.25,26.7.56,30.55s5.72,5.63,5.64,5.2c1.55,8.48,10.43,13.38,17.33,13.38h.14V2.33Z"/><path class="cls-6" d="M1.77,28.92a1.78,1.78,0,0,1,2.72-.51,1.55,1.55,0,0,1,.45,1.71c-.13.49-.66.53-.53,1.28a1.32,1.32,0,0,0,.76,1.09,1.77,1.77,0,0,1,.63.69,1.9,1.9,0,0,1,.09,1.07c-.15.6-1,.12-1.63-.15a12,12,0,0,1-2-1.58A3.39,3.39,0,0,1,1.77,28.92Z"/><path class="cls-7" d="M23.62,2.33c18.88,0,19,15.75,18.15,26.06,1.29-2.44,5.12-1.69,4.81,2.16s-5.72,5.63-5.64,5.2c-1.55,8.48-10.43,13.38-17.32,13.38h-.15V2.33Z"/><path class="cls-6" d="M45.37,28.92a1.78,1.78,0,0,0-2.72-.51,1.53,1.53,0,0,0-.44,1.71c.13.49.65.53.52,1.28A1.3,1.3,0,0,1,42,32.49a1.85,1.85,0,0,0-.63.69,1.89,1.89,0,0,0-.08,1.07c.14.6,1,.12,1.62-.15a11.6,11.6,0,0,0,2-1.58A3.37,3.37,0,0,0,45.37,28.92Z"/><path class="cls-1" d="M23.36,6.77c-6.21,0-10.76,1.8-13.51,5.35-3.85,5-3.7,12.53-2.28,18,.43,1.66.66,6.14.95,7.79C9.86,45.22,18,49.13,23.36,49.13h.15V6.77Z"/><path class="cls-2" d="M36.85,12.13C34.11,8.6,29.62,6.8,23.51,6.77V49.12c6.12-.06,13.43-4.35,14.69-11.25.29-1.65.52-6.13.95-7.79C40.56,24.66,40.71,17.1,36.85,12.13Z"/><path class="cls-4" d="M44.16,17.65a5.1,5.1,0,0,0-.4-.77A31.82,31.82,0,0,0,39.62,6.12C37.68,3.31,32.91.83,26.79.09S15.32,3.66,15.32,3.66a6.84,6.84,0,0,0-1.75-1.82c-.82-.41-3.15.08-3.15.08a5.56,5.56,0,0,1,1.89.86,1.69,1.69,0,0,1,.32,1.52A11.29,11.29,0,0,0,10,3.48c-1.48,0-3.15,1.83-3.15,1.83a5.44,5.44,0,0,1,2.72-.94A7.68,7.68,0,0,1,11.19,5S9,5.19,4.88,9.68a12.75,12.75,0,0,0-3.11,7.85l2.6-1.48a6.79,6.79,0,0,0-1,1.6c-1.92,4.75.71,9.52.71,9.52s.85.08,1.64,1.91a36.92,36.92,0,0,1,1.72,5.55h.91S6.38,27,7.7,22.82c.37-1.15,1.36-3.5,2.74-3.58a5,5,0,0,0,1.32-2.37,9.67,9.67,0,0,1,3.64-4.7,1.52,1.52,0,0,1,1.79.25,12,12,0,0,1,5-2c3.24-.58,5,2.88,5.74,4.7a4,4,0,0,1,.34,2.73,8.66,8.66,0,0,0,1.22-4.47,5.75,5.75,0,0,0-.37-1.7c.42.22,2.27.73,2.64,5.5A4.82,4.82,0,0,1,29.92,21s4.56-1.88,3.62-7.68a9.9,9.9,0,0,1,2.23,3.55c.41,1.57,3.82,5.23,4,5.95,1.33,4.16-.64,11.81-.64,11.81h.91a36.92,36.92,0,0,1,1.72-5.55c.79-1.83,1.64-1.91,1.64-1.91S46.08,22.4,44.16,17.65Zm-15.47-6.8-.07-.09.07.07Z"/><path class="cls-8" d="M41.88,72.3l-.44.19H5.58l-.44-.19c0-.52,0-1,0-1.54,0-1.15.15-2.24.29-3.23a20.17,20.17,0,0,1,.44-2.38c.06-.34.15-.66.23-1s.25-.86.39-1.28.24-.65.36-1a18,18,0,0,1,1.21-2.45,13.64,13.64,0,0,1,2.63-3.23,11.49,11.49,0,0,1,2.21-1.6.09.09,0,0,0,.05,0h0a9,9,0,0,0,1.46,1.64c.85.84,2.08,1.93,3.64,3.23.1.07.21.18.32.26a7.56,7.56,0,0,0,10.17,0c.11-.08.22-.19.32-.26,1.58-1.3,2.8-2.39,3.65-3.23A9,9,0,0,0,34,54.6h0l.06,0a11.49,11.49,0,0,1,2.21,1.6,13.64,13.64,0,0,1,2.63,3.23,16,16,0,0,1,1.2,2.45c.12.32.25.64.36,1s.28.84.4,1.28.16.64.24,1c.17.75.31,1.53.42,2.38s.24,2.08.29,3.23C41.86,71.25,41.88,71.78,41.88,72.3Z"/><path class="cls-9" d="M14.46,56.24c.85.84,2.08,1.93,3.64,3.23h-10a13.64,13.64,0,0,1,2.63-3.23Z"/><path class="cls-9" d="M38.94,59.47h-10c1.58-1.3,2.8-2.39,3.65-3.23h3.75A13.64,13.64,0,0,1,38.94,59.47Z"/><path class="cls-9" d="M23.21,63.62a3.84,3.84,0,1,0,0,7.68,3.68,3.68,0,0,0,.89-.11h0a3.84,3.84,0,0,0,2.68-2.27l.15-.44a3.8,3.8,0,0,0,.13-1A3.84,3.84,0,0,0,23.21,63.62Z"/><path class="cls-10" d="M24.9,67.46A1.9,1.9,0,0,0,23.33,66h-.16c-.23,0-.44.15-.44.34v0a2,2,0,0,1,.68.2h0l.12.06a2,2,0,0,1,.88.88,2.62,2.62,0,0,0-1.09-.82,2.89,2.89,0,0,0-.35-.11.8.8,0,0,0-.15,0h0c-.17-.06-.17.1-.18.22s0,.16-.11.14-.11,0-.17.11l-.49.7a1,1,0,0,0-.1.16c-.4.22-.18.35-.16.36h0s.08,0,.08,0a.54.54,0,0,1,.07.12.2.2,0,0,1,0,.07,0,0,0,0,1,0,0c0,.14-.07.29,0,.39h0l0,0h0l0,0a.05.05,0,0,0,0,0,.06.06,0,0,0,.06,0,.18.18,0,0,0,.13-.06h0c.07-.09,0-.25,0-.4h0a.2.2,0,0,1,.1-.24.06.06,0,0,1,.07,0,.08.08,0,0,1,0,.09h0c0,.06,0,.13,0,.17h.07l.06,0h0a.22.22,0,0,0,0-.18h0s0-.08,0-.09h.05l0,0h0s0,0,0-.09a.07.07,0,0,1,0,.07h0a.17.17,0,0,0,0,.12h.05l0,0h0s0-.09,0-.13h0a.06.06,0,0,1,0-.06s.06,0,.09,0,0,0,0,0h0a.2.2,0,0,0,0,.17h.06s0,0,.05,0h0s0-.12,0-.18h0a.09.09,0,0,1,0-.1h0l.24,0c.59,0,1-.09,1.32-.14C25,67.82,24.9,67.49,24.9,67.46ZM22.25,68c-.08,0-.17,0-.19,0s0-.12.13-.15.18,0,.2,0S22.34,67.94,22.25,68Zm.7-1.16c.13,0,.22.09.21.16s-.13.11-.25.09-.22-.1-.21-.17S22.82,66.79,23,66.81Zm.05.9c-.2.08-.4.05-.44-.07s.09-.26.3-.33.4,0,.44.07S23.21,67.64,23,67.71Zm.83.15c-.12,0-.23,0-.26,0s.06-.16.18-.2.24,0,.26,0S24,67.82,23.83,67.86Z"/></g></g></svg>