<svg xmlns="http://www.w3.org/2000/svg" viewBox="0 0 47.58 77.15"><defs><style>.cls-1{fill:#dcc5a1;}.cls-2{fill:#edd9b4;}.cls-3,.cls-6{fill:#bc9f82;}.cls-3{opacity:0.7;}.cls-4{fill:#fdfbf8;}.cls-5{fill:#ccad8b;}.cls-7{fill:#d9bf9f;}.cls-8{fill:#b47070;}.cls-9{fill:#c17874;}.cls-10{fill:#442c38;}</style></defs><title>Ativo 77avatar</title><g id="Camada_2" data-name="Camada 2"><g id="Objects"><path class="cls-1" d="M23.45,44V77.15H5.38L4.94,77C4.94,59.2,16,57.87,16,57.87h.09a1.14,1.14,0,0,0,.24,0c.91-.26,1.53-1.59,2-3.51a10.15,10.15,0,0,0,.19-1c.1-.6.19-1.24.25-1.92,0-.4.08-.8.11-1.22.17-2,.22-4.24.22-6.34C19.05,43.79,21.48,44,23.45,44Z"/><path class="cls-2" d="M42,77s-.16.06-.43.19H23.45V44h0c2,0,4.41-.24,4.41-.24,0,2.08.05,4.27.21,6.29,0,.4.08.8.11,1.2.08.69.16,1.35.26,2h0c0,.28.09.53.14.78.38,1.86.94,3.22,1.75,3.68a1.34,1.34,0,0,0,.18.07,1,1,0,0,0,.41.08S42,59.2,42,77Z"/><path class="cls-3" d="M28.47,53.25h0a5.82,5.82,0,0,1-5,2.72h0a6.3,6.3,0,0,1-5-2.7c.1-.61.18-1.25.25-1.92,0-.41.08-.81.11-1.23a19.86,19.86,0,0,0,4.56.6h.05a19.14,19.14,0,0,0,4.67-.65c0,.41.07.81.11,1.2C28.3,52,28.37,52.63,28.47,53.25Z"/><path class="cls-4" d="M34.4,69.16a6.27,6.27,0,0,1-2.86-5.91h0s0,0,0,0c0-.28,1.21-4.84,1.21-4.84a14,14,0,0,0-1.9-.55c-1.25.69-1.27,4.63-1.27,4.63h0c-.21,1.47-.42,4.14-.68,4.87-2.88,7.83-8.07,8-10.85,0a39.3,39.3,0,0,1-.66-4.43h0s-.15-5.22-1-5.08a20.49,20.49,0,0,0-2.65.78c1.21,1,1.64,4.18,1.7,4.65h0a6.27,6.27,0,0,1-2.86,5.91c-5.31,3.52-3.78,6.77-2.91,8H37.3C38.18,75.93,39.71,72.68,34.4,69.16Z"/><path class="cls-5" d="M23.43,8.45c-18.86,0-19,15.06-18.12,24.91C4,31.05.19,31.91.5,35.6s5.7,5.15,5.63,4.76c1.54,8,10.43,12.48,17.3,13.11h.15v-45Z"/><path class="cls-6" d="M1.45,34a1.87,1.87,0,0,1,2.76-.5,1.45,1.45,0,0,1,.45,1.64c-.14.48-.66.52-.53,1.24a1.29,1.29,0,0,0,.76,1,1.75,1.75,0,0,1,.65.67,1.72,1.72,0,0,1,.08,1c-.14.59-1,.12-1.65-.14A11.73,11.73,0,0,1,2,37.5,3.13,3.13,0,0,1,1.45,34Z"/><path class="cls-7" d="M23.53,8.45c18.85,0,19,15.06,18.12,24.91,1.29-2.31,5.12-1.45,4.81,2.24s-5.71,5.15-5.63,4.76c-1.55,8-10.43,12.48-17.3,13.11h-.15v-45Z"/><path class="cls-6" d="M45.64,34a1.87,1.87,0,0,0-2.76-.5,1.45,1.45,0,0,0-.45,1.64c.14.48.67.52.54,1.24a1.28,1.28,0,0,1-.77,1,1.75,1.75,0,0,0-.65.67,1.72,1.72,0,0,0-.08,1c.15.59,1.05.12,1.65-.14a11.35,11.35,0,0,0,2-1.52A3.13,3.13,0,0,0,45.64,34Z"/><path class="cls-1" d="M23.33,12.72c-6.29,0-10.9,1.73-13.69,5.15-3.9,4.77-3.75,12.05-2.31,17.28.43,1.6.66,5.91,1,7.49,1.36,7.08,9.61,10.84,15,10.84h.15V12.72Z"/><path class="cls-2" d="M37,17.87c-2.77-3.39-7.32-5.12-13.52-5.15V53.48c6.2-.06,13.61-4.19,14.89-10.84.3-1.58.52-5.89,1-7.49C40.77,29.94,40.91,22.66,37,17.87Z"/><path class="cls-8" d="M26.65,47.09a5,5,0,0,1-3.18,1.52,4.77,4.77,0,0,1-3.1-1.49,20.5,20.5,0,0,1,3.1-.23A25.43,25.43,0,0,1,26.65,47.09Z"/><path class="cls-9" d="M24.37,46.39a.83.83,0,0,0-.9.69.83.83,0,0,0-.9-.69,12.93,12.93,0,0,0-2.28.7s1.74.18,2.24.18.93.2.94-.17c0,.37.37.22.86.22s2.32-.23,2.32-.23A12.66,12.66,0,0,0,24.37,46.39Z"/><path class="cls-10" d="M36.44,15.27c-1.66,2.91-1.2,6.21-6.83,8.37S21.44,26.39,15.3,29C1.37,34.91,8.52,48.61,8.52,48.61s-3.81-3.53-5.2-7.19-6.72-19.65,0-32.28C7,2.21,13.84.62,19.84.15s10.28,0,14.62,3.79c.94.81,3.66,1,6.63,3,6.65,4.46,6.11,11,6.4,15.23A30.12,30.12,0,0,1,45.76,35c-1.3,3.67-9.13,14.5-9.13,14.5s6.1-13.23,2.71-21.83c-2-5-5.53-4.76-5.68-6.71S36.44,15.27,36.44,15.27Z"/></g></g></svg>