<svg xmlns="http://www.w3.org/2000/svg" viewBox="0 0 55.21 79.61"><defs><style>.cls-1{fill:#3b2b16;}.cls-2{fill:#dcc5a1;}.cls-3{fill:#edd9b4;}.cls-4,.cls-6{fill:#bc9f82;}.cls-4{opacity:0.7;}.cls-5{fill:#ccad8b;}.cls-7{fill:#d9bf9f;}.cls-8{fill:#b47070;}.cls-9{fill:#c17874;}.cls-10{fill:#4d1913;}.cls-11{fill:#fdfbf8;}.cls-12{fill:#d7d8dc;}.cls-13{fill:#434142;}</style></defs><title>Ativo 81avatar</title><g id="Camada_2" data-name="Camada 2"><g id="Objects"><path class="cls-1" d="M26.56,34.31a41.5,41.5,0,0,1-3.48,8.88c-1.74,3.09-7,7.07-7.2,11.3-.39,9.09,12.53,13.41,17.74,15s7,1.7,7.53,3.94a20.43,20.43,0,0,1,.11,6s4.38-2.39,5.63-4.22c2.66-3.94-.26-6.62-.26-6.62s-1.08.93.2,3,1.27,3.94.81,4.48-2.09,2.24-2.09,2.24S53.61,76,52,69.45c-.27-1.12-1-.3,0,0,2.24.66,1.82,4.35,1.82,4.35s5.46-7-5.6-11c-1.06-.38-6.75-1.78-7.34-6.48-.33-2.6,1.58-2.83,1.93-6,.45-4.12-5.46-3.25-7.74-7.13-.43-.74,1.71-1.15,0-3.16-2.06-2.42-2.82-2.23-5.78-3.66S26.56,34.31,26.56,34.31Z"/><path class="cls-2" d="M24.37,44.47V79.61H5.2a3.9,3.9,0,0,0-.47-.2,28.89,28.89,0,0,1,2.2-12,14.22,14.22,0,0,1,7.49-7.65,8.08,8.08,0,0,1,2-.6h.1a1.11,1.11,0,0,0,.25,0c1-.28,1.63-1.69,2.07-3.73.08-.36.15-.71.2-1.09.11-.65.2-1.33.27-2.05,0-.42.08-.84.12-1.29.18-2.17.23-4.52.23-6.73C19.7,44.21,22.29,44.47,24.37,44.47Z"/><path class="cls-3" d="M44.08,79.41a2.52,2.52,0,0,0-.46.2H24.37V44.47h0c2.08,0,4.67-.26,4.67-.26,0,2.21.06,4.54.23,6.68,0,.42.09.85.12,1.27.09.74.17,1.43.27,2.07v0c0,.3.1.56.15.83.4,2,1,3.42,1.86,3.9a.7.7,0,0,0,.2.08,1,1,0,0,0,.43.08s5.93.71,9.36,7.88A28.54,28.54,0,0,1,44.08,79.41Z"/><path class="cls-4" d="M29.7,54.25h0a6.19,6.19,0,0,1-5.31,2.88h0a6.67,6.67,0,0,1-5.29-2.87c.11-.64.2-1.32.27-2l.12-1.3a21.62,21.62,0,0,0,4.84.63h.06a20.32,20.32,0,0,0,4.94-.68c0,.42.09.85.12,1.27C29.52,52.9,29.59,53.59,29.7,54.25Z"/><path class="cls-5" d="M24.35,6.7c-20,0-20.12,16-19.23,26.44C3.75,30.69-.31,31.6,0,35.52c.32,3.76,6.05,5.47,6,5,1.64,8.51,11.07,13.24,18.36,13.91h.16V6.7Z"/><path class="cls-6" d="M1,33.86A2,2,0,0,1,4,33.33a1.55,1.55,0,0,1,.47,1.75c-.14.5-.7.54-.56,1.31a1.37,1.37,0,0,0,.81,1.11,2,2,0,0,1,.69.71,1.77,1.77,0,0,1,.08,1.08c-.15.63-1.11.13-1.75-.14a12.81,12.81,0,0,1-2.1-1.62A3.32,3.32,0,0,1,1,33.86Z"/><path class="cls-7" d="M24.45,6.7c20,0,20.12,16,19.24,26.44,1.37-2.45,5.42-1.54,5.09,2.38-.32,3.76-6.05,5.47-6,5-1.64,8.51-11.07,13.24-18.36,13.91H24.3V6.7Z"/><path class="cls-6" d="M47.92,33.86A2,2,0,0,0,45,33.33a1.54,1.54,0,0,0-.48,1.75c.14.5.71.54.57,1.31a1.36,1.36,0,0,1-.82,1.11,1.55,1.55,0,0,0-.77,1.79c.15.63,1.11.13,1.75-.14a12.4,12.4,0,0,0,2.1-1.62A3.3,3.3,0,0,0,47.92,33.86Z"/><path class="cls-2" d="M24.24,11.24c-6.68,0-11.57,1.84-14.53,5.46C5.58,21.76,5.73,29.49,7.26,35c.47,1.7.71,6.27,1,8,1.44,7.51,10.19,11.5,16,11.5h.16V11.24Z"/><path class="cls-3" d="M38.75,16.71C35.81,13.1,31,11.27,24.4,11.24V54.49C31,54.42,38.85,50,40.2,43c.32-1.68.56-6.25,1-8C42.75,29.51,42.9,21.79,38.75,16.71Z"/><path class="cls-8" d="M27.76,47.71a5.33,5.33,0,0,1-3.37,1.61,5,5,0,0,1-3.28-1.58,21.84,21.84,0,0,1,3.28-.24A27.3,27.3,0,0,1,27.76,47.71Z"/><path class="cls-9" d="M25.35,47a.87.87,0,0,0-1,.73.86.86,0,0,0-.95-.73,13.49,13.49,0,0,0-2.42.74s1.84.19,2.37.19,1,.21,1-.18c0,.39.39.24.91.24s2.46-.25,2.46-.25A13.34,13.34,0,0,0,25.35,47Z"/><path class="cls-10" d="M46.07,17.7c-.26-.83-.53-1.6-.81-2.33v-.32c0-3.12-2.55-7.16-6.6-11.08s-6.61-3.12-10-3a.15.15,0,0,1,0,.06C27.19.69,19.27-1,14.55.87,9.34,3,5.07,6.52,2.06,16.1s-.54,17.43,0,20.77C4,47.48,12.83,54.19,12.83,54.19a23.31,23.31,0,0,1-3.25-5.66A33.26,33.26,0,0,1,7.65,37c0-5.54,5.06-12.4,5.06-12.4a27,27,0,0,0-2.8,9,14,14,0,0,0,2,8.39s-3.1-6.15,1.86-10.73a36.6,36.6,0,0,0,4-4.38h0A7.47,7.47,0,0,0,19,33.64s0-4.65,2.54-6.23c6.3-3.85,7.3-5.44,8.19-8.54a8.09,8.09,0,0,0,.24-1.19l5.76,9c.27.39.71,1.05,1.22,1.9,1.49,2.49,3.56,6.56,3.56,10.1a33,33,0,0,1-1.94,11.49,23.44,23.44,0,0,1-3.24,5.66S44.18,49.08,46,38.47C46.61,35.13,49.08,27.28,46.07,17.7Z"/><path class="cls-11" d="M39.22,61.21c-2.58-1.23-5.64-2-5.48-1.64,1.67,2.34,1,4.31.77,7.67-.42,5.23-3.84,4-10.18,3.89s-9.75,1.34-10.18-3.89c-.27-3.36-.9-5.33.78-7.67.16-.37-2.9.41-5.49,1.64a27.17,27.17,0,0,0-4.68,2.91,4.76,4.76,0,0,1,2.72,3,24.66,24.66,0,0,1,.79,5.3c.28,4,2.3,5.83,2.19,7.18H38.21c-.12-1.35,1.91-3.16,2.19-7.18a24.73,24.73,0,0,1,.78-5.3,4.76,4.76,0,0,1,2.73-3A27.51,27.51,0,0,0,39.22,61.21Z"/><path class="cls-12" d="M21.55,59.55c.3,4.54-1.69,9.69-2.14,11.17A18.13,18.13,0,0,1,17.23,75s1.71.16,2,.15,2.49.56,3.06-1.14a126.05,126.05,0,0,0,2.56-13c-.18-.28-.71-1.42-.71-1.42Z"/><path class="cls-13" d="M18.54,55.59a16.82,16.82,0,0,0,5.94,1.18,49,49,0,0,0,6.05-.85s1.69,2,.27,2.77-10.36,2-13.22-.14C17.13,58.2,18.54,55.59,18.54,55.59Z"/><path class="cls-13" d="M22.71,56.66a7.59,7.59,0,0,1,1.94,0c.72,0,1-.22,1.62,0s1,1.94,1,2.21,0,.85-.29.88,0,1.64.05,2.35c.79,12.29-1,15.39-1.42,15.61s-6.79.39-6.79.39,1.75-3.9,2.42-6a52.54,52.54,0,0,0,2-12s-.75.23-.75-.43S22.1,57.08,22.71,56.66Z"/></g></g></svg>