<svg xmlns="http://www.w3.org/2000/svg" viewBox="0 0 45.99 72.03"><defs><style>.cls-1{fill:#ccad8b;}.cls-2{fill:#d9bf9f;}.cls-3{fill:#dcc5a1;}.cls-4{fill:#edd9b4;}.cls-5,.cls-9{fill:#bc9f82;}.cls-5{opacity:0.7;}.cls-6{fill:#381c16;}.cls-7{fill:#cd6c13;}.cls-8{fill:#eff1f0;}.cls-10{fill:#611413;}.cls-11{fill:#81181a;}</style></defs><title>Ativo 46avatar</title><g id="Camada_2" data-name="Camada 2"><g id="Objects"><path class="cls-1" d="M23,3.25C4.09,3.22,4,18.32,4.82,28.16,3.53,25.85-.3,26.71,0,30.41c.3,3.54,5.7,5.15,5.63,4.76,1.54,8,10.43,12.48,17.3,13.11h.14v-45Z"/><path class="cls-2" d="M23,3.25c18.86,0,19,15.07,18.13,24.91,1.29-2.31,5.12-1.45,4.8,2.25-.3,3.54-5.7,5.15-5.63,4.76-1.54,8-10.43,12.48-17.3,13.11H22.9v-45Z"/><path class="cls-3" d="M23,38.92V72H4.9l-.44-.19c0-17.76,11.06-19.09,11.06-19.09h.09a1.14,1.14,0,0,0,.24,0c.91-.25,1.53-1.59,2-3.51,0-.15.06-.3.09-.45s.07-.38.1-.58c.1-.61.19-1.25.25-1.92L18.36,45c.16-2,.21-4.25.21-6.34C18.57,38.68,21,38.92,23,38.92Z"/><path class="cls-4" d="M41.54,71.84l-.43.19H23V38.92h0c2,0,4.4-.24,4.4-.24,0,2.08.06,4.26.22,6.28,0,.41.08.81.11,1.2.08.7.16,1.36.26,2v0c0,.14,0,.26.06.39s.05.26.08.39c.38,1.86.94,3.22,1.75,3.67a.64.64,0,0,0,.19.08,1.05,1.05,0,0,0,.4.07S41.54,54.08,41.54,71.84Z"/><path class="cls-5" d="M28,48.14h0a5.82,5.82,0,0,1-5,2.71h0a6.3,6.3,0,0,1-5-2.7c.1-.61.19-1.25.26-1.92,0-.4.07-.81.11-1.22a20.44,20.44,0,0,0,4.56.59H23A19.15,19.15,0,0,0,27.63,45c0,.4.07.8.11,1.2C27.82,46.86,27.89,47.52,28,48.14Z"/><path class="cls-6" d="M41.58,71.84a4.19,4.19,0,0,0-.43.19H4.94l-.45-.19A28.5,28.5,0,0,1,6,61.92c4.06-2.78,12.45-2.74,17,1.74,0,0,7-5.72,14.11-2.71a10.75,10.75,0,0,1,3.37,2.25A30.8,30.8,0,0,1,41.58,71.84Z"/><path class="cls-7" d="M41.79,71.84l-.43.19H4.9l-.44-.19c0-18,11.13-19.34,11.13-19.34h.09a5.17,5.17,0,0,0,.55.07c.91-.25-1-.45-1.47,3.13-.39,3,1.7,5.7-.27,6.68.6.69,5.54,4.94,7.25,4.87h2.55c1.72.07,6.82-4.28,7.41-5-2-1,.36-3.71-.28-6.68s-1.31-3-1.24-3,.33,0,.48,0S41.79,53.85,41.79,71.84Z"/><path class="cls-6" d="M29.48,54.09c-.17-.19-.32-.39-.46-.58.58-.32,1.3-.54,1.52-.92l-.42-.19-.19-.08c-.81-.46-1.37-1.82-1.75-3.67a1.7,1.7,0,0,0,0-.22l-.09-.06a3,3,0,0,1-1.77,1.3h0a9.74,9.74,0,0,1-3.24.47A19.59,19.59,0,0,1,20.43,50h0c-1.71-.24-2.3-.89-2.51-1.28a1.55,1.55,0,0,1-.05.23,2.86,2.86,0,0,1-.1.42,6.25,6.25,0,0,1-1.51,3.24,2.43,2.43,0,0,0,1.08.86,4.83,4.83,0,0,1-.5.64A11.55,11.55,0,0,0,15,56.19s.93-.75,1.4-.39a1.68,1.68,0,0,1,.56.94,7.22,7.22,0,0,0,1.42-2.88,15.24,15.24,0,0,0,4.65.57,33.77,33.77,0,0,0,3.49-.22A7.82,7.82,0,0,0,28,53.94a7.43,7.43,0,0,0,1.41,2.82,1.61,1.61,0,0,1,.56-.94c.47-.36,1.4.39,1.4.39S31.32,56,29.48,54.09Z"/><path class="cls-8" d="M18.77,51.82l.34-.75a4.08,4.08,0,0,1-.81-.47l-.4.73.41.27A1.83,1.83,0,0,0,18.77,51.82Z"/><path class="cls-8" d="M20.26,52.25l.22-.79s-.94-.2-.93-.22l-.31.76S20.26,52.25,20.26,52.25Z"/><polygon class="cls-8" points="21.8 52.47 21.91 51.66 20.94 51.54 20.77 52.34 21.8 52.47"/><polygon class="cls-8" points="23.36 52.52 23.37 51.71 22.39 51.68 22.31 52.49 23.36 52.52"/><polygon class="cls-8" points="24.91 52.43 24.84 51.63 23.86 51.68 23.86 52.49 24.91 52.43"/><polygon class="cls-8" points="26.45 52.21 26.3 51.42 25.32 51.56 25.41 52.37 26.45 52.21"/><polygon class="cls-8" points="27.97 51.85 27.73 51.07 26.78 51.33 26.95 52.11 27.97 51.85"/><path class="cls-9" d="M1,28.92a1.87,1.87,0,0,1,2.76-.5,1.47,1.47,0,0,1,.45,1.65c-.14.47-.67.51-.53,1.23a1.26,1.26,0,0,0,.76,1.05c.22.19.51.33.65.67a1.72,1.72,0,0,1,.08,1c-.15.59-1,.12-1.65-.14a11.35,11.35,0,0,1-2-1.52A3.09,3.09,0,0,1,1,28.92Z"/><path class="cls-9" d="M45.16,28.92a1.87,1.87,0,0,0-2.76-.5A1.47,1.47,0,0,0,42,30.07c.13.47.66.51.53,1.23a1.27,1.27,0,0,1-.76,1.05c-.23.19-.51.33-.65.67A1.65,1.65,0,0,0,41,34c.14.59,1,.12,1.65-.14a11.28,11.28,0,0,0,2-1.52A3.11,3.11,0,0,0,45.16,28.92Z"/><path class="cls-3" d="M22.85,7.6c-6.3,0-10.91,1.73-13.7,5.15C5.26,17.51,5.41,24.8,6.85,30c.43,1.61.66,5.91,1,7.5,1.36,7.07,9.61,10.84,15,10.84H23V7.6Z"/><path class="cls-4" d="M36.52,12.76C33.75,9.36,29.19,7.63,23,7.6V48.36c6.2-.06,13.61-4.19,14.89-10.83.3-1.59.52-5.89,1-7.5C40.29,24.81,40.43,17.54,36.52,12.76Z"/><path class="cls-6" d="M26.17,42A5,5,0,0,1,23,43.49,4.74,4.74,0,0,1,19.89,42a20.33,20.33,0,0,1,3.1-.23A27,27,0,0,1,26.17,42Z"/><path class="cls-10" d="M23.89,41.27A.83.83,0,0,0,23,42a.83.83,0,0,0-.9-.69,12.66,12.66,0,0,0-2.28.7s1.74.19,2.23.19.94.19.95-.18c0,.37.36.23.86.23S26.17,42,26.17,42A12.93,12.93,0,0,0,23.89,41.27Z"/><path class="cls-11" d="M43.24,16.15a16.57,16.57,0,0,0-1.35-2.83A13.39,13.39,0,0,0,41,12.07c-.15-.27-.34-.6-.57-1l.43.13a4.7,4.7,0,0,0,1.29,0A3.64,3.64,0,0,0,43.32,11a3.89,3.89,0,0,0,1-.48c.57-.4.89-.66.89-.66l-.74.05c-.24.07-.47-.06-.77-.06a4.59,4.59,0,0,1-.94-.26c-.34-.08-.65-.33-1-.46s-.72-.42-1.06-.7a13.11,13.11,0,0,1-1.09-.83c-.39-.24-.72-.61-1.1-.9-.72-.59-1.42-1.22-2.08-1.82-1.48-1.35-7-3.1-9-3.1-.46,0-.87,0-1.25,0A10.84,10.84,0,0,0,19.81,0C6.43,0,2.76,8.85,1.41,13.42a24.11,24.11,0,0,0-.76,5.2,81.49,81.49,0,0,0,.1,8.66S4.22,27.6,4,30c-.37,4.43,5.59,7.34,6.24,7.67A9.38,9.38,0,0,1,8,26.89c.44-1,1.07-2.75,1.61-4.28s1-2.88,1-2.88l-.14,2.59-.12,2.35L12.64,24l.3-2.43.32-2.56v2.49l0,2.19,4.42-1,.33-2,.66-3.91.28,3.82.18,2.53s3.32-.09,3.41-.36.15-1.29.22-2.29.13-1.65.13-1.65l.27,1.66.45,1.58H30.4c2.91-8.5,2.79-4.31,2.59.77,0,0,0,0,0,0-.11,1.75-.14,5.66-.15,8.29,0,.23,0,.54,0,1,0,7.52,1.19,5.72,1.27,11.59,0,3.71-.7,5.34-.91,5.72.44-.76,3.33-6.05,4.76-15.07a13.26,13.26,0,0,1,.35,6.16,25.69,25.69,0,0,1-1.14,4.53A32.76,32.76,0,0,0,40.62,36c1.15-.47,2.75-2.12,3.54-7.33a42.46,42.46,0,0,0,.26-4.61,29.82,29.82,0,0,0-.28-4.33A21,21,0,0,0,43.24,16.15Zm-1,14.29a8,8,0,0,1-1.44,4.61,65.21,65.21,0,0,0,1.32-7.77s0,0,0-.06h.09C42.32,27.91,42.33,29.76,42.29,30.44Z"/></g></g></svg>