<svg xmlns="http://www.w3.org/2000/svg" viewBox="0 0 47.56 77.37"><defs><style>.cls-1{fill:#dcc5a1;}.cls-2{fill:#edd9b4;}.cls-3,.cls-5{fill:#bc9f82;}.cls-3{opacity:0.7;}.cls-4{fill:#ccad8b;}.cls-6{fill:#d9bf9f;}.cls-7{fill:#422e14;}.cls-8{fill:#82acc6;}</style></defs><title>Ativo 11avatar</title><g id="Camada_2" data-name="Camada 2"><g id="Objects"><path class="cls-1" d="M24.11,44.07V77.19H6.05L5.6,77c0-17.76,11.06-19.09,11.06-19.09h0c1.1,0,1.79-1.43,2.26-3.56.08-.33.14-.67.2-1,.09-.61.18-1.26.25-1.92,0-.41.07-.81.11-1.23.17-2,.21-4.24.21-6.34C19.71,43.83,22.15,44.07,24.11,44.07Z"/><path class="cls-2" d="M42.69,76.91V77l-.25.1h0l-.17.09H24.11V44.07h0c2,0,4.41-.24,4.41-.24,0,2.09.05,4.27.21,6.29l.12,1.2c.07.69.15,1.35.25,2h0c0,.28.09.53.14.78.47,2.29,1.2,3.83,2.35,3.83a9.78,9.78,0,0,1,3.63,1.44C38.48,61.34,42.66,66,42.69,76.91Z"/><path class="cls-3" d="M29.15,53.29h0a5.86,5.86,0,0,1-5,2.72h0a6.33,6.33,0,0,1-5-2.7c.1-.61.18-1.25.25-1.92,0-.41.07-.81.11-1.23a19.34,19.34,0,0,0,4.56.59h.05a18.68,18.68,0,0,0,4.67-.64c0,.41.07.81.11,1.2C29,52,29,52.67,29.15,53.29Z"/><path class="cls-4" d="M24.17,6.09C5,6.09,4.92,22.06,5.77,32.5,4.46,30,.58,30.79.89,34.69s5.8,5.7,5.72,5.27c1.57,8.6,10.57,13.57,17.56,13.57h.14V6.09Z"/><path class="cls-5" d="M2.12,33a1.81,1.81,0,0,1,2.76-.52,1.58,1.58,0,0,1,.45,1.73c-.14.5-.67.54-.53,1.3a1.34,1.34,0,0,0,.76,1.11,1.77,1.77,0,0,1,.65.7,1.9,1.9,0,0,1,.08,1.07c-.14.62-1,.13-1.65-.14a11.77,11.77,0,0,1-2-1.6A3.44,3.44,0,0,1,2.12,33Z"/><path class="cls-6" d="M24.26,6.09c19.14,0,19.25,16,18.4,26.41C44,30,47.85,30.79,47.54,34.69s-5.8,5.7-5.72,5.27c-1.57,8.6-10.57,13.57-17.56,13.57h-.15V6.09Z"/><path class="cls-5" d="M46.31,33a1.81,1.81,0,0,0-2.76-.52,1.58,1.58,0,0,0-.45,1.73c.13.5.66.54.54,1.3a1.35,1.35,0,0,1-.77,1.11,1.7,1.7,0,0,0-.65.7,1.9,1.9,0,0,0-.08,1.07c.14.62,1,.13,1.65-.14a11.39,11.39,0,0,0,2-1.6A3.44,3.44,0,0,0,46.31,33Z"/><path class="cls-1" d="M24,10.59c-6.3,0-10.9,1.82-13.69,5.42C6.41,21,6.56,28.71,8,34.22c.44,1.68.66,6.22,1,7.89,1.36,7.45,9.61,11.42,15,11.42h.15V10.6Z"/><path class="cls-2" d="M37.67,16c-2.77-3.58-7.33-5.39-13.52-5.42V53.52c6.2-.07,13.61-4.42,14.89-11.41.3-1.67.52-6.21,1-7.89C41.44,28.73,41.58,21.06,37.67,16Z"/><path class="cls-7" d="M42.05,7.84a11.26,11.26,0,0,0-4.3-2.39S32.44,2.8,28.39.91s-10.62-.38-14,.5S6.87,7.13,5.6,9.78,1.2,18.18.18,22.33s2.39,8.2,4.51,9.06c1.38.56,1.47,3.79,1.47,3.79l1.51.66a11.69,11.69,0,0,1-.79-4.53c.09-1.52-.16-6.08-.16-6.08S13.21,24,18,22.66c-1.61,2-2.94,3.31-2.94,3.31a17.46,17.46,0,0,0,6.8-4.31,53.3,53.3,0,0,1-5.17,6.23,18.19,18.19,0,0,0,8.53-6.28A50,50,0,0,1,18.66,30c9-3,12.21-12.69,12.62-14.07l.08-.07a15.06,15.06,0,0,1,5.4,2.68c2.39,1.77,5.34,4.22,5.34,9.52,0,1.78-.8,6.93-.8,6.93l.8-.56a4,4,0,0,1,2.26-3.25c1.81-1,2.27-4.4,2.27-5.8C46.63,16,44,9.6,42.05,7.84Z"/><path class="cls-7" d="M31.9,48.69A5.21,5.21,0,0,0,31.06,46a5.18,5.18,0,0,0-.49-.37c-.33-.23-.8-.56-1.41-.91a14.23,14.23,0,0,0-2.57-1.34,5.64,5.64,0,0,0-.94-.25A15.65,15.65,0,0,0,23.76,43h0a15.65,15.65,0,0,0-1.89.12,5.28,5.28,0,0,0-.93.25,13.58,13.58,0,0,0-2.57,1.34c-.61.35-1.09.68-1.42.91s-.48.36-.49.37a5.4,5.4,0,0,0-.84,2.66c0,.13,0,.26,0,.4a5.53,5.53,0,0,0,.7,2.78,2.15,2.15,0,0,0,.64.85,2.77,2.77,0,0,0,1,.61,14.54,14.54,0,0,0,5.85,1.12h0a14.5,14.5,0,0,0,5.85-1.12,2.77,2.77,0,0,0,1-.61,2.09,2.09,0,0,0,.65-.85,5.64,5.64,0,0,0,.69-2.78C31.93,49,31.91,48.82,31.9,48.69Zm-5.26,1.84h-5.8c-2.7.06-3.27-1-3.34-1.6a4.58,4.58,0,0,1,0-.53,8.57,8.57,0,0,1,5-2.27,9.81,9.81,0,0,1,2.34,0,8.57,8.57,0,0,1,5,2.27,3.08,3.08,0,0,1,0,.53C29.91,49.58,29.34,50.59,26.64,50.53Z"/><path class="cls-8" d="M32.52,57.28a1.35,1.35,0,0,1-.72-.43A15,15,0,0,0,30.44,55l-.13-.13L30.11,56,24.2,59l-5.82-2.81-.29-1.34L18,55c-.78.9-2.13,2.38-2.12,2.33C13.7,57.78,4.8,60.85,4.8,77.17l.45.2H43.16l.46-.2C43.62,60.85,34.71,57.78,32.52,57.28Z"/><path class="cls-7" d="M21.31,67.45a3.21,3.21,0,1,1-3.21-3.2A3.2,3.2,0,0,1,21.31,67.45Z"/><path class="cls-7" d="M35.35,63.8a2,2,0,1,1-2-2A2,2,0,0,1,35.35,63.8Z"/><path class="cls-7" d="M26.19,66.23a1.07,1.07,0,1,1-1.06-1.07A1.06,1.06,0,0,1,26.19,66.23Z"/><path class="cls-7" d="M37.8,72.32a1.68,1.68,0,1,1-1.68-1.68A1.68,1.68,0,0,1,37.8,72.32Z"/><path class="cls-7" d="M10.62,73.69a1.83,1.83,0,1,1-1.83-1.83A1.83,1.83,0,0,1,10.62,73.69Z"/><path class="cls-7" d="M28.33,72.77A2.75,2.75,0,1,1,25.58,70,2.75,2.75,0,0,1,28.33,72.77Z"/></g></g></svg>