<svg xmlns="http://www.w3.org/2000/svg" xmlns:xlink="http://www.w3.org/1999/xlink" viewBox="0 0 52.23 80.32"><defs><style>.cls-1{fill:none;}.cls-2{fill:#dcc5a1;}.cls-3{fill:#edd9b4;}.cls-4{clip-path:url(#clip-path);}.cls-5{fill:#bc9f82;}.cls-6{fill:#b44175;}.cls-7{fill:#f8f7e0;}.cls-8{fill:#ccad8b;}.cls-9{fill:#d9bf9f;}.cls-10{fill:#b47070;}.cls-11{fill:#c17874;}.cls-12{fill:#444e53;}</style><clipPath id="clip-path"><rect class="cls-1" x="20.43" y="49.58" width="11.36" height="6.69"/></clipPath></defs><title>Ativo 23avatar</title><g id="Camada_2" data-name="Camada 2"><g id="Objects"><path class="cls-2" d="M26.09,42.7V80.32H5.57l-.5-.22a36.57,36.57,0,0,1,.27-4.73c1.77-15.69,12.28-17,12.28-17h.1a2.3,2.3,0,0,0,.28-.06c1-.28,1.74-1.81,2.22-4q0-.07,0-.18l.08-.37c0-.21.07-.4.1-.62.12-.69.22-1.43.29-2.18,0-.46.08-.92.13-1.39.18-2.31.24-4.82.24-7.2,0,0,2.76.27,5,.27Z"/><path class="cls-3" d="M47.17,80.11a4.11,4.11,0,0,0-.48.21H26.09V42.7h0c2.22,0,5-.27,5-.27,0,2.37.05,4.85.24,7.14,0,.46.09.92.13,1.37.08.78.17,1.53.28,2.24h0c.05.32.11.61.16.89.44,2.11,1.07,3.67,2,4.18.07,0,.15.07.21.08a1.25,1.25,0,0,0,.46.09s12.56,1.5,12.56,21.69Z"/><g class="cls-4"><path class="cls-5" d="M31.79,53.18h0a6.63,6.63,0,0,1-5.68,3.09h0a7.14,7.14,0,0,1-5.65-3.08c.12-.68.21-1.42.28-2.17.05-.46.09-.93.14-1.39a22.68,22.68,0,0,0,5.17.67h.06a21.2,21.2,0,0,0,5.3-.73c0,.46.08.92.12,1.36.09.79.18,1.54.29,2.24"/></g><path class="cls-6" d="M27.53,66.44v.24c0,4-.07,11.38-.08,13.64H9.31l-.39-4.74s-2.33-.15-3.58-.21c-.06,0-.18-.23-.29-.62a2.14,2.14,0,0,1-.1-.37c-.61-2.27-1.32-8,1.37-12.19.88-1.38,3.77-2.11,3.77-2.11A10.49,10.49,0,0,1,15,58.6a9.74,9.74,0,0,0,3.08-.41.92.92,0,0,0,.29-.23,3,3,0,0,0,.43-.69,17.55,17.55,0,0,0,.89-2.44c.06-.18.1-.35.16-.51v0c.1-.3.19-.48.27-.48h.22l-.08.37a5.41,5.41,0,0,0,2.25,2.08c1.63.86,2.17.76,2.89,2.15a13,13,0,0,1,.7,4.22c0,.31,0,.59,0,.84s0,.29,0,.4,0,.17,0,.23,1.26.92,1.39,2.11a.78.78,0,0,1,0,.22Z"/><path class="cls-6" d="M46.82,75.37c-1.26,0-3.59.21-3.59.21l-.39,4.74H24.7c0-1.92,0-7.51-.06-11.59v-.45c0-.67,0-1.31,0-1.84,0-1.31,1.41-2.19,1.41-2.33s0-.77,0-1.47a12.75,12.75,0,0,1,.7-4.22c.71-1.39,1.26-1.29,2.88-2.15a5.22,5.22,0,0,0,2.24-2.08l-.07-.37H32c.26,0,.58,1.92,1.32,3.45a3.82,3.82,0,0,0,.43.69,1,1,0,0,0,.28.23c.47.26,1.24.27,3.09.41a10.42,10.42,0,0,1,4.89,1.48s2.9.73,3.78,2.11c3.41,5.32,1.34,13.14,1,13.18Z"/><polygon class="cls-7" points="22.04 65.55 21.84 65.25 19.54 66.82 17.24 65.25 17.04 65.55 19.22 67.04 17.04 68.53 17.24 68.82 19.54 67.25 21.84 68.82 22.04 68.53 19.86 67.04 22.04 65.55"/><polygon class="cls-7" points="36.24 65.55 36.03 65.25 33.74 66.82 31.45 65.25 31.24 65.55 33.42 67.04 31.24 68.53 31.45 68.82 33.74 67.25 36.03 68.82 36.24 68.53 34.06 67.04 36.24 65.55"/><polygon class="cls-7" points="31.28 71.3 28.97 73.49 26.61 71.3 24.3 73.49 21.94 71.3 19.41 73.69 19.66 73.95 21.94 71.8 24.27 73.95 24.3 73.92 24.33 73.95 26.61 71.8 28.94 73.95 28.97 73.92 29.01 73.95 31.28 71.8 33.62 73.95 33.86 73.69 31.28 71.3"/><path class="cls-8" d="M26.07,2.29C4.65,2.25,4.53,19.4,5.48,30.58,4,28-.33,28.93,0,33.13c.35,4,6.48,5.85,6.4,5.41,1.75,9.11,11.84,14.17,19.65,14.89h.15V2.29Z"/><path class="cls-5" d="M1.1,31.36a2.12,2.12,0,0,1,3.14-.57,1.66,1.66,0,0,1,.51,1.87c-.15.54-.75.58-.61,1.4A1.49,1.49,0,0,0,5,35.26a1.91,1.91,0,0,1,.74.75,2,2,0,0,1,.09,1.16c-.16.67-1.19.14-1.87-.16a12.62,12.62,0,0,1-2.25-1.73,3.51,3.51,0,0,1-.62-3.92Z"/><path class="cls-9" d="M26.18,2.29c21.4,0,21.53,17.11,20.58,28.29,1.47-2.63,5.81-1.65,5.44,2.55-.33,4-6.47,5.85-6.38,5.41C44.07,47.65,34,52.71,26.18,53.43H26V2.29Z"/><path class="cls-5" d="M51.29,31.36a2.12,2.12,0,0,0-3.14-.57,1.66,1.66,0,0,0-.51,1.87c.16.54.76.58.61,1.4a1.49,1.49,0,0,1-.87,1.2,1.82,1.82,0,0,0-.73.75,2,2,0,0,0-.1,1.16c.16.67,1.19.14,1.87-.16a12.62,12.62,0,0,0,2.25-1.73,3.55,3.55,0,0,0,.62-3.92Z"/><path class="cls-2" d="M26,7.14c-7.14,0-12.38,2-15.55,5.85C6,18.41,6.15,26.68,7.78,32.62c.5,1.82.75,6.71,1.1,8.51,1.54,8,10.9,12.31,17.07,12.31h.17V7.15Z"/><path class="cls-3" d="M41.47,13c-3.15-3.85-8.31-5.81-15.35-5.84V53.43c7-.07,15.46-4.75,16.91-12.3.35-1.8.59-6.69,1.1-8.51C45.75,26.7,45.92,18.43,41.47,13Z"/><path class="cls-10" d="M29.72,46.18a5.69,5.69,0,0,1-3.61,1.72,5.38,5.38,0,0,1-3.51-1.68A23.11,23.11,0,0,1,26.11,46a29.73,29.73,0,0,1,3.61.22Z"/><path class="cls-11" d="M27.13,45.39a.93.93,0,0,0-1,.78.92.92,0,0,0-1-.78,14.66,14.66,0,0,0-2.59.79s2,.21,2.54.21,1.06.21,1.07-.2c0,.41.41.25,1,.25s2.63-.26,2.63-.26a14.39,14.39,0,0,0-2.59-.79Z"/><path class="cls-12" d="M47.74,16.55c-.26-.78-.53-1.49-.81-2.18v-.3c0-2.91-2.54-6.69-6.57-10.36S33.78.8,30.44.9l0,.06C28.94.64,21-.94,16.34.81,11.15,2.76,6.9,6.09,3.9,15.05s-.54,16.3,0,19.43c1.84,9.91,10.69,16.19,10.69,16.19a21.88,21.88,0,0,1-3.23-5.29A29.14,29.14,0,0,1,9.47,34.63c0-5.18,5-11.59,5-11.59a24.32,24.32,0,0,0-2.78,8.45,12.51,12.51,0,0,0,2,7.85s-3.08-5.75,1.85-10a33.83,33.83,0,0,0,3.95-4.09h0a6.69,6.69,0,0,0,1.24,6.24s0-4.35,2.53-5.83c6.29-3.6,7.28-5.09,8.17-8a6.2,6.2,0,0,0,.23-1.12l5.74,8.38c.27.37.71,1,1.22,1.78,1.48,2.32,3.54,6.13,3.54,9.44a29.14,29.14,0,0,1-1.93,10.75A21.72,21.72,0,0,1,37,52.16S45.85,45.89,47.7,36C48.28,32.84,50.74,25.5,47.74,16.55Z"/></g></g></svg>