<svg xmlns="http://www.w3.org/2000/svg" viewBox="0 0 61.03 84.35"><defs><style>.cls-1{fill:#dcc5a1;}.cls-2{fill:#edd9b4;}.cls-3,.cls-6{fill:#bc9f82;}.cls-3{opacity:0.7;}.cls-4{fill:#fcfcfc;}.cls-5{fill:#ccad8b;}.cls-7{fill:#d9bf9f;}.cls-8{fill:#751819;}.cls-9{fill:#94432a;}.cls-10{fill:#fff;}</style></defs><title>Ativo 58avatar</title><g id="Camada_2" data-name="Camada 2"><g id="Objects"><path class="cls-1" d="M28.93,54.34v30H12.56l-.41-.17c0-16.1,10-17.3,10-17.3h.08l.22,0,.09,0c.72-.27,1.23-1.3,1.59-2.77,0-.11.06-.25.09-.38s0-.13,0-.2c.05-.23.09-.47.13-.72.09-.55.17-1.14.23-1.74,0-.37.07-.73.1-1.11h0C24.9,58,25,56,25,54.12,25,54.12,27.15,54.34,28.93,54.34Z"/><path class="cls-2" d="M45.76,84.18l-.38.17H28.93v-30h0c1.78,0,4-.22,4-.22,0,1.89,0,3.87.2,5.7h0c0,.37.07.74.1,1.09.07.63.14,1.22.23,1.78v0c0,.17.06.34.09.5a1.62,1.62,0,0,1,0,.19c.34,1.69.85,2.92,1.58,3.34l.14,0h0l.07,0a1,1,0,0,0,.3,0S45.76,68.08,45.76,84.18Z"/><path class="cls-3" d="M33.49,62.7h0A5.29,5.29,0,0,1,29,65.17h0a5.72,5.72,0,0,1-4.51-2.45c.09-.55.17-1.13.23-1.74,0-.36.07-.73.1-1.11a18,18,0,0,0,4.14.54h0a16.69,16.69,0,0,0,4.23-.58c0,.36.07.73.1,1.09C33.33,61.54,33.4,62.14,33.49,62.7Z"/><path class="cls-4" d="M45.76,84.18l-.38.17H12.56l-.41-.17c0-16.1,10-17.3,10-17.3h.08l.22,0,.09,0c-1,1.85-7.36,8.69,0,10.19a37.71,37.71,0,0,0,6.36.74,22.71,22.71,0,0,0,8.42-1.17c3.16-1.18-.44-7.61-2-9.76h0l.07,0a1,1,0,0,0,.3,0S45.76,68.08,45.76,84.18Z"/><path class="cls-5" d="M28.92,22.09c-17.09,0-17.19,13.66-16.43,22.58-1.17-2.09-4.63-1.32-4.35,2s5.17,4.66,5.1,4.31c1.4,7.27,9.45,11.31,15.68,11.88h.13V22.1Z"/><path class="cls-6" d="M9.06,45.26a1.68,1.68,0,0,1,2.5-.45A1.31,1.31,0,0,1,12,46.3c-.12.43-.6.46-.48,1.12a1.17,1.17,0,0,0,.69.95,1.46,1.46,0,0,1,.58.6,1.52,1.52,0,0,1,.08.93c-.13.53-.95.11-1.49-.13a10.14,10.14,0,0,1-1.8-1.38A2.82,2.82,0,0,1,9.06,45.26Z"/><path class="cls-7" d="M29,22.09c17.08,0,17.18,13.66,16.42,22.58,1.18-2.09,4.64-1.32,4.36,2s-5.17,4.66-5.1,4.31C43.29,58.29,35.23,62.33,29,62.9h-.14V22.1Z"/><path class="cls-6" d="M48.86,45.26a1.68,1.68,0,0,0-2.5-.45A1.31,1.31,0,0,0,46,46.3c.12.43.6.46.49,1.12a1.2,1.2,0,0,1-.7.95,1.55,1.55,0,0,0-.59.6,1.59,1.59,0,0,0-.07.93c.13.53,1,.11,1.5-.13a10.45,10.45,0,0,0,1.79-1.38A2.84,2.84,0,0,0,48.86,45.26Z"/><path class="cls-1" d="M28.83,26c-5.71,0-9.88,1.57-12.41,4.66C12.89,35,13,41.56,14.33,46.3c.39,1.45.6,5.35.87,6.79,1.23,6.41,8.71,9.82,13.63,9.82H29V26Z"/><path class="cls-2" d="M41.22,30.64C38.71,27.56,34.58,26,29,26V62.91c5.62-.06,12.34-3.8,13.5-9.82.27-1.44.48-5.34.87-6.79C44.63,41.57,44.76,35,41.22,30.64Z"/><path class="cls-8" d="M31.83,57.12A4.52,4.52,0,0,1,29,58.49a4.32,4.32,0,0,1-2.81-1.34A18.39,18.39,0,0,1,29,56.94,23,23,0,0,1,31.83,57.12Z"/><path class="cls-9" d="M29.77,56.48a.75.75,0,0,0-.81.63.75.75,0,0,0-.82-.63,11.38,11.38,0,0,0-2.06.64s1.57.16,2,.16.85.18.86-.15c0,.33.33.2.77.2s2.1-.21,2.1-.21A11.38,11.38,0,0,0,29.77,56.48Z"/><path class="cls-10" d="M46,41.26V31s15,.76,15-13c0,0-2-17.63-21.25-9.2,0,0-1.74-9.2-12.74-8.68,0,0-6.5-1-11.25,6.64,0,0-14.24.77-15.74,13.8,0,0-1.5,8.94,12.25,12.26L12.05,41a31.67,31.67,0,0,1,34,.25Z"/></g></g></svg>