<svg xmlns="http://www.w3.org/2000/svg" viewBox="0 0 46.05 73.7"><defs><style>.cls-1{fill:#dcc5a1;}.cls-2{fill:#edd9b4;}.cls-3,.cls-7{fill:#bc9f82;}.cls-3{opacity:0.7;}.cls-4{fill:#b9c98e;}.cls-5{fill:#536d40;}.cls-6{fill:#ccad8b;}.cls-8{fill:#d9bf9f;}</style></defs><title>Ativo 61avatar</title><g id="Camada_2" data-name="Camada 2"><g id="Objects"><path class="cls-1" d="M22.93,41V73.7H5.1l-.44-.18C4.66,56,15.57,54.68,15.57,54.68A1.42,1.42,0,0,0,16.72,54a7.62,7.62,0,0,0,1.11-2.87q.11-.48.18-1c.1-.6.19-1.23.25-1.89l.12-1.21c.16-2,.21-4.19.21-6.26C18.59,40.79,21,41,22.93,41Z"/><path class="cls-2" d="M41.25,73.52l-.42.18H22.93V41h0c1.94,0,4.36-.24,4.36-.24,0,2.05.05,4.21.21,6.21,0,.4.07.79.11,1.18.07.68.15,1.33.25,1.94v0c0,.27.09.52.14.77.36,1.78.9,3.11,1.66,3.59a1.22,1.22,0,0,0,.65.18S41.25,56,41.25,73.52Z"/><path class="cls-3" d="M27.89,50.13h0A5.76,5.76,0,0,1,23,52.82h0A6.19,6.19,0,0,1,18,50.15c.1-.6.18-1.23.25-1.89,0-.4.07-.8.11-1.21a19.9,19.9,0,0,0,4.5.59h.05a18.64,18.64,0,0,0,4.6-.64c0,.4.07.8.11,1.19C27.72,48.87,27.79,49.52,27.89,50.13Z"/><path class="cls-4" d="M41.25,73.52l-.42.18H5.1l-.44-.18C4.66,56,15.57,54.68,15.57,54.68A1.42,1.42,0,0,0,16.72,54a24.18,24.18,0,0,1,4.22-.37l1.75,3a.58.58,0,0,0,.24-.08c.91-.43,3.9-2.32,4.22-2.32a16.65,16.65,0,0,1,2.12,0,3.51,3.51,0,0,0,1.07.42S41.25,56,41.25,73.52Z"/><path class="cls-5" d="M17.11,51.84a22.33,22.33,0,0,0-.81,2.61,9.32,9.32,0,0,0,6.63,2.22s-.35-3.25-.94-3.42S17.11,51.84,17.11,51.84Z"/><path class="cls-5" d="M28.75,51.84a20.41,20.41,0,0,1,.8,2.61c-.16-.14-1.66,2.22-6.62,2.22,0,0,.34-3.25.93-3.42S28.75,51.84,28.75,51.84Z"/><path class="cls-5" d="M20.53,70.33a5,5,0,0,0,2.06,1.14c-1.13-1-1.55-2.12-.87-3.36.2.39.11.76.78,1.08a2.66,2.66,0,0,1-.3-1.32v0a2.32,2.32,0,0,1,.07-.38,4.26,4.26,0,0,1,.23-.69,1.48,1.48,0,0,0,.4,1,7.11,7.11,0,0,1,1-2.52l.38-.56s-.09.39-.12.58a3.35,3.35,0,0,0,1.8,3.9,1.93,1.93,0,0,0-.34-1.56s.63-.22,1.27,1.15h0A1.83,1.83,0,0,1,27.13,70c-.08.46-.48.85-.62,1.29a4.86,4.86,0,0,0,2.75-3.36,3.44,3.44,0,0,0-.12-2.32,4.42,4.42,0,0,0-1.39-2c.49,3.36-1.37,2.53-1.37,2.53A1.84,1.84,0,0,0,27,65a2.1,2.1,0,0,0,.06-.48v0a.49.49,0,0,0,0-.12c0-.06,0-.12,0-.18v-.11a2.81,2.81,0,0,0-1.21-1.93,2,2,0,0,1-.34,2.22s-.05-.33-.1-.57a5.45,5.45,0,0,0-1.74-2.56,12.41,12.41,0,0,0-1.89-1.3c.13.3.32.57.44.84a4.25,4.25,0,0,1,.26,3h0s-.62,3.18-1.88,3c-1.07-.22.07-2.23.08-2.26a.62.62,0,0,0,.05-.48,3.67,3.67,0,0,0-1.86,3.24,2.51,2.51,0,0,0,0,.45v0h0A4.06,4.06,0,0,0,20.53,70.33Z"/><path class="cls-6" d="M23,3.55C4.1,3.55,4,19.31,4.83,29.62,3.53,27.18-.3,27.93,0,31.78S5.73,37.4,5.66,37C7.2,45.46,16.09,50.36,23,50.36h.15V3.56Z"/><path class="cls-7" d="M1.22,30.15A1.79,1.79,0,0,1,4,29.63a1.55,1.55,0,0,1,.44,1.71c-.13.49-.65.53-.52,1.28a1.32,1.32,0,0,0,.75,1.09c.22.2.5.34.64.7a1.86,1.86,0,0,1,.08,1.06c-.14.61-1,.12-1.62-.14a10.84,10.84,0,0,1-2-1.59A3.38,3.38,0,0,1,1.22,30.15Z"/><path class="cls-8" d="M23.07,3.55c18.89,0,19,15.76,18.15,26.07,1.3-2.44,5.13-1.69,4.82,2.16S40.32,37.4,40.4,37C38.85,45.46,30,50.36,23.07,50.36h-.14V3.56Z"/><path class="cls-7" d="M44.83,30.15a1.8,1.8,0,0,0-2.73-.52,1.55,1.55,0,0,0-.44,1.71c.13.49.66.53.53,1.28a1.32,1.32,0,0,1-.76,1.09c-.22.2-.5.34-.64.7a2,2,0,0,0-.08,1.06c.15.61,1,.12,1.63-.14a11.14,11.14,0,0,0,1.95-1.59A3.36,3.36,0,0,0,44.83,30.15Z"/><path class="cls-1" d="M22.82,8C16.6,8,12.06,9.79,9.3,13.34c-3.84,5-3.69,12.53-2.28,18,.44,1.66.66,6.13,1,7.78,1.34,7.35,9.48,11.27,14.84,11.27H23V8Z"/><path class="cls-2" d="M36.3,13.35C33.57,9.83,29.07,8,23,8V50.35c6.12-.07,13.43-4.35,14.69-11.26.3-1.64.52-6.12,1-7.78C40,25.89,40.16,18.32,36.3,13.35Z"/><path class="cls-5" d="M4.57,21.1a21.67,21.67,0,0,1,13.31-5.25c7.8-.09,15.12,1.9,19.37,5.54s5,3,5,3a8.08,8.08,0,0,0,.86-1.64c.51-1.33,1.78-2,1.64-2.71a11.91,11.91,0,0,1-.23-3.59c.23-.68-.68-4.72-4.13-7.59S34,.66,24.5.1s-8,1.41-10.07,1.83S8.62,2,5.19,8.19c-1.49,2.7-1,4.63-1.26,6.09-.4,1.9-1.39,3-1.4,3.6C2.51,19,4.57,21.1,4.57,21.1Z"/></g></g></svg>