<svg xmlns="http://www.w3.org/2000/svg" xmlns:xlink="http://www.w3.org/1999/xlink" viewBox="0 0 50.05 76.25"><defs><style>.cls-1{fill:none;}.cls-2{fill:#dcc5a1;}.cls-3{fill:#edd9b4;}.cls-4{clip-path:url(#clip-path);}.cls-5{fill:#bc9f82;}.cls-6{fill:#ebeceb;}.cls-7{fill:#422e14;}.cls-8{fill:#9a6919;}.cls-9{fill:#ccad8b;}.cls-10{fill:#d9bf9f;}.cls-11{fill:#211915;}</style><clipPath id="clip-path"><rect class="cls-1" x="19.58" y="47.22" width="10.74" height="6.32"/></clipPath></defs><title>Ativo 72avatar</title><g id="Camada_2" data-name="Camada 2"><g id="Objects"><path class="cls-2" d="M24.92,40.73V76.25H5.55L5.07,76C5.07,57,16.93,55.57,16.93,55.57c1.18,0,1.94-1.51,2.45-3.81.08-.36.15-.73.2-1.12.11-.65.2-1.33.27-2,0-.43.09-.87.12-1.32.18-2.18.24-4.55.24-6.79,0,0,2.6.25,4.71.25Z"/><path class="cls-3" d="M44.83,76l-.46.21H24.92V40.73h0c2.11,0,4.73-.25,4.73-.25,0,2.23,0,4.57.22,6.74,0,.43.09.87.13,1.28.08.75.17,1.45.28,2.11v0c0,.3.09.57.14.84.5,2.45,1.29,4.1,2.51,4.1C33,55.57,44.83,57,44.83,76Z"/><g class="cls-4"><path class="cls-5" d="M30.32,50.61v0A6.29,6.29,0,0,1,25,53.54h0a6.71,6.71,0,0,1-5.34-2.9c.11-.65.2-1.33.27-2,0-.43.09-.87.12-1.32a21.57,21.57,0,0,0,4.89.64h.06a20.11,20.11,0,0,0,5-.69c0,.43.09.87.13,1.28.08.75.17,1.45.28,2.11"/></g><path class="cls-6" d="M34.13,66.82c.08,1.12-3.42,6.19-6,9.43H21.76c-2.56-3.23-6.06-8.31-6-9.45.07-1,0-10.17.62-10.95h0L25,65.12l8-9.55s.6.47,1,.84c.13.14-1,7.66-.84,7.8a4.31,4.31,0,0,1,1,2.61Z"/><path class="cls-7" d="M21.69,76.24H5.54c-.3-.12-.46-.2-.46-.2,0-1,0-2,.11-3a30.27,30.27,0,0,1,.43-3.55A28.08,28.08,0,0,1,6.5,66c.08-.23.17-.45.25-.66A21,21,0,0,1,8.07,62.4a15.26,15.26,0,0,1,2.24-3c.16-.18.32-.35.49-.52a12.68,12.68,0,0,1,5.64-3.18c0,.07,0,.13,0,.18a17.71,17.71,0,0,0,0,6,2,2,0,0,1,0,.24c0,.18.05.34.09.53a.23.23,0,0,0,0,.11,3.86,3.86,0,0,0,.11.53,24.77,24.77,0,0,0,1.18,4.34c.42,1.14,1.12,2.75,1.94,4.52.14.33.28.63.42.94.09.16.15.33.24.48.2.43.42.86.61,1.3.06.15.13.28.19.41a.93.93,0,0,0,.05.1c.15.29.29.58.41.85a.05.05,0,0,1,0,0Z"/><path class="cls-7" d="M28.22,76.24H44.37c.3-.12.46-.2.46-.2,0-1,0-2-.1-3A30.45,30.45,0,0,0,43.41,66c-.08-.23-.16-.45-.25-.66a19.9,19.9,0,0,0-1.32-2.89,15.26,15.26,0,0,0-2.24-3c-.16-.18-.32-.35-.49-.52a12.63,12.63,0,0,0-5.64-3.18c0,.07,0,.13,0,.18a17.22,17.22,0,0,1,0,6,2,2,0,0,0,0,.24c0,.18,0,.34-.09.53a.23.23,0,0,1,0,.11c0,.16-.06.35-.1.53A25.7,25.7,0,0,1,32.1,67.6c-.42,1.14-1.12,2.75-1.94,4.52-.13.33-.28.63-.42.94-.08.16-.15.33-.23.48-.2.43-.42.86-.61,1.3-.06.15-.13.28-.19.41a.93.93,0,0,0-.05.1c-.16.29-.28.58-.41.85,0,0,0,0,0,0Z"/><path class="cls-8" d="M24.2,76.25H20.39l-.47-.49c-7.81-8.18-9-14.2-9-14.2l3.22-1.42-2-1.29s.77-.86,2.16-2.14a12.48,12.48,0,0,1,1.59-1.15,9.39,9.39,0,0,1,2.54-1.08c-.09.11-.91.89-.69,5.84,0,.33,0,.64.09,1,0,.08,0,.15,0,.22s.06.32.1.48a.41.41,0,0,0,0,.11c0,.17.06.33.1.49a41.3,41.3,0,0,0,3.22,8.19c.22.45.45.87.68,1.3s.56,1.07.83,1.59c.17.29.31.59.47.87s.34.64.53,1l.39.74Z"/><path class="cls-8" d="M25.84,76.25h3.77c.18-.18.32-.34.46-.49C37.81,67.58,39,61.56,39,61.56l-3.19-1.42,2-1.29S37,58,35.64,56.71a12.12,12.12,0,0,0-1.57-1.15,7,7,0,0,0-2.48-.9c.09.11.86.71.65,5.66,0,.33,0,.64-.09,1,0,.08,0,.15,0,.22A3.7,3.7,0,0,1,32,62a.41.41,0,0,1,0,.11c0,.17-.07.33-.1.49a42.33,42.33,0,0,1-3.19,8.19c-.22.45-.45.87-.67,1.3s-.56,1.07-.82,1.59c-.17.29-.31.59-.47.87l-.52,1-.39.74Z"/><path class="cls-9" d="M25,0C4.45,0,4.34,17.12,5.25,28.33,3.84,25.67-.32,26.5,0,30.67s6.21,6.12,6.13,5.65C7.83,45.54,17.49,50.87,25,50.87h.16V0Z"/><path class="cls-5" d="M1.33,28.91a2,2,0,0,1,3-.57,1.69,1.69,0,0,1,.47,1.86c-.14.54-.71.58-.56,1.39A1.43,1.43,0,0,0,5,32.78c.24.21.55.37.69.75a2,2,0,0,1,.09,1.16c-.15.66-1.12.13-1.76-.16a11.75,11.75,0,0,1-2.12-1.72,3.64,3.64,0,0,1-.59-3.9Z"/><path class="cls-10" d="M25.08,0C45.6,0,45.71,17.12,44.8,28.33c1.41-2.66,5.57-1.83,5.23,2.34s-6.21,6.12-6.13,5.65c-1.68,9.22-11.34,14.55-18.82,14.55h-.16V0Z"/><path class="cls-5" d="M48.72,28.91a2,2,0,0,0-3-.57,1.69,1.69,0,0,0-.48,1.86c.14.54.71.58.57,1.39A1.45,1.45,0,0,1,45,32.78a2,2,0,0,0-.7.75,2.11,2.11,0,0,0-.08,1.16c.15.66,1.12.13,1.77-.16a12.49,12.49,0,0,0,2.12-1.72,3.65,3.65,0,0,0,.58-3.9Z"/><path class="cls-2" d="M24.92,4.83c-6.75,0-11.68,2-14.68,5.81C6.06,16,6.22,24.26,7.76,30.17c.47,1.8.71,6.66,1,8.45,1.45,8,10.3,12.25,16.12,12.25h.16v-46Z"/><path class="cls-3" d="M39.58,10.65c-3-3.83-7.86-5.78-14.5-5.81v46c6.65-.08,14.6-4.74,16-12.24.32-1.79.56-6.65,1-8.45,1.53-5.9,1.68-14.12-2.51-19.52Z"/><path class="cls-11" d="M45.35,48.81a14.51,14.51,0,0,0,3.4,1.85S47,49.9,46.38,47A15.09,15.09,0,0,1,46,44.93h-.39a11.3,11.3,0,0,0,2.16-6.5,11.89,11.89,0,0,0-3.55-8.19,20.19,20.19,0,0,1,.12,2.07A17.93,17.93,0,0,1,35,48a5.33,5.33,0,0,0-1.34-5.35,9.37,9.37,0,0,0-8.37-2,9.36,9.36,0,0,0-8.37,2A5.3,5.3,0,0,0,15.59,48,17.91,17.91,0,0,1,6.23,32.31,19.15,19.15,0,0,1,6.38,30a12,12,0,0,0-3.75,8.41,11.29,11.29,0,0,0,2.15,6.5H4.57A15.09,15.09,0,0,1,4.22,47c-.6,2.9-2.37,3.66-2.37,3.66a14.51,14.51,0,0,0,3.4-1.85l1.43-1.68,0,0a5.42,5.42,0,0,0,0,3.49,8.93,8.93,0,0,0,3.38,4.54A6.44,6.44,0,0,1,8.9,50.66s-.09,1,2.56,3.58,7.59,4.94,7.59,4.94-.11-1.64-.16-3.43a22,22,0,0,0,6,.87h.74a22,22,0,0,0,6-.87c-.06,1.79-.16,3.43-.16,3.43s4.95-2.31,7.6-4.94,2.55-3.58,2.55-3.58a6.44,6.44,0,0,1-1.18,4.52,9,9,0,0,0,3.38-4.54,5.49,5.49,0,0,0,0-3.49l0,0ZM21.88,49a13.54,13.54,0,0,1-2-.48,3.39,3.39,0,0,1-.35-.83,3,3,0,0,1-.1-.79,3.91,3.91,0,0,1,0-.49,9.83,9.83,0,0,1,4.75-1.57c.36,0,.72,0,1.1,0s.74,0,1.1,0a9.82,9.82,0,0,1,4.74,1.57,2.63,2.63,0,0,1,0,.49,3.39,3.39,0,0,1-.45,1.62,13.54,13.54,0,0,1-2,.48,2.24,2.24,0,0,1-1.66,1.35c-.57,0-1.15.08-1.74.08s-1.21,0-1.8-.08C22.63,50.09,22,49.6,21.88,49Z"/></g></g></svg>