<svg xmlns="http://www.w3.org/2000/svg" viewBox="0 0 47.81 76.96"><defs><style>.cls-1{fill:#dcc5a1;}.cls-2{fill:#edd9b4;}.cls-3,.cls-6{fill:#bc9f82;}.cls-3{opacity:0.7;}.cls-4{fill:#841720;}.cls-5{fill:#ccad8b;}.cls-7{fill:#d9bf9f;}.cls-8{fill:#b47070;}.cls-9{fill:#c17874;}.cls-10{fill:#895a59;}.cls-11{fill:#fdfdfd;}</style></defs><title>Ativo 64avatar</title><g id="Camada_2" data-name="Camada 2"><g id="Objects"><path class="cls-1" d="M23,43.84V77H4.9a4.22,4.22,0,0,0-.44-.19A28.71,28.71,0,0,1,6,66.82c2.13-5.87,6-8,8.06-8.76a7.48,7.48,0,0,1,1.47-.39h.09l.24-.05c.61-.17,1.09-.83,1.47-1.82a12.75,12.75,0,0,0,.48-1.68c.07-.34.14-.68.19-1,.1-.61.19-1.25.25-1.93,0-.39.08-.79.12-1.21.16-2,.21-4.26.21-6.34C18.57,43.6,21,43.84,23,43.84Z"/><path class="cls-2" d="M41.54,76.77a3,3,0,0,0-.43.19H23V43.84h0c2,0,4.4-.24,4.4-.24,0,2.07.06,4.25.22,6.28,0,.4.08.81.11,1.21.08.68.16,1.35.26,2v0c0,.27.09.53.14.77a12.74,12.74,0,0,0,.64,2.24h0a2.83,2.83,0,0,0,1.09,1.44,1.08,1.08,0,0,0,.19.08,1.29,1.29,0,0,0,.4.07,7.17,7.17,0,0,1,.89.19c2,.59,6.88,2.74,9.07,10.25a27.56,27.56,0,0,1,1.05,6.73C41.53,75.46,41.54,76.1,41.54,76.77Z"/><path class="cls-3" d="M28,53.06h0a5.82,5.82,0,0,1-5,2.71h0a6.28,6.28,0,0,1-5-2.7c.1-.61.19-1.25.26-1.92,0-.4.07-.81.11-1.22a19.8,19.8,0,0,0,4.56.59H23a18.68,18.68,0,0,0,4.67-.64c0,.4.07.81.11,1.2C27.81,51.78,27.89,52.44,28,53.06Z"/><path class="cls-4" d="M37,68.21c-2.58-4.45-4.4-7.59-5.2-10.35a8.1,8.1,0,0,0-1.47-.4h-.09L30,57.41c-.61-.17-1.09-.83-1.47-1.84a6.11,6.11,0,0,1-1.26.47C25.7,56.51,23,57.19,23,57.19a66.26,66.26,0,0,1,2.62,6.57c1.07,3.13-.63,5.48-2.7,5.57-2.06-.09-3.76-2.44-2.7-5.57a64.63,64.63,0,0,1,2.63-6.57s-2.71-.68-4.33-1.15a5.78,5.78,0,0,1-1.25-.47c-.38,1-.87,1.67-1.47,1.84l-.25.05h-.09a8.1,8.1,0,0,0-1.47.4c-.79,2.76-2.61,5.9-5.2,10.35-1.43,2.46-.43,6.88.4,8.75H36.65C37.48,75.25,38.48,70.67,37,68.21Z"/><path class="cls-5" d="M23,8.25C4.09,8.21,4,23.31,4.82,33.16,3.53,30.85-.3,31.71,0,35.41c.3,3.54,5.7,5.15,5.63,4.76,1.54,8,10.43,12.47,17.3,13.11h.14v-45Z"/><path class="cls-6" d="M1,33.84a1.88,1.88,0,0,1,2.77-.49A1.45,1.45,0,0,1,4.18,35c-.14.47-.67.51-.53,1.23a1.27,1.27,0,0,0,.76,1.06,1.63,1.63,0,0,1,.64.66,1.73,1.73,0,0,1,.09,1c-.15.59-1,.12-1.65-.13a11.92,11.92,0,0,1-2-1.53A3.11,3.11,0,0,1,1,33.84Z"/><path class="cls-7" d="M23,8.25c18.86,0,19,15.06,18.13,24.91,1.29-2.31,5.11-1.45,4.8,2.25-.3,3.54-5.7,5.15-5.63,4.76-1.54,8-10.43,12.47-17.3,13.11H22.9v-45Z"/><path class="cls-6" d="M45.16,33.84a1.88,1.88,0,0,0-2.77-.49A1.43,1.43,0,0,0,42,35c.13.47.66.51.53,1.23a1.3,1.3,0,0,1-.77,1.06,1.63,1.63,0,0,0-.64.66A1.73,1.73,0,0,0,41,39c.15.59,1.05.12,1.65-.13a11.15,11.15,0,0,0,2-1.53A3.11,3.11,0,0,0,45.16,33.84Z"/><path class="cls-1" d="M22.85,12.53c-6.3,0-10.91,1.72-13.7,5.14C5.26,22.44,5.41,29.72,6.84,35c.44,1.6.67,5.9,1,7.49,1.36,7.07,9.61,10.84,15,10.84H23V12.53Z"/><path class="cls-2" d="M36.51,17.68c-2.77-3.4-7.32-5.12-13.51-5.15V53.28c6.2-.06,13.61-4.19,14.88-10.83.31-1.59.53-5.89,1-7.49C40.29,29.74,40.43,22.46,36.51,17.68Z"/><path class="cls-8" d="M26.16,46.89A5,5,0,0,1,23,48.41a4.74,4.74,0,0,1-3.1-1.48A20.33,20.33,0,0,1,23,46.7,26.67,26.67,0,0,1,26.16,46.89Z"/><path class="cls-9" d="M23.89,46.19a.82.82,0,0,0-.9.69.83.83,0,0,0-.9-.69,12.66,12.66,0,0,0-2.28.7s1.74.19,2.23.19.94.19.95-.18c0,.38.37.23.86.23s2.31-.24,2.31-.24A12.77,12.77,0,0,0,23.89,46.19Z"/><path class="cls-10" d="M47.81,22.23s-2.15-.54-3.48-3.55-.84-4.19-1.34-6a7.85,7.85,0,0,0-2.33-3.74L40.8,9c3.56,1.86,3.72,3.5,3.73,3.7A7.33,7.33,0,0,0,41.24,7a17.63,17.63,0,0,0-2.82-1.41,13,13,0,0,0,7.7-2.22,15.56,15.56,0,0,1-10.39,0C32.67,2.12,29.11,0,27.21,0A14.42,14.42,0,0,0,20.9,1.56c-1.59.84-3.15,2.15-3.8,2.15s-.5.23-3.47.77S9.3,4.87,5.51,8.65,1.74,22.3,1.74,22.3a6.87,6.87,0,0,1,1.37-3.72,13.36,13.36,0,0,0,1-1.44,16.55,16.55,0,0,0-1.79,7.25c.14,6.8-1.5,7.73-1.5,7.73a5,5,0,0,0,2.41-1.66,7.16,7.16,0,0,0-.14,2.18c1.17,7.21-1.28,9.65-1.28,9.65a11.4,11.4,0,0,0,3.85-4.24,11.31,11.31,0,0,0,1-3.14c0,.55.08,1.18.15,1.89A8.46,8.46,0,0,1,4.61,43a9.32,9.32,0,0,0,4.46-3.62,23.48,23.48,0,0,1,.1,2.87c-.08,2.31-1.05,2.92-1.05,2.92,1.38-.78,2.2-2.35,2.74-4.57a32.27,32.27,0,0,0,.62-3.88c0-.37.08-.76.12-1.16l.05-.07a.36.36,0,0,0,0-.09c0-.14,0-.27,0-.41.15-1.83.2-4.54.2-7.33,0-1,0-2.05,0-3,.28.69.58,1.37.87,2a12.45,12.45,0,0,1,.73,2.93,9.94,9.94,0,0,0,.81-6.93c-.18-.82-.31-1.57-.42-2.27A5.82,5.82,0,0,0,18,23.6a5.13,5.13,0,0,1-1.39-3.78,7,7,0,0,1,.84-3.58,17.55,17.55,0,0,0,.74,2.65,12,12,0,0,0,4.95,5.71l0,0,.13.08a12.45,12.45,0,0,0,1.38.75A8.15,8.15,0,0,1,23.29,24l-.13-.19,0,0a8.92,8.92,0,0,1-1.66-5.49,2.72,2.72,0,0,0,0-.28,7.06,7.06,0,0,0,.72,1.6c.37.56.66,1,.93,1.35l0,0,.13.18A6.65,6.65,0,0,0,25.8,23a14.1,14.1,0,0,0,5.69,1.54,7,7,0,0,1-3.93-4c-.27-.62-.56-1.25-.84-1.86a10.59,10.59,0,0,0,2.94,2.4c2.88,1.61,4.63,4.37,5.84,7.57l.15.41a38.9,38.9,0,0,1,1.22,4.14l0,.08c1,4.33-1.1,8.29-1.68,9.26a.43.43,0,0,1,0,0C35.51,44.57,36,46,37,46.81c-.15-.18-.72-1-.58-3.07.06-.94.2-2,.36-3a8.48,8.48,0,0,0,3.49,4.13,9.77,9.77,0,0,1-1.34-6.57c.13-.74.23-1.38.31-2a14.17,14.17,0,0,0,.59,3.35,11.18,11.18,0,0,0,2.9,4.71s-1.87-2.73-.16-10.12A8.8,8.8,0,0,0,42.66,32a8.83,8.83,0,0,0,.66.9,7,7,0,0,1-.53,2,10.28,10.28,0,0,0,1-1.46,2.44,2.44,0,0,0,.78.51,2.12,2.12,0,0,1-.48-1.06A11.15,11.15,0,0,0,45,25.35a25.59,25.59,0,0,0-1-3.47l0-.21A12.44,12.44,0,0,0,47.81,22.23Z"/><path class="cls-11" d="M14.93,3.2c-.8-.15-3.83,3-5.12,5a1.48,1.48,0,0,0-1,0A1.46,1.46,0,0,0,8,8.82C5.74,8,1.4,7.29.86,7.89.15,8.7,2.22,12,2.22,12S2.53,15.78,3.58,16c.79.16,3.83-3,5.11-5a1.57,1.57,0,0,0,1.05,0,1.52,1.52,0,0,0,.81-.66c2.22.82,6.56,1.53,7.1.92.71-.8-1.36-4.05-1.36-4.05S16,3.42,14.93,3.2Z"/></g></g></svg>