<svg xmlns="http://www.w3.org/2000/svg" viewBox="0 0 50.42 75.52"><defs><style>.cls-1{fill:#dcc5a1;}.cls-2{fill:#edd9b4;}.cls-3,.cls-6{fill:#bc9f82;}.cls-3{opacity:0.7;}.cls-4{fill:#3c4c82;}.cls-5{fill:#ccad8b;}.cls-7{fill:#d9bf9f;}.cls-8{fill:#b47070;}.cls-9{fill:#c17874;}.cls-10{fill:#372814;}</style></defs><title>Ativo 55avatar</title><g id="Camada_2" data-name="Camada 2"><g id="Objects"><path class="cls-1" d="M25.36,42.4V75.52H7.29l-.44-.19c0-12.09,5.13-16.56,8.4-18.19a9.18,9.18,0,0,1,2.66-.9H18a1,1,0,0,0,.24-.05c.91-.25,1.53-1.59,2-3.51.07-.32.14-.66.19-1,.1-.61.19-1.25.25-1.92,0-.41.08-.81.12-1.23.16-2,.21-4.24.21-6.34C21,42.16,23.39,42.4,25.36,42.4Z"/><path class="cls-2" d="M43.93,75.33l-.43.19H25.36V42.4h0c2,0,4.41-.24,4.41-.24,0,2.09.05,4.27.21,6.29q.06.61.12,1.2c.07.69.15,1.35.25,2h0c0,.28.09.53.14.78.38,1.86.94,3.22,1.75,3.68l.19.08a1.05,1.05,0,0,0,.4.07,8.17,8.17,0,0,1,2.18.67C38.28,58.34,43.93,62.63,43.93,75.33Z"/><path class="cls-3" d="M30.39,51.63h0a5.88,5.88,0,0,1-5,2.71h0a6.31,6.31,0,0,1-5-2.7c.1-.61.19-1.25.25-1.92,0-.4.08-.81.11-1.23a19.86,19.86,0,0,0,4.56.6h.06A18.66,18.66,0,0,0,30,48.45c0,.41.08.81.11,1.2C30.21,50.35,30.28,51,30.39,51.63Z"/><path class="cls-4" d="M42.07,64.5A15.66,15.66,0,0,0,39.28,60a12.31,12.31,0,0,0-4.23-3.11c-2,3.3-6.73,7.6-9.69,10.14l-1.18,1c-3-5.41-5.86-11.16-5.94-11.86a8.84,8.84,0,0,0-3,1c-.27.16-.59.3-.89.48a13.2,13.2,0,0,0-3.93,3.75c-2,2.83-3.58,7.21-3.58,14l.44.19H43.5l.43-.19A28.07,28.07,0,0,0,42.07,64.5Z"/><path class="cls-5" d="M25.34,6.82c-18.85,0-19,15.06-18.12,24.91C5.92,29.42,2.1,30.28,2.41,34c.3,3.54,5.71,5.14,5.63,4.75,1.55,8,10.43,12.48,17.3,13.12h.15v-45Z"/><path class="cls-6" d="M3.36,32.41a1.87,1.87,0,0,1,2.76-.5,1.45,1.45,0,0,1,.45,1.65c-.13.47-.66.51-.53,1.23a1.27,1.27,0,0,0,.76,1.05c.23.19.51.33.65.67a1.72,1.72,0,0,1,.08,1c-.14.59-1,.12-1.65-.14a11.73,11.73,0,0,1-2-1.52A3.13,3.13,0,0,1,3.36,32.41Z"/><path class="cls-7" d="M25.44,6.82c18.85,0,19,15.06,18.12,24.91,1.3-2.31,5.12-1.45,4.81,2.25-.3,3.54-5.71,5.14-5.63,4.75-1.55,8-10.43,12.48-17.3,13.12h-.15v-45Z"/><path class="cls-6" d="M47.27,32.41a1.87,1.87,0,0,0-2.76-.5,1.47,1.47,0,0,0-.45,1.65c.13.47.66.51.53,1.23a1.26,1.26,0,0,1-.76,1.05c-.22.19-.51.33-.65.67a1.72,1.72,0,0,0-.08,1c.14.59,1,.12,1.65-.14a11.73,11.73,0,0,0,2-1.52A3.13,3.13,0,0,0,47.27,32.41Z"/><path class="cls-1" d="M25.24,11.09c-6.29,0-10.9,1.73-13.69,5.15C7.65,21,7.8,28.29,9.24,33.52c.44,1.6.66,5.91,1,7.5,1.35,7.07,9.6,10.84,15,10.84h.15V11.1Z"/><path class="cls-2" d="M38.91,16.25c-2.77-3.4-7.32-5.13-13.52-5.15V51.85C31.59,51.79,39,47.66,40.28,41c.3-1.59.52-5.9,1-7.5C42.68,28.31,42.82,21,38.91,16.25Z"/><path class="cls-8" d="M28.56,45.46A5,5,0,0,1,25.38,47a4.73,4.73,0,0,1-3.09-1.49,21.18,21.18,0,0,1,3.09-.22A26.74,26.74,0,0,1,28.56,45.46Z"/><path class="cls-9" d="M26.28,44.76a.83.83,0,0,0-.9.69.82.82,0,0,0-.9-.69,12.77,12.77,0,0,0-2.27.7s1.73.18,2.23.18.93.2.94-.17c0,.37.37.23.86.23s2.32-.24,2.32-.24A12.66,12.66,0,0,0,26.28,44.76Z"/><path class="cls-10" d="M46.76,12.92C49,15,50.42,16.53,50.42,16.53,46.89-3.4,27.62.27,27.62.27a1.66,1.66,0,0,1,.21.06C24.1.55,19.39,1.59,18,5.25c-3.13-1.79-8,0-10.82,1.58a47,47,0,0,0-5,3.27,16.25,16.25,0,0,1,6.23-2,6.75,6.75,0,0,0-.92.48c-2.63,1.71-4.89,3.4-6.06,7A34.66,34.66,0,0,0,0,23.16s.77-1.51,1.93-3.39c-.19.51-.36,1.05-.53,1.63C-2.75,36,7.46,41.89,7.46,41.89a39.4,39.4,0,0,1-2-7.34c1.1,5.47,5.06,11,5.06,11C3.4,27.24,17.08,22.57,23,21.43a8.77,8.77,0,0,1,2.52-.36s2.33,4.34,3.82,7.66A22.93,22.93,0,0,1,31,36.22s1.15-6.42-.08-10.56a35.58,35.58,0,0,1,3.81,6.09A20.11,20.11,0,0,1,36,38.64a23.38,23.38,0,0,0-.39-11.54,23,23,0,0,1,2,4.27c2.95,9.88-2.08,22.4-2.08,22.4a93.3,93.3,0,0,0,4.37-9.55c-1.42,7.13-4.58,18-4.58,18S39.78,53,42.73,45.5l-.44,6.18s6.45-12.14,6-22.48c0,0,0-.05,0-.07.5,2.23.84,3.9.84,3.9s3.63-11.67-2.74-20.35Z"/></g></g></svg>