<svg xmlns="http://www.w3.org/2000/svg" viewBox="0 0 49.82 79.06"><defs><style>.cls-1{fill:#666664;}.cls-2{fill:#dcc5a1;}.cls-3{fill:#edd9b4;}.cls-4,.cls-8{fill:#bc9f82;}.cls-4{opacity:0.7;}.cls-5{fill:#483a26;}.cls-6{fill:#84572f;}.cls-7{fill:#ccad8b;}.cls-9{fill:#d9bf9f;}.cls-10{fill:#3b2b16;}.cls-11{fill:#74572d;}.cls-12{fill:#543f26;}</style></defs><title>Ativo 37avatar</title><g id="Camada_2" data-name="Camada 2"><g id="Objects"><path class="cls-1" d="M44.73,38.66a.42.42,0,0,1-.41.42.42.42,0,0,1-.42-.42.42.42,0,0,1,.83,0Z"/><path class="cls-1" d="M45.68,38.28a.24.24,0,0,1-.47,0,.24.24,0,1,1,.47,0Z"/><path class="cls-1" d="M46.52,37.81a.23.23,0,0,1-.24.23.23.23,0,0,1,0-.46A.23.23,0,0,1,46.52,37.81Z"/><path class="cls-2" d="M24.88,43.82V79.06H5.65l-.47-.2a33.4,33.4,0,0,1,1.05-8.77c.13-.48.27-.93.42-1.38,1.71-5,4.6-7.62,6.87-8.91l.06,0a0,0,0,0,1,0,0A10.33,10.33,0,0,1,17,58.54c1.17,0,1.93-1.5,2.42-3.79a8.94,8.94,0,0,0,.21-1.1c.11-.64.2-1.33.27-2,0-.43.08-.86.12-1.31.17-2.16.23-4.51.23-6.74C20.2,43.56,22.79,43.82,24.88,43.82Z"/><path class="cls-3" d="M44.64,78.86a4.4,4.4,0,0,0-.45.2H24.88V43.82h0c2.09,0,4.69-.26,4.69-.26,0,2.22.06,4.54.23,6.69L30,51.53c.08.73.16,1.43.27,2.09v0c0,.29.1.56.15.83.5,2.43,1.28,4.07,2.49,4.07a10.83,10.83,0,0,1,4.24,1.76C40.48,62.56,44.64,67.61,44.64,78.86Z"/><path class="cls-4" d="M30.23,53.62v0a6.22,6.22,0,0,1-5.33,2.89h0a6.72,6.72,0,0,1-5.3-2.88c.11-.64.2-1.33.27-2,0-.43.08-.86.12-1.31a21.15,21.15,0,0,0,4.86.64h.05a20,20,0,0,0,5-.69L30,51.53C30,52.27,30.12,53,30.23,53.62Z"/><path class="cls-5" d="M12.62,62.93c1.51.63,7,3.47,12.26,3.31,10.91-.33,12.69-4.32,12.69-4.32s.46,7.91-1.65,9.17-7.39,4.46-11,4.12-9.18-2.44-9.52-3.7S12.62,62.93,12.62,62.93Z"/><path class="cls-6" d="M43.69,70.09c-.14-.48-.28-.93-.43-1.38-1.73-5-4.64-7.62-6.94-8.91l-.06,0a0,0,0,0,0,0,0A23.14,23.14,0,0,1,30.35,68a31.71,31.71,0,0,1-5.5,3.81A31.71,31.71,0,0,1,19.35,68a23.14,23.14,0,0,1-5.88-8.23,0,0,0,0,0,0,0l-.06,0c-2.3,1.29-5.21,3.86-6.94,8.91-.15.45-.29.9-.42,1.38A32.91,32.91,0,0,0,5,78.86s.17.06.48.2H44.27l.48-.2A33.36,33.36,0,0,0,43.69,70.09Z"/><path class="cls-7" d="M24.93,3.39c-20.36,0-20.48,17-19.57,28.11C4,28.87-.17,29.68.17,33.83s6.16,6.07,6.08,5.61C7.92,48.59,17.5,53.87,24.93,53.87h.16V3.4Z"/><path class="cls-8" d="M1.47,32.08a1.93,1.93,0,0,1,2.94-.56,1.65,1.65,0,0,1,.47,1.84c-.14.53-.7.58-.56,1.39a1.4,1.4,0,0,0,.81,1.17,1.94,1.94,0,0,1,.69.75,2,2,0,0,1,.09,1.15c-.15.65-1.11.13-1.75-.16A11.63,11.63,0,0,1,2.05,36,3.6,3.6,0,0,1,1.47,32.08Z"/><path class="cls-9" d="M25,3.39c20.37,0,20.49,17,19.58,28.11,1.4-2.63,5.53-1.82,5.19,2.33s-6.16,6.07-6.08,5.61C42.05,48.59,32.46,53.87,25,53.87h-.15V3.4Z"/><path class="cls-8" d="M48.5,32.08a1.93,1.93,0,0,0-2.94-.56,1.66,1.66,0,0,0-.48,1.84c.15.53.71.58.57,1.39a1.39,1.39,0,0,1-.82,1.17,1.68,1.68,0,0,0-.77,1.9c.15.65,1.11.13,1.75-.16A11.63,11.63,0,0,0,47.92,36,3.6,3.6,0,0,0,48.5,32.08Z"/><path class="cls-2" d="M24.76,8.18c-6.71,0-11.61,1.94-14.58,5.77C6,19.3,6.19,27.46,7.72,33.33c.47,1.79.71,6.62,1,8.39,1.45,7.93,10.23,12.15,16,12.15h.15V8.19Z"/><path class="cls-3" d="M39.3,14c-2.95-3.8-7.79-5.74-14.39-5.77V53.87c6.6-.08,14.49-4.7,15.85-12.15.32-1.77.56-6.6,1-8.39C43.31,27.48,43.46,19.32,39.3,14Z"/><path class="cls-10" d="M47.48,12.19c-.9-1.12-3.84-4.63-4.65-4.45l-.17,0c-.89-3.13-1.84,1.08-3.76-2.07s-3.49-3-9.92-3.24-7.92-.05-12,1-6.21,2-8.18,4.37c0,0-2.6,4.45-3,4.88s-5.35,19.54-1,19.64C6.43,32.36,6,30.27,7,30.41c1.91.27,3.4-1.7,6.12-2.55s2.78-5.32,3.15-7,5.81-6.17,5.81-6.17,6.63-2.23,8.34-2.23,6.79,2.23,6.79,2.23.32-.14.79-.4a3.74,3.74,0,0,0,.9,1c1.84,1.37,4.9,7.31,4.89,8.23,0,5.09-.72,7.14-.91,7.74-1,3.22.43,3.77.43,3.77s-.64-2.19,3.1-6,.64-3.18,1.07-7.19c.13-1.2.91-8.48,0-9.59Z"/><path class="cls-11" d="M34.64,13.65c-.36-.49-6.47-4.79-11.07-1.6-6.44,4.47-2.1,9.9-9.66,12.09C9.72,25.35,4.49,24.3,3.25,26A6.07,6.07,0,0,0,1.9,29.53a7.29,7.29,0,0,0,.49,3.11S-.78,29.13.18,25.28c.79-3.22,2-4.05,3.3-4.81a17.24,17.24,0,0,1,4.78-2,14.62,14.62,0,0,0,4.5-1.58c2.07-2.2,0-4.41,1.93-7.3,1.68-2.46,12-7.24,18.27.37a7.68,7.68,0,0,1,1.68,3.74Z"/><path class="cls-12" d="M34.64,13.65c-.46-.4-7.29-2.13-11,2.06-5.19,5.89.33,10.12-6.49,14-3.78,2.18-9.11,2.4-9.92,4.31a6.08,6.08,0,0,0-.45,3.78A7.37,7.37,0,0,0,8,40.74s-3.91-2.65-3.91-6.62c0-3.31,1-4.42,2.06-5.46a17.38,17.38,0,0,1,4.15-3.11,14.71,14.71,0,0,0,4-2.62c1.49-2.62-1.09-4.27.14-7.54,1-2.79,10.29-9.18,18.61-3.93a4.82,4.82,0,0,1,1.6,2.19Z"/><path class="cls-10" d="M15.11,2.87S35.87-7,46.09,9.93l.81,4.89-6.63-3.73L37.21,6.24,31,2.77l-7.81.28Z"/><path class="cls-10" d="M37.21,14.67s6.95,4.76,6,15.24l2.32-3.81-2.07-8.2-1.4-4.43S39.74,10.61,37.21,14.67Z"/></g></g></svg>