<svg xmlns="http://www.w3.org/2000/svg" viewBox="0 0 48.37 81.4"><defs><style>.cls-1{fill:#dcc5a1;}.cls-2{fill:#edd9b4;}.cls-3,.cls-7{fill:#bc9f82;}.cls-3{opacity:0.7;}.cls-4{fill:#cc6b51;}.cls-5{fill:#f7f7f8;}.cls-6{fill:#ccad8b;}.cls-8{fill:#d9bf9f;}</style></defs><title>Ativo 1avatar</title><g id="Camada_2" data-name="Camada 2"><g id="Objects"><path class="cls-1" d="M23.23,48.1V81.22H5.17L4.72,81c0-17.76,11.07-19.09,11.07-19.09h0c1.09,0,1.79-1.43,2.26-3.56.07-.33.14-.67.19-1,.1-.61.18-1.25.25-1.92,0-.41.08-.81.11-1.23.17-2,.22-4.24.22-6.34C18.84,47.86,21.27,48.1,23.23,48.1Z"/><path class="cls-2" d="M41.81,80.94V81l-.24.1h0l-.18.09H23.23V48.1h.05c2,0,4.41-.24,4.41-.24,0,2.09,0,4.27.21,6.29,0,.41.08.81.11,1.2.08.7.15,1.35.26,2h0c0,.28.09.54.14.79.46,2.28,1.2,3.82,2.34,3.82a9.78,9.78,0,0,1,3.63,1.44C37.6,65.37,41.79,70.06,41.81,80.94Z"/><path class="cls-3" d="M28.27,57.32v0a5.86,5.86,0,0,1-5,2.71h0a6.31,6.31,0,0,1-5-2.7c.1-.61.19-1.25.25-1.92l.12-1.23a19.79,19.79,0,0,0,4.56.6h0a18.59,18.59,0,0,0,4.66-.65c0,.41.08.81.11,1.2C28.09,56.05,28.17,56.71,28.27,57.32Z"/><path class="cls-4" d="M31.64,61.31a1.35,1.35,0,0,1-.72-.43A14,14,0,0,0,29.56,59l-.12-.13L29.24,60l-5.91,3L17.5,60.25l-.29-1.34s0,.06-.08.08c-.78.89-2.13,2.37-2.11,2.32-2.19.5-11.1,3.57-11.1,19.89l.46.2H42.29l.45-.2C42.74,64.88,33.84,61.81,31.64,61.31Z"/><path class="cls-5" d="M36.21,70.52a1.32,1.32,0,0,1-1.32,1.31H30.61a1.32,1.32,0,0,1-1.32-1.31h0a1.32,1.32,0,0,1,1.32-1.32h4.28a1.32,1.32,0,0,1,1.32,1.32Z"/><path class="cls-6" d="M23.29,10.12c-19.14,0-19.24,16-18.39,26.42C3.58,34.06-.3,34.83,0,38.73S5.81,44.43,5.74,44c1.56,8.6,10.57,13.57,17.55,13.57h.15V10.13Z"/><path class="cls-7" d="M1.24,37.08A1.81,1.81,0,0,1,4,36.55a1.55,1.55,0,0,1,.45,1.73c-.13.5-.66.54-.53,1.31a1.33,1.33,0,0,0,.77,1.1,1.75,1.75,0,0,1,.64.7,1.84,1.84,0,0,1,.08,1.08c-.14.62-1,.13-1.64-.15a11,11,0,0,1-2-1.6A3.41,3.41,0,0,1,1.24,37.08Z"/><path class="cls-8" d="M23.39,10.12c19.13,0,19.24,16,18.39,26.42,1.32-2.48,5.2-1.71,4.88,2.19s-5.79,5.7-5.72,5.26c-1.56,8.6-10.57,13.57-17.55,13.57h-.15V10.13Z"/><path class="cls-7" d="M45.44,37.08a1.82,1.82,0,0,0-2.77-.53,1.56,1.56,0,0,0-.44,1.73c.13.5.66.54.53,1.31a1.33,1.33,0,0,1-.77,1.1,1.75,1.75,0,0,0-.64.7,1.93,1.93,0,0,0-.09,1.08c.15.62,1.05.13,1.65-.15a11.39,11.39,0,0,0,2-1.6A3.41,3.41,0,0,0,45.44,37.08Z"/><path class="cls-1" d="M23.12,14.62c-6.29,0-10.9,1.82-13.69,5.42-3.89,5-3.75,12.7-2.31,18.21.44,1.68.66,6.22,1,7.89,1.36,7.45,9.6,11.42,15,11.42h.15V14.63Z"/><path class="cls-2" d="M36.79,20.05c-2.76-3.57-7.32-5.39-13.52-5.42V57.55c6.2-.07,13.62-4.42,14.89-11.41.3-1.67.53-6.21,1-7.89C40.56,32.76,40.7,25.09,36.79,20.05Z"/><path class="cls-5" d="M32.12,53.58c-.22-1.15-2.13-2-3.08-3.1-1.28-1.39-3.3-3.25-5.74-2.71-2.45-.54-4.47,1.32-5.74,2.71-1,1.06-2.86,2-3.08,3.1-.28,1.43.83,3.41,1.18,4.75.3,1.16.65,1.32,2,1,1.14-.26,1.56-2.35,1.93-3.67A9.86,9.86,0,0,1,22.39,51a4.62,4.62,0,0,1,.91-.47,4.91,4.91,0,0,1,.91.47A9.76,9.76,0,0,1,27,55.67c.38,1.32.8,3.41,1.94,3.67,1.34.31,1.69.15,2-1C31.29,57,32.4,55,32.12,53.58Z"/><path class="cls-5" d="M6.86,41.15c-.37,0,0-2.32-1.2-3.92s-3.08-7-3.08-12.37S4.17,14.7,8.33,9.62A28.87,28.87,0,0,1,18.58,2.06l-2.8,3.05s1.51-2.48,7-4.46C27-.91,29.79.83,29.79.83S27,.71,26.1,2.18a4.63,4.63,0,0,1-1,.93s1.32-3.51,7.43-.59,6,8.11,10.24,9.71,5.61-.46,5.61-.46-1.89,3.68-5.24,3.69c-.65,0-.6,0-.6,0a38.36,38.36,0,0,1,1.5,6.9c.24,3-.52,5.06-.76,10.69-.2,4.81-1.31,2.34-2.62,5.89a8.7,8.7,0,0,0-.46,2.52c-.49.15-1.77-2.88-.85-8.14C39.94,29.89,37,17,29.87,19.47c-4.35,1.55-5.45,4.69-8.71,1.9-2.8-2.41-6.73-3.79-9.66-1.89s-4.58,6.19-4.07,13C8.08,41.21,6.86,41.15,6.86,41.15Z"/></g></g></svg>