<svg xmlns="http://www.w3.org/2000/svg" xmlns:xlink="http://www.w3.org/1999/xlink" viewBox="0 0 53.49 84.04"><defs><style>.cls-1{fill:none;}.cls-2{clip-path:url(#clip-path);}.cls-3{fill:#bc9f82;}.cls-4{fill:#dcc5a1;}.cls-5{fill:#edd9b4;}.cls-6{fill:#f8f7e0;}.cls-7{fill:#211915;}.cls-8{fill:#837395;}.cls-9{fill:#ccad8b;}.cls-10{fill:#d9bf9f;}.cls-11{fill:#895a59;}</style><clipPath id="clip-path"><rect class="cls-1" x="20.93" y="53.01" width="11.47" height="6.76"/></clipPath></defs><title>Ativo 19avatar</title><g id="Camada_2" data-name="Camada 2"><g id="Objects"><g class="cls-2"><path class="cls-3" d="M32.4,56.64h0a6.69,6.69,0,0,1-5.74,3.12h0a7.2,7.2,0,0,1-5.7-3.1c.11-.69.21-1.43.29-2.19,0-.47.08-.93.12-1.41a23.29,23.29,0,0,0,5.23.68h.06A21.45,21.45,0,0,0,32,53c0,.46.09.93.13,1.38.09.79.18,1.54.3,2.25"/></g><path class="cls-4" d="M26.63,46.08V84H5.93l-.51-.22c0-20.36,12.67-21.87,12.67-21.87,1.27,0,2.08-1.62,2.62-4.08.09-.38.16-.77.22-1.19.11-.69.21-1.43.29-2.19,0-.47.08-.93.12-1.41.19-2.33.25-4.86.25-7.26,0,0,2.79.27,5,.27Z"/><path class="cls-5" d="M47.91,83.81s-.19.07-.49.22H26.63V46.08h0c2.25,0,5-.27,5-.27,0,2.38.06,4.88.25,7.2,0,.46.09.93.13,1.38.09.79.18,1.54.3,2.25h0a7.34,7.34,0,0,0,.15.9c.54,2.62,1.38,4.39,2.69,4.39,0,0,12.67,1.51,12.67,21.87Z"/><path class="cls-6" d="M36.47,74c.09,1.19-3.65,6.61-6.39,10.08H23.26c-2.75-3.46-6.48-8.89-6.41-10.1.08-1,0-10.88.67-11.71h0l9.14,9.91,8.58-10.2s.63.5,1,.9c.14.14-1,8.18-.9,8.33A4.54,4.54,0,0,1,36.47,74Z"/><path class="cls-7" d="M23.18,84H5.92a4.63,4.63,0,0,1-.49-.21c0-1.11,0-2.17.11-3.19A32.16,32.16,0,0,1,6,76.83,27.78,27.78,0,0,1,7,73c.09-.24.18-.48.26-.71a21.54,21.54,0,0,1,1.41-3.08A16.9,16.9,0,0,1,11,66c.17-.19.34-.37.52-.55a13.61,13.61,0,0,1,6-3.4c0,.07,0,.14-.05.2a18.55,18.55,0,0,0,0,6.41,2.48,2.48,0,0,0,0,.27c0,.19.05.36.1.56a.41.41,0,0,0,0,.11c0,.18.07.38.11.57A28.05,28.05,0,0,0,19,74.79c.45,1.22,1.2,2.94,2.08,4.84.14.35.3.66.45,1,.08.18.16.36.25.53.21.45.44.91.65,1.39.07.14.14.28.2.43l.05.1c.17.32.31.62.44.91l0,0Z"/><path class="cls-7" d="M30.16,84H47.42a4.63,4.63,0,0,0,.49-.21c0-1.11,0-2.17-.12-3.19a30.24,30.24,0,0,0-.46-3.79,29.32,29.32,0,0,0-.94-3.8c-.09-.24-.18-.48-.26-.71a20.5,20.5,0,0,0-1.42-3.08A16.47,16.47,0,0,0,42.32,66c-.17-.19-.35-.37-.52-.55a13.61,13.61,0,0,0-6-3.4c0,.07,0,.14,0,.2a18.55,18.55,0,0,1,0,6.41,2.48,2.48,0,0,1,0,.27c0,.19,0,.36-.1.56a.41.41,0,0,1,0,.11c0,.18-.07.38-.12.57a28,28,0,0,1-1.26,4.64c-.45,1.22-1.21,2.94-2.08,4.84-.14.35-.3.66-.45,1-.09.18-.16.36-.24.53-.22.45-.45.91-.66,1.39-.06.14-.14.28-.2.43l-.06.1c-.16.32-.3.62-.43.91a.05.05,0,0,0,0,0Z"/><path class="cls-8" d="M25.86,84H21.79c-.18-.19-.35-.36-.5-.53-8.35-8.74-9.64-15.18-9.64-15.18l3.44-1.51L13,65.44s.83-.92,2.31-2.29A15.27,15.27,0,0,1,17,61.92a10,10,0,0,1,2.73-1.14c-.1.1-1,.94-.74,6.23a9.55,9.55,0,0,0,.1,1,1.72,1.72,0,0,0,0,.24c0,.18.06.34.1.51a.53.53,0,0,0,0,.12,4.87,4.87,0,0,0,.12.52,43.67,43.67,0,0,0,3.43,8.75c.24.48.49.93.72,1.39s.6,1.14.89,1.7c.18.31.34.63.51.93l.56,1,.42.8Z"/><path class="cls-8" d="M27.61,84h4c.19-.19.34-.36.5-.53,8.27-8.74,9.55-15.18,9.55-15.18l-3.41-1.51,2.1-1.38s-.82-.92-2.29-2.29a14.17,14.17,0,0,0-1.68-1.23,7.49,7.49,0,0,0-2.65-1c.09.11.92.75.69,6,0,.35,0,.69-.1,1,0,.09,0,.16,0,.24s-.06.34-.1.51a.53.53,0,0,1,0,.12c0,.17-.08.35-.11.52a44.75,44.75,0,0,1-3.41,8.75c-.23.48-.48.93-.71,1.39s-.6,1.14-.88,1.7c-.18.31-.33.63-.51.93s-.36.68-.55,1l-.42.8Z"/><path class="cls-9" d="M26.69,2.55c-21.93,0-22,18.3-21.08,30.27C4.1,30-.34,30.87,0,35.33s6.64,6.54,6.55,6c1.79,9.86,12.12,15.55,20.12,15.55h.17V2.56Z"/><path class="cls-3" d="M1.43,33.45a2.07,2.07,0,0,1,3.16-.61,1.8,1.8,0,0,1,.51,2c-.15.57-.76.62-.6,1.48a1.5,1.5,0,0,0,.87,1.27,2.09,2.09,0,0,1,.74.81,2.18,2.18,0,0,1,.09,1.23c-.16.71-1.19.14-1.88-.16a13.07,13.07,0,0,1-2.27-1.84,3.88,3.88,0,0,1-.62-4.17Z"/><path class="cls-10" d="M26.8,2.55c21.92,0,22.05,18.3,21.08,30.27,1.5-2.84,5.95-1.95,5.59,2.51s-6.64,6.54-6.55,6c-1.8,9.86-12.13,15.55-20.12,15.55h-.17V2.56Z"/><path class="cls-3" d="M52.06,33.45a2.08,2.08,0,0,0-3.17-.61,1.84,1.84,0,0,0-.51,2c.16.57.76.62.62,1.48a1.54,1.54,0,0,1-.88,1.27,2.19,2.19,0,0,0-.75.81,2.37,2.37,0,0,0-.09,1.23c.17.71,1.2.14,1.89-.16a13.87,13.87,0,0,0,2.27-1.84,3.9,3.9,0,0,0,.62-4.17Z"/><path class="cls-4" d="M26.63,5.75c-7.21,0-12.49,2.1-15.69,6.22-4.47,5.75-4.3,14.55-2.65,20.86.5,1.93.76,7.12,1.11,9C11,50.4,20.41,55,26.63,55h.18V5.76Z"/><path class="cls-5" d="M42.3,12c-3.18-4.09-8.39-6.18-15.49-6.21V55c7.1-.09,15.59-5.07,17.06-13.08.34-1.92.6-7.11,1.1-9,1.64-6.3,1.81-15.08-2.67-20.86Z"/><path class="cls-11" d="M36.19,48.21h0v0c0-.17,0-.34-.06-.51s-.07-.17-.11-.24a4,4,0,0,0-.62-1.2,3.39,3.39,0,0,0-.34-.39h0a3.49,3.49,0,0,0-.91-.64h0l-2.87-2-.32-.22-.11-.08h0a7.09,7.09,0,0,0-3.87-1.13h-.49a7.12,7.12,0,0,0-3.87,1.13h0l-.1.08-.32.22-2.88,2h0a3.32,3.32,0,0,0-.91.64h0a3.42,3.42,0,0,0-.35.39,4,4,0,0,0-.61,1.2,1.75,1.75,0,0,0-.11.24c0,.17-.05.34-.07.51v0h0a9.7,9.7,0,0,0,0,1.86,17.77,17.77,0,0,0,3.73,10c1,1.33,5.22,4,5.22,4l.37.29h.77s4.25-2.9,5.21-4.28a18.44,18.44,0,0,0,3.73-10A8.92,8.92,0,0,0,36.19,48.21Zm-4.43.66v2.24a1.59,1.59,0,0,1-3.17,0V48.87a1.51,1.51,0,0,1,.09-.48c-.91-.13-1.65-.27-1.65-.27h0l-.33,0-.34,0h0s-.74.14-1.65.27a1.51,1.51,0,0,1,.08.48v2.24a1.58,1.58,0,0,1-3.16,0V48.87a1.45,1.45,0,0,1,.08-.47l-.08,0,.21-.27a1.65,1.65,0,0,1,.34-.41,4.77,4.77,0,0,1,3.08-1.85,7.85,7.85,0,0,1,1.19-.1h.49a7.88,7.88,0,0,1,1.2.1,4.77,4.77,0,0,1,3.08,1.85,1.61,1.61,0,0,1,.33.41l.22.27a.29.29,0,0,0-.08,0A1.78,1.78,0,0,1,31.76,48.87Z"/><path class="cls-11" d="M49,24.92a27.1,27.1,0,0,1-.25,3.28,6,6,0,0,1-.31,1.45,18.9,18.9,0,0,0-1.08,3.64,4.58,4.58,0,0,0-1.21,1.78c-.66,1.72-.92,1.43-.92,1.43s.21-1.36.45-3c.13-1.41.33-3.48.48-5.28l.06-.73c-.3-1.44-3-8.36-16-7.71a12.16,12.16,0,0,1-5.84-1.51c-1.7-.85-2.88-1.75-3-1.75-.57,0-5.76-1-8.81,1.31a4,4,0,0,0-.54.44c-3.62,3.12-4.12,8.54-4.12,9.62,0,.1,0,.21,0,.33.1,2.24,1,8.3,1,8.3s-.25.29-.92-1.43a4.78,4.78,0,0,0-1.44-2,15.19,15.19,0,0,1-1.49-3.43,9.7,9.7,0,0,0-.73-1.45c-.69-1.36-1.49-3.86-.65-9.95,0-.28.08-.55.13-.85C4.47,13.25,7.64,3.9,16,2.24S26.34-1.38,33.18,1.4s11.17,4.73,13.27,9.32a29,29,0,0,1,1.92,7.53A55.33,55.33,0,0,1,49,24.92Z"/></g></g></svg>