<svg xmlns="http://www.w3.org/2000/svg" xmlns:xlink="http://www.w3.org/1999/xlink" viewBox="0 0 50.47 84.55"><defs><style>.cls-1{fill:none;}.cls-2{fill:#422e14;}.cls-3{fill:#dcc5a1;}.cls-4{fill:#edd9b4;}.cls-5{clip-path:url(#clip-path);}.cls-6{fill:#bc9f82;}.cls-7{fill:#fff;}.cls-8{fill:#d9bf9f;}.cls-9{fill:#ccad8b;}.cls-10{fill:#211915;}.cls-11{fill:#f8f7e0;}</style><clipPath id="clip-path"><rect class="cls-1" x="19.96" y="55.52" width="10.73" height="6.32"/></clipPath></defs><title>Ativo 13avatar</title><g id="Camada_2" data-name="Camada 2"><g id="Objects"><path class="cls-2" d="M29.06,84.55H40.88c-.09-1.57-.2-4.47-.15-8.38a47,47,0,0,1,.75-6.64,12.65,12.65,0,0,0-8.14-5.66,1.47,1.47,0,0,1-1-.39s0,0,0,0a2.12,2.12,0,0,1-.28-.31.71.71,0,0,0-.18.34,75.15,75.15,0,0,0-2.17,9.39,82.06,82.06,0,0,0-.66,11.68Z"/><path class="cls-3" d="M25.31,49V84.55H5.93a3.9,3.9,0,0,0-.47-.2c0-7.12,1.66-11.78,3.72-14.82a12.65,12.65,0,0,1,8.14-5.66,1.48,1.48,0,0,0,1-.39s0,0,0,0,.19-.2.29-.31a8.3,8.3,0,0,0,1.16-3.08A7.54,7.54,0,0,0,20,59c.11-.65.21-1.34.28-2.06l.12-1.31c.18-2.18.23-4.55.23-6.79,0,0,2.61.25,4.72.25Z"/><path class="cls-4" d="M45.22,84.35a2.92,2.92,0,0,0-.46.2H25.31V49h0c2.1,0,4.73-.25,4.73-.25,0,2.23.05,4.57.23,6.73l.12,1.29c.08.74.16,1.45.27,2.11v0c.05.29.09.56.15.84a7,7,0,0,0,1.56,3.7,1.39,1.39,0,0,0,1,.39S45.22,65.3,45.22,84.35Z"/><g class="cls-5"><path class="cls-6" d="M30.7,58.92h0a6.31,6.31,0,0,1-5.37,2.91h0A6.8,6.8,0,0,1,20,59c.11-.66.2-1.35.28-2.07,0-.43.08-.86.12-1.31a20.94,20.94,0,0,0,4.89.64h.05a20.19,20.19,0,0,0,5-.69c.05.44.09.87.12,1.28.09.75.17,1.46.28,2.12"/></g><path class="cls-7" d="M45.22,84.35a2.92,2.92,0,0,0-.46.2H5.93a3.9,3.9,0,0,0-.47-.2,36.67,36.67,0,0,1,.84-8.08v0c.08-.32.17-.63.25-.94l.24-.85c.18-.56.37-1.08.57-1.59q.21-.53.45-1a16,16,0,0,1,1.07-2l.29-.44a14.12,14.12,0,0,1,2.23-2.61,10.44,10.44,0,0,1,1.47-1.17l.26-.2a10.43,10.43,0,0,1,1-.6h0a3.15,3.15,0,0,1,.39-.22l.18-.08a9.41,9.41,0,0,1,1.77-.66h0a3.34,3.34,0,0,1,.65-.14h0l.11,0a1.46,1.46,0,0,0,1-.41s0,0,0,0a.9.9,0,0,1,.46,0c1.26.35,2.57,3,3.9,5.06.19.28.36.54.54.79.7.92,1.39,1.58,2.1,1.58h0c2.47,0,4.84-7.92,7.08-7.43a1.37,1.37,0,0,0,1,.41s11.85,1.43,11.85,20.66Z"/><path class="cls-2" d="M21.6,84.55H9.78c.1-1.59.2-4.53.15-8.49a47.93,47.93,0,0,0-.75-6.72c3.48-5.18,8.14-5.75,8.14-5.75a1.5,1.5,0,0,0,1-.4s0,0,0,0,.19-.2.29-.33a.88.88,0,0,1,.17.35,76.83,76.83,0,0,1,2.16,9.52,86.14,86.14,0,0,1,.67,11.84Z"/><path class="cls-2" d="M29.07,84.55H40.88c-.09-1.59-.2-4.53-.14-8.49a47.72,47.72,0,0,1,.74-6.72c-3.48-5.18-8.13-5.75-8.13-5.75a1.46,1.46,0,0,1-1-.4s0,0,0,0a2.36,2.36,0,0,1-.29-.33.84.84,0,0,0-.18.35,76.83,76.83,0,0,0-2.16,9.52,84.23,84.23,0,0,0-.66,11.84Z"/><path class="cls-8" d="M25.46,8.31C46,8.31,46.1,25.43,45.18,36.62,46.59,34,50.76,34.79,50.41,39s-6.21,6.12-6.12,5.65C42.6,53.84,33,59.17,25.46,59.17H25.3V8.31Z"/><path class="cls-6" d="M49.11,37.21a2,2,0,0,0-3-.57,1.71,1.71,0,0,0-.48,1.86c.14.53.71.57.57,1.4a1.45,1.45,0,0,1-.82,1.18,1.9,1.9,0,0,0-.69.76A2,2,0,0,0,44.63,43c.16.66,1.12.14,1.77-.15a12.26,12.26,0,0,0,2.12-1.73,3.68,3.68,0,0,0,.59-3.9Z"/><path class="cls-9" d="M25.36,8.31C4.84,8.31,4.72,25.43,5.63,36.62,4.23,34,.06,34.79.4,39s6.21,6.12,6.13,5.65c1.69,9.22,11.34,14.55,18.83,14.55h.16V8.31Z"/><path class="cls-6" d="M1.74,37.21a1.94,1.94,0,0,1,3-.57,1.7,1.7,0,0,1,.48,1.86c-.14.53-.71.57-.57,1.4a1.45,1.45,0,0,0,.82,1.18,1.9,1.9,0,0,1,.69.76A1.91,1.91,0,0,1,6.21,43c-.15.66-1.12.14-1.76-.15a12.33,12.33,0,0,1-2.13-1.73,3.65,3.65,0,0,1-.58-3.9Z"/><path class="cls-3" d="M25.18,13.13c-6.75,0-11.69,1.95-14.69,5.82C6.31,24.33,6.48,32.56,8,38.46c.46,1.81.71,6.68,1,8.47,1.46,8,10.3,12.24,16.13,12.24h.15v-46Z"/><path class="cls-4" d="M39.84,19c-3-3.83-7.85-5.78-14.51-5.82v46c6.66-.07,14.61-4.73,16-12.23.33-1.79.57-6.66,1-8.47C43.88,32.57,44,24.35,39.84,19Z"/><path class="cls-10" d="M41.53,39.54a7.07,7.07,0,0,0-14.12.22,5.44,5.44,0,0,0-4-.06,7.08,7.08,0,0,0-14.12-.28,34.13,34.13,0,0,1-3.54-4.23l-.64.35c0,.05,2.83,4.07,4.17,4.7a7.07,7.07,0,0,0,14.12.25,4.51,4.51,0,0,1,4,.12,7.07,7.07,0,0,0,14.11-.31c1.24-.31,4.32-4.71,4.34-4.76v-1A36.42,36.42,0,0,1,41.53,39.54Z"/><path class="cls-11" d="M50.18,40.12c-1-7.18.71-12.77-.62-18.38s-1.69-6.15-3.92-9.2S41.29,7,35.28,5,28,3.69,25.72,3.72a11,11,0,0,0-6,1.77,5.69,5.69,0,0,1,.21-3A16,16,0,0,1,21,0S19.5,2.24,19.18,2.81C17.88,5.12,18.29,6,18.29,6c-1.22-.67-6.44-2.75-6.44-2.75s1.77,1.1,2,2.08S2.06,10.9.38,23.34A35,35,0,0,0,.43,34a20.92,20.92,0,0,0,5.48,8.84c.19-1.69.09-2.89.37-4.32.08-.39.15-.88.21-1.44A12.06,12.06,0,0,0,7.4,40,12.58,12.58,0,0,0,9,42.56,15,15,0,0,1,7.89,36.1c.18-2.08,1.43-2.4,4.2-10a9,9,0,0,0,.46-1.92,4.91,4.91,0,0,0,.52,1.08A11.23,11.23,0,0,0,18.2,29.5a9.55,9.55,0,0,1-3.35-7.06,11.21,11.21,0,0,1,.89-4.39s-.85,5.08,6.84,8.12a6.05,6.05,0,0,0,3.93.3s-3.19-1.88-3.22-5.13A26.08,26.08,0,0,0,37,29.63a19.23,19.23,0,0,0,5.72.57s.36-.73.25,2.71-.71,4.9-1.52,6.09a11.2,11.2,0,0,1-1.35,1.36,8.47,8.47,0,0,0,4.16-4.18c.81-1.63,1.43-2.46,1.39-3.43.08,1.2-.4,3-.65,6.88C44.48,46.87,42,50,42,50a9.64,9.64,0,0,0,3.36-4c.16-.32.31-.66.47-1,.07-.18.15-.36.22-.56h0c.45-1.15.88-5.57,1.26-7.22,0,0,.87,4.19,1.31,6.4A9.88,9.88,0,0,0,49.92,41S51,45.77,50.18,40.12Z"/></g></g></svg>