<svg xmlns="http://www.w3.org/2000/svg" viewBox="0 0 47.38 78.92"><defs><style>.cls-1{fill:none;}.cls-2{fill:#5a4f51;}.cls-3{fill:#dcc5a1;}.cls-4{fill:#edd9b4;}.cls-5,.cls-9{fill:#bc9f82;}.cls-5{opacity:0.7;}.cls-6{fill:#b9c98e;}.cls-7{fill:#fdfdfd;}.cls-8{fill:#ccad8b;}.cls-10{fill:#d9bf9f;}</style></defs><title>Ativo 7avatar</title><g id="Camada_2" data-name="Camada 2"><g id="Objects"><polyline class="cls-1" points="43.66 78.92 42.13 78.28 40.59 78.28 28.89 78.92"/><path class="cls-2" d="M36.73,61.29c0,2.83-5.81,5.12-13,5.12s-13-2.29-13-5.12,5.81-5.12,13-5.12S36.73,58.46,36.73,61.29Z"/><path class="cls-3" d="M23.59,45.55v33H5.25l-.45-.19C4.8,60.3,16,59.59,16,59.59c.85,0,1.48-.83,1.93-2.19A13.12,13.12,0,0,0,18.34,56a10.31,10.31,0,0,0,.2-1c.1-.62.19-1.27.25-2,.05-.41.08-.82.12-1.24.17-2.07.22-4.31.22-6.44C19.13,45.3,21.6,45.55,23.59,45.55Z"/><path class="cls-4" d="M42.45,78.33s-.17.71-.44.19l-18.42-.64V45.55h0c2,0,4.48-.25,4.48-.25,0,2.12.05,4.34.21,6.39.05.41.08.82.12,1.21.08.71.16,1.37.26,2v0c0,.28.09.53.14.79a12.23,12.23,0,0,0,.45,1.7c.46,1.36,1.09,2.18,1.93,2.18C31.22,59.59,42.45,60.3,42.45,78.33Z"/><path class="cls-5" d="M28.7,54.91h0a5.93,5.93,0,0,1-5.08,2.76h0a6.4,6.4,0,0,1-5.05-2.75c.1-.61.19-1.26.25-2,0-.41.08-.81.12-1.24a19.86,19.86,0,0,0,4.63.6h.05a18.63,18.63,0,0,0,4.73-.65l.12,1.22C28.52,53.61,28.59,54.28,28.7,54.91Z"/><path class="cls-6" d="M29.09,61.77l-.2,16.75H18.13l-.13-17a21.21,21.21,0,0,0,5.95,1A18.8,18.8,0,0,0,29.09,61.77Z"/><path class="cls-2" d="M42.56,78.65a34.45,34.45,0,0,0-.31-4.86C41.11,65.23,37,61.68,34.14,60.23a9.23,9.23,0,0,0-2.8-1c-.84,0-1.48-.66-1.95-2-.09-.17-.16,0-.24-.35l-.06,5.19-1.44,4.49H19.47L18,61.83l0-4.75c-.45,1.36-1.08,2.19-1.93,2.19a8.81,8.81,0,0,0-2.66.9C10.3,61.7,5.78,65.33,4.92,74.69c-.12,1.23-.12,2.52-.12,4l.45.19H8v0H39v0h3.13Z"/><polygon class="cls-6" points="24.05 72.19 23.29 72.19 20.08 68.16 27.26 68.16 24.05 72.19"/><path class="cls-7" d="M42.57,41.52s-1.09-1.38-.44-10.19a37.44,37.44,0,0,0-.7-9.58c.06.25-6.32,12.84-6.32,12.84-.22,3.52-.4,6.95-.44,9.34L33.6,42.11a37.1,37.1,0,0,0-1,4.19,1.34,1.34,0,0,0,0,.2L29.1,43.08s0,2,.18,3.82L27.2,44.83s0,5,.72,6.62c.78,1.77.07,6.68.07,6.68a14.22,14.22,0,0,0,2.11-3.64c-.08,1.09-.2,1.9-.2,1.9a15.35,15.35,0,0,0,2.74-5.52c0,.75.09,1.52.1,2.26a14.86,14.86,0,0,1-.85,4.7,20.55,20.55,0,0,0,2.87-6.73c.18,3.08.63,5.32,1.56,6.52-.12-.21-.59-1.22-.48-3.84,0-1.17.16-2.45.3-3.73A10.16,10.16,0,0,0,39,55.22,17.35,17.35,0,0,1,37.91,47c.11-.92.19-1.72.26-2.45a24.45,24.45,0,0,0,.49,4.18,15.92,15.92,0,0,0,2.39,5.9S39.5,51.21,40.91,42A16.66,16.66,0,0,0,41,39.12C41.87,41.21,42.57,41.52,42.57,41.52Z"/><path class="cls-7" d="M4.8,41s1.1-1.38.45-10.18a37.22,37.22,0,0,1,.69-9.59c-.06.26,6.32,12.84,6.32,12.84.22,3.52.4,7,.44,9.34l1.07-1.82a37.1,37.1,0,0,1,1,4.19,1.48,1.48,0,0,1,0,.21l3.45-3.42s0,2-.19,3.81l2.09-2.07s0,5-.71,6.62c-.79,1.77-.08,6.68-.08,6.68A14.22,14.22,0,0,1,17.27,54c.09,1.09.2,1.91.2,1.91a15.3,15.3,0,0,1-2.74-5.53c0,.76-.09,1.52-.1,2.27a14.84,14.84,0,0,0,.85,4.69,20.42,20.42,0,0,1-2.86-6.73c-.19,3.09-.63,5.32-1.57,6.53.12-.22.59-1.23.48-3.85,0-1.17-.16-2.45-.3-3.72A10.1,10.1,0,0,1,8.35,54.7a17.35,17.35,0,0,0,1.11-8.23c-.11-.92-.19-1.72-.26-2.45a24.45,24.45,0,0,1-.49,4.18,15.82,15.82,0,0,1-2.39,5.9s1.55-3.41.14-12.65a16.58,16.58,0,0,1-.08-2.84C5.5,40.69,4.8,41,4.8,41Z"/><path class="cls-8" d="M23.64,7C4.22,7,4.11,23.2,5,33.81,3.64,31.29-.3,32.07,0,36s5.88,5.79,5.8,5.34c1.59,8.74,10.73,13.77,17.82,13.77h.15V7Z"/><path class="cls-9" d="M1.26,34.35a1.84,1.84,0,0,1,2.8-.53,1.59,1.59,0,0,1,.46,1.76c-.14.51-.67.55-.54,1.32A1.35,1.35,0,0,0,4.75,38a1.78,1.78,0,0,1,.66.72,2,2,0,0,1,.09,1.09c-.15.63-1.07.13-1.68-.15a11.68,11.68,0,0,1-2-1.63A3.49,3.49,0,0,1,1.26,34.35Z"/><path class="cls-10" d="M23.74,7C43.17,7,43.28,23.2,42.41,33.81c1.34-2.52,5.28-1.74,5,2.22s-5.88,5.79-5.8,5.34C40,50.11,30.83,55.14,23.74,55.14h-.15V7Z"/><path class="cls-9" d="M46.12,34.35a1.84,1.84,0,0,0-2.8-.53,1.61,1.61,0,0,0-.46,1.76c.14.51.68.55.55,1.32A1.36,1.36,0,0,1,42.63,38a1.78,1.78,0,0,0-.66.72,2,2,0,0,0-.08,1.09c.14.63,1.06.13,1.67-.15a11,11,0,0,0,2-1.63A3.47,3.47,0,0,0,46.12,34.35Z"/><path class="cls-3" d="M23.48,11.56c-6.4,0-11.07,1.85-13.91,5.5C5.62,22.16,5.77,30,7.23,35.55c.44,1.71.67,6.31,1,8C9.59,51.12,18,55.14,23.48,55.14h.14V11.57Z"/><path class="cls-4" d="M37.35,17.07c-2.81-3.63-7.44-5.47-13.73-5.5V55.14c6.3-.07,13.83-4.48,15.12-11.59.31-1.69.53-6.29,1-8C41.17,30,41.32,22.19,37.35,17.07Z"/><path class="cls-7" d="M44.85,23.92a24.85,24.85,0,0,1-.24,3.15,5,5,0,0,1-.29,1.39,17.86,17.86,0,0,0-1,3.5,4.36,4.36,0,0,0-1.16,1.7c-.63,1.65-.88,1.37-.88,1.37s.19-1.3.42-2.9c.14-1.34.32-3.34.47-5.06,0-.24,0-.48,0-.7-.28-1.39-2.89-8-15.34-7.4a11.75,11.75,0,0,1-5.61-1.45c-1.63-.81-2.76-1.68-2.87-1.68-.55,0-5.53-.92-8.45,1.25a5.52,5.52,0,0,0-.53.43c-3.47,3-4,8.2-4,9.23,0,.1,0,.2,0,.32.1,2.14,1,8,1,8s-.24.28-.88-1.37a4.5,4.5,0,0,0-1.39-1.9,15.07,15.07,0,0,1-1.42-3.3A9.93,9.93,0,0,0,2,27.07c-.67-1.3-1.43-3.71-.63-9.55l.12-.81c.62-4,3.66-13,11.7-14.56s9.91-3.48,16.48-.8,10.72,4.54,12.74,8.94a28,28,0,0,1,1.84,7.23A53,53,0,0,1,44.85,23.92Z"/></g></g></svg>