<svg xmlns="http://www.w3.org/2000/svg" viewBox="0 0 48.87 79.36"><defs><style>.cls-1{fill:#dcc5a1;}.cls-2{fill:#edd9b4;}.cls-3,.cls-5{fill:#bc9f82;}.cls-3{opacity:0.7;}.cls-4{fill:#ccad8b;}.cls-6{fill:#d9bf9f;}.cls-7{fill:#442c38;}.cls-8{fill:#fff;}.cls-9{fill:#82acc6;}</style></defs><title>Ativo 57avatar</title><g id="Camada_2" data-name="Camada 2"><g id="Objects"><path class="cls-1" d="M24.33,44.69V79.36H5.42L5,79.17c0-18.61,11.58-20,11.58-20,1.16,0,1.9-1.48,2.39-3.73a10.93,10.93,0,0,0,.2-1.08c.11-.64.2-1.31.26-2,0-.43.08-.85.13-1.29.17-2.13.22-4.44.22-6.63C19.73,44.44,22.28,44.69,24.33,44.69Z"/><path class="cls-2" d="M43.78,79.17s-.17.06-.45.19h-19V44.69h0c2.06,0,4.62-.25,4.62-.25,0,2.18.05,4.47.22,6.58l.12,1.26c.08.72.16,1.41.27,2.06h0c0,.29.09.56.14.82.49,2.39,1.26,4,2.46,4C32.2,59.18,43.78,60.56,43.78,79.17Z"/><path class="cls-3" d="M29.6,54.34h0a6.11,6.11,0,0,1-5.24,2.84h0a6.6,6.6,0,0,1-5.21-2.82c.11-.64.2-1.31.26-2,0-.43.08-.85.13-1.29a19.87,19.87,0,0,0,4.77.62h0A19.37,19.37,0,0,0,29.21,51l.12,1.26C29.41,53,29.49,53.69,29.6,54.34Z"/><path class="cls-4" d="M24.38,4.92c-20,0-20.14,16.72-19.25,27.66C3.75,30-.31,30.78,0,34.87c.32,3.93,6.07,6,6,5.51,1.65,9,11.08,14.2,18.38,14.2h.16V4.92Z"/><path class="cls-5" d="M1.3,33.14a1.89,1.89,0,0,1,2.89-.55,1.64,1.64,0,0,1,.47,1.81c-.14.53-.69.57-.55,1.37a1.37,1.37,0,0,0,.8,1.15,1.94,1.94,0,0,1,.67.74,2,2,0,0,1,.09,1.13c-.15.64-1.09.13-1.73-.16A12.39,12.39,0,0,1,1.87,37,3.58,3.58,0,0,1,1.3,33.14Z"/><path class="cls-6" d="M24.48,4.92c20,0,20.16,16.72,19.27,27.66,1.37-2.6,5.44-1.8,5.1,2.29-.32,3.93-6.06,6-6,5.51-1.65,9-11.07,14.2-18.39,14.2h-.15V4.92Z"/><path class="cls-5" d="M47.57,33.14a1.89,1.89,0,0,0-2.89-.55,1.65,1.65,0,0,0-.47,1.81c.14.53.69.57.56,1.37a1.39,1.39,0,0,1-.8,1.15,1.89,1.89,0,0,0-.68.74,2,2,0,0,0-.09,1.13c.15.64,1.1.13,1.73-.16A11.64,11.64,0,0,0,47,37,3.54,3.54,0,0,0,47.57,33.14Z"/><path class="cls-1" d="M24.22,9.63c-6.6,0-11.42,1.91-14.35,5.68C5.79,20.57,6,28.6,7.45,34.37c.46,1.76.7,6.51,1,8.26,1.42,7.8,10.06,11.95,15.75,11.95h.15V9.64Z"/><path class="cls-2" d="M38.52,15.31c-2.9-3.74-7.66-5.64-14.15-5.67V54.57C30.86,54.51,38.62,50,40,42.63c.31-1.75.55-6.5,1-8.26C42.47,28.62,42.62,20.59,38.52,15.31Z"/><path class="cls-7" d="M43.16,35.62A70.61,70.61,0,0,0,45.53,20.9c0-3.29-.62-7.82-2-9.86C41.83,8.36,41.7,9.11,41.7,9.11S43.46,1.79,32.52.16A25.34,25.34,0,0,0,28.22,0l1.49,1.5A30.7,30.7,0,0,0,16.35.76c-5.53.85-9.3,3.56-12.43,8a19.65,19.65,0,0,0-2.74,7.32l4-5.37a18.53,18.53,0,0,0-4,14.4C2.87,37.86,8.82,40.23,8.82,40.23s-4.1-7.65-1.39-12.61A15.93,15.93,0,0,1,20,19.05a11.49,11.49,0,0,0-9.63,8.76,6.23,6.23,0,0,1,3.82-3.55c2.37-.91,5.72-.58,9.53-2.31a80.77,80.77,0,0,0,9.63-6s-8.17,3-10.48,5a14.2,14.2,0,0,0-4.7,8.56,17,17,0,0,1,8.2-6c3.19-1.2,8.94-3.3,8.94-3.3a11.42,11.42,0,0,0-7.27,2.27c-2.43,2-1.74,6.46-1.14,7.27,0,0-.2-3.34,7.12-5.43,4.2-1.21,4.88-3.59,4.88-3.59a13,13,0,0,0,.54,3.86c.65,1.75,2.52,2.89,2.65,4.46.24,2.93-1.34,8.42-1.34,8.42Z"/><path class="cls-8" d="M14.15,7.65A20.6,20.6,0,0,0,12.25,9a19.56,19.56,0,0,0-1.67,1.61,11.27,11.27,0,0,0-2.43,3.78l-1-.44a1.82,1.82,0,0,1,.67-.68A3.74,3.74,0,0,1,8.54,13a12.46,12.46,0,0,1,1.35-.44c.9-.23,1.83-.39,2.64-.59l1.1-.27-.36,1.07a23.57,23.57,0,0,1-1.33,3c-.49,1-1,1.91-1.58,2.84l-1-.82a20.94,20.94,0,0,1,3.33-2.18,18.85,18.85,0,0,1,3.64-1.54,14.68,14.68,0,0,1,3.89-.72,10.51,10.51,0,0,1,3.86.6,11.6,11.6,0,0,0-3.81,0,15.81,15.81,0,0,0-3.63,1,25.87,25.87,0,0,0-3.37,1.69c-.54.32-1.06.67-1.58,1s-1,.73-1.49,1.11L7.52,21l1.72-3.06a44.73,44.73,0,0,0,2.85-5.6l.75.8c-.95.2-1.81.32-2.66.52A8.69,8.69,0,0,0,9,14a4.43,4.43,0,0,0-.53.23,1.07,1.07,0,0,0-.3.24L6,16.67,7.16,14a12,12,0,0,1,2.95-3.87A14.8,14.8,0,0,1,14.15,7.65Z"/><path class="cls-7" d="M32.51,45.85a2.68,2.68,0,0,0-1.77-1.34s1.78,1.68-.35,2.25c0,0-.91.25-1.22-1.08a2.58,2.58,0,0,0-2.71-1.9,3.13,3.13,0,0,0-2.08.89l-.09,0-.1,0a3.13,3.13,0,0,0-2.08-.89,2.58,2.58,0,0,0-2.71,1.9c-.31,1.33-1.22,1.08-1.22,1.08-2.13-.57-.35-2.25-.35-2.25a2.64,2.64,0,0,0-1.76,1.34c-1.33,2.76,3,3.82,3,3.82a6.53,6.53,0,0,0,5.24-1.08,6.49,6.49,0,0,0,5.23,1.08S33.83,48.61,32.51,45.85Z"/><path class="cls-9" d="M32.68,59.27a1.28,1.28,0,0,1-.72-.43A14.61,14.61,0,0,0,30.6,57a.83.83,0,0,1-.13-.14L30.27,58l-5.91,3-5.82-2.81-.29-1.35a.2.2,0,0,1-.08.08c-.78.9-2.13,2.38-2.12,2.32C13.87,59.78,5,62.84,5,79.17l.46.19h37.9l.46-.19C43.78,62.84,34.87,59.78,32.68,59.27Z"/></g></g></svg>