<svg xmlns="http://www.w3.org/2000/svg" viewBox="0 0 49.03 78.09"><defs><style>.cls-1{fill:#dcc5a1;}.cls-2{fill:#edd9b4;}.cls-3,.cls-5{fill:#bc9f82;}.cls-3{opacity:0.7;}.cls-4{fill:#ccad8b;}.cls-6{fill:#d9bf9f;}.cls-7{fill:#5a4f51;}.cls-8{fill:#f8f7e0;}.cls-9{fill:#4f4e49;}.cls-10{fill:#bd2c62;}.cls-11{fill:#895a59;}.cls-12{fill:#403836;}</style></defs><title>Ativo 17avatar</title><g id="Camada_2" data-name="Camada 2"><g id="Objects"><path class="cls-1" d="M24.41,43.3V78.09h-19L5,77.89c0-18.66,11.62-20,11.62-20,1.16,0,1.9-1.49,2.4-3.74.08-.35.14-.7.2-1.09.1-.64.2-1.31.26-2,0-.42.08-.84.12-1.28.15-1.74.2-3.61.22-5.42,0-.42,0-.83,0-1.24C19.79,43.05,22.34,43.3,24.41,43.3Z"/><path class="cls-2" d="M43.91,77.89a4.4,4.4,0,0,0-.45.2h-19V43.3h0c2.07,0,4.64-.25,4.64-.25,0,.48,0,1,0,1.44,0,1.73.08,3.51.21,5.16,0,.43.08.86.12,1.27.08.72.16,1.41.27,2.06v0c0,.29.09.55.14.82.5,2.4,1.27,4,2.46,4C32.29,57.84,43.91,59.23,43.91,77.89Z"/><path class="cls-3" d="M29.69,53v0a6.16,6.16,0,0,1-5.26,2.85h0A6.6,6.6,0,0,1,19.18,53c.1-.63.2-1.31.26-2l.12-1.29a20.7,20.7,0,0,0,4.79.62h.06a19.59,19.59,0,0,0,4.9-.67c0,.42.07.85.11,1.26C29.5,51.65,29.58,52.34,29.69,53Z"/><path class="cls-4" d="M24.46,3.42C4.36,3.42,4.25,20.18,5.14,31.16,3.76,28.55-.31,29.36,0,33.45s6.08,6,6,5.53c1.65,9,11.11,14.25,18.44,14.25h.16V3.42Z"/><path class="cls-5" d="M1.3,31.72a1.9,1.9,0,0,1,2.9-.55A1.65,1.65,0,0,1,4.68,33c-.14.52-.7.56-.56,1.37a1.41,1.41,0,0,0,.8,1.16,1.82,1.82,0,0,1,.68.74,2,2,0,0,1,.09,1.13c-.15.64-1.1.13-1.74-.16a12.46,12.46,0,0,1-2.08-1.68A3.61,3.61,0,0,1,1.3,31.72Z"/><path class="cls-6" d="M24.56,3.42c20.1,0,20.22,16.76,19.32,27.74,1.38-2.61,5.46-1.8,5.13,2.29s-6.09,6-6,5.53c-1.65,9-11.1,14.25-18.44,14.25h-.15V3.42Z"/><path class="cls-5" d="M47.72,31.72a1.9,1.9,0,0,0-2.9-.55A1.65,1.65,0,0,0,44.35,33c.14.52.69.56.56,1.37a1.42,1.42,0,0,1-.81,1.16,1.89,1.89,0,0,0-.68.74,2.11,2.11,0,0,0-.09,1.13c.16.64,1.1.13,1.74-.16a12.06,12.06,0,0,0,2.08-1.68A3.61,3.61,0,0,0,47.72,31.72Z"/><path class="cls-1" d="M24.29,8.14c-6.61,0-11.46,1.91-14.39,5.69C5.81,19.11,6,27.17,7.48,33c.46,1.76.69,6.53,1,8.28,1.42,7.83,10.08,12,15.79,12h.15V8.15Z"/><path class="cls-2" d="M38.64,13.84C35.73,10.09,31,8.18,24.44,8.15V53.22c6.52-.07,14.3-4.63,15.64-12,.32-1.75.55-6.52,1-8.28C42.6,27.18,42.75,19.14,38.64,13.84Z"/><path class="cls-7" d="M36.12,46.2c-.3-1.06-1.48-.73-3.66-1.49a29.76,29.76,0,0,0-8-1.16h0a29.83,29.83,0,0,0-8,1.16c-2.17.76-3.35.43-3.66,1.49a9.31,9.31,0,0,0,.5,3.58c.85,1.36,3.62,3,5.67,3.94,1.55.7,2.77.73,5.51.66s4,0,5.51-.66c2.06-.93,4.83-2.58,5.68-3.94A9.11,9.11,0,0,0,36.12,46.2ZM32,46.73a15,15,0,0,1-4,2.48,4,4,0,0,1-2,.28l-1.48,0h-.25l-1.48,0a4,4,0,0,1-2-.28,13.8,13.8,0,0,1-4.05-2.57A5.24,5.24,0,0,1,18,46.11a25.21,25.21,0,0,1,6.47-.9h.14a24.68,24.68,0,0,1,6.34.9,5.86,5.86,0,0,1,1.16.52A.69.69,0,0,0,32,46.73Z"/><path class="cls-8" d="M3.64,17.22c.25-3-3-1.71.89-6.21s6.57-7,9.61-8S20.84-.42,26.4.06,35-1.4,37.9,2.74s3.92,4.5,5.06,9.13,4.93,8.18.51,7.61S3.64,17.22,3.64,17.22Z"/><path class="cls-9" d="M43.86,16.13c-1.37-.5-4.78-1.57-7.75-2.61a7.64,7.64,0,0,0-1.21-.47c-4.48-1.27-4.7-3.32-11.19-2.84s-15,4.63-18.34,5.85-4.24,4.38-4,7.91a22.42,22.42,0,0,0,1.13,5.84C6.75,27,11.11,23.6,16,23.11s7.11-.85,11.85,0,7.41.2,11.84,2.28c2.43,1.3,4.76,3,7.06,4.48A22.57,22.57,0,0,0,47.85,24C48.1,20.51,47.23,17.34,43.86,16.13Z"/><polygon class="cls-10" points="28.81 10.79 28.83 10.76 28.8 10.76 26.65 7.09 24.51 3.37 22.37 7.09 20.22 10.76 20.2 10.76 20.21 10.79 20.2 10.8 20.22 10.8 22.37 14.48 24.51 18.2 26.65 14.48 28.8 10.8 28.83 10.8 28.81 10.79"/><path class="cls-11" d="M43.91,77.89a4.4,4.4,0,0,0-.45.2h-38L5,77.89c0-18.22,11.07-20,11.61-20h0c.88,0,1.52-.85,2-2.23a2.15,2.15,0,0,0,.83.72c.68.37,2,.72,5.05.72s5.14-.66,5.7-1.17a1,1,0,0,0,.17-.27c.45,1.33,1.07,2.16,1.88,2.23h.1S43.91,59.23,43.91,77.89Z"/><path class="cls-12" d="M32.43,59.8c-2.56,1.8-4.23,2.22-8,2.22s-5.13-.54-7.07-1.5C15.94,59.84,15,59.31,16,58.43a6.8,6.8,0,0,0,.6-.59h0a9,9,0,0,0,.77-1.18c.52-.76-.93-1.2,0-1.78a2.38,2.38,0,0,1,1.58-.46c-.33,1.19.18,1.73.5,1.91.68.37,2,.72,5.05.72a10.5,10.5,0,0,0,5.25-1c.56-.31.42-.93.4-1.2a1.08,1.08,0,0,1-.08-.24s1.7.1,1.55.94a3.31,3.31,0,0,0,.63,2.32c.08.1.15.21.23.3C33,58.92,33.93,58.74,32.43,59.8Z"/><path class="cls-12" d="M37.68,66.39c0,.85-1.9,1.54-4.24,1.54s-4.24-.69-4.24-1.54,1.9-1.53,4.24-1.53S37.68,65.55,37.68,66.39Z"/></g></g></svg>