<svg xmlns="http://www.w3.org/2000/svg" viewBox="0 0 51.65 78.67"><defs><style>.cls-1{fill:#dcc5a1;}.cls-2{fill:#edd9b4;}.cls-3,.cls-8{fill:#bc9f82;}.cls-3{opacity:0.7;}.cls-4{fill:#895a59;}.cls-5{fill:#fff;}.cls-6{fill:#444e53;}.cls-7{fill:#ccad8b;}.cls-9{fill:#d9bf9f;}</style></defs><title>Ativo 73avatar</title><g id="Camada_2" data-name="Camada 2"><g id="Objects"><path class="cls-1" d="M25.88,42V78.67h-20l-.49-.22c0-19.65,12.24-21.12,12.24-21.12.92,0,1.61-.9,2.1-2.39a12.27,12.27,0,0,0,.42-1.55c.08-.36.15-.73.21-1.14.11-.67.21-1.39.28-2.13,0-.44.09-.89.13-1.35.18-2.25.23-4.7.23-7C21,41.76,23.71,42,25.88,42Z"/><path class="cls-2" d="M46.43,78.45l-.47.22H25.88V42h0c2.17,0,4.88-.26,4.88-.26,0,2.3.06,4.72.24,7,0,.45.08.9.13,1.33.08.77.16,1.5.27,2.18v0c0,.3.1.58.16.86A14.66,14.66,0,0,0,32.09,55c.51,1.48,1.19,2.37,2.1,2.37C34.19,57.33,46.43,58.8,46.43,78.45Z"/><path class="cls-3" d="M31.44,52.23h0a6.45,6.45,0,0,1-5.53,3h0a7,7,0,0,1-5.51-3c.11-.67.21-1.38.28-2.12,0-.45.09-.89.12-1.35a22.27,22.27,0,0,0,5.05.65h.06A21.08,21.08,0,0,0,31,48.72l.12,1.33C31.25,50.82,31.33,51.54,31.44,52.23Z"/><path class="cls-4" d="M31.87,60.4l-.21,18.27H19.92l-.14-18.54a23.33,23.33,0,0,0,6.49,1.09A20.24,20.24,0,0,0,31.87,60.4Z"/><path class="cls-5" d="M46.56,78.45l-.48.22h-20L31.87,60.4l.07-5.65c.08.39.17.19.27.37.5,1.49,1.2,2.21,2.11,2.21a10.33,10.33,0,0,1,3.06,1.05c3.1,1.58,7.6,5.45,8.84,14.78A37.34,37.34,0,0,1,46.56,78.45Z"/><path class="cls-5" d="M25.53,78.67H5.89l-.49-.22a36.85,36.85,0,0,1,.24-4.36c1.06-10.18,5.9-14.21,9.1-15.78a9.49,9.49,0,0,1,2.9-1c.92,0,1.61-.9,2.1-2.39l0,5.19Z"/><path class="cls-6" d="M46.4,37.63s-1.19-1.5-.48-11.1a40.77,40.77,0,0,0-.76-10.45c.07.28-6.89,14-6.89,14-.24,3.84-.43,7.58-.48,10.18l-1.16-2a39.63,39.63,0,0,0-1.14,4.57,1.69,1.69,0,0,0,0,.23l-3.75-3.73s0,2.13.19,4.15l-2.27-2.25s0,5.49.78,7.21c.85,1.94.08,7.29.08,7.29a15.61,15.61,0,0,0,2.3-4c-.09,1.19-.22,2.08-.22,2.08a16.77,16.77,0,0,0,3-6c.05.83.09,1.65.11,2.47a16,16,0,0,1-.93,5.13,22.74,22.74,0,0,0,3.13-7.35c.2,3.37.68,5.81,1.7,7.12-.13-.24-.65-1.34-.52-4.19,0-1.28.17-2.67.33-4.06a11.07,11.07,0,0,0,3.13,5.63,18.93,18.93,0,0,1-1.21-9c.12-1,.21-1.88.28-2.67a27.17,27.17,0,0,0,.54,4.56,17.48,17.48,0,0,0,2.6,6.44s-1.68-3.72-.14-13.8a18.54,18.54,0,0,0,.08-3.1C45.64,37.29,46.4,37.63,46.4,37.63Z"/><path class="cls-6" d="M5.24,37.07s1.19-1.51.48-11.1a40.39,40.39,0,0,1,.76-10.46c-.07.28,6.88,14,6.88,14,.24,3.83.44,7.57.48,10.17l1.17-2a40.19,40.19,0,0,1,1.13,4.57c0,.07,0,.15,0,.22l3.75-3.73s0,2.14-.2,4.16L22,40.67s0,5.5-.78,7.22c-.86,1.93-.09,7.29-.09,7.29a15.9,15.9,0,0,1-2.29-4c.09,1.18.22,2.07.22,2.07a16.68,16.68,0,0,1-3-6c0,.83-.09,1.65-.1,2.47a16,16,0,0,0,.92,5.12,22.48,22.48,0,0,1-3.12-7.34c-.2,3.36-.69,5.8-1.71,7.11.14-.23.65-1.33.53-4.19-.06-1.28-.18-2.67-.33-4.06A11.07,11.07,0,0,1,9.1,52a18.87,18.87,0,0,0,1.21-9c-.11-1-.2-1.88-.28-2.67a27,27,0,0,1-.53,4.55,17.27,17.27,0,0,1-2.61,6.44s1.69-3.72.15-13.8A17.44,17.44,0,0,1,7,34.46C6,36.73,5.24,37.07,5.24,37.07Z"/><path class="cls-7" d="M25.77,0C4.6,0,4.48,17.66,5.42,29.23,4,26.48-.33,27.33,0,31.65.36,35.81,6.43,38,6.34,37.47c1.74,9.52,11.71,15,19.43,15h.16V0Z"/><path class="cls-8" d="M1.37,29.82a2,2,0,0,1,3.06-.58,1.73,1.73,0,0,1,.5,1.92c-.15.55-.74.59-.59,1.44a1.45,1.45,0,0,0,.84,1.22,2,2,0,0,1,.72.78A2,2,0,0,1,6,35.79c-.16.68-1.16.14-1.82-.16A12.56,12.56,0,0,1,2,33.85,3.76,3.76,0,0,1,1.37,29.82Z"/><path class="cls-9" d="M25.88,0c21.17,0,21.3,17.66,20.35,29.23,1.45-2.75,5.75-1.9,5.4,2.42-.34,4.16-6.41,6.31-6.33,5.82-1.73,9.52-11.7,15-19.42,15h-.17V0Z"/><path class="cls-8" d="M50.28,29.82a2,2,0,0,0-3.06-.58,1.75,1.75,0,0,0-.5,1.92c.15.55.74.59.59,1.44a1.44,1.44,0,0,1-.85,1.22,2,2,0,0,0-.71.78,2,2,0,0,0-.09,1.19c.16.68,1.16.14,1.82-.16a12.56,12.56,0,0,0,2.19-1.78A3.76,3.76,0,0,0,50.28,29.82Z"/><path class="cls-1" d="M25.59,5c-7,0-12.07,2-15.16,6C6.12,16.53,6.29,25,7.88,31.12,8.36,33,8.61,38,9,39.85c1.5,8.24,10.63,12.63,16.64,12.63h.16V5Z"/><path class="cls-2" d="M40.71,11c-3.06-3.95-8.1-6-15-6v47.5c6.86-.08,15.07-4.89,16.48-12.63.33-1.84.58-6.86,1.07-8.73C44.88,25,45,16.56,40.71,11Z"/><path class="cls-6" d="M33.23,46.34h0l0-.05a6.7,6.7,0,0,0-.34-1.07,4.68,4.68,0,0,0-.31-.59,9,9,0,0,0-3.51-4.07,3.68,3.68,0,0,0-.69-.34,3.33,3.33,0,0,0-.38-.13h0a8.36,8.36,0,0,0-2.12-.2,8.45,8.45,0,0,0-2.13.2h0a3.33,3.33,0,0,0-.38.13,3.68,3.68,0,0,0-.69.34,9,9,0,0,0-3.51,4.07,6.49,6.49,0,0,0-.31.59,6.7,6.7,0,0,0-.34,1.07s0,0,0,.05h0a7.84,7.84,0,0,0-.19,1.73A7.1,7.1,0,0,0,18.82,51c.35,2,3.35,6.66,7,6.72s6.66-4.67,7-6.72a7.1,7.1,0,0,0,.58-2.92A7.84,7.84,0,0,0,33.23,46.34Zm-2,4.27a10.27,10.27,0,0,1-3.75,1.09,4.52,4.52,0,0,0,.13-1.06V49.38A4.09,4.09,0,0,0,27.37,48a9.25,9.25,0,0,0-3.09,0,4.37,4.37,0,0,0-.22,1.34v1.26a4.52,4.52,0,0,0,.13,1.06,10.27,10.27,0,0,1-3.75-1.09A7.38,7.38,0,0,1,20,48.07a6.9,6.9,0,0,1,.09-1.13A7.28,7.28,0,0,1,22,45.88a10.6,10.6,0,0,1,7.47,0,15.93,15.93,0,0,1,2.05.89,8.71,8.71,0,0,1,.11,1.28A7.15,7.15,0,0,1,31.21,50.61Z"/></g></g></svg>