<svg xmlns="http://www.w3.org/2000/svg" viewBox="0 0 69.38 83.43"><defs><style>.cls-1{fill:#dcc5a1;}.cls-2{fill:#edd9b4;}.cls-3,.cls-8{fill:#bc9f82;}.cls-3{opacity:0.7;}.cls-4{fill:#3c1c2b;}.cls-5{fill:#ddca80;}.cls-6{fill:#9d7758;}.cls-7{fill:#ccad8b;}.cls-9{fill:#d9bf9f;}.cls-10{fill:#fcfcfc;}.cls-11{fill:#fff;}.cls-12{fill:#eadb99;}</style></defs><title>Ativo 48avatar</title><g id="Camada_2" data-name="Camada 2"><g id="Objects"><path class="cls-1" d="M34.45,53.11V83.43H16.05l-.45-.18C15.6,67,26.87,65.78,26.87,65.78h0c1.11,0,1.82-1.31,2.3-3.26.07-.3.14-.61.19-1,.11-.55.19-1.14.26-1.75,0-.37.07-.74.12-1.12.17-1.87.22-3.89.22-5.81C30,52.89,32.45,53.11,34.45,53.11Z"/><path class="cls-2" d="M53.36,83.17v.08l-.24.09h0l-.17.09H34.45V53.11h0c2,0,4.49-.22,4.49-.22,0,1.91.05,3.91.22,5.76l.12,1.1c.07.63.15,1.23.25,1.8h0c0,.26.09.49.14.72.48,2.09,1.23,3.5,2.39,3.5a10.6,10.6,0,0,1,3.7,1.32C49.08,68.92,53.34,73.21,53.36,83.17Z"/><path class="cls-3" d="M39,61.55v0a5.35,5.35,0,0,1-4.58,2.48h0a5.79,5.79,0,0,1-4.55-2.47c.09-.56.17-1.15.22-1.76,0-.37.07-.74.11-1.12a18.28,18.28,0,0,0,4.17.54h.05a17,17,0,0,0,4.27-.59c0,.37.07.74.1,1.1C38.82,60.38,38.89,61,39,61.55Z"/><path class="cls-4" d="M47.34,65.94a57.54,57.54,0,0,1-6.47,6.6,20.15,20.15,0,0,0-6.15,10.3.42.42,0,0,0,0-.12,15.84,15.84,0,0,0-.48-1.58h0a19.49,19.49,0,0,0-5.62-8.59,58.45,58.45,0,0,1-6.77-7,19,19,0,0,1,2.63-2.34c.81-.57,1.41-1,1.87-1.41h0c1,.24,1.91.46,2.87.62a29.36,29.36,0,0,0,5.75.53,28.3,28.3,0,0,0,4.66-.46c1-.16,1.95-.38,2.92-.63h0c.46.37,1,.8,1.82,1.35A23.16,23.16,0,0,1,47.34,65.94Z"/><path class="cls-5" d="M53.36,83.17l-.24.17h0l-.17.09H16.05l-.45-.18c0-7.22,2.22-11.48,4.7-14a11.9,11.9,0,0,1,6.57-3.5h0c.76,1.8.18,1.46.74,3a4,4,0,0,0,1.4,1.7,22.11,22.11,0,0,0,3.58,5.38,8,8,0,0,1,1.78,3.75,7.94,7.94,0,0,1,1.78-3.75,22.66,22.66,0,0,0,3.53-5.3c.77-.45,1.42-.9,1.86-1.22.28-.2.58,1.84.89,1.54A43.59,43.59,0,0,0,45.8,67.1a12.17,12.17,0,0,1,2.89,2.2,14.13,14.13,0,0,1,2.4,3.32A22.25,22.25,0,0,1,53.36,83.17Z"/><path class="cls-6" d="M34.67,83.15c0,.17,0,.28,0,.28l-.27-.15-.29-.13L21.86,77.06,26.25,72s-1.89-1.76-3-2.56c-.51-.38-1.77-.3-3-.11s-2.6.53-2.7.55c.17-.21,2.15-2.69,4.21-4.78a18.32,18.32,0,0,1,2.63-2.34c.81-.57,1.41-1,1.87-1.42h0l1.08-.86c.61.23,1.24.43,1.86.6,0,.29-.05.59-.07.89-.05.49-.11,1-.17,1.35-.21,1.37-1.33,2.81-1.12,4A13.22,13.22,0,0,0,29,70.47a22.11,22.11,0,0,0,3.58,5.38,8,8,0,0,1,1.78,3.75,14.28,14.28,0,0,1,.29,2.59A9.46,9.46,0,0,1,34.67,83.15Z"/><path class="cls-6" d="M42.53,72l4.38,5.11L34.67,83.15l-.28.13-.28.15s0-.11,0-.28a15.54,15.54,0,0,1,.1-2.54v0c0-.31.11-.64.19-1a7.94,7.94,0,0,1,1.78-3.75,22.66,22.66,0,0,0,3.53-5.3,13.7,13.7,0,0,0,1.17-3.31c.21-1.16-.91-2.6-1.12-4,0-.38-.1-.82-.15-1.28,0-.3-.07-.59-.09-.88.65-.18,1.31-.37,2-.6.3.23.62.51,1,.84h0c.46.37,1,.81,1.82,1.36a23.16,23.16,0,0,1,3,2.7c1.92,2,3.69,4.22,3.85,4.42-.11,0-1.25-.32-2.5-.53s-2.64-.31-3.18.09C44.41,70.19,42.53,72,42.53,72Z"/><path class="cls-7" d="M34.58,18.35C17.07,18.35,17,33,17.75,42.53c-1.2-2.27-4.76-1.57-4.47,2s5.3,5.22,5.23,4.82C20,57.22,28.19,61.77,34.58,61.77l.14,0V18.35Z"/><path class="cls-8" d="M14.4,43a1.66,1.66,0,0,1,2.53-.48,1.42,1.42,0,0,1,.41,1.58c-.12.46-.6.5-.49,1.2a1.25,1.25,0,0,0,.7,1c.21.18.47.31.6.64a1.79,1.79,0,0,1,.07,1c-.13.56-1,.11-1.51-.14a10.32,10.32,0,0,1-1.81-1.47A3.11,3.11,0,0,1,14.4,43Z"/><path class="cls-9" d="M34.67,18.35c17.52,0,17.62,14.61,16.84,24.18,1.2-2.27,4.75-1.57,4.46,2s-5.3,5.22-5.23,4.82c-1.44,7.87-9.68,12.42-16.07,12.42l-.14,0V18.35Z"/><path class="cls-8" d="M54.85,43a1.66,1.66,0,0,0-2.53-.48,1.44,1.44,0,0,0-.41,1.58c.13.46.61.5.49,1.2a1.23,1.23,0,0,1-.7,1c-.2.18-.46.31-.59.64A1.79,1.79,0,0,0,51,48c.13.56,1,.11,1.51-.14a10,10,0,0,0,1.81-1.47A3.11,3.11,0,0,0,54.85,43Z"/><path class="cls-1" d="M34.43,22.47c-5.76,0-10,1.67-12.53,5C18.33,32,18.47,39.05,19.78,44.1c.4,1.53.61,5.69.89,7.22,1.24,6.81,8.79,10.45,13.76,10.45l.14,0V22.48Z"/><path class="cls-2" d="M46.94,27.44c-2.53-3.27-6.7-4.94-12.37-5V61.75c5.67,0,12.46-4,13.62-10.43.28-1.53.49-5.69.89-7.22C50.39,39.07,50.52,32.05,46.94,27.44Z"/><path class="cls-10" d="M41.89,55.56a4.62,4.62,0,0,0-.44-1,7.6,7.6,0,0,0-7.12-5.52H34a7.6,7.6,0,0,0-7.12,5.52,4.17,4.17,0,0,0-.44,1c-.55,1.91-.81,3.38.63,7.94h0s6.56,11,14.21,0h0C42.7,58.94,42.44,57.47,41.89,55.56ZM33,53.74a8.18,8.18,0,0,1,1.12-.1,8.32,8.32,0,0,1,1.12.1c2,.33,3,1.4,4.15,2.9-.35.14.07.23-.33.26a24.9,24.9,0,0,1-4.76-.48v-.05h0l-.13,0-.14,0h0v.05a25,25,0,0,1-4.77.48c-.39,0,0-.12-.33-.26C30,55.14,31,54.07,33,53.74Z"/><path class="cls-11" d="M51.46,19.33a10.74,10.74,0,0,0-4.06-2.26s-5-2.5-8.83-4.28-10-.36-13.24.48-7.06,5.39-8.25,7.89S12.92,29.08,12,33s2.26,7.73,4.26,8.54c1.3.53,1.38,3.58,1.38,3.58l1.43.63a11.08,11.08,0,0,1-.75-4.28c.08-1.43-.15-5.73-.15-5.73s6.12-1.22,10.63-2.43C27.24,35.17,26,36.43,26,36.43a16.6,16.6,0,0,0,6.41-4.06,51.41,51.41,0,0,1-4.88,5.88,17.22,17.22,0,0,0,8.05-5.93,47.4,47.4,0,0,1-6.17,7.89c8.5-2.89,11.51-12,11.9-13.28l.07-.06a14.07,14.07,0,0,1,5.09,2.53c2.26,1.67,5,4,5,9,0,1.67-.75,6.53-.75,6.53l.75-.53a3.77,3.77,0,0,1,2.14-3.06c1.71-.94,2.14-4.15,2.14-5.47C55.78,27,53.25,21,51.46,19.33Z"/><path class="cls-5" d="M34.88,29.92c-19.05,0-34.5-3.87-34.5-8.65a2.08,2.08,0,0,1,.07-.55C-.64,23-.11,26.23,6,30.53c0,0,9.23,7.45,41.09,6.25,0,0,23-1.13,22.29-15.22C68.76,26.2,53.55,29.92,34.88,29.92Z"/><path class="cls-6" d="M34.88,29.92c18.67,0,33.88-3.72,34.48-8.36,0-.32,0-.64-.09-1,0,0,0-.08,0-.13C68.9,25,54,28.68,35.66,28.68c-18.54,0-33.57-3.74-33.57-8.37,0-1.14.92-2.22,2.57-3.22l-.85.42A8,8,0,0,0,.45,20.72a2.08,2.08,0,0,0-.07.55C.38,26.05,15.83,29.92,34.88,29.92Z"/><path class="cls-12" d="M69.23,20.31c0-3.75-9.91-6.93-23.56-8A96.35,96.35,0,0,1,48.31,28l-.25.12C60.28,26.88,69,23.93,69.23,20.46l-.06-.15Z"/><path class="cls-12" d="M26.53,12.25c-9.89.7-17.93,2.5-21.85,4.83h0c-1.65,1-2.57,2.08-2.57,3.22,0,3.34,7.84,6.22,19.17,7.57l-.2-.27A108.93,108.93,0,0,1,26.53,12.25Z"/><path class="cls-5" d="M45.67,12.32C41.65-2.47,35.75.18,35.75.18,32.19,1.66,29,6.81,26.53,12.25a108.93,108.93,0,0,0-5.47,15.36l.2.27a123.19,123.19,0,0,0,14.4.8c4.38,0,8.56-.2,12.4-.58l.25-.12A96.35,96.35,0,0,0,45.67,12.32Z"/></g></g></svg>