<svg xmlns="http://www.w3.org/2000/svg" viewBox="0 0 47.63 77.74"><defs><style>.cls-1{fill:#dcc5a1;}.cls-2{fill:#edd9b4;}.cls-3,.cls-5{fill:#bc9f82;}.cls-3{opacity:0.7;}.cls-4{fill:#ccad8b;}.cls-6{fill:#d9bf9f;}.cls-7{fill:#442c38;}.cls-8{fill:#895a59;}.cls-9{fill:#fff;}.cls-10{fill:#82acc6;}.cls-11{fill:#eed121;}</style></defs><title>Ativo 35avatar</title><g id="Camada_2" data-name="Camada 2"><g id="Objects"><path class="cls-1" d="M24.17,44.64v33.1H6.1l-.45-.17c0-12.31,5.31-16.73,8.57-18.29a8.82,8.82,0,0,1,2.49-.8c1.11,0,1.82-1.42,2.29-3.56.07-.33.14-.67.19-1,.09-.6.18-1.25.25-1.92,0-.4.08-.81.11-1.22.17-2,.22-4.25.22-6.34C19.77,44.4,22.19,44.64,24.17,44.64Z"/><path class="cls-2" d="M42.74,77.57l-.43.17H24.17V44.64h0c2,0,4.41-.24,4.41-.24,0,2.08.05,4.27.22,6.29,0,.4.07.81.11,1.2.08.69.15,1.35.26,2v0a6,6,0,0,0,.14.78c.45,2.29,1.2,3.83,2.34,3.83a9.56,9.56,0,0,1,3.08,1.11C38,61.38,42.74,66,42.74,77.57Z"/><path class="cls-3" d="M29.19,53.85h0a5.85,5.85,0,0,1-5,2.72h0a6.33,6.33,0,0,1-5-2.7c.1-.61.19-1.25.25-1.92,0-.41.08-.81.12-1.23a19.79,19.79,0,0,0,4.56.6h.05a19.06,19.06,0,0,0,4.66-.65q.06.62.12,1.2C29,52.58,29.09,53.23,29.19,53.85Z"/><path class="cls-4" d="M24.05,6.65c-19.14,0-19.25,16-18.4,26.42C4.34,30.59.45,31.35.77,35.25S6.57,41,6.49,40.52c1.57,8.6,10.57,13.56,17.56,13.56h.14V6.66Z"/><path class="cls-5" d="M2.07,33.61a1.81,1.81,0,0,1,2.76-.53,1.56,1.56,0,0,1,.45,1.73c-.13.5-.66.54-.53,1.3a1.36,1.36,0,0,0,.76,1.11,1.7,1.7,0,0,1,.65.7A1.92,1.92,0,0,1,6.24,39c-.14.62-1,.13-1.64-.15a11.45,11.45,0,0,1-2-1.6A3.42,3.42,0,0,1,2.07,33.61Z"/><path class="cls-6" d="M24.34,6.65c19.14,0,19.25,16,18.4,26.42,1.31-2.48,5.19-1.72,4.87,2.18S41.82,41,41.9,40.52c-1.57,8.6-10.58,13.56-17.56,13.56h-.15V6.66Z"/><path class="cls-5" d="M46.39,33.6a1.81,1.81,0,0,0-2.76-.52,1.56,1.56,0,0,0-.45,1.73c.13.5.66.54.53,1.3A1.36,1.36,0,0,1,43,37.22a1.7,1.7,0,0,0-.65.7A1.84,1.84,0,0,0,42.22,39c.14.61,1,.12,1.65-.15a11,11,0,0,0,2-1.6A3.42,3.42,0,0,0,46.39,33.6Z"/><path class="cls-1" d="M24.08,11.15c-6.3,0-10.91,1.82-13.7,5.42-3.9,5-3.75,12.7-2.31,18.21.44,1.68.66,6.22,1,7.89,1.36,7.44,9.6,11.41,15,11.41h.14V11.15Z"/><path class="cls-2" d="M37.71,16.58c-2.77-3.57-7.32-5.39-13.52-5.43V54.08c6.2-.07,13.62-4.42,14.89-11.41.31-1.67.53-6.21,1-7.89C41.48,29.28,41.62,21.62,37.71,16.58Z"/><path class="cls-7" d="M33.38,49.12a5.84,5.84,0,0,0-.91-2.94s-.2-.16-.54-.4a15.22,15.22,0,0,0-1.54-1,17.38,17.38,0,0,0-2.47-1.34h0s4,1.45-.1,0a10.51,10.51,0,0,0-7.42,0,17.89,17.89,0,0,0-2.58,1.38,17.93,17.93,0,0,0-1.54,1,5.44,5.44,0,0,0-.53.4,5.94,5.94,0,0,0-.92,2.94c0,.12,0,.25,0,.38a6.11,6.11,0,0,0,.76,3,2.33,2.33,0,0,0,.7.92,2.81,2.81,0,0,0,1.07.66,14.9,14.9,0,0,0,5.54,1.2,6.47,6.47,0,0,0,2.48,0,14.9,14.9,0,0,0,5.54-1.2A2.77,2.77,0,0,0,32,53.44a2.27,2.27,0,0,0,.71-.92,6.11,6.11,0,0,0,.75-3C33.41,49.37,33.39,49.24,33.38,49.12Zm-2.6,2.93a11.82,11.82,0,0,1-2.51.78h0c0-1.44-1.87-2.6-4.16-2.6S20,51.38,20,52.82h0a12.1,12.1,0,0,1-2.52-.78,6.23,6.23,0,0,1-.52-2.54,4.78,4.78,0,0,1,.63-1.23,2,2,0,0,0,.14-.16A9,9,0,0,1,19.76,47c1.18-.25,2.46-.19,3.39-.74a2.44,2.44,0,0,0,1-1.1,2.44,2.44,0,0,0,1,1.1c.93.55,2.21.49,3.39.74a8.74,8.74,0,0,1,2.07,1.15,2,2,0,0,1,.14.16,4.53,4.53,0,0,1,.64,1.23A6.4,6.4,0,0,1,30.78,52.05Z"/><path class="cls-7" d="M41,37.39c.35,0,0-2.11,1.18-3.56s3-6.35,3-11.24-1.57-9.23-5.67-13.86A28.75,28.75,0,0,0,29.42,1.87L32.2,4.64s-1.5-2.25-6.87-4c-4.23-1.42-7,.16-7,.16S21.15.65,22,2a4.47,4.47,0,0,0,1,.85s-1.3-3.19-7.33-.55S9.74,9.66,5.54,11.11,0,10.69,0,10.69,1.86,14,5.17,14.05c.64,0,.6,0,.6,0A32,32,0,0,0,4.29,20.3C4.05,23,4.8,24.9,5,30c.21,4.37,1.3,2.13,2.59,5.35a7.28,7.28,0,0,1,.46,2.3c.48.13,1.74-2.62.84-7.4-.59-3.1,2.32-14.86,9.35-12.57,4.31,1.4,5.39,4.26,8.6,1.72,2.78-2.18,6.65-3.44,9.55-1.71s4.53,5.62,4,11.82C39.8,37.45,41,37.39,41,37.39Z"/><path class="cls-8" d="M42.77,77.55l-.44.19H6.12l-.44-.19c0-16.7,9.46-19.11,10.88-19.36.75.83,1.77,1.88,2.81,2.91C21.59,63.29,24,65.43,24,65.43S26.6,63.2,28.9,61.2c0,0,0,0,0,0,.92-.79,1.8-1.56,2.4-2.13a2.31,2.31,0,0,0,.32-.3c.24-.22.43-.4.53-.51h0a8.21,8.21,0,0,1,1.4.46l.32.14a12.56,12.56,0,0,1,2.18,1.29,3.88,3.88,0,0,1,.31.26C39.42,62.75,42.77,67.62,42.77,77.55Z"/><path class="cls-9" d="M31.24,55.7c.16.12,1.94,3.94,2.26,4.72a9.77,9.77,0,0,1,0,3.11s-.24-1.24-1-1.57a4.48,4.48,0,0,0-2.82-.21c-.59.29-3.41,2.49-3.92,2.86s-1,1-1,1.19V77.74H23.54l.09-11.86L25,61.65l4.93-4.77-.34-1.38A4.63,4.63,0,0,1,31.24,55.7Z"/><path class="cls-9" d="M17.08,55.9c-.15.12-1.94,3.94-2.26,4.72a10.15,10.15,0,0,0,0,3.12s.24-1.25.95-1.58A4.42,4.42,0,0,1,18.59,62c.6.29,3.41,2.49,3.93,2.86s2.26,1.58,2.26,1.58L23,61.65l-4.59-4.59s.39-1.27.39-1.36A4.47,4.47,0,0,0,17.08,55.9Z"/><polygon class="cls-10" points="33.57 66.6 33.04 66.6 31.41 66.6 31.41 69.32 32.77 70.69 33.04 70.69 33.57 70.69 33.83 70.69 35.2 69.32 35.2 66.6 33.57 66.6"/><path class="cls-11" d="M35.41,72.29a2.11,2.11,0,1,1-2.11-2.1A2.1,2.1,0,0,1,35.41,72.29Z"/></g></g></svg>