<svg xmlns="http://www.w3.org/2000/svg" xmlns:xlink="http://www.w3.org/1999/xlink" viewBox="0 0 49.8 84.2"><defs><style>.cls-1{fill:none;}.cls-2{fill:#dcc5a1;}.cls-3{fill:#edd9b4;}.cls-4{clip-path:url(#clip-path);}.cls-5{fill:#bc9f82;}.cls-6{fill:#bcca33;}.cls-7{fill:#4f4e49;}.cls-8{fill:#ccad8b;}.cls-9{fill:#d9bf9f;}</style><clipPath id="clip-path"><rect class="cls-1" x="19.83" y="55.31" width="10.68" height="6.29"/></clipPath></defs><title>Ativo 4avatar</title><g id="Camada_2" data-name="Camada 2"><g id="Objects"><path class="cls-2" d="M23.71,47a1.16,1.16,0,1,1-1.15-1.15A1.16,1.16,0,0,1,23.71,47Z"/><path class="cls-2" d="M23.71,50.48a1.16,1.16,0,1,1-1.15-1.15A1.15,1.15,0,0,1,23.71,50.48Z"/><path class="cls-2" d="M25.14,48.86V84.19H5.86L5.39,84c0-18.95,11.8-20.38,11.8-20.38a1,1,0,0,0,.36,0c1-.28,1.63-1.68,2.07-3.73.09-.35.15-.72.21-1.1.11-.65.2-1.34.27-2l.12-1.31c.17-2.17.23-4.52.23-6.77,0,0,2.59.26,4.69.26Z"/><path class="cls-3" d="M45,84l-.46.2H25.14V48.86h0c2.09,0,4.71-.26,4.71-.26,0,2.23,0,4.55.22,6.71,0,.43.08.86.13,1.28.08.74.15,1.44.26,2.1h0c.05.3.1.57.15.84.5,2.44,1.29,4.08,2.5,4.08C33.15,63.62,45,65,45,84Z"/><g class="cls-4"><path class="cls-5" d="M30.5,58.69h0a6.2,6.2,0,0,1-5.34,2.9h0a6.73,6.73,0,0,1-5.31-2.88c.11-.66.19-1.34.26-2,.05-.43.09-.86.13-1.31a21.22,21.22,0,0,0,4.86.64h.06a20.08,20.08,0,0,0,5-.69c0,.43.08.86.13,1.28.08.74.15,1.44.26,2.1"/></g><path class="cls-6" d="M25.14,80.27v3.92H5.86L5.39,84c0-18.95,11.8-20.38,11.8-20.38a1,1,0,0,0,.36,0c.32.72,1.18.72,2.64,2C22.1,67.16,24.84,71.08,25,74c.08,1.49.12,4.07.14,6.3Z"/><path class="cls-6" d="M25.08,80.27v3.92H44.53L45,84C45,65,33.11,63.61,33.11,63.61a1,1,0,0,1-.37,0c-.32.72-1.19.72-2.66,2-1.93,1.64-4.69,5.56-4.85,8.45-.09,1.49-.13,4.07-.15,6.3Z"/><path class="cls-7" d="M40.53,84.2H9.68c.08-1.21.2-3,.32-3.93a80.62,80.62,0,0,1,3.66-15.34c.06-.14.11-.28.17-.41l3.27-1v.16c0,1.32.25,9.91.48,12.26.15,1.68,4.1,2.46,7.52,2.59,3.42-.13,7.35-.91,7.51-2.59.22-2.37.43-11,.46-12.27,0-.09,0-.15,0-.15l3.28,1c0,.11.1.23.14.35a81.62,81.62,0,0,1,3.7,15.4c.12,1,.24,2.72.33,3.93Z"/><path class="cls-8" d="M24.85,8.34c-20.42,0-20.53,17-19.63,28.17C3.82,33.87-.32,34.69,0,38.85c.32,4,6.18,6.08,6.1,5.61C7.79,53.64,17.4,58.94,24.85,58.94H25V8.34Z"/><path class="cls-5" d="M1.33,37.09a1.94,1.94,0,0,1,3-.56,1.67,1.67,0,0,1,.47,1.85c-.14.53-.7.57-.57,1.38A1.41,1.41,0,0,0,5,40.94a1.9,1.9,0,0,1,.69.76,2,2,0,0,1,.09,1.14c-.16.66-1.12.14-1.76-.15A13,13,0,0,1,1.91,41a3.62,3.62,0,0,1-.58-3.88Z"/><path class="cls-9" d="M25,8.34c20.41,0,20.53,17,19.62,28.17,1.4-2.64,5.54-1.82,5.2,2.34-.33,4-6.18,6.08-6.09,5.61C42,53.64,32.4,58.94,25,58.94H24.8V8.34Z"/><path class="cls-5" d="M48.48,37.09a1.94,1.94,0,0,0-2.95-.56,1.69,1.69,0,0,0-.48,1.85c.15.53.71.57.57,1.38a1.41,1.41,0,0,1-.81,1.18,1.92,1.92,0,0,0-.7.76A2,2,0,0,0,44,42.84c.15.66,1.11.14,1.76-.15A13,13,0,0,0,47.9,41a3.64,3.64,0,0,0,.58-3.88Z"/><path class="cls-2" d="M25,13.17c-6.73,0-11.64,1.95-14.62,5.79-4.16,5.35-4,13.54-2.47,19.42.47,1.8.72,6.63,1,8.42C10.42,54.74,19.22,59,25,59h.15V13.17Z"/><path class="cls-3" d="M39.59,19c-3-3.81-7.81-5.75-14.42-5.79V59c6.61-.07,14.53-4.71,15.89-12.17.31-1.78.56-6.62,1-8.42,1.53-5.86,1.68-14.05-2.5-19.42Z"/><path class="cls-7" d="M39.84,12.59C35.21,9.08,29-.43,24.82,0c-4.22-.45-10.4,9.06-15,12.57C2.23,18.33,4,35.35,4,35.35a2.2,2.2,0,0,1,1.92.43A6.71,6.71,0,0,1,7.7,39.14a2.75,2.75,0,0,0,1.35,1.75s-1.81-8.17,0-11.81c1.15-2.25,2.14-4.71,5.6-7.09C17,20.44,21,28.21,24.82,28.26s7.84-7.82,10.1-6.27c3.47,2.38,4.46,4.84,5.61,7.09,1.86,3.64,0,11.81,0,11.81a2.78,2.78,0,0,0,1.35-1.75,6.79,6.79,0,0,1,1.79-3.36,2.2,2.2,0,0,1,1.92-.43s1.76-17-5.8-22.76Z"/></g></g></svg>