<svg xmlns="http://www.w3.org/2000/svg" viewBox="0 0 47.62 77.78"><defs><style>.cls-1{fill:#dcc5a1;}.cls-2{fill:#edd9b4;}.cls-3,.cls-7{fill:#bc9f82;}.cls-3{opacity:0.7;}.cls-4{fill:#5a4f51;}.cls-5{fill:#4e1812;}.cls-6{fill:#ccad8b;}.cls-8{fill:#d9bf9f;}.cls-9{fill:#b47070;}.cls-10{fill:#c17874;}</style></defs><title>Ativo 69avatar</title><g id="Camada_2" data-name="Camada 2"><g id="Objects"><path class="cls-1" d="M23.78,43.49V77.78H5.07l-.46-.2c0-18.39,11.45-19.77,11.45-19.77h.1a1.11,1.11,0,0,0,.25-.05c.94-.26,1.58-1.65,2-3.63a8.47,8.47,0,0,0,.2-1.07c.11-.63.2-1.3.27-2,0-.42.07-.84.11-1.27.17-2.1.22-4.39.22-6.56C19.22,43.24,21.74,43.49,23.78,43.49Z"/><path class="cls-2" d="M43,77.58l-.45.2H23.78V43.49h0c2,0,4.56-.25,4.56-.25,0,2.16.06,4.42.22,6.51,0,.42.08.84.12,1.24.08.72.16,1.4.27,2v0c0,.28.09.55.14.8.39,1.93,1,3.34,1.81,3.81l.2.08a1.16,1.16,0,0,0,.42.07S43,59.19,43,77.58Z"/><path class="cls-3" d="M29,53h0a6,6,0,0,1-5.18,2.81h0a6.51,6.51,0,0,1-5.16-2.8c.1-.63.2-1.29.26-2q.06-.62.12-1.26a21.13,21.13,0,0,0,4.72.61h.06a19.41,19.41,0,0,0,4.82-.67L28.72,51C28.8,51.71,28.87,52.39,29,53Z"/><path class="cls-4" d="M43.05,77.58a2.66,2.66,0,0,0-.45.2H5.11a3.51,3.51,0,0,0-.46-.2A29.39,29.39,0,0,1,6.24,67.34c4.21-2.88,12.89-2.84,17.58,1.79,0,0,7.24-5.9,14.6-2.8a10.94,10.94,0,0,1,3.49,2.33A31.84,31.84,0,0,1,43.05,77.58Z"/><path class="cls-5" d="M17.51,54.3c0,.46,2.51.07,1.63,6.8s-8.41,5.63-10.57,9.23a11.51,11.51,0,0,0-1.4,7.45H4l.68-2.3a8.75,8.75,0,0,1,.53-5.79c1.41-2.9,0-4.62.14-5.84a7.81,7.81,0,0,1,3.83-4.61c1.76-.64,1.66-.22,3.88-.74s4.71-1.77,4.71-3.16S17.51,54.3,17.51,54.3Z"/><path class="cls-5" d="M30,54.12c0,.46-2.51.06-1.63,6.79S36.82,66.54,39,70.14a11.66,11.66,0,0,1,1.31,7.64h3.13l-.37-2.44a9.54,9.54,0,0,0-.68-5.84c-1.4-2.9,0-4.62-.14-5.84a7.77,7.77,0,0,0-3.83-4.6c-1.75-.65-1.71-.08-3.94-.6s-4.65-1.92-4.65-3.31S30,54.12,30,54.12Z"/><path class="cls-6" d="M23.76,6.64C4.24,6.61,4.12,22.24,5,32.44,3.65,30-.31,30.93,0,34.76c.31,3.67,5.9,5.33,5.83,4.93C7.44,48,16.64,52.61,23.76,53.27h.15V6.65Z"/><path class="cls-7" d="M1,33.14a1.93,1.93,0,0,1,2.86-.51,1.49,1.49,0,0,1,.46,1.7c-.14.49-.69.53-.55,1.28a1.37,1.37,0,0,0,.79,1.09c.23.19.53.33.67.69a1.75,1.75,0,0,1,.09,1c-.15.61-1.08.13-1.71-.14a11.7,11.7,0,0,1-2-1.58A3.22,3.22,0,0,1,1,33.14Z"/><path class="cls-8" d="M23.86,6.64c19.52,0,19.63,15.6,18.77,25.8,1.34-2.4,5.29-1.51,5,2.32-.31,3.67-5.91,5.33-5.83,4.93C40.17,48,31,52.61,23.86,53.27h-.15V6.65Z"/><path class="cls-7" d="M46.76,33.14a1.93,1.93,0,0,0-2.86-.51,1.49,1.49,0,0,0-.47,1.7c.14.49.69.53.55,1.28a1.33,1.33,0,0,1-.79,1.09c-.23.19-.52.33-.67.69a1.82,1.82,0,0,0-.08,1c.14.61,1.08.13,1.7-.14a11.34,11.34,0,0,0,2-1.58A3.24,3.24,0,0,0,46.76,33.14Z"/><path class="cls-1" d="M23.66,11.07c-6.52,0-11.29,1.79-14.18,5.33-4,4.94-3.88,12.48-2.39,17.9.45,1.65.68,6.11,1,7.75C9.49,49.37,18,53.28,23.66,53.28h.15V11.07Z"/><path class="cls-2" d="M37.81,16.4c-2.87-3.51-7.59-5.3-14-5.33v42.2c6.42-.07,14.09-4.34,15.42-11.22.31-1.64.54-6.1,1-7.75C41.71,28.9,41.86,21.36,37.81,16.4Z"/><path class="cls-9" d="M27.09,46.66a5.19,5.19,0,0,1-3.29,1.57,4.91,4.91,0,0,1-3.21-1.54,20.94,20.94,0,0,1,3.21-.24A25.94,25.94,0,0,1,27.09,46.66Z"/><path class="cls-10" d="M24.73,45.93a.85.85,0,0,0-.93.71.85.85,0,0,0-.93-.71,13,13,0,0,0-2.36.73s1.8.18,2.31.18,1,.21,1-.17c0,.38.38.23.89.23s2.4-.24,2.4-.24A13,13,0,0,0,24.73,45.93Z"/><path class="cls-4" d="M3.2,29.6s5.14-7.33,13.63-8.36,16.82.72,22.07,5,6,3.34,6,3.34a11,11,0,0,0,.64-2.24c.34-1.78,1.62-2.75,1.34-3.71A18.53,18.53,0,0,1,46,18.94c.14-.9-1.54-6-5.79-9.36S31.84-.36,21.39,0,12.88,2.77,10.71,3.56s-6.32.74-9,9.21c-1.17,3.67-.24,6.12-.34,8.05-.11,2.51-1,4-.92,4.84C.6,27.13,3.2,29.6,3.2,29.6Z"/></g></g></svg>