<svg xmlns="http://www.w3.org/2000/svg" xmlns:xlink="http://www.w3.org/1999/xlink" viewBox="0 0 52.85 81.27"><defs><style>.cls-1{fill:none;}.cls-2{fill:#dcc5a1;}.cls-3{fill:#edd9b4;}.cls-4{clip-path:url(#clip-path);}.cls-5{fill:#bc9f82;}.cls-6{fill:#464c66;}.cls-7{fill:#4f4e49;}.cls-8{fill:#ccad8b;}.cls-9{fill:#d9bf9f;}.cls-10{fill:#211915;}.cls-11{fill:#010300;}.cls-12{fill:#0c0e03;}</style><clipPath id="clip-path"><rect class="cls-1" x="20.92" y="50.62" width="11.33" height="6.67"/></clipPath></defs><title>Ativo 3avatar</title><g id="Camada_2" data-name="Camada 2"><g id="Objects"><path class="cls-2" d="M26.56,43.77v37.5H6.11l-.51-.22c0-12.86,5.13-18.12,8.83-20.23a11.19,11.19,0,0,1,3.64-1.37h.06c1.25,0,2.05-1.61,2.58-4,.09-.38.16-.76.22-1.18.11-.68.21-1.41.28-2.17.05-.46.09-.91.13-1.39.19-2.29.24-4.8.24-7.17,0,0,2.76.27,5,.27Z"/><path class="cls-3" d="M47.6,81.05s-.19.07-.5.22H26.56V43.77h0c2.23,0,5-.27,5-.27,0,2.36,0,4.83.24,7.12.05.46.09.91.13,1.35.08.8.17,1.54.29,2.24h0a8.25,8.25,0,0,0,.16.89c.52,2.56,1.34,4.29,2.6,4.33h0a10.72,10.72,0,0,1,3.59,1.31c3.69,2.06,8.94,7.29,8.94,20.3Z"/><g class="cls-4"><path class="cls-5" d="M32.25,54.21h0a6.61,6.61,0,0,1-5.66,3.07h0a7.14,7.14,0,0,1-5.64-3.06c.12-.68.22-1.41.28-2.17.05-.45.09-.91.13-1.38a22.76,22.76,0,0,0,5.17.67h.06a21.57,21.57,0,0,0,5.28-.73c0,.46.08.92.13,1.36.08.79.17,1.53.28,2.23"/></g><path class="cls-6" d="M32.57,70c-.29-.72-1.44-.58-2.14-.82-1-.34-1.81-1.22-2.65-1.55a16.62,16.62,0,0,1,3.08-1.06c.49.19,1,.7,1.68.41.28-.57-.22-1-.44-1.31A1.36,1.36,0,0,0,32,64.43c-1.09,0-1.58,1-2.37,1.39s-2,.71-3,1.23a13.42,13.42,0,0,0-3.18-1.31c-.49-.58-1.21-1.65-2.21-1.22a3.28,3.28,0,0,1-.53,2.12c.41.77,1.29.14,1.85-.08a10.83,10.83,0,0,1,3,1.14c-.7.08-1.55,1.13-2.65,1.47s-2.47.13-2.21,1.15c.1.36.6.49,1.23.49a1.38,1.38,0,0,0,1,.72,1.39,1.39,0,0,0,.71-1.3,15.17,15.17,0,0,1,3.09-2c1,.67,2.24,1.06,2.92,2,.33.46.28,1.12,1,1.3a2.39,2.39,0,0,0,2-1.14C32.74,70.17,32.69,70.06,32.57,70Z"/><path class="cls-7" d="M42.93,81.27H10.2c.08-1.29.21-3.16.34-4.17a85.59,85.59,0,0,1,3.89-16.28,4.28,4.28,0,0,1,.17-.43l3.47-1.11v.17c0,1.4.28,10.51.52,13,.15,1.79,4.34,2.61,8,2.74,3.63-.13,7.81-1,8-2.74.24-2.52.47-11.71.49-13a.91.91,0,0,0,0-.16l3.47,1.11.15.36A85.77,85.77,0,0,1,42.58,77.1c.13,1,.27,2.88.35,4.17Z"/><path class="cls-8" d="M26.37.77C4.7.77,4.58,18.85,5.54,30.67,4.05,27.87-.34,28.73,0,33.15c.34,4.26,6.55,6.45,6.47,6,1.77,9.74,12,15.36,19.88,15.36h.16V.77Z"/><path class="cls-5" d="M1.41,31.28a2,2,0,0,1,3.12-.59,1.78,1.78,0,0,1,.51,2c-.15.56-.75.61-.6,1.47a1.51,1.51,0,0,0,.86,1.25,2,2,0,0,1,.73.8,2.16,2.16,0,0,1,.1,1.22c-.16.7-1.19.14-1.87-.17A12.61,12.61,0,0,1,2,35.41a3.87,3.87,0,0,1-.61-4.13Z"/><path class="cls-9" d="M26.47.77c21.67,0,21.79,18.08,20.83,29.9,1.49-2.8,5.88-1.94,5.53,2.48-.36,4.26-6.57,6.45-6.48,6-1.78,9.74-12,15.36-19.88,15.36h-.16V.77Z"/><path class="cls-5" d="M51.44,31.28a2.06,2.06,0,0,0-3.13-.59,1.78,1.78,0,0,0-.51,2c.16.56.75.61.6,1.47a1.46,1.46,0,0,1-.87,1.25c-.24.23-.56.39-.72.8a2,2,0,0,0-.09,1.22c.16.7,1.18.14,1.86-.17a12.61,12.61,0,0,0,2.24-1.81,3.85,3.85,0,0,0,.62-4.13Z"/><path class="cls-2" d="M26.18,5.87c-7.13,0-12.35,2.05-15.51,6.13C6.26,17.69,6.43,26.38,8.06,32.62c.49,1.9.75,7,1.1,8.92C10.69,50,20,54.47,26.18,54.47h.16V5.87Z"/><path class="cls-3" d="M41.65,12C38.52,8,33.36,5.9,26.34,5.87V54.46c7-.07,15.42-5,16.86-12.92.34-1.88.6-7,1.1-8.92,1.62-6.23,1.78-14.9-2.65-20.61Z"/><path class="cls-10" d="M47.94,29.83A6.39,6.39,0,0,0,46.63,32c-.69,1.78-1,1.48-1,1.48s1.09-7,1.09-8.93S40.53,14.08,37,12.92s-6.72,1.26-10.47,1.26h-.3c-3.68-.07-6.85-2.39-10.29-1.26s-9.72,9.67-9.72,11.6,1.09,8.93,1.09,8.93-.27.3-1-1.48A6.09,6.09,0,0,0,4.7,29.66C3.77,17.57,4.46,0,26.33,0h.12c22,0,22.45,17.73,21.49,29.83Z"/><path class="cls-11" d="M26.22,42.76c-2.85,0-5.74-.66-7.22.93-1.21,1.59-1.4,5.6,0,7.23.66-2,.5-4.21,2.36-5,1.64-.67,3.91.07,4.9-1.65,1.11,2.47,4.43.66,6.08,2.92.77,1.09.76,2,1.32,4,1.55-1.39,1.47-5.29.47-6.78C32.63,42.21,29.5,42.78,26.22,42.76Z"/><path class="cls-12" d="M46.2,39.61c-.81,1.16-2.87,1.38-4.45,3S32.92,47,32.92,47s-.15,2.4-4.5,2.41c-.79,0-1.35-1-2-1h-.05c-.63,0-1.19,1-2,1-4.33,0-4.48-2.41-4.48-2.41s-7.26-2.77-8.84-4.4-3.64-1.85-4.44-3c-.62-.88,1,4.19,1.6,5.28s1.79,4.7,3.23,6.61a9,9,0,0,0,2.63,2.44c.52.45,0-2.18,0-2.18A30.15,30.15,0,0,0,16.86,55a36.54,36.54,0,0,0,8.67,3.89l.68.15v.06l.11,0,.07,0h.05l.07,0,.11,0v-.06l.68-.15A36.54,36.54,0,0,0,36,55a30.15,30.15,0,0,0,2.76-3.26s-.53,2.63,0,2.18a8.78,8.78,0,0,0,2.62-2.44C42.8,49.59,44,46,44.6,44.89s2.21-6.16,1.6-5.28Z"/></g></g></svg>