<svg xmlns="http://www.w3.org/2000/svg" viewBox="0 0 50.05 76.91"><defs><style>.cls-1{fill:#74572d;}.cls-2{fill:#8c6739;}.cls-3{fill:#544122;}.cls-4{fill:#442c38;}.cls-5{fill:#342916;}.cls-6{fill:#0f1005;}</style></defs><title>Ativo 41avatar</title><g id="Camada_2" data-name="Camada 2"><g id="Objects"><path class="cls-1" d="M25.26,41.39V76.91H5.88L5.4,76.7c0-19.05,11.87-20.47,11.87-20.47,1.18,0,1.94-1.51,2.44-3.81.08-.36.15-.73.21-1.12.11-.65.2-1.34.27-2.06,0-.43.08-.86.12-1.31.18-2.18.23-4.55.23-6.79,0,0,2.61.25,4.72.25Z"/><path class="cls-2" d="M45.17,76.7s-.18.07-.46.21H25.26V41.39h0c2.1,0,4.73-.25,4.73-.25,0,2.23,0,4.57.22,6.74,0,.43.09.87.13,1.29.08.74.16,1.44.27,2.1v0c0,.3.09.57.15.84.5,2.45,1.29,4.1,2.51,4.1,0,0,11.86,1.42,11.86,20.47Z"/><path class="cls-3" d="M30.65,51.27v0a6.29,6.29,0,0,1-5.37,2.91h0a6.71,6.71,0,0,1-5.34-2.9c.11-.65.2-1.34.27-2.06,0-.43.08-.86.12-1.31a21.41,21.41,0,0,0,4.89.64h.06a20.17,20.17,0,0,0,5-.69c0,.43.09.87.13,1.29.08.74.16,1.44.27,2.1Z"/><path class="cls-4" d="M45.2,76.71a3.92,3.92,0,0,0-.46.2H5.86c-.31-.14-.48-.2-.48-.2,0-14.51,6.9-18.79,10.18-20,2.14,2.34,6.37,5.57,9.63,5.72h.09s0,0,.07,0c3.28-.15,7.51-3.39,9.65-5.73,3.26,1.2,10.2,5.46,10.2,20Z"/><path class="cls-3" d="M25,.67C4.45.67,4.34,17.78,5.25,29,3.84,26.33-.32,27.15,0,31.34c.33,4,6.21,6.1,6.13,5.64C7.83,46.2,17.49,51.52,25,51.52h.16V.67Z"/><path class="cls-5" d="M1.33,29.57a2,2,0,0,1,3-.57,1.71,1.71,0,0,1,.48,1.86c-.15.54-.72.57-.58,1.39A1.44,1.44,0,0,0,5,33.44a1.91,1.91,0,0,1,.69.76,2,2,0,0,1,.09,1.14c-.16.67-1.13.14-1.78-.14a13.62,13.62,0,0,1-2.12-1.73,3.66,3.66,0,0,1-.58-3.9Z"/><path class="cls-3" d="M25.08.67C45.6.67,45.71,17.78,44.8,29c1.41-2.66,5.57-1.84,5.23,2.35-.32,4-6.21,6.1-6.13,5.64C42.22,46.2,32.56,51.52,25.08,51.52h-.16V.67Z"/><path class="cls-5" d="M48.72,29.57a2,2,0,0,0-3-.57,1.71,1.71,0,0,0-.47,1.86c.14.54.71.57.57,1.39A1.45,1.45,0,0,1,45,33.44a1.93,1.93,0,0,0-.7.76,2,2,0,0,0-.08,1.14c.15.67,1.11.14,1.77-.14a13.62,13.62,0,0,0,2.12-1.73,3.66,3.66,0,0,0,.58-3.9Z"/><path class="cls-1" d="M25.14,5.49c-6.76,0-11.69,2-14.69,5.81C6.27,16.69,6.43,24.92,8,30.82c.47,1.81.71,6.68,1,8.47,1.46,8,10.3,12.23,16.13,12.23h.15v-46Z"/><path class="cls-2" d="M39.79,11.31c-3-3.83-7.85-5.78-14.5-5.82v46c6.66-.07,14.6-4.74,16-12.23.32-1.79.56-6.66,1-8.47,1.53-5.89,1.68-14.1-2.51-19.51Z"/><path class="cls-6" d="M44.94,28.8a4.71,4.71,0,0,0-1.2,1.77c-.66,1.71-.9,1.41-.9,1.41s1-6.68,1-8.53S38,15.24,34.75,14.14,28.53,16.75,25,16.75h-.28c-3.44-.07-6.5-3.68-9.73-2.61S5.9,21.6,5.9,23.45s1,8.53,1,8.53-.25.3-.9-1.41a4.59,4.59,0,0,0-1.44-2C3.71,17,4.21,0,24.72,0h.1c20.62,0,21,17.23,20.12,28.8Z"/></g></g></svg>